<?xml version="1.0" encoding="UTF-8" standalone="no"?><!DOCTYPE svg PUBLIC "-//W3C//DTD SVG 1.1//EN" "http://www.w3.org/Graphics/SVG/1.1/DTD/svg11.dtd"><svg width="100%" height="100%" viewBox="0 0 2363 535" version="1.1" xmlns="http://www.w3.org/2000/svg" xmlns:xlink="http://www.w3.org/1999/xlink" xml:space="preserve" xmlns:serif="http://www.serif.com/" style="fill-rule:evenodd;clip-rule:evenodd;stroke-linejoin:round;stroke-miterlimit:2;"><g id="Layer_1"><g><g><g><g><g><g><g><g><path id="SVGID_1_" d="M1052.62,257.658l14.704,22.084c-1.137,-1.717 -3.025,-2.817 -4.912,-2.817c-1.992,0 -3.98,1.229 -5.088,4.279l-14.704,-22.079c1.112,-3.05 3.096,-4.287 5.091,-4.287c1.884,0 3.763,1.108 4.909,2.82Z" style="fill:#fff;fill-rule:nonzero;"/></g></g></g></g><g><g><g><g><path id="SVGID_3_" d="M1297.63,250.267l14.709,22.083c-0.717,-1.075 -1.759,-1.629 -2.863,-1.629c-1.471,0 -3.016,0.983 -4.016,3.004l-14.696,-22.079c0.995,-2.013 2.554,-3 4.02,-3c1.092,-0.004 2.134,0.55 2.846,1.621Z" style="fill:#fff;fill-rule:nonzero;"/></g></g></g></g><g><path d="M1310.28,171.471l124.196,0.787c2.367,0 19.412,2.763 -1.888,8.329c-17.016,4.43 -30.954,2.755 -36.516,24.913l-67.025,269.063c-5.567,24.033 13.133,44.758 37.312,51.254c5.471,1.333 5.804,7.141 -0.654,7.496l-81.608,-3.013l-99.15,3.35c-7.2,0 -7.479,-7.475 0.354,-8.854c23.175,-2.363 43.658,-21.463 48.117,-37.138l65.179,-233.654c0.008,-3.525 -1.813,-5.362 -3.809,-5.362c-1.458,0 -3.016,0.983 -4.02,2.996l-183.517,266.32c-5.083,8.196 -13.083,13.63 -20.158,13.63c-7.646,0 -14.217,-6.338 -14.909,-22.396l-18.471,-248.284c-0.2,-3.441 -3.1,-6.058 -5.991,-6.058c-1.992,0 -3.984,1.238 -5.092,4.288l-62.946,196.97c-5.154,14.967 -5.521,29.6 0.613,40.188c6.096,10.879 21.787,24.179 40.166,27.921c7.142,1.716 6.784,8.854 -0.016,9.204l-65.934,-2.758l-55.387,2.075c-6.504,-0.35 -5.804,-6.796 0.017,-7.846c19.075,-4.079 40.941,-23.488 50.854,-51.109l81.546,-262.07c3.42,-9.9 -1.984,-21.817 -11.884,-24.184l-25.229,-5.121c-4.429,-0.341 -5.062,-6.8 0.008,-6.8l144.734,-1.175l14.508,228.146l10.617,-12.912l138.112,-204.888c1.696,-2.766 5.796,-9.221 7.871,-13.308Z" style="fill:#fff;fill-rule:nonzero;"/></g></g></g></g><g><g><g><g><path d="M1497.6,170.533l166.721,1.38c7.842,0 11.521,13.883 -4.167,15.266c-16.754,1.475 -34.275,13.396 -38.391,27.671l-78.113,270c-3.771,14.329 6.638,38.263 33.542,40.288c4.429,1.029 4.421,7.82 0.329,7.82l-98.458,-3.775l-94.571,2.854c-5.133,0 -3.733,-6.787 0.642,-7.479c12.962,-2.362 50.641,-16.983 57.833,-40.137l87.087,-269.55c5.455,-19.4 -12.566,-28.954 -33.008,-33.729c-4.425,-0.709 -3.521,-10.263 0.554,-10.609Z" style="fill:#fff;fill-rule:nonzero;"/></g></g></g></g><g><g><g><g><path d="M1933.87,153.742c17.104,0 33.887,1.416 50.016,4.425c10.255,2.066 22.813,6.75 19.742,15.608l-24.608,62.738c-1.946,6.391 -5.184,10.258 -8.463,10.258c-4.558,0 -9.196,-7.467 -10.629,-26.017c-0.813,-10.15 0.821,-46.687 -13.108,-47.471c-3.542,-0.191 -7.063,-0.279 -10.596,-0.279c-22.346,0 -44.534,3.688 -64.292,9.984c-75.283,24.029 -123.021,65.095 -154.496,135.22c-30.775,67.463 -15.579,140.388 6.159,165.259c14.82,16.941 49.437,28.641 76.05,28.641c15.625,0 28.483,-4.041 32.933,-13.433c14.404,-34.613 21.387,-77.058 20.037,-96.463c0.059,-23.529 -9.17,-25.358 -26.708,-28.608c-12.296,-1.304 -16.233,-9.279 6.729,-9.279c1.221,0 2.517,0.025 3.9,0.079c7.375,-0.046 14.55,-0.071 21.617,-0.071c16.171,0 31.675,0.088 47.079,0.163c14.471,0.075 28.85,0.146 43.638,0.146c13.525,0 27.4,-0.071 41.966,-0.25c4.084,2.012 3.734,3.737 -0.366,5.766c-24.888,3.738 -34.8,8.513 -37.184,17.725c-9.621,32.709 -18.262,68.492 -33.846,102.034c-5.541,12.012 -31.683,23.441 -40.2,25.85c-26.475,9.429 -70.483,16.929 -112.395,16.929c-33.634,0 -65.921,-4.833 -86.717,-17.429c-77.971,-47.659 -91.996,-138.029 -60.158,-197.617c47.212,-88.65 189.454,-163.908 313.9,-163.908Z" style="fill:#fff;fill-rule:nonzero;"/></g></g></g></g><g opacity="0.78"><path d="M2325.75,531.104l0,-20.746l-7.754,0l0,-2.779l18.654,0l0,2.779l-7.779,0l0,20.746l-3.121,0Z" style="fill:#fff;fill-rule:nonzero;"/><path d="M2339.75,531.104l0,-23.525l4.687,0l5.575,16.667c0.513,1.546 0.888,2.708 1.13,3.483c0.262,-0.858 0.683,-2.116 1.245,-3.775l5.634,-16.375l4.191,0l0,23.525l-2.996,0l0,-19.696l-6.845,19.696l-2.809,0l-6.804,-20.033l0,20.033l-3.008,0Z" style="fill:#fff;fill-rule:nonzero;"/></g><g id="Tick"><g><path d="M118.713,247.471l99.529,0l187.2,279.442l-98.621,0l-188.109,-279.442Z" style="fill:url(#_Linear1);fill-rule:nonzero;"/><path d="M659.421,0.004l98.621,0l-351.571,526.909l-94.054,0l347.004,-526.909Z" style="fill:url(#_Linear2);fill-rule:nonzero;"/></g><g><path d="M0,247.471l99.538,0l187.195,279.437l-98.62,0l-188.113,-279.437Z" style="fill:url(#_Linear3);fill-rule:nonzero;"/><path d="M540.704,0l98.621,0l-351.563,526.908l-94.058,0l347,-526.908Z" style="fill:url(#_Linear4);fill-rule:nonzero;"/></g></g><g><path d="M642.971,404.429l-48.517,68.792c-14.383,22.5 12.825,46 42.829,51.475c2.75,2.133 2.284,9.012 -1.729,9.012c-0.437,0 -0.912,-0.083 -1.437,-0.258c-0.6,-0.263 -11.917,-4.979 -37.642,-7.383c-6.883,-0.654 -19.262,-2.763 -34.354,-2.763c-5.2,0 -10.713,0.254 -16.446,0.888l-54.267,7.641c-5.133,-0.341 -5.12,-6.458 0.009,-7.837c26.221,-3.392 57.646,-22.842 76.079,-49.046l220.746,-307.921c3.646,-5.287 11.437,-8.362 19.021,-8.362c9.495,0 18.641,4.825 18.82,16.195l7.271,308.263c2.359,25.854 19.684,36.788 41.509,42.892c3.05,2.062 1.712,6.154 -0.359,6.854c-1.416,-0.029 -28.337,-0.442 -60.508,-5.225c-7.529,-1.113 -13.417,-1.754 -20.608,-1.754c-6.221,0 -13.421,0.483 -23.5,1.554c-12.621,1.333 -6.659,1.525 -57.759,3.791c-1.941,0.092 -3.829,-0.412 -4.237,-3.7c0.454,-3.791 6.166,-5.616 7.991,-6.104c20.417,-5.658 30.488,-15.9 34.967,-41.025c4.833,-27.629 3.542,-51.116 2.892,-75.3m-31.271,-18.687c11.233,0 21.808,0.062 29.687,0.233l-2.925,-128.321c-0.554,-1.666 -1.304,-2.52 -2.162,-2.52c-0.704,0 -1.488,0.604 -2.275,1.829c-27.325,38.804 -64.958,86.371 -91.938,124.883c-1.729,3.042 -0.004,4.079 4.084,4.079c0.654,0.063 2.866,0.079 6.241,0.079c5.805,0 15.03,-0.062 25.592,-0.108c10.558,-0.079 22.458,-0.154 33.696,-0.154" style="fill:#fff;fill-rule:nonzero;"/></g><g><path d="M2297.53,526.558c3.05,2.009 1.658,6.1 -0.358,6.8c-1.417,-0.025 -28.338,-0.441 -60.505,-5.162c-7.641,-1.129 -13.558,-1.788 -20.841,-1.788c-6.163,0 -13.288,0.471 -23.267,1.525c-12.671,1.325 -6.658,1.521 -57.821,3.792c-1.904,0.088 -3.766,-0.408 -4.175,-3.696c0.446,-3.787 6.167,-5.575 7.942,-6.112c20.45,-5.617 30.525,-15.896 35.017,-41.021c4.825,-27.575 3.491,-51.067 2.85,-75.288l-110.784,-0.637l-48.52,68.8c-14.33,22.467 12.875,45.933 42.87,51.408c2.759,2.171 2.246,9.034 -1.758,9.034c-0.446,0 -0.929,-0.088 -1.467,-0.263c-0.604,-0.25 -11.912,-4.929 -37.587,-7.387c-6.875,-0.65 -19.271,-2.759 -34.358,-2.759c-5.2,0 -10.709,0.246 -16.438,0.888l-54.312,7.641c-5.088,-0.35 -5.08,-6.462 0.016,-7.837c26.271,-3.392 57.642,-22.8 76.125,-49.046l220.75,-307.858c3.646,-5.309 11.434,-8.388 19.013,-8.388c9.504,0 18.662,4.846 18.833,16.213l7.267,308.216c2.316,25.88 19.687,36.767 41.508,42.925Zm-152.558,-139.587c11.271,0 21.9,0.062 29.8,0.233l-2.871,-128.383c-0.571,-1.667 -1.325,-2.521 -2.171,-2.521c-0.717,0 -1.479,0.6 -2.246,1.833c-27.366,38.855 -64.966,86.417 -91.991,124.875c-1.684,3.05 -0.009,4.084 4.079,4.084c0.796,0.075 3.937,0.091 8.658,0.091c5.738,0 13.833,-0.05 22.983,-0.091c10.534,-0.059 22.471,-0.121 33.759,-0.121" style="fill:#fff;fill-rule:nonzero;"/></g></g></g><defs><linearGradient id="_Linear1" x1="0" y1="0" x2="1" y2="0" gradientUnits="userSpaceOnUse" gradientTransform="matrix(1.71107e-14,-279.439,279.439,1.71107e-14,262.079,526.913)"><stop offset="0" style="stop-color:#53b848;stop-opacity:1"/><stop offset="0.06" style="stop-color:#53b848;stop-opacity:1"/><stop offset="0.55" style="stop-color:#65ccec;stop-opacity:1"/><stop offset="0.58" style="stop-color:#61c3e7;stop-opacity:1"/><stop offset="0.69" style="stop-color:#55a7d8;stop-opacity:1"/><stop offset="0.79" style="stop-color:#4d92cd;stop-opacity:1"/><stop offset="0.9" style="stop-color:#4886c6;stop-opacity:1"/><stop offset="1" style="stop-color:#4682c4;stop-opacity:1"/></linearGradient><linearGradient id="_Linear2" x1="0" y1="0" x2="1" y2="0" gradientUnits="userSpaceOnUse" gradientTransform="matrix(443.572,-528.628,528.628,443.572,312.108,526.652)"><stop offset="0" style="stop-color:#6ebe44;stop-opacity:1"/><stop offset="0" style="stop-color:#6ebe44;stop-opacity:1"/><stop offset="0.25" style="stop-color:#bcda20;stop-opacity:1"/><stop offset="0.42" style="stop-color:#eceb09;stop-opacity:1"/><stop offset="0.51" style="stop-color:#fff200;stop-opacity:1"/><stop offset="0.58" style="stop-color:#fbca08;stop-opacity:1"/><stop offset="0.68" style="stop-color:#f79a11;stop-opacity:1"/><stop offset="0.78" style="stop-color:#f47419;stop-opacity:1"/><stop offset="0.86" style="stop-color:#f1581f;stop-opacity:1"/><stop offset="0.94" style="stop-color:#f04822;stop-opacity:1"/><stop offset="1" style="stop-color:#ef4223;stop-opacity:1"/></linearGradient><linearGradient id="_Linear3" x1="0" y1="0" x2="1" y2="0" gradientUnits="userSpaceOnUse" gradientTransform="matrix(1.71105e-14,-279.435,279.435,1.71105e-14,143.365,526.908)"><stop offset="0" style="stop-color:#53b848;stop-opacity:1"/><stop offset="0.06" style="stop-color:#53b848;stop-opacity:1"/><stop offset="0.55" style="stop-color:#65ccec;stop-opacity:1"/><stop offset="0.58" style="stop-color:#61c3e7;stop-opacity:1"/><stop offset="0.69" style="stop-color:#55a7d8;stop-opacity:1"/><stop offset="0.79" style="stop-color:#4d92cd;stop-opacity:1"/><stop offset="0.9" style="stop-color:#4886c6;stop-opacity:1"/><stop offset="1" style="stop-color:#4682c4;stop-opacity:1"/></linearGradient><linearGradient id="_Linear4" x1="0" y1="0" x2="1" y2="0" gradientUnits="userSpaceOnUse" gradientTransform="matrix(443.572,-528.628,528.628,443.572,193.39,526.644)"><stop offset="0" style="stop-color:#6ebe44;stop-opacity:1"/><stop offset="0" style="stop-color:#6ebe44;stop-opacity:1"/><stop offset="0.25" style="stop-color:#bcda20;stop-opacity:1"/><stop offset="0.42" style="stop-color:#eceb09;stop-opacity:1"/><stop offset="0.51" style="stop-color:#fff200;stop-opacity:1"/><stop offset="0.58" style="stop-color:#fbca08;stop-opacity:1"/><stop offset="0.68" style="stop-color:#f79a11;stop-opacity:1"/><stop offset="0.78" style="stop-color:#f47419;stop-opacity:1"/><stop offset="0.86" style="stop-color:#f1581f;stop-opacity:1"/><stop offset="0.94" style="stop-color:#f04822;stop-opacity:1"/><stop offset="1" style="stop-color:#ef4223;stop-opacity:1"/></linearGradient></defs></svg>