<?xml version="1.0" encoding="UTF-8" standalone="no"?>
<!-- Created with Inkscape (http://www.inkscape.org/) -->

<svg
   xmlns:dc="http://purl.org/dc/elements/1.1/"
   xmlns:cc="http://creativecommons.org/ns#"
   xmlns:rdf="http://www.w3.org/1999/02/22-rdf-syntax-ns#"
   xmlns:svg="http://www.w3.org/2000/svg"
   xmlns="http://www.w3.org/2000/svg"
   xmlns:sodipodi="http://sodipodi.sourceforge.net/DTD/sodipodi-0.dtd"
   xmlns:inkscape="http://www.inkscape.org/namespaces/inkscape"
   id="svg10737"
   version="1.1"
   inkscape:version="0.91 r13725"
   width="1920"
   height="1080"
   viewBox="0 0 1920 1080"
   sodipodi:docname="dreamcast_wire.svg">
  <metadata
     id="metadata10743">
    <rdf:RDF>
      <cc:Work
         rdf:about="">
        <dc:format>image/svg+xml</dc:format>
        <dc:type
           rdf:resource="http://purl.org/dc/dcmitype/StillImage" />
        <dc:title></dc:title>
      </cc:Work>
    </rdf:RDF>
  </metadata>
  <defs
     id="defs10741" />
  <sodipodi:namedview
     pagecolor="#ffffff"
     bordercolor="#666666"
     borderopacity="1"
     objecttolerance="10"
     gridtolerance="10"
     guidetolerance="10"
     inkscape:pageopacity="0"
     inkscape:pageshadow="2"
     inkscape:window-width="1920"
     inkscape:window-height="1178"
     id="namedview10739"
     showgrid="false"
     inkscape:zoom="0.19739583"
     inkscape:cx="960"
     inkscape:cy="540"
     inkscape:window-x="-8"
     inkscape:window-y="-8"
     inkscape:window-maximized="1"
     inkscape:current-layer="svg10737" />
  <path
     style="fill:#000000;fill-opacity:0"
     d="m 1125.8387,1004.5054 c -0.3445,-0.3445 -2.024,-0.7892 -3.732,-0.988 -1.7081,-0.1989 -6.7887,-1.476 -11.2902,-2.8381 -4.5015,-1.362 -15.1138,-4.5386 -23.5828,-7.059 -13.0883,-3.8951 -22.0723,-7.5126 -18.5743,-7.479 1.9785,0.019 47.3562,13.8754 50.605,15.4526 2.7272,1.324 3.0056,1.3457 1.464,0.114 -1.4945,-1.1942 -1.6019,-1.6219 -0.5,-1.9909 2.1791,-0.7298 21.9035,-4.2899 21.9035,-3.9535 0,0.5629 -13.8921,9.3684 -14.7801,9.3684 -0.4876,0 -1.1685,-0.2819 -1.5131,-0.6265 z m -97.7068,-11.4542 c -14.575,-4.3714 -31.67497,-9.4672 -37.99997,-11.324 -6.325,-1.8568 -23.875,-7.0721 -39,-11.5895 -15.125,-4.5174 -37.85,-11.27862 -50.5,-15.02492 -12.65,-3.7463 -29.975,-8.89305 -38.5,-11.43722 -8.525,-2.54418 -24.725,-7.33974 -36,-10.65682 -11.275,-3.31707 -25.45,-7.52625 -31.5,-9.35373 -15.10451,-4.56251 -23.66149,-7.11016 -55.5,-16.5239 -32.2438,-9.53357 -38.02453,-11.25473 -60,-17.86446 -9.075,-2.72956 -23.7,-7.06566 -32.5,-9.63578 -8.8,-2.57013 -27.025,-7.9614 -40.5,-11.98061 -13.475,-4.01921 -42.275,-12.56953 -64,-19.00072 -21.725,-6.43118 -41.3,-12.25373 -43.5,-12.93899 l -4,-1.24592 -0.5855,-7.92135 c -0.32202,-4.35674 -0.67173,-20.96845 -0.77713,-36.91491 -0.10539,-15.94646 -0.3872,-30.57146 -0.62624,-32.5 -0.51037,-4.11774 -1.73507,-90.00644 -1.28341,-90.00644 0.16882,0 5.47414,1.53853 11.78961,3.41896 6.31547,1.88043 31.95767,9.49105 56.98267,16.91249 25.025,7.42143 58.325,17.33081 74,22.02082 38.32583,11.46724 109.65363,32.64454 114,33.84673 1.925,0.53245 16.775,4.93808 33,9.79029 16.225,4.85221 38.95,11.60859 50.5,15.01419 11.55,3.40559 25.95,7.69887 32,9.54063 6.05,1.84176 24.95,7.46627 42,12.49893 17.05,5.03265 45.85,13.56394 64,18.95843 18.15,5.39449 44.02497,13.06767 57.49997,17.05153 13.475,3.98385 24.7969,7.51418 25.1598,7.84518 0.7474,0.68174 1.5831,29.99985 2.3403,82.10182 0.2838,19.525 0.794,46.63747 1.134,60.24997 0.3492,13.9838 0.2369,24.7212 -0.258,24.6837 -0.4819,-0.036 -12.8011,-3.6429 -27.3761,-8.0144 z m -56.99997,-84.68421 c 3.8884,-1.96542 6.4352,-4.17277 8.6915,-7.53294 l 3.1914,-4.7529 -0.5105,-16.72461 c -0.2808,-9.19854 -0.9486,-17.87635 -1.4839,-19.28404 -1.4434,-3.79558 -4.4824,-5.13585 -25.8885,-11.41741 -10.725,-3.14721 -25.3272,-7.47041 -32.4493,-9.6071 -12.08678,-3.62613 -13.10778,-3.78107 -15.3284,-2.32606 l -2.37908,1.55883 0.33271,18.17559 c 0.31925,17.44029 0.44062,18.38037 3.00005,23.23774 4.05296,7.69183 11.19852,15.89434 18.10692,20.78521 8.2347,5.82984 11.4896,7.40864 20.0411,9.7209 9.3367,2.52455 17.2122,1.93947 24.676,-1.83321 z m -19.6019,1.75186 c -6.8169,-0.97858 -15.3746,-4.26675 -21.711,-8.34211 -9.0402,-5.81438 -19.21389,-17.71824 -21.80006,-25.50738 -1.00679,-3.03231 -0.87116,-3.60785 1.38099,-5.86 l 2.49743,-2.49743 3.19914,6.00229 c 6.4853,12.16751 19.6882,23.63398 32.7139,28.41135 7.08,2.59667 23.2518,3.1315 27.3215,0.90355 l 2.5,-1.36862 -2.4007,2.61055 c -4.2966,4.67227 -14.1464,7.0194 -23.7012,5.6478 z m 0.1019,-7.85654 c -14.1961,-4.08643 -27.9269,-14.8707 -34.8805,-27.39539 -3.41446,-6.14995 -3.4715,-6.45201 -4.18216,-22.14631 -0.60634,-13.3903 -0.50001,-15.82703 0.67108,-15.37937 0.76538,0.29257 12.41658,3.78499 25.89158,7.76094 13.475,3.97595 27.5399,8.12872 31.2553,9.22839 10.6118,3.14079 10.7447,3.45356 10.7447,25.28123 0,20.72621 0.089,20.48513 -8.5644,23.08954 -6.1869,1.86198 -13.4728,1.7092 -20.9356,-0.43903 z m 14.4614,-14.6104 c 4.0705,-2.10494 6.6502,-5.78265 6.4087,-9.13643 -0.1142,-1.58595 -0.2442,-6.3581 -0.2889,-10.60477 l -0.081,-7.72121 -7.25,-2.14869 c -3.9875,-1.18178 -13.7271,-4.10637 -21.6436,-6.49908 -7.9164,-2.3927 -14.8338,-4.0783 -15.3718,-3.74576 -1.7303,1.06935 0.134,21.38563 2.279,24.83596 7.7318,12.43704 26.1007,20.11208 35.9478,15.01998 z m -16.4614,-0.85942 c -5.5843,-1.8308 -8.0867,-3.29236 -12.5666,-7.33973 -5.6139,-5.07174 -8.4696,-9.96986 -6.909,-11.85024 1.0345,-1.24651 1.6388,-0.81642 3.9309,2.79789 5.3219,8.39172 13.989,13.71654 23.5791,14.48634 6.1856,0.49652 13.237,-1.69761 11.982,-3.72831 -0.302,-0.48857 -0.1537,-1.13264 0.3295,-1.43127 0.4832,-0.29863 0.828,0.40957 0.7663,1.57378 -0.2839,5.35618 -12.128,8.43698 -21.1122,5.49154 z m 2.7236,-5.07969 c -7.0651,-2.28892 -14.1105,-7.59606 -16.7017,-12.58087 -1.2221,-2.35117 -0.9638,-2.87315 4.3393,-8.76829 l 5.6388,-6.26829 7.6571,2.00773 c 4.2114,1.10425 8.9061,2.48258 10.4326,3.06296 l 2.7755,1.05524 -2.6197,2.61968 -2.6197,2.61967 -7.8129,-2.29316 c -4.2971,-1.26124 -8.1454,-2.48366 -8.5518,-2.7165 -0.4064,-0.23283 -0.018,-1.63737 0.864,-3.12119 l 1.6029,-2.69785 -2.614,2.80576 c -4.0048,4.2986 -3.647,9.58008 0.9208,13.59065 1.9441,1.70697 4.3066,3.0837 5.25,3.05939 0.9884,-0.0255 0.1392,-0.8764 -2.0039,-2.00805 -4.1452,-2.18884 -5.7809,-4.56049 -5.7809,-8.38201 0,-3.05 -0.509,-3.06444 9.5,0.2695 7.6267,2.54042 8.0145,2.81481 8.3108,5.88045 0.3248,3.36066 0.5824,3.17169 -6.3108,4.62937 -1.1,0.23262 -0.4392,0.47514 1.4685,0.53894 2.914,0.0974 4.3204,-0.72348 8.7959,-5.134 l 5.3273,-5.25 -0.2959,6.89719 c -0.2607,6.0797 -0.6024,7.12549 -2.8824,8.82324 -3.3957,2.52856 -9.375,3.08231 -14.6898,1.36044 z m 9.7764,-12.86864 c 0,-1.25828 1.313,-3.84578 2.9177,-5.75 2.2929,-2.72069 3.1831,-3.20387 4.1563,-2.25595 0.9795,0.95393 0.4597,2.15684 -2.4847,5.75 -2.0477,2.49905 -3.9181,4.54372 -4.1563,4.54372 -0.2381,0 -0.433,-1.0295 -0.433,-2.28777 z m -33.1659,-9.54857 c -0.3722,-7.73252 -0.095,-10.16366 1.1602,-10.16366 1.3693,0 1.6857,15.02878 0.3398,16.14142 -0.8638,0.71413 -1.2524,-0.83456 -1.5,-5.97776 z m 5.1659,-1.61583 0,-7.45217 4.5984,1.38392 c 2.5291,0.76116 4.8278,1.6133 5.1082,1.89365 0.4458,0.44584 -8.5911,11.62677 -9.3973,11.62677 -0.1701,0 -0.3093,-3.35348 -0.3093,-7.45217 z m -27.4573,8.44306 c -0.36377,-3.01999 -0.52219,-10.66589 -0.35205,-16.99089 0.29742,-11.05658 0.39611,-11.51232 2.55935,-11.81955 2.22063,-0.31538 2.25106,-0.16525 2.33124,11.5 0.0447,6.50075 0.17215,13.05948 0.28326,14.57495 0.11606,1.58296 -0.7261,3.91937 -1.97919,5.49089 l -2.1812,2.73549 -0.66141,-5.49089 z m -49.21301,8.22647 c 6.97124,-3.89076 12.09236,-11.25811 11.27183,-16.21589 -0.31873,-1.92581 -0.58446,-9.65444 -0.59051,-17.17474 -0.0139,-17.29593 -0.55738,-18.17328 -13.70206,-22.12068 -59.58418,-17.89341 -59.99481,-17.99442 -62.22522,-15.30694 -0.79344,0.95604 -1.1216,6.82664 -1.03624,18.53795 l 0.12492,17.13885 3.60567,7.21204 c 6.83846,13.67827 22.75801,26.37088 37.86687,30.19114 8.71098,2.20257 18.25224,1.32836 24.68474,-2.26173 z m -24.98272,0.79737 c -15.88558,-4.16436 -28.02904,-13.75147 -36.75133,-29.01473 -3.19294,-5.58738 -3.22223,-7.06272 -0.19662,-9.90513 l 2.39901,-2.25376 3.30769,6.32945 c 4.46584,8.54561 16.37385,20.31215 24.90184,24.606 11.87366,5.97839 24.73296,7.83418 33.24244,4.79739 2.0625,-0.73605 3.74693,-1.0538 3.74317,-0.70611 -0.0155,1.43125 -7.42531,5.53723 -12.2524,6.78936 -6.70631,1.73959 -9.70685,1.63479 -18.3938,-0.64247 z m 5.15303,-6.81952 c -14.56126,-4.34888 -28.63296,-15.4627 -35.21583,-27.81343 -3.09322,-5.80348 -3.23321,-6.58403 -3.89179,-21.69956 l -0.68315,-15.67955 2.89538,0.93378 c 1.59247,0.51358 10.77039,3.24232 20.39539,6.06386 9.625,2.82154 22.9,6.72003 29.5,8.66331 17.14854,5.04914 16.5,3.99823 16.5,26.73716 0,19.80005 0.0817,19.48636 -5.87724,22.574 -4.08014,2.11415 -16.88209,2.2336 -23.62276,0.22043 z m 14,-14.45851 c 1.1,-0.54264 3.0125,-1.90883 4.25,-3.03598 2.0794,-1.89396 2.25,-2.90519 2.25,-13.33649 l 0,-11.28714 -3.75,-1.02328 c -2.0625,-0.5628 -11.85,-3.4553 -21.75,-6.42778 -9.9,-2.97247 -18.38977,-5.17048 -18.86615,-4.88446 -1.27808,0.76735 0.26046,21.15441 1.82408,24.17077 2.16112,4.16897 9.64812,11.06111 14.97368,13.78397 7.78924,3.98249 15.59847,4.73879 21.06839,2.04039 z m -15.50647,-0.67104 c -7.00815,-2.13178 -15.21714,-8.45532 -19.0707,-14.69053 -1.75699,-2.84287 -1.90082,-3.69672 -0.83833,-4.97694 1.12486,-1.35537 1.45829,-1.19824 2.71242,1.27824 2.54608,5.02762 9.32417,11.10478 15.45355,13.85549 4.96529,2.22828 7.05518,2.61793 12.26282,2.28634 6.22348,-0.39629 10.39037,-2.3146 8.69982,-4.00515 -0.49554,-0.49554 -2.13194,-0.21444 -3.79238,0.65146 -1.6064,0.83771 -4.36635,1.52588 -6.13322,1.52927 -7.69205,0.0148 -20.39957,-7.40888 -23.69804,-13.84421 -1.30234,-2.54086 -1.12422,-2.9071 4.33899,-8.92147 l 5.69709,-6.27184 8.93722,2.55147 c 12.92855,3.69094 12.18869,3.19529 9.2124,6.17158 l -2.59868,2.59869 -8.58825,-2.3697 c -4.72353,-1.30334 -8.58824,-2.6608 -8.58824,-3.01659 0,-0.35578 0.675,-1.20708 1.5,-1.89177 0.825,-0.68469 1.49776,-1.75229 1.49503,-2.37244 -0.003,-0.62016 -1.11155,0.22244 -2.46403,1.87244 -4.87197,5.94366 -2.24735,13.40189 5.7841,16.43638 6.08668,2.29971 9.13013,1.43035 14.65579,-4.18638 l 5.16488,-5.25 -0.33297,7.66383 c -0.18313,4.21511 -0.0507,7.48937 0.29433,7.27614 0.34501,-0.21323 0.5768,0.59536 0.51508,1.79686 -0.18931,3.68554 -5.98201,6.77738 -12.51009,6.67722 -3.08117,-0.0473 -6.73003,-0.42905 -8.10859,-0.84839 z m -1.06482,-15.04206 c -4.7994,-2.53727 -6.12579,-4.33843 -5.74694,-7.80401 l 0.31823,-2.91105 8.5,2.62078 c 7.88089,2.4299 8.52404,2.82957 8.83008,5.48723 0.18676,1.62193 -0.2474,3.23252 -1,3.70963 -2.2037,1.39702 -7.1123,0.90056 -10.90137,-1.10258 z m 13.09819,-3.11861 c 0.0383,-3.4251 5.46948,-9.78112 7.03421,-8.23203 1.28595,1.27309 -0.83287,5.0084 -4.95318,8.73203 -2.0878,1.88679 -2.10767,1.88202 -2.08103,-0.5 z m -33.06467,-7.53255 c -0.0208,-2.67984 -0.28248,-6.55994 -0.58158,-8.62244 -0.43242,-2.98186 -0.21985,-3.75 1.03777,-3.75 1.23069,0 1.60007,1.16477 1.66491,5.25 0.0458,2.8875 0.19614,6.26939 0.33401,7.51532 0.13787,1.24592 -0.34963,2.76352 -1.08333,3.37244 -1.0803,0.89657 -1.34119,0.18044 -1.37178,-3.76532 z m 5.0488,-3.5305 -0.011,-7.65806 5,1.59893 c 2.75,0.87942 4.98052,1.85054 4.95671,2.15806 -0.0238,0.30752 -2.26885,3.03413 -4.98897,6.05913 l -4.94568,5.5 -0.011,-7.65806 z m -27.27743,10.54482 c -0.2934,-1.53484 -0.59924,-8.96284 -0.67964,-16.50667 -0.14029,-13.16285 -0.0606,-13.7432 1.97529,-14.38937 1.16681,-0.37033 2.29737,-0.49743 2.51236,-0.28244 0.21499,0.21499 0.44655,7.0656 0.51459,15.22358 0.11245,13.48384 -0.0542,15.0106 -1.83272,16.78911 -1.94189,1.94188 -1.96038,1.93569 -2.48988,-0.83421 z m -54.1651,8.14196 c 10.08788,-3.00964 16.5199,-11.13058 15.87863,-20.04806 -0.19699,-2.73936 -0.37818,-10.48606 -0.40265,-17.21488 -0.0636,-17.48807 2.10111,-15.86846 -36.47629,-27.29144 -17.01249,-5.0375 -32.42119,-9.40078 -34.24154,-9.69618 -6.01725,-0.97647 -6.32665,-0.037 -6.32665,19.20993 l 0,17.2432 3.68686,7.36961 c 10.8749,21.73763 38.4397,36.22818 57.88164,30.42782 z m -19.5685,-1.04493 c -15.38383,-4.20769 -30.03773,-15.42076 -36.7538,-28.12377 -3.88075,-7.34018 -3.95718,-8.34346 -0.85751,-11.25545 l 2.38869,-2.24406 2.86131,5.77607 c 3.75608,7.5823 14.53726,18.91189 22.50279,23.64742 9.58443,5.69798 18.24865,8.0302 27.63282,7.43815 4.24913,-0.26808 8.8507,-0.79863 10.2257,-1.179 2.45396,-0.67885 2.46316,-0.66052 0.5,0.99525 -6.50536,5.48674 -18.75155,7.61173 -28.5,4.94539 z m 8.5,-5.90521 c -0.55,-0.20974 -3.475,-1.13672 -6.5,-2.05996 -12.75131,-3.89176 -26.39415,-15.27615 -32.87247,-27.43072 -2.86888,-5.38257 -3.07405,-6.53459 -3.72082,-20.8923 -0.56888,-12.62854 -0.44989,-15.19586 0.70438,-15.19717 1.47653,-0.002 44.10652,12.42098 57.13998,16.65094 4.7284,1.53459 8.3356,3.35013 9.25,4.65561 1.19887,1.71164 1.49586,5.74877 1.48362,20.16753 -0.008,9.91512 -0.34592,18.5272 -0.75,19.13796 -1.83649,2.77582 -7.99707,4.75121 -15.73469,5.04534 -4.4,0.16726 -8.45,0.1325 -9,-0.0772 z m 7.058,-14.6975 c 2.7969,-0.70427 5.46245,-2.27925 7.19282,-4.25 2.68271,-3.05538 2.74163,-3.38821 2.43711,-13.76632 l -0.31207,-10.63524 -16.18793,-4.73541 c -8.90336,-2.60447 -18.66293,-5.52447 -21.68793,-6.48889 -3.025,-0.96443 -5.89883,-1.52068 -6.38628,-1.23612 -0.48746,0.28457 -0.63576,5.39201 -0.32956,11.34988 0.5225,10.16672 0.75316,11.10603 3.75293,15.28313 5.39568,7.51336 11.36894,11.67298 20.16031,14.03911 6.65211,1.79037 6.08452,1.76839 11.3606,0.43986 z m -8.62639,-0.97243 c -8.68815,-1.31395 -19.83928,-8.89867 -23.38906,-15.90865 -0.69628,-1.375 -1.36894,-5.425 -1.4948,-9 -0.12586,-3.575 -0.36259,-8.1875 -0.52607,-10.25 -0.20374,-2.57044 0.11347,-3.75 1.00848,-3.75 1.48371,0 2.60561,13.81484 1.2547,15.45 -1.06617,1.2905 -0.99575,2.79837 0.0991,2.12173 0.48617,-0.30047 1.44393,0.8056 2.12835,2.45794 2.21537,5.34838 11.34701,12.69208 18.54773,14.91615 8.92048,2.75526 17.35751,1.22379 18.01712,-3.27042 0.14882,-1.01397 -0.68801,-0.89345 -3.40132,0.48988 -7.25728,3.69997 -17.09211,1.41276 -25.17545,-5.85486 -7.21947,-6.49092 -7.32239,-8.07794 -0.97622,-15.0535 5.96757,-6.5594 8.82266,-8.36699 4.72023,-2.98844 -3.67837,4.8226 -3.67635,9.4881 0.006,12.92224 4.35439,4.06131 7.73309,5.30401 13.37666,4.91997 0.89466,-0.0609 3.93076,-2.47319 6.74689,-5.36069 l 5.12025,-5.25 0.12204,7 c 0.0671,3.85 0.18101,8.07486 0.2531,9.38858 0.2635,4.80228 -7.93882,8.30533 -16.43733,7.02007 z m 12.06839,-5.30166 c 0,-0.21616 0.69837,-0.661 1.55194,-0.98855 0.88992,-0.34149 1.29132,-0.17385 0.94098,0.39301 -0.58726,0.95021 -2.49292,1.40545 -2.49292,0.59554 z m -15.99949,-9.70646 c -4.0968,-1.67293 -7.00051,-5.02226 -7.00051,-8.07484 0,-3.40736 0.42362,-3.42756 10,-0.47694 7.42099,2.28652 7.5,2.34689 7.5,5.73106 0,3.28846 -0.15407,3.4283 -4,3.63079 -2.2,0.11583 -5.12477,-0.2487 -6.49949,-0.81007 z m 11.99949,-4.04259 c 0,-1.40138 0.9,-3.36245 2,-4.35794 1.1,-0.99549 1.98503,-2.30273 1.96673,-2.90499 -0.0183,-0.60225 -0.87793,-0.0825 -1.91029,1.15499 -1.03236,1.2375 -2.67297,2.25 -3.64579,2.25 -1.5993,0 -15.28167,-3.96366 -16.35762,-4.73866 -0.24583,-0.17707 0.70255,-1.47146 2.10751,-2.87642 l 2.55448,-2.55448 7.39249,2.1132 c 4.06587,1.16226 8.17388,2.55041 9.12892,3.08478 0.95504,0.53437 2.41754,0.97158 3.25,0.97158 2.60283,0 1.66831,2.443 -2.48643,6.5 -3.93144,3.83895 -4,3.86223 -4,1.35794 z m -27.95671,-10.60794 c -0.0238,-3.9875 0.20744,-7.25 0.51389,-7.25 1.75134,0 9.44105,2.33886 9.43179,2.86871 -0.006,0.34721 -2.23659,3.10629 -4.95671,6.13129 l -4.94567,5.5 -0.0433,-7.25 z m -27.63159,-3.38692 c 0.0769,-14.04599 0.30884,-16.27656 1.79034,-17.21463 0.93612,-0.59274 1.93117,-0.84857 2.21123,-0.56851 0.28006,0.28005 0.56864,7.1573 0.6413,15.28275 0.11427,12.78006 -0.10382,15.03425 -1.61622,16.70544 -0.96158,1.06253 -2.05582,1.93187 -2.43164,1.93187 -0.37582,0 -0.64358,-7.26161 -0.59501,-16.13692 z m 269.8847,47.0417 c 2.4924,-3.98343 -1.5541,-9.20633 -8.1557,-10.52663 l -3.2547,-0.65095 0.307,5.3621 c 0.2607,4.55266 0.6844,5.55576 2.807,6.64497 3.1629,1.62303 7.002,1.23918 8.2964,-0.82949 z m -7.0612,0.38754 c -1.2457,-0.23942 -2.0271,-0.81998 -1.7366,-1.29014 0.2907,-0.4703 1.9329,-0.45202 3.6507,0.0406 5.684,1.63014 4.4061,2.46429 -1.9141,1.2495 z m 0.7648,-4.29232 c 0,-1.1 0.45,-2 1,-2 0.55,0 1,0.9 1,2 0,1.1 -0.45,2 -1,2 -0.55,0 -1,-0.9 -1,-2 z m 4.5,1 c 0.3399,-0.55 0.8165,-1 1.059,-1 0.2426,0 0.441,0.45 0.441,1 0,0.55 -0.4766,1 -1.059,1 -0.5825,0 -0.7809,-0.45 -0.441,-1 z m -8.2478,-3.5 c 0.011,-2.2 0.2159,-2.98225 0.4551,-1.73834 0.2391,1.24391 0.2301,3.04391 -0.02,4 -0.2503,0.95609 -0.446,-0.0617 -0.4349,-2.26166 z m 6.8267,1.25 c -0.043,-0.9625 -0.5289,-1.75 -1.0789,-1.75 -0.55,0 -1,-0.54643 -1,-1.21429 0,-0.78663 0.5691,-0.64513 1.6161,0.40179 0.8888,0.88884 1.3743,2.22277 1.0789,2.96429 -0.3678,0.92333 -0.562,0.79671 -0.6161,-0.40179 z M 625.2598,808.60403 c 5.42589,-1.84879 11.3081,-6.52237 13.6082,-10.8121 1.4443,-2.69364 1.65094,-5.74267 1.40017,-20.66 -0.32418,-19.28354 -0.79231,-20.99326 -6.43519,-23.50242 -1.76058,-0.78286 -17.12358,-5.54704 -34.14,-10.58707 -24.46208,-7.24533 -31.47509,-8.97533 -33.5,-8.26394 l -2.56105,0.89975 -0.27323,17.76573 -0.27324,17.76572 3.2555,6.71112 c 4.39363,9.05734 16.71451,21.41731 26.01823,26.10077 11.70159,5.89054 24.02437,7.60688 32.90061,4.58244 z m -21.71478,-1.35737 c -15.60342,-4.46751 -28.92313,-15.3207 -36.04086,-29.36686 -2.58382,-5.09893 -2.48563,-7.43028 0.42385,-10.06332 1.62455,-1.4702 1.9474,-1.1859 4.67656,4.11811 3.8541,7.49027 17.32886,21.06929 24.50488,24.69448 9.47369,4.78593 16.00926,6.58618 24.14391,6.65054 4.19179,0.0332 8.60423,-0.46568 9.80544,-1.10854 4.45908,-2.38643 4.35422,-0.28818 -0.11653,2.33186 -8.68605,5.09036 -16.47643,5.87054 -27.39725,2.74373 z m 5.69924,-6.69528 c -13.47259,-3.62323 -28.89343,-16.03508 -34.99636,-28.16768 -2.97595,-5.91619 -3.17678,-7.04545 -3.77917,-21.25 -0.45808,-10.8017 -0.322,-15.00177 0.48603,-15.00177 1.67405,0 62.38334,18.03997 64.4732,19.15843 0.98984,0.52975 2.22816,2.09011 2.75184,3.46747 1.12626,2.96229 1.26569,36.33265 0.15909,38.07348 -0.41934,0.65966 -2.77494,2.11228 -5.23469,3.22804 -5.3943,2.4469 -15.79358,2.66135 -23.85994,0.49203 z m 16.34576,-15.39355 c 4.42508,-2.73485 5.084,-5.02986 4.75913,-16.57597 l -0.28277,-10.05006 -21.21723,-6.23174 c -11.66947,-3.42746 -21.84345,-6.21743 -22.60883,-6.19994 -1.13404,0.0259 -1.2961,2.04696 -0.87558,10.91912 0.48012,10.12946 0.73211,11.20135 3.62014,15.39896 9.00764,13.09215 26.29811,19.10973 36.60514,12.73963 z m -17.54915,0.0777 c -7.44386,-2.38163 -14.02069,-7.04715 -17.64287,-12.51564 -2.42344,-3.65873 -2.9922,-5.62274 -3.12204,-10.78086 -0.0873,-3.46891 -0.43154,-8.21962 -0.76494,-10.55712 -0.50348,-3.52996 -0.32621,-4.25 1.0463,-4.25 1.43275,0 1.61406,1.16349 1.36354,8.75 -0.31844,9.64361 -0.55996,9.07 7.50928,17.83391 7.66187,8.32148 19.39373,12.24295 27.05299,9.04271 2.4307,-1.01561 3.53185,-2.00684 3.06626,-2.76017 -0.41098,-0.66499 -0.29748,-0.91033 0.26136,-0.56495 0.54332,0.33579 0.98785,0.008 0.98785,-0.72943 0,-1.00314 -0.77506,-0.86733 -3.08334,0.54025 -5.57361,3.39877 -17.17376,1.50141 -24.09217,-3.94061 -3.26267,-2.56642 -8.63964,-9.24938 -8.26758,-10.27565 0.58443,-1.61203 12.06077,-12.94505 12.58147,-12.42434 0.30203,0.30203 -0.65555,1.80657 -2.12795,3.34343 -4.00722,4.18263 -3.70328,9.07666 0.80977,13.03918 4.40229,3.86526 10.59803,5.69024 13.75895,4.05276 1.2398,-0.64226 4.14651,-3.2466 6.45937,-5.78742 l 4.20519,-4.61967 0.11912,7 c 0.0655,3.85 0.29774,7.94621 0.51606,9.1027 0.52151,2.76261 -2.94423,5.90541 -8.04556,7.29587 -5.13082,1.3985 -5.88393,1.35095 -12.59106,-0.79495 z m -0.40894,-14.24532 c -4.15145,-2.34852 -6.5,-5.25082 -6.5,-8.03259 0,-1.55413 0.36271,-2.82569 0.80602,-2.82569 0.44331,0 4.38081,1.06299 8.75,2.36221 7.8972,2.3483 7.94398,2.38216 7.94398,5.75 0,3.31222 -0.10038,3.39325 -4.5,3.63264 -2.475,0.13467 -5.4,-0.26428 -6.5,-0.88657 z m 12.5,-3.96824 c 0,-2.57094 4.58743,-7.89004 6.80472,-7.89004 2.29656,0 1.16406,2.62459 -2.80472,6.5 -3.90505,3.81318 -4,3.84617 -4,1.39004 z m -9.5,-5.60413 c -4.4,-1.38076 -8.20114,-2.69858 -8.44697,-2.92849 -0.24583,-0.22992 0.69938,-1.56438 2.10048,-2.96547 l 2.54745,-2.54745 8.67006,2.64453 8.67006,2.64453 -2.08863,2.93322 c -1.14875,1.61327 -2.3955,2.88741 -2.77054,2.83141 -0.37505,-0.056 -4.28191,-1.23152 -8.68191,-2.61228 z m -18.46188,-5.15254 c -0.0371,-7.17003 0.0219,-7.34953 2.21188,-6.72593 1.2375,0.35239 3.4875,0.91112 5,1.24163 1.5125,0.33051 2.75,0.96329 2.75,1.40618 0,0.44289 -2.23285,3.19914 -4.96188,6.125 l -4.96188,5.31975 -0.0381,-7.36663 z m -27.51265,9.76559 c -0.34157,-1.86943 -0.48704,-9.20079 -0.32326,-16.29191 0.25049,-10.84524 0.56811,-13.06316 1.99983,-13.96463 0.93612,-0.58942 1.93117,-0.84254 2.21123,-0.56248 0.28006,0.28005 0.56888,7.1844 0.64183,15.34298 0.12205,13.64945 -0.0287,14.99511 -1.88797,16.85439 l -2.02061,2.02062 -0.62105,-3.39897 z m 270.0016,35.05724 c 1.12281,-1.81674 -1.56653,-3.9844 -4.14149,-3.33813 -2.04235,0.5126 -2.38558,0.23544 -2.38558,-1.92633 0,-1.38879 -0.5625,-2.72597 -1.25,-2.9715 -0.6875,-0.24554 -0.96258,-0.75796 -0.61128,-1.13872 0.35129,-0.38076 1.8795,0.45763 3.39602,1.8631 3.82155,3.54169 6.91516,3.38869 4.62,-0.22849 -0.46765,-0.73702 -1.63246,-1.01629 -2.73469,-0.65567 -1.53772,0.50311 -1.62616,0.42052 -0.44412,-0.41478 1.22798,-0.86776 1.05999,-1.19752 -1,-1.96293 -6.34084,-2.35598 -9.56454,4.31954 -4.52138,9.3627 2.54095,2.54096 7.86259,3.36845 9.07252,1.41075 z m -7.89221,-2.02878 c -1.6922,-1.33108 -2.62671,-3.03047 -2.61209,-4.75 0.0224,-2.63012 0.0522,-2.61777 1.6862,0.69915 0.92983,1.88744 3.01461,3.965 4.72723,4.71085 2.47299,1.077 2.65593,1.34184 0.94866,1.37344 -1.16333,0.0215 -3.30083,-0.89352 -4.75,-2.03344 z M 719.97692,767.8187 c 0.62935,-0.75832 0.83227,-2.90073 0.48022,-5.07013 -0.67064,-4.13272 -3.01192,-6.20398 -8.18144,-7.23789 l -3.25168,-0.65033 0.30395,5.8579 0.30396,5.85791 4,1.20103 c 5.21661,1.56633 5.08024,1.56544 6.34499,0.0415 z m -7.34499,-1.73347 c -1.3939,-0.63152 -0.7878,-0.72154 2,-0.29705 2.2,0.33499 4.1875,0.77437 4.41667,0.97641 0.85918,0.75747 -4.49696,0.19039 -6.41667,-0.67936 z m -2.24782,-5.4533 c 0.0111,-2.2 0.21589,-2.98225 0.45508,-1.73834 0.23919,1.24391 0.23011,3.04391 -0.0202,4 -0.25029,0.95609 -0.446,-0.0617 -0.4349,-2.26166 z M 605.9762,729.88222 c -1.81071,-4.84096 -4.06867,-7.75029 -6.01508,-7.75029 -1.3376,0 -5.00353,8.10328 -4.38966,9.70302 0.39586,1.03159 1.34434,1.31706 2.99746,0.90215 1.43836,-0.36101 2.96144,-0.0639 3.75854,0.73322 1.54955,1.54955 4.01063,2.5556 4.95851,2.02696 0.35972,-0.20062 -0.22968,-2.7274 -1.30977,-5.61506 z m -9.34427,1.24971 c 0.33992,-0.55 0.81648,-1 1.05902,-1 0.24254,0 0.44098,0.45 0.44098,1 0,0.55 -0.47656,1 -1.05902,1 -0.58246,0 -0.7809,-0.45 -0.44098,-1 z m 4.25,-0.66228 c 0.6875,-0.27741 1.8125,-0.27741 2.5,0 0.6875,0.27741 0.125,0.50439 -1.25,0.50439 -1.375,0 -1.9375,-0.22698 -1.25,-0.50439 z m -2.7182,-1.89659 c -0.0175,-0.58238 0.62889,-1.93238 1.4364,-3 0.8075,-1.06762 1.4825,-1.46464 1.5,-0.88226 0.0175,0.58238 -0.62889,1.93238 -1.4364,3 -0.8075,1.06762 -1.4825,1.46464 -1.5,0.88226 z m 3.9682,-1.94113 c 0,-0.825 0.17686,-1.5 0.39301,-1.5 0.21616,0 0.65203,0.675 0.96862,1.5 0.31658,0.825 0.13972,1.5 -0.39301,1.5 -0.53274,0 -0.96862,-0.675 -0.96862,-1.5 z M 1056.7862,972.1087 c -0.3544,-15.66222 -0.8774,-46.02677 -1.1622,-67.47677 -0.2848,-21.45 -0.7689,-46.12931 -1.0758,-54.84291 -0.5057,-14.35391 -0.387,-16.04564 1.2628,-18 1.7911,-2.12181 1.7882,-2.13039 -0.1791,-0.52461 -2.0905,1.7064 -5.9208,0.67442 -81.99997,-22.09292 -7.15,-2.1397 -25.375,-7.55127 -40.5,-12.02572 -15.125,-4.47445 -36.275,-10.76801 -47,-13.98569 -10.725,-3.21767 -28.95,-8.62861 -40.5,-12.0243 -11.55,-3.3957 -29.775,-8.80339 -40.5,-12.01709 -10.725,-3.2137 -31.875,-9.50392 -47,-13.97827 -49.10881,-14.52758 -61.09568,-18.09206 -87.5,-26.01948 -14.3,-4.29332 -27.575,-8.2461 -29.5,-8.78395 -1.925,-0.53786 -21.95,-6.48051 -44.5,-13.20588 -22.55,-6.72538 -44.6,-13.25686 -49,-14.51439 -18.44885,-5.27274 -54.74102,-16.39248 -55.28873,-16.94019 -0.32572,-0.32572 0.0896,-1.27408 0.92302,-2.10746 1.35365,-1.35365 2.36039,-1.2526 9.44047,0.94762 4.35888,1.35458 9.50024,2.89673 11.42524,3.42702 4.948,1.36303 59.44397,17.50094 98.5,29.16883 35.49385,10.6037 81.40266,24.24776 122.84749,36.51017 14.21612,4.20616 26.02861,7.46646 26.24997,7.2451 0.22136,-0.22137 -6.01001,-2.31696 -13.84749,-4.65687 -7.83748,-2.33991 -16.94997,-5.09751 -20.24997,-6.12798 -3.3,-1.03048 -21.975,-6.58976 -41.5,-12.35397 -19.525,-5.76421 -48.55,-14.36073 -64.5,-19.10339 -15.95,-4.74266 -36.65,-10.88489 -46,-13.6494 -9.35,-2.76451 -20.825,-6.16523 -25.5,-7.55716 -4.675,-1.39193 -13.45,-4.0008 -19.5,-5.7975 -6.05,-1.7967 -15.05,-4.4808 -20,-5.96466 -16.42712,-4.92436 -21.44467,-6.24694 -21.915,-5.77662 -0.25614,0.25614 -0.27721,5.25505 -0.0468,11.10869 0.23038,5.85364 0.65396,26.50548 0.94129,45.89298 0.38952,26.28275 0.22868,35.25 -0.63225,35.25 -0.63507,0 -10.42299,-2.76186 -21.75094,-6.13746 -11.32795,-3.37561 -22.95877,-6.82466 -25.84627,-7.66457 -5.22671,-1.52032 -5.25001,-1.54522 -5.2525,-5.61253 -0.004,-7.2957 -1.89647,-111.31952 -2.53426,-139.33544 -0.3412,-14.9875 -0.38323,-27.25 -0.0934,-27.25 0.28982,0 4.03767,1.09517 8.32856,2.43372 4.29089,1.33854 11.62662,3.54412 16.30162,4.90128 4.675,1.35717 26.95,7.95334 49.5,14.65817 22.55,6.70482 59.9,17.80369 83,24.66414 23.1,6.86046 50.325,14.95433 60.5,17.98639 41.35374,12.32302 72.75146,21.63483 77,22.83634 2.475,0.69995 12.825,3.77327 23,6.8296 10.175,3.05633 33.125,9.89244 51,15.19137 38.96481,11.55085 86.32064,25.63025 124.49995,37.01519 15.4,4.59222 42.625,12.67314 60.5,17.95761 17.87497,5.28446 48.47497,14.36003 67.99997,20.16792 19.5251,5.80789 40.2925,11.97696 46.1497,13.70904 l 10.6498,3.14923 0.5771,15 c 0.3174,8.25 0.8128,31.875 1.1009,52.5 0.288,20.625 0.8171,52.2375 1.1757,70.25 0.3585,18.0125 0.3161,32.75 -0.094,32.75 -0.4104,0 -7.7219,-2.05717 -16.2477,-4.5715 -8.5258,-2.51432 -15.6867,-4.3862 -15.9132,-4.15974 -0.2265,0.22646 3.5289,1.58307 8.3452,3.01469 4.8163,1.43162 12.4689,3.70179 17.0058,5.04484 l 8.2489,2.4419 14.606,-2.79003 c 8.0334,-1.53451 14.9364,-3.1703 15.34,-3.63509 0.7083,-0.81546 28.4021,-31.08203 121.5529,-132.84507 41.9413,-45.81896 46.7894,-51.11752 56.2712,-61.5 2.8201,-3.08803 4.435,-4.17817 5.1466,-3.4743 0.6358,0.62897 1.2638,11.65244 1.6236,28.5 l 0.5867,27.4743 -16.1642,17.5 c -8.8904,9.625 -18.0404,19.525 -20.3333,22 -2.293,2.475 -11.315,12.375 -20.0488,22 -8.7339,9.625 -16.3745,17.9552 -16.9791,18.51156 -0.6047,0.55636 -3.314,3.48136 -6.0207,6.5 -2.7067,3.01864 -7.4317,8.19091 -10.5,11.49392 -6.3605,6.84713 -9.8153,10.62404 -62.8223,68.68118 -16.916,18.52771 -31.0939,33.71521 -31.5064,33.75001 -0.4125,0.035 -0.7296,-12.4242 -0.7047,-27.6867 l 0.045,-27.74997 25.7047,-28.03354 c 41.3574,-45.10431 124.7212,-136.06091 135.1272,-147.43457 5.2676,-5.75747 12.39,-13.50215 15.8275,-17.21042 3.4375,-3.70827 6.25,-7.02461 6.25,-7.36964 0,-0.34504 -3.0736,2.67465 -6.8302,6.71042 -6.7918,7.29652 -156.0293,170.14877 -169.9715,185.47789 l -7.3018,8.02806 -14.9677,2.77915 c -11.6611,2.16518 -15.571,2.54633 -17.6983,1.72526 -1.5018,-0.57964 -8.3555,-2.69769 -15.2305,-4.70677 -14.449,-4.22243 -31.8588,-9.38917 -33.9172,-10.06564 -0.9191,-0.30207 -1.0751,-0.80792 -0.4437,-1.43929 0.6314,-0.63136 3.5895,-0.0838 8.4167,1.55806 4.0937,1.39238 8.1184,2.40111 8.9437,2.24164 0.8253,-0.15947 -2.7745,-1.58112 -7.9995,-3.15922 -5.225,-1.5781 -9.8064,-3.1465 -10.1809,-3.48533 -0.3745,-0.33883 -0.99,-21.31606 -1.3678,-46.61606 -0.3777,-25.3 -0.9713,-46.29978 -1.3191,-46.66617 -0.3477,-0.36639 -5.5822,-2.09042 -11.6322,-3.83117 -6.05,-1.74075 -24.275,-7.13604 -40.5,-11.98953 -16.22497,-4.85349 -46.59997,-13.86662 -67.49997,-20.02918 -20.9,-6.16255 -47.67495,-14.13574 -59.49995,-17.71819 -11.825,-3.58246 -23.075,-6.95047 -25,-7.48448 -1.925,-0.534 -18.35,-5.38874 -36.5,-10.7883 -46.88456,-13.948 -54.66102,-16.16529 -55.11221,-15.7141 -0.36878,0.36878 7.03297,2.64748 51.11221,15.73541 8.8,2.61288 32.2,9.5605 52,15.43916 19.8,5.87865 46.575,13.83765 59.49995,17.68667 12.925,3.84901 28.9,8.58147 35.5,10.51659 6.6,1.93512 14.7,4.35004 18,5.3665 3.3,1.01645 17.7,5.28625 31.99997,9.48843 14.3,4.20219 29.5107,8.73115 33.8016,10.06435 4.2909,1.33321 8.4279,2.42401 9.1933,2.42401 0.7654,0 2.068,0.96555 2.8946,2.14566 1.2486,1.7826 1.516,7.0508 1.5807,31.13438 0.043,15.9438 0.241,29.26575 0.4403,29.60434 0.1994,0.33859 0.6541,21.31562 1.0105,46.61562 0.425,30.17017 1.0033,46.12237 1.6806,46.35567 0.568,0.1957 2.1379,1.3207 3.4887,2.5 l 2.456,2.1443 -5.3738,5.9768 -5.3738,5.9768 -0.6444,-28.4768 z m 43.3457,22.0583 c -8.525,-2.6153 -20.5625,-6.2264 -26.75,-8.0246 l -11.25,-3.2696 -0.063,-18.1205 c -0.035,-9.96618 -0.2978,-21.85959 -0.5842,-26.42974 -0.2864,-4.57016 -0.2896,-8.91165 -0.01,-9.64777 0.404,-1.05294 2.8213,-0.6464 11.3342,1.90622 5.9513,1.78453 17.4532,5.19646 25.5598,7.58206 8.1065,2.3856 15.2187,4.63382 15.8048,4.99604 0.9984,0.61707 2.8439,56.12579 1.8574,55.86789 -0.2208,-0.058 -7.3764,-2.2447 -15.9014,-4.86 z m 16.9167,-18.7177 c -0.046,-13.0995 -0.2581,-25.48621 -0.4716,-27.52589 -0.2136,-2.03969 0.029,-3.96626 0.5384,-4.28126 1.5975,-0.98731 26.3663,-5.49379 26.9559,-4.90441 0.3083,0.30819 0.7191,12.80037 0.9129,27.76036 l 0.3523,27.2001 -12.3523,2.3066 c -6.7938,1.2687 -13.1398,2.5216 -14.1023,2.7843 -1.6294,0.4447 -1.7557,-1.1639 -1.8333,-23.3398 z m -1.0417,-59.31737 c -0.069,-12.1 -0.2062,-22.3375 -0.3055,-22.75 -0.099,-0.4125 -0.5163,-26.4 -0.9269,-57.75 -0.4105,-31.35 -0.9717,-59.32464 -1.2472,-62.16587 -0.4237,-4.36963 -0.223,-5.24899 1.3019,-5.70513 4.0201,-1.20255 25.425,-4.84002 25.869,-4.39608 0.8962,0.89626 1.3648,14.25742 1.9029,54.26708 0.296,22 0.8321,56.96118 1.1915,77.69152 l 0.6535,37.69152 -2.4071,0.56655 c -6.8142,1.60383 -22.3663,4.55041 -24.0172,4.55041 -1.7921,0 -1.8964,-1.13789 -2.0149,-22 z m 28.7889,-26.10706 c -0.3663,-23.31612 -0.947,-61.74294 -1.2906,-85.39294 l -0.6246,-43 6.9458,-7.5 c 3.8202,-4.125 32.0637,-34.95 62.7635,-68.5 30.6998,-33.55 57.905,-63.25 60.456,-66 4.664,-5.02787 42.8105,-46.67729 125.0196,-136.5 24.414,-26.675 51.2127,-55.925 59.5527,-65 8.34,-9.075 24.9772,-27.20275 36.9715,-40.2839 11.9942,-13.08114 21.9121,-23.65614 22.0397,-23.5 0.1276,0.15615 0.5119,9.9589 0.8539,21.7839 l 0.6219,21.5 -10.2366,11.03421 c -10.8177,11.66052 -52.0562,56.65281 -79.7367,86.99494 -9.075,9.9476 -26.3859,28.86052 -38.4687,42.0287 -12.0828,13.16818 -29.181,31.81715 -37.9959,41.44215 -8.8148,9.625 -17.7511,19.3 -19.8583,21.5 l -3.8313,4 0.58,32.5 c 0.319,17.875 0.8647,46.30908 1.2127,63.18685 l 0.6326,30.68686 -16.4358,17.81314 c -9.0396,9.79723 -48.572,52.91315 -87.8496,95.81315 -39.2776,42.9 -73.4933,80.20182 -76.0349,82.89294 l -4.621,4.89294 -0.6659,-42.39294 z m 34.5566,-49.29793 0.2205,-24.09501 0.5295,21.91781 c 0.3761,15.56838 0.872,22.03164 1.7118,22.31076 2.9021,0.96456 3.4892,-4.08845 3.6102,-31.0723 l 0.1218,-27.15627 0.5428,25.41753 c 0.3663,17.14799 0.9008,25.53654 1.6428,25.78331 1.6773,0.55777 3.4383,-2.12257 3.6818,-5.60386 0.1784,-2.55165 0.4211,-2.84556 1.3285,-1.60937 0.6107,0.83181 1.3866,1.51239 1.7244,1.51239 1.1097,0 3.6626,-5.84247 3.8016,-8.70034 0.1147,-2.3583 0.2045,-2.44495 0.5695,-0.54966 0.92,4.77655 4.0857,1.49571 5.2513,-5.44243 0.5006,-2.97936 0.8525,-3.76181 0.9254,-2.05757 0.1492,3.48878 2.417,3.58306 3.9743,0.16522 1.1751,-2.57918 1.0548,-23.20606 -0.4909,-84.16522 -0.4713,-18.58615 -0.861,-23.25 -1.9425,-23.25 -2.6805,0 -3.4269,4.13591 -3.6426,20.18426 l -0.2194,16.31574 -0.2914,-14 c -0.3458,-16.60935 -0.6502,-17.94185 -3.3442,-14.63922 -1.7361,2.12839 -1.9478,4.29409 -2.1505,22 l -0.2248,19.63922 -0.2998,-17.47458 c -0.3068,-17.88484 -1.0545,-21.32845 -3.8179,-17.58429 -1.121,1.51884 -1.482,6.63125 -1.6593,23.5 l -0.2265,21.55887 -0.2963,-18.97288 c -0.3028,-19.382 -1.0057,-22.89622 -3.8179,-19.08599 -1.1264,1.52614 -1.4815,6.76395 -1.6608,24.5 l -0.2281,22.55887 -0.2933,-20.47141 c -0.2992,-20.88183 -0.9621,-24.45663 -3.8178,-20.58746 -1.1482,1.55561 -1.4772,7.41447 -1.6568,29.5 l -0.2241,27.55887 -0.5259,-25.41756 c -0.3779,-18.26531 -0.8586,-25.52821 -1.7082,-25.81077 -2.7663,-0.92 -3.648,4.17386 -3.5002,20.22087 0.3303,35.85026 1.4585,89.05941 1.9046,89.8226 0.2621,0.44833 1.3318,0.0411 2.3772,-0.90498 1.7549,-1.58816 1.9176,-3.5688 2.1212,-25.81515 z m -4.2228,13.73832 c 0,-6.50833 -0.2975,-29.6313 -0.6583,-51.38438 -0.6247,-37.65976 -0.2647,-47.42332 1.6198,-43.93482 0.4415,0.81723 0.9687,25.07128 1.1717,53.89789 0.2909,41.30291 0.1042,52.50131 -0.8809,52.83333 -0.9532,0.32129 -1.2505,-2.38809 -1.2523,-11.41202 z m 5.8248,-20.08333 c -0.4695,-65.45236 -0.3131,-81.58249 0.7944,-81.95365 1.2419,-0.41618 3.1453,103.66131 1.9318,105.62489 -2.0809,3.36691 -2.5623,-0.81285 -2.7262,-23.67124 z m 6.8492,18.01631 c -0.2566,-0.42147 -0.5099,-7.06631 -0.5629,-14.76631 -0.053,-7.7 -0.3557,-31.1 -0.6726,-52 -0.3796,-25.03202 -0.2296,-38.50201 0.4394,-39.47104 0.5586,-0.80907 1.222,-1.25907 1.4742,-1 0.2523,0.25907 0.7876,24.36937 1.1897,53.57844 0.5129,37.26532 0.413,53.30395 -0.3352,53.76631 -0.5863,0.3624 -1.276,0.31407 -1.5326,-0.1074 z m 6.2736,-6.45729 c -0.4769,-2.69693 -0.8677,-18.57648 -1.424,-57.87346 -0.6032,-42.60891 -0.5092,-47.70072 0.9027,-48.87245 1.4013,-1.16303 1.5767,-0.71255 1.5822,4.06445 0,2.95484 0.3003,27.01396 0.6597,53.46471 0.4894,36.01018 0.3622,48.27234 -0.5062,48.80902 -0.6378,0.39421 -1.1843,0.57769 -1.2144,0.40773 z m -2.5117,-29.30902 c -7e-4,-13.75 0.1402,-19.5137 0.3129,-12.80822 0.1728,6.70549 0.1733,17.95549 0,25 -0.1721,7.04452 -0.3134,1.55822 -0.314,-12.19178 z m 8.2031,11.4425 c -1.1792,-25.00286 -1.6943,-93.42611 -0.7145,-94.91354 0.533,-0.80907 1.1779,-1.25907 1.4331,-1 0.2553,0.25907 0.74,19.82104 1.0773,43.47104 0.3372,23.65 0.8235,46.825 1.0806,51.5 0.3359,6.10964 0.08,9.18688 -0.9111,10.9425 -1.2463,2.20832 -1.4348,1.24959 -1.9654,-10 z m 5.9931,-13.1044 c -0.3266,-10.08595 -0.8555,-33.6381 -1.1753,-52.3381 -0.4897,-28.63876 -0.3549,-34.30529 0.8547,-35.93609 1.2624,-1.70187 1.5134,2.04829 2.0752,31 1.1924,61.45866 1.1889,73.25236 -0.022,74.46913 -0.8511,0.85486 -1.2879,-3.48166 -1.7321,-17.19494 z m -8.1911,-9.8381 c 0,-15.125 0.139,-21.3125 0.3089,-13.75 0.1698,7.5625 0.1698,19.9375 0,27.5 -0.1699,7.5625 -0.3089,1.375 -0.3089,-13.75 z m 5.999,-11.5 c -5e-4,-14.85 0.1386,-21.0644 0.3093,-13.80979 0.1706,7.25462 0.171,19.40462 10e-4,27 -0.1701,7.59539 -0.3097,1.65979 -0.3103,-13.19021 z m -19.3588,0.91667 c 0.048,-1.16495 0.285,-1.4019 0.6042,-0.60417 0.2889,0.72187 0.2534,1.58438 -0.079,1.91667 -0.3323,0.33229 -0.5687,-0.25834 -0.5253,-1.3125 z m -714.57887,15.63035 c -18.85637,-5.65069 -30.2743,-9.86248 -27.12832,-10.00698 0.9665,-0.0444 48.91888,14.03129 49.48249,14.52483 0.19479,0.17057 0.19479,0.7072 0,1.19251 -0.1948,0.4853 -10.25417,-2.08436 -22.35417,-5.71036 z m 1,-3.02414 c -10.45,-3.15508 -22.2625,-6.72 -26.25,-7.92204 l -7.25,-2.18553 -0.0103,-9.70766 c -0.006,-5.33921 -0.30042,-17.69515 -0.65505,-27.45765 -0.50738,-13.96759 -0.37574,-17.75 0.61773,-17.75 1.0328,0 52.22232,14.92963 52.6895,15.36711 0.67544,0.63249 1.3992,55.60471 0.73087,55.51259 -0.48003,-0.0662 -9.42278,-2.70173 -19.87278,-5.85682 z m -38.85497,-19.77288 -3.38011,-6.75 -0.52952,-26.46946 c -0.5775,-28.86807 -0.64872,-28.5951 4.70424,-18.03054 2.14837,4.23999 2.31587,6.0456 2.89894,31.25 0.34035,14.7125 0.40906,26.75 0.15269,26.75 -0.25637,0 -1.98718,-3.0375 -3.84624,-6.75 z m 900.77004,-17.25 c 0,-10.175 0.1485,-14.3375 0.33,-9.25 0.1815,5.0875 0.1815,13.4125 0,18.5 -0.1815,5.0875 -0.33,0.925 -0.33,-9.25 z m 1.4753,-4.25 c -0.06,-11.6875 -0.2241,-22.6 -0.3639,-24.25 -0.1399,-1.65 -0.5462,-25.725 -0.9028,-53.5 -0.3567,-27.775 -0.9186,-57.47968 -1.2486,-66.01039 l -0.6002,-15.5104 56.8626,-62.04271 c 31.2744,-34.12349 71.0306,-77.54381 88.3472,-96.48961 17.3165,-18.94579 33.6943,-36.80939 36.395,-39.69689 2.7007,-2.8875 4.6445,-5.25 4.3196,-5.25 -0.325,0 -18.0249,19.0125 -39.3332,42.25 -60.2978,65.75709 -76.5908,83.53 -112.7582,123 -18.5212,20.2125 -34.1411,36.75 -34.7108,36.75 -0.5697,0 6.0843,-7.7625 14.7866,-17.25 8.7023,-9.4875 27.5631,-30.075 41.9129,-45.75 102.7149,-112.20045 129.6894,-141.5359 130.3833,-141.79499 0.4345,-0.16225 0.8755,8.38775 0.98,19 0.1045,10.61224 0.3362,20.64499 0.515,22.29499 0.1788,1.65 0.5993,25.05 0.9345,52 0.3352,26.95 0.8967,58.38233 1.2478,69.84962 0.3711,12.11721 0.2592,21.12203 -0.267,21.5 -0.875,0.62855 -7.2313,7.54314 -75.5179,82.15038 -82.2714,89.88653 -109.9774,120 -110.4065,120 -0.2562,0 -0.5151,-9.5625 -0.5754,-21.25 z m -250.3904,-7.71341 c -14.3,-4.3038 -49.85,-14.88166 -79,-23.50636 -29.14997,-8.6247 -55.69997,-16.53342 -58.99997,-17.57494 -3.3,-1.04151 -14.325,-4.33844 -24.5,-7.32651 -22.60848,-6.63938 -152.89367,-45.32133 -197.5,-58.63817 -12.65,-3.77655 -29.075,-8.65252 -36.5,-10.83549 -20.38,-5.99178 -77.41891,-22.91447 -86.5,-25.66342 -6.99867,-2.11857 -48.11922,-14.34349 -116.5,-34.63483 -35.8531,-10.63906 -49.2515,-14.77504 -49.87132,-15.39486 -0.59507,-0.59506 7.9014,-26.38545 8.87132,-26.92822 0.275,-0.15389 8.375,2.09753 18,5.00317 9.625,2.90563 31.45,9.41742 48.5,14.47063 17.05,5.05322 58.9,17.47933 93,27.61358 34.1,10.13425 67.175,19.96077 73.5,21.83671 6.325,1.87594 27.6208,8.20704 47.324,14.06912 19.7032,5.86208 36.04907,10.43326 36.32415,10.15818 0.27509,-0.27508 -2.12071,-1.25419 -5.324,-2.17579 -3.20328,-0.92161 -18.42415,-5.41933 -33.82415,-9.99494 -15.4,-4.57561 -44.2,-13.12935 -64,-19.0083 -19.8,-5.87896 -48.6,-14.435 -64,-19.01342 -15.4,-4.57841 -44.2,-13.13058 -64,-19.0048 -19.8,-5.87423 -43.2,-12.83203 -52,-15.46177 -8.8,-2.62975 -19.6,-5.81374 -24,-7.07553 -4.4,-1.2618 -8.17239,-2.42676 -8.38308,-2.58882 -0.55231,-0.4248 2.26615,-3.57474 42.8252,-47.86181 20.14807,-22 68.9779,-75.325 108.51072,-118.5 39.53282,-43.175 76.45667,-83.45 82.053,-89.5 5.59633,-6.05 20.21561,-22.025 32.4873,-35.5 12.27168,-13.475 24.62436,-26.975 27.45039,-30 2.82604,-3.025 22.11155,-24.037 42.85671,-46.69332 l 37.71846,-41.19333 5.24065,1.52027 c 2.88236,0.83614 11.87478,3.51064 19.98316,5.94332 8.10839,2.43268 14.99403,4.42306 15.30143,4.42306 0.62179,0 0.33376,106.53751 -0.30983,114.60191 l -0.40716,5.10191 -9.66348,2.20202 c -17.01323,3.87683 -45.11758,13.15956 -64.29152,21.23517 -95.32877,40.15024 -147.26837,106.87096 -135.02959,173.45669 4.32775,23.54538 16.90133,47.04557 36.36459,67.96593 9.64754,10.36979 12.86082,13.29918 20.29305,18.50016 1.65,1.15465 0.975,0.41404 -1.5,-1.64581 -17.40856,-14.48847 -36.44259,-38.18165 -42.96484,-53.48178 -3.03618,-7.12239 -6.56115,-19.74354 -5.74275,-20.56194 0.21484,-0.21484 2.37443,4.67287 4.7991,10.86158 14.84362,37.88675 54.61278,74.9046 105.90849,98.58153 15.25173,7.03985 16.68814,7.82782 15.83136,8.68461 -0.3359,0.33589 -7.56374,-2.53513 -16.06186,-6.38005 -16.31427,-7.38128 -43.53767,-23.22985 -51.83444,-30.1763 -2.71428,-2.27253 -4.90994,-3.75246 -4.87925,-3.28875 0.2292,3.46224 33.74496,24.02482 55.94419,34.32285 l 16.5,7.65421 3.68518,21.28487 c 2.02684,11.70668 3.92591,21.52561 4.22014,21.81984 0.52374,0.52375 4.60264,-0.71099 46.84855,-14.18167 l 20.75388,-6.61766 21.24612,3.49576 c 27.75103,4.56604 53.31493,6.56037 84.80013,6.61556 30.8854,0.0541 50.63347,-1.24754 78.44597,-5.17074 142.9812,-20.16875 247.0454,-94.2972 251.9489,-179.47168 0.76,-13.20174 -2.136,-33.19064 -6.1108,-42.17844 -1.3326,-3.01311 -2.2345,-5.66676 -2.0042,-5.89699 0.3787,-0.37872 13.9617,-5.71469 91.1661,-35.81396 13.2,-5.14622 36.825,-14.39033 52.5,-20.54248 15.675,-6.15214 29.175,-11.37535 30,-11.60712 0.825,-0.23177 6,0.9076 11.5,2.53193 5.5,1.62434 13.5391,3.99857 17.8647,5.27609 4.3256,1.27751 7.864,2.70698 7.863,3.1766 -10e-4,0.46962 -11.0049,12.84462 -24.4532,27.5 -13.4483,14.65538 -35.3985,38.57115 -48.7782,53.14615 -13.3797,14.575 -31.0671,33.925 -39.3054,43 -8.2382,9.075 -17.5122,19.2 -20.6087,22.5 -5.5658,5.93139 -19.4793,21.11505 -38.0281,41.4996 -5.2548,5.77477 -12.4906,13.64977 -16.0797,17.5 -3.5891,3.85022 -11.2358,12.1754 -16.9925,18.5004 -5.7568,6.325 -12.5436,13.75 -15.0817,16.5 -6.0978,6.60668 -101.1925,110.44021 -115.8325,126.47699 -35.5235,38.91276 -38.5116,42.01862 -40.0125,41.58979 -0.8554,-0.24437 -8.3052,-2.46711 -16.5552,-4.9394 -8.25,-2.4723 -27.15,-8.09605 -42,-12.49723 -14.85,-4.40119 -42.3,-12.55816 -61,-18.12661 -74.92677,-22.31156 -129.55301,-38.5514 -179.99997,-53.51217 -19.8,-5.87197 -41.08864,-12.2097 -47.30808,-14.08384 -10.80103,-3.25474 -14.1136,-3.99588 -13.03388,-2.91615 0.27026,0.27025 6.75776,2.32825 14.41667,4.57331 7.65891,2.24507 30.35029,8.96529 50.42529,14.93382 140.882,41.88588 167.1636,49.69276 197.49997,58.66689 6.6,1.95241 18.525,5.50256 26.5,7.88921 7.975,2.38665 23.05,6.86443 33.5,9.95061 10.45,3.08618 23.3512,6.94315 28.6692,8.57103 l 9.6693,2.95978 -4.5068,13.48199 c -3.4201,10.23112 -4.9076,13.4653 -6.1692,13.41281 -0.9144,-0.038 -13.3625,-3.59045 -27.6625,-7.89424 z m 26,-56.68052 c 17.5838,-4.12383 31.7804,-15.69096 33.568,-27.3506 2.3117,-15.0773 -12.776,-28.36636 -38.068,-33.52996 -6.6623,-1.36017 -11.2025,-1.60426 -21,-1.12902 -23.2431,1.12745 -40.3789,8.6232 -49.2763,21.55506 -2.6945,3.9163 -3.1238,5.42439 -3.1701,11.1362 -0.059,7.27691 2.0286,11.60259 8.6457,17.91459 4.1511,3.95975 17.564,10.48766 24.8007,12.0703 13.5306,2.95908 30.0987,2.7109 44.5,-0.66657 z m -43.0403,-0.27649 c -11.1083,-2.60283 -20.9548,-7.47944 -26.6979,-13.22251 -7.5456,-7.54565 -8.5915,-12.62017 -4.0075,-19.44514 8.0156,-11.93431 25.2869,-19.57566 47.4905,-21.01115 22.5919,-1.46061 46.2587,6.39782 54.6078,18.13226 1.36,1.9113 2.6641,3.28363 2.8981,3.04963 0.8943,-0.89429 -4.4603,-6.90351 -9.1619,-10.28192 -20.1173,-14.45571 -53.858,-16.32751 -79.9152,-4.43338 -5.9814,2.73029 -14.6006,10.01796 -17.8975,15.13263 -1.6039,2.48824 -1.6078,2.48264 -0.8128,-1.18949 1.7318,-7.9993 7.3868,-13.96768 18.5367,-19.564 32.671,-16.39814 82.9556,-6.46996 90.1197,17.79322 0.7489,2.53658 0.7968,3.71771 0.1342,3.30814 -0.681,-0.42086 -0.7964,0.61216 -0.3401,3.04453 0.569,3.03296 0.1611,4.59987 -2.3157,8.89456 -4.8553,8.41928 -15.0152,14.91235 -29.5981,18.91593 -10.5617,2.8996 -32.4998,3.34646 -43.0403,0.87669 z m 33.3218,-3.5901 c 3.4548,-0.81452 7.9548,-2.34344 10,-3.39759 4.4111,-2.27361 10.6839,-8.52977 9.8712,-9.84489 -0.3147,-0.50919 -0.6544,-4.18187 -0.7548,-8.1615 l -0.1826,-7.23568 -5.1077,-3.84289 c -8.4584,-6.36399 -12.4333,-7.50693 -26.1076,-7.50693 -11.0578,0 -12.4797,0.22171 -18.1104,2.82391 -7.3865,3.41368 -15.2306,11.01499 -16.2891,15.78507 -3.4081,15.35753 22.295,27.12988 46.681,21.3805 z m -25.2815,-0.93687 c -6.9546,-1.7766 -10.4746,-3.29584 -14.1739,-6.11747 -3.1055,-2.36863 -3.1815,-2.61605 -3.1284,-10.18138 0.064,-9.18673 1.4531,-12.16293 7.5663,-16.21726 12.1486,-8.05703 35.9617,-7.68664 46.9978,0.731 4.6191,3.52316 5.405,5.41129 5.8517,14.05996 0.4648,8.99761 -0.5336,10.51724 -9.5766,14.57547 -10.2635,4.606 -23.1124,5.81273 -33.5369,3.14968 z m 24.8874,-4.65693 c 7.6991,-2.07314 17.6126,-8.35456 17.6126,-11.15969 0,-0.48941 -1.3978,0.50792 -3.1061,2.21628 -6.155,6.15495 -14.8525,9.09661 -26.8939,9.09596 -12.5136,-6.8e-4 -22.1826,-3.35986 -27.2278,-9.45938 -0.9502,-1.14887 -1.7377,-1.56635 -1.75,-0.92774 -0.027,1.40542 5.0934,5.83019 9.2101,7.95903 7.2949,3.7723 22.5796,4.85397 32.1551,2.27554 z m 9.9273,-12.19555 c -0.3431,-0.55503 -0.1353,-0.70728 0.4617,-0.33833 0.597,0.36895 1.3364,0.26464 1.6433,-0.2318 0.3068,-0.49644 -0.3367,-1.13653 -1.43,-1.42243 -1.0932,-0.2859 -2.2296,-0.12847 -2.5252,0.34984 -0.2956,0.4783 -1.466,-0.0589 -2.601,-1.19388 -2.2236,-2.22358 -4.3292,-1.33388 -4.3519,1.83878 -0.01,0.89403 -0.6866,1.84993 -1.5116,2.12422 -1.3163,0.43764 -1.323,0.2645 -0.055,-1.41391 1.3876,-1.83625 1.3693,-1.84303 -0.4571,-0.16976 -1.4477,1.32626 -1.624,2.02127 -0.7376,2.90762 0.8629,0.86295 1.5148,0.87419 2.5159,0.0434 1.0348,-0.85879 1.7653,-0.63773 3.1197,0.94409 l 1.7685,2.06545 2.3919,-2.24706 c 1.3155,-1.23588 2.1112,-2.70118 1.7682,-3.25621 z m -3.3147,2.4179 c 0,-0.55 0.45,-1.27811 1,-1.61803 0.55,-0.33992 1,-0.16803 1,0.38197 0,0.55 -0.45,1.27811 -1,1.61803 -0.55,0.33992 -1,0.16803 -1,-0.38197 z m -6.7045,-7.13603 c -0.4375,-0.38997 -2.2481,-1.19358 -4.0234,-1.78579 -3.5311,-1.17789 -4.9677,-0.18852 -4.4343,3.05379 0.1791,1.08829 -0.3493,1.75 -1.3974,1.75 -1.1801,0 -1.4051,-0.37474 -0.7506,-1.25 1.9618,-2.62363 0.8697,-5.02259 -2.8784,-6.32302 -3.0329,-1.05228 -3.8848,-1.0435 -4.7918,0.0494 -0.7163,0.86313 -0.7491,1.45091 -0.093,1.6764 0.6592,0.22671 0.6737,0.86796 0.042,1.84725 -0.8025,1.24358 -1.1176,1.26807 -1.843,0.14324 -0.6603,-1.0239 -1.056,-1.06386 -1.6129,-0.16287 -1.0797,1.74705 1.0408,3.42004 3.1707,2.50156 0.9995,-0.43099 3.2745,-0.86813 5.0557,-0.9714 2.6311,-0.15256 3.0264,0.0678 2.1075,1.17501 -1.3826,1.66599 -0.649,2.49007 3.475,3.90342 2.9075,0.99645 3.415,0.83468 5.9737,-1.90448 1.538,-1.6464 2.4384,-3.31251 2.0008,-3.70248 z m -12.7955,-1.982 c -0.3399,-0.55 -0.168,-1 0.382,-1 0.55,0 1.2781,0.45 1.618,1 0.3399,0.55 0.168,1 -0.382,1 -0.55,0 -1.2781,-0.45 -1.618,-1 z m -9.8539,0.53531 c 1.1502,-0.80559 2.3991,-1.1568 2.7754,-0.78049 0.3763,0.37632 0.3725,-0.20207 -0.01,-1.2853 -1.6198,-4.60628 -7.3873,-5.93047 -11.4614,-2.63147 -2.5044,2.02793 -2.0282,3.78518 1.4006,5.16864 3.171,1.2794 4.9592,1.16383 7.2938,-0.47138 z m -8.6461,-2.92124 c 0,-0.81361 0.9339,-1.77571 2.0754,-2.13799 2.9744,-0.94405 3.0985,-0.25265 0.3267,1.8206 -1.9772,1.4789 -2.4021,1.53503 -2.4021,0.31739 z m 3,0.38593 c 0,-0.55 0.9266,-1 2.059,-1 1.1325,0 1.7809,0.45 1.441,1 -0.3399,0.55 -1.2665,1 -2.059,1 -0.7926,0 -1.441,-0.45 -1.441,-1 z m 4.6579,-1.44907 c -0.3716,-0.96852 -0.075,-1.26467 0.893,-0.89301 1.5818,0.60696 1.9937,2.34208 0.5561,2.34208 -0.4912,0 -1.1432,-0.65208 -1.4491,-1.44907 z m -21.0509,13.86728 c -0.9683,-2.52333 -0.7021,-9.2414 0.393,-9.91821 0.6246,-0.38605 1,1.65628 1,5.44098 0,6.20729 -0.3265,7.25659 -1.393,4.47723 z m 67.393,-4.7861 c 0,-2.33742 -0.6688,-5.12336 -1.4863,-6.19098 -1.3564,-1.77159 -1.3896,-1.65163 -0.3796,1.3735 0.6086,1.82304 0.8541,4.87063 0.5455,6.77241 -0.332,2.04582 -0.177,3.22036 0.3796,2.87635 0.5175,-0.31978 0.9408,-2.49386 0.9408,-4.83128 z m 87.6855,-92.80642 c 3.5785,-3.36176 3.0464,-6.42903 -1.3678,-7.88587 -3.5284,-1.16447 -3.7991,-1.08465 -6.4739,1.90891 -3.1682,3.54586 -2.8777,5.60025 0.9922,7.01766 3.8739,1.41884 4.3005,1.35403 6.8495,-1.0407 z m -5.9355,-0.059 c -1.5125,-0.51334 -2.75,-1.35441 -2.75,-1.86906 0,-0.51464 1.2375,-0.63884 2.75,-0.27599 3.2872,0.7886 3.5638,0.98162 3.1042,2.16588 -0.2124,0.54727 -1.4549,0.53893 -3.1042,-0.0208 z m 4.25,-0.52178 c 0,-0.55 0.675,-1.5602 1.5,-2.24489 0.8367,-0.69443 1.5,-0.80272 1.5,-0.24489 0,0.55 -0.675,1.5602 -1.5,2.24489 -0.8367,0.69443 -1.5,0.80272 -1.5,0.24489 z m -4.25,-2.93422 c -2.1055,-0.55023 -2.2345,-1.66372 -0.3716,-3.20972 1.9574,-1.62453 6.7944,0.28513 5.9955,2.36704 -0.5783,1.50707 -2.1693,1.74546 -5.6239,0.84268 z m 48.3064,-26.56069 c 3.1713,-3.80137 2.5041,-6.26549 -2.0671,-7.63505 -3.8252,-1.14607 -4.1243,-1.07247 -6.4684,1.59171 -1.3517,1.53634 -2.4719,3.30074 -2.4893,3.9209 -0.056,2.01535 3.3459,3.87007 7.8081,4.25644 0.7368,0.0638 2.1844,-0.8965 3.2167,-2.134 z m -6.8064,0.21884 c -1.8851,-0.75774 -3.237,-2.96884 -1.8151,-2.96884 1.5785,0 5.5651,2.13133 5.5651,2.97525 0,1.21178 -0.7224,1.21054 -3.75,-0.006 z m 4.75,-0.55455 c 0,-0.55786 0.5625,-1.62031 1.25,-2.36099 1.005,-1.08274 0.9923,-1.20052 -0.065,-0.60089 -0.7232,0.41021 -2.9045,0.44761 -4.8474,0.0831 -3.3224,-0.62329 -3.436,-0.76938 -1.91,-2.45564 2.0312,-2.2445 6.2158,-1.61459 7.7002,1.15915 0.8234,1.53857 0.7023,2.35937 -0.5303,3.59191 -0.8787,0.87869 -1.5976,1.14119 -1.5976,0.58334 z m -679.49997,-8.92479 c 19.35422,-2.31661 36.48824,-11.70547 42.35771,-23.21059 10.97349,-21.50982 -18.99696,-42.98433 -57.09699,-40.91129 -19.04282,1.03612 -33.40666,6.0131 -43.47209,15.06278 -23.22083,20.87753 -0.80044,47.70294 41.71137,49.90658 5.66922,0.29386 7.93819,0.17733 16.5,-0.84748 z m -33,-2.40983 c -16.17914,-4.24739 -26.66975,-10.86067 -31.35143,-19.76393 -4.31562,-8.20711 3.4808,-19.59703 18.16906,-26.54348 28.85346,-13.64553 71.87536,-7.70189 85.91211,11.86908 3.84054,5.35475 3.91971,10.02334 0.26364,15.54804 -3.63585,5.49414 -6.71916,8.06898 -14.81042,12.36807 -11.32438,6.01692 -18.12618,7.53691 -35.68296,7.974 -12.73008,0.31692 -16.75093,0.0575 -22.5,-1.45178 z m 34,-3.48329 c 10.87057,-3.00002 18.07639,-7.85192 21.4764,-14.46075 1.52468,-2.96361 0.55111,-9.89895 -1.77483,-12.64324 -3.40097,-4.01266 -10.81553,-9.25539 -15.70157,-11.10235 -7.60857,-2.8761 -24.99041,-2.6348 -32.7344,0.45442 -11.34717,4.52661 -19.54452,14.03481 -18.23891,21.15554 0.35296,1.925 1.67473,4.86153 2.93728,6.52562 2.80689,3.69963 11.30027,8.45036 18.03603,10.08838 6.83641,1.66249 19.94429,1.65361 26,-0.0176 z m -25.75861,-1.09107 c -10.74252,-2.72892 -16.74139,-6.94447 -16.74139,-11.76461 l 0,-2.91067 4.48691,3.94954 c 6.967,6.1326 19.81954,9.08001 31.93949,7.32454 8.02578,-1.16247 18.87908,-6.11451 21.21519,-9.67986 2.20947,-3.37208 3.54304,-3.0249 3.17177,0.82575 -0.2527,2.62088 -1.25202,3.87732 -5.16241,6.49068 -2.66698,1.78237 -7.16698,3.94651 -10,4.80921 -7.42762,2.26182 -21.88587,2.73964 -28.90956,0.95542 z m 6.50215,-4.67405 c -7.97753,-0.85617 -16.49455,-4.34065 -20.1684,-8.25128 -3.41152,-3.63139 -3.95066,-10.54168 -1.13138,-14.501 6.30807,-8.85886 25.65579,-13.41804 40.51618,-9.5474 11.38794,2.96618 17.54006,8.37896 17.54006,15.43216 0,6.63572 -6.36168,12.60664 -16.41447,15.40624 -7.20633,2.00689 -12.02971,2.35338 -20.34199,1.46128 z m 27.8129,-8.08126 c 2.57395,-3.08542 2.45665,-3.42556 -1.6485,-4.78038 -4.77037,-1.57437 -6.11832,-0.24403 -3.96736,3.91548 1.91428,3.7018 3.09724,3.88399 5.61586,0.8649 z m -7.70885,-1.23779 c -1.51249,-1.10596 -1.57363,-1.53492 -0.41734,-2.92816 0.74511,-0.89781 1.17487,-1.81227 0.95501,-2.03213 -0.21986,-0.21986 -3.32149,-1.12072 -6.89251,-2.00191 -7.31766,-1.80571 -7.79109,-1.94483 -10.28588,-3.02251 -0.98622,-0.42602 -2.05229,-0.51541 -2.36905,-0.19866 -0.31675,0.31676 -1.22949,-0.0777 -2.0283,-0.87646 -0.79881,-0.79881 -2.96868,-1.45238 -4.82193,-1.45238 -1.85326,0 -3.61686,-0.40015 -3.91912,-0.88922 -0.30227,-0.48907 -1.73752,-1.18738 -3.18945,-1.55179 -1.96639,-0.49353 -3.24439,-0.0946 -5.00944,1.56354 -3.38259,3.17777 -2.94812,4.15101 1.51634,3.39674 3.32358,-0.56151 4.25764,-0.2848 6.45455,1.91211 2.74456,2.74456 4.69734,3.15394 7.60972,1.59528 1.44222,-0.77186 1.79087,-0.6166 1.68426,0.75 -0.0957,1.22632 0.5775,1.69367 2.3341,1.62046 1.3577,-0.0566 3.09287,0.52145 3.85594,1.28452 1.07512,1.07511 1.70663,1.12246 2.80562,0.21038 0.78002,-0.64736 1.70344,-0.8918 2.05205,-0.5432 0.3486,0.34861 1.31091,0.0752 2.13845,-0.6075 1.23226,-1.01661 1.41046,-0.96978 0.98438,0.25868 -0.28613,0.825 -1.25931,1.4375 -2.16262,1.36111 -0.9033,-0.0764 -1.64237,0.21233 -1.64237,0.64159 0,0.71513 2.54665,1.59781 7.38531,2.55977 1.03692,0.20614 2.11218,0.60169 2.38948,0.87898 0.27729,0.2773 0.91833,0.24821 1.42453,-0.0646 0.5062,-0.31284 0.12292,-1.15192 -0.85173,-1.8646 z m -29.34759,-9.62333 c 0,-0.3712 0.69837,-0.94289 1.55194,-1.27044 1.01395,-0.38909 1.30374,-0.19394 0.83595,0.56295 -0.47816,0.77368 -0.16325,0.94638 0.94807,0.51993 0.91522,-0.3512 1.66404,-0.20771 1.66404,0.31886 0,0.52658 -1.125,0.86431 -2.5,0.75051 -1.375,-0.1138 -2.5,-0.51061 -2.5,-0.88181 z m 6.5,0.11112 c -0.33992,-0.55 -0.14148,-1 0.44098,-1 0.58246,0 1.05902,0.45 1.05902,1 0,0.55 -0.19844,1 -0.44098,1 -0.24254,0 -0.7191,-0.45 -1.05902,-1 z m -15.5,-1.94098 c 0,-0.51754 0.45,-1.2191 1,-1.55902 0.55,-0.33992 1,0.0835 1,0.94098 0,0.85746 -0.45,1.55902 -1,1.55902 -0.55,0 -1,-0.42344 -1,-0.94098 z m 6.5,-1.05902 c -0.33992,-0.55 -0.14148,-1 0.44098,-1 0.58246,0 1.05902,0.45 1.05902,1 0,0.55 -0.19844,1 -0.44098,1 -0.24254,0 -0.7191,-0.45 -1.05902,-1 z m -14.49984,12.50043 c -0.95425,-2.50989 -0.35026,-8.16603 0.95839,-8.97481 0.38513,-0.23802 0.66496,2.24634 0.62186,5.52081 -0.0431,3.27446 -0.20246,5.95357 -0.35413,5.95357 -0.15168,0 -0.70343,-1.12481 -1.22612,-2.49957 z m 64.79135,-4.50043 c -0.2816,-3.575 -0.38109,-6.65631 -0.22107,-6.84736 0.16002,-0.19104 0.82739,1.44317 1.48306,3.63158 0.81818,2.73086 0.88753,4.87868 0.22107,6.84736 -0.86917,2.56749 -1.02477,2.18649 -1.48306,-3.63158 z m -86.17783,-10 c 1.90611,-10.32085 14.21624,-19.70197 32.88632,-25.06153 10.39475,-2.98398 32.18402,-3.31235 42.81905,-0.6453 16.17393,4.05609 30.20582,13.70482 32.61393,22.42628 0.55705,2.01745 0.88147,3.79943 0.72094,3.95996 -0.16053,0.16053 -1.61083,-1.46646 -3.22289,-3.61554 -3.52823,-4.70354 -12.8947,-11.06035 -20.43103,-13.86606 -20.65781,-7.69072 -45.49467,-6.68237 -66.09542,2.68342 -6.19566,2.81676 -15.48559,10.58805 -18.67094,15.61877 -1.11839,1.76631 -1.19083,1.59105 -0.61996,-1.5 z m 789.30249,14.58921 c 3.1466,-3.34936 2.3515,-5.82873 -2.3646,-7.37393 -3.7745,-1.23667 -4.0063,-1.18058 -6.2004,1.5 -3.0507,3.72726 -2.9287,5.90714 0.3988,7.12244 4.288,1.5661 5.729,1.34579 8.1662,-1.24851 z m -6.8421,0.53353 c -3.6283,-1.01393 -4.0251,-3.3908 -0.422,-2.5281 3.5891,0.85935 4.3479,1.28943 4.3479,2.46438 0,1.0425 -0.4001,1.04899 -3.9259,0.0637 z m 4.9259,-0.87785 c 0,-0.55 0.675,-1.5602 1.5,-2.24489 0.8367,-0.69443 1.5,-0.80272 1.5,-0.24489 0,0.55 -0.675,1.5602 -1.5,2.24489 -0.8367,0.69443 -1.5,0.80272 -1.5,0.24489 z m -4.3111,-2.42755 c -2.6415,-0.96292 -2.712,-1.13433 -1.168,-2.84043 1.3458,-1.48707 2.1687,-1.63249 4.5467,-0.80351 2.4566,0.85639 2.7464,1.30567 1.8827,2.91938 -1.1429,2.13571 -1.3225,2.16044 -5.2614,0.72456 z m 29.2385,-32.4522 c 3.2118,-4.08312 2.6891,-6.10016 -1.9403,-7.48716 -3.7091,-1.11125 -4.2045,-1.0224 -6.5416,1.17324 -3.3916,3.18624 -2.8182,5.9669 1.5545,7.53861 4.7645,1.71252 4.5932,1.7428 6.9274,-1.22469 z m -8.1774,-0.0545 c -1.9979,-0.5221 -2.3887,-2.31765 -0.5,-2.29702 2.4493,0.0268 5.75,1.23395 5.75,2.10298 0,0.91201 -2.1925,0.99305 -5.25,0.19404 z m 6.25,-0.89638 c 0,-0.55786 0.5625,-1.64509 1.25,-2.41606 1.0484,-1.17572 0.9909,-1.20739 -0.3568,-0.19637 -1.6513,1.23874 -7.8932,0.60261 -7.8932,-0.80442 0,-1.69895 2.9581,-3.04605 5.3633,-2.44239 3.9433,0.98971 5.3308,3.17945 3.3008,5.20942 -0.9153,0.91526 -1.6641,1.20767 -1.6641,0.64982 z m 16.6855,-36.5886 c 1.273,-1.19588 2.3145,-3.20353 2.3145,-4.46146 0,-1.83589 -0.8187,-2.5076 -4.1496,-3.40451 -3.9539,-1.06468 -4.2587,-0.98397 -6.464,1.71146 -1.273,1.55585 -2.3307,3.33622 -2.3504,3.95638 -0.062,1.92553 3.054,3.71762 7.3995,4.25644 0.5146,0.0638 1.9771,-0.86244 3.25,-2.05831 z m -5.6114,0.21138 c -1.3342,-0.32573 -2.6157,-1.16195 -2.8478,-1.85827 -0.3076,-0.92268 0.3503,-1.08045 2.4258,-0.58174 3.3779,0.81164 3.6662,1.00567 3.2021,2.15509 -0.1948,0.48244 -1.4458,0.61065 -2.7801,0.28492 z m 3.9259,-0.79215 c 0,-0.55 0.675,-1.5602 1.5,-2.24489 0.8367,-0.69443 1.5,-0.80272 1.5,-0.24489 0,0.55 -0.675,1.5602 -1.5,2.24489 -0.8367,0.69443 -1.5,0.80272 -1.5,0.24489 z m -5.3255,-2.94875 c -1.7098,-0.44195 -1.7197,-0.58877 -0.156,-2.31656 0.9182,-1.01459 2.4146,-1.60688 3.3255,-1.31621 0.9108,0.29068 2.2692,0.71565 3.0186,0.9444 1.0907,0.33289 1.1161,0.71292 0.1276,1.90406 -1.2299,1.48187 -2.8423,1.68211 -6.3157,0.78431 z M 620.81748,410.95762 c 1.27295,-1.19588 2.31445,-3.20353 2.31445,-4.46146 0,-1.82329 -0.81367,-2.50624 -4.01203,-3.36747 -3.77019,-1.01521 -4.16009,-0.91204 -6.46839,1.71146 -1.35101,1.53548 -2.46371,3.01678 -2.47267,3.29178 -0.0411,1.26193 1.72542,2.98652 3.98132,3.8868 3.57774,1.4278 4.09591,1.3452 6.65732,-1.06111 z m -5.93555,-0.0459 c -3.29007,-1.13229 -3.75689,-3.21874 -0.5,-2.23475 2.45445,0.74155 4.37073,2.199 3.68333,2.80142 -0.23833,0.20887 -1.67083,-0.0461 -3.18333,-0.56667 z m 4.25,-0.53487 c 0,-0.55 0.675,-1.5602 1.5,-2.24489 0.83674,-0.69443 1.5,-0.80272 1.5,-0.24489 0,0.55 -0.675,1.5602 -1.5,2.24489 -0.83674,0.69443 -1.5,0.80272 -1.5,0.24489 z m -5.31524,-3.10115 c -1.73587,-0.68439 -1.73106,-0.79187 0.11015,-2.45813 1.51968,-1.3753 2.4776,-1.5325 4.54614,-0.74604 1.76217,0.66997 2.42815,1.4983 2.03286,2.52842 -0.61369,1.59926 -3.58537,1.89947 -6.68915,0.67575 z m 26.4865,-32.79873 c 1.00581,-0.91027 1.82874,-2.8423 1.82874,-4.29344 0,-2.22877 -0.61438,-2.8024 -3.95701,-3.6946 -3.66327,-0.97778 -4.14809,-0.85674 -6.53109,1.63058 -2.88699,3.01337 -2.55883,5.64435 0.8772,7.03271 3.30851,1.33684 5.79744,1.12087 7.78216,-0.67528 z m -6.92126,-0.0507 c -1.2375,-0.23836 -2.25,-1.03816 -2.25,-1.77734 0,-1.67526 5.16486,-0.52235 5.76817,1.28759 0.21917,0.65751 0.0235,1.1342 -0.43484,1.0593 -0.45833,-0.0749 -1.84583,-0.3312 -3.08333,-0.56955 z m 4.75,-0.97183 c 0,-0.50734 0.5625,-1.55324 1.25,-2.32421 1.04787,-1.1751 0.99096,-1.20751 -0.35196,-0.20042 -2.34909,1.76165 -8.47086,-0.40268 -6.80759,-2.40679 1.54302,-1.85923 5.39314,-1.76458 7.33812,0.18041 1.95947,1.95947 1.97383,2.84972 0.0714,4.42857 -0.825,0.68469 -1.5,0.82979 -1.5,0.32244 z m 20.90806,-35.72458 c 3.43025,-3.65132 2.50136,-6.81659 -2.3346,-7.95539 -3.47572,-0.81849 -4.1359,-0.66611 -5.75,1.32722 -2.91145,3.59549 -2.36691,6.56666 1.42654,7.78356 1.7875,0.57342 3.50906,1.08851 3.82569,1.14466 0.31662,0.0562 1.59119,-0.97887 2.83237,-2.30005 z m -7.15806,-0.28726 c -2.09325,-0.54702 -2.34649,-2.31067 -0.33179,-2.31067 2.16847,0 4.58179,1.1098 4.58179,2.10699 0,0.92666 -1.25355,0.98674 -4.25,0.20368 z m 5.25,-0.0658 c 0,-0.55 0.675,-1.5602 1.5,-2.24489 0.83674,-0.69443 1.5,-0.80272 1.5,-0.24489 0,0.55 -0.675,1.5602 -1.5,2.24489 -0.83674,0.69443 -1.5,0.80272 -1.5,0.24489 z m -4.25,-2.93422 c -2.11439,-0.55254 -2.23335,-1.66464 -0.34565,-3.23128 1.40161,-1.16324 6.59565,-0.51039 6.59565,0.82902 0,1.11252 -2.30657,3.10191 -3.45,2.97559 -0.5775,-0.0638 -1.8375,-0.3218 -2.8,-0.57333 z m 54.04548,-35.18352 c -0.21861,-1.80434 -1.26199,-2.77171 -4.01075,-3.71859 -3.58407,-1.23462 -3.80478,-1.17344 -6.25,1.73254 -1.3941,1.65679 -2.53473,3.37272 -2.53473,3.81318 0,1.1904 2.12171,2.6502 5.5,3.78417 2.51337,0.84364 3.37235,0.66801 5.29548,-1.08277 1.45328,-1.32304 2.18707,-2.98453 2,-4.52853 z m -8.54548,4.16712 c -1.2375,-0.23836 -2.25,-1.05367 -2.25,-1.8118 0,-1.09732 0.6118,-1.16516 3,-0.33263 1.65,0.5752 3,1.45179 3,1.94799 0,0.49619 -0.3375,0.84089 -0.75,0.76599 -0.4125,-0.0749 -1.7625,-0.3312 -3,-0.56955 z m 4.75,-0.87998 c 0,-0.55786 0.5625,-1.64509 1.25,-2.41606 1.04787,-1.1751 0.99096,-1.20751 -0.35196,-0.20042 -1.21465,0.9109 -2.38397,0.92876 -4.83636,0.0738 -2.85145,-0.99402 -3.05966,-1.30225 -1.75859,-2.60333 1.0082,-1.00819 2.43493,-1.26514 4.50282,-0.81096 3.60482,0.79175 4.86525,3.30004 2.73083,5.43446 -0.84521,0.84528 -1.53674,1.08038 -1.53674,0.52253 z m 43.90806,-28.81643 c 3.39616,-3.61504 2.49883,-6.81721 -2.22182,-7.92872 -3.31681,-0.78097 -4.13662,-0.59466 -6.29159,1.42983 -3.34103,3.13874 -2.74332,5.9278 1.60535,7.49086 4.68001,1.68215 4.35155,1.72932 6.90806,-0.99197 z m -7.65806,-0.26012 c -0.6875,-0.27741 -1.25,-1.11848 -1.25,-1.86903 0,-1.08201 0.62134,-1.14805 3,-0.31885 1.65,0.5752 3,1.45179 3,1.94799 0,0.9538 -2.64917,1.08759 -4.75,0.23989 z m 5.75,-0.92343 c 0,-0.55786 0.5625,-1.60722 1.25,-2.3319 1.02959,-1.08528 0.89735,-1.10703 -0.75,-0.12333 -1.50259,0.89727 -2.72701,0.9163 -4.92319,0.0765 -2.65047,-1.01349 -2.7774,-1.26356 -1.36055,-2.68041 1.09261,-1.09261 2.47314,-1.36266 4.58965,-0.8978 3.60482,0.79175 4.86525,3.30004 2.73083,5.43446 -0.84521,0.84523 -1.53674,1.08033 -1.53674,0.52248 z m 369.05967,492.83571 c 0.135,-1.69623 8.4868,-24.40795 9.0359,-24.57203 0.7483,-0.22359 16.9044,19.03534 16.9044,20.15092 0,0.45117 -5.2875,1.80063 -11.75,2.99882 -12.8969,2.39116 -14.2784,2.52963 -14.1903,1.42229 z m 18.9655,-15.00715 c -4.9681,-5.90857 -8.9186,-11.27003 -8.779,-11.91436 0.2078,-0.95929 23.2184,-26.53014 44.8395,-49.82849 2.552,-2.75 29.969,-32.675 60.9268,-66.5 59.1261,-64.60233 63.0203,-68.8523 71.938,-78.50991 4.3884,-4.75249 21.2352,-23.10263 26.5495,-28.91861 16.559,-18.12236 22.0933,-24.16197 22.5157,-24.57148 0.2836,-0.275 7.476,-8.15 15.983,-17.5 8.5071,-9.35 17.5538,-19.25 20.1038,-22 2.5501,-2.75 18.0409,-19.625 34.4242,-37.5 16.3832,-17.875 38.8295,-42.36317 49.8805,-54.41816 11.051,-12.05499 21.5447,-23.52999 23.3192,-25.5 l 3.2264,-3.58184 4.7736,5.47565 c 2.6255,3.01161 6.0602,6.83661 7.6327,8.5 2.3073,2.44068 2.2108,2.18066 -0.5,-1.34729 -1.8475,-2.4044 -4.4042,-5.6669 -5.6816,-7.25 -2.7702,-3.43333 -1.7375,-3.75332 2.0119,-0.62339 3.0103,2.51293 7.7398,10.66458 7.1468,12.31802 -0.2117,0.59015 0.5131,1.88566 1.6107,2.87891 1.9932,1.80384 1.9931,1.80893 -0.057,4.42701 -1.1286,1.4416 -4.1632,4.87109 -6.7435,7.62109 -2.5802,2.75 -9.6124,10.4 -15.627,17 -6.0147,6.6 -15.4967,16.95 -21.0711,23 -15.6059,16.93714 -32.5807,35.4548 -60.4486,65.9429 -14.025,15.34365 -25.9633,28.38345 -26.5295,28.97733 -0.5662,0.59387 -23.4776,25.60477 -50.9143,55.57977 -27.4367,29.975 -54.2338,59.225 -59.5491,65 -15.9622,17.34281 -42.7707,46.59932 -54.9373,59.95379 -6.2866,6.90041 -16.0018,17.49621 -21.5894,23.54621 -5.5876,6.05 -20.3434,22.13428 -32.7907,35.74285 l -22.6316,24.74284 -9.0329,-10.74284 z m -665.52517,-0.65225 c -11.55,-3.46999 -23.53874,-7.04581 -26.64164,-7.94627 -3.10291,-0.90046 -5.8871,-2.27684 -6.1871,-3.05863 -0.46787,-1.21926 0.0501,-1.23112 3.64164,-0.0834 4.23424,1.35314 43.43913,12.9937 49.4371,14.67867 3.12975,0.87922 4.56914,2.87193 2,2.76883 -0.6875,-0.0276 -10.7,-2.88925 -22.25,-6.35924 z m 863.57887,-1.17393 c 0.048,-1.16495 0.285,-1.4019 0.6042,-0.60417 0.2889,0.72187 0.2534,1.58438 -0.079,1.91667 -0.3323,0.33229 -0.5687,-0.25834 -0.5253,-1.3125 z m -0.2436,-9.16667 c -0.1844,-3.7125 -0.09,-14.85 0.209,-24.75 l 0.5443,-18 0.2057,24.75 c 0.1974,23.75192 -0.2531,32.20833 -0.959,18 z m -898.33988,-8.26452 c -0.35166,-1.10799 -1.12651,-1.71346 -1.72189,-1.34549 -0.63318,0.39132 -0.79514,0.20404 -0.39019,-0.45119 0.38078,-0.61611 -0.16474,-2.82314 -1.21227,-4.9045 -2.06944,-4.1118 -2.43828,-14.91882 -3.67863,-107.7843 -0.2865,-21.45 -0.76905,-44.7375 -1.07234,-51.75 -0.3033,-7.0125 -0.33818,-12.75 -0.0775,-12.75 0.26066,0 2.02308,2.81834 3.91649,6.26299 l 3.44257,6.26298 0.64494,31.48702 c 0.35472,17.31785 0.87626,47.23701 1.15897,66.48701 0.28272,19.25 0.76015,42.9875 1.06097,52.75 0.35152,11.40757 0.19344,17.75 -0.44238,17.75 -0.54413,0 -1.27705,-0.90653 -1.62871,-2.01452 z m 897.94028,-68.48548 c 6e-4,-14.3 0.141,-20.01094 0.3121,-12.69097 0.1711,7.31996 0.1706,19.01996 0,26 -0.1717,6.98003 -0.3117,0.99097 -0.3111,-13.30903 z m -840.43567,0.62244 c 0,-1.16734 0.42344,-2.12244 0.94098,-2.12244 1.73246,0 2.053,1.7601 0.54801,3.00914 -1.23911,1.02837 -1.48899,0.87956 -1.48899,-0.8867 z m 300.07895,-34.15401 c -0.0434,-0.29236 -1.42367,-8.16736 -3.06721,-17.5 -3.12979,-17.77211 -3.54322,-21.49825 -2.21007,-19.91843 1.14122,1.35236 6.5577,34.92568 5.90125,36.57807 -0.29976,0.75456 -0.58055,1.13272 -0.62397,0.84036 z m 2.92105,-3.26184 c 0,-1.79018 0.82284,-2.532 3.75,-3.38078 4.23971,-1.22938 47.78161,-15.20884 49.88461,-16.01584 0.9211,-0.35346 1.36539,0.2603 1.36539,1.88621 0,2.11555 -0.88619,2.6889 -7.25,4.69061 -3.9875,1.25425 -16.16638,5.16782 -27.06419,8.69683 -10.8978,3.52901 -20.0103,6.41638 -20.25,6.41638 -0.23969,0 -0.43581,-1.03203 -0.43581,-2.29341 z m 536.35497,-10.20659 c 0,-4.95 0.166,-7.10108 0.3757,-4.78017 0.2098,2.3209 0.2122,6.3709 0.01,9 -0.2067,2.62909 -0.3783,0.73017 -0.3813,-4.21983 z m -536.80511,5.25 c -1.05408,-3.40134 -5.5689,-32.06429 -5.12112,-32.51207 0.28397,-0.28397 7.16617,1.76571 15.29378,4.55484 8.12761,2.78913 19.50248,6.25146 25.27748,7.69408 5.775,1.44261 12.29634,3.09488 14.49187,3.67171 l 3.99188,1.04879 -3.99188,1.31323 c -15.55047,5.11575 -48.24631,15.47942 -48.83525,15.47942 -0.39566,0 -0.89371,-0.5625 -1.10676,-1.25 z m 121.95014,-4.75211 c -20.42859,-1.86908 -51.39782,-6.59905 -52.95,-8.08713 -1.38503,-1.32782 -0.44542,-1.22727 19.19956,2.0547 35.65684,5.95698 80.57874,8.0936 117.25044,5.57679 24.02867,-1.64911 58.79297,-6.19111 73.99997,-9.66819 25.6815,-5.87208 32.0752,-7.56871 48.7286,-12.93075 10.0257,-3.22806 25.7757,-9.08894 35,-13.02416 14.5857,-6.22249 22.4302,-10.1656 43.1207,-21.67491 9.0802,-5.05103 30.0857,-20.99019 40.8852,-31.0242 20.9985,-19.50997 37.847,-44.74061 43.8867,-65.72004 1.9518,-6.77994 2.9777,-9.14526 3.186,-7.34558 0.4707,4.06752 -5.4898,23.25371 -9.9338,31.97552 -4.794,9.40871 -19.1241,28.0371 -28.5206,37.07531 -11.918,11.46358 -14.5409,13.64672 -28.3799,23.62219 -44.6891,32.21289 -106.3702,55.22418 -175.9729,65.65002 -37.1386,5.56302 -91.13227,7.03082 -129.49997,3.52043 z m 37,-1.10554 c -29.4018,-0.68715 -45.12389,-1.95872 -67.5,-5.45925 -20.81756,-3.25672 -24.18262,-4.19795 -23.80066,-6.65722 0.3218,-2.07196 1.57209,-2.82538 25.30066,-15.24615 8.25,-4.31848 16.50777,-8.69706 18.3506,-9.73018 1.84284,-1.03312 6.9519,-3.68909 11.3535,-5.90216 4.4016,-2.21307 7.7693,-4.2573 7.4839,-4.54272 -0.2854,-0.28543 -7.1945,3.05809 -15.35348,7.43003 -8.15898,4.37194 -22.26815,11.8166 -31.3537,16.54369 l -16.51918,8.59472 -20.98082,-5.40803 c -21.87248,-5.63787 -51.05886,-15.42927 -50.87353,-17.06699 0.059,-0.52145 2.69433,-11.55862 5.85628,-24.52705 l 5.749,-23.57897 13.65833,6.73317 c 24.97751,12.3132 57.94525,22.26734 90.6291,27.36417 22.6911,3.53852 21.5,3.21388 21.5,5.86003 0,1.68608 -1.2113,2.88957 -4.7617,4.73095 -22.24374,11.5366 -57.13042,30.41082 -56.80751,30.73373 0.22062,0.22062 8.65144,-3.96395 18.73517,-9.29905 10.08372,-5.3351 23.05904,-12.18309 28.83404,-15.21775 5.775,-3.03467 12.804,-6.80633 15.62,-8.38147 l 5.12,-2.8639 20.88,0.63747 c 100.89897,3.08048 194.36157,-30.70365 235.53517,-85.13942 5.666,-7.49109 7.1293,-10.23057 6.2365,-11.67518 -0.4221,-0.68296 -0.255,-0.85837 0.4201,-0.44113 1.5457,0.95528 6.2969,-8.79046 9.6938,-19.88369 2.2739,-7.42602 2.8242,-11.35617 3.1471,-22.47254 0.2691,-9.26603 0.7747,-13.68293 1.6193,-14.14634 4.1862,-2.29688 69.1694,-26.92571 70.1007,-26.56836 1.8506,0.71016 4.5167,9.39816 6.6599,21.7028 8.1946,47.04755 -16.5092,95.29101 -68.0769,132.94588 -17.0741,12.46749 -42.0526,26.74942 -57.4557,32.85137 -2.75,1.08941 -8.6706,3.56948 -13.1568,5.51127 -13.0107,5.63146 -44.1881,15.19348 -65.3432,20.04064 -31.1785,7.14374 -55.5932,10.26935 -100.99997,12.93018 -1.925,0.11281 -15.2,-0.0683 -29.5,-0.40255 z m -101.5,-5.89235 c 0,-0.55 0.70156,-1 1.55902,-1 0.85746,0 1.2809,0.45 0.94098,1 -0.33992,0.55 -1.04148,1 -1.55902,1 -0.51754,0 -0.94098,-0.45 -0.94098,-1 z m 2,-2.04661 c -1.91718,-0.67713 -1.45093,-0.78071 2,-0.44429 2.475,0.24128 -3.825,-1.72799 -14,-4.37615 -15.40317,-4.00885 -38.18088,-11.26296 -50.25,-16.00333 -1.98865,-0.78108 -2.75,-1.77911 -2.75,-3.60487 0,-1.38861 0.34146,-2.52475 0.7588,-2.52475 0.41734,0 7.95484,2.49873 16.75,5.55274 8.79516,3.054 23.8662,7.57023 33.4912,10.03606 9.625,2.46584 18.31314,4.73057 19.30698,5.03274 1.34237,0.40814 1.72806,1.36308 1.5,3.71393 -0.33653,3.4691 -2.28037,4.21668 -6.80698,2.61792 z m -68.98071,-17.70339 c 0.0106,-0.4125 0.64537,-3 1.41058,-5.75 l 1.3913,-5 0.0894,4.25 c 0.0532,2.52886 -0.36514,4.25 -1.03302,4.25 -0.77551,0 -0.73766,0.46364 0.12244,1.5 1.01957,1.22851 0.95124,1.5 -0.37756,1.5 -0.89234,0 -1.61376,-0.3375 -1.60315,-0.75 z m -16.1967,-14.20014 c -34.08567,-15.88358 -58.70319,-33.8917 -84.75764,-62.0016 -0.78928,-0.85154 -4.73885,-6.63364 -8.77682,-12.84911 -34.81637,-53.59124 -24.18486,-113.48594 28.80555,-162.28173 5.72347,-5.27041 16.03132,-13.64121 22.90632,-18.60176 12.80952,-9.24253 38.02161,-23.74494 50.5,-29.04845 3.85,-1.63631 11.37404,-4.8608 16.72008,-7.16554 11.46925,-4.94451 40.03057,-14.19311 54.52169,-17.65496 5.63298,-1.34569 10.47877,-2.44671 10.76843,-2.44671 0.28966,0 0.40587,10.40643 0.25823,23.1254 l -0.26843,23.1254 -9,3.1856 c -59.43711,21.03808 -101.14801,57.30589 -112.82687,98.10345 -4.9218,17.19322 -3.60874,38.47003 3.45349,55.96015 3.33627,8.26251 16.22964,28.5 18.15744,28.5 0.59957,0 -0.11907,-1.26212 -1.59697,-2.80472 -1.4779,-1.54259 -2.68688,-3.23009 -2.68663,-3.75 2.5e-4,-0.5199 4.38775,3.55472 9.75,9.05472 12.01334,12.32195 19.65037,18.38184 34.34874,27.25528 21.24342,12.82471 48.29159,23.72783 75.21556,30.31939 7.59812,1.86019 13.38986,3.52379 12.87052,3.6969 -1.84962,0.61654 -29.02703,-6.78083 -42.74103,-11.6336 -15.42849,-5.45946 -33.61684,-13.49908 -41.22476,-18.22219 -1.98322,-1.23121 -2.4049,-1.22023 -3.23469,0.0842 -0.82698,1.30005 -0.95622,1.28062 -0.96949,-0.14575 -0.008,-0.90517 -2.37781,-3.13606 -5.26531,-4.95754 -7.10356,-4.48104 -18.76028,-13.80819 -27.24979,-21.80399 l -6.9998,-6.59272 6.4998,6.85311 c 6.8683,7.24166 21.43389,19.0768 28.06387,22.80306 2.58841,1.45477 3.79698,2.75922 3.50424,3.78224 -0.24578,0.85887 -3.26512,13.14909 -6.70966,27.31159 -3.44453,14.1625 -6.50936,25.72511 -6.81072,25.69469 -0.30137,-0.0304 -7.15277,-3.13309 -15.22535,-6.89483 z m 159.17741,-7.49236 c 0,-2.08087 -0.5552,-2.50489 -3.75,-2.86389 -2.0625,-0.23176 -1.275,-0.25086 1.75,-0.0424 17.6816,1.21821 59.1529,1.47958 72.5,0.45693 16.50797,-1.26484 39.66097,-4.38931 48.99997,-6.61249 3.3,-0.78557 10.05,-2.36949 15,-3.51981 16.4317,-3.81853 51.5288,-16.28069 61.5,-21.83719 0.825,-0.45974 4.65,-2.55176 8.5,-4.64895 15.9733,-8.70102 28.3871,-17.55315 40.6079,-28.95713 8.2839,-7.7302 21.5219,-23.23606 20.6133,-24.14466 -0.2419,-0.24189 -2.9647,2.91487 -6.0507,7.01501 -11.0514,14.68312 -32.2184,32.44534 -50.1705,42.10053 -3.85,2.07064 -8.3549,4.57463 -10.0108,5.56442 -6.1721,3.68918 -31.4709,13.81471 -45.4892,18.20649 -74.2881,23.27359 -163.52047,22.28472 -235.49997,-2.6098 -14.29264,-4.94319 -37.8549,-15.74856 -44.87775,-20.58041 -2.46543,-1.6963 -4.77044,-3.08415 -5.12225,-3.08415 -1.07199,0 -9.5557,-6.02956 -18,-12.79298 -9.82514,-7.86941 -21.54263,-20.4876 -27.36746,-29.47115 -2.4021,-3.70473 -4.56616,-6.73587 -4.80902,-6.73587 -0.54564,0 0.0253,0.97835 4.88926,8.37837 2.1251,3.2331 3.68317,6.05901 3.46239,6.2798 -0.72227,0.72227 -8.83217,-12.49005 -9.11753,-14.8539 -0.15299,-1.26735 -1.85385,-6.35427 -3.7797,-11.30427 -15.89936,-40.86604 1.32685,-83.00073 47.72206,-116.72646 16.199,-11.77541 41.37346,-24.5034 62.5,-31.59944 l 8.5,-2.855 0.26664,-25.54094 0.26664,-25.54094 8.23336,-2.06227 c 7.83997,-1.96375 16.13158,-3.36442 39.73336,-6.71205 39.3526,-5.58168 90.8273,-5.77036 134.49997,-0.49299 74.1817,8.96404 142.9581,34.64171 187,69.81645 6.6,5.27119 12.2509,9.94955 12.5575,10.39636 0.3066,0.44681 4.3989,4.75099 9.0939,9.56483 9.1827,9.41507 21.3794,26.73554 25.9954,36.916 1.5693,3.4609 2.8532,6.4872 2.8532,6.72513 0,0.42801 -10.3777,4.5671 -51.8471,20.67896 l -21.3472,8.29387 0.6225,6.06924 c 0.9803,9.55847 -0.8796,23.92697 -4.4101,34.06925 -1.7231,4.95 -3.2035,9.75536 -3.2898,10.67857 -0.086,0.92322 -0.6229,1.59822 -1.1926,1.5 -0.5696,-0.0982 -1.0024,0.81156 -0.9616,2.02171 0.041,1.21015 -0.2776,1.98294 -0.7075,1.7173 -1.1125,-0.68759 -3.9591,5.17781 -3.3205,6.84198 0.7632,1.98893 -12.0847,18.17806 -21.131,26.62631 -9.0456,8.44762 -25.0585,20.1746 -34.9151,25.56995 -3.85,2.10743 -9.25,5.07313 -12,6.59045 -15.0397,8.29818 -44.6443,18.78642 -69.3868,24.58216 -35.4579,8.30578 -82.22237,12.17168 -114.36087,9.45394 -5.4297,-0.45915 -8.4216,-0.28089 -10,0.5958 -3.4081,1.89291 -4.7523,1.57592 -4.7523,-1.12067 z m 149.97117,-178.7101 c 0.016,-0.35893 -3.2337,-1.62992 -7.2212,-2.82442 -3.9875,-1.19451 -11.0699,-3.32333 -15.7387,-4.73072 l -8.4886,-2.55888 4.723,-1.50738 c 5.7986,-1.85065 12.5317,-7.44895 14.4337,-12.00106 2.8645,-6.85574 -2.9268,-14.6989 -13.8418,-18.7459 -7.1444,-2.64894 -22.0821,-2.73921 -29.6774,-0.17934 -10.6623,3.59354 -16.608,9.63857 -16.335,16.60781 l 0.1494,3.81079 -14.73727,-4.36481 c -8.1055,-2.40065 -15.4337,-4.47476 -16.2849,-4.60915 -0.8512,-0.13439 -4.8685,3.32474 -8.9273,7.68695 -6.5148,7.00179 -7.1538,8.02105 -5.4524,8.6972 1.06,0.42125 17.9023,5.49016 37.4273,11.26426 19.52497,5.77409 42.24997,12.53068 50.49997,15.01465 l 15,4.51629 7.2212,-7.71185 c 3.9717,-4.24151 7.2342,-8.00551 7.25,-8.36444 z m -26.4712,11.2352 c -12.3224,-3.73117 -12.5762,-3.85258 -7.7557,-3.70901 2.3344,0.0695 4.2469,0.42901 4.25,0.79886 0.01,1.08659 6.5642,2.93419 8.1929,2.30922 0.8208,-0.31498 2.0696,0.12279 2.775,0.97282 1.7843,2.14996 3.8498,1.93047 6.6296,-0.70449 1.5751,-1.4931 2.3795,-3.38705 2.3909,-5.63005 l 0.017,-3.38005 -4.3334,0.48843 c -2.7753,0.31282 -5.0014,3e-5 -6.1912,-0.86994 -1.0214,-0.74712 -2.9652,-1.35839 -4.3192,-1.35839 l -2.4619,0 2.2455,1.94749 c 1.235,1.07112 2.7663,2.13451 3.403,2.36309 0.6366,0.22859 0.8414,0.75579 0.4551,1.17156 -0.3863,0.41578 -1.4309,0.0274 -2.3214,-0.86309 -0.8905,-0.89048 -2.0066,-1.61905 -2.4802,-1.61905 -0.4737,0 -1.1315,-0.8516 -1.4619,-1.89245 -0.7195,-2.26692 -5.4273,-4.40136 -8.6892,-3.93954 -1.2897,0.18259 -3.1324,-0.45551 -4.0949,-1.41801 -1.0133,-1.01333 -3.2534,-1.75 -5.3214,-1.75 -1.9643,0 -4.1743,-0.6028 -4.911,-1.33956 -1.1194,-1.11942 -0.4092,-1.35115 4.3214,-1.41005 3.1136,-0.0388 6.8701,-0.53903 8.3478,-1.11168 2.3884,-0.92552 2.7217,-0.79665 3,1.16005 0.2726,1.91556 2.26,2.77928 15.3132,6.6551 8.25,2.44962 15.1626,4.56222 15.3613,4.69467 0.1988,0.13245 -1.8262,2.73503 -4.5,5.78352 -3.007,3.42849 -5.6242,5.51086 -6.8613,5.45922 -1.1,-0.0459 -6.05,-1.30982 -11,-2.80867 z m 8.5,-0.55122 c 0,-0.89459 0.5863,-1.24363 1.5,-0.89301 0.825,0.31659 1.5,0.97746 1.5,1.46862 0,0.49115 -0.675,0.89301 -1.5,0.89301 -0.825,0 -1.5,-0.66088 -1.5,-1.46862 z m -10.5411,-2.59791 c -0.3626,-0.58659 -0.5016,-1.22186 -0.309,-1.4117 0.6882,-0.67849 5.8501,0.72869 5.8501,1.59481 0,1.25578 -4.7488,1.09885 -5.5411,-0.18311 z m 11.6879,0.17839 c -1.9146,-1.21318 0.2884,-5.11186 2.8884,-5.11186 2.5365,0 2.5052,1.18143 -0.074,2.79216 -1.1213,0.70029 -1.7698,1.70854 -1.441,2.24055 0.7299,1.18091 0.3956,1.20017 -1.3734,0.0791 z m -37.1468,-5.11354 c -6.875,-2.10935 -14.4579,-4.35146 -16.8509,-4.98247 -2.3931,-0.63102 -4.126,-1.3723 -3.851,-1.6473 0.275,-0.275 2.4579,0.0477 4.851,0.71706 2.393,0.66938 5.1384,1.17692 6.1009,1.12787 0.9625,-0.0491 1.75,0.38531 1.75,0.96525 0,0.57993 1.0363,0.85632 2.3029,0.61419 1.2667,-0.24213 2.8819,0.1795 3.5895,0.93695 1.6085,1.72195 3.7002,1.08886 3.3311,-1.00821 -0.1521,-0.86396 0.2619,-1.9036 0.9199,-2.3103 0.8095,-0.50025 0.996,-0.21698 0.5767,0.87573 -1.0593,2.76042 2.4225,5.91291 6.5306,5.91291 2.0187,0 4.1932,0.63 4.8323,1.4 1.7065,2.0562 0.1782,1.77387 -14.083,-2.60168 z m 20,2.44266 c 0,-0.85746 0.45,-1.2809 1,-0.94098 0.55,0.33992 1,1.04148 1,1.55902 0,0.51754 -0.45,0.94098 -1,0.94098 -0.55,0 -1,-0.70156 -1,-1.55902 z m -5.0797,-1.03702 c -1.1565,-1.39347 -1.0233,-1.55212 1.0492,-1.25 1.3056,0.19032 2.5591,0.90854 2.7855,1.59604 0.5925,1.79918 -2.2686,1.54099 -3.8347,-0.34604 z m -10.0479,-3.07737 c -1.2322,-1.50251 -1.1171,-1.60604 1.1276,-1.01366 1.375,0.36287 3.5125,0.66591 4.75,0.67342 1.2375,0.008 2.25,0.46365 2.25,1.01365 0,1.68307 -6.6465,1.13237 -8.1276,-0.67341 z m 16.3065,-0.24139 c 1.582,-2.53324 3.0923,-2.73211 2.6329,-0.34668 -0.1841,0.95618 -1.1449,1.89452 -2.135,2.0852 -1.5874,0.30572 -1.6463,0.10029 -0.4979,-1.73852 z m -6.6789,-0.0852 c -0.3399,-0.55 0.083,-1 0.941,-1 0.8574,0 1.559,0.45 1.559,1 0,0.55 -0.4234,1 -0.941,1 -0.5175,0 -1.2191,-0.45 -1.559,-1 z m 21.6363,-3.50109 c -13.6253,-4.10385 -19.1434,-6.54841 -14.5863,-6.46188 3.6256,0.0688 29.7982,8.50743 30.209,9.74002 0.5399,1.6196 0.865,1.68781 -15.6227,-3.27814 z m -38.1363,1.50109 c 0,-0.55 0.45,-1 1,-1 0.55,0 1,0.45 1,1 0,0.55 -0.45,1 -1,1 -0.55,0 -1,-0.45 -1,-1 z m -5,-1 c 0,-0.55 0.45,-1 1,-1 0.55,0 1,0.45 1,1 0,0.55 -0.45,1 -1,1 -0.55,0 -1,-0.45 -1,-1 z m 11.6753,0.34201 c -0.7276,-0.72765 1.1135,-3.34201 2.3535,-3.34201 0.4312,0 0.5486,0.9 0.2609,2 -0.5348,2.04524 -1.4443,2.51209 -2.6144,1.34201 z m -8.6753,-1.90103 c 0,-0.85746 -0.4189,-1.30012 -0.9309,-0.98369 -1.5301,0.94565 -1.9837,-0.85356 -0.6687,-2.65202 0.6727,-0.91997 2.5453,-1.9302 4.1614,-2.24496 1.616,-0.31475 2.2632,-0.27158 1.4382,0.0959 -2.3224,1.03455 -3.7723,3.49861 -3.245,5.51479 0.263,1.00593 0.2008,1.82896 -0.1384,1.82896 -0.3391,0 -0.6166,-0.70156 -0.6166,-1.55902 z m -9,-0.44098 c 0,-0.55 0.45,-1 1,-1 0.55,0 1,0.45 1,1 0,0.55 -0.45,1 -1,1 -0.55,0 -1,-0.45 -1,-1 z m 12.0703,0.25 c 0.2446,-2.6107 1.5463,-4.10496 2.8656,-3.28959 1.1897,0.73526 1.2115,1.15703 0.1274,2.46337 -1.3623,1.64144 -3.1147,2.1252 -2.993,0.82622 z m -35.57027,-4.14645 c -14.5175,-4.51381 -16.1931,-5.19912 -11,-4.49894 2.2,0.29663 5.0216,1.03785 6.2702,1.64715 1.6895,0.82443 2.572,0.80602 3.45,-0.072 1.6036,-1.6036 3.7798,-1.48974 3.7798,0.19777 0,2.23246 2.6925,3.82244 6.473,3.82244 1.9398,0 3.527,0.405 3.527,0.9 0,0.495 0.4359,0.9 0.9686,0.9 0.5327,0 0.7096,-0.675 0.393,-1.5 -0.3962,-1.03242 0.063,-1.5 1.47237,-1.5 3.1699,0 3.5861,1.88979 0.6611,3.00187 -3.26947,1.24307 -1.84547,1.5011 -15.99507,-2.89832 z m 24.49997,1.09645 c 0,-1.30199 2.2865,-3.2 3.855,-3.2 1.155,0 1.0818,0.41237 -0.355,2 -1.8592,2.05439 -3.5,2.61695 -3.5,1.2 z m -3.2463,-0.88862 c -1.3882,-0.36296 -1.5348,-0.85192 -0.7148,-2.384 1.4531,-2.71513 2.9774,-2.3956 2.7318,0.57262 -0.1138,1.375 -0.2213,2.4478 -0.2388,2.384 -0.017,-0.0638 -0.8177,-0.32148 -1.7782,-0.57262 z m -16.08697,-0.97805 c -1.4284,-1.42836 -0.5232,-1.91498 2.8333,-1.52312 1.925,0.22473 3.5,0.80937 3.5,1.2992 0,1.02957 -5.3389,1.21834 -6.3333,0.22392 z m 8.3333,-1.33333 c 0,-0.55 0.675,-1 1.49997,-1 0.825,0 1.5,0.45 1.5,1 0,0.55 -0.675,1 -1.5,1 -0.82497,0 -1.49997,-0.45 -1.49997,-1 z m 9.89097,-2.30045 c -1.3469,-1.08395 -3.4616,-1.68088 -5.3141,-1.5 -1.9242,0.18789 -3.73247,-0.35514 -4.82687,-1.44955 -0.9625,-0.9625 -3.01,-1.75 -4.55,-1.75 -1.54,0 -3.262,-0.462 -3.8267,-1.02666 -0.5646,-0.56466 -2.3839,-1.12716 -4.0428,-1.25 -2.0096,-0.14881 -3.3709,-0.97418 -4.0792,-2.47334 -0.5847,-1.2375 -0.8351,-2.25 -0.5564,-2.25 0.6743,0 20.79907,5.86862 22.93377,6.68778 1.4771,0.56681 1.5946,0.0534 1.005,-4.39123 -0.5326,-4.01488 -0.3102,-5.47513 1.0993,-7.21819 1.7349,-2.1454 1.761,-2.08735 1.4346,3.19358 -0.2898,4.6891 0.025,5.80378 2.4574,8.6942 1.5344,1.82352 4.0966,4.11022 5.6938,5.08156 l 2.9041,1.76607 -4.0473,-0.15689 c -2.2261,-0.0863 -5.0541,-0.96708 -6.2846,-1.95733 z m 11.6668,0.80833 c -4.8233,-1.71824 -8.3551,-4.27616 -10.4124,-7.5413 l -1.5541,-2.46658 2.4544,2.1574 c 3.4329,3.01763 9.7697,6.09133 14.2043,6.88989 2.0625,0.37141 3.75,1.07521 3.75,1.564 0,1.29174 -3.9059,1.01257 -8.4422,-0.60341 z m 9.4422,0.65125 c 0,-0.46248 2.3901,-1.37574 5.3112,-2.02947 2.9212,-0.65374 6.9712,-2.31657 9,-3.69518 4.1491,-2.81938 4.9315,-1.95057 1.3085,1.45304 -3.5276,3.31403 -15.6197,6.62092 -15.6197,4.27161 z m -48.99997,-1.71815 c 0,-0.85746 0.45,-1.2809 1,-0.94098 0.55,0.33992 1,1.04148 1,1.55902 0,0.51754 -0.45,0.94098 -1,0.94098 -0.55,0 -1,-0.70156 -1,-1.55902 z m 64.75097,-1.50483 c 4.3988,-4.11252 6.5174,-8.51131 6.0456,-12.55245 -0.2152,-1.84367 0.043,-3.49702 0.5746,-3.6741 1.6484,-0.54948 -7.8765,-5.59094 -12.493,-6.61244 -2.408,-0.53282 -6.1782,-0.74317 -8.3782,-0.46744 -4.6618,0.58426 -13.6902,4.67259 -15.6466,7.08521 -0.7444,0.91794 -0.9034,1.40098 -0.3534,1.07342 0.6095,-0.36297 1.0295,1.36701 1.0756,4.42982 0.066,4.35751 -0.097,4.78924 -1.2236,3.24855 -1.6241,-2.22107 -1.2662,-8.66023 0.6067,-10.91699 6.0145,-7.247 24.5682,-8.415 34.068,-2.14468 3.1104,2.05299 3.5503,2.86953 3.7264,6.91692 0.1099,2.52402 -0.2396,4.86069 -0.7767,5.1926 -1.8125,1.12021 -1.0173,4.53475 1.2516,5.37407 2.1844,0.80808 2.1698,0.85417 -0.75,2.35745 -1.6379,0.8433 -4.778,2.02742 -6.978,2.63138 l -4,1.09812 3.251,-3.03944 z m -61.75097,1.18188 c 0,-0.55 0.45,-1.27811 1,-1.61803 0.55,-0.33992 1,-0.16803 1,0.38197 0,0.55 -0.45,1.27811 -1,1.61803 -0.55,0.33992 -1,0.16803 -1,-0.38197 z m 5.4356,-0.22216 c -0.3805,-0.61571 -0.072,-1.51227 0.6863,-1.99236 2.8929,-1.83233 3.8442,-0.72678 1.4419,1.67559 -1.0152,1.01515 -1.6391,1.10802 -2.1282,0.31677 z m -26.1927,-1.56051 -4.2571,-1.50674 1.9234,-2.66431 c 2.787,-3.86084 10.0908,-10.75305 10.0908,-9.52225 0,0.57638 -0.9496,1.90521 -2.1102,2.95295 -1.1606,1.04775 -3.4498,3.70499 -5.087,5.90499 -1.9964,2.68247 -1.1757,2.06556 2.4914,-1.87291 5.1632,-5.54523 5.6284,-5.81466 8.3371,-4.82895 2.2851,0.8316 2.4477,1.06003 0.799,1.12291 -2.1214,0.0809 -5.3313,3.15697 -7.476,7.16432 -1.0181,1.90242 -0.9224,2.46477 0.6102,3.58546 2.4284,1.77571 0.2564,1.63878 -5.3216,-0.33547 z m 8.5071,0.50236 c -4.2607,-1.55614 -3.2462,-2.86747 1.6944,-2.19028 2.4445,0.33505 5.257,0.255 6.25,-0.17789 0.9931,-0.43289 2.2144,-0.69187 2.714,-0.57552 0.4996,0.11635 1.2683,-0.37095 1.7083,-1.08288 0.6025,-0.97486 1.0837,-1.01076 1.949,-0.14543 0.8653,0.86533 0.5973,1.44424 -1.0855,2.34488 -1.5825,0.84694 -2.4297,0.88016 -2.9033,0.11385 -0.4312,-0.69778 -1.2704,-0.37932 -2.363,0.89675 -1.8501,2.16071 -3.7501,2.35552 -7.9639,0.81652 z m 24.25,-0.46016 c 0,-1.3288 0.2715,-1.39713 1.5,-0.37756 0.825,0.68469 1.5,1.41479 1.5,1.62244 0,0.20766 -0.675,0.37756 -1.5,0.37756 -0.825,0 -1.5,-0.7301 -1.5,-1.62244 z m 26.32417,0.18295 c -13.1923,-4.12499 -17.069,-12.30785 -9.3222,-19.6772 12.7063,-12.08717 45.998,-7.39372 45.998,6.48477 0,2.17335 -0.7279,4.35982 -1.8125,5.44442 -0.9969,0.99687 -1.6344,2.34687 -1.4167,3 0.2177,0.65312 -0.107,1.1875 -0.7217,1.1875 -1.1682,0 -0.9753,-4.40716 0.2464,-5.62885 1.1013,-1.10125 0.8369,-6.57103 -0.284,-5.87823 -0.5466,0.33779 -0.7455,-0.0225 -0.445,-0.80573 0.7861,-2.04832 -4.6266,-6.21426 -10.6909,-8.22852 -10.3875,-3.45015 -25.8161,0.11637 -29.9696,6.92784 -2.4359,3.99478 -2.3983,6.11342 0.1728,9.72421 2.5473,3.57734 6.1407,5.50443 13.6626,7.32719 4.8478,1.17475 5.205,1.39806 2.2586,1.41188 -1.925,0.009 -5.3791,-0.57115 -7.6758,-1.28928 z m 4.7961,-1.64008 c -5.4567,-1.07201 -9.4605,-3.59144 -8.7305,-5.49375 0.3006,-0.78345 0.1718,-2.43745 -0.2862,-3.67557 -1.0942,-2.95762 0.3731,-6.01079 3.8859,-8.08584 4.2469,-2.50868 5.8024,-1.9996 1.9084,0.62456 -2.7553,1.85676 -3.3979,2.93673 -3.3979,5.71017 0,2.77344 0.6426,3.85341 3.3979,5.71017 8.4888,5.72059 21.9049,-0.18221 14.6323,-6.43787 -2.7394,-2.35628 -5.368,-2.35835 -8.3054,-0.007 -1.0169,0.81411 -0.9348,1.3972 0.405,2.87761 1.4961,1.65318 1.5067,1.85662 0.097,1.85662 -1.9564,0 -4.7264,-2.65857 -4.7264,-4.53624 0,-5.03235 15.9308,-4.40776 17.5482,0.688 2.3216,7.31488 -10.0774,11.51455 -20.2982,6.87517 -2.3375,-1.06103 -4.25,-1.70415 -4.25,-1.42915 0,0.9109 8.4596,4.3579 10.75,4.38026 1.2375,0.0121 2.25,0.47196 2.25,1.02196 0,0.55 -0.1125,0.9507 -0.25,0.89043 -0.1375,-0.0603 -2.2209,-0.49676 -4.6297,-0.97 z m 6.8797,0.18656 c 0,-1.0558 2.5355,-1.58255 6.195,-1.28698 1.8427,0.14884 7.333,-5.90716 8.1347,-8.97283 0.7157,-2.73681 -3.6579,-7.45538 -8.0863,-8.7241 l -3.7434,-1.07246 4,0.54867 c 7.1989,0.98744 11.8282,6.05035 9.5037,10.39374 -0.5481,1.02415 -0.7425,2.52417 -0.4319,3.33338 0.3105,0.80921 0.089,1.76518 -0.4922,2.12438 -0.6584,0.40693 -0.8375,-0.0261 -0.4751,-1.14885 0.4763,-1.4755 0.2478,-1.41389 -1.2614,0.3401 -2.1217,2.46585 -9.0067,6.24078 -7.7891,4.27062 0.5468,-0.8847 0.2854,-1.05579 -0.89,-0.5826 -0.9152,0.36847 -2.339,0.94308 -3.164,1.27693 -0.825,0.33384 -1.5,0.10884 -1.5,-0.5 z m -62.24997,-1.79632 c -2.3519,-0.6146 -2.2057,-1.53389 0.6738,-4.23906 2.1896,-2.05701 2.7693,-2.16298 6,-1.09677 7.9158,2.61248 1.7547,7.53844 -6.6738,5.33583 z m 6.9271,-1.91159 c 0.9259,-2.41277 -1.802,-3.59601 -3.9043,-1.6935 -0.975,0.88242 -1.7728,1.98465 -1.7728,2.44941 0,1.54629 5.0518,0.87364 5.6771,-0.75591 z m 23.82287,0.59355 c -1.1,-0.47961 -8.27487,-2.71157 -15.94427,-4.95992 -14.3905,-4.21873 -15.3293,-4.59241 -14.2501,-5.67162 1.1164,-1.11641 32.69437,8.83232 32.69437,10.30045 0,0.73615 -0.1125,1.308 -0.25,1.27078 -0.1375,-0.0372 -1.15,-0.46009 -2.25,-0.93969 z m 54.5,-0.8746 c 0,-0.55 0.45,-1.27811 1,-1.61803 0.55,-0.33992 1,-0.16803 1,0.38197 0,0.55 -0.45,1.27811 -1,1.61803 -0.55,0.33992 -1,0.16803 -1,-0.38197 z m -29.8,-1.31803 c -2.0764,-2.07638 -1.3196,-2.53902 2.3,-1.4061 1.925,0.60251 3.5,1.43537 3.5,1.85079 0,1.21287 -4.4864,0.86889 -5.8,-0.44469 z m 6.4563,-1.00633 c -0.7777,-2.97409 -0.1644,-3.34619 3.0795,-1.86819 2.648,1.20653 2.6765,1.29985 0.8131,2.66244 -2.6136,1.91108 -3.2174,1.78788 -3.8926,-0.79425 z m 26.4987,-2.56998 c -0.022,-2.8762 -0.3777,-5.79065 -0.7897,-6.47657 -0.5058,-0.84199 -0.1996,-0.80128 0.9427,0.12532 0.9306,0.75485 1.692,0.92076 1.692,0.36869 0,-3.02186 -12.6861,-9.85052 -20.6078,-11.09277 -11.9125,-1.86807 -22.9579,1.09032 -32.2687,8.64281 -2.7704,2.24722 -3.9968,2.84519 -3.3418,1.62942 3.5318,-6.55601 16.3384,-12.38027 27.2846,-12.40872 11.395,-0.0296 24.2985,4.56292 27.7893,9.89054 2.1144,3.22693 2.5234,10.19695 0.7415,12.63393 -1.269,1.73545 -1.4054,1.42205 -1.4421,-3.31265 z m -38.2003,1.22178 c -1.0786,-1.29964 -0.9347,-1.90994 0.8776,-3.72222 l 2.1677,-2.16769 0,3.72222 c 0,3.98164 -0.968,4.67067 -3.0453,2.16769 z m 16.0453,-1.44547 c -0.7931,-0.49019 -1.1101,-1.22322 -0.7044,-1.62896 0.4058,-0.40574 1.2627,-0.21271 1.9044,0.42896 1.5109,1.51091 0.6676,2.35423 -1.2,1.2 z m 7.1784,-1.75 c 0.2948,-2.52096 -0.1243,-2.8979 -5.0326,-4.52576 -6.2771,-2.08186 -10.628,-1.56482 -15.6796,1.86325 -3.7224,2.52608 -4.6784,1.62466 -1.5717,-1.482 4.1296,-4.12964 15.7216,-4.55276 21.4737,-0.78382 2.3686,1.552 3.5602,7.67833 1.4934,7.67833 -0.5526,0 -0.86,-1.2375 -0.6832,-2.75 z m -14.1784,0.11133 c 0,-0.78542 1.0576,-1.36133 2.5,-1.36133 1.375,0 2.5,0.39754 2.5,0.88342 0,0.48589 -1.125,1.09848 -2.5,1.36133 -1.6764,0.32047 -2.5,0.0294 -2.5,-0.88342 z m -2.1875,-9.04444 c 0.7219,-0.28887 1.5844,-0.25335 1.9167,0.0789 0.3323,0.33229 -0.2584,0.56864 -1.3125,0.52522 -1.165,-0.048 -1.4019,-0.28494 -0.6042,-0.60416 z M 912.40096,563.43894 c 0.97297,-0.25354 2.32297,-0.23687 2.99997,0.0371 0.6771,0.27393 -0.119,0.48137 -1.769,0.46099 -1.65,-0.0204 -2.20394,-0.2445 -1.23097,-0.49804 z m -481.90717,-3.51431 c -1.03735,-1.81099 -2.78063,-5.01201 -3.87397,-7.1134 -1.98525,-3.81561 -1.98523,-3.82269 0.0121,-5.32058 1.1,-0.82494 1.90266,-1.87265 1.78368,-2.32825 -0.11897,-0.4556 3.22063,-4.58634 7.42133,-9.17942 6.3089,-6.89819 23.94851,-26.0842 27.81395,-30.2523 0.56044,-0.60431 25.74404,-28.09875 55.96356,-61.09875 60.67889,-66.26192 105.71648,-115.43635 120.41629,-131.4769 5.28066,-5.7623 12.49061,-13.6373 16.02212,-17.5 3.5315,-3.86271 8.71801,-9.4981 11.52557,-12.5231 2.80756,-3.025 17.23859,-18.775 32.06897,-35 14.83037,-16.225 27.41886,-29.98378 27.97442,-30.57506 0.55557,-0.59128 16.94007,-18.48104 36.41,-39.75502 34.53953,-37.73989 37.11454,-40.21451 49.10012,-47.18604 0.825,-0.47987 -0.91286,1.78131 -3.8619,5.02484 -7.16081,7.87588 -26.2232,28.64157 -32.58011,35.49128 -2.80737,3.025 -14.78353,16.075 -26.61369,29 -11.83016,12.925 -53.21973,58.12329 -91.97684,100.44064 -38.7571,42.31734 -83.26104,90.91734 -98.89763,108 -15.63659,17.08265 -32.77485,35.78436 -38.08501,41.55936 -5.31017,5.775 -25.09362,27.375 -43.96322,48 -27.63834,30.20946 -35.63966,38.3604 -41.15603,41.92562 -3.76622,2.43409 -6.66436,4.60892 -6.44033,4.83295 0.22402,0.22403 2.78267,-1.19233 5.68587,-3.14746 2.9032,-1.95513 5.42228,-3.41105 5.59795,-3.23538 0.30233,0.30233 -7.56162,23.79703 -8.17264,24.41697 -0.15866,0.16098 -1.13722,-1.18902 -2.17456,-3 z m 471.13814,2.2073 c -4.15859,-1.05818 -0.0656,-1.10515 5,-0.0574 3.36313,0.69564 3.52234,0.82684 1,0.82406 -1.65,-0.002 -4.35,-0.34684 -6,-0.76669 z m -8.25,-1.68933 c 0.9625,-0.25152 2.5375,-0.25152 3.5,0 0.9625,0.25153 0.175,0.45733 -1.75,0.45733 -1.925,0 -2.7125,-0.2058 -1.75,-0.45733 z m -5.5,-0.97295 c 0.6875,-0.27741 1.8125,-0.27741 2.5,0 0.6875,0.27741 0.125,0.50439 -1.25,0.50439 -1.375,0 -1.9375,-0.22698 -1.25,-0.50439 z M 649.20561,421.60034 c -0.0405,-1.66738 1.53682,-8.64238 3.50522,-15.5 9.06315,-31.57483 33.16418,-62.93211 66.9211,-87.0695 16.15219,-11.54938 15.39589,-11.0886 40.5,-24.6749 18.96736,-10.26511 63.51832,-26.60169 87.62379,-32.13114 10.39507,-2.38449 10.37621,-2.38219 10.37621,-1.26084 0,0.45762 -4.3875,1.83451 -9.75,3.05976 -15.82615,3.61603 -46.06063,13.71327 -63.4063,21.17545 -45.75092,19.68224 -81.15248,45.24532 -105.07177,75.87119 -7.13148,9.13103 -10.70165,14.98184 -16.98259,27.83113 -4.37404,8.94826 -9.23287,20.64826 -10.79739,26 -1.84025,6.2949 -2.8706,8.66007 -2.91827,6.69885 z m 557.92629,-7.31654 c 0,-1.11972 2.5306,-2.19082 36,-15.23707 37.3198,-14.54715 36,-14.08465 36,-12.61535 0,0.6659 -2.8125,2.28036 -6.25,3.58769 -7.7862,2.96119 -22.8876,8.82241 -46.416,18.01521 -19.3216,7.54914 -19.334,7.55315 -19.334,6.24952 z m 80.2449,-11.94132 c -1.2347,-3.1842 -2.2131,-7.1217 -2.1743,-8.75 0.069,-2.87642 0.1234,-2.84187 1.9277,1.21568 1.6956,3.81312 3.7372,13.32377 2.8602,13.32377 -0.2028,0 -1.3789,-2.60525 -2.6136,-5.78945 z m -5.0647,-12.21877 c -0.099,-0.27952 -1.5182,-4.29181 -3.1535,-8.9162 -4.0858,-11.55406 -15.0635,-27.90775 -28.0267,-41.7519 -43.2156,-46.15239 -116.7759,-78.21268 -207,-90.21821 -23.9686,-3.18935 -46.61577,-4.33233 -74.79907,-3.77505 -15.7855,0.31213 -34.1009,0.99601 -40.7009,1.51973 -13.9147,1.10417 -44.28639,5.46551 -56.25,8.07744 -8.2422,1.79947 -11.59035,1.12369 -4.5,-0.90825 8.04199,-2.30467 50.8471,-7.97941 71.75,-9.51201 31.1173,-2.28153 55.2295,-1.78469 97.49897,2.00902 14.5144,1.30267 47.719,7.38346 67.501,12.36152 20.9855,5.28094 48.8012,14.51356 61.5,20.41321 4.125,1.9164 11.5456,5.35575 16.4902,7.643 35.3303,16.3429 71.066,45.63234 89.1468,73.06592 8.9559,13.5884 11.5806,19.69333 11.0957,25.80731 -0.2047,2.58098 -0.4533,4.46399 -0.5525,4.18447 z m 1.9946,-7.51884 c 0.2448,-2.03947 1.1908,-3.04203 3.8252,-4.05384 18.505,-7.10733 132.0795,-51.0955 149.7817,-58.01149 11.0142,-4.30305 16.5018,-5.37587 17.6873,-3.45778 0.7764,1.25631 -0.6632,1.96438 -15.969,7.85405 -18.6252,7.16698 -110.6169,43.02756 -132.5,51.65169 -24.6173,9.70167 -23.2233,9.33419 -22.8252,6.01737 z m -2.3587,-7.22294 c -3.0821,-7.7714 -16.7683,-26.94623 -26.9444,-37.75 -18.5344,-19.67761 -48.4878,-40.85812 -74.9041,-52.96578 -5.7572,-2.63876 -12.7176,-5.85721 -15.4676,-7.15211 -10.0889,-4.75061 -43.2928,-15.56157 -62.3809,-20.31081 -63.4919,-15.79718 -135.82827,-19.16793 -203.11907,-9.46501 -9.625,1.38787 -21.4375,3.30628 -26.25,4.26315 l -8.75,1.73974 0,-55.87198 c 0,-52.74895 0.0978,-55.84201 1.75,-55.33591 0.9625,0.29484 8.5,2.54027 16.75,4.98985 39.0978,11.60888 82.5514,24.52062 108,32.09094 15.39997,4.58112 35.19997,10.45214 43.99997,13.04671 8.8,2.59457 27.025,8.00141 40.5,12.0152 13.475,4.01379 43.625,12.98665 67,19.93969 23.375,6.95304 48.35,14.38618 55.5,16.51809 46.6247,13.90206 146.9105,43.63489 153.5,45.50982 2.475,0.70423 11.25,3.31579 19.5,5.80347 8.25,2.48769 25.125,7.51157 37.5,11.16418 12.375,3.65261 26.325,7.795 31,9.2053 l 8.5,2.56419 -3,1.34363 c -1.65,0.73899 -10.2,4.09248 -19,7.4522 -17.4645,6.66772 -19.5064,7.45765 -46,17.79562 -33.0138,12.88223 -95.7011,37.15982 -95.9505,37.15982 -0.1354,0 -0.9154,-1.6875 -1.7334,-3.75 z M 860.19499,203.58624 c 0.12005,-39.49305 0.46119,-53.44626 1.29986,-53.1668 0.82607,0.27526 1.20786,14.92091 1.39584,53.54569 0.23163,47.59208 0.0953,53.1668 -1.29985,53.1668 -1.39411,0 -1.54144,-5.65154 -1.39585,-53.54569 z m 0.54393,-56.0361 c -1.13803,-2.96565 -0.65765,-6.41821 0.89301,-6.41821 1.08333,0 1.5,1.11111 1.5,4 0,4.0412 -1.27557,5.33021 -2.39301,2.41821 z"
     id="path11287"
     inkscape:connector-curvature="0" />
</svg>
