<?xml version="1.0" encoding="utf-8"?>
<!-- Generator: Adobe Illustrator 24.0.3, SVG Export Plug-In . SVG Version: 6.00 Build 0)  -->
<svg version="1.0" id="Capa_1" xmlns="http://www.w3.org/2000/svg" xmlns:xlink="http://www.w3.org/1999/xlink" x="0px" y="0px"
	 width="123px" height="1080px" viewBox="0 0 123 1080" enable-background="new 0 0 123 1080" xml:space="preserve">
<rect y="0" fill="#010202" width="123" height="1080"/>
<g>
	<rect x="122" y="0" fill="#262626" width="1" height="1080"/>
</g>
<g>
	<rect y="122" fill="#262626" width="122.5" height="1"/>
</g>
<path fill="#818181" d="M55.1,74.9l6.3,3.8l12.4-21.2H61.6l5.8-9.9l-6.3-3.8L48.7,65h12.1L55.1,74.9z"/>
<path fill-rule="evenodd" clip-rule="evenodd" fill="#545457" d="M69.8,1014.1c-0.3-0.3-0.9-0.3-1.2,0l-6,5.2l-6-5.2
	c-0.3-0.3-0.9-0.3-1.2,0c-0.2,0.1-0.3,0.3-0.3,0.5s0.1,0.4,0.3,0.5l6.6,5.7c0.2,0.1,0.4,0.2,0.6,0.2c0.2,0,0.5-0.1,0.6-0.2l6.6-5.7
	C70.1,1014.9,70.1,1014.4,69.8,1014.1z"/>
<path fill-rule="evenodd" clip-rule="evenodd" fill="#2C2C2E" d="M69.8,1007.1c-0.3-0.3-0.9-0.3-1.2,0l-6,5.2l-6-5.2
	c-0.3-0.3-0.9-0.3-1.2,0c-0.2,0.1-0.3,0.3-0.3,0.5s0.1,0.4,0.3,0.5l6.6,5.7c0.2,0.1,0.4,0.2,0.6,0.2c0.2,0,0.5-0.1,0.6-0.2l6.6-5.7
	C70.1,1007.9,70.1,1007.4,69.8,1007.1z"/>
<path fill-rule="evenodd" clip-rule="evenodd" fill="#1F1F20" d="M69.8,1000.2c-0.3-0.3-0.9-0.3-1.2,0l-6,5.2l-6-5.2
	c-0.3-0.3-0.9-0.3-1.2,0c-0.2,0.1-0.3,0.3-0.3,0.5s0.1,0.4,0.3,0.5l6.6,5.7c0.2,0.1,0.4,0.2,0.6,0.2c0.2,0,0.5-0.1,0.6-0.2l6.6-5.7
	C70.1,1001,70.1,1000.5,69.8,1000.2z"/>
<g>
	<g>
		<path fill="#535357" d="M69.4,810.9h-0.7c-0.2,0-0.4-0.2-0.5-0.4c-0.1-0.5-0.4-1-0.6-1.5c-0.1-0.2-0.1-0.4,0.1-0.6l0.5-0.5
			c0.2-0.2,0.2-0.6,0-0.8l-0.8-0.8c-0.2-0.2-0.6-0.2-0.8,0l-0.5,0.5c-0.1,0.1-0.4,0.2-0.6,0.1c-0.5-0.3-1-0.5-1.5-0.6
			c-0.2-0.1-0.4-0.3-0.4-0.5v-0.7c0-0.3-0.3-0.6-0.6-0.6h-1.1c-0.3,0-0.6,0.3-0.6,0.6v0.7c0,0.2-0.2,0.4-0.4,0.5
			c-0.5,0.1-1,0.4-1.5,0.6c-0.2,0.1-0.4,0.1-0.6-0.1l-0.5-0.5c-0.2-0.2-0.6-0.2-0.8,0l-0.8,0.8c-0.2,0.2-0.2,0.6,0,0.8l0.5,0.5
			c0.2,0.2,0.2,0.4,0.1,0.6c-0.3,0.5-0.5,1-0.6,1.5c-0.1,0.2-0.3,0.4-0.5,0.4h-0.7c-0.3,0-0.6,0.3-0.6,0.6v1.1
			c0,0.3,0.3,0.6,0.6,0.6h0.7c0.2,0,0.4,0.2,0.5,0.4c0.1,0.5,0.4,1,0.6,1.5c0.1,0.2,0.1,0.4-0.1,0.6l-0.5,0.5
			c-0.2,0.2-0.2,0.6,0,0.8l0.8,0.8c0.2,0.2,0.6,0.2,0.8,0l0.5-0.5c0.2-0.2,0.4-0.2,0.6-0.1c0.5,0.3,1,0.5,1.5,0.6
			c0.2,0.1,0.4,0.3,0.4,0.5v0.7c0,0.3,0.3,0.6,0.6,0.6H63c0.3,0,0.6-0.3,0.6-0.6v-0.7c0-0.2,0.2-0.4,0.4-0.5c0.5-0.1,1-0.4,1.5-0.6
			c0.2-0.1,0.4-0.1,0.6,0.1l0.5,0.5c0.2,0.2,0.6,0.2,0.8,0l0.8-0.8c0.2-0.2,0.2-0.6,0-0.8l-0.5-0.5c-0.2-0.2-0.2-0.4-0.1-0.6
			c0.3-0.5,0.5-1,0.6-1.5c0.1-0.2,0.3-0.4,0.5-0.4h0.7c0.3,0,0.6-0.3,0.6-0.6v-1.1C69.9,811.2,69.7,810.9,69.4,810.9z M62.4,815.7
			c-2,0-3.7-1.7-3.7-3.7c0-2,1.7-3.7,3.7-3.7s3.7,1.7,3.7,3.7C66.1,814.1,64.5,815.7,62.4,815.7z M62.6,852.2
			c0.2-0.2,0.3-0.4,0.3-0.7v-5c0-0.3-0.1-0.5-0.3-0.7c-0.2-0.2-0.4-0.3-0.7-0.3c-0.3,0-0.5,0.1-0.7,0.3c-0.2,0.2-0.3,0.4-0.3,0.7v5
			c0,0.3,0.1,0.5,0.3,0.7c0.2,0.2,0.4,0.3,0.7,0.3C62.2,852.5,62.4,852.4,62.6,852.2z M65.5,847.7c-0.2-0.2-0.5-0.2-0.7-0.2
			c-0.3,0-0.5,0.2-0.7,0.4c-0.2,0.2-0.2,0.5-0.2,0.7c0,0.3,0.2,0.5,0.4,0.7c0.5,0.4,0.9,0.9,1.2,1.4c0.3,0.6,0.4,1.2,0.4,1.8
			c0,0.5-0.1,1.1-0.3,1.6c-0.2,0.5-0.5,0.9-0.9,1.3c-0.4,0.4-0.8,0.6-1.3,0.9c-0.5,0.2-1,0.3-1.6,0.3c-0.5,0-1.1-0.1-1.6-0.3
			c-0.5-0.2-0.9-0.5-1.3-0.9c-0.4-0.4-0.6-0.8-0.9-1.3c-0.2-0.5-0.3-1-0.3-1.6c0-0.6,0.1-1.2,0.4-1.8c0.3-0.6,0.7-1,1.2-1.4
			c0.2-0.2,0.3-0.4,0.4-0.7c0-0.3,0-0.5-0.2-0.7c-0.2-0.2-0.4-0.4-0.7-0.4c-0.3,0-0.5,0-0.7,0.2c-0.8,0.6-1.4,1.3-1.8,2.1
			c-0.4,0.8-0.6,1.7-0.6,2.7c0,0.8,0.2,1.6,0.5,2.3c0.3,0.7,0.7,1.4,1.3,1.9c0.5,0.5,1.2,1,1.9,1.3c0.7,0.3,1.5,0.5,2.3,0.5
			c0.8,0,1.6-0.2,2.3-0.5c0.7-0.3,1.4-0.7,1.9-1.3s1-1.2,1.3-1.9c0.3-0.7,0.5-1.5,0.5-2.3c0-0.9-0.2-1.8-0.6-2.7
			C66.9,849,66.3,848.3,65.5,847.7z M67.4,883.6l-3.3-0.3c-0.2,0-0.4-0.2-0.5-0.4l-1.2-3c-0.2-0.5-0.9-0.5-1.1,0l-1.2,3
			c-0.1,0.2-0.3,0.3-0.5,0.4l-3.3,0.3c-0.5,0-0.7,0.7-0.3,1l2.5,2.3c0.2,0.1,0.2,0.4,0.2,0.6l-0.7,3.2c-0.1,0.5,0.4,0.9,0.8,0.7
			l2.8-1.7c0.2-0.1,0.4-0.1,0.6,0l2.8,1.7c0.4,0.3,1-0.1,0.8-0.7l-0.7-3.2c0-0.2,0-0.4,0.2-0.6l2.5-2.3
			C68.1,884.3,67.9,883.7,67.4,883.6z"/>
	</g>
</g>
<path fill="#535357" d="M62.4,344.2c2.2,0,4,1.7,4,3.9s-1.8,3.9-4,3.9c-2.2,0-4-1.7-4-3.9S60.2,344.2,62.4,344.2 M62.4,342.2
	c-3.3,0-6,2.6-6,5.9s2.7,5.9,6,5.9c3.3,0,6-2.6,6-5.9S65.7,342.2,62.4,342.2L62.4,342.2z"/>
<path fill="#535357" d="M62.4,382.8c2.2,0,4,1.7,4,3.9s-1.8,3.9-4,3.9c-2.2,0-4-1.7-4-3.9S60.2,382.8,62.4,382.8 M62.4,380.8
	c-3.3,0-6,2.6-6,5.9s2.7,5.9,6,5.9c3.3,0,6-2.6,6-5.9S65.7,380.8,62.4,380.8L62.4,380.8z"/>
<path fill="#535357" d="M62.4,421.4c2.2,0,4,1.7,4,3.9s-1.8,3.9-4,3.9c-2.2,0-4-1.7-4-3.9S60.2,421.4,62.4,421.4 M62.4,419.4
	c-3.3,0-6,2.6-6,5.9s2.7,5.9,6,5.9c3.3,0,6-2.6,6-5.9S65.7,419.4,62.4,419.4L62.4,419.4z"/>
<path fill="#535357" d="M62.4,460c2.2,0,4,1.7,4,3.9s-1.8,3.9-4,3.9c-2.2,0-4-1.7-4-3.9S60.2,460,62.4,460 M62.4,458
	c-3.3,0-6,2.6-6,5.9s2.7,5.9,6,5.9c3.3,0,6-2.6,6-5.9S65.7,458,62.4,458L62.4,458z"/>
<g>
	<ellipse fill-rule="evenodd" clip-rule="evenodd" fill="#FFFFFF" cx="62.4" cy="193.6" rx="5" ry="4.9"/>
	<path fill="#FFFFFF" d="M62.4,189.8c2.2,0,4,1.7,4,3.9s-1.8,3.9-4,3.9c-2.2,0-4-1.7-4-3.9S60.2,189.8,62.4,189.8 M62.4,187.8
		c-3.3,0-6,2.6-6,5.9s2.7,5.9,6,5.9c3.3,0,6-2.6,6-5.9S65.7,187.8,62.4,187.8L62.4,187.8z"/>
</g>
<path fill="#535357" d="M62.4,228.4c2.2,0,4,1.7,4,3.9s-1.8,3.9-4,3.9c-2.2,0-4-1.7-4-3.9S60.2,228.4,62.4,228.4 M62.4,226.4
	c-3.3,0-6,2.6-6,5.9c0,3.2,2.7,5.9,6,5.9c3.3,0,6-2.6,6-5.9C68.4,229,65.7,226.4,62.4,226.4L62.4,226.4z"/>
<path fill="#535357" d="M62.4,267c2.2,0,4,1.7,4,3.9s-1.8,3.9-4,3.9c-2.2,0-4-1.7-4-3.9S60.2,267,62.4,267 M62.4,265
	c-3.3,0-6,2.6-6,5.9s2.7,5.9,6,5.9c3.3,0,6-2.6,6-5.9S65.7,265,62.4,265L62.4,265z"/>
<path fill="#535357" d="M62.4,305.6c2.2,0,4,1.7,4,3.9s-1.8,3.9-4,3.9c-2.2,0-4-1.7-4-3.9S60.2,305.6,62.4,305.6 M62.4,303.6
	c-3.3,0-6,2.6-6,5.9s2.7,5.9,6,5.9c3.3,0,6-2.6,6-5.9S65.7,303.6,62.4,303.6L62.4,303.6z"/>
<path fill="#535357" d="M62.4,498.6c2.2,0,4,1.7,4,3.9s-1.8,3.9-4,3.9c-2.2,0-4-1.7-4-3.9S60.2,498.6,62.4,498.6 M62.4,496.6
	c-3.3,0-6,2.6-6,5.9s2.7,5.9,6,5.9c3.3,0,6-2.6,6-5.9S65.7,496.6,62.4,496.6L62.4,496.6z"/>
<path fill="#535357" d="M62.4,537.2c2.2,0,4,1.7,4,3.9s-1.8,3.9-4,3.9c-2.2,0-4-1.7-4-3.9S60.2,537.2,62.4,537.2 M62.4,535.2
	c-3.3,0-6,2.6-6,5.9s2.7,5.9,6,5.9c3.3,0,6-2.6,6-5.9S65.7,535.2,62.4,535.2L62.4,535.2z"/>
<path fill="#535357" d="M62.4,575.8c2.2,0,4,1.7,4,3.9c0,2.1-1.8,3.9-4,3.9c-2.2,0-4-1.7-4-3.9C58.5,577.5,60.2,575.8,62.4,575.8
	 M62.4,573.8c-3.3,0-6,2.6-6,5.9s2.7,5.9,6,5.9c3.3,0,6-2.6,6-5.9S65.7,573.8,62.4,573.8L62.4,573.8z"/>
<path fill="#535357" d="M62.4,614.4c2.2,0,4,1.7,4,3.9c0,2.1-1.8,3.9-4,3.9c-2.2,0-4-1.7-4-3.9C58.5,616.2,60.2,614.4,62.4,614.4
	 M62.4,612.4c-3.3,0-6,2.6-6,5.9c0,3.2,2.7,5.9,6,5.9c3.3,0,6-2.6,6-5.9C68.4,615,65.7,612.4,62.4,612.4L62.4,612.4z"/>
<path fill="#535357" d="M62.4,653c2.2,0,4,1.7,4,3.9c0,2.1-1.8,3.9-4,3.9c-2.2,0-4-1.7-4-3.9C58.5,654.8,60.2,653,62.4,653
	 M62.4,651c-3.3,0-6,2.6-6,5.9s2.7,5.9,6,5.9c3.3,0,6-2.6,6-5.9S65.7,651,62.4,651L62.4,651z"/>
<path fill="#535357" d="M62.4,691.6c2.2,0,4,1.7,4,3.9c0,2.1-1.8,3.9-4,3.9c-2.2,0-4-1.7-4-3.9C58.5,693.4,60.2,691.6,62.4,691.6
	 M62.4,689.6c-3.3,0-6,2.6-6,5.9s2.7,5.9,6,5.9c3.3,0,6-2.6,6-5.9S65.7,689.6,62.4,689.6L62.4,689.6z"/>
<path fill="#535357" d="M62.4,730.2c2.2,0,4,1.7,4,3.9c0,2.1-1.8,3.9-4,3.9c-2.2,0-4-1.7-4-3.9C58.5,732,60.2,730.2,62.4,730.2
	 M62.4,728.2c-3.3,0-6,2.6-6,5.9s2.7,5.9,6,5.9c3.3,0,6-2.6,6-5.9S65.7,728.2,62.4,728.2L62.4,728.2z"/>
<path fill="#535357" d="M62.4,768.8c2.2,0,4,1.7,4,3.9c0,2.1-1.8,3.9-4,3.9c-2.2,0-4-1.7-4-3.9C58.5,770.6,60.2,768.8,62.4,768.8
	 M62.4,766.8c-3.3,0-6,2.6-6,5.9s2.7,5.9,6,5.9c3.3,0,6-2.6,6-5.9S65.7,766.8,62.4,766.8L62.4,766.8z"/>
</svg>
