<?xml version="1.0" encoding="UTF-8" standalone="no"?>
<!DOCTYPE svg PUBLIC "-//W3C//DTD SVG 1.1//EN" "http://www.w3.org/Graphics/SVG/1.1/DTD/svg11.dtd">
<svg width="100%" height="100%" viewBox="0 0 567 79" version="1.1" xmlns="http://www.w3.org/2000/svg" xmlns:xlink="http://www.w3.org/1999/xlink" xml:space="preserve" xmlns:serif="http://www.serif.com/" style="fill-rule:evenodd;clip-rule:evenodd;stroke-linejoin:round;stroke-miterlimit:2;">
    <g>
        <path id="path100608" d="M347.884,70.38C347.884,71.21 347.202,71.958 346.363,71.958L317.262,71.958C316.414,71.958 315.734,71.21 315.734,70.38L315.734,49.358C315.734,48.526 316.416,47.862 317.262,47.862L346.363,47.862C347.203,47.862 347.884,48.526 347.884,49.358L347.884,70.38ZM346.621,41.546L316.999,41.546C312.712,41.546 309.213,45.036 309.213,49.359L309.213,70.464C309.213,74.7 312.712,78.277 316.999,78.277L346.621,78.277C350.918,78.277 354.408,74.703 354.408,70.464L354.408,49.358C354.408,45.036 350.917,41.546 346.621,41.546" style="fill:rgb(153,153,153);fill-rule:nonzero;"/>
        <path id="path100618" d="M6.797,9.97L6.797,37.143L0,37.143L0,0.414L5.808,0.414L33.337,27.17L33.337,0.414L40.043,0.414L40.043,37.143L34.732,37.143L6.797,9.97" style="fill:white;fill-rule:nonzero;"/>
        <path id="path100622" d="M74.943,9.97L74.943,37.143L68.146,37.143L68.146,0.414L73.946,0.414L101.475,27.17L101.475,0.414L108.189,0.414L108.189,37.143L102.879,37.143L74.943,9.97" style="fill:white;fill-rule:nonzero;"/>
        <path id="path100626" d="M216.179,9.97L216.179,37.143L209.382,37.143L209.382,0.414L215.182,0.414L242.711,27.17L242.711,0.414L249.425,0.414L249.425,37.143L244.124,37.143L216.179,9.97" style="fill:white;fill-rule:nonzero;"/>
        <path id="path100630" d="M56.23,0.414L57.485,0.414L57.485,37.143L50.688,37.143L50.688,0.414L56.23,0.414" style="fill:white;fill-rule:nonzero;"/>
        <path id="path100634" d="M154.482,0.414L155.728,0.414L155.728,6.729L139.342,6.729L139.342,37.142L132.279,37.142L132.279,6.729L115.893,6.729L115.893,0.414L154.482,0.414" style="fill:white;fill-rule:nonzero;"/>
        <path id="path100638" d="M198.023,0.414L199.294,0.414L199.294,6.729L170.16,6.729L170.16,14.955L192.696,14.955L192.696,21.271L170.16,21.271L170.16,30.826L199.294,30.826L199.294,37.141L163.431,37.141L163.431,0.412C163.821,0.414 198.023,0.414 198.023,0.414" style="fill:white;fill-rule:nonzero;"/>
        <path id="path100642" d="M287.216,30.827L266.343,30.827L266.343,6.731L287.217,6.731C293.748,6.731 296.068,13.211 296.068,18.78C296.066,24.262 293.749,30.827 287.216,30.827ZM298.369,5.817C295.71,2.244 291.779,0.416 287.025,0.416L259.787,0.416L259.787,37.145L287.025,37.145C291.779,37.145 295.71,35.234 298.369,31.744C300.861,28.504 302.182,24.016 302.182,18.782C302.181,13.543 300.861,9.057 298.369,5.817" style="fill:white;fill-rule:nonzero;"/>
        <path id="path100646" d="M347.884,29.331C347.884,30.079 347.202,30.827 346.363,30.827L317.262,30.827C316.414,30.827 315.734,30.079 315.734,29.331L315.734,8.226C315.734,7.395 316.416,6.73 317.262,6.73L346.363,6.73C347.203,6.73 347.884,7.395 347.884,8.226L347.884,29.331ZM346.621,0.414L316.999,0.414C312.712,0.414 309.213,3.904 309.213,8.226L309.213,29.331C309.213,33.652 312.712,37.143 316.999,37.143L346.621,37.143C350.918,37.143 354.408,33.653 354.408,29.331L354.408,8.226C354.408,3.906 350.917,0.414 346.621,0.414" style="fill:white;fill-rule:nonzero;"/>
        <path id="path100656" d="M470.017,62.737C477.062,65.561 491.945,67.803 503.562,67.803C516.275,67.803 521.535,63.483 521.535,57.998C521.535,53.012 516.648,50.187 502.615,45.035C483.844,38.139 470.074,32.655 470.074,20.273C470.074,7.56 486.644,-0.001 511.896,-0.001C525.457,-0.001 530.111,0.83 538.718,2.409L538.784,14.54C530.325,12.962 522.829,10.219 511.188,10.219C498.708,10.219 493.389,14.207 493.389,18.281C493.389,24.181 501.58,27.006 515.95,32.157C535.95,39.303 547.077,44.786 547.077,56.837C547.077,69.3 533.141,78.275 501.716,78.275C488.812,78.275 479.911,77.443 470.017,75.783L470.017,62.737" style="fill:white;fill-rule:nonzero;"/>
        <path id="path100660" d="M403.125,10.719L388.17,10.719L388.17,67.389L403.125,67.389C426.086,67.389 440.568,57.5 440.568,39.137C440.568,20.773 426.085,10.719 403.125,10.719ZM443.269,72.624C435.873,75.948 421.878,78.108 409.648,78.108L362.9,78.108L362.9,0.165L409.648,0.165C421.878,0.165 435.873,2.325 443.285,5.649C461.293,13.792 467.158,26.837 467.158,39.135C467.158,51.436 461.341,64.481 443.269,72.624" style="fill:white;fill-rule:nonzero;"/>
        <path id="path100678" d="M551.773,66.475L548.773,66.475L548.773,65.395L556.078,65.395L556.078,66.475L553.062,66.475L553.062,75.2L551.773,75.2L551.773,66.475" style="fill:white;fill-rule:nonzero;"/>
        <path id="path100682" d="M565.443,70.878C565.367,69.55 565.285,67.888 565.285,66.642L565.252,66.642C564.902,67.804 564.504,69.05 564.006,70.38L562.27,75.2L561.305,75.2L559.694,70.464C559.229,69.05 558.846,67.804 558.573,66.642L558.54,66.642C558.515,67.888 558.438,69.55 558.356,70.962L558.088,75.2L556.875,75.2L557.564,65.393L559.185,65.393L560.865,70.129C561.271,71.375 561.595,72.455 561.861,73.453L561.886,73.453C562.152,72.455 562.499,71.375 562.941,70.129L564.695,65.393L566.314,65.393L566.929,75.2L565.675,75.2L565.443,70.878" style="fill:white;fill-rule:nonzero;"/>
    </g>
</svg>
