<?xml version="1.0" encoding="UTF-8" standalone="no"?><!DOCTYPE svg PUBLIC "-//W3C//DTD SVG 1.1//EN" "http://www.w3.org/Graphics/SVG/1.1/DTD/svg11.dtd"><svg width="100%" height="100%" viewBox="0 0 2363 297" version="1.1" xmlns="http://www.w3.org/2000/svg" xmlns:xlink="http://www.w3.org/1999/xlink" xml:space="preserve" xmlns:serif="http://www.serif.com/" style="fill-rule:evenodd;clip-rule:evenodd;stroke-linejoin:round;stroke-miterlimit:2;"><g><path d="M0,0l125.417,0l0,43.713l-81.475,-0.001l0,53.03l81.475,0l0,45.1l-81.475,0l0,94.241l-43.942,0l0,-236.083Z" style="fill:#fff;fill-rule:nonzero;"/><path d="M268.054,236.083l-42.725,0l0,-36.754l-82.767,0l-24.52,36.754l-50.309,0l165.521,-236.083l34.796,0l0,236.083l0.004,0Zm-42.725,-81.358l0,-68.883l-50.554,68.883l50.554,0Z" style="fill:#fff;fill-rule:nonzero;"/><path d="M284.792,0l49.554,0l69.879,158.692l70.371,-158.692l50.054,0l0,236.083l-44.108,0l0,-119.021l-54.513,119.021l-44.604,0l-52.529,-119.021l0,119.021l-44.104,0l0,-236.083Z" style="fill:#fff;fill-rule:nonzero;"/><path d="M1347.05,0l49.558,0l69.875,158.692l70.371,-158.692l50.054,0l0,236.083l-44.108,0l0,-119.021l-54.513,119.021l-44.6,0l-52.537,-119.021l0,119.021l-44.1,0l0,-236.083Z" style="fill:#fff;fill-rule:nonzero;"/><rect x="538.563" y="0" width="45.65" height="236.083" style="fill:#fff;"/><path d="M596.783,0l45.646,0l0,193.046l59.479,0l0,43.037l-105.125,0l0,-236.083Z" style="fill:#fff;fill-rule:nonzero;"/><path d="M651.192,0l50.716,0l47.959,96.742l46.571,-96.742l50.258,0l-75.621,150.163l0,85.92l-44.262,0l0,-85.921l-75.621,-150.162Z" style="fill:#fff;fill-rule:nonzero;"/><path d="M1094.81,65.113c-20.051,-38.196 -60.092,-64.246 -106.221,-64.246c-66.213,0 -119.884,53.675 -119.884,119.883c0,66.208 53.675,119.888 119.884,119.888c46.458,0 86.745,-26.425 106.645,-65.067l-54.325,0.446c-13.391,12.35 -31.283,19.891 -50.937,19.891c-41.508,0 -75.158,-33.65 -75.158,-75.162c0,-41.513 33.65,-75.158 75.158,-75.158c19.375,0 37.042,7.333 50.371,19.37l54.466,0.155Z" style="fill:#fff;fill-rule:nonzero;"/><path d="M1213.44,241.263c-66.554,0 -120.513,-53.955 -120.513,-120.513c0,-66.558 53.958,-120.512 120.513,-120.512c66.558,0 120.512,53.954 120.512,120.512c0,66.558 -53.954,120.513 -120.512,120.513Zm76.708,-120.513c0,-42.108 -34.137,-76.246 -76.246,-76.246c-42.108,0 -76.25,34.138 -76.25,76.246c0,42.108 34.138,76.246 76.25,76.246c42.109,0 76.246,-34.138 76.246,-76.246Z" style="fill:#fff;fill-rule:nonzero;"/><path d="M1680.93,0.029c39.95,3.213 71.371,36.65 71.371,77.429c0,40.775 -31.421,74.217 -71.371,77.425l-34.504,-0.158l0,81.358l-44.267,0l0,-236.083l44.267,0l34.504,0.029Zm-34.504,45.408l0,64.034l34.508,-0.025c15.1,-2.821 26.529,-16.071 26.529,-31.988c0,-15.92 -11.429,-29.166 -26.529,-31.991l-34.508,-0.029Z" style="fill:#fff;fill-rule:nonzero;"/><path d="M2238.63,239.154l-43.804,0l0,-237.121l60.862,-0.087l34.505,0.029c39.95,3.213 71.37,36.65 71.37,77.429c0,33.317 -20.975,61.738 -50.445,72.767l51.087,86.983l-47.958,0l-71.583,-122.308l-4.038,0l0,122.308l0.004,0Zm51.571,-127.762c15.096,-2.821 26.529,-16.071 26.529,-31.988c0,-15.921 -11.433,-29.166 -26.529,-31.991l-51.571,0l0,64.012l51.571,-0.033Z" style="fill:#fff;fill-rule:nonzero;"/><path d="M1809.99,136.417l0.025,34.508c2.825,15.1 16.071,26.525 31.987,26.525c15.921,0 29.171,-11.425 31.996,-26.525l0.033,-34.508l0.104,-134.384l45.325,0l0,134.384l-0.029,34.508c-3.212,39.95 -36.65,71.367 -77.429,71.367c-40.775,0 -74.217,-31.417 -77.425,-71.367l0.158,-34.508l-0.075,-134.384l45.484,0l-0.154,134.384Z" style="fill:#fff;fill-rule:nonzero;"/><path d="M1964.74,239.154l44.725,0l0,-192.429l40.116,0l0,-44.692l-123.571,0l0,44.692l38.729,0l0,192.429Z" style="fill:#fff;fill-rule:nonzero;"/><path d="M2183.3,239.154l-122.883,0l0,-237.121l122.883,0l0,43.405l-78.85,0l0,56.308l78.85,0l0,44.267l-78.85,0l0,49.337l78.85,0l0,43.804Z" style="fill:#fff;fill-rule:nonzero;"/><path d="M0,273.538l0,22.966l2314.25,0l47.958,-22.966l-2362.2,0Z" style="fill:#fff;fill-rule:nonzero;"/></g></svg>