<?xml version="1.0" encoding="utf-8"?>
<!-- Generator: Adobe Illustrator 13.0.0, SVG Export Plug-In . SVG Version: 6.00 Build 14948)  -->
<!DOCTYPE svg PUBLIC "-//W3C//DTD SVG 1.1//EN" "http://www.w3.org/Graphics/SVG/1.1/DTD/svg11.dtd">
<svg version="1.1" xmlns="http://www.w3.org/2000/svg" xmlns:xlink="http://www.w3.org/1999/xlink" x="0px" y="0px"
	 width="566.929px" height="129.21px" viewBox="0 0 566.929 129.21" enable-background="new 0 0 566.929 129.21"
	 xml:space="preserve">
<g id="Layer_2">
	<g>
		<g>
			<path d="M288.25,73.605l6.785-15.589l-8.479-0.067l-4.37,10.112l-6.916-6.197c5.153-5.023,5.807-6.196,6.067-11.025
				c0.261-4.825-4.11-10.762-12.264-10.762s-11.415,6.719-11.415,11.156c0,4.435,2.414,7.174,5.415,10.044
				c-5.022,3.328-9.002,6.393-9.002,16.111c0,7.438,6.589,13.961,15.981,13.961c9.393,0,13.438-7.504,14.676-10.176
				c3.132,2.868,10.242,9.326,10.242,9.326l5.154-5.673L288.25,73.605z M269.466,47.773c1.978,0,4.044,1.131,4.044,3.589
				c0,2.869-3.979,5.217-3.979,5.217c-3.282-2.718-4.109-3.195-4.109-5.544C265.421,48.686,267.66,47.773,269.466,47.773z
				 M269.987,83.651c-3.131,0-8.349-0.913-8.349-6.72c0-5.805,2.217-7.076,7.371-10.438c0,0,8.153,7.373,9.915,8.872
				C276.446,82.345,273.119,83.651,269.987,83.651z"/>
		</g>
	</g>
	<g>
		<polygon points="121.232,90.125 155.065,39.247 163.414,39.247 163.414,74.382 187.071,39.333 195.595,39.333 195.595,90.125 
			187.071,90.125 187.071,54.988 163.414,90.299 154.978,90.299 154.978,54.815 131.496,90.125 		"/>
		<polygon points="202.901,90.212 202.901,39.333 229.08,39.333 229.08,47.944 211.512,47.944 211.512,60.903 229.08,60.903 
			229.08,69.6 211.423,69.6 211.423,81.602 228.992,81.602 228.992,90.212 		"/>
		<g>
			<g>
				<path d="M110.1,39.333L76.267,90.387h10.438l7.217-11.135h16.352v11.135h8.436V39.333H110.1z M110.187,70.47h-10.35
					l10.35-15.569V70.47z"/>
			</g>
		</g>
		<g>
			<g>
				<path d="M81.937,65.474h-26.63v8.3l17.268,0.078c-2.997,6.684-9.709,11.339-17.507,11.339c-10.592,0-19.178-8.587-19.178-19.18
					c0-10.591,8.586-19.177,19.178-19.177c6.578,0,12.38,3.312,15.835,8.356l8.769-0.008c-4.165-9.449-13.614-16.046-24.604-16.046
					c-14.842,0-26.875,12.033-26.875,26.875c0,14.844,12.033,26.875,26.875,26.875c14.842,0,26.875-12.031,26.875-26.875
					C81.943,65.832,81.94,65.652,81.937,65.474z"/>
			</g>
		</g>
		<rect x="55.307" y="65.424" fill="none" width="27.092" height="8.479"/>
		<rect x="61.96" y="55.25" fill="none" width="26.266" height="5.349"/>
	</g>
	<g>
		<g>
			<g>
				<path d="M401.653,37.884l-33.831,51.053h10.436l7.219-11.135h16.35v11.135h8.437V37.884H401.653z M401.74,69.019h-10.348
					l10.348-15.567V69.019z"/>
			</g>
		</g>
		<g>
			<g>
				<path d="M480.065,75.239c-3.382,3.919-8.384,6.397-13.965,6.397c-10.184,0-18.438-8.254-18.438-18.438
					c0-10.183,8.255-18.439,18.438-18.439c5.364,0,10.19,2.291,13.56,5.945l9.868-0.003c-4.483-8.45-13.371-14.203-23.602-14.203
					c-14.747,0-26.7,11.953-26.7,26.7c0,14.748,11.953,26.701,26.7,26.701c10.416,0,19.44-5.966,23.842-14.664L480.065,75.239z"/>
			</g>
		</g>
		<polygon points="320.943,38.063 320.943,89.03 329.726,89.03 352.949,54.241 352.949,88.942 361.82,88.942 395.391,38.149 
			384.868,38.149 361.733,73.288 361.733,38.236 353.036,38.236 329.726,73.374 329.726,38.063 		"/>
		<polygon points="413.309,37.978 441.485,37.978 441.485,46.586 431.659,46.586 431.659,88.769 422.96,88.769 422.96,46.674 
			413.221,46.674 		"/>
		<polygon points="492.192,38.063 492.192,89.032 500.802,89.032 500.802,67.375 516.544,67.375 516.544,88.857 525.33,88.857 
			525.33,38.149 516.72,38.149 516.72,58.676 500.802,58.676 500.802,38.149 		"/>
	</g>
</g>
<g id="Layer_3">
	<g>
		<g>
			<path d="M551.888,21.961H11.522c-4.734,0-8.573,3.838-8.573,8.573V96.88c0,4.735,3.838,8.573,8.573,8.573h540.366
				c4.734,0,8.572-3.838,8.572-8.573V30.534C560.46,25.8,556.623,21.961,551.888,21.961z M558.927,96.654
				c0,4.109-3.331,7.441-7.44,7.441H11.923c-4.109,0-7.441-3.332-7.441-7.441V30.761c0-4.109,3.332-7.441,7.441-7.441h539.564
				c4.109,0,7.44,3.332,7.44,7.441V96.654z"/>
		</g>
	</g>
</g>
</svg>
