<?xml version="1.0" encoding="UTF-8" standalone="no"?><!DOCTYPE svg PUBLIC "-//W3C//DTD SVG 1.1//EN" "http://www.w3.org/Graphics/SVG/1.1/DTD/svg11.dtd"><svg width="100%" height="100%" viewBox="0 0 595 595" version="1.1" xmlns="http://www.w3.org/2000/svg" xmlns:xlink="http://www.w3.org/1999/xlink" xml:space="preserve" xmlns:serif="http://www.serif.com/" style="fill-rule:evenodd;clip-rule:evenodd;stroke-linecap:round;stroke-linejoin:round;stroke-miterlimit:1.5;"><rect id="Artboard1" x="0" y="0" width="594.307" height="594.307" style="fill:none;"/><clipPath id="_clip1"><rect x="0" y="0" width="594.307" height="594.307"/></clipPath><g clip-path="url(#_clip1)"><path d="M297.765,2.939c162.853,0 295.07,132.217 295.07,295.07c0,162.854 -132.217,295.07 -295.07,295.07c-162.854,0 -295.07,-132.216 -295.07,-295.07c0,-162.853 132.216,-295.07 295.07,-295.07Zm163.206,340.769l0,-67.262l-163.206,117.209l-163.206,-117.209l0,67.262l161.652,113.879l3.108,0l161.652,-113.879Zm-164.76,-21.976l3.108,0l161.652,-113.879l0,-67.262l-163.206,117.209l-163.206,-117.209l0,67.262l161.652,113.879Z" style="fill:#fff;fill-opacity:0.3;stroke:#808080;stroke-width:4.17px;"/></g></svg>