<?xml version="1.0" encoding="UTF-8" standalone="no"?>
<!DOCTYPE svg PUBLIC "-//W3C//DTD SVG 1.1//EN" "http://www.w3.org/Graphics/SVG/1.1/DTD/svg11.dtd">
<svg width="100%" height="100%" viewBox="0 0 50 50" version="1.1" xmlns="http://www.w3.org/2000/svg" xmlns:xlink="http://www.w3.org/1999/xlink" xml:space="preserve" xmlns:serif="http://www.serif.com/" style="fill-rule:evenodd;clip-rule:evenodd;stroke-linecap:round;stroke-linejoin:round;stroke-miterlimit:1.5;">
    <g transform="matrix(0.0148082,0,0,0.0148082,-35.6142,-77.3643)">
        <path d="M4081.44,5277.59C4986.44,5277.59 5721.19,6012.33 5721.19,6917.33C5721.19,7822.33 4986.44,8557.08 4081.44,8557.08C3176.44,8557.08 2441.7,7822.33 2441.7,6917.33C2441.7,6012.33 3176.44,5277.59 4081.44,5277.59ZM4988.4,7171.29L4988.4,6797.5L4081.44,7448.85L3174.48,6797.5L3174.48,7171.29L4072.8,7804.13L4090.08,7804.13L4988.4,7171.29ZM4072.8,7049.16L4090.08,7049.16L4988.4,6416.32L4988.4,6042.53L4081.44,6693.88L3174.48,6042.53L3174.48,6416.32L4072.8,7049.16Z" style="fill:white;fill-opacity:0.3;stroke:rgb(128,128,128);stroke-width:23.15px;"/>
    </g>
</svg>
