<?xml version="1.0" encoding="utf-8"?>
<!-- Generator: Adobe Illustrator 24.0.3, SVG Export Plug-In . SVG Version: 6.00 Build 0)  -->
<svg version="1.0" id="Capa_1" xmlns="http://www.w3.org/2000/svg" xmlns:xlink="http://www.w3.org/1999/xlink" x="0px" y="0px"
	 width="150px" height="50px" viewBox="0 0 150 50" enable-background="new 0 0 150 50" xml:space="preserve">
<g>
	<path fill="#FFFFFF" d="M22.8,13.1l-3.7,23.1h3.3L23,32h4.5l0.6,4.2h3.7l-3.7-23.1H22.8z M23.5,28.9l1.7-11.7L27,28.9H23.5z"/>
	<path fill="#FFFFFF" d="M125,0H25C11.2,0,0,11.2,0,25s11.2,25,25,25h100c13.8,0,25-11.2,25-25S138.8,0,125,0z M25.9,46.8
		C13.8,46.8,4.1,37,4.1,25S13.8,3.2,25.9,3.2c12,0,21.8,9.8,21.8,21.8S37.9,46.8,25.9,46.8z M75.1,16.4h-6.3v6.4h5v3.3h-5v6.8h6.3
		v3.3h-9.9V13.1h9.9V16.4z M88.8,36.2h-3.7l-4.5-16.7v16.7h-3.3V13.1h4.6l3.7,13.8V13.1h3.2C88.8,13.1,88.8,36.2,88.8,36.2z
		 M101.6,16.4h-3.8v19.8h-3.6V16.4h-3.8v-3.3h11.2L101.6,16.4L101.6,16.4z M113.1,16.4h-6.3v6.4h5v3.3h-5v6.8h6.3v3.3h-9.9V13.1h9.9
		V16.4z M122.9,36.2c-0.2-0.6-0.3-1-0.3-2.8v-3.6c0-2.1-0.7-2.9-2.4-2.9h-1.3v9.4h-3.6V13.1h5.5c3.8,0,5.4,1.7,5.4,5.3v1.8
		c0,2.4-0.8,3.9-2.4,4.7c1.8,0.8,2.4,2.5,2.4,4.9v3.6c0,1.1,0,1.9,0.4,2.8H122.9z"/>
	<path fill="#FFFFFF" d="M120.7,16.4H119v7.1h1.4c1.4,0,2.2-0.6,2.2-2.4v-2.3C122.6,17.1,122,16.4,120.7,16.4z"/>
</g>
</svg>
