<?xml version="1.0" encoding="UTF-8" standalone="no"?>
<!-- Generator: Adobe Illustrator 24.0.3, SVG Export Plug-In . SVG Version: 6.00 Build 0)  -->

<svg
   version="1.0"
   id="Capa_1"
   x="0px"
   y="0px"
   width="161.51562"
   height="50"
   viewBox="0 0 161.51562 50"
   enable-background="new 0 0 150 50"
   xml:space="preserve"
   sodipodi:docname="button_return.svg"
   inkscape:version="1.1 (c4e8f9ed74, 2021-05-24)"
   xmlns:inkscape="http://www.inkscape.org/namespaces/inkscape"
   xmlns:sodipodi="http://sodipodi.sourceforge.net/DTD/sodipodi-0.dtd"
   xmlns="http://www.w3.org/2000/svg"
   xmlns:svg="http://www.w3.org/2000/svg"><defs
   id="defs13">
	
	
	
</defs><sodipodi:namedview
   id="namedview11"
   pagecolor="#aacece"
   bordercolor="#666666"
   borderopacity="1.0"
   inkscape:pageshadow="2"
   inkscape:pageopacity="0"
   inkscape:pagecheckerboard="true"
   showgrid="false"
   inkscape:zoom="4"
   inkscape:cx="77.75"
   inkscape:cy="37.5"
   inkscape:window-width="1252"
   inkscape:window-height="657"
   inkscape:window-x="14"
   inkscape:window-y="49"
   inkscape:window-maximized="1"
   inkscape:current-layer="g12"
   fit-margin-top="0"
   fit-margin-left="0"
   fit-margin-right="0"
   fit-margin-bottom="0" />
<g
   id="g12310"><g
     id="g12"><g
       id="g46"><path
         id="path4"
         style="fill:#ffffff;fill-opacity:1"
         d="M 25 0 C 11.2 0 0 11.2 0 25 C 0 38.8 11.2 50 25 50 L 136.51562 50 C 150.31563 50 161.51562 38.8 161.51562 25 C 161.51562 11.2 150.31563 0 136.51562 0 L 25 0 z M 25.900391 3.1992188 C 37.900391 3.1992188 47.699219 13 47.699219 25 C 47.699219 37 37.900391 46.800781 25.900391 46.800781 C 13.800391 46.800781 4.0996094 37 4.0996094 25 C 4.0996094 13 13.800391 3.1992187 25.900391 3.1992188 z M 65.402344 13.261719 L 70.714844 13.261719 C 74.362844 13.261719 75.931641 14.958063 75.931641 18.414062 L 75.931641 20.173828 C 75.931641 22.477828 75.194953 23.98275 73.626953 24.71875 C 75.386953 25.45475 75.962891 27.150328 75.962891 29.486328 L 75.962891 32.943359 C 75.962891 34.031359 75.995656 34.830109 76.347656 35.662109 L 72.763672 35.662109 C 72.571672 35.086109 72.443359 34.734156 72.443359 32.910156 L 72.443359 29.390625 C 72.443359 27.310625 71.738672 26.542969 70.138672 26.542969 L 68.923828 26.542969 L 68.923828 35.662109 L 65.402344 35.662109 L 65.402344 13.261719 z M 78.267578 13.261719 L 87.867188 13.261719 L 87.867188 16.462891 L 81.787109 16.462891 L 81.787109 22.703125 L 86.619141 22.703125 L 86.619141 25.902344 L 81.787109 25.902344 L 81.787109 32.462891 L 87.867188 32.462891 L 87.867188 35.662109 L 78.267578 35.662109 L 78.267578 13.261719 z M 89.019531 13.261719 L 99.898438 13.261719 L 99.898438 16.462891 L 96.21875 16.462891 L 96.21875 35.662109 L 92.699219 35.662109 L 92.699219 16.462891 L 89.019531 16.462891 L 89.019531 13.261719 z M 101.27539 13.261719 L 104.79492 13.261719 L 104.79492 30.542969 C 104.79492 32.142969 105.49914 32.71875 106.61914 32.71875 C 107.73914 32.71875 108.44336 32.142969 108.44336 30.542969 L 108.44336 13.261719 L 111.77148 13.261719 L 111.77148 30.318359 C 111.77148 33.902359 109.97944 35.951172 106.52344 35.951172 C 103.06744 35.951172 101.27539 33.902359 101.27539 30.318359 L 101.27539 13.261719 z M 114.17188 13.261719 L 119.48242 13.261719 C 123.13042 13.261719 124.69922 14.958063 124.69922 18.414062 L 124.69922 20.173828 C 124.69922 22.477828 123.96253 23.98275 122.39453 24.71875 C 124.15453 25.45475 124.73047 27.150328 124.73047 29.486328 L 124.73047 32.943359 C 124.73047 34.031359 124.76323 34.830109 125.11523 35.662109 L 121.53125 35.662109 C 121.33925 35.086109 121.21094 34.734156 121.21094 32.910156 L 121.21094 29.390625 C 121.21094 27.310625 120.50625 26.542969 118.90625 26.542969 L 117.69141 26.542969 L 117.69141 35.662109 L 114.17188 35.662109 L 114.17188 13.261719 z M 127.00391 13.261719 L 131.41992 13.261719 L 135.03516 26.669922 L 135.03516 13.261719 L 138.17188 13.261719 L 138.17188 35.662109 L 134.55469 35.662109 L 130.17188 19.4375 L 130.17188 35.662109 L 127.00391 35.662109 L 127.00391 13.261719 z M 68.923828 16.462891 L 68.923828 23.341797 L 70.298828 23.341797 C 71.610828 23.341797 72.412109 22.766609 72.412109 20.974609 L 72.412109 18.765625 C 72.412109 17.165625 71.867141 16.462891 70.619141 16.462891 L 68.923828 16.462891 z M 117.69141 16.462891 L 117.69141 23.341797 L 119.06641 23.341797 C 120.37841 23.341797 121.17969 22.766609 121.17969 20.974609 L 121.17969 18.765625 C 121.17969 17.165625 120.63472 16.462891 119.38672 16.462891 L 117.69141 16.462891 z " /><g
         aria-label="B"
         id="text15268"
         style="font-size:32px;line-height:1.25;word-spacing:0px;fill:#ffffff"><path
           d="m 25.767938,13.736246 h -5.312 v 22.4 h 5.536 c 3.52,0 5.344,-1.856 5.344,-5.312 v -1.824 c 0,-2.368 -0.736,-4.064 -2.624,-4.8 1.568,-0.736 2.272,-2.208 2.272,-4.512 v -0.8 c 0,-3.456 -1.568,-5.152 -5.216,-5.152 z m -0.224,12.32 c 1.6,0 2.272,0.64 2.272,2.72 v 1.952 c 0,1.664 -0.64,2.208 -1.824,2.208 h -2.016 v -6.88 z m 0.128,-9.12 c 1.248,0 1.792,0.704 1.792,2.304 v 1.248 c 0,1.792 -0.8,2.368 -2.112,2.368 h -1.376 v -5.92 z"
           style="font-family:'Bebas Neue';-inkscape-font-specification:'Bebas Neue'"
           id="path22" /></g></g></g></g>
</svg>
