<?xml version="1.0" encoding="UTF-8" standalone="no"?>
<!-- Generator: Adobe Illustrator 24.0.3, SVG Export Plug-In . SVG Version: 6.00 Build 0)  -->

<svg
   version="1.0"
   id="Capa_1"
   x="0px"
   y="0px"
   width="172.90234"
   height="50"
   viewBox="0 0 172.90234 50"
   enable-background="new 0 0 150 50"
   xml:space="preserve"
   sodipodi:docname="button_favorite.svg"
   inkscape:version="1.1 (c4e8f9ed74, 2021-05-24)"
   xmlns:inkscape="http://www.inkscape.org/namespaces/inkscape"
   xmlns:sodipodi="http://sodipodi.sourceforge.net/DTD/sodipodi-0.dtd"
   xmlns="http://www.w3.org/2000/svg"
   xmlns:svg="http://www.w3.org/2000/svg"><defs
   id="defs13">
	
	
	
</defs><sodipodi:namedview
   id="namedview11"
   pagecolor="#aacece"
   bordercolor="#666666"
   borderopacity="1.0"
   inkscape:pageshadow="2"
   inkscape:pageopacity="0"
   inkscape:pagecheckerboard="true"
   showgrid="false"
   inkscape:zoom="4"
   inkscape:cx="114.75"
   inkscape:cy="37.5"
   inkscape:window-width="1252"
   inkscape:window-height="657"
   inkscape:window-x="14"
   inkscape:window-y="49"
   inkscape:window-maximized="1"
   inkscape:current-layer="g12310"
   fit-margin-top="0"
   fit-margin-left="0"
   fit-margin-right="0"
   fit-margin-bottom="0" />
<g
   id="g12310"><g
     id="g33"><path
       id="path4"
       style="fill:#ffffff;fill-opacity:1"
       d="M 25,0 C 11.2,0 0,11.2 0,25 0,38.8 11.2,50 25,50 h 122.90234 c 13.80001,0 25,-11.2 25,-25 0,-13.8 -11.19999,-25 -25,-25 z m 0.900391,3.1992188 c 12,0 21.798828,9.8007812 21.798828,21.8007812 0,12 -9.798828,21.800781 -21.798828,21.800781 C 13.800391,46.800781 4.0996094,37 4.0996094,25 c 0,-12 9.7007816,-21.8007813 21.8007816,-21.8007812 z m 80.527339,9.8613282 c 3.456,0 5.34375,2.048812 5.34375,5.632812 v 11.648438 c 0,3.584 -1.88775,5.630859 -5.34375,5.630859 -3.456,0 -5.34375,-2.046859 -5.34375,-5.630859 V 18.693359 c 0,-3.584 1.88775,-5.632812 5.34375,-5.632812 z m -40.703121,0.257812 h 9.3125 v 3.199219 h -5.792968 v 6.751953 h 4.544921 v 3.199219 h -4.544921 v 9.248047 h -3.519532 z m 13.248047,0 H 84.125 l 3.583984,22.398438 H 84.15625 l -0.607422,-4.0625 h -4.320312 l -0.607422,4.0625 h -3.232422 z m 8.640625,0 h 3.550781 l 2.6875,18.271485 2.689454,-18.271485 h 3.232422 l -3.457032,22.398438 h -5.248047 z m 26.431639,0 h 5.31055 c 3.648,0 5.2168,1.694391 5.2168,5.150391 v 1.759766 c 0,2.304 -0.73669,3.808921 -2.30469,4.544922 1.76,0.736 2.33594,2.431578 2.33594,4.767578 v 3.457031 c 0,1.088 0.0328,1.88675 0.38476,2.71875 h -3.58398 c -0.192,-0.576 -0.32032,-0.927953 -0.32032,-2.751953 v -3.519532 c 0,-2.08 -0.70273,-2.847656 -2.30273,-2.847656 h -1.2168 v 9.119141 h -3.51953 z m 12.86328,0 h 3.51953 v 22.398438 h -3.51953 z m 5.05664,0 h 10.87891 v 3.199219 h -3.67969 v 19.199219 h -3.51953 V 16.517578 h -3.67969 z m 12.41602,0 h 9.59961 v 3.199219 h -6.08008 v 6.240234 h 4.83203 v 3.199219 h -4.83203 v 6.560547 h 6.08008 v 3.199219 h -9.59961 z m -37.95313,2.94336 c -1.12,0 -1.82421,0.607031 -1.82421,2.207031 v 12.095703 c 0,1.6 0.70421,2.208985 1.82421,2.208985 1.12,0 1.82422,-0.608985 1.82422,-2.208985 V 18.46875 c 0,-1.6 -0.70422,-2.207031 -1.82422,-2.207031 z m 11.13672,0.255859 v 6.878906 h 1.375 c 1.312,0 2.11328,-0.575187 2.11328,-2.367187 v -2.207031 c 0,-1.6 -0.54496,-2.304688 -1.79296,-2.304688 z m -36.191403,0.767578 -1.697266,11.328125 h 3.392578 z" /><g
       aria-label="X"
       id="text15268"
       style="font-size:32px;line-height:1.25;word-spacing:0px;fill:#ffffff"><path
         d="m 28.685938,13.736246 -2.72,8.256 -2.656,-8.256 h -3.648 l 3.68,10.88 -3.936,11.52 h 3.296 l 2.912,-8.864 2.88,8.864 h 3.712 l -3.936,-11.52 3.68,-10.88 z"
         style="font-family:'Bebas Neue';-inkscape-font-specification:'Bebas Neue'"
         id="path9" /></g></g></g>
</svg>
