<?xml version="1.0" encoding="UTF-8" standalone="no"?>
<!DOCTYPE svg PUBLIC "-//W3C//DTD SVG 1.1//EN" "http://www.w3.org/Graphics/SVG/1.1/DTD/svg11.dtd">
<svg width="100%" height="100%" viewBox="0 0 150 50" version="1.1" xmlns="http://www.w3.org/2000/svg" xmlns:xlink="http://www.w3.org/1999/xlink" xml:space="preserve" xmlns:serif="http://www.serif.com/" style="fill-rule:evenodd;clip-rule:evenodd;stroke-miterlimit:6;">
    <g transform="matrix(0.991513,0.0004931,-0.000484275,0.973767,0.665478,0.708538)">
        <path d="M22.8,13.1L19.1,36.2L22.4,36.2L23,32L27.5,32L28.1,36.2L31.8,36.2L28.1,13.1L22.8,13.1ZM23.5,28.9L25.2,17.2L27,28.9L23.5,28.9Z" style="fill:white;fill-opacity:0.2;fill-rule:nonzero;stroke:rgb(128,128,128);stroke-opacity:0.3;stroke-width:0.51px;"/>
        <g transform="matrix(1,0,0,1.00108,3.55271e-15,-0.0539411)">
            <path d="M125,0L25,0C11.2,0 0,11.2 0,25C0,38.8 11.2,50 25,50L125,50C138.8,50 150,38.8 150,25C150,11.2 138.8,0 125,0ZM25.9,46.8C13.8,46.8 4.1,37 4.1,25C4.1,13 13.8,3.2 25.9,3.2C37.9,3.2 47.7,13 47.7,25C47.7,37 37.9,46.8 25.9,46.8ZM75.1,16.4L68.8,16.4L68.8,22.8L73.8,22.8L73.8,26.1L68.8,26.1L68.8,32.9L75.1,32.9L75.1,36.2L65.2,36.2L65.2,13.1L75.1,13.1L75.1,16.4ZM88.8,36.2L85.1,36.2L80.6,19.5L80.6,36.2L77.3,36.2L77.3,13.1L81.9,13.1L85.6,26.9L85.6,13.1L88.8,13.1L88.8,36.2ZM101.6,16.4L97.8,16.4L97.8,36.2L94.2,36.2L94.2,16.4L90.4,16.4L90.4,13.1L101.6,13.1L101.6,16.4ZM113.1,16.4L106.8,16.4L106.8,22.8L111.8,22.8L111.8,26.1L106.8,26.1L106.8,32.9L113.1,32.9L113.1,36.2L103.2,36.2L103.2,13.1L113.1,13.1L113.1,16.4ZM122.9,36.2C122.7,35.6 122.6,35.2 122.6,33.4L122.6,29.8C122.6,27.7 121.9,26.9 120.2,26.9L118.9,26.9L118.9,36.3L115.3,36.3L115.3,13.1L120.8,13.1C124.6,13.1 126.2,14.8 126.2,18.4L126.2,20.2C126.2,22.6 125.4,24.1 123.8,24.9C125.6,25.7 126.2,27.4 126.2,29.8L126.2,33.4C126.2,34.5 126.2,35.3 126.6,36.2L122.9,36.2Z" style="fill:white;fill-opacity:0.2;fill-rule:nonzero;stroke:rgb(127,127,127);stroke-opacity:0.3;stroke-width:0.51px;stroke-miterlimit:8;"/>
        </g>
        <path d="M120.7,16.4L119,16.4L119,23.5L120.4,23.5C121.8,23.5 122.6,22.9 122.6,21.1L122.6,18.8C122.6,17.1 122,16.4 120.7,16.4Z" style="fill:white;fill-opacity:0.2;fill-rule:nonzero;stroke:rgb(128,128,128);stroke-opacity:0.3;stroke-width:0.51px;stroke-miterlimit:8;"/>
    </g>
</svg>
