<?xml version="1.0" encoding="UTF-8" standalone="no"?>
<!-- Created with Inkscape (http://www.inkscape.org/) -->

<svg
   xmlns:dc="http://purl.org/dc/elements/1.1/"
   xmlns:cc="http://creativecommons.org/ns#"
   xmlns:rdf="http://www.w3.org/1999/02/22-rdf-syntax-ns#"
   xmlns:svg="http://www.w3.org/2000/svg"
   xmlns="http://www.w3.org/2000/svg"
   xmlns:sodipodi="http://sodipodi.sourceforge.net/DTD/sodipodi-0.dtd"
   xmlns:inkscape="http://www.inkscape.org/namespaces/inkscape"
   id="svg4136"
   version="1.1"
   inkscape:version="0.91 r13725"
   width="576"
   height="324"
   viewBox="0 0 576 324"
   sodipodi:docname="finalburn.svg">
  <metadata
     id="metadata4142">
    <rdf:RDF>
      <cc:Work
         rdf:about="">
        <dc:format>image/svg+xml</dc:format>
        <dc:type
           rdf:resource="http://purl.org/dc/dcmitype/StillImage" />
        <dc:title></dc:title>
      </cc:Work>
    </rdf:RDF>
  </metadata>
  <defs
     id="defs4140" />
  <sodipodi:namedview
     pagecolor="#ffffff"
     bordercolor="#666666"
     borderopacity="1"
     objecttolerance="10"
     gridtolerance="10"
     guidetolerance="10"
     inkscape:pageopacity="0"
     inkscape:pageshadow="2"
     inkscape:window-width="1920"
     inkscape:window-height="1178"
     id="namedview4138"
     showgrid="false"
     inkscape:zoom="2.5920139"
     inkscape:cx="288"
     inkscape:cy="162"
     inkscape:window-x="-8"
     inkscape:window-y="-8"
     inkscape:window-maximized="1"
     inkscape:current-layer="svg4136" />
  <path
     style="fill:#000000;fill-opacity:0"
     d="m -2.250503e-8,162.3858 0,-161.99999963 L 288,0.38580037 l 288,0 0,161.99999963 0,162 -288,0 -288.000000022505048,0 0,-162 z M 303.51969,279.3108 c 2.80149,-3.17625 10.51332,-11.90844 17.13741,-19.40487 l 12.0438,-13.62988 -0.0754,-98.57012 -0.0755,-98.57013 -1.11942,-0.276546 c -0.92421,-0.228324 -1.22679,-0.17937 -1.73523,0.280755 -0.60108,0.543975 -0.66639,0.541017 -2.7303,-0.12372 -1.16298,-0.374562 -2.17176,-0.623787 -2.24169,-0.553836 -0.07,0.06995 0.69012,0.374652 1.68906,0.677106 0.99894,0.302454 1.86411,0.62784 1.92264,0.723078 0.0585,0.09524 -2.99757,2.265546 -6.79125,4.822902 -3.79371,2.557356 -6.98946,4.813812 -7.10169,5.014347 -0.14892,0.266118 -2.06637,-0.233547 -7.09809,-1.849677 -26.08313,-8.377614 -34.40934,-10.999098 -34.53515,-10.873287 -0.0789,0.07895 2.058,0.842265 4.74879,1.69626 5.85402,1.857939 19.71197,6.29247 30.99233,9.917514 2.475,0.795363 4.80375,1.533735 5.175,1.640826 0.67029,0.193347 0.86862,0.88557 0.44463,1.551879 -0.15771,0.247842 -1.77066,-0.15342 -5.62041,-1.398198 -2.96958,-0.960186 -8.43672,-2.715447 -12.14922,-3.900576 -3.7125,-1.185129 -8.9775,-2.87586 -11.7,-3.757179 -11.11136,-3.59694 -41.92745,-13.42893 -42.975,-13.711341 -0.96919,-0.261285 -1.125,-0.422886 -1.125,-1.166799 0,-0.47493 0.10567,-0.863508 0.23483,-0.863508 0.12916,0 7.18291,2.226303 15.675,4.947342 8.49209,2.721039 15.57517,4.941582 15.74017,4.934541 0.4709,-0.0201 -1.44558,-0.717633 -6,-2.183817 -10.05423,-3.236712 -23.16686,-7.382712 -23.92784,-7.565589 -1.692,-0.406623 -2.2316,0.05656 7.81486,-6.708069 4.86965,-3.278896 5.59156,-3.673692 6.4161,-3.508784 0.78492,0.156984 13.54451,4.171283 15.84688,4.985594 3.12797,1.10631 12.3723,3.926478 12.48882,3.809964 0.0799,-0.07989 -1.38117,-0.632478 -3.24679,-1.227975 -1.86562,-0.5955 -8.35328,-2.662047 -14.41703,-4.592329 -10.94357,-3.483684 -11.025,-3.515641 -11.025,-4.326975 0,-0.67081 -0.19157,-0.880595 -1.06837,-1.169964 -1.06276,-0.350745 -1.0946,-0.334874 -6.075,3.028508 -6.39902,4.321418 -10.64251,7.221212 -10.94225,7.477406 -0.12959,0.110763 -0.77489,4.307361 -1.434,9.325767 -0.6591,5.018409 -1.3283,9.93438 -1.48711,10.92438 -0.43531,2.713767 -0.41666,2.787729 0.78705,3.12009 0.94258,0.260256 1.22851,0.200223 2.24257,-0.470847 0.63924,-0.423027 1.36809,-0.69015 1.61968,-0.593607 0.59717,0.229155 0.60242,2.410695 0.0162,6.70905 -0.80576,5.907585 -4.31445,32.110338 -6.45897,48.235314 -2.52346,18.9743 -2.53223,19.03199 -3.44141,22.65 -1.57472,6.2665 -4.0128,11.47358 -8.15682,17.42076 -1.4292,2.05108 -3.48341,5.01174 -4.56491,6.57924 -1.0815,1.5675 -2.47717,3.58113 -3.10149,4.47473 L 213,164.88527 l 0,11.327 0,11.327 1.10964,0.36621 c 1.0682,0.35254 1.13904,0.331 1.89685,-0.57673 0.85732,-1.02693 1.22106,-1.11129 2.64755,-0.61402 l 0.94358,0.32893 0.0762,36.48485 0.0762,36.48485 1.01827,0.29203 c 0.98286,0.28187 1.06633,0.23771 2.4,-1.26973 0.75995,-0.85897 1.52978,-1.55908 1.71073,-1.55581 0.3575,0.006 8.10032,2.45211 30.871,9.75089 8.085,2.59152 20.47125,6.55046 27.525,8.79765 l 12.825,4.08579 0,2.05029 c 0,2.02622 0.0114,2.05527 0.975,2.47407 0.53625,0.23308 1.05961,0.42906 1.16303,0.43552 0.10341,0.006 2.48014,-2.58701 5.28166,-5.76326 z m -6.7512,4.65 c -0.13894,-0.28875 -0.23243,-16.185 -0.20777,-35.325 0.0422,-32.77721 -0.0291,-37.28939 -0.61149,-38.65543 -0.37504,-0.87975 0.71638,-0.50651 1.46898,0.50236 l 0.63179,0.84693 0.0797,36.57807 c 0.079,36.28424 0.0749,36.57807 -0.51445,36.57807 -0.32676,0 -0.7078,-0.23625 -0.84674,-0.525 z m 1.70869,-35.825 c -0.0245,-38.66439 0.0115,-37.7539 -1.52341,-38.62113 -1.04859,-0.59246 -2.14582,-0.23291 -3.7215,1.21951 l -1.33227,1.22804 0,-10.94667 0,-10.94665 1.425,-2.07983 c 1.41136,-2.05991 4.01028,-5.78305 7.97898,-11.43048 3.59742,-5.11909 6.90471,-12.73216 8.11356,-18.67676 0.25209,-1.23968 1.14312,-7.38218 1.98012,-13.65 0.83697,-6.26782 1.99356,-14.90603 2.57025,-19.19603 0.57666,-4.29 1.17282,-8.745 1.3248,-9.9 0.15198,-1.155 0.48144,-3.65996 0.73212,-5.56657 0.25071,-1.90662 1.06767,-8.03143 1.81551,-13.610706 1.47108,-10.975493 1.59702,-12.943493 0.91296,-14.266361 -0.71094,-1.374801 -1.46946,-1.413375 -3.34218,-0.169968 l -1.64349,1.091226 0.16461,-0.988812 c 0.19896,-1.195338 0.7983,-5.632935 1.97412,-14.617293 0.48435,-3.700665 0.98478,-6.817209 1.11213,-6.92565 0.12732,-0.108444 2.12151,-1.45845 4.43151,-3.000012 2.31,-1.541562 5.64597,-3.791268 7.41327,-4.999347 1.7673,-1.208079 3.28605,-2.196507 3.375,-2.196507 0.089,0 0.16173,8.850468 0.16173,19.667706 0,13.035408 -0.10116,19.60518 -0.3,19.482294 -0.165,-0.101976 -0.3,0.03302 -0.3,0.3 0,0.266976 0.135,0.401976 0.3,0.3 0.19833,-0.12258 0.3,4.488552 0.3,13.60729 0,10.74084 -0.083,13.83143 -0.375,13.96771 -0.3,0.14 -0.3,0.21 0,0.35 0.29199,0.13627 0.375,3.21833 0.375,13.925 0,10.70667 -0.083,13.78873 -0.375,13.925 -0.3,0.14 -0.3,0.21 0,0.35 0.29199,0.13627 0.375,3.21833 0.375,13.925 0,10.70667 -0.083,13.78873 -0.375,13.925 -0.3,0.14 -0.3,0.21 0,0.35 0.29202,0.13628 0.375,3.22687 0.375,13.9677 0,9.11875 -0.10167,13.72988 -0.3,13.6073 -0.165,-0.10198 -0.3,-0.0424 -0.3,0.13229 0,0.17474 0.135,0.31771 0.3,0.31771 0.19569,0 0.3,4.8559 0.3,13.96771 0,9.23541 -0.10164,13.90488 -0.3,13.78229 -0.165,-0.10198 -0.3,-0.0424 -0.3,0.13229 0,0.17474 0.135,0.31771 0.3,0.31771 0.19278,0 0.29616,2.86784 0.28926,8.025 l -0.0108,8.025 -4.11426,4.66773 c -2.26284,2.56725 -7.62426,8.63391 -11.91426,13.48146 -4.29,4.84756 -9.94752,11.25208 -12.57222,14.23227 -2.62473,2.9802 -4.88599,5.46354 -5.02501,5.51854 -0.13902,0.055 -0.26304,-16.145 -0.27559,-36 z M 292.35,278.63343 c -2.51242,-0.83339 -33.03703,-10.63684 -45.3,-14.54879 -1.98,-0.63163 -5.5575,-1.7783 -7.95,-2.54814 -2.3925,-0.76985 -6.94875,-2.22109 -10.125,-3.22499 -3.702,-1.17006 -5.775,-1.96893 -5.775,-2.22549 0,-0.22012 0.035,-0.40022 0.0778,-0.40022 0.0428,0 1.69652,0.52287 3.675,1.16193 1.97848,0.63907 6.43224,2.06492 9.89724,3.16856 3.465,1.10365 8.325,2.66446 10.8,3.46847 2.475,0.80402 9.225,2.96581 15,4.80399 31.36399,9.98315 33.23497,10.60198 33.38125,11.0408 0.17054,0.51163 -0.31977,0.41891 -3.68125,-0.69612 z m -2.1,-1.8424 c -4.95847,-1.60075 -16.40675,-5.27399 -23.7,-7.60428 -1.98,-0.63264 -8.9325,-2.85797 -15.45,-4.94518 -6.5175,-2.08721 -14.82,-4.74333 -18.45,-5.90249 -3.63,-1.15915 -7.24125,-2.32952 -8.025,-2.60083 l -1.425,-0.49328 -0.0165,-2.25459 c -0.0747,-10.20643 -0.1153,-57.37284 -0.0495,-57.43863 0.0462,-0.0462 2.07122,0.56316 4.5,1.35412 3.68353,1.19958 15.24801,4.90196 52.56598,16.82904 2.0625,0.65918 5.4375,1.74279 7.5,2.40802 2.0625,0.66522 4.79625,1.53711 6.075,1.93753 l 2.325,0.72804 0,29.83865 c 0,23.68381 -0.0773,29.83366 -0.375,29.81448 -0.20625,-0.0133 -2.67,-0.76507 -5.475,-1.6706 z m 3.07829,-14.69207 -0.0783,-12.48684 -13.05,-4.18356 c -7.1775,-2.30096 -19.5975,-6.27515 -27.6,-8.83153 -8.0025,-2.55639 -17.0475,-5.44871 -20.1,-6.42737 -3.0525,-0.97867 -5.65273,-1.7804 -5.77829,-1.78163 -0.12556,-10e-4 -0.19306,5.62811 -0.15,12.50964 l 0.0783,12.51186 1.2,0.35807 c 0.66,0.19694 2.8875,0.90083 4.95,1.5642 11.70325,3.76419 36.6584,11.75459 49.35,15.8014 3.96,1.26268 7.9425,2.5454 8.85,2.8505 0.9075,0.3051 1.82023,0.56539 2.02829,0.57841 0.29988,0.0188 0.36206,-2.56447 0.3,-12.46315 z M 289.65,273.22353 c -3.02294,-0.98392 -13.56061,-4.36511 -25.2,-8.08585 -3.465,-1.10765 -8.73,-2.79697 -11.7,-3.75405 -2.97,-0.95708 -9.72,-3.10989 -15,-4.78403 -5.28,-1.67414 -9.90375,-3.16922 -10.275,-3.32241 l -0.675,-0.27853 0,-12.18853 c 0,-10.96197 0.0475,-12.1703 0.47186,-12.00745 0.51343,0.19702 29.78261,9.60137 34.17814,10.98162 1.485,0.46631 4.86,1.54405 7.5,2.39497 2.64,0.85092 9.0803,2.91014 14.31179,4.57604 5.57056,1.77388 9.57863,3.20311 9.67311,3.44932 0.11759,0.30644 -9e-4,0.36894 -0.43679,0.23057 -0.34248,-0.1087 -0.59811,-0.053 -0.59811,0.13038 0,0.17612 0.24631,0.32022 0.54735,0.32022 0.51338,0 0.547,0.40968 0.54185,6.60176 -0.005,6.37763 -0.0251,6.59554 -0.58284,6.41852 -0.40526,-0.12862 -0.53514,-0.0621 -0.43573,0.22324 0.0779,0.22356 0.34192,0.37185 0.58673,0.32953 0.37622,-0.0651 0.44674,0.59799 0.4556,4.28306 0.0101,4.21902 -0.009,4.3539 -0.58673,4.17047 -0.42425,-0.13464 -0.5562,-0.0718 -0.4556,0.21694 0.0779,0.22356 0.36386,0.36681 0.63549,0.31833 0.49203,-0.0878 0.69683,0.39017 0.26888,0.62754 -0.12375,0.0686 -1.575,-0.31461 -3.225,-0.85166 z m 0.45,-0.88773 c 0,-0.2475 -0.12703,-0.45 -0.28229,-0.45 -0.3783,0 -0.64923,0.46848 -0.40956,0.70816 0.33786,0.33785 0.69185,0.20576 0.69185,-0.25816 z m -2.4,-0.7 c 0,-0.39062 -0.35663,-0.65041 -0.64674,-0.47112 -0.31026,0.19176 -0.0427,0.72112 0.36445,0.72112 0.15526,0 0.28229,-0.1125 0.28229,-0.25 z m -2.4,-0.96771 c 0,-0.15526 -0.2025,-0.28229 -0.45,-0.28229 -0.46392,0 -0.59601,0.35399 -0.25816,0.69184 0.23968,0.23968 0.70816,-0.0312 0.70816,-0.40955 z m 7.23114,-0.0711 c -0.38505,-0.38505 -0.77552,-0.0874 -0.49045,0.37379 0.11042,0.17867 0.3382,0.23992 0.50618,0.1361 0.2049,-0.12663 0.19972,-0.29444 -0.0157,-0.50989 z m -9.9,-0.9 c -0.38505,-0.38505 -0.77552,-0.0875 -0.49045,0.37379 0.11042,0.17867 0.3382,0.23992 0.50618,0.1361 0.2049,-0.12663 0.19972,-0.29444 -0.0157,-0.50989 z M 290.1,270.1358 c 0,-0.39062 -0.35663,-0.65041 -0.64674,-0.47112 -0.31026,0.19176 -0.0427,0.72112 0.36445,0.72112 0.15526,0 0.28229,-0.1125 0.28229,-0.25 z m -2.4,-0.96771 c 0,-0.15526 -0.2025,-0.28229 -0.45,-0.28229 -0.46392,0 -0.59601,0.35399 -0.25816,0.69184 0.23968,0.23968 0.70816,-0.0312 0.70816,-0.40955 z m -7.5,0.0677 c 0,-0.39062 -0.35663,-0.65041 -0.64674,-0.47112 -0.31026,0.19176 -0.0427,0.72112 0.36445,0.72112 0.15526,0 0.28229,-0.1125 0.28229,-0.25 z m 12.33114,-0.73886 c -0.38505,-0.38505 -0.77552,-0.0874 -0.49045,0.37379 0.11042,0.17867 0.3382,0.23992 0.50618,0.1361 0.2049,-0.12663 0.19972,-0.29444 -0.0157,-0.50989 z M 277.8,268.26809 c 0,-0.15526 -0.2025,-0.28229 -0.45,-0.28229 -0.46392,0 -0.59601,0.35399 -0.25816,0.69184 0.23968,0.23968 0.70816,-0.0312 0.70816,-0.40955 z m 7.43125,0.26146 C 285.04583,267.97328 284.4,267.88102 284.4,268.4108 c 0,0.26125 0.21375,0.475 0.475,0.475 0.26125,0 0.42156,-0.16031 0.35625,-0.35625 z M 290.1,267.8358 c 0,-0.2475 -0.135,-0.45 -0.3,-0.45 -0.165,0 -0.3,0.2025 -0.3,0.45 0,0.2475 0.135,0.45 0.3,0.45 0.165,0 0.3,-0.2025 0.3,-0.45 z m -14.96886,-0.53886 c -0.38505,-0.38505 -0.77552,-0.0874 -0.49045,0.37379 0.11042,0.17867 0.3382,0.23992 0.50618,0.1361 0.2049,-0.12663 0.19972,-0.29444 -0.0157,-0.50989 z m 7.46886,0.40657 c 0,-0.15527 -0.135,-0.36573 -0.3,-0.46771 -0.165,-0.10198 -0.3,0.025 -0.3,0.28229 0,0.25724 0.135,0.46771 0.3,0.46771 0.165,0 0.3,-0.12703 0.3,-0.28229 z m -2.4,-0.76771 c 0,-0.2475 -0.2025,-0.45 -0.45,-0.45 -0.46847,0 -0.59519,0.35481 -0.25,0.7 0.34519,0.34519 0.7,0.21847 0.7,-0.25 z m 7.5,0.2 c 0,-0.39062 -0.35663,-0.65041 -0.64674,-0.47112 -0.31026,0.19176 -0.0427,0.72112 0.36445,0.72112 0.15526,0 0.28229,-0.1125 0.28229,-0.25 z m -15,-0.3 c 0,-0.39062 -0.35663,-0.65041 -0.64674,-0.47112 -0.31026,0.19176 -0.0427,0.72112 0.36445,0.72112 0.15526,0 0.28229,-0.1125 0.28229,-0.25 z m 19.845,-0.5 c 0,-0.15675 -0.14513,-0.33338 -0.3225,-0.3925 -0.17738,-0.0591 -0.3225,0.1175 -0.3225,0.3925 0,0.275 0.14512,0.45163 0.3225,0.3925 0.17737,-0.0591 0.3225,-0.23575 0.3225,-0.3925 z M 277.8,266.20351 c 0,-0.35396 -0.5851,-0.7326 -0.8,-0.51771 -0.21489,0.2149 0.16375,0.8 0.51771,0.8 0.15526,0 0.28229,-0.12703 0.28229,-0.28229 z m 7.5,-0.0177 c 0,-0.165 -0.2025,-0.3 -0.45,-0.3 -0.2475,0 -0.45,0.135 -0.45,0.3 0,0.165 0.2025,0.3 0.45,0.3 0.2475,0 0.45,-0.135 0.45,-0.3 z m -15,-0.3 c 0,-0.165 -0.2025,-0.3 -0.45,-0.3 -0.2475,0 -0.45,0.135 -0.45,0.3 0,0.165 0.2025,0.3 0.45,0.3 0.2475,0 0.45,-0.135 0.45,-0.3 z m 12.345,-0.45 c 0,-0.15675 -0.14513,-0.33338 -0.3225,-0.3925 -0.17738,-0.0591 -0.3225,0.1175 -0.3225,0.3925 0,0.275 0.14512,0.45163 0.3225,0.3925 0.17737,-0.0591 0.3225,-0.23575 0.3225,-0.3925 z m 7.455,0.2 c 0,-0.39062 -0.35663,-0.65041 -0.64674,-0.47112 -0.31026,0.19176 -0.0427,0.72112 0.36445,0.72112 0.15526,0 0.28229,-0.1125 0.28229,-0.25 z m -22.2,-0.33229 c 0,-0.35396 -0.58511,-0.7326 -0.8,-0.51771 -0.21489,0.21489 0.16375,0.8 0.51771,0.8 0.15526,0 0.28229,-0.12703 0.28229,-0.28229 z m 7.2,-0.0177 c 0,-0.165 -0.135,-0.3 -0.3,-0.3 -0.165,0 -0.3,0.135 -0.3,0.3 0,0.165 0.135,0.3 0.3,0.3 0.165,0 0.3,-0.135 0.3,-0.3 z m 12.6,-0.61771 c 0,-0.15528 -0.2025,-0.28231 -0.45,-0.28231 -0.46392,0 -0.59601,0.35399 -0.25816,0.69184 0.23968,0.23968 0.70816,-0.0312 0.70816,-0.40955 z m -15.09879,-0.48108 c -0.0887,-0.0887 -0.31969,-0.0634 -0.51328,0.0562 -0.26098,0.1613 -0.24675,0.28292 0.055,0.47042 0.40003,0.24855 0.78779,-0.19712 0.45824,-0.52667 z M 280.2,264.7358 c 0,-0.39062 -0.35663,-0.65041 -0.64674,-0.47112 -0.31026,0.19176 -0.0427,0.72112 0.36445,0.72112 0.15526,0 0.28229,-0.1125 0.28229,-0.25 z m -15,-0.33229 c 0,-0.15527 -0.135,-0.36573 -0.3,-0.46771 -0.165,-0.10198 -0.3,0.025 -0.3,0.28229 0,0.25724 0.135,0.46771 0.3,0.46771 0.165,0 0.3,-0.12703 0.3,-0.28229 z m 12.6,-0.63542 c 0,-0.15526 -0.2025,-0.28229 -0.45,-0.28229 -0.46392,0 -0.59601,0.35399 -0.25816,0.69184 0.23968,0.23968 0.70816,-0.0312 0.70816,-0.40955 z m 7.5,0.33542 c 0,-0.35396 -0.5851,-0.7326 -0.8,-0.51771 -0.21489,0.21489 0.16375,0.8 0.51771,0.8 0.15526,0 0.28229,-0.12703 0.28229,-0.28229 z m -22.5,-0.63542 c 0,-0.15526 -0.19826,-0.28229 -0.44059,-0.28229 -0.26762,0 -0.37305,0.17598 -0.26856,0.44828 0.17709,0.46148 0.70915,0.33694 0.70915,-0.16599 z m 7.5,0.36771 c 0,-0.39062 -0.35663,-0.65041 -0.64674,-0.47112 -0.31026,0.19176 -0.0427,0.72112 0.36445,0.72112 0.15526,0 0.28229,-0.1125 0.28229,-0.25 z m 19.8,-0.5 c 0,-0.2475 -0.135,-0.45 -0.3,-0.45 -0.165,0 -0.3,0.2025 -0.3,0.45 0,0.2475 0.135,0.45 0.3,0.45 0.165,0 0.3,-0.2025 0.3,-0.45 z m -14.955,-0.3 c 0,-0.15675 -0.14513,-0.33338 -0.3225,-0.3925 -0.17738,-0.0591 -0.3225,0.1175 -0.3225,0.3925 0,0.275 0.14512,0.45163 0.3225,0.3925 0.17737,-0.0591 0.3225,-0.23575 0.3225,-0.3925 z m 7.455,0.15 c 0,-0.165 -0.135,-0.3 -0.3,-0.3 -0.165,0 -0.3,0.135 -0.3,0.3 0,0.165 0.135,0.3 0.3,0.3 0.165,0 0.3,-0.135 0.3,-0.3 z m -22.2,-0.28229 c 0,-0.35396 -0.58511,-0.7326 -0.8,-0.51771 -0.21489,0.2149 0.16375,0.8 0.51771,0.8 0.15526,0 0.28229,-0.12703 0.28229,-0.28229 z m 7.5,-0.0177 c 0,-0.165 -0.2025,-0.3 -0.45,-0.3 -0.2475,0 -0.45,0.135 -0.45,0.3 0,0.165 0.2025,0.3 0.45,0.3 0.2475,0 0.45,-0.135 0.45,-0.3 z m 12.3,-0.45 c 0,-0.2475 -0.2025,-0.45 -0.45,-0.45 -0.46847,0 -0.59519,0.35481 -0.25,0.7 0.34519,0.34519 0.7,0.21847 0.7,-0.25 z m 7.5,0.2 c 0,-0.39062 -0.35663,-0.65041 -0.64674,-0.47112 -0.31026,0.19176 -0.0427,0.72112 0.36445,0.72112 0.15526,0 0.28229,-0.1125 0.28229,-0.25 z m -22.46886,-0.73886 c -0.38505,-0.38505 -0.77552,-0.0874 -0.49045,0.37379 0.11042,0.17867 0.3382,0.23992 0.50618,0.1361 0.2049,-0.12663 0.19972,-0.29444 -0.0157,-0.50989 z M 272.7,262.3358 c 0,-0.39062 -0.35663,-0.65041 -0.64674,-0.47112 -0.31026,0.19176 -0.0427,0.72112 0.36445,0.72112 0.15526,0 0.28229,-0.1125 0.28229,-0.25 z m -14.89151,-0.5 c -0.095,-0.2475 -0.29324,-0.45 -0.44059,-0.45 -0.14734,0 -0.2679,0.2025 -0.2679,0.45 0,0.2475 0.19826,0.45 0.44059,0.45 0.26837,0 0.37308,-0.17589 0.2679,-0.45 z m 27.22265,-0.23886 c -0.38505,-0.38505 -0.77552,-0.0874 -0.49045,0.37379 0.11042,0.17867 0.3382,0.23992 0.50618,0.1361 0.2049,-0.12663 0.19972,-0.29444 -0.0157,-0.50989 z m 7.51386,0.23886 c 0,-0.15675 -0.14513,-0.33338 -0.3225,-0.3925 -0.17738,-0.0591 -0.3225,0.1175 -0.3225,0.3925 0,0.275 0.14512,0.45163 0.3225,0.3925 0.17737,-0.0591 0.3225,-0.23575 0.3225,-0.3925 z M 270.3,261.36809 c 0,-0.15526 -0.2025,-0.28229 -0.45,-0.28229 -0.46392,0 -0.59601,0.35399 -0.25816,0.69184 0.23968,0.23968 0.70816,-0.0312 0.70816,-0.40955 z m 7.5,0.33542 c 0,-0.35396 -0.5851,-0.7326 -0.8,-0.51771 -0.21489,0.2149 0.16375,0.8 0.51771,0.8 0.15526,0 0.28229,-0.12703 0.28229,-0.28229 z m -22.5,-0.46771 c 0,-0.2475 -0.21903,-0.45 -0.48673,-0.45 -0.39864,0 -0.41914,0.0815 -0.11327,0.45 0.20541,0.2475 0.42444,0.45 0.48673,0.45 0.0623,0 0.11327,-0.2025 0.11327,-0.45 z m 7.5,0.2 c 0,-0.39062 -0.35663,-0.65041 -0.64674,-0.47112 -0.31026,0.19176 -0.0427,0.72112 0.36445,0.72112 0.15526,0 0.28229,-0.1125 0.28229,-0.25 z m 19.93719,-0.32927 c 0.22186,-0.35898 -0.34249,-0.71467 -0.74208,-0.46771 -0.33551,0.20736 -0.11525,0.74698 0.30489,0.74698 0.14552,0 0.34226,-0.12567 0.43719,-0.27927 z m 7.36281,0.0293 c 0,-0.39062 -0.35663,-0.65041 -0.64674,-0.47112 -0.31026,0.19176 -0.0427,0.72112 0.36445,0.72112 0.15526,0 0.28229,-0.1125 0.28229,-0.25 z m -22.46886,-0.73886 c -0.38505,-0.38505 -0.77552,-0.0874 -0.49045,0.37379 0.11042,0.17867 0.3382,0.23992 0.50618,0.1361 0.2049,-0.12663 0.19972,-0.29444 -0.0157,-0.50989 z m 7.61886,0.38886 c -0.10198,-0.165 -0.31244,-0.3 -0.46771,-0.3 -0.15526,0 -0.28229,0.135 -0.28229,0.3 0,0.165 0.21047,0.3 0.46771,0.3 0.25723,0 0.38427,-0.135 0.28229,-0.3 z m -22.35,-0.28229 c 0,-0.35396 -0.58511,-0.7326 -0.8,-0.51771 -0.21489,0.21489 0.16375,0.8 0.51771,0.8 0.15526,0 0.28229,-0.12703 0.28229,-0.28229 z m 7.5,-0.0177 c 0,-0.165 -0.2025,-0.3 -0.45,-0.3 -0.2475,0 -0.45,0.135 -0.45,0.3 0,0.165 0.2025,0.3 0.45,0.3 0.2475,0 0.45,-0.135 0.45,-0.3 z m 27.3,-0.15 c 0,-0.2475 -0.2025,-0.45 -0.45,-0.45 -0.78074,0 -0.52773,0.59124 0.375,0.87631 0.0412,0.013 0.075,-0.17881 0.075,-0.42631 z m -15,-0.3 c 0,-0.2475 -0.135,-0.45 -0.3,-0.45 -0.165,0 -0.3,0.2025 -0.3,0.45 0,0.2475 0.135,0.45 0.3,0.45 0.165,0 0.3,-0.2025 0.3,-0.45 z m 7.5,0.2 c 0,-0.39062 -0.35663,-0.65041 -0.64674,-0.47112 -0.31026,0.19176 -0.0427,0.72112 0.36445,0.72112 0.15526,0 0.28229,-0.1125 0.28229,-0.25 z m -22.46886,-0.73886 c -0.38505,-0.38505 -0.77552,-0.0874 -0.49045,0.37379 0.11042,0.17867 0.3382,0.23992 0.50618,0.1361 0.2049,-0.12663 0.19972,-0.29444 -0.0157,-0.50989 z m 7.46886,0.40657 c 0,-0.15527 -0.135,-0.36573 -0.3,-0.46771 -0.165,-0.10198 -0.3,0.025 -0.3,0.28229 0,0.25724 0.135,0.46771 0.3,0.46771 0.165,0 0.3,-0.12703 0.3,-0.28229 z m -14.7,-0.31772 c 0,-0.165 -0.2025,-0.3 -0.45,-0.3 -0.2475,0 -0.45,0.135 -0.45,0.3 0,0.165 0.2025,0.3 0.45,0.3 0.2475,0 0.45,-0.135 0.45,-0.3 z m 27.3,-0.31771 c 0,-0.15526 -0.2025,-0.28229 -0.45,-0.28229 -0.46392,0 -0.59601,0.35399 -0.25816,0.69184 0.23968,0.23968 0.70816,-0.0312 0.70816,-0.40955 z m 7.5,0.33542 c 0,-0.35396 -0.5851,-0.7326 -0.8,-0.51771 -0.21489,0.21489 0.16375,0.8 0.51771,0.8 0.15526,0 0.28229,-0.12703 0.28229,-0.28229 z m 7.35,-0.0177 c -0.10198,-0.165 -0.31244,-0.3 -0.46771,-0.3 -0.15526,0 -0.28229,0.135 -0.28229,0.3 0,0.165 0.21047,0.3 0.46771,0.3 0.25723,0 0.38427,-0.135 0.28229,-0.3 z m -29.85,-0.61771 c 0,-0.15526 -0.2025,-0.28229 -0.45,-0.28229 -0.46392,0 -0.59601,0.35399 -0.25816,0.69184 0.23968,0.23968 0.70816,-0.0312 0.70816,-0.40955 z m 7.5,0.36771 c 0,-0.39062 -0.35663,-0.65041 -0.64674,-0.47112 -0.31026,0.19176 -0.0427,0.72112 0.36445,0.72112 0.15526,0 0.28229,-0.1125 0.28229,-0.25 z m -22.46886,-0.73886 c -0.38505,-0.38505 -0.77552,-0.0874 -0.49045,0.37379 0.11042,0.17867 0.3382,0.23992 0.50618,0.1361 0.2049,-0.12663 0.19972,-0.29444 -0.0157,-0.50989 z m 7.46886,0.43885 c 0,-0.39062 -0.35663,-0.65041 -0.64674,-0.47112 -0.31026,0.19176 -0.0427,0.72112 0.36445,0.72112 0.15526,0 0.28229,-0.1125 0.28229,-0.25 z m 34.68125,-0.56875 c -0.30496,-0.30495 -0.55657,0.15417 -0.30637,0.55901 0.18901,0.30583 0.25968,0.30607 0.36129,10e-4 0.0695,-0.20843 0.0448,-0.46054 -0.0549,-0.56022 z m -14.83625,0.0687 c 0,-0.15675 -0.14513,-0.33338 -0.3225,-0.3925 -0.17738,-0.0591 -0.3225,0.1175 -0.3225,0.3925 0,0.275 0.14512,0.45163 0.3225,0.3925 0.17737,-0.0591 0.3225,-0.23575 0.3225,-0.3925 z m 7.455,0.2 c 0,-0.39062 -0.35663,-0.65041 -0.64674,-0.47112 -0.31026,0.19176 -0.0427,0.72112 0.36445,0.72112 0.15526,0 0.28229,-0.1125 0.28229,-0.25 z m -22.2,-0.33229 c 0,-0.35396 -0.58511,-0.7326 -0.8,-0.51771 -0.21489,0.2149 0.16375,0.8 0.51771,0.8 0.15526,0 0.28229,-0.12703 0.28229,-0.28229 z m 7.5,-0.0177 c 0,-0.165 -0.2025,-0.3 -0.45,-0.3 -0.2475,0 -0.45,0.135 -0.45,0.3 0,0.165 0.2025,0.3 0.45,0.3 0.2475,0 0.45,-0.135 0.45,-0.3 z m -22.5,-0.25 c 0,-0.39062 -0.35663,-0.65041 -0.64674,-0.47112 -0.31026,0.19176 -0.0427,0.72112 0.36445,0.72112 0.15526,0 0.28229,-0.1125 0.28229,-0.25 z m 7.5,-0.05 c 0,-0.165 -0.2025,-0.3 -0.45,-0.3 -0.2475,0 -0.45,0.135 -0.45,0.3 0,0.165 0.2025,0.3 0.45,0.3 0.2475,0 0.45,-0.135 0.45,-0.3 z m 34.8,0.05 c 0,-0.39062 -0.35663,-0.65041 -0.64674,-0.47112 -0.31026,0.19176 -0.0427,0.72112 0.36445,0.72112 0.15526,0 0.28229,-0.1125 0.28229,-0.25 z m -22.46886,-0.73886 c -0.38505,-0.38505 -0.77552,-0.0874 -0.49045,0.37379 0.11042,0.17867 0.3382,0.23992 0.50618,0.1361 0.2049,-0.12663 0.19972,-0.29444 -0.0157,-0.50989 z m 7.46886,0.43886 c 0,-0.39062 -0.35663,-0.65041 -0.64674,-0.47112 -0.31026,0.19176 -0.0427,0.72112 0.36445,0.72112 0.15526,0 0.28229,-0.1125 0.28229,-0.25 z m 7.5,-0.05 c 0,-0.165 -0.2025,-0.3 -0.45,-0.3 -0.2475,0 -0.45,0.135 -0.45,0.3 0,0.165 0.2025,0.3 0.45,0.3 0.2475,0 0.45,-0.135 0.45,-0.3 z m -29.96886,-0.68886 c -0.38505,-0.38505 -0.77552,-0.0874 -0.49045,0.37379 0.11042,0.17867 0.3382,0.23992 0.50618,0.1361 0.2049,-0.12663 0.19972,-0.29444 -0.0157,-0.50989 z m 7.61886,0.38886 c -0.10198,-0.165 -0.31244,-0.3 -0.46771,-0.3 -0.15526,0 -0.28229,0.135 -0.28229,0.3 0,0.165 0.21047,0.3 0.46771,0.3 0.25723,0 0.38427,-0.135 0.28229,-0.3 z m 34.68114,-0.38886 c -0.38505,-0.38505 -0.77552,-0.0874 -0.49045,0.37379 0.11042,0.17867 0.3382,0.23992 0.50618,0.1361 0.2049,-0.12663 0.19972,-0.29444 -0.0157,-0.50989 z M 243,257.18583 c 0,-0.165 -0.2025,-0.3 -0.45,-0.3 -0.2475,0 -0.45,0.135 -0.45,0.3 0,0.165 0.2025,0.3 0.45,0.3 0.2475,0 0.45,-0.135 0.45,-0.3 z m 27.3,-0.31771 c 0,-0.15526 -0.2025,-0.28229 -0.45,-0.28229 -0.46392,0 -0.59601,0.35399 -0.25816,0.69184 0.23968,0.23968 0.70816,-0.0312 0.70816,-0.40955 z m 7.5,0.33542 c 0,-0.35396 -0.5851,-0.7326 -0.8,-0.51771 -0.21489,0.2149 0.16375,0.8 0.51771,0.8 0.15526,0 0.28229,-0.12703 0.28229,-0.28229 z m 7.5,-0.0177 c 0,-0.165 -0.2025,-0.3 -0.45,-0.3 -0.2475,0 -0.45,0.135 -0.45,0.3 0,0.165 0.2025,0.3 0.45,0.3 0.2475,0 0.45,-0.135 0.45,-0.3 z m -30,-0.45 c 0,-0.2475 -0.19826,-0.45 -0.44059,-0.45 -0.26837,0 -0.37309,0.17589 -0.2679,0.45 0.095,0.2475 0.29324,0.45 0.44059,0.45 0.14734,0 0.2679,-0.2025 0.2679,-0.45 z m 7.5,0.2 c 0,-0.39062 -0.35663,-0.65041 -0.64674,-0.47112 -0.31026,0.19176 -0.0427,0.72112 0.36445,0.72112 0.15526,0 0.28229,-0.1125 0.28229,-0.25 z m -22.46886,-0.73886 c -0.38505,-0.38505 -0.77552,-0.0874 -0.49045,0.37379 0.11042,0.17867 0.3382,0.23992 0.50618,0.1361 0.2049,-0.12663 0.19972,-0.29444 -0.0157,-0.50989 z m 7.46886,0.43885 c 0,-0.39062 -0.35663,-0.65041 -0.64674,-0.47112 -0.31026,0.19176 -0.0427,0.72112 0.36445,0.72112 0.15526,0 0.28229,-0.1125 0.28229,-0.25 z m 34.83114,-0.43886 c -0.38505,-0.38505 -0.77552,-0.0874 -0.49045,0.37379 0.11042,0.17867 0.3382,0.23992 0.50618,0.1361 0.2049,-0.12663 0.19972,-0.29444 -0.0157,-0.50989 z m 7.46886,0.43886 c 0,-0.39062 -0.35663,-0.65041 -0.64674,-0.47112 -0.31026,0.19176 -0.0427,0.72112 0.36445,0.72112 0.15526,0 0.28229,-0.1125 0.28229,-0.25 z m -22.2,-0.33229 c 0,-0.35396 -0.58511,-0.7326 -0.8,-0.51771 -0.21489,0.21489 0.16375,0.8 0.51771,0.8 0.15526,0 0.28229,-0.12703 0.28229,-0.28229 z m 7.35,-0.0177 c -0.10198,-0.165 -0.31244,-0.3 -0.46771,-0.3 -0.15526,0 -0.28229,0.135 -0.28229,0.3 0,0.165 0.21047,0.3 0.46771,0.3 0.25723,0 0.38427,-0.135 0.28229,-0.3 z m -22.35,-0.28229 c 0,-0.35396 -0.58511,-0.7326 -0.8,-0.51771 -0.21489,0.21489 0.16375,0.8 0.51771,0.8 0.15526,0 0.28229,-0.12703 0.28229,-0.28229 z m 7.5,-0.0177 c 0,-0.165 -0.2025,-0.3 -0.45,-0.3 -0.2475,0 -0.45,0.135 -0.45,0.3 0,0.165 0.2025,0.3 0.45,0.3 0.2475,0 0.45,-0.135 0.45,-0.3 z m 27.3,-0.31771 c 0,-0.15528 -0.2025,-0.28231 -0.45,-0.28231 -0.46392,0 -0.59601,0.35399 -0.25816,0.69184 0.23968,0.23968 0.70816,-0.0312 0.70816,-0.40955 z m -49.8,0.0677 c 0,-0.39062 -0.35663,-0.65041 -0.64674,-0.47112 -0.31026,0.19176 -0.0427,0.72112 0.36445,0.72112 0.15526,0 0.28229,-0.1125 0.28229,-0.25 z m 7.5,-0.05 c 0,-0.165 -0.2025,-0.3 -0.45,-0.3 -0.2475,0 -0.45,0.135 -0.45,0.3 0,0.165 0.2025,0.3 0.45,0.3 0.2475,0 0.45,-0.135 0.45,-0.3 z m 27.3,-0.15 c 0,-0.2475 -0.135,-0.45 -0.3,-0.45 -0.165,0 -0.3,0.2025 -0.3,0.45 0,0.2475 0.135,0.45 0.3,0.45 0.165,0 0.3,-0.2025 0.3,-0.45 z m 7.5,0.2 c 0,-0.39062 -0.35663,-0.65041 -0.64674,-0.47112 -0.31026,0.19176 -0.0427,0.72112 0.36445,0.72112 0.15526,0 0.28229,-0.1125 0.28229,-0.25 z m -22.455,-0.5 c 0,-0.15675 -0.14513,-0.33338 -0.3225,-0.3925 -0.17738,-0.0591 -0.3225,0.1175 -0.3225,0.3925 0,0.275 0.14512,0.45163 0.3225,0.3925 0.17737,-0.0591 0.3225,-0.23575 0.3225,-0.3925 z m 7.455,0.16771 c 0,-0.15527 -0.135,-0.36573 -0.3,-0.46771 -0.165,-0.10198 -0.3,0.025 -0.3,0.28229 0,0.25724 0.135,0.46771 0.3,0.46771 0.165,0 0.3,-0.12703 0.3,-0.28229 z m 27.33114,-0.40657 c -0.38505,-0.38505 -0.77552,-0.0875 -0.49045,0.37379 0.11042,0.17867 0.3382,0.23992 0.50618,0.1361 0.2049,-0.12663 0.19972,-0.29444 -0.0157,-0.50989 z M 243,255.10354 c 0,-0.35396 -0.58511,-0.7326 -0.8,-0.51771 -0.21489,0.21489 0.16375,0.8 0.51771,0.8 0.15526,0 0.28229,-0.12703 0.28229,-0.28229 z m 7.35,-0.0177 c -0.10198,-0.165 -0.31244,-0.3 -0.46771,-0.3 -0.15526,0 -0.28229,0.135 -0.28229,0.3 0,0.165 0.21047,0.3 0.46771,0.3 0.25723,0 0.38427,-0.135 0.28229,-0.3 z m 34.95,0.0177 c 0,-0.35396 -0.5851,-0.7326 -0.8,-0.51771 -0.21489,0.2149 0.16375,0.80001 0.51771,0.80001 0.15526,0 0.28229,-0.12703 0.28229,-0.28229 z m -49.8,-0.31771 c 0,-0.165 -0.2025,-0.3 -0.45,-0.3 -0.2475,0 -0.45,0.135 -0.45,0.3 0,0.165 0.2025,0.3 0.45,0.3 0.2475,0 0.45,-0.135 0.45,-0.3 z m 27.3,-0.15 c 0,-0.2475 -0.2025,-0.45 -0.45,-0.45 -0.46847,0 -0.59519,0.35481 -0.25,0.7 0.34519,0.34519 0.7,0.21847 0.7,-0.25 z m 7.5,0.2 c 0,-0.39062 -0.35663,-0.65041 -0.64674,-0.47112 -0.31026,0.19176 -0.0427,0.72112 0.36445,0.72112 0.15526,0 0.28229,-0.1125 0.28229,-0.25 z m 7.5,-0.05 c 0,-0.165 -0.2025,-0.3 -0.45,-0.3 -0.2475,0 -0.45,0.135 -0.45,0.3 0,0.165 0.2025,0.3 0.45,0.3 0.2475,0 0.45,-0.135 0.45,-0.3 z m -30.11875,-0.81875 c -0.30496,-0.30495 -0.55657,0.15417 -0.30637,0.55901 0.18901,0.30583 0.25968,0.30607 0.36129,10e-4 0.0695,-0.20843 0.0448,-0.46054 -0.0549,-0.56022 z m 7.61875,0.56875 c 0,-0.39062 -0.35663,-0.65041 -0.64674,-0.47112 -0.31026,0.19176 -0.0427,0.72112 0.36445,0.72112 0.15526,0 0.28229,-0.1125 0.28229,-0.25 z m 34.8,-0.2 c 0,-0.2475 -0.135,-0.45 -0.3,-0.45 -0.165,0 -0.3,0.2025 -0.3,0.45 0,0.2475 0.135,0.45 0.3,0.45 0.165,0 0.3,-0.2025 0.3,-0.45 z m -57.26886,-0.53886 c -0.38505,-0.38505 -0.77552,-0.0874 -0.49045,0.37379 0.11042,0.17867 0.3382,0.23992 0.50618,0.1361 0.2049,-0.12663 0.19972,-0.29444 -0.0157,-0.50989 z m 7.57735,0.23886 c -0.095,-0.2475 -0.29324,-0.45 -0.44059,-0.45 -0.14734,0 -0.2679,0.2025 -0.2679,0.45 0,0.2475 0.19826,0.45 0.44059,0.45 0.26837,0 0.37308,-0.17589 0.2679,-0.45 z m 34.72265,-0.23886 c -0.38505,-0.38505 -0.77552,-0.0874 -0.49045,0.37379 0.11042,0.17867 0.3382,0.23992 0.50618,0.1361 0.2049,-0.12663 0.19972,-0.29444 -0.0157,-0.50989 z m 7.46886,0.38886 c 0,-0.165 -0.135,-0.3 -0.3,-0.3 -0.165,0 -0.3,0.135 -0.3,0.3 0,0.165 0.135,0.3 0.3,0.3 0.165,0 0.3,-0.135 0.3,-0.3 z m -22.2,-0.28229 c 0,-0.35396 -0.58511,-0.7326 -0.8,-0.51771 -0.21489,0.2149 0.16375,0.8 0.51771,0.8 0.15526,0 0.28229,-0.12703 0.28229,-0.28229 z m 7.5,-0.0177 c 0,-0.165 -0.2025,-0.3 -0.45,-0.3 -0.2475,0 -0.45,0.135 -0.45,0.3 0,0.165 0.2025,0.3 0.45,0.3 0.2475,0 0.45,-0.135 0.45,-0.3 z m -30,-0.45 c 0,-0.2475 -0.2025,-0.45 -0.45,-0.45 -0.46847,0 -0.59519,0.35481 -0.25,0.7 0.34519,0.34519 0.7,0.21847 0.7,-0.25 z m 7.5,0.2 c 0,-0.39062 -0.35663,-0.65041 -0.64674,-0.47112 -0.31026,0.19176 -0.0427,0.72112 0.36445,0.72112 0.15526,0 0.28229,-0.1125 0.28229,-0.25 z m 7.5,-0.05 c 0,-0.165 -0.2025,-0.3 -0.45,-0.3 -0.2475,0 -0.45,0.135 -0.45,0.3 0,0.165 0.2025,0.3 0.45,0.3 0.2475,0 0.45,-0.135 0.45,-0.3 z m 27.3,-0.15 c 0,-0.2475 -0.2025,-0.45 -0.45,-0.45 -0.46847,0 -0.59519,0.35481 -0.25,0.7 0.34519,0.34519 0.7,0.21847 0.7,-0.25 z m 7.5,0.2 c 0,-0.39062 -0.35663,-0.65041 -0.64674,-0.47112 -0.31026,0.19176 -0.0427,0.72112 0.36445,0.72112 0.15526,0 0.28229,-0.1125 0.28229,-0.25 z m -57.3,-0.33229 c 0,-0.15527 -0.135,-0.36573 -0.3,-0.46771 -0.165,-0.10198 -0.3,0.0251 -0.3,0.28229 0,0.25724 0.135,0.46771 0.3,0.46771 0.165,0 0.3,-0.12703 0.3,-0.28229 z m 34.68125,-0.53646 c -0.30496,-0.30495 -0.55657,0.15417 -0.30637,0.55901 0.18901,0.30583 0.25968,0.30607 0.36129,0.001 0.0695,-0.20843 0.0448,-0.46054 -0.0549,-0.56022 z m 7.61875,0.56874 c 0,-0.39062 -0.35663,-0.65041 -0.64674,-0.47112 -0.31026,0.19176 -0.0427,0.72112 0.36445,0.72112 0.15526,0 0.28229,-0.1125 0.28229,-0.25 z m -22.46886,-0.73886 c -0.38505,-0.38505 -0.77552,-0.0874 -0.49045,0.37379 0.11042,0.17867 0.3382,0.23992 0.50618,0.1361 0.2049,-0.12663 0.19972,-0.29444 -0.0157,-0.50989 z M 258,253.01793 c 0,-0.14735 -0.2025,-0.34561 -0.45,-0.44059 -0.27411,-0.10519 -0.45,-6e-4 -0.45,0.2679 0,0.24233 0.2025,0.44059 0.45,0.44059 0.2475,0 0.45,-0.12056 0.45,-0.2679 z m 34.545,-0.1821 c 0,-0.15675 -0.14513,-0.33338 -0.3225,-0.3925 -0.17738,-0.0591 -0.3225,0.1175 -0.3225,0.3925 0,0.275 0.14512,0.45163 0.3225,0.3925 0.17737,-0.0591 0.3225,-0.23575 0.3225,-0.3925 z M 235.5,252.70354 c 0,-0.35396 -0.58511,-0.7326 -0.8,-0.51771 -0.21489,0.21489 0.16375,0.8 0.51771,0.8 0.15526,0 0.28229,-0.12703 0.28229,-0.28229 z m 7.5,-0.0177 c 0,-0.165 -0.2025,-0.3 -0.45,-0.3 -0.2475,0 -0.45,0.135 -0.45,0.3 0,0.165 0.2025,0.3 0.45,0.3 0.2475,0 0.45,-0.135 0.45,-0.3 z m 34.8,0.0177 c 0,-0.35396 -0.5851,-0.7326 -0.8,-0.51771 -0.21489,0.2149 0.16375,0.80001 0.51771,0.80001 0.15526,0 0.28229,-0.12703 0.28229,-0.28229 z m 7.35,-0.0177 c -0.10198,-0.165 -0.31244,-0.3 -0.46771,-0.3 -0.15526,0 -0.28229,0.135 -0.28229,0.3 0,0.165 0.21047,0.3 0.46771,0.3 0.25723,0 0.38427,-0.135 0.28229,-0.3 z m -57.15,-0.3 c 0,-0.165 -0.2025,-0.3 -0.45,-0.3 -0.2475,0 -0.45,0.135 -0.45,0.3 0,0.165 0.2025,0.3 0.45,0.3 0.2475,0 0.45,-0.135 0.45,-0.3 z m 27.20121,-0.49879 c -0.0887,-0.0887 -0.31969,-0.0634 -0.51328,0.0563 -0.26098,0.1613 -0.24675,0.28292 0.055,0.47042 0.40003,0.24855 0.78779,-0.19712 0.45824,-0.52667 z m 7.59879,0.54879 c 0,-0.39062 -0.35663,-0.65041 -0.64674,-0.47112 -0.31026,0.19176 -0.0427,0.72112 0.36445,0.72112 0.15526,0 0.28229,-0.1125 0.28229,-0.25 z m 7.5,-0.05 c 0,-0.165 -0.2025,-0.3 -0.45,-0.3 -0.2475,0 -0.45,0.135 -0.45,0.3 0,0.165 0.2025,0.3 0.45,0.3 0.2475,0 0.45,-0.135 0.45,-0.3 z m -29.96886,-0.68886 c -0.38505,-0.38505 -0.77552,-0.0874 -0.49045,0.37379 0.11042,0.17867 0.3382,0.23992 0.50618,0.1361 0.2049,-0.12663 0.19972,-0.29444 -0.0157,-0.50989 z m 7.46886,0.40657 c 0,-0.15527 -0.135,-0.36573 -0.3,-0.46771 -0.165,-0.10198 -0.3,0.025 -0.3,0.28229 0,0.25724 0.135,0.46771 0.3,0.46771 0.165,0 0.3,-0.12703 0.3,-0.28229 z m 34.83114,-0.40657 c -0.38505,-0.38505 -0.77552,-0.0874 -0.49045,0.37379 0.11042,0.17867 0.3382,0.23992 0.50618,0.1361 0.2049,-0.12663 0.19972,-0.29444 -0.0157,-0.50989 z m 7.46886,0.43886 c 0,-0.39062 -0.35663,-0.65041 -0.64674,-0.47112 -0.31026,0.19176 -0.0427,0.72112 0.36445,0.72112 0.15526,0 0.28229,-0.1125 0.28229,-0.25 z m -57,-0.3179 c 0,-0.14735 -0.2025,-0.34561 -0.45,-0.44059 -0.27411,-0.10519 -0.45,-6e-4 -0.45,0.2679 0,0.24233 0.2025,0.44059 0.45,0.44059 0.2475,0 0.45,-0.12056 0.45,-0.2679 z m 34.53114,-0.42096 c -0.38505,-0.38505 -0.77552,-0.0875 -0.49045,0.37379 0.11042,0.17867 0.3382,0.23992 0.50618,0.1361 0.2049,-0.12663 0.19972,-0.29444 -0.0157,-0.50989 z m 7.61886,0.38886 c -0.10198,-0.165 -0.31244,-0.3 -0.46771,-0.3 -0.15526,0 -0.28229,0.135 -0.28229,0.3 0,0.165 0.21047,0.3 0.46771,0.3 0.25723,0 0.38427,-0.135 0.28229,-0.3 z m -22.35,-0.28229 c 0,-0.35396 -0.58511,-0.7326 -0.8,-0.51771 -0.21489,0.21489 0.16375,0.8 0.51771,0.8 0.15526,0 0.28229,-0.12703 0.28229,-0.28229 z m 7.5,-0.0177 c 0,-0.165 -0.2025,-0.3 -0.45,-0.3 -0.2475,0 -0.45,0.135 -0.45,0.3 0,0.165 0.2025,0.3 0.45,0.3 0.2475,0 0.45,-0.135 0.45,-0.3 z m 27.3,-0.15 c 0,-0.2475 -0.2025,-0.45 -0.45,-0.45 -0.46847,0 -0.59519,0.35481 -0.25,0.7 0.34519,0.34519 0.7,0.21847 0.7,-0.25 z m -57.41875,-0.66875 c -0.30495,-0.30495 -0.55657,0.15417 -0.30636,0.55901 0.189,0.30583 0.25967,0.30607 0.36129,0.001 0.0695,-0.20843 0.0448,-0.46054 -0.0549,-0.56022 z m 7.61875,0.56874 c 0,-0.39062 -0.35663,-0.65041 -0.64674,-0.47112 -0.31026,0.19176 -0.0427,0.72112 0.36445,0.72112 0.15526,0 0.28229,-0.1125 0.28229,-0.25 z m 7.5,-0.05 c 0,-0.165 -0.2025,-0.3 -0.45,-0.3 -0.2475,0 -0.45,0.135 -0.45,0.3 0,0.165 0.2025,0.3 0.45,0.3 0.2475,0 0.45,-0.135 0.45,-0.3 z m 27.3,-0.15 c 0,-0.2475 -0.135,-0.45 -0.3,-0.45 -0.165,0 -0.3,0.2025 -0.3,0.45 0,0.2475 0.135,0.45 0.3,0.45 0.165,0 0.3,-0.2025 0.3,-0.45 z m 7.5,0.2 c 0,-0.39062 -0.35663,-0.65041 -0.64674,-0.47112 -0.31026,0.19176 -0.0427,0.72112 0.36445,0.72112 0.15526,0 0.28229,-0.1125 0.28229,-0.25 z m -22.46886,-0.73886 c -0.38505,-0.38505 -0.77552,-0.0875 -0.49045,0.37379 0.11042,0.17867 0.3382,0.23992 0.50618,0.1361 0.2049,-0.12663 0.19972,-0.29444 -0.0157,-0.50989 z m 7.46886,0.40657 c 0,-0.15527 -0.135,-0.36573 -0.3,-0.46771 -0.165,-0.10198 -0.3,0.025 -0.3,0.28229 0,0.25724 0.135,0.46771 0.3,0.46771 0.165,0 0.3,-0.12703 0.3,-0.28229 z m -22.2,-0.3 c 0,-0.35396 -0.58511,-0.7326 -0.8,-0.51771 -0.21489,0.21489 0.16375,0.8 0.51771,0.8 0.15526,0 0.28229,-0.12703 0.28229,-0.28229 z m 7.4425,-0.0402 c -0.0591,-0.17737 -0.23575,-0.3225 -0.3925,-0.3225 -0.15675,0 -0.33338,0.14512 -0.3925,0.3225 -0.0591,0.17737 0.1175,0.3225 0.3925,0.3225 0.275,0 0.45163,-0.14512 0.3925,-0.3225 z M 277.8,250.26813 c 0,-0.15526 -0.2025,-0.28229 -0.45,-0.28229 -0.46392,0 -0.59601,0.35399 -0.25816,0.69184 0.23968,0.23968 0.70816,-0.0312 0.70816,-0.40955 z m 7.5,0.33542 c 0,-0.35396 -0.5851,-0.7326 -0.8,-0.51771 -0.21489,0.21489 0.16375,0.8 0.51771,0.8 0.15526,0 0.28229,-0.12703 0.28229,-0.28229 z M 228,250.33584 c 0,-0.39062 -0.35663,-0.65041 -0.64674,-0.47112 -0.31026,0.19176 -0.0427,0.72112 0.36445,0.72112 0.15526,0 0.28229,-0.1125 0.28229,-0.25 z m 7.5,-0.05 c 0,-0.165 -0.2025,-0.3 -0.45,-0.3 -0.2475,0 -0.45,0.135 -0.45,0.3 0,0.165 0.2025,0.3 0.45,0.3 0.2475,0 0.45,-0.135 0.45,-0.3 z m 27.3,-0.15 c 0,-0.2475 -0.2025,-0.45 -0.45,-0.45 -0.46847,0 -0.59519,0.35481 -0.25,0.7 0.34519,0.34519 0.7,0.21847 0.7,-0.25 z m 7.5,0.2 c 0,-0.39062 -0.35663,-0.65041 -0.64674,-0.47112 -0.31026,0.19176 -0.0427,0.72112 0.36445,0.72112 0.15526,0 0.28229,-0.1125 0.28229,-0.25 z m -22.61875,-0.86875 c -0.30496,-0.30495 -0.55657,0.15417 -0.30637,0.55901 0.18901,0.30583 0.25968,0.30607 0.36129,10e-4 0.0695,-0.20843 0.0448,-0.46054 -0.0549,-0.56022 z m 7.61875,0.56875 c 0,-0.39062 -0.35663,-0.65041 -0.64674,-0.47112 -0.31026,0.19176 -0.0427,0.72112 0.36445,0.72112 0.15526,0 0.28229,-0.1125 0.28229,-0.25 z m 34.845,-0.2 c 0,-0.15675 -0.14513,-0.33338 -0.3225,-0.3925 -0.17738,-0.0591 -0.3225,0.1175 -0.3225,0.3925 0,0.275 0.14512,0.45163 0.3225,0.3925 0.17737,-0.0591 0.3225,-0.23575 0.3225,-0.3925 z m -57.31386,-0.53886 c -0.38505,-0.38505 -0.77552,-0.0874 -0.49045,0.37379 0.11042,0.17867 0.3382,0.23992 0.50618,0.1361 0.2049,-0.12663 0.19972,-0.29444 -0.0157,-0.50989 z m 7.76886,0.57559 c 0,-0.0623 -0.2025,-0.28132 -0.45,-0.48673 -0.36855,-0.30587 -0.45,-0.28537 -0.45,0.11327 0,0.2677 0.2025,0.48673 0.45,0.48673 0.2475,0 0.45,-0.051 0.45,-0.11327 z m 34.53114,-0.57559 c -0.38505,-0.38505 -0.77552,-0.0874 -0.49045,0.37379 0.11042,0.17867 0.3382,0.23992 0.50618,0.1361 0.2049,-0.12663 0.19972,-0.29444 -0.0157,-0.50989 z m 7.46886,0.40657 c 0,-0.15527 -0.135,-0.36573 -0.3,-0.46771 -0.165,-0.10198 -0.3,0.025 -0.3,0.28229 0,0.25724 0.135,0.46771 0.3,0.46771 0.165,0 0.3,-0.12703 0.3,-0.28229 z m -29.7,-0.63542 c 0,-0.15526 -0.2025,-0.28229 -0.45,-0.28229 -0.46392,0 -0.59601,0.35399 -0.25816,0.69184 0.23968,0.23968 0.70816,-0.0312 0.70816,-0.40955 z m 7.5,0.33542 c 0,-0.35396 -0.58511,-0.7326 -0.8,-0.51771 -0.21489,0.2149 0.16375,0.8 0.51771,0.8 0.15526,0 0.28229,-0.12703 0.28229,-0.28229 z m 7.5,-0.0177 c 0,-0.165 -0.2025,-0.3 -0.45,-0.3 -0.2475,0 -0.45,0.135 -0.45,0.3 0,0.165 0.2025,0.3 0.45,0.3 0.2475,0 0.45,-0.135 0.45,-0.3 z m -22.5,-0.25 c 0,-0.39062 -0.35663,-0.65041 -0.64674,-0.47112 -0.31026,0.19176 -0.0427,0.72112 0.36445,0.72112 0.15526,0 0.28229,-0.1125 0.28229,-0.25 z m 34.8,-0.2 c 0,-0.2475 -0.19826,-0.45 -0.44059,-0.45 -0.26837,0 -0.37309,0.17589 -0.2679,0.45 0.095,0.2475 0.29324,0.45 0.44059,0.45 0.14734,0 0.2679,-0.2025 0.2679,-0.45 z m 7.5,0.2 c 0,-0.39062 -0.35663,-0.65041 -0.64674,-0.47112 -0.31026,0.19176 -0.0427,0.72112 0.36445,0.72112 0.15526,0 0.28229,-0.1125 0.28229,-0.25 z m -57.3,-0.3 c 0,-0.39062 -0.35663,-0.65041 -0.64674,-0.47112 -0.31026,0.19176 -0.0427,0.72112 0.36445,0.72112 0.15526,0 0.28229,-0.1125 0.28229,-0.25 z m 7.5,-0.05 c 0,-0.165 -0.21047,-0.3 -0.46771,-0.3 -0.25723,0 -0.38427,0.135 -0.28229,0.3 0.10198,0.165 0.31244,0.3 0.46771,0.3 0.15526,0 0.28229,-0.135 0.28229,-0.3 z m 27.33114,-0.38886 c -0.38505,-0.38505 -0.77552,-0.0875 -0.49045,0.37379 0.11042,0.17867 0.3382,0.23992 0.50618,0.1361 0.2049,-0.12663 0.19972,-0.29444 -0.0157,-0.50989 z m 7.46886,0.43886 c 0,-0.39062 -0.35663,-0.65041 -0.64674,-0.47112 -0.31026,0.19176 -0.0427,0.72112 0.36445,0.72112 0.15526,0 0.28229,-0.1125 0.28229,-0.25 z m -22.46886,-0.73886 c -0.38505,-0.38505 -0.77552,-0.0874 -0.49045,0.37379 0.11042,0.17867 0.3382,0.23992 0.50618,0.1361 0.2049,-0.12663 0.19972,-0.29444 -0.0157,-0.50989 z m 7.46886,0.38886 c 0,-0.165 -0.135,-0.3 -0.3,-0.3 -0.165,0 -0.3,0.135 -0.3,0.3 0,0.165 0.135,0.3 0.3,0.3 0.165,0 0.3,-0.135 0.3,-0.3 z M 228,247.86814 c 0,-0.15526 -0.2025,-0.28229 -0.45,-0.28229 -0.46392,0 -0.59601,0.35399 -0.25816,0.69184 0.23968,0.23968 0.70816,-0.0312 0.70816,-0.40955 z m 7.5,0.33542 c 0,-0.35396 -0.58511,-0.7326 -0.8,-0.51771 -0.21489,0.21489 0.16375,0.8 0.51771,0.8 0.15526,0 0.28229,-0.12703 0.28229,-0.28229 z m 7.5,-0.0177 c 0,-0.165 -0.2025,-0.3 -0.45,-0.3 -0.2475,0 -0.45,0.135 -0.45,0.3 0,0.165 0.2025,0.3 0.45,0.3 0.2475,0 0.45,-0.135 0.45,-0.3 z m 34.8,0.0177 c 0,-0.35396 -0.5851,-0.7326 -0.8,-0.51771 -0.21489,0.2149 0.16375,0.80001 0.51771,0.80001 0.15526,0 0.28229,-0.12703 0.28229,-0.28229 z m 7.35,-0.0177 c -0.10198,-0.165 -0.31244,-0.3 -0.46771,-0.3 -0.15526,0 -0.28229,0.135 -0.28229,0.3 0,0.165 0.21047,0.3 0.46771,0.3 0.25723,0 0.38427,-0.135 0.28229,-0.3 z m -29.96875,-0.81875 c -0.30496,-0.30495 -0.55657,0.15417 -0.30637,0.55901 0.18901,0.30583 0.25968,0.30607 0.36129,0.001 0.0695,-0.20843 0.0448,-0.46054 -0.0549,-0.56022 z m 7.61875,0.56875 c 0,-0.39062 -0.35663,-0.65041 -0.64674,-0.47112 -0.31026,0.19176 -0.0427,0.72112 0.36445,0.72112 0.15526,0 0.28229,-0.1125 0.28229,-0.25 z m 7.5,-0.05 c 0,-0.165 -0.2025,-0.3 -0.45,-0.3 -0.2475,0 -0.45,0.135 -0.45,0.3 0,0.165 0.2025,0.3 0.45,0.3 0.2475,0 0.45,-0.135 0.45,-0.3 z M 240.33114,247.197 c -0.38505,-0.38505 -0.77552,-0.0874 -0.49045,0.37379 0.11042,0.17867 0.3382,0.23992 0.50618,0.1361 0.2049,-0.12663 0.19972,-0.29444 -0.0157,-0.50989 z m 7.46886,0.40657 c 0,-0.15527 -0.135,-0.36573 -0.3,-0.46771 -0.165,-0.10198 -0.3,0.025 -0.3,0.28229 0,0.25724 0.135,0.46771 0.3,0.46771 0.165,0 0.3,-0.12703 0.3,-0.28229 z m 34.8,-0.16771 c 0,-0.2475 -0.135,-0.45 -0.3,-0.45 -0.165,0 -0.3,0.2025 -0.3,0.45 0,0.2475 0.135,0.45 0.3,0.45 0.165,0 0.3,-0.2025 0.3,-0.45 z m -49.5,-0.15 c 0,-0.165 -0.2025,-0.3 -0.45,-0.3 -0.2475,0 -0.45,0.135 -0.45,0.3 0,0.165 0.2025,0.3 0.45,0.3 0.2475,0 0.45,-0.135 0.45,-0.3 z m 34.8,0.0177 c 0,-0.35396 -0.58511,-0.7326 -0.8,-0.51771 -0.21489,0.2149 0.16375,0.80001 0.51771,0.80001 0.15526,0 0.28229,-0.12703 0.28229,-0.28229 z m 7.35,-0.0177 c -0.10198,-0.165 -0.31244,-0.3 -0.46771,-0.3 -0.15526,0 -0.28229,0.135 -0.28229,0.3 0,0.165 0.21047,0.3 0.46771,0.3 0.25723,0 0.38427,-0.135 0.28229,-0.3 z m -22.35,-0.28229 c 0,-0.35396 -0.58511,-0.7326 -0.8,-0.51771 -0.21489,0.21489 0.16375,0.8 0.51771,0.8 0.15526,0 0.28229,-0.12703 0.28229,-0.28229 z m 7.5,-0.0177 c 0,-0.165 -0.2025,-0.3 -0.45,-0.3 -0.2475,0 -0.45,0.135 -0.45,0.3 0,0.165 0.2025,0.3 0.45,0.3 0.2475,0 0.45,-0.135 0.45,-0.3 z m -30.11875,-0.81875 c -0.30496,-0.30495 -0.55657,0.15417 -0.30637,0.55901 0.18901,0.30583 0.25968,0.30607 0.36129,10e-4 0.0695,-0.20843 0.0448,-0.46054 -0.0549,-0.56022 z m 7.61875,0.36874 c 0,-0.2475 -0.12703,-0.45 -0.28229,-0.45 -0.3783,0 -0.64923,0.46848 -0.40956,0.70816 0.33786,0.33785 0.69185,0.20576 0.69185,-0.25816 z m 7.5,0.15 c 0,-0.165 -0.2025,-0.3 -0.45,-0.3 -0.2475,0 -0.45,0.135 -0.45,0.3 0,0.165 0.2025,0.3 0.45,0.3 0.2475,0 0.45,-0.135 0.45,-0.3 z m 27.3,-0.15 c 0,-0.2475 -0.135,-0.45 -0.3,-0.45 -0.165,0 -0.3,0.2025 -0.3,0.45 0,0.2475 0.135,0.45 0.3,0.45 0.165,0 0.3,-0.2025 0.3,-0.45 z m 7.5,0.2 c 0,-0.39062 -0.35663,-0.65041 -0.64674,-0.47112 -0.31026,0.19176 -0.0427,0.72112 0.36445,0.72112 0.15526,0 0.28229,-0.1125 0.28229,-0.25 z M 257.73114,245.997 c -0.38505,-0.38505 -0.77552,-0.0875 -0.49045,0.37379 0.11042,0.17867 0.3382,0.23992 0.50618,0.1361 0.2049,-0.12663 0.19972,-0.29444 -0.0157,-0.50989 z m 7.46886,0.40657 c 0,-0.15527 -0.135,-0.36573 -0.3,-0.46771 -0.165,-0.10198 -0.3,0.025 -0.3,0.28229 0,0.25724 0.135,0.46771 0.3,0.46771 0.165,0 0.3,-0.12703 0.3,-0.28229 z m -22.2,-0.3 c 0,-0.35396 -0.58511,-0.7326 -0.8,-0.51771 -0.21489,0.21489 0.16375,0.8 0.51771,0.8 0.15526,0 0.28229,-0.12703 0.28229,-0.28229 z m 7.4425,-0.0402 c -0.0591,-0.17737 -0.23575,-0.3225 -0.3925,-0.3225 -0.15675,0 -0.33338,0.14512 -0.3925,0.3225 -0.0591,0.17737 0.1175,0.3225 0.3925,0.3225 0.275,0 0.45163,-0.14512 0.3925,-0.3225 z M 277.8,245.76815 c 0,-0.15526 -0.2025,-0.28229 -0.45,-0.28229 -0.46392,0 -0.59601,0.35399 -0.25816,0.69184 0.23968,0.23968 0.70816,-0.0312 0.70816,-0.40955 z m -49.8,0.0677 c 0,-0.39062 -0.35663,-0.65041 -0.64674,-0.47112 -0.31026,0.19176 -0.0427,0.72112 0.36445,0.72112 0.15526,0 0.28229,-0.1125 0.28229,-0.25 z m 7.5,-0.05 c 0,-0.165 -0.2025,-0.3 -0.45,-0.3 -0.2475,0 -0.45,0.135 -0.45,0.3 0,0.165 0.2025,0.3 0.45,0.3 0.2475,0 0.45,-0.135 0.45,-0.3 z m 34.8,0.05 c 0,-0.39062 -0.35663,-0.65041 -0.64674,-0.47112 -0.31026,0.19176 -0.0427,0.72112 0.36445,0.72112 0.15526,0 0.28229,-0.1125 0.28229,-0.25 z m -22.61875,-0.86875 c -0.30496,-0.30495 -0.55657,0.15417 -0.30637,0.55901 0.18901,0.30583 0.25968,0.30607 0.36129,0.001 0.0695,-0.20843 0.0448,-0.46054 -0.0549,-0.56022 z m 7.61875,0.56875 c 0,-0.39062 -0.35663,-0.65041 -0.64674,-0.47112 -0.31026,0.19176 -0.0427,0.72112 0.36445,0.72112 0.15526,0 0.28229,-0.1125 0.28229,-0.25 z m 7.5,-0.05 c 0,-0.165 -0.2025,-0.3 -0.45,-0.3 -0.2475,0 -0.45,0.135 -0.45,0.3 0,0.165 0.2025,0.3 0.45,0.3 0.2475,0 0.45,-0.135 0.45,-0.3 z m -29.96886,-0.68886 c -0.38505,-0.38505 -0.77552,-0.0874 -0.49045,0.37379 0.11042,0.17867 0.3382,0.23992 0.50618,0.1361 0.2049,-0.12663 0.19972,-0.29444 -0.0157,-0.50989 z m 7.76886,0.57559 c 0,-0.0623 -0.2025,-0.28132 -0.45,-0.48673 -0.36855,-0.30587 -0.45,-0.28537 -0.45,0.11327 0,0.2677 0.2025,0.48673 0.45,0.48673 0.2475,0 0.45,-0.051 0.45,-0.11327 z m 34.545,-0.33673 c 0,-0.15675 -0.14513,-0.33338 -0.3225,-0.3925 -0.17738,-0.0591 -0.3225,0.1175 -0.3225,0.3925 0,0.275 0.14512,0.45163 0.3225,0.3925 0.17737,-0.0591 0.3225,-0.23575 0.3225,-0.3925 z M 252.9,244.56814 c 0,-0.15526 -0.2025,-0.28229 -0.45,-0.28229 -0.46392,0 -0.59601,0.35399 -0.25816,0.69184 0.23968,0.23968 0.70816,-0.0312 0.70816,-0.40955 z m 7.5,0.33542 c 0,-0.35396 -0.58511,-0.7326 -0.8,-0.51771 -0.21489,0.2149 0.16375,0.8 0.51771,0.8 0.15526,0 0.28229,-0.12703 0.28229,-0.28229 z m 7.35,-0.0177 c -0.10198,-0.165 -0.31244,-0.3 -0.46771,-0.3 -0.15526,0 -0.28229,0.135 -0.28229,0.3 0,0.165 0.21047,0.3 0.46771,0.3 0.25723,0 0.38427,-0.135 0.28229,-0.3 z m -22.35,-0.25 c 0,-0.39062 -0.35663,-0.65041 -0.64674,-0.47112 -0.31026,0.19176 -0.0427,0.72112 0.36445,0.72112 0.15526,0 0.28229,-0.1125 0.28229,-0.25 z m -15,-0.33229 c 0,-0.15527 -0.135,-0.36573 -0.3,-0.46771 -0.165,-0.10198 -0.3,0.0251 -0.3,0.28229 0,0.25724 0.135,0.46771 0.3,0.46771 0.165,0 0.3,-0.12703 0.3,-0.28229 z m 7.5,-0.0177 c 0,-0.165 -0.2025,-0.3 -0.45,-0.3 -0.2475,0 -0.45,0.135 -0.45,0.3 0,0.165 0.2025,0.3 0.45,0.3 0.2475,0 0.45,-0.135 0.45,-0.3 z m 27.345,-0.15 c 0,-0.15675 -0.14513,-0.33338 -0.3225,-0.3925 -0.17738,-0.0591 -0.3225,0.1175 -0.3225,0.3925 0,0.275 0.14512,0.45163 0.3225,0.3925 0.17737,-0.0591 0.3225,-0.23575 0.3225,-0.3925 z m 7.455,0.2 c 0,-0.39062 -0.35663,-0.65041 -0.64674,-0.47112 -0.31026,0.19176 -0.0427,0.72112 0.36445,0.72112 0.15526,0 0.28229,-0.1125 0.28229,-0.25 z M 243,243.66814 c 0,-0.15526 -0.2025,-0.28229 -0.45,-0.28229 -0.46392,0 -0.59601,0.35399 -0.25816,0.69184 0.23968,0.23968 0.70816,-0.0312 0.70816,-0.40955 z m 7.23114,-0.0711 c -0.38505,-0.38505 -0.77552,-0.0874 -0.49045,0.37379 0.11042,0.17867 0.3382,0.23992 0.50618,0.1361 0.2049,-0.12663 0.19972,-0.29444 -0.0157,-0.50989 z m 7.61886,0.38881 c -0.10198,-0.165 -0.31244,-0.3 -0.46771,-0.3 -0.15526,0 -0.28229,0.135 -0.28229,0.3 0,0.165 0.21047,0.3 0.46771,0.3 0.25723,0 0.38427,-0.135 0.28229,-0.3 z m -22.35,-0.28229 c 0,-0.35396 -0.58511,-0.7326 -0.8,-0.51771 -0.21489,0.21489 0.16375,0.8 0.51771,0.8 0.15526,0 0.28229,-0.12703 0.28229,-0.28229 z m 34.8,-0.33542 c 0,-0.15526 -0.2025,-0.28229 -0.45,-0.28229 -0.46392,0 -0.59601,0.35399 -0.25816,0.69184 0.23968,0.23968 0.70816,-0.0312 0.70816,-0.40955 z m -42.3,0.0177 c 0,-0.165 -0.2025,-0.3 -0.45,-0.3 -0.2475,0 -0.45,0.135 -0.45,0.3 0,0.165 0.2025,0.3 0.45,0.3 0.2475,0 0.45,-0.135 0.45,-0.3 z m 27.3,-0.15 c 0,-0.2475 -0.135,-0.45 -0.3,-0.45 -0.165,0 -0.3,0.2025 -0.3,0.45 0,0.2475 0.135,0.45 0.3,0.45 0.165,0 0.3,-0.2025 0.3,-0.45 z m 7.5,0.2 c 0,-0.39062 -0.35663,-0.65041 -0.64674,-0.47112 -0.31026,0.19176 -0.0427,0.72112 0.36445,0.72112 0.15526,0 0.28229,-0.1125 0.28229,-0.25 z m -22.46886,-0.73886 c -0.38505,-0.38505 -0.77552,-0.0874 -0.49045,0.37379 0.11042,0.17867 0.3382,0.23992 0.50618,0.1361 0.2049,-0.12663 0.19972,-0.29444 -0.0157,-0.50989 z m 7.46886,0.40657 c 0,-0.15527 -0.135,-0.36573 -0.3,-0.46771 -0.165,-0.10198 -0.3,0.025 -0.3,0.28229 0,0.25724 0.135,0.46771 0.3,0.46771 0.165,0 0.3,-0.12703 0.3,-0.28229 z m -14.7,-0.31771 c 0,-0.165 -0.2025,-0.3 -0.45,-0.3 -0.2475,0 -0.45,0.135 -0.45,0.3 0,0.165 0.2025,0.3 0.45,0.3 0.2475,0 0.45,-0.135 0.45,-0.3 z m 27.3,-0.31771 c 0,-0.15526 -0.2025,-0.28229 -0.45,-0.28229 -0.46392,0 -0.59601,0.35399 -0.25816,0.69184 0.23968,0.23968 0.70816,-0.0312 0.70816,-0.40955 z m 7.23114,-0.0711 c -0.38505,-0.38505 -0.77552,-0.0875 -0.49045,0.37379 0.11042,0.17867 0.3382,0.23992 0.50618,0.1361 0.2049,-0.12663 0.19972,-0.29444 -0.0157,-0.50989 z M 245.4,242.16813 c 0,-0.15526 -0.2025,-0.28229 -0.45,-0.28229 -0.46392,0 -0.59601,0.35399 -0.25816,0.69184 0.23968,0.23968 0.70816,-0.0312 0.70816,-0.40955 z m 7.5,0.33542 c 0,-0.35396 -0.58511,-0.7326 -0.8,-0.51771 -0.21489,0.21489 0.16375,0.8 0.51771,0.8 0.15526,0 0.28229,-0.12703 0.28229,-0.28229 z m -22.46886,-0.70657 c -0.38505,-0.38505 -0.77552,-0.0874 -0.49045,0.37379 0.11042,0.17867 0.3382,0.23992 0.50618,0.1361 0.2049,-0.12663 0.19972,-0.29444 -0.0157,-0.50989 z m 7.46886,0.43886 c 0,-0.39062 -0.35663,-0.65041 -0.64674,-0.47112 -0.31026,0.19176 -0.0427,0.72112 0.36445,0.72112 0.15526,0 0.28229,-0.1125 0.28229,-0.25 z m 19.845,-0.5 c 0,-0.15675 -0.14513,-0.33338 -0.3225,-0.3925 -0.17738,-0.0591 -0.3225,0.1175 -0.3225,0.3925 0,0.275 0.14512,0.45163 0.3225,0.3925 0.17737,-0.0591 0.3225,-0.23575 0.3225,-0.3925 z m 7.455,0.16771 c 0,-0.15527 -0.135,-0.36573 -0.3,-0.46771 -0.165,-0.10198 -0.3,0.025 -0.3,0.28229 0,0.25724 0.135,0.46771 0.3,0.46771 0.165,0 0.3,-0.12703 0.3,-0.28229 z m -22.2,-0.3 c 0,-0.35396 -0.58511,-0.7326 -0.8,-0.51771 -0.21489,0.21489 0.16375,0.8 0.51771,0.8 0.15526,0 0.28229,-0.12703 0.28229,-0.28229 z m 7.5,-0.0177 c 0,-0.165 -0.2025,-0.3 -0.45,-0.3 -0.2475,0 -0.45,0.135 -0.45,0.3 0,0.165 0.2025,0.3 0.45,0.3 0.2475,0 0.45,-0.135 0.45,-0.3 z M 228,241.33584 c 0,-0.39062 -0.35663,-0.65041 -0.64674,-0.47112 -0.31026,0.19176 -0.0427,0.72112 0.36445,0.72112 0.15526,0 0.28229,-0.1125 0.28229,-0.25 z m 7.4425,-0.0725 c -0.0591,-0.17738 -0.23575,-0.3225 -0.3925,-0.3225 -0.15675,0 -0.33338,0.14512 -0.3925,0.3225 -0.0591,0.17737 0.1175,0.3225 0.3925,0.3225 0.275,0 0.45163,-0.14513 0.3925,-0.3225 z m 12.23875,-0.79625 c -0.30496,-0.30495 -0.55657,0.15417 -0.30637,0.55901 0.18901,0.30583 0.25968,0.30607 0.36129,10e-4 0.0695,-0.20843 0.0448,-0.46054 -0.0549,-0.56022 z m 7.61875,0.56875 c 0,-0.39062 -0.35663,-0.65041 -0.64674,-0.47112 -0.31026,0.19176 -0.0427,0.72112 0.36445,0.72112 0.15526,0 0.28229,-0.1125 0.28229,-0.25 z m 7.5,-0.05 c 0,-0.165 -0.2025,-0.3 -0.45,-0.3 -0.2475,0 -0.45,0.135 -0.45,0.3 0,0.165 0.2025,0.3 0.45,0.3 0.2475,0 0.45,-0.135 0.45,-0.3 z m -29.96886,-0.68886 c -0.38505,-0.38505 -0.77552,-0.0874 -0.49045,0.37379 0.11042,0.17867 0.3382,0.23992 0.50618,0.1361 0.2049,-0.12663 0.19972,-0.29444 -0.0157,-0.50989 z m 7.46886,0.40657 c 0,-0.15527 -0.135,-0.36573 -0.3,-0.46771 -0.165,-0.10198 -0.3,0.025 -0.3,0.28229 0,0.25724 0.135,0.46771 0.3,0.46771 0.165,0 0.3,-0.12703 0.3,-0.28229 z m 20.1,-0.3 c 0,-0.35396 -0.58511,-0.7326 -0.8,-0.51771 -0.21489,0.2149 0.16375,0.8 0.51771,0.8 0.15526,0 0.28229,-0.12703 0.28229,-0.28229 z m -22.61875,-0.83646 c -0.30496,-0.30495 -0.55657,0.15417 -0.30637,0.55901 0.18901,0.30583 0.25968,0.30607 0.36129,0.001 0.0695,-0.20843 0.0448,-0.46054 -0.0549,-0.56022 z m 7.61875,0.56875 c 0,-0.39062 -0.35663,-0.65041 -0.64674,-0.47112 -0.31026,0.19176 -0.0427,0.72112 0.36445,0.72112 0.15526,0 0.28229,-0.1125 0.28229,-0.25 z m 7.5,-0.05 c 0,-0.165 -0.2025,-0.3 -0.45,-0.3 -0.2475,0 -0.45,0.135 -0.45,0.3 0,0.165 0.2025,0.3 0.45,0.3 0.2475,0 0.45,-0.135 0.45,-0.3 z m -22.5,-0.45 c 0,-0.2475 -0.12703,-0.45 -0.28229,-0.45 -0.3783,0 -0.64923,0.46848 -0.40956,0.70816 0.33786,0.33785 0.69185,0.20576 0.69185,-0.25816 z m 19.83114,-0.53886 c -0.38505,-0.38505 -0.77552,-0.0874 -0.49045,0.37379 0.11042,0.17867 0.3382,0.23992 0.50618,0.1361 0.2049,-0.12663 0.19972,-0.29444 -0.0157,-0.50989 z m 7.61886,0.38886 c 0.10198,-0.165 -0.0251,-0.3 -0.28229,-0.3 -0.25724,0 -0.46771,0.135 -0.46771,0.3 0,0.165 0.12703,0.3 0.28229,0.3 0.15527,0 0.36573,-0.135 0.46771,-0.3 z m -22.35,-0.28229 c 0,-0.35396 -0.58511,-0.7326 -0.8,-0.51771 -0.21489,0.21489 0.16375,0.8 0.51771,0.8 0.15526,0 0.28229,-0.12703 0.28229,-0.28229 z m 7.4425,-0.0402 c -0.0591,-0.17737 -0.23575,-0.3225 -0.3925,-0.3225 -0.15675,0 -0.33338,0.14512 -0.3925,0.3225 -0.0591,0.17737 0.1175,0.3225 0.3925,0.3225 0.275,0 0.45163,-0.14512 0.3925,-0.3225 z M 228,238.88584 c 0,-0.165 -0.2025,-0.3 -0.45,-0.3 -0.2475,0 -0.45,0.135 -0.45,0.3 0,0.165 0.2025,0.3 0.45,0.3 0.2475,0 0.45,-0.135 0.45,-0.3 z m 27.18125,-0.51875 c -0.30496,-0.30495 -0.55657,0.15417 -0.30637,0.55901 0.18901,0.30583 0.25968,0.30607 0.36129,0.001 0.0695,-0.20843 0.0448,-0.46054 -0.0549,-0.56022 z m -14.85011,-0.17011 c -0.38505,-0.38505 -0.77552,-0.0874 -0.49045,0.37379 0.11042,0.17867 0.3382,0.23992 0.50618,0.1361 0.2049,-0.12663 0.19972,-0.29444 -0.0157,-0.50989 z m 7.46886,0.23886 c 0,-0.2475 -0.135,-0.45 -0.3,-0.45 -0.165,0 -0.3,0.2025 -0.3,0.45 0,0.2475 0.135,0.45 0.3,0.45 0.165,0 0.3,-0.2025 0.3,-0.45 z m -14.7575,-0.1725 c -0.0591,-0.17738 -0.23575,-0.3225 -0.3925,-0.3225 -0.15675,0 -0.33338,0.14512 -0.3925,0.3225 -0.0591,0.17737 0.1175,0.3225 0.3925,0.3225 0.275,0 0.45163,-0.14513 0.3925,-0.3225 z m 19.8575,-0.2275 c 0,-0.39062 -0.35663,-0.65041 -0.64674,-0.47112 -0.31026,0.19176 -0.0427,0.72112 0.36445,0.72112 0.15526,0 0.28229,-0.1125 0.28229,-0.25 z m -22.61875,-0.86875 c -0.30496,-0.30495 -0.55657,0.15417 -0.30637,0.55901 0.18901,0.30583 0.25968,0.30607 0.36129,0.001 0.0695,-0.20843 0.0448,-0.46054 -0.0549,-0.56022 z m 7.61875,0.56875 c 0,-0.39062 -0.35663,-0.65041 -0.64674,-0.47112 -0.31026,0.19176 -0.0427,0.72112 0.36445,0.72112 0.15526,0 0.28229,-0.1125 0.28229,-0.25 z m 7.5,-0.05 c 0,-0.165 -0.2025,-0.3 -0.45,-0.3 -0.2475,0 -0.45,0.135 -0.45,0.3 0,0.165 0.2025,0.3 0.45,0.3 0.2475,0 0.45,-0.135 0.45,-0.3 z m -2.4,-0.58229 c 0,-0.35396 -0.58511,-0.7326 -0.8,-0.51771 -0.21489,0.21489 0.16375,0.8 0.51771,0.8 0.15526,0 0.28229,-0.12703 0.28229,-0.28229 z m 7.5,-0.0177 c 0,-0.165 -0.2025,-0.3 -0.45,-0.3 -0.2475,0 -0.45,0.135 -0.45,0.3 0,0.165 0.2025,0.3 0.45,0.3 0.2475,0 0.45,-0.135 0.45,-0.3 z M 228,236.83584 c 0,-0.39062 -0.35663,-0.65041 -0.64674,-0.47112 -0.31026,0.19176 -0.0427,0.72112 0.36445,0.72112 0.15526,0 0.28229,-0.1125 0.28229,-0.25 z m 7.5,-0.05 c 0,-0.165 -0.2025,-0.3 -0.45,-0.3 -0.2475,0 -0.45,0.135 -0.45,0.3 0,0.165 0.2025,0.3 0.45,0.3 0.2475,0 0.45,-0.135 0.45,-0.3 z m 12.33114,-0.68886 c -0.38505,-0.38505 -0.77552,-0.0874 -0.49045,0.37379 0.11042,0.17867 0.3382,0.23992 0.50618,0.1361 0.2049,-0.12663 0.19972,-0.29444 -0.0157,-0.50989 z m -15,-0.3 c -0.38505,-0.38505 -0.77552,-0.0874 -0.49045,0.37379 0.11042,0.17867 0.3382,0.23992 0.50618,0.1361 0.2049,-0.12663 0.19972,-0.29444 -0.0157,-0.50989 z m 7.61886,0.38886 c -0.10198,-0.165 -0.31244,-0.3 -0.46771,-0.3 -0.15526,0 -0.28229,0.135 -0.28229,0.3 0,0.165 0.21047,0.3 0.46771,0.3 0.25723,0 0.38427,-0.135 0.28229,-0.3 z m 4.95,-0.55 c 0,-0.39062 -0.35663,-0.65041 -0.64674,-0.47112 -0.31026,0.19176 -0.0427,0.72112 0.36445,0.72112 0.15526,0 0.28229,-0.1125 0.28229,-0.25 z m -15,-0.3 c 0,-0.39062 -0.35663,-0.65041 -0.64674,-0.47112 -0.31026,0.19176 -0.0427,0.72112 0.36445,0.72112 0.15526,0 0.28229,-0.1125 0.28229,-0.25 z m 7.5,-0.05 c 0,-0.165 -0.21047,-0.3 -0.46771,-0.3 -0.25723,0 -0.38427,0.135 -0.28229,0.3 0.10198,0.165 0.31244,0.3 0.46771,0.3 0.15526,0 0.28229,-0.135 0.28229,-0.3 z m -2.4,-0.58229 c 0,-0.35396 -0.58511,-0.7326 -0.8,-0.51771 -0.21489,0.21489 0.16375,0.8 0.51771,0.8 0.15526,0 0.28229,-0.12703 0.28229,-0.28229 z m 7.4425,-0.0402 c -0.0591,-0.17737 -0.23575,-0.3225 -0.3925,-0.3225 -0.15675,0 -0.33338,0.14512 -0.3925,0.3225 -0.0591,0.17737 0.1175,0.3225 0.3925,0.3225 0.275,0 0.45163,-0.14512 0.3925,-0.3225 z M 228,234.38584 c 0,-0.165 -0.2025,-0.3 -0.45,-0.3 -0.2475,0 -0.45,0.135 -0.45,0.3 0,0.165 0.2025,0.3 0.45,0.3 0.2475,0 0.45,-0.135 0.45,-0.3 z m 12.33114,-0.68886 c -0.38505,-0.38505 -0.77552,-0.0874 -0.49045,0.37379 0.11042,0.17867 0.3382,0.23992 0.50618,0.1361 0.2049,-0.12663 0.19972,-0.29444 -0.0157,-0.50989 z m -7.28864,0.0664 c -0.0591,-0.17738 -0.23575,-0.3225 -0.3925,-0.3225 -0.15675,0 -0.33338,0.14512 -0.3925,0.3225 -0.0591,0.17737 0.1175,0.3225 0.3925,0.3225 0.275,0 0.45163,-0.14513 0.3925,-0.3225 z m -2.76125,-1.09625 c -0.30496,-0.30495 -0.55657,0.15417 -0.30637,0.55901 0.18901,0.30583 0.25968,0.30607 0.36129,0.001 0.0695,-0.20843 0.0448,-0.46054 -0.0549,-0.56022 z m 7.61875,0.56871 c 0,-0.39062 -0.35663,-0.65041 -0.64674,-0.47112 -0.31026,0.19176 -0.0427,0.72112 0.36445,0.72112 0.15526,0 0.28229,-0.1125 0.28229,-0.25 z m -9.9,-0.9 c 0,-0.39062 -0.35663,-0.65041 -0.64674,-0.47112 -0.31026,0.19176 -0.0427,0.72112 0.36445,0.72112 0.15526,0 0.28229,-0.1125 0.28229,-0.25 z m 7.5,-0.05 c 0,-0.165 -0.2025,-0.3 -0.45,-0.3 -0.2475,0 -0.45,0.135 -0.45,0.3 0,0.165 0.2025,0.3 0.45,0.3 0.2475,0 0.45,-0.135 0.45,-0.3 z m -2.66886,-0.98886 c -0.38505,-0.38505 -0.77552,-0.0874 -0.49045,0.37379 0.11042,0.17867 0.3382,0.23992 0.50618,0.1361 0.2049,-0.12663 0.19972,-0.29444 -0.0157,-0.50989 z M 230.4,230.63584 c 0,-0.2475 -0.12703,-0.45 -0.28229,-0.45 -0.3783,0 -0.64923,0.46848 -0.40956,0.70816 0.33786,0.33785 0.69185,0.20576 0.69185,-0.25816 z m -2.4,-0.75 c 0,-0.165 -0.2025,-0.3 -0.45,-0.3 -0.2475,0 -0.45,0.135 -0.45,0.3 0,0.165 0.2025,0.3 0.45,0.3 0.2475,0 0.45,-0.135 0.45,-0.3 z m 66.24,13.14 c 0.53426,-0.53426 0.4392,-1.16702 -0.29229,-1.94567 -1.00888,-1.07389 -2.34771,-0.75131 -2.34771,0.56567 0,1.23483 1.82907,2.19093 2.64,1.38 z m -0.37071,-0.32794 c 0.11266,-0.29587 0.2804,-0.46237 0.37277,-0.37 0.0924,0.0924 1.9e-4,0.33444 -0.20483,0.53794 -0.29629,0.29408 -0.33075,0.25962 -0.16794,-0.16794 z m -0.60163,-1.2716 c -0.32028,-0.24225 -0.43807,-0.44046 -0.26173,-0.44046 0.17633,0 0.48866,0.2025 0.69407,0.45 0.46716,0.5629 0.3202,0.55965 -0.43234,-0.01 z m -72.69266,18.45019 -0.675,-0.27132 0,-36.15966 c 0,-37.75574 -0.0371,-36.64797 1.2,-35.86605 0.39522,0.24981 0.45956,4.68626 0.52857,36.44541 0.0432,19.88853 -0.0243,36.15241 -0.15,36.14195 -0.12571,-0.0105 -0.53232,-0.14111 -0.90357,-0.29033 z m 1.47643,-36.07727 c 0.0283,-19.83486 0.14734,-34.24088 0.26456,-32.01338 0.11722,2.2275 0.22908,17.29687 0.24857,33.4875 0.0195,16.19062 0.12083,29.86444 0.22519,30.38624 0.11098,0.55493 0.4763,1.09975 0.88006,1.3125 l 0.69031,0.36376 -1.18006,1.26338 L 222,259.8626 222.0514,223.79922 Z M 292.5,216.95447 c -1.8975,-0.62284 -8.3775,-2.70044 -14.4,-4.61688 -6.0225,-1.91644 -12.975,-4.13974 -15.45,-4.94065 -2.475,-0.80092 -7.335,-2.35697 -10.8,-3.45789 -3.465,-1.10093 -10.08,-3.21492 -14.7,-4.69775 -4.62,-1.48284 -9.6825,-3.10528 -11.25,-3.60544 -1.5675,-0.50015 -2.9175,-1.01812 -3,-1.15104 -0.19284,-0.3107 -0.13053,-5.96845 0.0679,-6.1669 0.13118,-0.13118 4.67685,1.29081 26.93208,8.42493 2.7225,0.87273 11.295,3.61272 19.05,6.08889 7.755,2.47616 15.5175,4.95847 17.25,5.51624 l 3.15,1.01414 0.0934,1.28485 c 0.0839,1.15499 0.20151,1.33002 1.16335,1.7319 l 1.06998,0.44707 1.40477,-1.52005 c 2.43384,-2.63356 3.08557,-1.87779 2.95267,3.42406 l -0.0841,3.35695 -3.45,-1.13243 z m -2.13161,-5.06838 c -0.4296,-0.2511 -0.47746,-1.48907 -0.44325,-11.46587 l 0.0384,-11.18438 3.91021,-5.55 c 7.85849,-11.15405 9.06782,-13.12352 10.88141,-17.72115 2.23605,-5.66857 2.83827,-8.6229 4.85739,-23.82885 0.48201,-3.63 1.42653,-10.7175 2.09895,-15.75 0.67245,-5.0325 1.61256,-12.12 2.08917,-15.75 0.47661,-3.63 1.49292,-11.189996 2.25843,-16.8 1.10955,-8.131278 1.33395,-10.460016 1.1064,-11.482023 -0.33339,-1.497411 -0.094,-1.780182 0.85593,-1.010988 1.02693,0.831555 1.06185,3.155841 0.14712,9.793011 -1.19595,8.677624 -2.74311,20.1911 -6.00672,44.7 -2.20062,16.52619 -2.26557,17.00652 -2.59725,19.2 -0.4611,3.04941 -1.32702,6.33762 -2.63085,9.99019 -1.88112,5.26968 -3.12705,7.49257 -8.44106,15.05981 -1.91184,2.7225 -4.24481,6.0808 -5.18436,7.46289 l -1.70827,2.5129 0,11.0621 c 0,11.53651 0.006,11.48564 -1.23161,10.76236 z M 288,208.59578 c -0.4125,-0.13116 -4.395,-1.41047 -8.85,-2.84291 -4.455,-1.43244 -10.8675,-3.49024 -14.25,-4.57288 -3.3825,-1.08264 -8.175,-2.61687 -10.65,-3.40942 -2.475,-0.79254 -7.74,-2.47499 -11.7,-3.73877 -3.96,-1.26379 -10.7775,-3.44274 -15.15,-4.8421 -4.3725,-1.39937 -8.59125,-2.74855 -9.375,-2.99819 -0.91899,-0.29272 -1.43569,-0.63175 -1.4551,-0.95478 -0.0994,-1.65518 -0.0305,-6.6903 0.0933,-6.81411 0.12744,-0.12744 5.8337,1.65054 21.68678,6.75721 1.98,0.63781 6.435,2.061 9.9,3.16264 3.465,1.10164 8.325,2.65562 10.8,3.45329 4.65942,1.50169 10.30513,3.30756 23.025,7.36492 l 7.425,2.36841 0,3.67837 c 0,3.90781 0.0165,3.87054 -1.5,3.38833 z m -9.56886,-4.2988 c -0.38505,-0.38505 -0.77552,-0.0874 -0.49045,0.37379 0.11042,0.17867 0.3382,0.23992 0.50618,0.1361 0.2049,-0.12663 0.19972,-0.29444 -0.0157,-0.50989 z M 253.65,196.58584 c -0.10198,-0.165 -0.31244,-0.3 -0.46771,-0.3 -0.15526,0 -0.28229,0.135 -0.28229,0.3 0,0.165 0.21047,0.3 0.46771,0.3 0.25723,0 0.38427,-0.135 0.28229,-0.3 z m -25.01886,-8.18886 c -0.38505,-0.38505 -0.77552,-0.0875 -0.49045,0.37379 0.11042,0.17867 0.3382,0.23992 0.50618,0.1361 0.2049,-0.12663 0.19972,-0.29444 -0.0157,-0.50989 z M 283.8,199.14541 c -2.7225,-0.88698 -16.2225,-5.21128 -30,-9.60957 -23.27192,-7.42925 -30.17706,-9.63818 -35.55,-11.37226 l -2.1,-0.67776 0,-4.97501 c 0,-2.73625 0.0737,-5.04874 0.16389,-5.13888 0.0901,-0.0901 1.80756,0.37219 3.81648,1.02737 4.78857,1.56173 18.86748,6.06477 22.86963,7.31468 1.7325,0.54108 12.2625,3.91186 23.4,7.49062 11.1375,3.57876 20.5875,6.57061 21,6.64856 1.80556,0.34118 -2.53343,-1.10685 -20.4,-6.80801 -2.0625,-0.65814 -6.9225,-2.21346 -10.8,-3.45628 -3.8775,-1.24282 -11.7075,-3.74492 -17.4,-5.56024 -5.6925,-1.81532 -12.645,-4.04048 -15.45,-4.94481 -2.805,-0.90432 -5.74125,-1.84155 -6.525,-2.08273 -1.76694,-0.54372 -1.81174,-0.98448 -0.32083,-3.15659 1.99941,-2.91295 14.87919,-21.38602 15.6586,-22.45866 0.41963,-0.5775 0.78827,-1.09235 0.81921,-1.14411 0.0535,-0.0895 7.26122,2.16853 17.06802,5.34695 2.475,0.80215 7.335,2.35521 10.8,3.45123 3.465,1.09602 8.73,2.78043 11.7,3.74314 2.97,0.9627 8.4375,2.71873 12.15,3.90227 3.7125,1.18356 9.88534,3.15882 13.71743,4.38948 l 6.96742,2.23757 -0.70998,1.86174 c -1.9635,5.14876 -3.44061,7.58594 -11.83017,19.51921 -1.83959,2.61661 -3.3447,4.93272 -3.3447,5.14691 0,0.24231 -0.25502,0.34042 -0.675,0.25969 l -0.675,-0.12975 0.675,0.35368 c 0.65929,0.34545 0.675,0.47128 0.675,5.40783 0,3.85073 -0.0893,5.05086 -0.375,5.04029 -0.20625,-0.008 -2.6025,-0.73958 -5.325,-1.62656 z m 7.27445,-23.17695 c 1.06448,-0.96333 0.41137,-2.46921 -1.24672,-2.87459 -0.99651,-0.24363 -2.65804,0.51078 -3.05792,1.38843 -0.95366,2.09304 2.36717,3.23955 4.30464,1.48616 z M 287.76,175.52584 c -0.94389,-0.94389 -0.1436,-2.04 1.48945,-2.04 0.81804,0 1.21696,0.16353 1.44687,0.59312 0.65057,1.2156 -1.90724,2.47596 -2.93632,1.44688 z m -2.3572,-0.57308 c 1.77074,-0.8068 1.48926,-2.90371 -0.45471,-3.38737 -1.51965,-0.37809 -3.05925,0.50574 -3.18995,1.83122 -0.15522,1.57419 1.78599,2.40302 3.64466,1.55615 z m -2.2637,-0.76532 c -0.57426,-0.15755 -0.98183,-1.12795 -0.67932,-1.61742 0.67407,-1.09067 3.44022,-0.83701 3.44022,0.31548 0,0.92289 -1.52363,1.64138 -2.7609,1.30194 z m -2.66056,-0.8405 c 1.37426,-0.71066 1.60597,-1.8795 0.56489,-2.84941 -1.23089,-1.14675 -3.94386,-0.46128 -4.33451,1.09518 -0.15926,0.63455 -0.0351,0.93762 0.61238,1.49454 0.93397,0.80337 1.94506,0.88653 3.15724,0.25969 z m -2.76442,-0.94698 c -0.43932,-0.43932 -0.19687,-1.60224 0.40072,-1.92206 1.41864,-0.75924 3.22783,0.27647 2.50307,1.43294 -0.33699,0.53773 -2.49216,0.90074 -2.90379,0.48912 z m 15.97952,-0.56083 c 2.0297,-1.0496 1.17867,-3.45329 -1.22265,-3.45329 -1.04275,0 -2.35271,0.87271 -2.56207,1.70687 -0.15926,0.63455 -0.0351,0.93762 0.61238,1.49454 0.93739,0.80631 1.94542,0.88634 3.17234,0.25188 z m -2.98996,-1.34641 c -0.25212,-0.4711 -0.19257,-0.71799 0.28944,-1.2 0.66782,-0.66782 1.53467,-0.77367 2.4266,-0.29633 0.65399,0.35001 0.76084,1.18889 0.22028,1.72945 -0.6055,0.6055 -2.57102,0.44945 -2.93632,-0.23312 z m -1.61872,-0.4688 c 1.62009,-1.01917 0.66311,-3.13808 -1.41729,-3.13808 -0.65383,0 -1.51118,0.21124 -1.90522,0.46943 -0.67807,0.44429 -0.708,0.43716 -0.55888,-0.13307 0.10419,-0.39845 -0.11453,-0.87459 -0.64581,-1.40588 -0.69711,-0.6971 -0.98141,-0.7833 -2.14925,-0.65167 -1.37641,0.15514 -2.80851,1.14291 -2.80851,1.93712 0,0.22624 0.33137,0.74271 0.73637,1.14771 0.92123,0.92123 3.22199,1.03796 4.16588,0.21136 0.5726,-0.50145 0.59053,-0.50048 0.39969,0.0217 -0.29842,0.81665 0.28981,1.65481 1.37998,1.96632 1.06101,0.30317 1.83118,0.18641 2.80304,-0.42497 z m -3.173,-0.87367 c -0.89325,-1.0763 0.53226,-2.26934 2.20876,-1.84857 1.03948,0.2609 1.29188,0.95199 0.61917,1.69534 -0.63222,0.69858 -2.30031,0.78897 -2.82793,0.15323 z m -4.90975,-1.50506 c -0.81935,-0.81934 -0.49695,-1.53067 0.87165,-1.92317 1.63596,-0.46919 2.74301,0.48473 1.97227,1.69945 -0.4137,0.65201 -2.26963,0.79801 -2.84392,0.22372 z m -5.79294,0.327 c 1.20158,-0.50205 2.29073,-1.81654 2.29073,-2.76467 0,-0.71198 -1.35786,-2.22168 -1.99823,-2.22168 -0.23199,0 -0.38846,-0.7726 -0.45307,-2.23706 -0.0929,-2.10528 -0.0592,-2.24694 0.5725,-2.40477 0.89224,-0.22292 1.68173,-1.46125 1.43242,-2.24677 -0.27068,-0.85283 -1.82473,-1.60776 -2.81093,-1.3655 -1.48753,0.36543 -2.14269,0.99668 -2.14269,2.06452 0,0.61559 -0.22938,1.20417 -0.6,1.53958 -0.70982,0.64237 -0.74345,1.30588 -0.16312,3.21829 0.42867,1.41263 0.42686,1.42182 -0.45325,2.30192 -2.49685,2.49686 0.76729,5.60292 4.32564,4.11614 z m -4.11881,-0.80812 c -0.9783,-0.76954 -1.05276,-2.11593 -0.16605,-3.00264 0.59478,-0.59478 0.65171,-0.59969 1.2,-0.1035 0.31657,0.2865 0.57559,0.84171 0.57559,1.23382 0,0.82491 0.76294,1.23007 1.46578,0.7784 0.30792,-0.19789 0.45224,-0.63493 0.39638,-1.20036 -0.16926,-1.71322 1.49424,-1.96023 2.35609,-0.34986 0.46026,0.86001 -0.15967,2.2685 -1.24561,2.83006 -1.27376,0.65869 -3.62997,0.56309 -4.58218,-0.18592 z m 2.11579,-1.37198 c -0.46214,-0.46215 -0.19422,-1.30625 0.41461,-1.30625 0.46666,0 0.59706,0.16182 0.52501,0.6515 -0.0996,0.67659 -0.58177,1.0126 -0.93962,0.65475 z m -0.7672,-2.0092 c -0.18393,-0.22162 -0.55784,-1.39228 -0.83091,-2.60147 l -0.49649,-2.19852 0.67741,-0.54853 c 0.82893,-0.67122 1.47042,-0.69353 2.34419,-0.0815 0.58116,0.40706 0.66675,0.73693 0.66675,2.56972 0,1.1565 -0.13975,2.36384 -0.31055,2.68299 -0.35726,0.66754 -1.55742,0.77133 -2.0504,0.17733 z m 1.10005,-6.10113 c -0.86849,-0.22861 -1.00671,-1.33467 -0.24397,-1.9523 1.12588,-0.91168 3.00487,-0.50528 3.00487,0.64992 0,1.03349 -1.3547,1.67252 -2.7609,1.30238 z m -19.8141,6.4194 c 0.84659,-0.77749 0.85232,-1.3379 0.0227,-2.22099 -1.27908,-1.36151 -4.44771,-0.48456 -4.44771,1.23095 0,1.82761 2.8248,2.45962 4.425,0.99004 z m -3.35357,-0.68675 c -0.60521,-0.60521 -0.59335,-0.82524 0.0772,-1.43207 1.07255,-0.97065 3.05138,-0.48236 3.05138,0.75295 0,1.07376 -2.24632,1.56137 -3.12857,0.67912 z m -1.76576,-0.78086 c 1.19025,-1.1182 0.72096,-2.54911 -1.00865,-3.07545 -0.92851,-0.28256 -2.73233,0.55753 -3.14586,1.46512 -0.83423,1.83095 2.53113,3.1354 4.15451,1.61033 z m -2.98067,-0.57174 c -0.60634,-0.35316 -0.68717,-1.1938 -0.165,-1.71597 0.6055,-0.6055 2.57102,-0.44945 2.93632,0.23312 0.64213,1.19983 -1.39021,2.28727 -2.77132,1.48285 z m -2.04802,-1.05264 c 0.50766,-0.42717 0.92302,-0.9733 0.92302,-1.21364 0,-0.74317 -1.41281,-1.90977 -2.31137,-1.90857 -1.29144,0.002 -2.78863,1.04569 -2.78863,1.94447 0,1.89646 2.48884,2.59822 4.17698,1.17774 z m -2.67432,-0.21243 c -0.91725,-0.46145 -1.09254,-1.17816 -0.44622,-1.82449 0.56892,-0.56891 2.26407,-0.6459 2.78356,-0.12641 1.18192,1.18192 -0.71637,2.76637 -2.33734,1.9509 z m 15.39206,-0.8599 c 0.77614,-0.41338 1.38244,-1.14764 1.39574,-1.69033 0.005,-0.21412 -0.36171,-0.73354 -0.81546,-1.15425 -0.67581,-0.6266 -1.03265,-0.73711 -1.97329,-0.6111 -1.44214,0.1932 -2.30171,0.95286 -2.30171,2.03416 0,1.48218 2.079,2.28206 3.69472,1.42152 z m -2.51369,-1.11375 c -0.58743,-0.48186 -0.66759,-0.70345 -0.40808,-1.12801 0.71278,-1.16611 3.42705,-1.00598 3.42705,0.20218 0,1.21024 -1.94509,1.80674 -3.01897,0.92583 z m -2.15603,-0.63396 c 1.80106,-1.09813 0.99554,-3.30329 -1.20665,-3.30329 -1.97328,0 -3.53612,1.74416 -2.58727,2.88746 0.91155,1.09834 2.40589,1.26213 3.79392,0.41583 z m -2.87625,-0.56681 c -0.64187,-0.40686 -0.28381,-1.64023 0.59857,-2.06177 0.90061,-0.43026 2.15928,-0.11143 2.43913,0.61787 0.29486,0.76837 -0.63117,1.70785 -1.67846,1.70283 -0.5269,-0.002 -1.13855,-0.11905 -1.35924,-0.25893 z m -2.08063,-0.98486 c 0.28497,-0.14595 0.66999,-0.54914 0.85561,-0.89596 0.27289,-0.5099 0.22537,-0.78131 -0.24831,-1.41812 -0.79811,-1.07297 -3.03994,-1.27302 -3.95963,-0.35333 -1.05912,1.05912 -0.62923,2.56411 0.88421,3.0955 0.50512,0.17735 1.68592,-0.0274 2.46812,-0.42809 z M 243.66,155.72584 c -0.53795,-0.53795 -0.43781,-1.05148 0.30675,-1.57299 1.69107,-1.18447 3.83501,0.0884 2.46182,1.46156 -0.55655,0.55655 -2.25508,0.62492 -2.76857,0.11143 z m -5.2513,0.0732 c 2.2067,-1.34551 2.3813,-3.10583 0.43795,-4.41546 -0.94823,-0.63901 -0.99784,-0.76522 -1.04604,-2.66107 -0.0431,-1.69576 -0.1554,-2.07507 -0.75884,-2.56346 -0.91026,-0.73671 -1.56893,-0.72417 -2.55131,0.0486 -0.87708,0.68991 -0.9707,1.39673 -0.45586,3.44137 0.3208,1.27399 0.29603,1.37276 -0.6,2.39328 -1.02141,1.16333 -1.1056,1.54005 -0.59472,2.66131 0.72633,1.59411 3.7693,2.19271 5.56882,1.09547 z m -3.5087,-0.0524 c -1.17202,-0.32504 -2.1,-1.24299 -2.1,-2.07731 0,-0.30252 0.32811,-0.92881 0.72913,-1.39176 0.83948,-0.96912 1.27467,-0.75717 1.80565,0.87939 0.54056,1.6661 1.94351,1.40116 1.96522,-0.37112 0.0157,-1.27734 0.43422,-1.67184 1.33728,-1.26038 0.42914,0.19553 0.89276,0.65965 1.03027,1.03139 0.76249,2.06118 -2.05058,3.9433 -4.76755,3.18979 z m 0.82142,-2.3289 c -0.18699,-0.71502 -0.0126,-0.9319 0.74945,-0.9319 0.41976,0 0.54549,0.17785 0.47499,0.67193 -0.12319,0.86353 -1.01699,1.05329 -1.22444,0.25997 z m -0.78444,-1.88788 c -0.51634,-1.36442 -1.01768,-4.10101 -0.83738,-4.57087 0.29765,-0.77566 1.44407,-1.15576 2.3952,-0.79413 l 0.8278,0.31472 -0.0863,2.77813 -0.0863,2.77813 -0.97519,0.094 c -0.78929,0.0761 -1.02526,-0.0383 -1.23783,-0.6 z m 29.08631,2.28491 c 0.96385,-0.87228 0.7263,-2.12351 -0.52857,-2.78402 -1.04439,-0.54972 -2.07793,-0.40445 -3.0717,0.43176 -1.14111,0.96017 -1.16921,1.68571 -0.098,2.53012 0.96873,0.76364 2.75275,0.67784 3.69829,-0.17786 z m -2.94829,-0.13828 c -0.74429,-0.29916 -0.91916,-1.42649 -0.315,-2.03065 0.59724,-0.59724 2.57064,-0.45015 2.92837,0.21827 0.43711,0.81675 0.11223,1.42796 -0.95719,1.80077 -0.50639,0.17653 -0.93432,0.3124 -0.95095,0.30194 -0.0166,-0.0105 -0.33398,-0.14111 -0.70523,-0.29033 z m -47.11033,33.87997 -0.68533,-0.25893 0.0853,-11.33085 0.0853,-11.33084 5.2605,-7.5 c 6.34037,-9.03958 7.13096,-10.30417 8.67948,-13.8833 2.79227,-6.45381 3.4324,-9.25584 5.29256,-23.1667 0.73913,-5.5275 1.80501,-13.4925 2.36862,-17.7 0.5636,-4.207496 1.70788,-12.78 2.54283,-19.05 0.83495,-6.27 1.85288,-13.877973 2.26205,-16.906605 0.40918,-3.028635 0.74396,-6.289746 0.74396,-7.246914 0,-1.616172 0.0446,-1.728642 0.6254,-1.576764 0.34397,0.08995 0.77069,0.48243 0.94827,0.872178 0.35446,0.777948 0.36361,0.687507 -1.42135,14.058105 -0.59473,4.455 -1.4724,11.07 -1.95038,14.7 -0.78553,5.965842 -1.94654,14.65854 -4.06694,30.45 -2.21613,16.5044 -2.70505,18.8582 -5.14515,24.77033 -1.94506,4.71267 -2.94126,6.36605 -9.20635,15.27967 l -5.27151,7.5 -0.006,11.15729 c -0.003,6.13652 -0.10725,11.21692 -0.231,11.28978 -0.12375,0.0729 -0.5334,0.016 -0.91033,-0.12645 z m 1.4841,-10.36239 0.0488,-10.45823 0.2565,9.3 c 0.14108,5.115 0.37268,9.50808 0.51467,9.7624 0.17256,0.30907 0.0713,0.69316 -0.30527,1.15824 -0.55359,0.68366 -0.5626,0.51287 -0.51468,-9.76241 z M 304.05,162.51851 c -0.66,-0.21577 -4.6425,-1.48991 -8.85,-2.83141 -11.864,-3.78267 -21.00346,-6.7066 -30,-9.59771 -4.5375,-1.45817 -11.2875,-3.61823 -15,-4.80014 -11.52664,-3.66961 -16.14727,-5.18541 -16.53242,-5.42345 -0.28018,-0.17316 0.41226,-3.41068 2.82951,-13.22961 1.76026,-7.15019 4.68556,-19.07535 6.50067,-26.50035 9.52301,-38.955351 8.34359,-34.350528 8.79746,-34.34811 0.19513,9e-4 6.63228,2.010699 14.30478,4.465911 7.6725,2.455212 18.675,5.973408 24.45,7.818216 5.775,1.844808 14.019,4.489812 18.32001,5.877783 l 7.82001,2.523588 -0.38238,2.781306 c -0.2103,1.529718 -0.46662,3.456306 -0.56958,4.281306 -0.18294,1.465654 -1.38201,10.45714 -5.98098,44.85 -2.08794,15.61449 -3.49254,23.60771 -4.27233,24.31276 -0.12912,0.11673 -0.77475,0.0357 -1.43475,-0.18009 z m -1.47897,-31.93355 C 308.33775,107.15344 311.1,95.846024 311.1,95.670954 c 0,-0.089 -0.64125,-0.35736 -1.425,-0.5963 -1.93314,-0.589338 -5.93241,-1.863552 -19.875,-6.332418 -6.5175,-2.088984 -15.225,-4.876134 -19.35,-6.193665 -4.125,-1.317528 -7.87651,-2.517945 -8.33669,-2.667588 -0.71671,-0.233064 -0.87549,-0.176943 -1.1073,0.391389 -0.14883,0.364908 -2.1831,8.493468 -4.5206,18.063472 -2.33749,9.569996 -5.032,20.548146 -5.9878,24.395886 -1.19281,4.80185 -1.62959,7.03516 -1.39272,7.12114 0.18981,0.0689 4.19261,1.35318 8.89511,2.85398 4.7025,1.5008 10.2375,3.26921 12.3,3.92979 2.0625,0.66059 5.37,1.71512 7.35,2.3434 1.98,0.62828 5.355,1.71125 7.5,2.40659 10.2602,3.32605 12.93291,4.14784 13.33325,4.09962 0.31409,-0.0378 1.43835,-4.13611 4.08778,-14.90129 z M 283.5,140.13353 c -8.1675,-2.63487 -16.875,-5.44474 -19.35,-6.24415 -2.475,-0.79941 -6.525,-2.0894 -9,-2.86665 -2.475,-0.77725 -4.60814,-1.5109 -4.7403,-1.63034 -0.13217,-0.11943 0.43374,-2.97102 1.25756,-6.33685 0.82382,-3.36584 2.52582,-10.3047 3.78222,-15.4197 1.25641,-5.115 3.15988,-12.877496 4.22995,-17.25 1.07007,-4.3725 2.07736,-8.44587 2.23843,-9.051936 l 0.29284,-1.101933 2.61965,0.857709 c 1.44081,0.471741 5.85965,1.887189 9.81965,3.145437 3.96,1.258251 9.225,2.94357 11.7,3.745155 2.475,0.801585 7.74,2.48949 11.7,3.7509 3.96,1.26141 8.43189,2.695257 9.93753,3.186332 l 2.73753,0.89285 -0.56049,2.31274 c -0.57531,2.373836 -5.79711,23.715866 -9.42909,38.537746 -1.12199,4.57875 -2.11772,8.31113 -2.21273,8.29419 -0.095,-0.0169 -6.85525,-2.18662 -15.02275,-4.8215 z m 16.06791,-1.91432 c 0.92532,-3.71164 3.41103,-13.84658 7.94385,-32.38909 1.14855,-4.6983 2.08824,-8.652476 2.08824,-8.787056 0,-0.13457 -1.11375,-0.59137 -2.475,-1.01511 -2.28177,-0.71027 -13.37509,-4.255904 -31.275,-9.996059 -11.45098,-3.672105 -12.14601,-3.872169 -12.41462,-3.573558 -0.1373,0.152628 -1.56663,5.677503 -3.17631,12.277507 -1.60968,6.599996 -4.06875,16.636466 -5.46461,22.303266 -1.39586,5.66679 -2.46652,10.37466 -2.37925,10.46194 0.0873,0.0873 4.1808,1.44012 9.09673,3.00633 15.16265,4.83082 25.19826,8.04435 30.98806,9.92279 3.0525,0.99036 5.6737,1.77179 5.82489,1.73653 0.15119,-0.0353 0.71055,-1.81164 1.24302,-3.94749 z M 289.35,138.9556 c -4.62,-1.48304 -11.37,-3.64346 -15,-4.80095 -3.63,-1.15749 -6.9375,-2.22377 -7.35,-2.36951 -0.4125,-0.14574 -3.75375,-1.22408 -7.425,-2.39631 -3.67125,-1.17222 -6.675,-2.17756 -6.675,-2.23409 0,-0.0565 1.42157,-5.8889 3.15904,-12.96083 1.73747,-7.07194 4.18468,-17.043066 5.43825,-22.15807 1.25357,-5.115 2.31449,-9.341229 2.35759,-9.391623 0.0742,-0.08675 2.79016,0.769938 22.79512,7.190268 14.09748,4.524399 20.65377,6.612279 21.675,6.902489 0.53625,0.15239 0.975,0.32076 0.975,0.37417 0,0.0534 -1.47399,6.088306 -3.27555,13.410896 -1.80153,7.32259 -4.25988,17.33005 -5.46294,22.2388 -1.20307,4.90875 -2.32782,8.91739 -2.49945,8.90809 -0.17164,-0.009 -4.09206,-1.2303 -8.71206,-2.71333 z m -40.05,-9.72044 c 0,-0.0829 1.33638,-5.58412 2.96973,-12.225 1.63335,-6.64088 3.60856,-14.70682 4.38937,-17.924316 2.90141,-11.955934 4.59836,-18.657466 4.76717,-18.826276 0.43547,-0.435468 0.31519,0.357087 -0.64894,4.276272 -0.56828,2.31 -2.57253,10.477504 -4.45389,18.15 -1.88137,7.6725 -4.12687,16.81875 -4.98999,20.325 -0.86312,3.50625 -1.67375,6.375 -1.80138,6.375 -0.12764,0 -0.23207,-0.0678 -0.23207,-0.15068 z m -20.7,16.57366 c 0,-0.0919 0.39536,-1.04824 0.87858,-2.12525 1.18991,-2.65207 2.85985,-7.92234 3.43723,-10.84773 0.40304,-2.04206 2.10241,-14.50593 6.78993,-49.8 0.48212,-3.63 1.34814,-10.11 1.92449,-14.4 0.57636,-4.29 1.08658,-8.416371 1.13384,-9.169713 l 0.0859,-1.369716 3.276,1.069716 3.27601,1.069713 0.87542,2.629281 0.87542,2.629281 -2.11712,8.620719 c -1.1644,4.741395 -3.20939,13.075719 -4.5444,18.520719 -1.33502,5.445004 -3.55471,14.49 -4.93264,20.1 -1.37793,5.61 -3.40748,13.9125 -4.51009,18.45 -1.89975,7.81786 -2.07663,8.35984 -3.37685,10.34688 -1.66504,2.54458 -3.07172,4.50279 -3.07172,4.2761 z M 310.8,84.219565 C 293.56959,78.677296 280.84994,74.595331 277.65,73.581139 265.59047,69.75898 260.0337,67.98046 256.01041,66.655093 l -4.5396,-1.495449 -0.82107,-2.251239 c -0.45159,-1.238178 -0.76041,-2.31189 -0.68628,-2.386026 0.37288,-0.372876 3.26185,1.017675 4.58654,2.20764 4.26149,3.828099 9.99037,6.092262 13.59252,5.372019 0.71089,-0.14214 1.36658,-0.451434 1.4571,-0.687318 0.0905,-0.235884 0.34714,-0.42888 0.57029,-0.42888 0.22313,0 4.02244,1.158507 8.4429,2.574462 4.42045,1.415952 12.69469,4.065042 18.38719,5.886867 5.6925,1.821822 11.295,3.61689 12.45,3.989037 l 2.1,0.676632 0,1.161501 c 0,1.082394 0.073,1.179534 1.0713,1.426293 0.92256,0.228027 1.24707,0.148482 2.33712,-0.572883 0.89934,-0.595149 1.35879,-0.744711 1.58691,-0.516576 0.2667,0.266697 0.43029,4.236786 0.18252,4.429521 -0.0428,0.03331 -2.71035,-0.786198 -5.92785,-1.821129 z m 1.62114,-1.926009 -0.62886,-0.25425 0.51972,-3.701733 c 0.56259,-4.007115 1.19409,-8.703996 1.98,-14.726733 0.50379,-3.860889 0.68085,-4.226127 1.67241,-3.45 0.43521,0.340653 0.34518,1.364187 -0.98301,11.175 -0.80415,5.94 -1.46643,10.90125 -1.47174,11.025 -0.012,0.277566 -0.27594,0.261246 -1.08852,-0.06728 z M 309,78.954889 c -6.2952,-2.022954 -35.24864,-11.294265 -40.8,-13.064751 -3.3825,-1.078776 -8.1075,-2.59488 -10.5,-3.369117 -2.3925,-0.77424 -7.75587,-2.482638 -11.9186,-3.796443 -7.4696,-2.35749 -7.56868,-2.399529 -7.575,-3.213738 -0.004,-0.45375 0.0949,-0.824586 0.2186,-0.824082 0.29668,0.0012 5.01007,1.469337 14.925,4.648845 4.455,1.428624 11.2725,3.611157 15.15,4.850076 3.8775,1.238919 10.56,3.377835 14.85,4.753146 4.29,1.375311 11.2425,3.599913 15.45,4.943556 14.55699,4.648704 13.48524,4.200054 12.95391,5.422704 -0.17904,0.412032 -0.51483,0.369333 -2.75391,-0.350196 z m 1.2,-1.759422 c -1.4145,-0.473343 -28.42613,-9.125817 -40.8,-13.069224 -2.2275,-0.709878 -6.21,-1.984407 -8.85,-2.832288 -5.48299,-1.760952 -13.73004,-4.389816 -18.675,-5.952918 -2.88754,-0.91275 -3.37219,-1.156269 -3.35555,-1.686018 0.0107,-0.340548 0.45608,-3.724179 0.98976,-7.519179 0.95949,-6.823029 0.97816,-6.899118 1.67394,-6.820848 0.387,0.04353 8.95285,2.723256 19.03524,5.954943 10.08239,3.231687 19.34411,6.185598 20.58161,6.564243 1.2375,0.378648 4.14,1.302528 6.45,2.053068 2.31,0.75054 7.845,2.531103 12.3,3.956805 4.455,1.425699 9.56421,3.064299 11.35383,3.641328 l 3.2538,1.049148 -0.16686,0.950655 c -0.0918,0.522861 -0.51789,3.650658 -0.94686,6.950658 -0.429,3.3 -0.87312,6.295149 -0.98694,6.655887 L 311.85,77.747614 310.2,77.195467 Z m -47.12744,-9.87858 c -0.9226,-0.295179 -2.49873,-0.947088 -3.50252,-1.448685 -2.50423,-1.251384 -5.96093,-3.982362 -5.04061,-3.982362 0.1337,0 7.47033,2.334354 12.45025,3.961398 l 2.82969,0.924516 -0.68792,0.557043 c -0.8997,0.728535 -3.75215,0.722916 -6.04889,-0.01191 z m 52.85159,-7.576179 c -0.42393,-0.159537 -0.61113,-0.379812 -0.45,-0.52956 0.15171,-0.141021 3.61971,-2.509785 7.70667,-5.263917 6.7437,-4.54449 7.50612,-4.982406 8.24547,-4.735959 0.77424,0.258081 0.56175,0.44022 -4.28079,3.669252 -2.80254,1.868727 -6.3105,4.238211 -7.7955,5.265516 -2.30487,1.594482 -2.80623,1.827849 -3.42585,1.594668 z M 235.59103,57.74845 c -0.27414,-0.174279 -0.18911,-1.502403 0.35985,-5.620407 0.39536,-2.965713 1.00418,-7.552203 1.35295,-10.192203 0.88421,-6.693123 0.89496,-6.73326 1.72117,-6.422898 0.42973,0.161427 0.67436,0.502347 0.67323,0.938232 -9e-4,0.376566 -0.60668,5.207166 -1.34601,10.734666 -0.73933,5.5275 -1.34604,10.21875 -1.34823,10.425 -0.004,0.41343 -0.84961,0.495744 -1.41296,0.13761 z M 237.3,57.65626 c 0,-0.188877 0.19463,-1.710741 0.43251,-3.381915 0.23788,-1.671177 0.8521,-6.278502 1.36495,-10.238502 0.51285,-3.96 0.98737,-7.47 1.05451,-7.8 0.0741,-0.364398 1.39352,-1.441443 3.36005,-2.742864 1.78089,-1.178574 5.24476,-3.507324 7.69749,-5.174999 2.45274,-1.667676 4.51149,-3.032137 4.575,-3.032137 0.0635,0 0.11549,0.197239 0.11549,0.438308 0,0.241069 -3.48027,2.793779 -7.73393,5.672689 l -7.73392,5.234379 -1.29908,9.832206 c -1.18933,9.001581 -1.25782,9.862371 -0.81072,10.189299 0.43744,0.319863 0.4096,0.408699 -0.267,0.852024 C 237.57636,57.818596 237.3,57.87403 237.3,57.65626 Z m 1.80251,-22.462518 c -0.29077,-0.183834 -0.34331,-0.379005 -0.15,-0.557289 0.16362,-0.150906 3.61598,-2.512341 7.67191,-5.247634 5.61886,-3.789323 7.52929,-4.932757 8.025,-4.803128 0.35782,0.09357 0.65058,0.266957 0.65058,0.3853 0,0.252992 -15.1399,10.517015 -15.50311,10.510259 -0.13579,-0.0024 -0.44826,-0.131907 -0.69438,-0.287508 z M 304.5,55.753549 c 0,-0.316644 -0.57573,-0.449673 -0.74697,-0.172599 -0.10365,0.167691 0.0219,0.304893 0.27927,0.304893 0.25722,0 0.4677,-0.05953 0.4677,-0.132294 z m 19.8,-7.502469 c 0,-0.07412 -2.39625,-0.890784 -5.325,-1.814811 -2.92875,-0.924027 -7.35,-2.339415 -9.825,-3.145308 -2.475,-0.80589 -7.1325,-2.297718 -10.35,-3.315168 -3.2175,-1.01745 -7.51396,-2.388705 -9.54769,-3.047238 -2.03373,-0.65853 -3.75731,-1.137711 -3.83017,-1.064847 -0.12926,0.129255 1.32476,0.61104 16.82786,5.575875 4.125,1.321023 10.605,3.41166 14.4,4.645857 6.70269,2.17983 7.65,2.448003 7.65,2.16564 z m -44.7,-0.465237 c 0,-0.165 -0.21047,-0.3 -0.46771,-0.3 -0.25723,0 -0.38427,0.135 -0.28229,0.3 0.10198,0.165 0.31244,0.3 0.46771,0.3 0.15526,0 0.28229,-0.135 0.28229,-0.3 z m -24.9,-7.932294 c 0,-0.316644 -0.57573,-0.449673 -0.74698,-0.172599 -0.10363,0.167691 0.022,0.304893 0.27927,0.304893 0.25724,0 0.46771,-0.05953 0.46771,-0.132294 z"
     id="path4146"
     inkscape:connector-curvature="0" />
</svg>
