<?xml version="1.0" encoding="utf-8"?>
<!-- Generator: Adobe Illustrator 24.0.3, SVG Export Plug-In . SVG Version: 6.00 Build 0)  -->
<svg version="1.0" id="Capa_1" xmlns="http://www.w3.org/2000/svg" xmlns:xlink="http://www.w3.org/1999/xlink" x="0px" y="0px"
	 width="123px" height="1080px" viewBox="0 0 123 1080" enable-background="new 0 0 123 1080" xml:space="preserve">
<rect fill="#010202" width="123" height="1080"/>
<g>
	<rect x="122" fill="#262626" width="1" height="1080"/>
</g>
<g>
	<rect y="122" fill="#262626" width="122.5" height="1"/>
</g>
<path fill="#818181" d="M55.1,74.9l6.3,3.8l12.4-21.2H61.6l5.8-9.9l-6.3-3.8L48.7,65h12.1L55.1,74.9z"/>
<path fill-rule="evenodd" clip-rule="evenodd" fill="#545457" d="M69.8,1014.1c-0.3-0.3-0.9-0.3-1.2,0l-6,5.2l-6-5.2
	c-0.3-0.3-0.9-0.3-1.2,0c-0.2,0.1-0.3,0.3-0.3,0.5c0,0.2,0.1,0.4,0.3,0.5l6.6,5.7c0.2,0.1,0.4,0.2,0.6,0.2c0.2,0,0.5-0.1,0.6-0.2
	l6.6-5.7C70.1,1014.9,70.1,1014.4,69.8,1014.1z"/>
<path fill-rule="evenodd" clip-rule="evenodd" fill="#2C2C2E" d="M69.8,1007.1c-0.3-0.3-0.9-0.3-1.2,0l-6,5.2l-6-5.2
	c-0.3-0.3-0.9-0.3-1.2,0c-0.2,0.1-0.3,0.3-0.3,0.5c0,0.2,0.1,0.4,0.3,0.5l6.6,5.7c0.2,0.1,0.4,0.2,0.6,0.2c0.2,0,0.5-0.1,0.6-0.2
	l6.6-5.7C70.1,1007.9,70.1,1007.4,69.8,1007.1z"/>
<path fill-rule="evenodd" clip-rule="evenodd" fill="#1F1F20" d="M69.8,1000.2c-0.3-0.3-0.9-0.3-1.2,0l-6,5.2l-6-5.2
	c-0.3-0.3-0.9-0.3-1.2,0c-0.2,0.1-0.3,0.3-0.3,0.5c0,0.2,0.1,0.4,0.3,0.5l6.6,5.7c0.2,0.1,0.4,0.2,0.6,0.2c0.2,0,0.5-0.1,0.6-0.2
	l6.6-5.7C70.1,1001,70.1,1000.5,69.8,1000.2z"/>
</svg>
