<?xml version="1.0" encoding="UTF-8" standalone="no"?>
<!DOCTYPE svg PUBLIC "-//W3C//DTD SVG 1.1//EN" "http://www.w3.org/Graphics/SVG/1.1/DTD/svg11.dtd">
<svg width="100%" height="100%" viewBox="0 0 569 96" version="1.1" xmlns="http://www.w3.org/2000/svg" xmlns:xlink="http://www.w3.org/1999/xlink" xml:space="preserve" xmlns:serif="http://www.serif.com/" style="fill-rule:evenodd;clip-rule:evenodd;stroke-linejoin:round;stroke-miterlimit:2;">
    <g id="Artboard1" transform="matrix(1.00216,0,0,1.01962,-0.000192416,-111.199)">
        <rect x="0" y="109.059" width="566.929" height="93.322" style="fill:none;"/>
        <g transform="matrix(0.99784,0,0,0.980755,-66.4176,41.803)">
            <g id="g6708">
                <g id="flowRoot6696" transform="matrix(1,0,0,1,0,952.362)">
                    <path id="path6717" d="M153.646,-811.349L122.768,-811.349L122.768,-814.847C123.886,-814.876 125.322,-814.993 127.078,-815.194C128.836,-815.388 130.041,-815.666 130.699,-816.032C131.718,-816.652 132.466,-817.365 132.94,-818.174C133.417,-818.979 133.653,-819.987 133.653,-821.203L133.653,-872.024L132.915,-872.024L109.079,-812.484L106.618,-812.484L83.914,-873.254L83.274,-873.254L83.274,-831.542C83.274,-827.506 83.529,-824.434 84.037,-822.334C84.547,-820.232 85.326,-818.723 86.378,-817.807C87.101,-817.119 88.592,-816.455 90.857,-815.831C93.122,-815.207 94.601,-814.878 95.29,-814.85L95.29,-811.354L67.07,-811.354L67.07,-814.85C68.549,-814.979 70.098,-815.225 71.723,-815.585C73.348,-815.946 74.603,-816.486 75.491,-817.21C76.641,-818.125 77.429,-819.54 77.855,-821.446C78.284,-823.345 78.495,-826.534 78.495,-831L78.495,-866.756C78.495,-868.823 78.25,-870.513 77.757,-871.825C77.266,-873.137 76.559,-874.204 75.64,-875.026C74.622,-875.913 73.375,-876.568 71.897,-876.998C70.419,-877.422 68.959,-877.666 67.515,-877.736L67.515,-881.231L91.351,-881.231L111.344,-828.832L128.435,-872.663C129.058,-874.267 129.592,-875.951 130.036,-877.711C130.479,-879.468 130.719,-880.643 130.75,-881.232L153.551,-881.232L153.551,-877.736C152.632,-877.702 151.457,-877.553 150.03,-877.292C148.602,-877.026 147.559,-876.78 146.903,-876.555C145.788,-876.162 145.031,-875.5 144.636,-874.583C144.241,-873.664 144.045,-872.664 144.045,-871.58L144.045,-821.201C144.045,-820.051 144.241,-819.084 144.636,-818.295C145.031,-817.51 145.785,-816.816 146.903,-816.231C147.495,-815.897 148.546,-815.594 150.056,-815.317C151.565,-815.042 152.764,-814.88 153.65,-814.852L153.65,-811.352L153.646,-811.352L153.646,-811.349Z" style="fill:rgb(255,0,0);fill-rule:nonzero;"/>
                    <path id="path6719" d="M197.354,-812.238C195.812,-811.675 194.459,-811.228 193.292,-810.882C192.125,-810.537 190.805,-810.366 189.327,-810.366C186.764,-810.366 184.723,-810.962 183.195,-812.162C181.669,-813.359 180.692,-815.105 180.265,-817.406L179.969,-817.406C177.835,-815.045 175.545,-813.234 173.098,-811.99C170.652,-810.738 167.705,-810.119 164.258,-810.119C160.613,-810.119 157.618,-811.228 155.271,-813.469C152.923,-815.698 151.751,-818.62 151.751,-822.234C151.751,-824.106 152.013,-825.783 152.539,-827.258C153.065,-828.737 153.853,-830.065 154.902,-831.246C155.724,-832.226 156.807,-833.103 158.152,-833.88C159.5,-834.649 160.762,-835.262 161.944,-835.727C163.424,-836.284 166.419,-837.32 170.932,-838.831C175.447,-840.336 178.491,-841.518 180.067,-842.375L180.067,-847.249C180.067,-847.676 179.978,-848.497 179.796,-849.711C179.614,-850.925 179.23,-852.076 178.638,-853.16C177.981,-854.37 177.055,-855.431 175.855,-856.335C174.658,-857.235 172.959,-857.689 170.759,-857.689C169.247,-857.689 167.845,-857.434 166.548,-856.927C165.251,-856.413 164.34,-855.883 163.816,-855.325C163.816,-854.665 163.972,-853.7 164.284,-852.42C164.597,-851.142 164.752,-849.958 164.752,-848.875C164.752,-847.725 164.234,-846.675 163.199,-845.725C162.166,-844.766 160.729,-844.297 158.891,-844.297C157.25,-844.297 156.043,-844.875 155.27,-846.044C154.5,-847.205 154.114,-848.512 154.114,-849.959C154.114,-851.468 154.647,-852.914 155.715,-854.294C156.782,-855.672 158.169,-856.902 159.878,-857.985C161.356,-858.9 163.145,-859.686 165.245,-860.325C167.348,-860.967 169.398,-861.286 171.401,-861.286C174.159,-861.286 176.562,-861.096 178.616,-860.721C180.669,-860.34 182.531,-859.53 184.206,-858.282C185.879,-857.065 187.152,-855.416 188.022,-853.334C188.892,-851.246 189.327,-848.564 189.327,-845.281C189.327,-840.586 189.276,-836.424 189.18,-832.799C189.08,-829.169 189.034,-825.204 189.034,-820.903C189.034,-819.624 189.255,-818.603 189.698,-817.847C190.141,-817.089 190.823,-816.451 191.743,-815.929C192.235,-815.631 193.014,-815.468 194.083,-815.437C195.149,-815.403 196.24,-815.384 197.356,-815.384L197.356,-812.238L197.354,-812.238ZM180.168,-838.241C177.376,-837.418 174.932,-836.618 172.83,-835.828C170.727,-835.041 168.775,-834.057 166.971,-832.873C165.328,-831.756 164.032,-830.435 163.078,-828.911C162.129,-827.385 161.65,-825.564 161.65,-823.469C161.65,-820.74 162.364,-818.741 163.793,-817.46C165.222,-816.182 167.033,-815.539 169.234,-815.539C171.565,-815.539 173.617,-816.107 175.39,-817.239C177.162,-818.373 178.658,-819.705 179.871,-821.254L180.168,-838.241Z" style="fill:rgb(255,0,0);fill-rule:nonzero;"/>
                    <path id="path6721" d="M223.777,-835.137C225.123,-833.955 226.158,-832.591 226.881,-831.053C227.604,-829.506 227.964,-827.618 227.964,-825.389C227.964,-820.887 226.279,-817.212 222.918,-814.356C219.552,-811.502 215.191,-810.071 209.842,-810.071C207.017,-810.071 204.415,-810.583 202.035,-811.6C199.653,-812.617 197.954,-813.55 196.937,-814.407L195.953,-811.205L192.26,-811.205L191.768,-828.101L195.165,-828.101C195.428,-826.822 195.985,-825.323 196.839,-823.622C197.693,-821.914 198.727,-820.373 199.943,-818.993C201.223,-817.545 202.757,-816.333 204.547,-815.347C206.336,-814.365 208.348,-813.867 210.58,-813.867C213.731,-813.867 216.162,-814.582 217.87,-816.013C219.576,-817.439 220.432,-819.484 220.432,-822.146C220.432,-823.525 220.162,-824.709 219.619,-825.712C219.077,-826.712 218.28,-827.588 217.23,-828.349C216.147,-829.105 214.817,-829.782 213.241,-830.392C211.665,-830.998 209.909,-831.599 207.971,-832.191C206.426,-832.65 204.712,-833.279 202.825,-834.087C200.936,-834.893 199.32,-835.839 197.973,-836.92C196.529,-838.066 195.347,-839.483 194.427,-841.155C193.508,-842.828 193.047,-844.799 193.047,-847.064C193.047,-851.037 194.526,-854.4 197.48,-857.161C200.436,-859.919 204.392,-861.299 209.35,-861.299C211.251,-861.299 213.199,-861.053 215.186,-860.564C217.17,-860.067 218.788,-859.479 220.037,-858.791L221.17,-861.351L224.715,-861.351L225.453,-845.743L222.056,-845.743C221.367,-849.222 219.88,-852.052 217.598,-854.239C215.315,-856.42 212.533,-857.512 209.248,-857.512C206.558,-857.512 204.437,-856.836 202.895,-855.491C201.352,-854.14 200.581,-852.516 200.581,-850.615C200.581,-849.136 200.834,-847.906 201.344,-846.922C201.854,-845.936 202.615,-845.102 203.635,-844.409C204.618,-843.75 205.858,-843.134 207.353,-842.562C208.847,-841.988 210.693,-841.334 212.895,-840.617C215.062,-839.929 217.106,-839.12 219.026,-838.205C220.946,-837.271 222.528,-836.25 223.777,-835.137Z" style="fill:rgb(255,0,0);fill-rule:nonzero;"/>
                    <path id="path6723" d="M254.78,-813.471C252.645,-812.582 250.627,-811.834 248.722,-811.229C246.818,-810.619 244.486,-810.319 241.729,-810.319C237.657,-810.319 234.792,-811.34 233.135,-813.395C231.476,-815.446 230.647,-818.346 230.647,-822.085L230.647,-854.981L221.88,-854.981L221.88,-859.711L230.844,-859.711L230.844,-874.829L239.807,-874.829L239.807,-859.711L253.744,-859.711L253.744,-854.981L239.906,-854.981L239.906,-827.848C239.906,-825.809 239.979,-824.11 240.128,-822.747C240.275,-821.385 240.628,-820.189 241.186,-819.178C241.711,-818.225 242.5,-817.502 243.55,-817.012C244.6,-816.52 246.012,-816.274 247.784,-816.274C248.604,-816.274 249.81,-816.348 251.405,-816.5C252.998,-816.646 254.121,-816.832 254.779,-817.065L254.78,-813.471Z" style="fill:rgb(255,0,0);fill-rule:nonzero;"/>
                    <path id="path6725" d="M292.331,-822.775C290.296,-818.9 287.571,-815.814 284.156,-813.517C280.742,-811.218 276.818,-810.073 272.386,-810.073C268.48,-810.073 265.057,-810.761 262.116,-812.14C259.179,-813.517 256.758,-815.392 254.852,-817.753C252.949,-820.115 251.528,-822.872 250.592,-826.024C249.655,-829.178 249.189,-832.503 249.189,-836.02C249.189,-839.171 249.69,-842.266 250.691,-845.305C251.693,-848.337 253.162,-851.073 255.099,-853.503C256.971,-855.83 259.293,-857.712 262.067,-859.143C264.842,-860.572 267.954,-861.285 271.401,-861.285C274.946,-861.285 277.983,-860.723 280.51,-859.611C283.039,-858.493 285.09,-856.967 286.666,-855.033C288.177,-853.189 289.301,-851.021 290.04,-848.529C290.777,-846.035 291.148,-843.324 291.148,-840.406L291.148,-837.155L258.991,-837.155C258.991,-833.967 259.294,-831.079 259.9,-828.485C260.509,-825.89 261.468,-823.61 262.782,-821.638C264.06,-819.733 265.735,-818.232 267.804,-817.132C269.871,-816.028 272.334,-815.486 275.191,-815.486C278.113,-815.486 280.632,-816.166 282.75,-817.533C284.87,-818.887 286.913,-821.346 288.882,-824.89L292.331,-822.775ZM281.447,-841.292C281.447,-843.131 281.292,-845.1 280.98,-847.201C280.667,-849.303 280.167,-851.058 279.478,-852.472C278.724,-853.979 277.689,-855.206 276.374,-856.165C275.062,-857.114 273.369,-857.592 271.303,-857.592C267.854,-857.592 264.99,-856.156 262.708,-853.281C260.428,-850.408 259.188,-846.413 258.991,-841.293L281.447,-841.292Z" style="fill:rgb(255,0,0);fill-rule:nonzero;"/>
                    <path id="path6727" d="M324.761,-853.655C324.761,-851.982 324.35,-850.495 323.531,-849.198C322.711,-847.898 321.448,-847.254 319.741,-847.254C317.9,-847.254 316.498,-847.731 315.527,-848.684C314.56,-849.633 314.075,-850.685 314.075,-851.833C314.075,-852.556 314.132,-853.212 314.247,-853.804C314.361,-854.398 314.468,-854.989 314.566,-855.577C313.024,-855.577 311.216,-854.954 309.149,-853.706C307.081,-852.456 305.325,-850.685 303.878,-848.389L303.878,-820.121C303.878,-818.967 304.102,-818.033 304.544,-817.31C304.986,-816.585 305.685,-816.045 306.636,-815.685C307.458,-815.355 308.517,-815.111 309.812,-814.951C311.111,-814.781 312.234,-814.67 313.188,-814.603L313.188,-811.353L287.578,-811.353L287.578,-814.603C288.334,-814.668 289.114,-814.73 289.917,-814.798C290.722,-814.861 291.419,-814.992 292.011,-815.195C292.929,-815.49 293.612,-816.007 294.054,-816.744C294.497,-817.482 294.718,-818.443 294.718,-819.623L294.718,-849.615C294.718,-850.632 294.48,-851.636 294.005,-852.619C293.529,-853.605 292.862,-854.391 292.009,-854.983C291.387,-855.379 290.65,-855.661 289.794,-855.845C288.94,-856.022 288.021,-856.145 287.036,-856.212L287.036,-859.414L303.188,-860.498L303.877,-859.809L303.877,-852.963L304.123,-852.963C306.161,-855.624 308.427,-857.642 310.92,-859.02C313.416,-860.401 315.697,-861.089 317.765,-861.089C319.834,-861.089 321.517,-860.414 322.814,-859.068C324.114,-857.724 324.761,-855.92 324.761,-853.655Z" style="fill:rgb(255,0,0);fill-rule:nonzero;"/>
                    <path id="path6729" d="M377.213,-843.41C378.689,-841.764 379.778,-839.969 380.484,-838.015C381.193,-836.06 381.547,-833.786 381.547,-831.196C381.547,-825.019 379.261,-819.929 374.699,-815.927C370.136,-811.919 364.473,-809.921 357.71,-809.921C354.59,-809.921 351.474,-810.4 348.354,-811.371C345.235,-812.337 342.542,-813.515 340.277,-814.892L338.16,-811.295L334.222,-811.295L333.533,-835.23L337.521,-835.23C338.342,-832.277 339.303,-829.605 340.403,-827.228C341.505,-824.843 342.957,-822.624 344.762,-820.554C346.469,-818.615 348.463,-817.074 350.743,-815.925C353.026,-814.774 355.677,-814.202 358.694,-814.202C360.961,-814.202 362.936,-814.496 364.63,-815.088C366.321,-815.681 367.694,-816.521 368.742,-817.601C369.792,-818.685 370.569,-819.955 371.082,-821.416C371.593,-822.874 371.847,-824.56 371.847,-826.466C371.847,-829.25 371.06,-831.858 369.486,-834.273C367.911,-836.687 365.564,-838.515 362.441,-839.763C360.306,-840.617 357.861,-841.562 355.103,-842.595C352.347,-843.628 349.965,-844.605 347.963,-845.528C344.025,-847.299 340.961,-849.622 338.777,-852.496C336.593,-855.367 335.504,-859.122 335.504,-863.752C335.504,-866.407 336.046,-868.887 337.128,-871.188C338.212,-873.484 339.753,-875.54 341.757,-877.344C343.661,-879.048 345.911,-880.389 348.504,-881.358C351.097,-882.326 353.808,-882.81 356.629,-882.81C359.847,-882.81 362.728,-882.32 365.273,-881.331C367.816,-880.349 370.142,-879.195 372.24,-877.888L374.261,-881.237L378.201,-881.237L378.597,-858.042L374.609,-858.042C373.89,-860.701 373.076,-863.241 372.171,-865.678C371.27,-868.105 370.098,-870.307 368.65,-872.276C367.24,-874.177 365.515,-875.702 363.482,-876.835C361.445,-877.965 358.949,-878.534 355.997,-878.534C352.88,-878.534 350.219,-877.529 348.018,-875.531C345.818,-873.523 344.718,-871.079 344.718,-868.193C344.718,-865.17 345.423,-862.668 346.836,-860.681C348.247,-858.694 350.301,-857.062 352.991,-855.783C355.388,-854.633 357.742,-853.641 360.054,-852.807C362.369,-851.967 364.611,-851.07 366.777,-850.12C368.75,-849.266 370.642,-848.297 372.465,-847.212C374.28,-846.118 375.864,-844.855 377.213,-843.41Z" style="fill:rgb(255,0,0);fill-rule:nonzero;"/>
                    <path id="path6731" d="M374.825,-795.492C374.825,-797.133 375.272,-798.471 376.179,-799.508C377.079,-800.543 378.202,-801.059 379.552,-801.059C380.601,-801.059 381.503,-800.867 382.261,-800.467C383.015,-800.071 383.689,-799.561 384.281,-798.943C384.773,-798.453 385.302,-797.776 385.857,-796.924C386.416,-796.067 386.859,-795.36 387.185,-794.805C388.83,-795.692 390.789,-798.008 393.074,-801.747C395.351,-805.492 397.01,-808.769 398.021,-811.6C394.898,-819.378 392.08,-826.337 389.55,-832.481C387.021,-838.62 384.378,-844.971 381.622,-851.542C380.999,-853.048 379.946,-854.227 378.47,-855.064C376.993,-855.902 375.515,-856.433 374.036,-856.666L374.036,-859.916L396.2,-859.916L396.2,-856.469C395.212,-856.435 394.032,-856.228 392.653,-855.854C391.274,-855.474 390.585,-855.041 390.585,-854.549C390.585,-854.353 390.658,-854.022 390.808,-853.564C390.955,-853.103 391.125,-852.626 391.327,-852.137C392.574,-848.886 394.474,-844.196 397.039,-838.075C399.603,-831.947 401.587,-827.052 402.997,-823.373C404.476,-826.888 406.012,-830.52 407.601,-834.28C409.195,-838.04 410.98,-842.479 412.947,-847.602C413.177,-848.223 413.51,-849.083 413.929,-850.185C414.355,-851.286 414.572,-852.23 414.572,-853.017C414.572,-853.869 413.828,-854.667 412.332,-855.407C410.836,-856.143 409.419,-856.597 408.07,-856.763L408.07,-859.914L426.095,-859.914L426.095,-856.857C425.109,-856.69 423.808,-856.126 422.203,-855.16C420.593,-854.188 419.393,-852.819 418.606,-851.048C414.698,-841.985 411.221,-833.729 408.19,-826.276C405.151,-818.822 402.846,-813.339 401.272,-809.83C399.202,-805.227 397.356,-801.645 395.731,-799.067C394.106,-796.487 392.518,-794.463 390.977,-792.987C389.465,-791.606 388.096,-790.676 386.868,-790.202C385.64,-789.728 384.36,-789.488 383.055,-789.488C380.492,-789.488 378.481,-790.094 377.02,-791.307C375.554,-792.517 374.825,-793.917 374.825,-795.492Z" style="fill:rgb(255,0,0);fill-rule:nonzero;"/>
                    <path id="path6733" d="M449.757,-835.137C451.099,-833.955 452.136,-832.591 452.859,-831.053C453.582,-829.506 453.941,-827.618 453.941,-825.389C453.941,-820.887 452.257,-817.212 448.896,-814.356C445.527,-811.502 441.17,-810.071 435.818,-810.071C432.998,-810.071 430.39,-810.583 428.015,-811.6C425.631,-812.617 423.933,-813.55 422.915,-814.407L421.929,-811.205L418.236,-811.205L417.745,-828.101L421.142,-828.101C421.402,-826.822 421.959,-825.323 422.818,-823.622C423.672,-821.914 424.704,-820.373 425.922,-818.993C427.2,-817.545 428.734,-816.333 430.526,-815.347C432.313,-814.365 434.324,-813.867 436.557,-813.867C439.707,-813.867 442.139,-814.582 443.846,-816.013C445.549,-817.439 446.407,-819.484 446.407,-822.146C446.407,-823.525 446.136,-824.709 445.594,-825.712C445.051,-826.712 444.254,-827.588 443.202,-828.349C442.122,-829.105 440.791,-829.782 439.217,-830.392C437.641,-830.998 435.883,-831.599 433.945,-832.191C432.399,-832.65 430.684,-833.279 428.799,-834.087C426.907,-834.893 425.295,-835.839 423.948,-836.92C422.506,-838.066 421.319,-839.483 420.4,-841.155C419.478,-842.828 419.021,-844.799 419.021,-847.064C419.021,-851.037 420.501,-854.4 423.457,-857.161C426.413,-859.919 430.363,-861.299 435.324,-861.299C437.226,-861.299 439.176,-861.053 441.158,-860.564C443.142,-860.067 444.763,-859.479 446.012,-858.791L447.147,-861.351L450.69,-861.351L451.428,-845.743L448.031,-845.743C447.343,-849.222 445.854,-852.052 443.579,-854.239C441.292,-856.42 438.515,-857.512 435.227,-857.512C432.535,-857.512 430.414,-856.836 428.873,-855.491C427.329,-854.14 426.56,-852.516 426.56,-850.615C426.56,-849.136 426.812,-847.906 427.323,-846.922C427.833,-845.936 428.595,-845.102 429.613,-844.409C430.599,-843.75 431.842,-843.134 433.335,-842.562C434.823,-841.988 436.674,-841.334 438.874,-840.617C441.045,-839.929 443.086,-839.12 445.008,-838.205C446.922,-837.271 448.507,-836.25 449.757,-835.137Z" style="fill:rgb(255,0,0);fill-rule:nonzero;"/>
                    <path id="path6735" d="M480.756,-813.471C478.624,-812.582 476.605,-811.834 474.696,-811.229C472.795,-810.619 470.466,-810.319 467.707,-810.319C463.636,-810.319 460.77,-811.34 459.112,-813.395C457.454,-815.446 456.625,-818.346 456.625,-822.085L456.625,-854.981L447.86,-854.981L447.86,-859.711L456.819,-859.711L456.819,-874.829L465.785,-874.829L465.785,-859.711L479.722,-859.711L479.722,-854.981L465.882,-854.981L465.882,-827.848C465.882,-825.809 465.957,-824.11 466.105,-822.747C466.253,-821.384 466.607,-820.189 467.169,-819.178C467.69,-818.225 468.482,-817.502 469.526,-817.012C470.577,-816.52 471.989,-816.274 473.76,-816.274C474.581,-816.274 475.787,-816.348 477.38,-816.5C478.973,-816.646 480.098,-816.832 480.754,-817.065L480.756,-813.471Z" style="fill:rgb(255,0,0);fill-rule:nonzero;"/>
                    <path id="path6737" d="M518.308,-822.775C516.275,-818.9 513.548,-815.814 510.132,-813.517C506.718,-811.218 502.794,-810.073 498.361,-810.073C494.463,-810.073 491.035,-810.761 488.095,-812.14C485.157,-813.517 482.738,-815.392 480.827,-817.753C478.927,-820.115 477.503,-822.872 476.567,-826.024C475.629,-829.178 475.166,-832.503 475.166,-836.02C475.166,-839.171 475.67,-842.266 476.667,-845.305C477.668,-848.337 479.14,-851.073 481.075,-853.503C482.944,-855.83 485.268,-857.712 488.043,-859.143C490.815,-860.572 493.929,-861.285 497.372,-861.285C500.921,-861.285 503.956,-860.723 506.483,-859.611C509.012,-858.493 511.063,-856.967 512.639,-855.033C514.151,-853.189 515.274,-851.021 516.014,-848.529C516.748,-846.035 517.118,-843.324 517.118,-840.406L517.118,-837.155L484.964,-837.155C484.964,-833.967 485.269,-831.079 485.874,-828.485C486.478,-825.89 487.438,-823.61 488.757,-821.638C490.032,-819.733 491.714,-818.232 493.777,-817.132C495.843,-816.028 498.304,-815.486 501.166,-815.486C504.09,-815.486 506.605,-816.166 508.727,-817.533C510.844,-818.887 512.889,-821.346 514.862,-824.89L518.308,-822.775ZM507.423,-841.292C507.423,-843.131 507.269,-845.1 506.956,-847.201C506.647,-849.303 506.143,-851.058 505.454,-852.472C504.702,-853.979 503.669,-855.206 502.352,-856.165C501.036,-857.114 499.346,-857.592 497.278,-857.592C493.833,-857.592 490.965,-856.156 488.684,-853.281C486.405,-850.408 485.163,-846.413 484.966,-841.293L507.423,-841.292Z" style="fill:rgb(255,0,0);fill-rule:nonzero;"/>
                    <path id="path6739" d="M596.739,-811.349L573.048,-811.349L573.048,-814.603C573.804,-814.666 574.568,-814.73 575.339,-814.796C576.109,-814.86 576.788,-814.992 577.38,-815.192C578.298,-815.489 578.982,-816.005 579.425,-816.743C579.87,-817.479 580.091,-818.443 580.091,-819.622L580.091,-844.69C580.091,-848.102 579.31,-850.738 577.749,-852.593C576.188,-854.447 574.247,-855.375 571.917,-855.375C570.308,-855.375 568.796,-855.132 567.386,-854.639C565.974,-854.148 564.677,-853.459 563.497,-852.571C562.54,-851.845 561.745,-851.07 561.102,-850.232C560.463,-849.394 559.979,-848.694 559.649,-848.14L559.649,-820.119C559.649,-818.965 559.848,-818.023 560.243,-817.285C560.639,-816.549 561.307,-815.978 562.263,-815.586C563.019,-815.29 563.701,-815.068 564.308,-814.921C564.913,-814.775 565.71,-814.665 566.695,-814.602L566.695,-811.352L543.506,-811.352L543.506,-814.602C544.262,-814.665 544.985,-814.731 545.694,-814.797C546.397,-814.86 547.049,-814.992 547.635,-815.195C548.557,-815.49 549.237,-816.008 549.68,-816.745C550.125,-817.482 550.35,-818.443 550.35,-819.627L550.35,-844.693C550.35,-848.105 549.567,-850.74 548.004,-852.596C546.447,-854.45 544.5,-855.379 542.174,-855.379C540.565,-855.379 539.051,-855.123 537.641,-854.613C536.229,-854.098 534.932,-853.405 533.75,-852.519C532.799,-851.795 531.994,-850.983 531.338,-850.082C530.682,-849.174 530.19,-848.496 529.858,-848.038L529.858,-820.213C529.858,-819.096 530.09,-818.158 530.549,-817.406C531.008,-816.646 531.695,-816.075 532.612,-815.679C533.301,-815.349 534.01,-815.107 534.729,-814.944C535.458,-814.777 536.256,-814.663 537.143,-814.597L537.143,-811.345L513.55,-811.345L513.55,-814.597C514.306,-814.66 515.085,-814.724 515.894,-814.792C516.695,-814.853 517.39,-814.986 517.986,-815.188C518.904,-815.483 519.588,-816.001 520.027,-816.74C520.47,-817.475 520.691,-818.436 520.691,-819.62L520.691,-849.808C520.691,-850.856 520.459,-851.802 519.978,-852.638C519.501,-853.478 518.837,-854.193 517.986,-854.784C517.361,-855.18 516.591,-855.499 515.673,-855.743C514.753,-855.991 513.802,-856.142 512.816,-856.214L512.816,-859.413L529.07,-860.496L529.758,-859.808L529.758,-852.865L530.104,-852.865C530.924,-853.681 531.926,-854.655 533.108,-855.771C534.294,-856.882 535.391,-857.792 536.409,-858.478C537.557,-859.264 538.997,-859.919 540.723,-860.449C542.444,-860.97 544.309,-861.237 546.311,-861.237C549.461,-861.237 552.168,-860.39 554.436,-858.702C556.706,-857.009 558.331,-854.965 559.311,-852.569C560.495,-853.715 561.538,-854.725 562.44,-855.597C563.342,-856.465 564.534,-857.393 566.01,-858.379C567.26,-859.233 568.725,-859.922 570.418,-860.448C572.106,-860.969 573.984,-861.236 576.057,-861.236C580.161,-861.236 583.411,-859.884 585.811,-857.199C588.204,-854.505 589.403,-850.365 589.403,-844.784L589.403,-820.113C589.403,-818.962 589.598,-818.021 589.999,-817.281C590.394,-816.546 591.063,-815.971 592.019,-815.583C592.775,-815.287 593.519,-815.065 594.257,-814.916C594.997,-814.771 595.823,-814.662 596.745,-814.599L596.745,-811.347L596.739,-811.347L596.739,-811.349Z" style="fill:rgb(255,0,0);fill-rule:nonzero;"/>
                </g>
                <g id="text6704" transform="matrix(1.02676,0,0,0.973934,0,0)">
                    <path id="path6742" d="M617.473,107.04L611.127,107.04L611.127,106.084C611.319,106.084 611.599,106.056 611.962,106.034C612.322,106.006 612.559,105.962 612.683,105.901C612.883,105.77 613.016,105.655 613.086,105.572C613.158,105.486 613.196,105.349 613.196,105.168L613.196,96.898L612.92,96.898L608.446,106.634L607.852,106.634L603.502,96.71L603.23,96.71L603.23,103.389C603.23,104.033 603.27,104.525 603.35,104.865C603.432,105.199 603.565,105.454 603.765,105.626C603.921,105.723 604.193,105.826 604.57,105.927C604.95,106.032 605.281,106.084 605.561,106.084L605.561,107.04L599.78,107.04L599.78,106.125C599.978,106.091 600.267,106.041 600.651,105.99C601.035,105.934 601.326,105.843 601.522,105.702C601.731,105.55 601.87,105.324 601.944,105.045C602.016,104.759 602.052,104.238 602.052,103.469L602.052,97.101C602.052,96.808 602.006,96.568 601.917,96.369C601.826,96.17 601.693,95.999 601.521,95.856C601.333,95.711 601.102,95.599 600.831,95.536C600.559,95.466 600.237,95.422 599.884,95.396L599.884,94.461L604.99,94.461L608.859,103.116L612.089,96.02C612.222,95.71 612.323,95.423 612.39,95.147C612.458,94.872 612.516,94.645 612.544,94.461L617.463,94.461L617.463,95.396C617.258,95.396 616.986,95.44 616.668,95.486C616.339,95.536 616.114,95.584 615.977,95.631C615.791,95.666 615.676,95.75 615.631,95.89C615.582,96.02 615.557,96.158 615.557,96.296L615.557,105.173C615.557,105.342 615.584,105.483 615.631,105.584C615.679,105.684 615.795,105.785 615.977,105.869C616.101,105.903 616.316,105.952 616.609,105.999C616.911,106.057 617.195,106.089 617.463,106.089L617.463,107.045L617.473,107.04ZM597.661,98.088L596.78,98.088C596.653,97.683 596.411,97.179 596.036,96.569C595.659,95.967 595.3,95.625 594.938,95.552C594.677,95.528 594.409,95.512 594.152,95.496C593.893,95.496 593.68,95.473 593.509,95.473L592.611,95.473L592.611,105.084C592.611,105.254 592.64,105.399 592.697,105.514C592.752,105.63 592.88,105.734 593.072,105.82C593.196,105.859 593.42,105.905 593.751,105.974C594.084,106.042 594.388,106.072 594.664,106.072L594.664,107.029L588.193,107.029L588.193,106.072C588.436,106.072 588.739,106.046 589.095,106.01C589.451,105.969 589.685,105.93 589.787,105.895C589.973,105.834 590.093,105.736 590.156,105.599C590.217,105.469 590.245,105.331 590.245,105.196L590.245,95.476L589.345,95.476C589.162,95.476 588.919,95.476 588.615,95.504C588.311,95.528 588.077,95.535 587.919,95.548C587.54,95.607 587.169,95.947 586.808,96.565C586.445,97.185 586.205,97.69 586.081,98.08L585.2,98.08L585.2,94.445L597.656,94.445L597.661,98.088Z" style="fill:rgb(255,0,0);fill-rule:nonzero;"/>
                </g>
            </g>
        </g>
    </g>
</svg>
