<?xml version="1.0" encoding="utf-8"?>
<!-- Generator: Adobe Illustrator 19.1.0, SVG Export Plug-In . SVG Version: 6.00 Build 0)  -->
<svg version="1.1" id="Layer_1" xmlns:svg="http://www.w3.org/2000/svg"
	 xmlns="http://www.w3.org/2000/svg" xmlns:xlink="http://www.w3.org/1999/xlink" x="0px" y="0px"
	 viewBox="-432.03 1.72 1000.01 247.09" enable-background="new -432.03 1.72 1000.01 247.09" xml:space="preserve">
<path fill="#010101" d="M565.28,231.59c-12.87-15.76-25.99-32.01-39-48.31c-4.76-5.97-11.1-8.99-18.84-8.99h-0.23
	c-5.16,0.04-10.34,0.04-14.28,0.04l-11.58-0.01c-3.06,0-6.12,0-9.2,0.02c-1.16-8.19-6.83-12.83-15.94-12.83l-5.66-0.01
	c-3.74-0.01-7.48-0.01-11.23-0.01c-5.7,0-10.54,0.01-14.96,0.02c0.05-4.06,0.05-7.83,0-11.37c5.52,0.03,10.24,0.04,14.67,0.04
	c6.24,0,11.89-0.03,17.28-0.09c3.15-0.03,6.19-0.75,8.55-2.02c3.39-1.82,5.9-5.26,7.09-9.68c1.33-4.97,0.72-10.25-1.66-14.12
	c-2.02-3.29-6.04-7.21-13.7-7.22l-5.33-0.01c-3.98-0.01-7.96-0.01-11.94-0.01c-5.67,0-10.5,0.01-14.94,0.03
	c0.05-3.42,0.05-6.67,0-9.84c5.56,0.03,10.3,0.05,14.72,0.05c6.21,0,11.82-0.03,17.16-0.09c3.18-0.03,6.26-0.75,8.68-2
	c7.87-4.09,7.58-12.51,7.48-15.67c-0.31-9.24-6.43-15.23-15.56-15.24l-9.62-0.02c-7.03-0.02-14.06-0.03-21.09-0.03
	c-7.17,0-13.49,0.02-19.31,0.05c-2.56,0.02-5.32,0.71-7.76,1.95c-7.79,3.98-7.78,12.05-7.78,14.7c0.01,11.46,0.01,22.91,0.02,34.37
	c0,16.05,0.01,32.63,0.04,48.99c-1.72-0.02-3.6-0.03-5.71-0.03c-1.84,0-3.67,0.01-5.5,0.02c-1.37,0.01-2.74,0.01-4.11,0.02v-20
	c0-24.72-0.01-49.44,0.02-74.16c0.01-9.11-4.77-13.02-8.78-14.7c-2.96-1.24-6.11-1.39-9.08-1.44c-0.15,0-0.29-0.01-0.43-0.01
	c-10.42,0-16.39,6.05-16.39,16.6v14.83c-0.01,25.87-0.01,52.58,0.04,78.91c-11.06-0.03-22.56-0.04-34.21-0.04
	c-10.75,0-21.5,0.01-32.25,0.03c0.05-17.92,0.05-36.1,0-54.14c4.88,0.02,10.2,0.03,16.79,0.03c3.43,0,18.34-0.01,18.34-0.01
	c10,0,16.22-6.2,16.22-16.18c0.01-18.15,0.01-36.3,0-54.45c-0.01-9.96-6.23-16.15-16.24-16.15c-9.27,0-18.53-0.01-27.79-0.01H256.1
	c-10.53,0-16.57,6.03-16.57,16.54v124.34c-7.53-0.01-15.05-0.02-22.58-0.02c-8.23,0-16.46,0.01-24.7,0.02c0-0.1,0-0.19,0-0.29
	c1.79,0.02,3.71,0.04,5.88,0.04c2.24,0,4.48-0.01,6.72-0.02l3.42-0.02c9.98-0.04,16.19-6.26,16.19-16.23c0.01-18.82,0-37.65,0-56.47
	V90.67c0-10.27-6.17-16.4-16.5-16.4H141.3c-10.51,0-16.53,6.05-16.54,16.6c-0.01,22.14-0.01,44.28,0,66.41
	c0,10.77,5.9,16.72,16.62,16.74l3.87,0.01c1.9,0.01,3.8,0.01,5.7,0.01c1.92,0,3.64-0.01,5.23-0.02c0,0.1,0,0.2,0,0.3
	c-8.28-0.03-16.83-0.04-26.04-0.04c-8.44,0-16.89,0.01-25.35,0.03c-1.14,0-1.79-0.3-2.57-1.16c-5.46-6.05-10.93-12.09-16.4-18.14
	c0,0-7.24-7.99-7.32-8.08c1.83,0,3.66,0.01,5.49,0.01c3.68,0,7.36-0.01,11.04-0.03c9.04-0.05,15.4-6.18,15.48-14.92
	c0.12-13.99,0.12-28.38,0-42.8c-0.08-8.75-6.35-14.88-15.26-14.9l-5.15-0.01c-8.01-0.02-16.01-0.04-24.01-0.04
	c-7.36,0-13.89,0.02-19.94,0.06c-2.53,0.02-5.3,0.75-7.79,2.05c-5.04,2.64-7.59,7.44-7.59,14.26c0,10.45-0.01,20.89-0.02,31.33
	c-0.02,17.17-0.03,34.89,0.01,52.38c-2.37-0.05-4.83-0.08-7.45-0.08c-2.59,0-5.37,0.03-8.43,0.08c0.06-35.26,0.06-71.55,0.01-107.97
	c5.79,0.04,11.6,0.06,17.3,0.06c6.81,0,13.67-0.03,20.39-0.09c2.21-0.02,5.47-0.37,8.46-1.91c7.9-4.06,7.71-12.24,7.64-15.32
	c-0.22-9.5-6.37-15.65-15.67-15.65c-10.2-0.01-20.4-0.01-30.6-0.02C9.18,33.41-4.06,33.4-17.3,33.4c-13.02,0-26.04,0.01-39.07,0.03
	c-2.63,0.01-5.49,0.73-7.86,1.98c-6.59,3.5-8.96,10.19-7.05,19.89c1.32,6.7,7.21,11.04,15.02,11.05c6.21,0.01,12.42,0.02,18.63,0.02
	c6.69,0,12.8-0.01,18.59-0.03c-0.05,33.45-0.05,68.84-0.01,107.95c-2.36-0.02-4.78-0.03-7.22-0.03c-2.51,0-5.12,0.01-7.81,0.03
	c-1.23-8.16-6.98-12.77-16.17-12.77c-3.49,0-6.98-0.01-10.47-0.02c-4.02-0.01-8.04-0.02-12.06-0.02c-3.35,0-6.39,0.01-9.22,0.02
	c0.06-3.72,0.06-7.53,0-11.38c5.18,0.03,9.97,0.05,14.59,0.05c6.1,0,11.75-0.03,17.28-0.09c2.23-0.02,5.51-0.37,8.48-1.9
	c6.77-3.49,9.6-11.5,7.21-20.42c-1.71-6.38-7.77-10.69-15.08-10.71l-3.76-0.01c-5.77-0.02-11.55-0.04-17.32-0.04
	c-4.11,0-7.86,0.01-11.39,0.03c0.06-3.49,0.06-6.74-0.01-9.82c4.66,0.04,9.67,0.05,15.25,0.05c5.71,0,11.43-0.02,17.14-0.04
	c8.77-0.03,14.49-4.94,15.7-13.48c0.8-5.65-0.48-10.75-3.6-14.36c-2.81-3.26-6.95-5.06-11.64-5.08
	c-10.84-0.04-19.63-0.06-27.67-0.06c-8.2,0-15.67,0.02-22.83,0.06c-2.55,0.02-5.24,0.69-7.58,1.9c-3.52,1.83-7.71,5.74-7.7,13.97
	c0.02,11.32,0.02,22.64,0.02,33.97c0,16.44,0.01,33.4,0.05,50.15c-4.02-0.04-7.97-0.05-11.76-0.05c-4.63,0-9.22,0.03-13.62,0.08
	h-0.06c-0.47,0-0.65-0.06-0.65-0.06c-0.01-0.01-0.18-0.14-0.47-0.63c-5.22-8.86-10.56-17.83-15.74-26.51
	c-1.93-3.25-3.87-6.49-5.8-9.73c-3.37-5.67-10.22-17.18-10.22-17.18l13.01,0.01c5.19,0,10.34-0.01,15.51-0.01
	c9.12-0.02,15.52-6.26,15.57-15.17c0.1-18.03,0.1-36.47,0.01-56.37c-0.04-8.8-6.46-15.21-15.27-15.23
	c-8.11-0.02-16.21-0.03-24.32-0.03c-11.87,0-22.36,0.02-32.04,0.07c-2.53,0.02-5.23,0.71-7.59,1.97c-5.01,2.65-7.54,7.37-7.53,14.01
	c0.03,33.01,0.03,66.58,0.03,99.04v25.77c-2.8,0-14.72-0.01-17.88-0.01c-6.97,0-12.34,0.02-17.4,0.04h-0.06
	c-1.43,0-1.96-0.36-2.61-1.17c-0.25-0.31-0.5-0.62-0.75-0.93c0.14-0.31,0.27-0.62,0.39-0.97c1.45-3.36,2.06-7.49,2.19-8.85
	c2.44-2.88,2.71-8.79,2.71-11.23v-1.04l-0.39-0.96c-0.05-0.13-0.11-0.27-0.18-0.4c-0.42-1.31-1.14-2.54-2.12-3.62
	c-0.24-0.27-0.5-0.51-0.75-0.74c0.09-1.09,0.13-2.18,0.1-2.94l-0.07-1.77l-0.68-0.85c-1.45-3.29-4.89-5.14-7-6.05
	c-0.05-0.26-0.11-0.48-0.18-0.69l-1.21-3.61l-0.93-0.02c-0.71-0.76-1.55-1.44-2.52-2c-1.75-1.01-3.53-1.5-4.95-1.88
	c-0.5-0.13-0.98-0.27-1.4-0.4c-0.48-0.91-1.21-1.88-2.31-2.8c-2.16-1.77-4.78-2.48-6.56-2.86l-0.07-0.02
	c-0.6-0.12-1.19-0.21-1.7-0.29c-0.72-0.11-1.33-0.21-1.85-0.36c-0.18-0.05-0.39-0.11-0.57-0.17c-0.31-0.38-0.75-0.84-1.33-1.27
	c-3.09-2.35-6.59-2.66-9.41-2.91c-1.22-0.11-2.37-0.21-3.15-0.45c-0.14-0.05-0.55-0.29-0.84-0.46c-0.86-0.51-2.04-1.21-3.62-1.63
	c-1.73-0.49-3.56-0.74-5.45-0.74c-0.25,0-0.51,0.01-0.74,0.01c-0.22,0.01-0.43,0.01-0.65,0.01c-1.14,0-2.14-0.1-3.05-0.3
	c-0.2-0.05-0.58-0.21-0.93-0.36c-0.81-0.34-1.82-0.76-3.08-1.01c-1.22-0.26-2.47-0.38-3.94-0.38c-0.92,0-1.79,0.05-2.62,0.09
	c-0.66,0.04-1.28,0.07-1.86,0.08c0.91-11.57,1.91-24.44,2.63-33.7v-0.01c11.18-6.15,18.72-17.49,19.96-30.29
	c0.13-1.15,0.19-2.35,0.19-3.79c0.02-21.4-17.44-38.85-38.89-38.85c-0.69,0-1.39,0.02-2.17,0.06c-0.16,0.01-0.32,0.02-0.48,0.04
	l-0.17,0.01c-0.5,0.04-1,0.08-1.51,0.13c-0.2,0.02-0.39,0.05-0.59,0.08l-0.12,0.02c-0.48,0.06-0.95,0.13-1.43,0.21
	c-0.23,0.04-0.45,0.08-0.68,0.12c-0.5,0.09-0.98,0.19-1.48,0.31c0,0-0.42,0.1-0.57,0.13c-0.54,0.13-1.08,0.27-1.66,0.44
	c0,0-0.26,0.08-0.35,0.1c-2.72,0.82-5.37,1.94-7.86,3.35l-0.16,0.09c-0.55,0.31-1.1,0.65-1.63,0.98l-0.24,0.15
	c-0.51,0.33-1.02,0.67-1.52,1.03l-0.24,0.17c-0.48,0.36-0.97,0.73-1.46,1.12c-0.07,0.05-0.14,0.11-0.2,0.16
	c-0.48,0.39-0.96,0.8-1.42,1.21c-0.05,0.05-0.11,0.1-0.18,0.16c-0.48,0.44-0.96,0.89-1.4,1.34c-0.33,0.33-0.65,0.67-0.97,1.01
	l-0.11,0.12c-0.07,0.08-0.15,0.15-0.22,0.23c-0.64,0.7-1.18,1.33-1.67,1.95l-0.58,0.72l-0.04,0.11c-5.1,6.78-7.79,14.83-7.79,23.36
	c0,14.24,7.8,27.28,20.13,34.07c0.72,8.54,1.8,21.61,2.75,33.57c-0.18-0.01-0.37-0.02-0.56-0.03c-0.85-0.04-1.73-0.09-2.67-0.09
	c-1.3,0-2.46,0.1-3.58,0.3c-1.36,0.25-2.46,0.71-3.36,1.07c-0.4,0.16-0.79,0.32-1.07,0.4c-1.02,0.23-1.92,0.34-2.74,0.34
	c-0.17,0-0.35-0.01-0.55-0.02c-0.4-0.02-0.82-0.04-1.23-0.04c-2.08,0-4.21,0.31-6.16,0.9l-0.08,0.03c-1.34,0.43-2.32,1.04-3.04,1.49
	c-0.19,0.12-0.46,0.29-0.52,0.32c-0.86,0.27-2.05,0.38-3.32,0.49c-2.56,0.23-5.74,0.51-8.73,2.4l-0.11,0.07
	c-0.85,0.57-1.43,1.22-1.82,1.71c-0.09,0.03-0.2,0.06-0.34,0.1l-0.11,0.03c-0.58,0.17-1.32,0.29-2.1,0.42
	c-0.86,0.14-1.82,0.3-2.83,0.56l-0.13,0.04c-2.05,0.58-4.98,1.66-6.91,4.27l-0.08,0.11l-0.08,0.11c-0.2,0.3-0.37,0.6-0.5,0.89
	c-0.25,0.07-0.55,0.16-0.87,0.24c-2.4,0.65-6.35,1.72-8.61,4.6l-1.08,0.31c0,0-0.57,3.42-0.58,3.46c-1.7,0.7-3.48,1.64-5.01,3.22
	c-0.76,0.77-1.37,1.66-1.8,2.62l-0.45,0.53c0,0-0.24,1.95-0.25,2.02c-0.15,1.14-0.3,2.34-0.32,3.56c-1.47,1.49-2.45,3.23-2.81,5.06
	c-1.08,3.9,1.28,9.3,2.37,11.48l0.06,0.12l0.06,0.11c0.07,0.12,0.15,0.25,0.22,0.37c0,0.06,0,0.13,0.01,0.19
	c0.03,0.91,0.21,1.82,0.53,2.71c0.32,1.38,1.2,4.94,1.82,6.39c0.04,0.09,0.08,0.2,0.12,0.31c0.64,1.58,1.82,4.52,4.64,6.15
	l0.09,0.05c0.45,0.25,0.92,0.44,1.39,0.59c3.68,9.85,12.87,34.47,14.3,38.25c3.9,10.34,12.7,18.83,25.42,24.54
	c11.09,5.01,25.16,7.76,39.61,7.76c14.47,0,28.69-2.79,40.03-7.86c12.92-5.8,21.82-14.32,25.75-24.63l10-26.3
	c3.57,2.86,7.82,4.37,12.5,4.4c6.35,0.04,12.71,0.06,18.91,0.06c7.79,0,15.58-0.03,23.17-0.09c2.53-0.02,5.25-0.77,7.65-2.1
	c7.34-4.08,7.34-11.78,7.34-14.31c-0.01-12.59-0.01-25.18-0.01-37.77c0-6.18,0-12.42,0-18.68c11.04,18.68,23.12,38.96,37.86,63.62
	c3.55,5.94,9.31,9.23,16.23,9.28c5.32,0.04,10.13,0.05,14.71,0.05c6.08,0,11.66-0.03,17.07-0.09c2.53-0.03,5.23-0.75,7.59-2.03
	c4.61-2.5,7.11-6.84,7.43-12.89c2.19,1.28,5.09,2.14,8.91,2.14h1.1c2.81,0,5.62,0.01,8.43,0.01c2.81,0.01,5.63,0.01,8.44,0.01
	c5.63,0,10.14-0.01,14.29-0.04c0.39,3.29,1.72,6.16,3.9,8.42c2.76,2.85,6.74,4.43,11.22,4.45c4.2,0.02,8.39,0.03,12.59,0.03
	c3.96,0,7.91-0.01,11.87-0.03c5.08-0.03,9.35-2.17,12.05-5.66c2.71,3.55,7.06,5.65,12.44,5.66c3.5,0.01,7,0.01,10.51,0.01
	l13.68-0.01c10.32-0.01,16.24-5.96,16.24-16.32c0-9.31,0.01-18.61,0.02-27.91c0-1.31,0-2.63,0.01-3.96c0.24,0.3,0.5,0.61,0.77,0.91
	c11.68,12.96,24.2,26.81,36.58,40.36c4.13,4.53,9.7,6.92,16.1,6.92h31.74c8.19,0,16.39,0,24.58-0.01c6.23,0,11.03-2.69,13.58-7.25
	c2.48,4.44,7.22,7.23,12.98,7.24c8.43,0.02,16.87,0.03,25.3,0.03c11.8,0,22.26-0.02,32-0.07c2.56-0.01,5.26-0.71,7.62-1.97
	c2.19-1.17,3.91-2.75,5.16-4.72c2.63,4.37,7.43,6.75,14,6.75h73.69c6.3,0,11-2.16,13.75-6.16c2.69,3.85,7.19,6.14,12.8,6.15
	l4.06,0.01c2.81,0.01,5.63,0.02,8.44,0.02c4.66,0,8.47-0.03,12-0.09c2.72-0.04,5.46-0.71,7.72-1.87c4.83-2.49,7.4-6.92,7.65-13.17
	c0.43,0.25,0.88,0.48,1.34,0.69c2.17,0.99,4.82,1.5,7.87,1.53c5.61,0.04,11.44,0.06,17.32,0.06c4.77,0,9.72-0.02,14.77-0.04
	c1.09,8.01,6.9,12.86,15.71,12.87l7.53,0.01c4.26,0.01,8.53,0.01,12.79,0.01c7.36,0,13.36-0.02,18.94-0.04
	c1.53,0,2.13,0.41,2.81,1.28c5.39,6.76,10.91,13.59,16.26,20.2c2.19,2.71,4.38,5.42,6.57,8.13c5.4,6.69,10.8,13.38,16.19,20.07
	c1.04,1.29,3.79,4.72,8.53,4.72c0.71,0,1.43-0.08,2.15-0.24c3.44-0.75,6.17-3.12,7.29-6.35
	C568.65,238.7,567.85,234.73,565.28,231.59z M-195.75,104.07c-0.01-16.82-0.02-33.76-0.04-50.56c7.7,0.04,15.56,0.06,23.4,0.06
	c7.63,0,15.44-0.02,23.28-0.05c-0.06,15.48-0.06,31.13,0,46.61c-5.77-0.04-11.77-0.06-18.24-0.06c-6.05,0-12.11,0.02-18.16,0.04
	C-189.72,100.14-193.31,101.55-195.75,104.07z M64.78,126.83h-3.9c-5.12,0-8.22,2.04-10.05,4.14c0.01-12.15,0-24.43-0.03-36.6
	c6.37,0.04,13.02,0.05,19.79,0.05c6.44,0,12.99-0.02,19.97-0.05c-0.06,11.35-0.06,22.02,0,32.47c-4.6-0.03-9.01-0.04-12.49-0.04
	L64.78,126.83z M186.98,154.01c-5.75,0.08-10.38,2.8-12.81,7.21c-2.56-4.52-7.35-7.2-13.56-7.23l-2.06-0.01
	c-2.57-0.02-5.14-0.03-7.71-0.03c-2.25,0-4.25,0.01-6.12,0.03c0.06-19.64,0.06-39.66,0-59.6c9.83,0.03,19.85,0.04,29.83,0.04
	c9.78,0,19.78-0.02,29.8-0.04c-0.06,18.92-0.06,38.48-0.01,59.6c-2.48-0.03-4.99-0.04-7.52-0.04
	C193.63,153.94,190.32,153.96,186.98,154.01z M271.18,100.1c-4.85,0-8.78,1.39-11.55,3.96c0-16.85,0-33.7-0.01-50.54
	c7.28,0.04,14.87,0.05,23.1,0.05c7.18,0,14.71-0.02,23.48-0.04c-0.05,17.75-0.05,32.72,0.01,46.59c-5.08-0.02-10.56-0.03-17.33-0.03
	C284.97,100.1,271.18,100.1,271.18,100.1z M346.99,54.93c3.14,3.09,7.07,4.8,11.07,4.8c4.03,0,7.83-1.64,11.01-4.75
	c3.13-3.06,6.25-6.21,9.28-9.25c1.29-1.3,2.58-2.59,3.87-3.88c2.89-2.89,4.85-7.5,4.78-11.22c-0.06-3.28-1.98-7.81-4.46-10.54
	c-4.25-4.69-8.83-9.11-13.26-13.39l-0.36-0.35c-3.08-2.97-6.94-4.61-10.87-4.61c-3.91,0-7.75,1.63-10.82,4.58
	c-4.43,4.26-8.99,8.83-13.57,13.56c-6.23,6.45-6.16,15.45,0.17,21.88C337.92,45.93,342.22,50.23,346.99,54.93z M357.46,25.79
	c0.2-0.2,0.4-0.4,0.6-0.6c0.08,0.08,0.16,0.16,0.24,0.24c1.73,1.74,3.5,3.52,5.29,5.29c-1.82,1.8-3.68,3.65-5.54,5.54
	c-1.89-1.91-3.77-3.79-5.53-5.54C354.19,29.08,355.84,27.42,357.46,25.79z"/>
<path fill="#FBE101" d="M350.77,48.57c4.38,4.32,10.14,4.35,14.54,0.04c4.41-4.32,8.74-8.72,13.1-13.09
	c2.01-2.01,3.25-5.32,3.21-7.31c-0.04-1.92-1.39-5.19-3.07-7.04c-4.25-4.68-8.82-9.08-13.37-13.48c-4.28-4.12-9.95-4.14-14.22-0.03
	c-4.56,4.39-9.03,8.87-13.43,13.42c-4.18,4.32-4.08,10.09,0.13,14.38C341.99,39.88,346.37,44.24,350.77,48.57z M345.92,27.15
	c3.8-3.71,7.53-7.5,11.3-11.25c0.26-0.26,0.59-0.47,0.9-0.73c0.36,0.34,0.65,0.6,0.92,0.87c3.7,3.7,7.37,7.44,11.13,11.08
	c0.93,0.9,0.75,1.4-0.06,2.19c-3.62,3.56-7.23,7.14-10.76,10.79c-1.03,1.07-1.66,0.95-2.63-0.05c-3.48-3.59-7.04-7.11-10.6-10.62
	C345.35,28.68,344.92,28.13,345.92,27.15z M559,240.76c-2.44,0.53-3.97-0.89-5.35-2.6c-5.39-6.7-10.79-13.39-16.19-20.08
	c-7.61-9.43-15.25-18.83-22.8-28.3c-1.87-2.35-4.12-3.32-7.09-3.3c-13.06,0.07-26.12,0.04-39.19,0.03
	c-6.73-0.01-10.53-3.63-10.52-10.33c0-2.17-0.77-2.57-2.73-2.56c-11.5,0.08-23,0.09-34.5-0.01c-1.91-0.02-3.98-0.27-5.69-1.04
	c-3.49-1.59-5.24-4.62-5.28-8.45c-0.08-7.2-0.08-14.4-0.01-21.59c0.06-5.66,3.97-9.55,9.64-9.57c12.13-0.05,24.25-0.05,36.38,0.02
	c1.65,0.01,2.2-0.48,2.16-2.12c-0.04-1.67-1.02-1.6-2.19-1.6c-7.43,0.02-14.86,0.01-22.3,0.01c-4.62,0-9.23,0.03-13.85-0.01
	c-5.93-0.05-9.82-3.92-9.86-9.85c-0.04-6.26-0.02-12.52-0.01-18.77c0.01-6.66,3.75-10.48,10.41-10.5
	c11.81-0.04,23.63-0.01,35.43-0.01c1.08,0,2.21,0.24,2.35-1.48c0.14-1.86-0.68-2.15-2.33-2.15c-15.65,0.06-31.29,0.08-46.94-0.01
	c-2.12-0.01-2.6,0.64-2.6,2.65c0.06,28.87,0.02,57.73,0.06,86.59c0.01,4.04-1,7.52-4.76,9.46c-1.59,0.82-3.55,1.25-5.35,1.28
	c-8.13,0.13-16.27,0.07-24.4,0.05c-6.33-0.02-10.2-3.88-10.2-10.24c-0.01-32.31-0.01-64.62-0.01-96.92c0-2.94-1.71-4.15-4.47-3.09
	c-0.31,0.12-0.59,0.64-0.66,1c-0.11,0.61-0.03,1.25-0.03,1.87c0,32.07,0,64.14,0,96.22c0,7.57-3.61,11.16-11.19,11.16
	c-24.56,0-49.13,0-73.69,0c-7.33,0-10.95-3.58-10.95-10.86c-0.01-20.58-0.01-41.14,0-61.72c0.01-7.29,3.66-10.97,10.89-10.97
	c12.67-0.01,25.34-0.03,38.02,0.03c1.68,0.01,2.41-0.23,2.4-2.22c-0.09-17.68-0.07-35.36-0.02-53.04c0.01-1.59-0.34-2.12-2.03-2.1
	c-17.76,0.06-35.52,0.09-53.27-0.02c-2.28-0.02-2.03,1.12-2.03,2.57c0.01,42.47,0.01,84.95,0.02,127.43c0,4-1,7.52-4.73,9.51
	c-1.52,0.81-3.39,1.33-5.1,1.33c-19.09,0.09-38.17,0.08-57.26,0.04c-5.23-0.01-9.06-3.29-9.46-8.45c-0.33-4.19-0.34-8.45-0.02-12.64
	c0.4-5.26,4.07-8.48,9.35-8.55c6.73-0.09,13.45-0.09,20.18,0.02c1.97,0.03,2.51-0.59,2.5-2.53c-0.06-21.82-0.07-43.65,0.01-65.47
	c0.01-2.01-0.59-2.4-2.48-2.39c-21.75,0.07-43.5,0.07-65.24,0c-2.02-0.01-2.68,0.47-2.67,2.58c0.08,21.75,0.08,43.49,0,65.24
	c-0.01,2.14,0.71,2.62,2.7,2.58c6.17-0.12,12.36-0.06,18.54-0.04c6.48,0.03,10.19,3.69,10.27,10.12c0.04,3.13,0.04,6.26,0,9.39
	c-0.09,6.42-3.86,10.16-10.25,10.16c-18.78,0.02-37.55,0.01-56.32,0.01c-4.78,0-8.93-1.66-12.14-5.17
	c-12.24-13.4-24.4-26.86-36.56-40.33c-1.93-2.14-3.02-4.7-1.67-7.53c1.36-2.85,3.94-3.8,6.98-3.79c10.8,0.02,21.59-0.05,32.39,0.05
	c2,0.02,2.7-0.41,2.69-2.56c-0.1-12.75-0.09-25.5-0.01-38.25c0.01-2-0.62-2.46-2.54-2.45c-15.1,0.08-30.19,0.09-45.29-0.01
	c-2.17-0.01-2.71,0.55-2.7,2.74c0.08,28.79,0,57.57,0,86.36c0,7.36-3.57,10.94-10.87,10.95c-8.06,0-16.11,0.02-24.17-0.01
	c-6.25-0.02-10.13-3.78-10.13-10.03c-0.03-39.03-0.03-78.06,0-117.1c0.01-6.5,3.78-10.13,10.49-10.15
	c13.61-0.03,27.22-0.01,40.83-0.03c1,0,2.27,0.42,2.36-1.4c0.08-1.52-0.2-2.18-1.98-2.17C16.3,45.7-19.37,45.7-55.04,45.67
	c-1.33,0-2.23,0.08-2.21,1.81c0.02,1.78,1.05,1.77,2.31,1.77c13.3-0.01,26.6,0.01,39.9-0.02c3.92-0.01,7.36,1.02,9.27,4.7
	c0.8,1.53,1.36,3.39,1.36,5.09c0.08,39.27,0.07,78.54,0.04,117.8c-0.01,5.74-4,9.67-9.78,9.69c-8.13,0.04-16.27,0.03-24.41,0.01
	c-6.07-0.02-10.05-3.89-9.88-9.97c0.07-2.53-0.78-2.93-3.03-2.91c-11.5,0.1-23,0.04-34.5,0.05c-4,0-7.53-1.11-9.4-4.91
	c-0.86-1.75-1.26-3.87-1.31-5.83c-0.16-6.41-0.08-12.83-0.05-19.24c0.02-6.99,3.75-10.74,10.68-10.74c11.73-0.01,23.47,0,35.2-0.01
	c1.04,0,2.28,0.33,2.36-1.43c0.07-1.51-0.26-2.47-2.03-2.24c-0.46,0.06-0.94,0.01-1.4,0.01c-11.58,0-23.15,0.02-34.73-0.01
	c-5.53-0.01-9.42-2.89-9.76-8.33c-0.47-7.47-0.46-15.01,0-22.48c0.32-5.27,4.01-8.07,9.31-8.32c0.7-0.03,1.41-0.01,2.11-0.01
	c11.26,0,22.53,0.01,33.79-0.02c1.19,0,2.73,0.57,2.76-1.73c0.03-2.21-1.35-1.85-2.65-1.85c-15.57,0-31.13,0.04-46.7-0.05
	c-1.96-0.01-2.45,0.49-2.45,2.44c0.06,28.86,0.04,57.73,0.05,86.59c0,3.97-0.94,7.54-4.66,9.56c-1.51,0.82-3.37,1.36-5.09,1.38
	c-10.56,0.12-21.12,0.11-31.68,0.04c-5.07-0.04-9.06-2.32-11.65-6.66c-13.01-21.76-25.99-43.54-38.9-65.37
	c-3.55-6-0.33-11.45,6.68-11.48c13.06-0.06,26.13-0.07,39.19,0.03c2.13,0.02,2.58-0.62,2.57-2.65c-0.08-17.37-0.08-34.73,0-52.1
	c0.01-2.01-0.41-2.66-2.56-2.65c-17.44,0.09-34.89,0.1-52.33-0.01c-2.13-0.01-2.55,0.6-2.55,2.6c0.06,42.4,0.04,84.8,0.05,127.19
	c0,3.96-0.87,7.55-4.57,9.61c-1.5,0.83-3.37,1.42-5.08,1.43c-14,0.11-28,0.12-42.01,0.03c-4.7-0.03-8.64-2.05-11.64-5.65
	c-13.56-16.28-27.07-32.6-40.61-48.9c-1.52-1.82-2.29-3.77-1.09-6.01c0.98-1.84,2.72-2.83,4.69-2.24c1.38,0.41,2.78,1.42,3.72,2.53
	c9.7,11.55,19.32,23.19,28.95,34.8c3.6,4.33,7.25,8.62,10.77,13.01c1.81,2.26,4.01,3.2,6.9,3.18c12.52-0.08,25.03-0.03,37.55-0.03
	c3.07,0,3.08,0,3.08-3c0-42.39,0.02-84.8-0.02-127.19c-0.01-3.96,1.04-7.33,4.68-9.26c1.52-0.81,3.39-1.33,5.11-1.34
	c18.77-0.09,37.54-0.08,56.32-0.05c5.84,0.01,9.88,3.92,9.91,9.88c0.09,18.77,0.1,37.54-0.01,56.32c-0.03,6.01-4.15,9.81-10.21,9.82
	c-12.51,0.02-25.03,0.01-37.95,0.01c5.18,8.7,10.11,17.01,15.05,25.31c7.18,12.07,14.4,24.11,21.52,36.21
	c1.38,2.35,3.13,3.37,5.88,3.34c9.31-0.11,18.62-0.1,27.93,0c2.08,0.02,2.78-0.44,2.77-2.69c-0.09-28.94-0.04-57.89-0.08-86.83
	c-0.01-3.98,1.16-7.3,4.81-9.2c1.53-0.8,3.41-1.29,5.13-1.29c16.82-0.09,33.64-0.06,50.46,0c7.01,0.03,11.05,5.51,9.94,13.31
	c-0.82,5.81-4.31,8.84-10.4,8.86c-11.66,0.04-23.31,0.07-34.97-0.04c-2.27-0.02-2.92,0.64-2.85,2.88
	c0.17,5.08,0.14,10.17,0.01,15.25c-0.05,1.93,0.47,2.49,2.45,2.47c11.81-0.09,23.63-0.04,35.43,0c4.94,0.02,8.83,2.71,9.9,6.72
	c1.68,6.29,0.08,11.9-4.48,14.25c-1.78,0.92-4.03,1.29-6.07,1.3c-11.58,0.12-23.15,0.1-34.73,0.02c-1.9-0.01-2.57,0.43-2.52,2.45
	c0.14,5.7,0.15,11.42,0,17.13c-0.05,2.15,0.69,2.6,2.69,2.59c11.5-0.09,23-0.01,34.5,0c7.37,0.01,11.01,3.45,11.05,10.75
	c0.01,1.7,0.55,2.07,2.14,2.05c7.11-0.08,14.24-0.09,21.36,0.01c1.71,0.02,2.03-0.54,2.03-2.13c-0.04-38.09-0.05-76.19,0.01-114.28
	c0-1.96-0.69-2.34-2.45-2.34c-13.37,0.06-26.75,0.05-40.13,0.02c-5.09-0.01-8.91-2.44-9.76-6.72c-1.33-6.79-0.45-11.58,4.3-14.1
	c1.58-0.83,3.55-1.35,5.35-1.35c36.45-0.08,72.9-0.01,109.35,0c6.47,0,10.14,3.85,10.3,10.4c0.1,4.31-0.55,8.27-4.73,10.42
	c-1.78,0.91-4.01,1.29-6.05,1.31c-13.37,0.11-26.75,0.11-40.13,0.01c-2.25-0.02-2.9,0.6-2.89,2.87
	c0.07,37.71,0.07,75.41-0.01,113.11c-0.01,2.31,0.69,2.84,2.9,2.79c6.96-0.15,13.93-0.19,20.88,0.02c2.55,0.08,2.86-0.81,2.86-3.02
	c-0.07-28.71,0.01-57.41,0-86.13c0-3.98,0.96-7.53,4.71-9.5c1.59-0.83,3.54-1.43,5.33-1.44c16.35-0.1,32.7-0.04,49.05,0
	c5.87,0.02,9.85,3.74,9.9,9.57c0.12,14.24,0.13,28.48,0,42.71c-0.05,5.93-4.06,9.57-10.14,9.6c-9,0.05-17.99,0.01-26.98,0.02
	c-0.37,0-0.75,0.04-1.53,0.08c2.91,3.23,5.6,6.22,8.29,9.2c7.82,8.64,15.66,17.27,23.45,25.92c1.79,1.98,3.9,2.95,6.59,2.94
	c18.15-0.04,36.3-0.05,54.44,0.02c1.88,0.01,2.49-0.55,2.38-2.39c-0.13-2.18-0.11-4.38-0.01-6.57c0.08-1.66-0.57-2.15-2.19-2.14
	c-6.02,0.07-12.04,0.03-18.07,0.03c-7.72-0.01-11.26-3.58-11.26-11.37c-0.01-22.14-0.01-44.27,0-66.41
	c0.01-7.59,3.63-11.23,11.16-11.23c22.22,0,44.43,0,66.64,0c7.42,0,11.13,3.68,11.13,11.02c0,22.37,0.01,44.75,0,67.12
	c0,7.04-3.77,10.83-10.84,10.86c-6.26,0.03-12.52,0.1-18.77-0.04c-2.22-0.05-2.88,0.67-2.71,2.8c0.18,2.09,0.09,4.22,0.02,6.33
	c-0.04,1.36,0.37,1.96,1.85,1.96c18.23-0.03,36.45-0.03,54.68-0.01c1.19,0,1.77-0.32,1.59-1.59c-0.06-0.46-0.01-0.94-0.01-1.4
	c0-42.24,0-84.48,0-126.72c0-7.56,3.61-11.16,11.19-11.16c17.99,0,35.98,0,53.98,0c7.12,0,10.87,3.72,10.87,10.78
	c0.01,18.15,0.01,36.3,0,54.44c0,7.07-3.76,10.81-10.85,10.81c-12.75,0.01-25.5,0.04-38.25-0.04c-1.73-0.01-2.27,0.41-2.26,2.19
	c0.06,20.17,0.06,40.34,0,60.51c-0.01,1.79,0.55,2.21,2.27,2.21c24.17-0.05,48.34-0.06,72.52,0.01c1.95,0.01,2.44-0.48,2.44-2.44
	c-0.07-32.23-0.05-64.46-0.05-96.69c0-7.66,3.65-11.35,11.37-11.23c2.38,0.04,4.95,0.12,7.08,1.02c4.14,1.73,5.48,5.42,5.48,9.75
	c-0.02,31.83-0.01,63.67-0.01,95.51c0,4.03,0,4.03,4.03,4.03c6.49,0,12.99-0.1,19.48,0.05c2.15,0.05,2.57-0.67,2.57-2.66
	c-0.06-28.71-0.03-57.41-0.05-86.12c-0.01-4.15,0.86-7.88,4.85-9.91c1.6-0.82,3.55-1.36,5.35-1.37c16.66-0.1,33.32-0.03,49.98,0
	c6.24,0.01,9.99,3.81,10.2,10.05c0.15,4.33-0.29,8.49-4.59,10.72c-1.84,0.96-4.15,1.37-6.26,1.4c-11.58,0.13-23.15,0.1-34.73,0.03
	c-1.88-0.01-2.59,0.44-2.53,2.46c0.14,5.32,0.12,10.64,0.01,15.95c-0.04,1.77,0.46,2.22,2.21,2.21c11.81-0.08,23.63-0.05,35.43-0.03
	c3.82,0.01,7.03,1.24,9.13,4.66c3.07,5,1.42,13.65-3.4,16.25c-1.77,0.95-4.01,1.36-6.05,1.37c-11.66,0.13-23.31,0.1-34.97,0.03
	c-1.79-0.01-2.41,0.39-2.36,2.3c0.13,5.87,0.11,11.73,0.01,17.6c-0.03,1.79,0.6,2.26,2.29,2.24c11.66-0.06,23.31-0.03,34.97-0.03
	c7.13,0.01,10.72,3.42,10.78,10.52c0.02,1.92,0.69,2.33,2.47,2.32c12.59-0.06,25.19,0.03,37.78-0.06
	c6.12-0.04,10.96,2.12,14.83,6.97c12.92,16.19,25.94,32.31,39.03,48.35C563.86,235.81,562.65,239.97,559,240.76z"/>
<g>
	<path id="path134_2_" fill="#8D1825" d="M-418.46,165.24c5.36,14.36,15.86,42.5,17.36,46.46c3.37,8.95,11.15,16.4,22.61,21.54
		c10.45,4.71,23.79,7.29,37.4,7.29l0,0c13.77,0,27.17-2.63,37.83-7.39c11.58-5.2,19.5-12.65,22.93-21.65l17.63-46.35
		C-263.28,165.35-418.19,165.29-418.46,165.24z"/>
	<path id="path140_2_" fill="#AA1F24" d="M-355.07,199.16c-3.37,0-6.96-1.12-9.27-3.81c-1.82-2.09-4.55-3-7.18-3.27
		c-3.75-0.38-7.18,1.23-10.88,1.23c-3.32,0-7.13-1.12-8.9-4.34c-0.64-1.23-0.64-2.68-1.72-3.64c-1.34-1.34-3.32-1.93-5.09-2.14
		c-3.54-0.43-7.02,0.69-10.29-1.39c-1.29-0.8-2.3-2.14-2.63-3.75c-0.22-0.86-1.61-5.62-1.82-6.65c-0.27-1.5-4.82-0.48-6.38-1.34
		c-1.39-0.8-2.09-2.9-2.52-3.91c-0.43-0.96-1.82-6.32-1.87-7.29c1.66-0.75-0.48-2.03-0.96-2.9c-0.43-0.86-2.63-5.84-1.98-7.72
		c0.96-1.23,4.02-3,3.7-3.43c-1.07-1.45-0.69-3.81-0.38-6.32c1.12-1.34,6.11-1.5,6.7-2.03c0.8-0.64,0.59-4.88,0.75-5.84
		c2.95-0.86,6.96-0.69,9.43-1.72l140.77,2.03c0,0,0.11,0.32,0.05,1.98c0.11,0.75,6.27,4.24,7.61,5.89c0.05,1.39-0.27,4.5-0.43,5.2
		c-0.32,1.23,3.11,2.68,3.75,4.29c0,2.2-0.43,6.65-1.45,7.77c-0.32,0.32-1.93,2.41-1.93,2.79c0,0,0.75-0.69,0.69,0.05
		s-0.59,4.71-1.87,7.56c-1.18,3.86-5.73,3.06-8.63,4.07c-0.27,1.56-1.66,8.09-2.84,9.64c-2.36,3.06-6.32,2.84-9.7,2.73
		c-1.72-0.05-3.43,0.22-5.04,0.86c-0.75,0.32-1.45,0.75-2.03,1.29c-0.75,0.75-0.91,1.56-1.18,2.57c-1.07,3.54-4.71,5.15-7.93,5.41
		c-2.73,0.27-5.09-0.59-7.72-1.02c-2.57-0.43-5.25-0.27-7.72,0.59c-1.18,0.43-2.3,1.02-3.21,1.87c-0.86,0.8-1.56,1.72-2.52,2.41
		c-2.14,1.5-4.77,2.09-7.34,2.09c-2.63,0-5.25-0.64-7.56-1.98c-2.25-1.34-4.93-1.82-7.45-1.82c-2.57,0-5.25,0.48-7.45,1.82
		C-349.82,198.51-352.45,199.16-355.07,199.16"/>
	<path id="path142_2_" fill="#CB2128" d="M-355.45,188.82c-3.43,0-7.13-1.02-9.48-3.48c-1.87-1.93-4.66-2.73-7.39-2.95
		c-3.86-0.38-7.34,1.12-11.15,1.12c-3.37,0-7.29-1.02-9.11-3.91c-0.69-1.12-0.69-2.41-1.72-3.32c-1.39-1.18-3.37-1.77-5.2-1.93
		c-3.64-0.38-7.18,0.64-10.55-1.29c-1.34-0.75-2.41-1.93-2.68-3.37c-0.16-0.69-0.11-1.45,0.05-2.09c0.16-0.69,0.59-1.29,0.27-1.98
		c-0.59-1.29-2.41-1.82-3.75-2.03c-1.72-0.27-3.37-0.32-4.93-1.07c-1.45-0.69-2.52-1.98-2.57-3.54c-0.05-1.77,1.02-2.9,2.14-4.18
		c1.12-1.29,0.38-2.14-1.12-2.52c-1.61-0.38-3.27-1.29-3.75-2.84c-0.54-1.66,0.48-3.21,1.77-4.29c1.12-0.91,2.84-1.45,3.54-2.73
		c0.27-0.43-1.23-1.07-1.56-1.45c-1.07-1.29-0.75-3,0.38-4.13c1.18-1.23,2.79-1.87,4.39-2.46c0.75-0.27,1.45-0.64,2.09-1.12
		c0.8-0.59,0.22-0.69,0.05-1.56c-0.69-3.81,5.25-4.61,7.83-5.47c0.75-0.27,1.56-0.59,2.2-1.07c0.38-0.27,0.38-1.34,0.69-1.82
		c0.91-1.23,2.57-1.87,4.07-2.3c1.66-0.43,3.43-0.54,5.09-1.02c0.8-0.22,1.66-0.48,2.3-0.96c0.54-0.38,0.8-1.12,1.45-1.56
		c3.21-2.03,7.39-1.18,10.93-2.36c1.23-0.43,2.09-1.34,3.43-1.77c1.77-0.54,3.7-0.75,5.52-0.64c1.66,0.11,3.32-0.11,4.93-0.48
		c1.39-0.38,2.63-1.12,4.07-1.39c3.27-0.59,6.54,0.32,9.81-0.22c1.45-0.22,2.73-0.8,4.18-0.96c1.72-0.22,3.54-0.16,5.2,0.27
		c3.43,0.8,6.59-0.38,9.97-0.32c2.52,0,4.71,1.02,7.18,1.23c3,0.27,6-0.48,9,0.16c1.39,0.27,2.52,1.02,3.86,1.34
		c1.66,0.38,3.37,0.48,5.09,0.43c1.56-0.05,3.11,0.11,4.61,0.54c1.66,0.43,2.73,1.56,4.29,2.03c3.54,1.07,7.93,0.22,10.93,2.52
		c0.59,0.43,0.8,1.12,1.45,1.5c0.69,0.38,1.45,0.59,2.2,0.8c1.29,0.38,2.63,0.48,3.97,0.75c1.5,0.32,3.11,0.8,4.29,1.77
		c0.64,0.54,1.12,1.18,1.23,1.98c0.11,0.69,0.86,0.96,1.56,1.29c2.14,0.96,4.55,1.12,6.59,2.3c1.29,0.75,2.46,2.03,2.14,3.59
		c-0.16,0.64-0.64,0.86-0.11,1.29c0.69,0.54,1.5,0.96,2.3,1.29c2.46,0.96,7.02,3.11,4.98,6.32c-0.38,0.59-0.96,1.02-1.61,1.34
		c-0.48,0.22,0.05,0.64,0.32,0.91c1.12,1.18,2.84,1.72,3.91,2.9s1.56,2.79,0.75,4.24c-0.91,1.61-2.57,1.77-4.18,2.46
		c-1.72,0.75-0.59,1.98,0.32,2.84c1.18,1.23,1.98,2.95,1.39,4.61c-1.23,3.54-5.47,2.95-8.41,3.86c-1.39,0.43-3.06,1.45-2.36,3.06
		c0.69,1.66,0.54,3.54-0.69,4.93c-2.41,2.79-6.49,2.57-9.91,2.46c-1.77-0.05-3.54,0.16-5.15,0.8c-0.75,0.27-1.45,0.64-2.03,1.18
		c-0.8,0.69-0.91,1.39-1.23,2.3c-1.12,3.21-4.82,4.66-8.14,4.93c-2.79,0.22-5.2-0.54-7.88-0.91c-2.63-0.38-5.41-0.27-7.93,0.54
		c-1.18,0.38-2.36,0.91-3.32,1.72c-0.86,0.75-1.56,1.56-2.57,2.2c-2.2,1.34-4.88,1.93-7.5,1.93c-2.68,0-5.36-0.59-7.72-1.82
		c-2.3-1.18-5.04-1.66-7.66-1.66s-5.36,0.43-7.66,1.66C-350.04,188.22-352.77,188.82-355.45,188.82"/>
	<path id="path144_2_" fill="#010101" d="M-319.6,134c0,5.52-9.81,10.02-21.97,10.02c-12.11,0-21.97-4.5-21.97-10.02
		s9.81-10.02,21.97-10.02C-329.46,123.98-319.6,128.47-319.6,134"/>
	<path id="path162_2_" fill="#D1D0BA" d="M-341.46,137.8c-3.11,0-8.41-1.23-8.63-5.84c-0.38-9.06-4.18-54.39-5.04-64.57l27.49,0.11
		c-1.5,19.29-4.93,63.5-5.2,65.32c-0.22,1.39-1.34,2.79-3.11,3.75C-337.39,137.37-339.37,137.8-341.46,137.8"/>
	<path fill="#FFFFFF" d="M-335.56,136.35l4.61-68.8h-6.91l-2.36,70.25c1.61-0.16,3.11-0.54,4.24-1.18
		C-335.83,136.52-335.67,136.41-335.56,136.35z"/>
	<path id="path166_2_" fill="#AA1F24" d="M-307.81,37.75c0,18.54-15,33.55-33.55,33.55c-18.55,0-33.55-15-33.55-33.55
		s15-33.55,33.55-33.55C-322.81,4.21-307.81,19.22-307.81,37.75"/>
	<path fill="#CB2128" d="M-307.81,37.75c0-18.49-15-33.55-33.55-33.55c-10.66,0-20.15,4.98-26.31,12.7
		c-3.91,11.36-1.39,24.38,7.61,33.38c12.59,12.59,33.22,12.49,45.98-0.27l0,0c2.46-2.46,4.45-5.25,6-8.2
		C-307.86,40.49-307.81,39.15-307.81,37.75L-307.81,37.75z"/>
	<path id="path170_2_" fill="#FFFFFF" d="M-321.74,15.3c5.2,5.73,5.89,12.59,3.32,13.99c-2.63,1.45-7.39-1.45-11.84-5.31
		c-4.39-3.91-7.23-8.63-5.36-11.95C-333.85,8.76-326.94,9.51-321.74,15.3"/>
	<path id="path152_5_" fill="#56813A" d="M-275.23,140.37l-30.65,0.11l0.05,7.29c0,3.59,1.82,6.49,5.95,8.3
		c2.73,1.23,6,1.93,9.38,1.93c3.16,0,6.27-0.59,8.95-1.72c4.07-1.72,6.38-4.5,6.38-7.77v-8.14L-275.23,140.37L-275.23,140.37
		L-275.23,140.37z"/>
	<path id="path152_4_" fill="#609741" d="M-290.56,130.83c-3.16,0-6.27,0.59-8.9,1.72c-3.75,1.56-6,4.07-6.32,7.02
		c-0.38,3.37,1.82,6.49,5.95,8.3c2.73,1.23,6,1.93,9.38,1.93c3.16,0,6.27-0.59,8.95-1.72c4.07-1.72,6.38-4.5,6.38-7.77
		c0-3-1.93-5.57-5.41-7.34c-0.38-0.22-0.69-0.38-0.96-0.43C-284.29,131.42-287.34,130.83-290.56,130.83"/>
	<path id="path152_3_" fill="#CEA52B" d="M-302.29,154.2l-30.65,0.11l0.05,7.29c0,3.59,1.82,6.49,5.95,8.3
		c2.73,1.23,6,1.93,9.38,1.93c3.16,0,6.27-0.59,8.95-1.72c4.07-1.72,6.38-4.5,6.38-7.77v-8.14L-302.29,154.2L-302.29,154.2
		L-302.29,154.2z"/>
	<path id="path152_2_" fill="#FDE200" d="M-317.62,144.66c-3.16,0-6.27,0.59-8.9,1.72c-3.75,1.56-6,4.07-6.32,7.02
		c-0.38,3.37,1.82,6.49,5.95,8.3c2.73,1.23,6,1.93,9.38,1.93c3.16,0,6.27-0.59,8.95-1.72c4.07-1.72,6.38-4.5,6.38-7.77
		c0-3-1.93-5.57-5.41-7.34c-0.38-0.22-0.69-0.38-0.96-0.43C-311.35,145.3-314.45,144.71-317.62,144.66"/>
</g>
</svg>