<?xml version="1.0" encoding="UTF-8" standalone="no"?>
<!DOCTYPE svg PUBLIC "-//W3C//DTD SVG 1.1//EN" "http://www.w3.org/Graphics/SVG/1.1/DTD/svg11.dtd">
<svg width="100%" height="100%" viewBox="0 0 567 99" version="1.1" xmlns="http://www.w3.org/2000/svg" xmlns:xlink="http://www.w3.org/1999/xlink" xml:space="preserve" xmlns:serif="http://www.serif.com/" style="fill-rule:evenodd;clip-rule:evenodd;stroke-linejoin:round;stroke-miterlimit:2;">
    <g>
        <path id="_43443024" d="M488.614,0.917L512.645,0.917L524.514,28.215L542.313,0.917L566.928,0.917L532.221,54.913L526.586,97.041L504.338,97.041L510.862,48.973L488.614,0.917Z" style="fill:rgb(46,49,146);fill-rule:nonzero;"/>
        <path id="_43441624" d="M311.799,97.041L314.766,75.671L280.951,75.671L283.027,59.066L312.393,59.066L315.362,37.706L286.29,37.706L288.368,22.276L322.182,22.276L325.446,0.917L269.379,0.917L256.029,97.041L311.799,97.041Z" style="fill:rgb(46,49,146);fill-rule:nonzero;"/>
        <path id="_43775888" d="M112.146,49.565L119.562,29.691L121.937,49.565L112.146,49.565ZM104.137,68.552L124.309,68.552L127.872,97.032L164.36,97.032L181.27,44.819L189.579,97.032L208.862,97.032L230.221,41.853L233.782,97.032L255.141,97.032L249.207,0.913L223.693,0.913L203.818,51.64L196.103,0.913L173.261,0.913L147.156,79.825L137.365,0.913L108.885,0.913L77.141,80.713L81.295,49.564L42.729,49.564L40.057,68.551L56.969,68.551L55.781,75.077C52.814,76.855 45.992,77.153 43.322,77.153C40.652,77.153 20.777,75.374 21.666,54.013C22.555,32.655 51.035,12.779 84.854,23.755L88.12,3.285C65.572,-4.427 6.354,-0.111 0.305,52.828C-3.254,83.977 25.226,98.811 44.211,98.516C55.188,99.11 67.649,94.955 72.098,92.581L70.616,97.032L93.163,97.032L104.137,68.552Z" style="fill:rgb(46,49,146);fill-rule:nonzero;"/>
        <path id="_44102912" d="M464.581,0.028C449.153,-0.566 426.903,8.334 419.487,44.232C412.071,80.126 431.946,94.663 450.339,97.036C468.735,99.409 494.544,87.84 499.29,53.427C504.038,19.013 487.125,0.919 464.581,0.028ZM462.208,20.498C468.437,20.498 481.786,24.652 478.522,49.569C475.26,74.489 459.834,77.456 454.196,76.862C448.559,76.268 436.989,72.414 440.253,49.569C443.516,26.728 455.678,20.201 462.208,20.498Z" style="fill:rgb(46,49,146);fill-rule:nonzero;"/>
        <path id="_44104296" d="M370.833,37.706L383.294,37.706C392.491,37.706 394.271,31.772 394.565,29.401C394.862,27.026 392.194,22.279 387.448,22.279L372.911,22.279L370.833,37.706ZM365.493,75.677L382.405,75.677C391.6,75.677 393.676,68.558 393.971,66.184C394.27,63.811 391.6,59.066 386.854,59.066L367.868,59.066L365.493,75.677ZM340.575,97.038L353.925,0.92L394.863,0.92C404.656,0.92 418.894,12.194 417.115,27.323C415.336,42.453 410.588,43.343 407.324,45.716C412.369,50.163 417.412,57.284 415.336,70.634C413.258,83.986 402.281,97.037 382.998,97.037L340.575,97.038Z" style="fill:rgb(46,49,146);fill-rule:nonzero;"/>
        <path id="_44106160" d="M538.618,82.498C534.958,82.498 532.003,85.449 532.003,89.091C532.003,92.772 534.956,95.724 538.618,95.724C542.259,95.724 545.21,92.772 545.21,89.091C545.209,85.448 542.256,82.498 538.618,82.498L538.618,81.591C542.768,81.591 546.116,84.957 546.116,89.091C546.116,93.263 542.768,96.629 538.618,96.629C534.444,96.628 531.079,93.263 531.079,89.091C531.079,84.956 534.444,81.592 538.618,81.592L538.618,82.498Z" style="fill:rgb(46,49,146);fill-rule:nonzero;"/>
        <path id="_42975192" d="M536.84,85.638L539.242,85.638C540.287,85.638 541.424,85.795 541.424,87.095C541.424,88.806 539.596,88.611 538.414,88.611L536.84,88.61L536.84,89.418L538.731,89.418L541.133,93.296L542.352,93.296L539.813,89.418C541.309,89.38 542.469,88.769 542.469,87.116C542.469,86.406 542.156,85.659 541.524,85.303C540.897,84.929 540.186,84.89 539.477,84.89L535.819,84.89L535.819,93.294L536.84,93.294L536.84,85.638Z" style="fill:rgb(46,49,146);fill-rule:nonzero;"/>
    </g>
</svg>
