<?xml version="1.0" encoding="UTF-8" standalone="no"?><!DOCTYPE svg PUBLIC "-//W3C//DTD SVG 1.1//EN" "http://www.w3.org/Graphics/SVG/1.1/DTD/svg11.dtd"><svg width="100%" height="100%" viewBox="0 0 2363 282" version="1.1" xmlns="http://www.w3.org/2000/svg" xmlns:xlink="http://www.w3.org/1999/xlink" xml:space="preserve" xmlns:serif="http://www.serif.com/" style="fill-rule:evenodd;clip-rule:evenodd;stroke-linejoin:round;stroke-miterlimit:2;"><g><g><path id="path5" d="M888.738,234.583c-19.913,27.05 -39.625,34.725 -48.251,38.875c-8.616,4.159 -21.67,7.413 -33.087,7.413c-32.038,0 -57.033,-10.446 -75,-31.25c-17.975,-20.9 -26.954,-50.196 -26.954,-88.188c0,-44.925 11.329,-83.012 34.091,-114.462c22.746,-31.346 52.921,-46.971 90.521,-46.971c28.525,0 51.854,8.008 70.117,24.121c18.262,16.016 27.35,41.212 27.35,75.487l-55.183,0c0,-16.408 -3.613,-27.929 -10.85,-34.571c-7.217,-6.541 -17.58,-9.862 -31.155,-9.862c-22.166,0 -39.258,10.837 -51.466,32.421c-12.109,21.683 -18.271,46.287 -18.271,73.925c0,18.85 4.012,34.287 11.825,46.191c7.908,12.021 19.717,17.971 35.45,17.971c16.408,0 29.1,-4.687 38.283,-13.971c9.084,-9.174 15.821,-21.095 20.117,-35.649l-51.375,0l8.317,-50.001l100.187,0.001l-8.496,48.437c0.013,0.021 -6.337,33.033 -26.171,60.083Z" style="fill:#fff;fill-rule:nonzero;"/><path id="polygon9" d="M1365.12,6.942l-44.821,267.391l-48.246,0l37.992,-207.233l-83.8,207.233l-39.542,0l-18.262,-207.137l-28.825,207.137l-48.817,0l44.617,-267.391l68.475,0l15.333,188.287l76.954,-188.783l68.942,0.496Z" style="fill:#fff;fill-rule:nonzero;"/><path id="polygon11" d="M1416.2,110.454l78.816,0l-8.216,51.863l-78.804,0l-10.155,56.933l88.959,0l-8.775,55.083l-140.242,0l44.338,-267.691l138.57,0l-8.487,55.471l-87.212,0l-8.792,48.341Z" style="fill:#fff;fill-rule:nonzero;"/><path id="path13" d="M996.171,6.446l-107.813,267.887l52.538,0l19.237,-52.254l68.75,0l4.492,52.254l50.879,0l-30.471,-267.883l-57.612,0l0,-0.004Zm-19.338,169.933l39.071,-106.546l9.075,106.546l-48.146,0Z" style="fill:#fff;fill-rule:nonzero;"/></g><g><path id="path5_1_" d="M1792.85,234.583c-19.921,27.05 -39.625,34.725 -48.25,38.88c-8.617,4.154 -21.671,7.412 -33.087,7.412c-32.034,0 -57.034,-10.45 -75,-31.25c-17.976,-20.9 -26.963,-50.192 -26.963,-88.183c0,-44.925 11.338,-83.013 34.092,-114.463c22.754,-31.346 52.929,-46.971 90.529,-46.971c28.516,0 51.854,8.009 70.116,24.121c18.271,16.021 27.346,41.221 27.346,75.492l-55.166,0c0,-16.409 -3.613,-27.929 -10.85,-34.571c-7.217,-6.538 -17.58,-9.863 -31.155,-9.863c-22.166,0 -39.258,10.838 -51.466,32.421c-12.117,21.684 -18.263,46.288 -18.263,73.929c0,18.846 4.004,34.284 11.809,46.188c7.916,12.021 19.725,17.971 35.458,17.971c16.408,0 29.1,-4.688 38.283,-13.967c9.084,-9.179 15.821,-21.096 20.125,-35.65l-51.375,0l8.3,-50l100.196,0l-8.496,48.438c-0.004,0.004 -6.358,33.016 -26.183,60.066Z" style="fill:#fff;fill-rule:nonzero;"/><path id="polygon15" d="M1895.8,110.55l78.7,0l-8.096,51.767l-78.817,0l-10.245,56.933l89.062,0l-8.787,55.175l-140.246,0l44.337,-267.783l138.584,0l-8.496,55.466l-87.217,0l-8.779,48.442Z" style="fill:#fff;fill-rule:nonzero;"/><path id="path17" d="M2070,6.55l-107.812,267.883l52.646,0l19.133,-52.25l68.854,0l4.483,52.25l50.788,0l-30.475,-267.883l-57.617,0Zm-19.237,169.825l38.975,-106.55l9.179,106.55l-48.154,0Z" style="fill:#fff;fill-rule:nonzero;"/><path id="path19" d="M2239.55,124.317l11.721,-65.913l28.125,0c10.35,0 18.066,1.85 23.241,5.567c5.175,3.808 7.717,11.325 7.717,22.654c0,12.696 -4.2,22.071 -12.5,28.325c-8.408,6.25 -19.042,9.371 -31.933,9.371l-26.371,0l0,-0.004Zm-31.738,-117.675l-44.337,267.783l51.262,0l17.196,-102.054l23.729,0l39.65,102.054l58.788,0l-43.946,-112.992c15.333,-7.812 28.517,-20.804 37.696,-34.375c9.571,-13.966 14.354,-30.275 14.354,-48.929c0,-25.292 -5.662,-43.458 -17.092,-54.687c-11.329,-11.225 -27.45,-16.796 -48.145,-16.796l-89.155,0l0,-0.004Z" style="fill:#fff;fill-rule:nonzero;"/></g><path id="path21" d="M42.808,109.504c45.238,-75.875 107.513,-123.233 139.096,-105.942c31.517,17.367 20.408,92.951 -24.912,168.776c-45.246,75.879 -107.513,123.229 -139.021,105.929c-31.592,-17.355 -20.417,-92.946 24.837,-168.763Z" style="fill:#d61808;fill-rule:nonzero;"/><path id="path21_2_" d="M245.192,109.504c45.241,-75.875 107.512,-123.233 139.087,-105.942c31.517,17.367 20.409,92.951 -24.912,168.776c-45.238,75.879 -107.509,123.229 -139.021,105.929c-31.584,-17.355 -20.409,-92.946 24.846,-168.763Z" style="fill:#008400;fill-rule:nonzero;"/><path id="path21_3_" d="M447.575,109.504c45.229,-75.879 107.513,-123.233 139.088,-105.946c31.516,17.367 20.408,92.95 -24.913,168.775c-45.246,75.879 -107.504,123.23 -139.021,105.93c-31.587,-17.351 -20.408,-92.942 24.846,-168.759Z" style="fill:#00f;fill-rule:nonzero;"/></g></svg>