<?xml version="1.0" encoding="UTF-8" standalone="no"?>
<!-- Created with Inkscape (http://www.inkscape.org/) -->

<svg
   xmlns:dc="http://purl.org/dc/elements/1.1/"
   xmlns:cc="http://creativecommons.org/ns#"
   xmlns:rdf="http://www.w3.org/1999/02/22-rdf-syntax-ns#"
   xmlns:svg="http://www.w3.org/2000/svg"
   xmlns="http://www.w3.org/2000/svg"
   xmlns:sodipodi="http://sodipodi.sourceforge.net/DTD/sodipodi-0.dtd"
   xmlns:inkscape="http://www.inkscape.org/namespaces/inkscape"
   id="svg14594"
   version="1.1"
   inkscape:version="0.91 r13725"
   width="1920"
   height="1080"
   viewBox="0 0 1920 1080"
   sodipodi:docname="gamegear_wire.svg">
  <metadata
     id="metadata14600">
    <rdf:RDF>
      <cc:Work
         rdf:about="">
        <dc:format>image/svg+xml</dc:format>
        <dc:type
           rdf:resource="http://purl.org/dc/dcmitype/StillImage" />
        <dc:title></dc:title>
      </cc:Work>
    </rdf:RDF>
  </metadata>
  <defs
     id="defs14598" />
  <sodipodi:namedview
     pagecolor="#ffffff"
     bordercolor="#666666"
     borderopacity="1"
     objecttolerance="10"
     gridtolerance="10"
     guidetolerance="10"
     inkscape:pageopacity="0"
     inkscape:pageshadow="2"
     inkscape:window-width="663"
     inkscape:window-height="480"
     id="namedview14596"
     showgrid="false"
     inkscape:zoom="0.19739583"
     inkscape:cx="960"
     inkscape:cy="540"
     inkscape:window-x="0"
     inkscape:window-y="0"
     inkscape:window-maximized="0"
     inkscape:current-layer="svg14594" />
  <path
     style="fill:#000000;fill-opacity:0"
     d="m 1280.6979,954.12361 c -5.6159,-0.7673 -38.9246,-8.2956 -46.8501,-10.58872 -1.0175,-0.29442 -2.7202,-2.50244 -3.7838,-4.9067 -1.5927,-3.60064 -2.5889,-4.54199 -5.6499,-5.33891 -2.0439,-0.53214 -18.7912,-4.79736 -37.2162,-9.47827 -18.425,-4.68092 -37.7291,-9.64417 -42.8981,-11.02944 -5.1689,-1.38527 -9.7774,-2.28423 -10.241,-1.99768 -0.4637,0.28655 -0.195,2.07192 0.597,3.9675 0.792,1.89557 1.0413,3.4465 0.5539,3.4465 -1.2986,0 -63.7775,-16.92664 -101.7138,-27.55609 -29.8163,-8.35426 -51.99718,-14.63871 -54.79798,-15.52571 -1.65,-0.52254 -19.20003,-5.70229 -39.00003,-11.51056 -37.58284,-11.02479 -84.61419,-25.30702 -117,-35.52994 -28.47338,-8.98791 -142.46724,-46.57072 -154.5,-50.93734 -5.775,-2.09571 -22.2,-7.85397 -36.5,-12.79614 -39.1964,-13.54651 -63.30427,-22.26151 -119.5,-43.19926 -50.48387,-18.80959 -46.21145,-16.88692 -48.61821,-21.87911 -1.69239,-3.51043 -2.99905,-4.73178 -6.5,-6.07563 -2.40998,-0.92508 -21.2823,-8.27632 -41.93849,-16.33609 -20.65618,-8.05977 -38.14183,-14.65413 -38.85699,-14.65413 -0.84616,0 -1.04867,0.61119 -0.57985,1.75 2.16485,5.25854 2.02996,5.25004 -13.11362,-0.82636 -21.89956,-8.78726 -30.64274,-14.34958 -40.72256,-25.90728 -10.10439,-11.58587 -15.67028,-26.43582 -15.67028,-41.80874 l 0,-8.42764 4.41223,5.99359 c 5.26774,7.15572 14.62417,14.9507 23.57294,19.63898 10.6842,5.59747 116.75638,47.58745 120.21213,47.58745 2.15823,0 12.47782,3.54472 29.1195,10.00237 5.94924,2.30855 11.02171,3.99245 11.27217,3.742 0.25045,-0.25045 -7.65461,-3.51905 -17.5668,-7.26355 -9.91219,-3.7445 -18.02217,-6.92775 -18.02217,-7.07388 0,-0.14614 4.42524,-3.82523 9.83387,-8.17577 7.06349,-5.68167 11.16284,-8.24471 14.55129,-9.09794 2.59459,-0.65332 5.14435,-0.92401 5.66614,-0.60153 0.52178,0.32248 0.9487,6.33134 0.9487,13.353 0,11.96563 0.14118,12.89526 2.25,14.81602 3.7065,3.37597 6.33009,4.29928 12.21638,4.29928 11.99895,0 15.53362,-3.57765 15.53362,-15.72251 0,-9.57906 -0.14175,-9.49006 9.5,-5.96495 l 6,2.19366 0.27418,16.7469 c 0.1508,9.21079 -0.0935,16.7469 -0.54294,16.7469 -0.44942,0 -9.28065,-3.17965 -19.62496,-7.06589 -10.3443,-3.88624 -18.99028,-6.88344 -19.21329,-6.66044 -0.223,0.22301 2.63485,1.55963 6.35078,2.97028 3.71592,1.41066 12.38123,4.69525 19.25623,7.2991 6.875,2.60384 13.19371,5.33173 14.04157,6.06197 0.84786,0.73024 4.67286,2.5075 8.5,3.94947 8.20977,3.09324 57.59396,20.77604 71.95843,25.76586 5.5,1.91056 21.925,7.61933 36.5,12.68617 29.33906,10.19941 102.98265,34.71876 132.5,44.11538 60.64331,19.30532 56.45185,18.00969 123,38.02061 56.39438,16.9577 137.26651,39.85749 140.75931,39.85749 1.617,0 7.0577,1.09808 12.0904,2.44017 5.0326,1.3421 23.5503,6.27861 41.1503,10.97002 17.6,4.69141 33.35,9.26798 35,10.17015 3.4344,1.87784 4.2047,2.08151 73.7939,19.51217 28.4867,7.13531 56.3867,13.67813 62,14.53959 14.7989,2.27113 39.4548,1.3442 53.9601,-2.02861 18.7449,-4.35862 33.5984,-11.38829 44.4205,-21.02267 6.8923,-6.13581 26.1746,-29.09975 55.9067,-66.58082 18.2983,-23.06747 51.3051,-67.51953 76.8512,-103.5 9.7625,-13.75 19.0456,-26.8 20.6291,-29 5.8922,-8.18626 43.9385,-65.37702 43.9385,-66.04791 0,-0.38334 -0.675,-0.13678 -1.5,0.54791 -1.29,1.07058 -1.5,0.69568 -1.5,-2.67756 0,-2.15734 0.54,-4.46244 1.2,-5.12244 0.8353,-0.83528 0.882,-1.51796 0.1539,-2.24613 -0.7282,-0.72817 -1.8054,-0.0443 -3.5441,2.25 -3.4211,4.5141 -5.0052,7.67096 -4.3673,8.70311 0.2943,0.4761 -0.3599,1.09967 -1.4537,1.38571 -1.0939,0.28604 -1.9888,1.21675 -1.9888,2.06824 0,0.85149 -1.125,2.67316 -2.5,4.04816 -1.375,1.375 -2.5,3.14731 -2.5,3.93847 0,0.79115 -0.675,1.69748 -1.5,2.01407 -0.825,0.31658 -1.5,1.24427 -1.5,2.06153 0,0.81726 -1.125,2.61093 -2.5,3.98593 -1.375,1.375 -2.5,3.16084 -2.5,3.96853 0,0.80769 -1.3344,2.80293 -2.9653,4.43385 -2.7795,2.77949 -2.9493,3.39533 -2.7096,9.82693 l 0.2557,6.8616 -12.4579,18 c -60.1899,86.96619 -140.0774,190.02632 -157.3872,203.04006 -22.533,16.94055 -59.4587,24.85429 -93.2357,19.98183 -9.0157,-1.30055 -118.1663,-27.71099 -127.5,-30.85033 -0.825,-0.27748 -2.7375,-0.77567 -4.25,-1.10709 -2.7365,-0.59961 -2.75,-0.64432 -2.75,-9.08352 0,-4.66452 0.4072,-8.48095 0.9048,-8.48095 0.4977,0 27.8339,6.77848 60.7472,15.0633 32.9133,8.28481 64.3436,15.74586 69.8452,16.5801 12.0364,1.82519 33.0129,2.01937 44.0028,0.40734 18.24,-2.6755 36.4448,-9.17327 48.9428,-17.46898 6.8442,-4.54294 16.9669,-15.33603 35.2544,-37.58908 48.6425,-59.19052 111.4548,-144.86182 156.8028,-213.86729 l 16,-24.34701 0.2929,7.06653 c 0.2317,5.58971 -0.1419,7.91889 -1.7878,11.1451 -1.1444,2.24322 -1.8407,4.46702 -1.5473,4.94179 1.3574,2.19627 1.3386,15.90969 -0.031,22.4701 -1.759,8.42684 -2.4885,9.6758 -28.3882,48.5981 -49.7713,74.79706 -105.0202,149.335 -158.7615,214.19002 -21.2391,25.63136 -29.9091,32.38236 -50.6448,39.435 -14.5757,4.9575 -36.7905,7.2605 -51.1324,5.3007 z m -142.7267,-35.67572 c -0.8452,-0.9625 -1.8453,-2.7625 -2.2224,-4 -0.8398,-2.75587 -0.2766,-2.78055 8.9491,-0.39205 l 7,1.81227 -3.5,2.16115 c -4.2382,2.61699 -8.1555,2.77734 -10.2267,0.41863 z m 143.2267,-25.88206 c -11.4919,-1.08618 -49.3695,-10.04942 -124.75,-29.52047 l -16.25,-4.19743 0,-8.32502 c 0,-6.89059 0.2699,-8.32502 1.5666,-8.32502 0.8616,0 12.2241,2.74195 25.25,6.09321 24.3542,6.26578 76.0997,19.18413 91.1834,22.76407 15.2352,3.61591 24.2853,4.43985 42.3735,3.85778 13.6584,-0.43952 19.1659,-1.06207 27.1976,-3.07435 17.0545,-4.27285 33.0956,-11.1074 33.0956,-14.10088 0,-0.87746 -0.4875,-1.41414 -1.0834,-1.19261 -0.5958,0.22153 -0.9597,0.94248 -0.8085,1.60211 0.1511,0.65963 -0.1527,0.93516 -0.6751,0.6123 -1.3867,-0.85702 -6.1476,1.55178 -5.4138,2.73911 0.3427,0.55455 0.143,0.71157 -0.4437,0.34892 -0.5868,-0.36264 -4.3688,0.64857 -8.4045,2.24714 -16.4817,6.52849 -33.3449,9.17982 -54.3377,8.54331 -15.0426,-0.4561 -21.7046,-1.62578 -48.7778,-8.56407 -10.8779,-2.78776 -20.4637,-4.80547 -21.302,-4.4838 -0.9742,0.37383 -1.2713,0.17586 -0.8235,-0.54868 0.4789,-0.77491 -0.1279,-0.97518 -1.9178,-0.63301 -1.4401,0.2753 -2.432,0.19899 -2.2042,-0.16956 0.2277,-0.36855 -10.0234,-3.29177 -22.7803,-6.49604 -33.2155,-8.34303 -67.213,-17.10438 -81.6944,-21.05309 -6.875,-1.87464 -23.3,-6.32602 -36.5,-9.89196 -29.611,-7.99933 -97.60618,-27.06085 -118.50001,-33.21986 -137.70918,-40.59348 -236.42373,-72.5153 -361,-116.73836 -46.19913,-16.40013 -38.86711,-13.71897 -92.5,-33.82521 -17.6,-6.598 -47.65221,-18.04835 -66.78269,-25.44523 -19.13049,-7.39687 -35.28752,-13.13687 -35.90451,-12.75554 -0.617,0.38132 -0.85925,0.26847 -0.53833,-0.25079 0.79572,-1.2875 -40.76608,-17.79715 -42.34554,-16.82098 -0.7226,0.44659 -0.98361,0.35356 -0.62699,-0.22346 0.33602,-0.5437 -1.95695,-2.02371 -5.09549,-3.28891 -20.53227,-8.27691 -35.42036,-19.77899 -40.90004,-31.59811 -6.95812,-15.00794 -2.32711,-51.60216 8.86785,-70.07376 12.40823,-20.47349 163.328,-172.03017 243.49386,-244.52147 24.6754,-22.31314 25.64156,-22.70344 51.81121,-20.93031 29.65987,2.00961 51.11755,5.20557 75.68719,11.27303 l 12.66652,3.12799 -1.01091,2.59554 c -0.556,1.42754 -2.79973,8.67053 -4.98607,16.09553 -3.59366,12.20441 -36.9327,126.13918 -45.50166,155.5 -1.92621,6.6 -5.3034,18.075 -7.50487,25.5 -4.88796,16.48588 -5.8898,27.27422 -3.43595,37 4.429,17.55421 16.98679,33.81009 36.10642,46.73924 7.72117,5.22124 19.45199,11.6421 20.09507,10.99902 0.27412,-0.27412 -2.78513,-2.18844 -6.79833,-4.25404 -10.84977,-5.58437 -17.70235,-10.3632 -23.37583,-16.30173 -8.46891,-8.86457 -15.48931,-22.28219 -16.83861,-32.18249 l -0.6133,-4.5 2.15643,5.5 c 7.14769,18.23023 25.73074,36.0331 48.98904,46.9323 9.0237,4.22865 16.10299,6.85093 33.38553,12.36653 6.05,1.93081 17.975,5.76271 26.5,8.51533 8.525,2.75262 26.3,8.44504 39.5,12.64982 13.2,4.20478 25.125,8.04061 26.5,8.52406 1.375,0.48345 12.625,4.09005 25,8.01467 12.375,3.92462 34.2,10.88401 48.5,15.46531 157.86071,50.57394 149.45641,48.06036 170.50001,50.99364 13.128,1.82993 41.0678,2.1166 54.7897,0.56217 19.9054,-2.25492 42.4809,-8.40528 58.7103,-15.99477 4.4,-2.05761 17.675,-9.3644 29.5,-16.23731 11.825,-6.87291 35.675,-20.73607 53,-30.80703 62.2651,-36.19447 86.1491,-49.98472 86.571,-49.98472 0.236,0 0.4106,1.4625 0.388,3.25 -0.036,2.8781 -0.5798,3.50381 -4.75,5.46801 -2.5899,1.21991 -10.559,5.65869 -17.709,9.86397 -7.15,4.20528 -16.15,9.47563 -20,11.7119 -3.85,2.23627 -9.475,5.52168 -12.5,7.30092 -43.9899,25.87392 -101.6772,58.79044 -109.5,62.48094 -25.9652,12.24938 -55.2195,18.23143 -89,18.19912 -31.3936,-0.03 -45.64,-2.71756 -91.0697,-17.17994 -36.39058,-11.58482 -92.98726,-29.68208 -126.93031,-40.58701 -43.75988,-14.05879 -76.27232,-24.46258 -87.5,-27.99949 -35.79377,-11.27561 -86.88165,-27.91578 -89,-28.98876 -1.375,-0.69646 -3.625,-1.56474 -5,-1.92951 -2.49174,-0.66103 -2.49118,-0.65818 0.16966,0.86316 4.53578,2.59333 15.87264,6.38369 83.83034,28.02781 9.74078,3.10238 103.16749,33.0126 123.5,39.53807 4.95,1.58864 15.3,4.90193 23,7.36286 7.7,2.46093 25.25,8.07543 39,12.47668 79.17681,25.34378 81.90081,26.07858 107.00001,28.86434 11.9965,1.33149 42.0449,0.71867 55,-1.1217 14.8728,-2.11279 30.2133,-5.80492 42,-10.10854 17.2402,-6.29481 14.9019,-5.04701 75.5,-40.2886 42.9973,-25.00558 59.0472,-34.33608 82.7434,-48.10231 15.3379,-8.91052 19.6106,-10.98283 21.0529,-10.21094 2.3089,1.23568 21.5348,4.10902 27.4941,4.10902 19.0029,0 37.3626,-9.43437 40.8206,-20.97623 1.0846,-3.62 0.9575,-4.94571 -1.0842,-11.31216 -1.272,-3.96639 -2.6984,-7.63911 -3.1698,-8.16161 -0.4713,-0.5225 -0.857,-1.26125 -0.857,-1.64167 0,-1.16848 34.5815,-20.95399 38.5287,-22.04386 3.2069,-0.88548 4.9445,-0.58268 12.8401,2.23753 18.4504,6.59035 44.0012,19.0249 71.1882,34.64447 22.4681,12.90851 26.4291,16.42071 30.554,27.09252 1.9823,5.12847 2.1931,7.55152 2.2413,25.75754 l 0.053,20.09653 -3.2028,4.99102 c -3.2408,5.0504 -4.4363,8.32918 -1.7345,4.75705 0.8075,-1.06762 1.4825,-1.46863 1.5,-0.89113 0.017,0.5775 -0.5007,1.5825 -1.1515,2.23333 -0.6509,0.65084 -0.9461,1.42061 -0.6561,1.7106 0.29,0.29 2.06,-1.84 3.9333,-4.73333 l 3.4061,-5.2606 0.2931,7.21626 c 0.3339,8.21938 0.098,8.81552 -9.1925,23.28359 -36.9348,57.51501 -101.7464,147.47379 -146.9737,204.00015 -24.2173,30.26758 -42.2888,51.34658 -47.8037,55.75957 -6.2197,4.97698 -20.5727,12.32446 -29.7693,15.23937 -16.1943,5.13286 -41.6201,7.92228 -58.0539,6.369 z m 85.3742,-37.28139 c 16.7731,-11.54019 91.5656,-107.40986 157.1568,-201.44502 l 8.969,-12.85847 0.5,4.85847 0.5,4.85847 3.3975,-5 c 4.678,-6.8844 19.9647,-29.78782 24.4308,-36.60351 3.1464,-4.8019 3.6717,-6.42065 3.6717,-11.31574 0,-3.14173 -0.4768,-6.60321 -1.0596,-7.69217 -0.5828,-1.08897 -1.1878,-4.43935 -1.3444,-7.44529 -0.1566,-3.00594 -0.4915,-5.67211 -0.7442,-5.92482 -0.2527,-0.25271 -3.5579,4.3159 -7.3449,10.15245 -5.4011,8.32418 -6.9228,11.49766 -7.0587,14.7205 -0.095,2.25972 -1.0529,5.55489 -2.128,7.32261 -2.1924,3.60486 -9.1437,9.51311 -10.3299,8.77995 -0.4244,-0.26224 -1.4958,0.6285 -2.3809,1.97942 -1.1341,1.73087 -1.6094,4.77583 -1.6094,10.31081 l 0,7.85458 -8.3975,12.09738 c -42.9952,61.93825 -91.5501,126.51833 -131.0214,174.26383 -14.4772,17.51194 -20.804,24.36244 -26.0274,28.18159 -2.1704,1.58697 -4.0431,3.54533 -4.1615,4.35191 -0.2955,2.01346 0.1336,1.88882 4.982,-1.44695 z m -0.3742,-1.77652 c 18.2205,-14.60566 102.6509,-123.46285 156.3315,-201.56003 4.8201,-7.0125 9.0191,-12.75 9.3311,-12.75 2.3151,0 -55.8351,80.73797 -92.55,128.5 -41.9552,54.57905 -67.0169,83.90016 -75.1126,87.87853 -0.825,0.40542 0.075,-0.52541 2,-2.0685 z m 168,-210.81003 c 0,-2.475 -0.45,-4.5 -1,-4.5 -0.55,0 -1,-1.11742 -1,-2.48315 0,-1.96247 1.0093,-2.99463 4.8135,-4.92232 6.0091,-3.04506 11.7234,-9.26451 13.1144,-14.27375 0.5835,-2.10143 1.0635,-6.68142 1.0665,-10.17777 0,-5.46189 0.2349,-6.26898 1.6344,-5.73198 0.8958,0.34376 3.5958,1.12033 6,1.72571 2.4041,0.60538 4.3712,1.46931 4.3712,1.91984 0,0.97516 -27.9041,42.94342 -28.5525,42.94342 -0.2461,0 -0.4475,-2.025 -0.4475,-4.5 z m -0.7003,-16.5 c 0,-3.025 0.1874,-4.2625 0.4166,-2.75 0.2291,1.5125 0.2291,3.9875 0,5.5 -0.2292,1.5125 -0.4166,0.275 -0.4166,-2.75 z m 2,-1 c 0,-3.025 0.1874,-4.2625 0.4166,-2.75 0.2291,1.5125 0.2291,3.9875 0,5.5 -0.2292,1.5125 -0.4166,0.275 -0.4166,-2.75 z m 1.7003,-2 c 0,-2.93333 0.3123,-5.02108 0.6939,-4.63943 0.7295,0.72947 0.521,8.75789 -0.2474,9.52626 -0.2456,0.24558 -0.4465,-1.9535 -0.4465,-4.88683 z m 18.75,-22.66224 c -6.2716,-1.91977 -6.2376,-3.9761 0.2322,-14.06703 l 4.9823,-7.77073 0.018,6.78138 c 0.013,5.09355 0.3911,6.92465 1.5178,7.35699 1.0183,0.39078 1.5,1.98621 1.5,4.96862 0,5.00016 -0.4018,5.13316 -8.25,2.73077 z m -11.4901,4.36959 c 1.5179,-2.76154 2.6009,-5.17989 2.4067,-5.37411 -0.4242,-0.42419 -11.6666,16.3285 -11.6666,17.38479 0,1.42545 6.5303,-7.04479 9.2599,-12.01068 z m -218.2928,10.2063 c 10.1545,-2.17776 18.9781,-10.89978 19.0164,-18.79763 0.01,-1.86119 -0.4656,-5.23619 -1.0549,-7.5 -3.0142,-11.5798 -3.0065,-10.60243 -0.085,-10.7522 2.1075,-0.10804 2.225,-0.22134 0.5687,-0.54829 -1.4853,-0.29318 -2.4953,-1.76887 -3.5,-5.11381 -1.143,-3.80517 -1.7937,-4.63642 -3.4123,-4.35925 -3.8328,0.6563 -6.0357,0.34104 -11.5,-1.64579 -11.2794,-4.10121 -24.168,-3.35642 -34.1699,1.97458 -7.0748,3.77081 -10.3318,7.64312 -11.7495,13.9691 -0.5666,2.52823 -1.497,5.82478 -2.0677,7.32567 -3.188,8.38523 8.4792,21.02574 23.0113,24.93088 6.5868,1.77003 17.9968,2.0064 24.9429,0.51674 z m -24.9671,-1.79605 c -7.7689,-2.50704 -11.9349,-4.79659 -16.25,-8.93073 -3.221,-3.0859 -3.75,-4.2136 -3.75,-7.99341 l 0,-4.40064 3.5278,3.09745 c 4.9356,4.33348 9.9944,6.71835 17.3,8.15564 12.5607,2.47115 27.0935,-0.58381 34.7224,-7.29902 l 4.4498,-3.91686 0,6.39385 c 0,6.80441 -0.6793,8.22586 -5.5,11.50936 -7.6498,5.21046 -23.901,6.80465 -34.5,3.38436 z m -14.75,-19.77988 c -1.6784,-0.67726 -1.6338,-6.33772 0.05,-6.33772 2.0033,0 3.7,2.1553 3.7,4.7 0,2.21683 -1.1116,2.70232 -3.75,1.63772 z m 14.7435,-0.22661 c -14.7696,-4.76051 -17.7485,-16.51994 -5.7821,-22.82471 4.813,-2.53584 6.2328,-2.7864 15.7886,-2.7864 9.5601,0 11.0032,0.25497 16.1212,2.84834 4.7906,2.4275 5.7963,3.43283 6.8064,6.80431 1.7231,5.75124 -0.7926,10.45058 -7.396,13.81554 -4.0838,2.08106 -6.5763,2.56911 -14,2.7413 -4.9674,0.11523 -10.1595,-0.15405 -11.5381,-0.59838 z m 31.4689,-1.86111 c 0.8738,-3.53812 2.016,-4.66414 3.9704,-3.91417 3.0846,1.18368 0.5248,6.66417 -3.1126,6.66417 -1.1747,0 -1.3769,-0.64822 -0.8578,-2.75 z m 6.5202,-17.80264 c -0.783,-2.37268 -1.4868,-3.24954 -1.9746,-2.46024 -0.5403,0.8742 -0.9544,0.90856 -1.442,0.11964 -0.3762,-0.60872 -0.4693,-1.10676 -0.2068,-1.10676 0.2625,0 1.1579,-0.26119 1.9898,-0.58043 1.0987,-0.42159 1.7978,0.4524 2.5547,3.19377 1.3635,4.93811 0.6474,5.58651 -0.9211,0.83402 z m 107.0352,38.57492 c 5.6092,-2.82237 8.1195,-4.99114 7.3041,-6.31044 -0.3659,-0.59211 -0.1361,-0.71505 0.5472,-0.29271 0.7658,0.47324 1.9073,-0.92005 3.2609,-3.98001 2.7858,-6.29796 2.2235,-9.87105 -3.5186,-22.35551 -1.6963,-3.68802 -6.335,-7.90987 -11.6506,-10.60345 -4.3797,-2.21937 -6.2804,-2.69211 -15.4608,-3.84534 -4.6049,-0.57845 -15.228,1.15128 -19.9799,3.25327 -5.5041,2.4347 -12.4556,8.7274 -14.173,12.82979 -5.351,12.78197 8.3247,29.16814 27.7612,33.26335 7.6058,1.60251 20.8165,0.60368 25.9095,-1.95895 z m -27.0178,0.45065 c -9.0101,-2.49707 -15.6195,-6.25588 -20.4526,-11.63145 -5.6619,-6.29734 -6.2575,-9.84352 -0.7974,-4.74727 12.4078,11.58095 38.7344,11.74265 52.0793,0.31987 l 4.1707,-3.56993 0,4.32793 c 0,5.68147 -2.748,10.01208 -8.4635,13.36156 -5.8264,3.41449 -17.9995,4.30422 -26.5328,1.93929 z m 35.8465,-13.45244 c 0.1905,-2.7606 0.753,-4.76799 1.25,-4.46087 1.3235,0.81801 1.102,5.78647 -0.3465,7.76913 -1.0489,1.43572 -1.1943,0.90342 -0.9035,-3.30826 z m -57.0084,-6.47641 c -0.7937,-1.74196 -0.8524,-2.92978 -0.1782,-3.60399 1.4686,-1.46856 4.3401,-0.0349 4.3401,2.1669 0,1.04115 0.024,2.23051 0.053,2.64301 0.1436,2.03876 -3.168,1.09123 -4.2147,-1.20592 z m 14.0067,0.97063 c -9.418,-3.46391 -12.7623,-8.16623 -10.7978,-15.18263 1.1082,-3.95815 1.8042,-4.68123 6.8433,-7.1098 4.5667,-2.20085 7.3287,-2.76967 14.8552,-3.05928 8.5974,-0.33081 9.7018,-0.1422 15.7558,2.6908 4.5973,2.15137 6.8024,3.81492 7.5045,5.66148 2.6414,6.94751 -0.126,12.23499 -8.4269,16.10024 -4.137,1.92633 -6.6553,2.35369 -13.5789,2.30425 -4.675,-0.0334 -10.1448,-0.66566 -12.1552,-1.40506 z m 33.1552,-0.81471 c 0,-2.5447 1.6967,-4.7 3.7,-4.7 1.9023,0 1.6532,5.65047 -0.2818,6.39301 -2.7064,1.03855 -3.4182,0.68601 -3.4182,-1.69301 z m 10.625,-1.49775 c -0.2712,-0.43876 -0.08,-1.45126 0.4257,-2.25 0.7173,-1.13385 0.922,-0.95896 0.934,0.79775 0.016,2.31303 -0.4923,2.85568 -1.3597,1.45225 z m 5.8848,-17.83686 c 1.5459,0.5932 4.4902,-2.38324 4.4902,-4.53914 0,-2.65014 -3.5666,-4.99107 -7.0794,-4.64658 -1.7966,0.17618 -3.4542,0.8916 -3.6834,1.58982 -0.3309,1.00779 0.117,1.02624 2.173,0.0895 5.137,-2.34058 10.1809,2.74572 6.0898,6.14102 -1.7781,1.47568 -2.0349,-0.0651 -0.3,-1.8 0.9333,-0.93333 0.9007,-1.47778 -0.1467,-2.45 -0.9318,-0.86485 -1.1407,-0.88329 -0.678,-0.0599 0.3678,0.65457 -0.6912,2.73898 -2.3533,4.63201 -1.6621,1.89304 -3.022,3.82011 -3.022,4.28238 0,0.46227 0.7217,-0.18986 1.6038,-1.44919 0.882,-1.25932 2.1897,-2.0648 2.906,-1.78994 z m 6.9402,2.71888 c -0.5225,-0.50366 -2.3,-1.00134 -3.95,-1.10596 -4.1625,-0.26395 -4.7084,-0.12453 -4,1.02169 0.3399,0.55 2.4815,1 4.759,1 2.5316,0 3.7718,-0.35591 3.191,-0.91573 z m -132.6038,-12.43423 c -0.6144,-1.18252 -0.7552,-1.81156 -0.3128,-1.39786 0.4424,0.4137 1.626,0.009 2.6303,-0.90033 1.3589,-1.22976 5.6152,-1.97946 16.638,-2.93059 25.5392,-2.2037 51.9052,-3.41675 74.3134,-3.41905 20.1956,-0.002 21.7843,0.13085 24.1909,2.02388 1.4167,1.11434 2.8339,2.83934 3.1494,3.83333 0.5616,1.76944 3.5446,2.60233 3.5446,0.98969 0,-0.44966 -1.3129,-2.28716 -2.9175,-4.08333 l -2.9176,-3.26578 -31.3324,0 c -31.6264,0 -48.7956,0.63349 -69.8325,2.5766 -13.4768,1.24481 -17.622,2.34853 -19.0847,5.08163 -1.3541,2.53023 -0.4643,4.98968 1.5285,4.22495 1.2155,-0.46641 1.296,-1.01339 0.4024,-2.73314 z m 148.992,-17.14521 c -0.3076,-0.30759 -1.8116,1.14048 -3.3421,3.21795 l -2.7829,3.77722 3.3421,-3.21795 c 1.8382,-1.76987 3.0905,-3.46962 2.7829,-3.77722 z m -2.1246,-1.95747 c 0.7892,-1.41031 1.3381,-1.48093 3.578,-0.46038 1.4551,0.66301 2.4082,1.58967 2.118,2.05925 -0.2902,0.46957 -0.051,0.85377 0.5314,0.85377 2.3926,0 0.8185,-2.74426 -2.4749,-4.31479 -3.9617,-1.88917 -6.4661,-2.16672 -6.4661,-0.71659 0,0.53273 0.7274,0.6895 1.6163,0.34836 1.3273,-0.50931 1.4331,-0.28014 0.5919,1.28139 -0.5635,1.0459 -2.1909,2.99257 -3.6164,4.32594 -1.4255,1.33338 -2.5786,2.90838 -2.5625,3.5 0.031,1.14848 5.1268,-4.0939 6.6843,-6.87695 z m -9.7136,2.45264 c 0,-1.65 -0.1739,-3 -0.3865,-3 -0.2126,0 -0.5846,1.35 -0.8268,3 -0.2422,1.65 -0.068,3 0.3865,3 0.4547,0 0.8268,-1.35 0.8268,-3 z m -3.3895,-3.57273 c -0.8024,-2.09105 -2.3742,-1.74352 -3.7208,0.82273 l -1.1807,2.25 2.2025,-1.95659 2.2025,-1.95659 -0.4753,2.62156 c -0.2615,1.44186 -0.1747,2.92755 0.1929,3.30153 0.8654,0.88042 1.4937,-3.21974 0.7789,-5.08264 z m -3.2852,-2.91404 3.8252,-4.48676 3.1747,1.62629 c 3.4557,1.77019 4.8202,3.30304 4.0498,4.54949 -0.2712,0.43876 -0.016,0.79775 0.566,0.79775 1.6569,0 1.2423,-2.53016 -0.691,-4.21651 -5.1071,-4.45481 -6.155,-4.35465 -11.6203,1.11059 -2.8082,2.80826 -4.6612,5.10592 -4.1178,5.10592 0.5435,0 2.7095,-2.01905 4.8134,-4.48677 z m -4.9793,-9.76243 c -0.2552,-0.41294 -1.287,-0.7508 -2.2927,-0.7508 -2.2172,0 -15.0533,5.89422 -15.0533,6.91231 0,0.39809 3.0375,-0.74956 6.75,-2.55033 9.5617,-4.63795 9.5863,-4.62863 8.9327,3.38802 l -0.5504,6.75 1.3389,-6.4992 c 0.7363,-3.57456 1.13,-6.83706 0.8748,-7.25 z m -4.6629,10.0617 c -0.3192,-0.79773 -0.5562,-0.56078 -0.6042,0.60417 -0.043,1.05416 0.193,1.64479 0.5253,1.3125 0.3323,-0.33229 0.3678,-1.1948 0.079,-1.91667 z m 18.3169,0.15987 c 0,-0.50028 -0.7204,-0.63315 -1.6009,-0.29527 -0.8805,0.33788 -1.9493,0.0507 -2.375,-0.63815 -0.5537,-0.8959 -0.9703,-0.93497 -1.4633,-0.13725 -0.3973,0.64282 0.291,1.48549 1.625,1.98935 2.4424,0.92254 3.8142,0.59213 3.8142,-0.91868 z m -17.116,-5.72237 c -0.078,-1.84792 -0.2714,-2.14779 -0.5899,-0.91414 -0.3648,1.4133 -1.0861,1.69748 -3.134,1.23466 -2.5355,-0.57305 -2.5692,-0.53025 -0.719,0.91414 2.9706,2.319 4.574,1.87343 4.4429,-1.23466 z m -11.9353,-6.56238 c -0.2468,-0.20707 -1.766,1.24101 -3.3761,3.21795 l -2.9274,3.59443 3.3761,-3.21795 c 1.8569,-1.76987 3.1742,-3.38737 2.9274,-3.59443 z m -2.8217,-0.93762 c 1.6426,-3.0471 0.1565,-1.8997 -3.2378,2.5 -3.0276,3.92431 -3.0653,4.05841 -0.4922,1.75 1.5326,-1.375 3.2112,-3.2875 3.73,-4.25 z m -15.0764,0.79581 c 2.344,2.12123 5.4767,1.19779 4.4246,-1.30424 -0.4028,-0.95786 -0.952,-2.75407 -1.2204,-3.99157 -0.4146,-1.91197 -0.069,-2.25 2.2999,-2.25 1.5333,0 3.6108,0.74474 4.6166,1.65499 1.0058,0.91024 1.8287,1.19034 1.8287,0.62244 0,-3.26106 -6.9883,-4.71767 -9.6869,-2.01909 -1.1705,1.17051 -1.2625,1.96767 -0.4107,3.55925 1.744,3.25873 1.364,4.73347 -0.7311,2.8374 -2.1985,-1.98954 -5.1713,-2.17445 -5.1713,-0.32166 0,2.09325 1.4621,3.03273 1.8379,1.18091 0.3136,-1.54603 0.472,-1.54377 2.2127,0.0316 z m 6.9151,-3.62869 c -1.7318,-4.18098 -2.4325,-2.84999 -0.8311,1.57868 0.7251,2.00505 1.4865,3.14087 1.6921,2.52405 0.2056,-0.61681 -0.1818,-2.46304 -0.861,-4.10273 z m 17.0343,2.52665 c 0,-0.30593 -2.0728,-1.47313 -4.6062,-2.59378 -3.6424,-1.61121 -4.8456,-1.77799 -5.75,-0.79707 -0.8651,0.93818 -0.8467,1.07318 0.075,0.55396 0.6705,-0.37759 2.9205,0.21151 5,1.3091 3.94,2.07948 5.2811,2.46746 5.2811,1.52779 z m -932.44114,-38.8852 c 2.79543,-2.07581 0.77301,-4.96934 -3.74574,-5.35913 -4.71775,-0.40697 -6.85557,1.99119 -4.29615,4.81932 2.11411,2.33607 5.33204,2.55207 8.04189,0.53981 z m 24.54791,-3.44395 c 1.99611,-1.61636 2.13714,-2.11578 0.98834,-3.5 -2.42575,-2.92286 -10.09512,-1.82683 -10.09512,1.44268 0,3.81525 5.4229,5.04034 9.10678,2.05732 z m -5.96354,-0.005 c -2.06366,-1.3076 0.42571,-2.43469 3.61144,-1.63513 2.07688,0.52127 2.33175,0.85851 1.19317,1.57884 -1.80627,1.14273 -3.06668,1.15749 -4.80461,0.0563 z m -34.64324,-4.18157 c 0,-2.12576 -0.50876,-2.46534 -4.08647,-2.72756 -6.3125,-0.46266 -8.55935,3.70025 -3.08928,5.72375 3.53163,1.30644 7.17575,-0.21514 7.17575,-2.99619 z m 24.3,-1.12805 c 1.92908,-1.92908 1.40042,-3.47434 -1.61613,-4.72384 -1.98942,-0.82404 -3.60401,-0.86692 -5.5,-0.14607 -4.70672,1.78949 -2.72082,6.06991 2.81613,6.06991 1.705,0 3.64,-0.54 4.3,-1.2 z m -41.21826,-1.89032 c 1.85633,-2.05122 1.85565,-2.11668 -0.0361,-3.5 -2.53521,-1.85378 -5.5653,-1.78461 -8.38654,0.19147 -2.17392,1.52266 -2.20173,1.69422 -0.56752,3.5 2.26916,2.50739 6.63185,2.41448 8.9902,-0.19147 z m 67.41826,-3.90968 c 0,-2.54986 -5.02168,-4.17217 -8.12515,-2.62492 -5.10044,2.54284 -0.40339,7.40233 5.25,5.43155 1.73424,-0.60456 2.87515,-1.71828 2.87515,-2.80663 z m -8.5,1 c 0.33992,-0.55 1.94148,-1 3.55902,-1 1.61754,0 2.94098,0.45 2.94098,1 0,0.55 -1.60156,1 -3.55902,1 -2.11803,0 -3.30878,-0.40488 -2.94098,-1 z m -76.39322,-0.88538 c 1.99611,-1.61636 2.13714,-2.11578 0.98834,-3.5 -2.28747,-2.75624 -10.09512,-1.42554 -10.09512,1.72056 0,3.75552 5.3705,4.8049 9.10678,1.77944 z m 41.88265,0.39811 c 1.71171,-2.06248 0.5942,-4.32814 -2.52035,-5.10985 -3.13338,-0.78642 -7.46908,0.97012 -7.46908,3.02599 0,3.26488 7.6797,4.86691 9.98943,2.08386 z m -58.51808,-3.86812 c 2.80882,-2.05386 1.27553,-4.64461 -2.74884,-4.64461 -4.15604,0 -7.27522,2.11728 -6.41637,4.35539 0.783,2.04048 6.52252,2.2216 9.16521,0.28922 z m 83.59822,-0.22843 c 3.2689,-3.93879 -4.93576,-7.43149 -8.41809,-3.58356 -1.60928,1.77823 -1.61928,2.05672 -0.12748,3.54853 2.06868,2.06868 6.84155,2.08824 8.54557,0.035 z m -42.65136,-0.0232 c 1.83182,-0.70293 2.11659,-3.94445 0.43768,-4.98208 -3.88301,-2.39983 -11.25368,1.19991 -8.7165,4.25703 1.15164,1.38763 5.54864,1.77272 8.27882,0.72505 z m -57.59304,-2.98311 c 1.80089,-1.26139 2.02829,-1.88154 1.10006,-3 -1.58337,-1.90784 -7.40602,-1.78625 -9.38832,0.19605 -3.61657,3.61657 3.62866,6.06766 8.28826,2.80395 z m 124.24057,0.55492 c 2.65388,-1.42031 2.42649,-3.78342 -0.492,-5.11317 -2.89314,-1.31821 -7.43162,-0.38558 -8.22844,1.69088 -1.36061,3.54571 4.32248,5.776 8.72044,3.42229 z m -6.56574,-0.96479 c -0.36852,-0.59628 0.84262,-1 3,-1 2.15738,0 3.36852,0.40372 3,1 -0.33992,0.55 -1.68992,1 -3,1 -1.31008,0 -2.66008,-0.45 -3,-1 z m -76.06224,-1.58062 c 1.82741,-1.82741 1.25284,-3.22836 -1.78491,-4.35209 -4.37845,-1.6197 -9.7916,2.46062 -6.98618,5.26604 1.27448,1.27448 7.20011,0.65703 8.77109,-0.91395 z m 42.14398,-0.5097 c 1.85633,-2.05122 1.85565,-2.11668 -0.0361,-3.5 -3.49731,-2.55729 -9.5456,-1.51332 -9.5456,1.64762 0,3.95282 6.53715,5.21661 9.58174,1.85238 z m -58.68104,-3.38181 c 3.17836,-3.17836 -3.27069,-6.00578 -7.96644,-3.49269 -4.0202,2.15155 -1.24536,6.45475 3.55235,5.50895 1.64263,-0.32383 3.62897,-1.23114 4.41409,-2.01626 z m 82.65817,1.0307 c 1.55001,-1.151 1.71923,-1.80584 0.83985,-3.25 -1.49877,-2.46136 -7.62644,-2.94403 -9.45188,-0.74452 -1.20353,1.45017 -1.08133,1.90863 0.94638,3.55057 2.78779,2.25741 5.0473,2.38827 7.66565,0.44395 z m -41.49313,-1.59375 c 2.65388,-1.42031 2.42649,-3.78342 -0.492,-5.11317 -2.89314,-1.31821 -7.43162,-0.38558 -8.22844,1.69088 -1.36061,3.54571 4.32248,5.776 8.72044,3.42229 z m -58.32133,-2.16766 c 2.02481,-1.68045 1.4489,-3.71054 -1.24441,-4.38652 -5.65244,-1.41867 -10.66717,2.52976 -6.80443,5.35757 1.87186,1.37034 5.79844,0.89661 8.04884,-0.97105 z m -18.30951,-1.77241 c 3.29168,-1.25149 3.46588,-4.76057 0.27607,-5.56116 -2.51875,-0.63216 -7.12754,0.78339 -8.19992,2.51853 -0.92317,1.49373 1.30472,4.01788 3.5463,4.01788 0.99685,0 2.96675,-0.43886 4.37755,-0.97525 z m -5.4349,-1.02475 c 0,-0.55 1.4625,-0.96837 3.25,-0.92971 2.72353,0.0589 2.92602,0.2095 1.25,0.92971 -2.7627,1.18717 -4.5,1.18717 -4.5,0 z m 65.55887,0.55857 c 1.54979,-1.15083 1.71919,-1.80605 0.84027,-3.25 -1.5438,-2.53625 -5.6148,-2.76428 -8.44443,-0.47298 -2.05062,1.66049 -2.19964,2.16436 -1.04983,3.54979 1.6626,2.00331 6.07063,2.09153 8.65399,0.17319 z m 40.85934,0.83444 c 2.19591,-0.84265 1.98103,-4.10897 -0.35247,-5.35783 -2.78928,-1.49278 -4.53454,-1.2859 -7.17252,0.8502 -1.99611,1.61636 -2.13714,2.11578 -0.98834,3.5 1.351,1.62786 5.58968,2.12954 8.51333,1.00763 z m 25.57122,-3.88028 c 2.83972,-3.42165 -2.73842,-6.85939 -7.56317,-4.66108 -4.43697,2.02161 -2.32184,6.14835 3.1513,6.14835 1.74765,0 3.73299,-0.66927 4.41187,-1.48727 z m -83,-1 c 3.1353,-3.7778 -4.02251,-6.40268 -8.51055,-3.12094 -1.61719,1.18252 -1.7027,1.6336 -0.56869,3 1.6769,2.02053 7.43902,2.09729 9.07924,0.12094 z m 42.01057,-1.01273 c 1.84107,-2.21836 -0.46644,-4.5 -4.55102,-4.5 -4.09269,0 -7.06459,2.55331 -5.36105,4.60595 1.54584,1.86263 8.33855,1.79002 9.91207,-0.10595 z m -59.17483,-2.0901 c 1.80089,-1.26139 2.02829,-1.88154 1.10006,-3 -1.66641,-2.00789 -7.29631,-1.76233 -9.25659,0.40375 -3.33103,3.68075 3.50268,5.85594 8.15653,2.59625 z m 82.7337,-0.85133 c 1.55001,-1.151 1.71923,-1.80584 0.83985,-3.25 -1.49877,-2.46136 -7.62644,-2.94403 -9.45188,-0.74452 -1.20353,1.45017 -1.08133,1.90863 0.94638,3.55057 2.78779,2.25741 5.0473,2.38827 7.66565,0.44395 z m -40.16071,-1.83704 c 1.394,-2.25004 -0.5509,-3.68431 -5.02572,-3.70622 -3.50855,-0.0172 -5.90434,2.1562 -4.99346,4.5299 0.85309,2.22313 8.52214,1.59265 10.01918,-0.82368 z m -59.33242,0.24329 c 2.33921,-1.25191 2.52306,-3.5249 0.35247,-4.35783 -4.4641,-1.71304 -10.28842,0.6829 -9.11207,3.7484 0.72269,1.88332 5.72856,2.23159 8.7596,0.60943 z m -6.06574,-0.96482 c 1.96549,-1.2702 5,-1.2702 5,0 0,0.55 -1.4625,0.99311 -3.25,0.98469 -2.46622,-0.0116 -2.88826,-0.24909 -1.75,-0.98469 z m 47.10678,-1.88538 c 1.99611,-1.61636 2.13714,-2.11578 0.98834,-3.5 -2.36579,-2.85062 -10.09512,-1.1693 -10.09512,2.19593 0,1.33141 2.90584,3.11761 5.13922,3.15904 0.90156,0.0167 2.68697,-0.81801 3.96756,-1.85497 z m 41.90365,-0.92198 c 2.09689,-1.69796 2.12954,-1.90981 0.53935,-3.5 -2.10803,-2.10803 -6.90368,-2.19589 -8.93586,-0.1637 -4.00647,4.00647 3.77834,7.40327 8.39651,3.6637 z m -58.12369,-2.72242 c 3.81298,-3.61609 -4.11317,-6.38525 -8.058,-2.81523 -2.40866,2.17981 -2.30694,3.21923 0.42126,4.30453 2.56953,1.02218 5.61472,0.42831 7.63674,-1.4893 z m 42.02736,-1.98584 c 1.17987,-1.15477 1.19405,-1.64914 0.0856,-2.98476 -1.77463,-2.1383 -7.92618,-1.60882 -9.39841,0.80895 -2.4595,4.0391 5.50723,5.90042 9.31282,2.17581 z m -60.51616,0.38017 c 3.2834,-1.49602 3.9869,-3.58822 1.63056,-4.8493 -2.98353,-1.59673 -5.84464,-1.19911 -8.18066,1.13691 -2.07382,2.07382 -2.08506,2.20121 -0.30887,3.5 2.24853,1.64416 3.62315,1.68673 6.85897,0.21239 z m -4.89794,-0.86455 c -0.36722,-0.59417 0.72487,-0.97148 2.69098,-0.92971 2.75722,0.0586 2.97551,0.2136 1.30902,0.92971 -2.71291,1.16578 -3.27951,1.16578 -4,0 z m 47.75,-2.39205 c 2.27987,-1.73066 2.21713,-3.28758 -0.18426,-4.57277 -2.78928,-1.49278 -4.53454,-1.2859 -7.17252,0.8502 -1.99611,1.61636 -2.13714,2.11578 -0.98834,3.5 1.61153,1.94178 5.92867,2.05692 8.34512,0.22257 z m -17.14322,-3.49333 c 1.99611,-1.61636 2.13714,-2.11578 0.98834,-3.5 -1.82295,-2.19653 -5.38284,-2.0302 -8.23434,0.38471 -2.31673,1.96203 -2.32456,2.02734 -0.41965,3.5 2.59303,2.00464 4.85512,1.89112 7.66565,-0.38471 z m 65.39322,-23.66266 c 14.07415,-2.11058 27.13686,-5.43156 39.32827,-9.99857 17.78377,-6.66195 24.11002,-9.94902 40.96404,-21.28462 5.36747,-3.61003 21.42062,-19.22777 22.0523,-21.45417 0.18953,-0.66803 -1.54047,0.93166 -3.84445,3.55487 -5.50559,6.26841 -18.60013,16.4286 -29.25743,22.70114 -11.68647,6.87827 -12.25411,6.3617 -0.79186,-0.72061 5.76952,-3.56488 12.9624,-9.30835 18.92756,-15.11355 5.29187,-5.14995 6.65987,-6.69877 3.04002,-3.4418 -28.82334,25.9338 -78.61253,44.30535 -120.07302,44.30535 -18.31706,0 -35.88757,-2.64564 -50.42061,-7.59196 -3.89135,-1.32442 -7.58973,-2.40804 -8.21862,-2.40804 -2.45551,0 0.15751,2.92837 3.97655,4.45644 2.21562,0.88652 4.6265,2.20995 5.35751,2.94096 1.60983,1.60983 15.6573,4.42634 27.95974,5.6059 12.46667,1.19532 37.82877,0.42384 51,-1.55134 z m 41.44907,-39.95883 c 35.20786,-3.08861 64.56874,-24.10704 64.36208,-46.07457 -0.10021,-10.65133 -6.74849,-21.12783 -18.56115,-29.24902 -2.6125,-1.79609 -4.76431,-4.0315 -4.7818,-4.96758 -0.0175,-0.93608 -0.62009,-2.47645 -1.3391,-3.42305 -3.04165,-4.00439 -20.65868,-10.59212 -32.69651,-12.22655 -3.97515,-0.53973 -4.92194,-0.29157 -7.30152,1.91375 -2.20083,2.03966 -3.75318,2.53389 -7.95883,2.53389 -4.7468,0 -18.21623,1.40523 -23.17224,2.4175 -1.1,0.22468 -5.56211,1.54855 -9.91581,2.94195 -5.88884,1.88471 -8.4005,2.27404 -9.80865,1.52042 -3.35694,-1.79658 -7.72665,0.14284 -14.41174,6.39642 -7.07907,6.62212 -10.3638,11.92013 -10.3638,16.71599 0,1.68958 -0.65665,4.64353 -1.45921,6.56434 -0.80257,1.92082 -1.21012,4.26886 -0.90567,5.21788 0.4281,1.33445 0.33206,1.4151 -0.42375,0.35586 -1.47825,-2.07173 -3.58644,5.18226 -3.48154,11.97953 0.30048,19.47222 24.71584,35.31303 58.27017,37.80599 9.74621,0.7241 11.16039,0.69914 23.94907,-0.42275 z m -33.02968,-1.50362 c -14.40989,-2.43883 -28.58387,-8.10862 -36.65827,-14.66384 -4.8458,-3.93407 -7.60255,-11.16111 -7.07055,-18.53603 l 0.30943,-4.28964 2.7342,4.6511 c 2.85372,4.85444 10.29671,12.02939 15.0158,14.47507 2.52491,1.30854 2.75,1.27303 2.75,-0.43382 0,-2.91528 0.82341,-3.09617 4.9713,-1.09213 5.83624,2.81977 11.91951,4.72157 20.64657,6.45472 11.32987,2.25005 11.31389,2.24149 8.49047,4.54436 -1.31542,1.07289 -2.21542,2.11015 -2,2.30501 1.27065,1.14947 16.31381,1.51909 25.16827,0.61841 12.60122,-1.2818 22.81888,-3.9949 32.47339,-8.62268 6.76053,-3.24058 7.25144,-3.69208 7.27135,-6.68762 0.0173,-2.60372 0.78753,-3.75463 4.06487,-6.0739 2.22393,-1.57382 5.75675,-5.02889 7.85071,-7.67794 4.38691,-5.54987 6.06307,-5.11048 6.06307,1.58938 0,12.95152 -24.043,27.95959 -52.83485,32.98047 -8.87817,1.54823 -31.26335,1.81008 -39.24576,0.45908 z m 26.60193,-16.82255 c 8.16069,-7.17083 8.32533,-7.19548 24.97868,-3.74016 10.42717,2.16348 10.84606,2.34478 8.04393,3.48137 -8.12725,3.29654 -17.88743,5.28746 -28.52261,5.81818 l -11.47868,0.5728 6.97868,-6.13219 z m 16.10343,2.36853 c 0.69714,-1.81669 -3.24379,-7.53549 -5.19284,-7.53549 -2.05038,0 -1.76633,2.72161 0.63618,6.09563 2.28663,3.21127 3.70493,3.65944 4.55666,1.43986 z m -40.12475,-4.19131 c -7.10355,-1.51486 -21.20518,-6.68487 -22.96153,-8.41827 -0.6114,-0.60342 2.10852,-3.878 7.46945,-8.99268 l 8.43099,-8.04371 10.03055,-1.43746 c 5.5168,-0.79059 11.66766,-1.71644 13.66859,-2.05743 3.62654,-0.61802 3.64985,-0.59887 7.37174,6.05649 2.05353,3.67206 3.79141,7.24069 3.86195,7.93028 0.17938,1.75357 -17.06109,16.63666 -19.15643,16.53707 -0.94342,-0.0448 -4.86531,-0.75327 -8.71531,-1.57429 z m 65,-3.34418 c -0.33992,-0.55 0.30852,-1 1.44098,-1 1.13246,0 2.05902,0.45 2.05902,1 0,0.55 -0.64844,1 -1.44098,1 -0.79254,0 -1.7191,-0.45 -2.05902,-1 z m -113.87482,-4.97875 c -1.94349,-4.85727 -2.08294,-10.47797 -0.37518,-15.12203 1.16526,-3.16878 1.28746,-2.6535 1.80253,7.60078 0.30389,6.05 0.47272,11.13117 0.37518,11.29149 -0.0975,0.16032 -0.90868,-1.53629 -1.80253,-3.77024 z m 14.43062,-3.06069 c -2.72912,-2.72912 -5.51689,-6.72886 -6.38007,-9.15379 -2.01189,-5.65198 -2.82262,-11.80677 -1.55522,-11.80677 0.94022,0 25.95887,10.81125 26.75244,11.56047 0.20513,0.19365 -2.85424,3.47848 -6.79859,7.2996 l -7.17154,6.94751 -4.84702,-4.84702 z m 12.67734,-7.50621 c 0.69227,-0.21257 0.95628,-1.10012 0.60193,-2.02356 -0.51828,-1.35061 -1.76724,-1.57259 -6.98036,-1.24064 -6.75489,0.43012 -10.04237,2.14142 -7.34635,3.82415 1.32016,0.82398 10.42779,0.45241 13.72478,-0.55995 z m 68.76686,6.86358 c -7.15,-1.39328 -13.54421,-2.68865 -14.20934,-2.8786 -0.66514,-0.18995 -2.36867,-2.63316 -3.78561,-5.42936 -1.41694,-2.7962 -2.89773,-4.88658 -3.29065,-4.64529 -0.39292,0.24129 -0.76078,-0.83659 -0.81746,-2.3953 -0.0995,-2.73718 0.15671,-2.88992 7.5,-4.47078 4.18168,-0.90023 10.53746,-2.44183 14.12394,-3.4258 5.49311,-1.50704 6.83498,-1.58046 8.51371,-0.46583 1.09605,0.72775 8.17415,2.53218 15.72912,4.00985 7.79902,1.5254 13.73629,3.16713 13.73629,3.79827 0,2.46454 -7.18033,11.54694 -11.82309,14.95504 -5.99165,4.39828 -7.65476,4.45967 -25.67691,0.9478 z m -18.38613,-5.32912 c -1.23301,-2.19384 -2.0325,-3.98881 -1.77663,-3.98881 0.6769,0 4.81093,7.18517 4.38125,7.61484 -0.19953,0.19953 -1.37161,-1.43218 -2.60462,-3.62603 z m 62.05376,-3.48881 c 0.17563,-11.48507 -1.7169,-18.89162 -6.53414,-25.57184 -0.62342,-0.86452 0.52693,0.17535 2.55634,2.3108 4.84451,5.09767 6.94665,11.55661 6.44753,19.81039 -0.21455,3.54786 -0.88553,7.57565 -1.49108,8.95065 -0.90868,2.06332 -1.07962,1.10264 -0.97865,-5.5 z m -103.16763,-8.75735 c -0.825,-0.79272 -4.2,-2.48469 -7.5,-3.75993 -9.91537,-3.83166 -21.5,-9.9193 -21.5,-11.2981 0,-4.29887 13.53956,-18.68462 17.58557,-18.68462 0.77329,0 4.89538,1.62297 9.1602,3.60659 10.77589,5.01201 21.79431,9.39341 23.62271,9.39341 0.94952,0 3.07986,3.29597 5.58342,8.63842 2.22645,4.75114 4.0481,8.94828 4.0481,9.32699 0,0.78262 -12.06563,2.72277 -22.5,3.61799 -5.36701,0.46047 -7.34993,0.26434 -8.5,-0.84075 z m 88.75099,-2.79609 c -4.81196,-0.88619 -8.97734,-1.83958 -9.25641,-2.11864 -0.27906,-0.27907 2.217,-1.33227 5.54679,-2.34045 6.44876,-1.95252 7.82816,-3.01794 6.11951,-4.72659 -0.75315,-0.75315 -2.7621,-0.54102 -6.86287,0.72467 -6.56686,2.02683 -8.59146,3.30734 -7.93481,5.01854 0.29871,0.77843 -0.37042,1.02602 -1.9545,0.72321 -1.32478,-0.25325 -2.4087,-0.86234 -2.4087,-1.35354 0,-0.7665 9.68372,-14.57526 12.14974,-17.32525 1.30984,-1.46066 8.59236,6.22596 11.46931,12.10573 1.43035,2.92329 2.38323,6.39851 2.20145,8.02891 l -0.3205,2.87466 -8.74901,-1.61125 z m -58.1712,-9.22552 -4.23523,-9.14009 2.57787,-2.16913 c 1.41783,-1.19303 5.5028,-6.24554 9.07772,-11.22782 3.67114,-5.11638 7.43456,-9.30067 8.64764,-9.61474 2.75962,-0.71446 19.14985,3.45395 26.60221,6.76556 3.55463,1.57957 5.75,3.16868 5.75,4.16213 0,1.27762 -11.49413,18.01383 -15.89206,23.13987 -0.78316,0.91283 -11.56689,3.69986 -26.45043,6.83607 -1.47121,0.31001 -2.6959,-1.45354 -6.07772,-8.75185 z m -10.07979,-10.73661 c -4.86695,-1.0628 -22.5001,-9.17525 -21.93405,-10.09115 1.39949,-2.26441 24.31015,-6.8817 34.18405,-6.88926 2.8875,-0.002 5.25,0.21142 5.25,0.47474 0,1.23551 -10.40276,14.55052 -12.32464,15.7749 -1.36623,0.8704 -3.29121,1.14221 -5.17536,0.73077 z m 1.5,-2.40152 c 0,-2.89669 -3.96877,-10.58291 -5.46446,-10.58291 -2.0502,0 -1.90388,2.59176 0.43753,7.75 1.83749,4.04809 5.02693,5.84548 5.02693,2.83291 z m 578.00001,581.42578 c -1.375,-0.45838 -8.982,-2.52966 -16.9045,-4.60285 l -14.4044,-3.76944 6.4044,-1.29052 c 4.927,-0.99279 7.0389,-1.99265 9.1545,-4.33397 2.5484,-2.8203 2.75,-3.67052 2.75,-11.59507 0,-9.7577 -1.4256,-9.10059 11.1858,-5.15581 5.0796,1.58888 6.7783,2.5895 7.071,4.16513 0.3082,1.65934 0.1664,23.86294 -0.1713,26.82384 -0.1059,0.92855 -1.8203,0.8472 -5.0855,-0.24131 z m -34.1875,-9.6918 c 0.7219,-0.28887 1.5844,-0.25335 1.9167,0.0789 0.3323,0.33229 -0.2584,0.56864 -1.3125,0.52522 -1.165,-0.048 -1.4019,-0.28494 -0.6042,-0.60416 z m -22.8222,-5.72592 c -10.1803,-2.80003 -19.0678,-5.45503 -19.75,-5.89999 -0.9132,-0.59567 -1.2403,-5.68769 -1.2403,-19.30901 0,-10.175 0.338,-18.2911 0.7511,-18.03578 0.4132,0.25533 7.9507,2.34783 16.75,4.65001 8.7994,2.30219 16.1694,4.35284 16.3778,4.55701 0.342,0.33511 0.467,5.01785 0.2187,8.19679 -0.054,0.6875 -0.6601,1.25818 -1.3476,1.26817 -0.6875,0.01 -5.3,2.32338 -10.25,5.14085 -4.95,2.81747 -11.8069,6.7149 -15.2375,8.66095 -3.4307,1.94605 -6.0471,3.72873 -5.8144,3.96151 0.2328,0.23278 7.1949,-3.48775 15.4714,-8.26785 8.2765,-4.7801 15.5597,-8.52056 16.185,-8.31213 0.7483,0.24944 1.1851,4.24349 1.2779,11.68539 0.138,11.06067 0.2017,11.35866 2.9351,13.70977 1.5367,1.32183 3.2796,2.40334 3.8731,2.40334 0.5935,0 -0.057,-0.8936 -1.4454,-1.98578 -2.5043,-1.96992 -2.5245,-2.10864 -2.5202,-17.37654 0,-8.46493 0.3608,-15.96742 0.7963,-16.6722 0.8102,-1.31093 1.7041,-1.13487 18.7287,3.6889 l 5.25,1.48754 0,13.90336 0,13.90336 -3.0591,1.58193 c -1.8656,0.96472 -6.2549,1.69302 -11.25,1.86665 -7.2583,0.25231 -10.2984,-0.29493 -26.7006,-4.80625 z m 280.0097,1.01602 c 0,-0.21616 0.6984,-0.661 1.5519,-0.98855 0.89,-0.34149 1.2914,-0.17385 0.941,0.39301 -0.5872,0.95021 -2.4929,1.40545 -2.4929,0.59554 z m -149.1875,-4.2901 c 0.7219,-0.28887 1.5844,-0.25335 1.9167,0.0789 0.3323,0.33229 -0.2584,0.56864 -1.3125,0.52522 -1.165,-0.048 -1.4019,-0.28494 -0.6042,-0.60416 z m -8,-2 c 0.7219,-0.28887 1.5844,-0.25335 1.9167,0.0789 0.3323,0.33229 -0.2584,0.56864 -1.3125,0.52522 -1.165,-0.048 -1.4019,-0.28494 -0.6042,-0.60416 z m -156.8125,-2.31862 c -1.375,-0.46411 -11.5,-3.34352 -22.5,-6.39869 C 884.64461,808.84293 735.72317,761.59159 598.19789,712.69416 548.7035,695.09632 541.44357,692.46777 540.1845,691.68961 c -0.95376,-0.58945 -1.45974,-17.49172 -0.52363,-17.49172 0.25464,0 2.84214,0.94286 5.75,2.09524 16.87281,6.68666 110.83379,39.53055 164.28702,57.42623 69.1831,23.1619 103.13367,33.82297 104.67565,32.86997 0.62335,-0.38525 0.86053,-0.259 0.52707,0.28055 -0.34681,0.56115 5.89984,3.0037 14.59549,5.70711 29.85716,9.28232 60.75743,18.64552 97.20179,29.45343 37.75769,11.19739 51.09583,15.03745 92.50001,26.63075 12.925,3.61905 24.5125,7.01068 25.75,7.53696 2.0668,0.87897 2.25,1.60998 2.25,8.97832 0,7.67526 -0.097,8.01803 -2.25,7.94249 -1.2375,-0.0434 -3.375,-0.45867 -4.75,-0.92278 z m 86.25,-9.75479 c -7.868,-2.48496 -8.25,-2.74151 -8.25,-5.54117 0,-2.56709 0.2824,-2.85531 2.25,-2.29614 1.2375,0.35169 5.2875,1.39117 9,2.30997 4.6413,1.14866 6.7739,2.15682 6.8265,3.22719 0.042,0.85617 0.2273,2.34417 0.4115,3.30667 0.4248,2.2188 -0.2295,2.15447 -10.238,-1.00652 z m -91.75,-11.94619 c -4.95,-1.42199 -26.775,-7.68333 -48.49998,-13.91409 -63.87971,-18.32075 -65.49311,-18.79815 -127.00003,-37.57901 -63.7404,-19.46284 -144.61132,-45.83331 -206.5,-67.33572 -12.1,-4.20398 -23.8,-8.22491 -26,-8.9354 -2.2,-0.71049 -16.825,-5.89036 -32.5,-11.51083 -15.675,-5.62046 -32.78771,-11.73102 -38.02825,-13.57901 -5.24054,-1.84799 -11.20304,-4.05975 -13.25,-4.91502 l -3.72175,-1.55505 0,-8.48658 c 0,-4.66762 0.21473,-8.48658 0.47717,-8.48658 0.26245,0 3.50231,1.13866 7.19971,2.53035 3.69739,1.3917 7.33103,2.29685 8.07476,2.01146 0.83371,-0.31993 1.08063,-0.0794 0.64393,0.62717 -0.48178,0.77953 -0.0182,0.9656 1.44944,0.5818 1.18676,-0.31034 1.94464,-0.21945 1.68418,0.202 -1.0674,1.72708 169.39151,60.66705 172.27275,59.56714 0.71606,-0.27336 1.07616,-0.13169 0.8002,0.31481 -0.27595,0.4465 13.08818,5.23034 29.69807,10.63076 84.88343,27.59839 169.72912,53.15982 272.4498,82.08084 l 13.25,3.73054 0,8.36156 c 0,9.81443 0.7631,9.46897 -12.5,5.65886 z m -538.25001,-158.78816 -3.25,-1.41258 0,-17.61566 c 0,-16.32512 0.12821,-17.57433 1.75,-17.05139 0.9625,0.31035 6.25,2.27361 11.75,4.36281 l 10,3.79852 0.27885,13.17911 0.27885,13.17911 -3.65098,1.52548 c -4.52991,1.89271 -12.84309,1.90948 -17.15672,0.0346 z m -117.17742,-3.14399 c -3.78311,-4.80944 -2.68435,-5.50578 4.45025,-2.82033 3.58755,1.35036 6.82356,2.45519 7.19113,2.45519 0.36756,0 -0.20521,0.66069 -1.27283,1.4682 -3.20178,2.4217 -7.99727,1.91153 -10.36855,-1.10306 z m 51.42742,-17.95404 c -29.76753,-11.63609 -79.20716,-31.3684 -87.79806,-35.0419 -24.26346,-10.37515 -37.91372,-26.01894 -39.36955,-45.1192 -0.34586,-4.5375 -0.37011,-8.25 -0.0539,-8.25 0.3162,0 1.66041,2.37106 2.98715,5.26903 2.74037,5.98577 11.95386,16.40986 18.46146,20.88721 2.40828,1.65694 7.84239,4.73893 12.0758,6.84887 6.6042,3.29154 63.44347,26.19763 102.94711,41.48743 l 12.25,4.74134 0,8.38306 c 0,6.08294 -0.34297,8.36086 -1.25,8.30215 -0.6875,-0.0445 -9.8,-3.4231 -20.25,-7.50799 z m 28.72639,-10.6611 c 0.17189,-10.83721 0.64537,-17.16943 1.27361,-17.03328 0.55,0.11919 7.3,2.59419 15,5.5 13.67464,5.1605 14.00711,5.35655 14.3061,8.4359 0.29173,3.00469 0.10403,3.18621 -4,3.86825 -5.9555,0.98974 -9.11602,2.77136 -17.95265,10.12009 -4.2056,3.49747 -7.92872,6.35904 -8.27361,6.35904 -0.34489,0 -0.50394,-7.7625 -0.35345,-17.25 z m 68.27984,10.91084 c -4.64371,-1.48622 -7.10447,-2.81321 -7.32323,-3.9491 -0.28652,-1.48782 0.68392,-1.338 7.44742,1.14971 4.27729,1.57325 7.94774,3.37302 8.15656,3.9995 0.50273,1.50818 -0.0847,1.42304 -8.28075,-1.20011 z m -98.00623,-20.7979 C 334.91428,592.50795 334.12135,592.1696 324.93126,585.35681 311.32064,575.267 304.51402,563.95764 303.58599,549.89117 l -0.54054,-8.19328 3.06818,5.39507 c 4.6123,8.11023 7.60947,11.66931 14.87082,17.65881 6.28339,5.18283 9.17582,6.8123 7.61795,4.29161 -0.44563,-0.72104 -0.27393,-0.88282 0.45729,-0.4309 0.64395,0.39798 0.92377,1.12335 0.62182,1.61192 -0.74544,1.20614 5.28895,4.23208 6.70026,3.35985 0.62838,-0.38837 0.85001,-0.25022 0.50199,0.3129 -0.7447,1.20495 0.5899,1.85871 19.29921,9.45394 7.9668,3.2342 15.07767,5.65296 15.80194,5.37503 0.72427,-0.27793 1.08247,-0.12608 0.796,0.33743 -0.72654,1.17558 13.08945,6.4548 14.54244,5.5568 0.68025,-0.42042 0.91974,-0.30461 0.56317,0.27233 -0.79971,1.29396 48.84831,20.70943 50.44052,19.72539 0.69564,-0.42993 0.91498,-0.30059 0.53443,0.31514 -0.38139,0.61711 2.11221,2.06257 6.09549,3.53335 l 6.74093,2.48901 0.28893,8.62116 c 0.21986,6.56003 -0.0192,8.59568 -1,8.51459 -0.70891,-0.0586 -10.28893,-3.67233 -21.28893,-8.03049 z m 644.00001,1.09008 c -21.6185,-2.81322 -27.9828,-4.48598 -75.99998,-19.97551 -24.5264,-7.91179 -62.04139,-19.90588 -112.50003,-35.96791 -26.125,-8.31613 -54.925,-17.53941 -64,-20.49618 -9.075,-2.95677 -37.2,-11.99062 -62.5,-20.07521 -47.14569,-15.06538 -58.33899,-19.28719 -70.19768,-26.47668 -21.7482,-13.18513 -36.2312,-30.99006 -39.4199,-48.46153 -2.1311,-11.67668 -1.03837,-17.06586 13.58517,-67 7.57033,-25.85 19.27995,-65.9 26.02137,-89 23.84172,-81.6955 21.48501,-74.5 24.40058,-74.5 1.41471,0 11.5808,2.50261 22.59133,5.56136 11.01052,3.05875 27.44413,7.5883 36.51913,10.06567 85.11384,23.23508 224.34423,64.4692 299.50001,88.69919 7.7,2.48245 20.525,6.60568 28.5,9.16272 57.9987,18.59622 159.0275,52.58942 206.5,69.48109 91.4512,32.5402 137.0978,49.30856 138.8507,51.00702 0.4678,0.45335 -0.139,1.13838 -1.3486,1.52228 -1.2096,0.3839 -9.508,4.9286 -18.441,10.09934 -12.7792,7.39707 -17.0568,9.40133 -20.065,9.40133 -4.2902,0 -16.0832,5.87684 -36.0618,17.97074 -12.897,7.8071 -16.2044,10.38621 -17.4506,13.60825 -0.5231,1.35234 -15.4281,10.58365 -42.6439,26.4113 -23.0119,13.38277 -47.0148,27.34995 -53.3398,31.03819 -48.5363,28.30248 -63.5858,36.90534 -71,40.58616 -14.7444,7.31998 -31.0786,12.33071 -52,15.9517 -11.1095,1.92279 -48.6559,2.79783 -59.5,1.38668 z m 56,-9.09457 c 15.0765,-1.7696 34.403,-7.37838 47,-13.63996 2.75,-1.36695 20.75,-11.71866 40,-23.00382 121.9231,-71.47642 161.3856,-94.75964 164.3351,-96.9592 8.7393,-6.51719 9.5939,-16.86367 1.9801,-23.97296 -3.6085,-3.36935 -27.9242,-17.72588 -40.3152,-23.803 -11.194,-5.49004 -26.9981,-11.27559 -95.5,-34.96057 -70.135,-24.24962 -150.7757,-50.87353 -212,-69.99273 -13.475,-4.20799 -30.8,-9.62258 -38.49998,-12.03241 -47.80198,-14.96037 -175.68196,-52.51246 -188.92303,-55.47744 -18.75248,-4.19911 -56.62306,-8.50211 -67.98966,-7.72523 -10.61157,0.72526 -16.47635,2.90447 -22.5762,8.38876 -4.42838,3.98149 -5.27804,5.42963 -7.42686,12.65797 -3.82212,12.85712 -16.32139,55.62202 -21.2376,72.66214 -2.45953,8.525 -5.75144,19.775 -7.31535,25 -17.63994,58.93469 -18.49639,62.22661 -18.47172,71 0.0389,13.85546 4.96782,24.37589 17.01737,36.3227 13.85007,13.73198 27.01211,20.10883 68.42302,33.15011 10.56691,3.32777 36.44836,11.5975 84.5,26.99973 32.99352,10.57558 78.21709,24.92942 113.5,36.02459 15.125,4.75625 32.22503,10.1698 38.00003,12.03011 36.98778,11.91491 78.75438,24.47911 85.99998,25.87048 18.6165,3.57492 37.5314,4.03928 59.5,1.46073 z m -37.6065,-0.0603 c -17.4266,-0.97016 -28.2312,-3.39633 -61.0279,-13.7037 -15.6011,-4.90309 -35.79058,-11.24619 -44.86558,-14.09575 -9.075,-2.84957 -26.17503,-8.25049 -38.00003,-12.00206 -11.825,-3.75157 -29.6,-9.37497 -39.5,-12.49644 -27.50186,-8.67135 -60.19915,-19.08231 -78.5,-24.99476 -9.075,-2.93185 -26.625,-8.5623 -39,-12.5121 -67.99309,-21.70177 -71.31323,-22.80055 -80.30395,-26.57626 -16.75041,-7.03444 -32.07814,-18.97241 -39.5502,-30.80356 -10.00346,-15.83937 -10.1187,-25.58134 -0.65785,-55.61352 1.29947,-4.125 6.93416,-23.25 12.52153,-42.5 21.07899,-72.62284 29.25686,-100.08057 30.56705,-102.63088 1.98917,-3.87196 6.64065,-7.4134 13.15782,-10.01783 5.02479,-2.00802 7.43595,-2.29583 18.7656,-2.23994 13.1075,0.0647 35.69667,2.66254 55.5,6.38282 18.44997,3.46603 135.92568,37.90372 229.00001,67.13074 100.6237,31.59767 267.9996,87.96375 302,101.70256 17.4742,7.06093 48.8063,25.61549 52.6093,31.15466 4.6351,6.7512 2.3658,15.43886 -5.3203,20.36755 -2.0839,1.33635 -31.239,18.51428 -64.789,38.17319 -33.55,19.65891 -65.725,38.54111 -71.5,41.96045 -5.775,3.41934 -17.025,10.04689 -25,14.7279 -7.975,4.681 -19.225,11.29968 -25,14.70817 -13.8143,8.1534 -22.5457,12.31381 -33.5,15.96232 -19.829,6.60438 -42.819,9.29642 -67.6065,7.91647 z m 210.6654,-123.32995 c -1.849,-1.39851 -1.8016,-1.46893 1,-1.48351 2.36,-0.0123 2.6447,-0.22702 1.4411,-1.08675 -1.2051,-0.86079 -1.0576,-0.97448 0.75,-0.57831 2.9196,0.63988 2.9445,-0.90475 0.027,-1.66772 -1.4873,-0.38893 -2.9767,0.12666 -4.5,1.55768 -2.7336,2.56804 -2.8524,3.49336 -0.5269,4.10108 3.2695,0.85442 3.754,0.62876 1.8089,-0.84247 z m -3.094,-3.05496 c 1.9986,-3.05026 1.4988,-3.99936 -1.3135,-2.49426 -3.0173,1.61483 -4.1514,1.32144 -4.1514,-1.07397 0,-1.95823 -0.1598,-2.01777 -1.75,-0.6521 -3.5831,3.07714 -4.25,3.05613 -4.25,-0.13389 0,-2.20612 0.4715,-3.05902 1.6911,-3.05902 1.4819,0 1.451,-0.19402 -0.25,-1.56813 -1.8581,-1.50106 -1.8235,-1.54301 0.8089,-0.98095 2.6939,0.57521 3.9626,-0.88953 1.5,-1.7318 -0.6875,-0.23513 -0.1998,-0.25009 1.0838,-0.0332 2.7399,0.4629 2.0991,-1.20866 -0.7489,-1.95342 -2.6405,-0.69051 -7.2027,3.95865 -5.1373,5.23517 1.0382,0.64164 0.4245,1.26787 -2.3983,2.44733 -4.4476,1.85832 -4.8743,1.91998 -4.0493,0.58504 0.3399,-0.55 0.4033,-1 0.1408,-1 -0.2625,0 -1.2628,-0.30147 -2.2231,-0.66994 -1.1902,-0.45675 -1.5157,-0.29765 -1.0227,0.5 0.4122,0.66701 0.1603,1.16336 -0.586,1.15463 -2.1609,-0.0253 -4.1123,-1.68487 -3.3781,-2.87289 0.924,-1.49505 4.8515,-1.41147 6.4941,0.1382 1.06,1 1.4167,1 1.7833,0 0.2521,-0.6875 1.2084,-1.28553 2.125,-1.32895 1.1155,-0.0528 1.2369,-0.25121 0.3671,-0.59986 -1.0301,-0.4129 -0.9735,-1.01857 0.2731,-2.92105 0.8649,-1.32008 1.182,-2.40014 0.7045,-2.40014 -1.425,0 -4.4203,3.7989 -3.7941,4.8121 0.3429,0.55491 -1.165,0.74147 -3.6914,0.45671 -3.141,-0.35404 -4.6239,-0.0564 -5.6043,1.12488 -1.9378,2.33499 0.2979,4.60631 4.5342,4.60631 1.8577,0 3.3776,0.3876 3.3776,0.86133 0,0.47373 1.1079,0.64953 2.4621,0.39067 1.5028,-0.28727 3.1194,0.18666 4.1491,1.21632 0.9278,0.92783 2.5199,1.46916 3.5379,1.20295 1.018,-0.26622 1.8509,-0.0237 1.8509,0.53893 0,0.56262 1.1511,0.8029 2.558,0.53396 1.8828,-0.35991 2.419,-0.12669 2.0314,0.88342 -0.9008,2.34737 1.0936,1.50512 2.8755,-1.21434 z m -32.609,-2.9963 c 1.1485,-2.52065 1.104,-2.56705 -1.8395,-1.92054 -2.3617,0.5187 -3.0164,0.31967 -3.0164,-0.91694 0,-1.73062 -2.0469,-2.11295 -3.55,-0.66307 -0.581,0.56048 -1.5117,0.30105 -2.3963,-0.66797 -1.2879,-1.41074 -1.2057,-1.52143 0.75,-1.01001 1.2079,0.31589 2.1963,0.2093 2.1963,-0.23687 0,-0.44618 1.7062,-0.58238 3.7915,-0.30268 4.9427,0.66296 7.4182,-1.70465 4.8033,-4.59406 -2.7877,-3.08037 0.7581,-3.48363 5.0459,-0.57387 4.4168,2.99731 6.9341,3.13216 8.3704,0.4484 2.1782,-4.07006 -0.9897,-5.28754 -4.6966,-1.80502 l -2.3145,2.17432 0,-3.2813 c 0,-2.72859 -0.2948,-3.16183 -1.75,-2.57204 -0.9625,0.3901 -2.9875,1.15727 -4.5,1.70482 -1.5125,0.54755 -2.75,1.47652 -2.75,2.06438 0,0.58786 -0.2713,0.79757 -0.6028,0.46602 -0.3316,-0.33155 -1.6066,-0.22118 -2.8335,0.24527 -1.2575,0.4781 -2.8486,0.45692 -3.6472,-0.0485 -1.0639,-0.67343 -0.7942,-0.92009 1.0835,-0.99088 2.44,-0.092 2.4301,-0.11966 -0.4128,-1.15292 -2.9809,-1.08339 -3.8546,-0.53327 -6.5245,4.10788 -0.5697,0.99025 -1.6309,1.17091 -3.6815,0.6267 -2.9596,-0.78541 -2.8389,-0.91132 1.8688,-1.94961 3.102,-0.68415 3.6483,-3.19106 1.1014,-5.05345 -1.4399,-1.05284 -1.2499,-1.28527 1.5,-1.83524 5.1651,-1.03302 3.4284,-5.67973 -2.1228,-5.67973 -1.5793,0 -3.5465,-0.675 -4.3715,-1.5 -0.825,-0.825 -2.0705,-1.5 -2.7679,-1.5 -1.8422,0 -7.4092,6.43479 -8.1621,9.43429 -0.7465,2.97446 0.6603,3.30233 4.5729,1.06571 3.5639,-2.03728 4.605,-1.82603 2.4945,0.50613 -2.6195,2.89444 -1.271,3.44929 1.4204,0.58445 2.2401,-2.38451 2.2416,-2.40613 0.2084,-3.05145 -1.1263,-0.35746 -2.9648,-0.15917 -4.0855,0.44065 -1.7063,0.91318 -2.0378,0.79205 -2.0378,-0.7446 0,-2.65652 1.9782,-4.23518 5.307,-4.23518 2.0589,0 2.7527,0.40206 2.3781,1.37814 -0.2908,0.75798 -0.027,1.8799 0.5862,2.49314 0.82,0.81999 0.5414,1.89074 -1.0528,4.04699 -1.4362,1.94261 -1.7715,3.06406 -0.9937,3.32335 0.7071,0.23569 0.4982,0.65071 -0.5254,1.04347 -0.9347,0.35868 -1.6994,0.25839 -1.6994,-0.22286 0,-0.48124 -0.9,-0.63964 -2,-0.35198 -1.1182,0.29241 -2,0.0307 -2,-0.59362 0,-0.61415 -0.4875,-1.11663 -1.0833,-1.11663 -0.5959,0 -0.8817,0.5625 -0.6352,1.25 0.2466,0.6875 0.043,2.0375 -0.4518,3 -1.1146,2.16719 0.4314,2.34527 2.1703,0.25 1.7165,-2.06831 3.2832,-1.87749 4.8225,0.5874 1.1864,1.89973 1.1181,2.02853 -0.7594,1.43261 -1.2045,-0.38229 -2.0631,-0.21059 -2.0631,0.4126 0,1.15702 4.2502,1.48381 5.3247,0.4094 0.3619,-0.3619 0.1477,-1.27277 -0.4759,-2.02417 -1.5376,-1.85273 -0.8264,-2.26516 2.0392,-1.18247 2.3117,0.87344 2.3307,0.96552 0.595,2.88344 -1.523,1.68287 -1.5599,1.98119 -0.245,1.98119 0.8514,0 1.807,-0.675 2.1236,-1.5 0.3166,-0.825 1.3345,-1.5 2.262,-1.5 1.524,0 1.5068,0.19847 -0.1788,2.06105 -1.5963,1.76389 -1.6547,2.19422 -0.405,2.98469 0.8031,0.508 2.1352,0.91621 2.9602,0.90714 1.1232,-0.0123 0.9976,-0.40506 -0.5,-1.56337 -1.9522,-1.50995 -1.9403,-1.53847 0.5,-1.19446 1.4041,0.19794 2.3794,0.92301 2.2249,1.65405 -0.1881,0.88991 0.3734,1.09579 1.7751,0.6509 1.4145,-0.44894 1.9649,-0.23975 1.7751,0.67464 -0.1776,0.85569 0.5222,1.21449 1.9749,1.0125 1.2375,-0.17207 2.25,0.16543 2.25,0.75 0,1.97107 1.6703,1.08199 2.8559,-1.5202 z m -10.3939,-7.35548 c 0.319,-0.5162 -0.2169,-1.40251 -1.191,-1.96959 -1.6154,-0.94044 -1.5835,-1.03373 0.3624,-1.06146 1.3082,-0.0187 2.3356,0.74315 2.6563,1.96959 0.3473,1.32806 0.031,2 -0.9423,2 -0.806,0 -1.2044,-0.42234 -0.8854,-0.93854 z m 4.6691,-0.40347 c -1.3917,-1.67688 -0.4775,-2.65799 2.4765,-2.65799 2.7706,0 4.1624,1.89817 2.2705,3.09649 -1.9649,1.24454 -3.4652,1.10595 -4.747,-0.4385 z m 15.8689,-2.71701 c 0,-0.58246 0.45,-0.7809 1,-0.44098 0.55,0.33992 1,0.81648 1,1.05902 0,0.24254 -0.45,0.44098 -1,0.44098 -0.55,0 -1,-0.47656 -1,-1.05902 z m -30.43,-1.82767 c -0.909,-1.4708 2.3373,-3.60596 3.5852,-2.35806 0.5888,0.58877 0.7682,1.55969 0.3987,2.15762 -0.81,1.31059 -3.2227,1.43198 -3.9839,0.20044 z m 1.0354,-6.94269 c -0.8354,-1.35172 1.9701,-3.39903 4.0966,-2.9895 2.8021,0.53963 2.1546,3.27762 -0.8576,3.62619 -1.4605,0.16902 -2.9181,-0.11749 -3.239,-0.63669 z m -15.0094,8.35602 c -0.5158,-2.05528 -0.3228,-2.36847 1.1416,-1.85282 1.3933,0.49057 1.5147,0.35245 0.5796,-0.65942 -1.8229,-1.97274 -4.5912,-0.45293 -3.7874,2.07939 0.5777,1.82014 0.3679,2.00852 -1.5563,1.3978 -1.5113,-0.47967 -2.0047,-0.35108 -1.5397,0.40128 0.3763,0.60892 1.8315,1.10713 3.2336,1.10713 2.2127,0 2.4674,-0.32667 1.9286,-2.47336 z m 33.475,-4.93294 c 2.2962,-1.93215 2.5549,-2.52329 1.3126,-3 -2.3671,-0.90832 -3.5731,-0.70935 -2.8447,0.46931 0.3614,0.58466 -0.1318,1.93466 -1.0959,3 -2.4546,2.71223 -0.8024,2.41719 2.628,-0.46931 z m -6.071,-0.0937 c 0,-0.825 0.675,-1.5 1.5,-1.5 0.825,0 1.5,-0.675 1.5,-1.5 0,-0.825 -0.4132,-1.5 -0.9182,-1.5 -0.505,0 -1.5364,-0.23721 -2.2919,-0.52713 -0.7877,-0.30227 -2.36,0.807 -3.686,2.60047 -2.2666,3.06572 -2.2707,3.11438 -0.2081,2.45974 1.2418,-0.39415 2.1042,-0.2304 2.1042,0.39953 0,0.58707 0.45,1.06739 1,1.06739 0.55,0 1,-0.675 1,-1.5 z M 771.7226,356.23788 c -0.87582,-1.41711 -10.46321,-4.28934 -12.52121,-3.75116 -1.10245,0.2883 -2.11171,-0.12845 -2.45075,-1.01196 -0.46455,-1.2106 -0.86522,-1.26243 -2.06458,-0.26705 -1.21721,1.01019 -1.48817,0.92892 -1.48817,-0.44639 0,-0.92481 -0.41891,-1.42257 -0.9309,-1.10614 -0.512,0.31644 -1.21356,0.11799 -1.55902,-0.44098 -0.34546,-0.55897 -1.95156,-1.01631 -3.5691,-1.01631 -1.61754,0 -2.94098,-0.39752 -2.94098,-0.88337 0,-2.08382 -4.31684,-1.94854 -6.10332,0.19127 -2.02613,2.42685 -2.59565,4.79107 -0.69668,2.8921 1.66398,-1.66398 2.13443,-1.54617 5.2107,1.30482 2.04262,1.89303 3.33592,2.3459 5.29517,1.85415 1.81802,-0.45629 2.38089,-0.30837 1.88427,0.49519 -0.95775,1.54967 1.66225,1.46838 3.35704,-0.10416 1.09973,-1.0204 1.23407,-0.92856 0.73138,0.5 -0.71456,2.03069 0.545,2.23372 3.63718,0.58628 1.98498,-1.05755 2.05722,-1.00973 0.79176,0.52417 -1.90634,2.31072 -0.72766,3.13955 4.46478,3.13955 2.64387,0 4.6009,0.50893 4.89398,1.27268 0.35183,0.91684 1.06412,0.69694 2.54753,-0.78647 1.13254,-1.13254 1.81245,-2.45834 1.51092,-2.94622 z m -10.52471,0.85795 c -1.2051,-0.86079 -1.05765,-0.97448 0.75,-0.57831 1.2375,0.27122 2.25,0.0853 2.25,-0.41325 0,-0.49851 -0.525,-0.90638 -1.16667,-0.90638 -0.64166,0 -0.93107,-0.23559 -0.64312,-0.52354 0.28794,-0.28794 1.27443,-0.23539 2.19219,0.11678 1.29482,0.49688 1.41147,0.95021 0.52068,2.02354 -1.3704,1.65124 -1.92868,1.69145 -3.90308,0.28116 z m -15.81025,-6.51626 c 0.89008,-0.89008 2.11885,-1.30899 2.7306,-0.93091 1.62786,1.00608 0.29995,2.54923 -2.19365,2.54923 -1.98583,0 -2.02805,-0.12723 -0.53695,-1.61832 z m 24.94453,-3.69761 c 5.58584,-3.48842 1.36268,-9.85074 -6.53869,-9.85074 -6.13643,0 -9.82569,2.34522 -9.40597,5.97929 0.61075,5.28808 10.01857,7.57235 15.94466,3.87145 z m -12.13428,-1.51831 c 0,-2.16087 3.74222,-3.17089 8.01298,-2.1627 4.66443,1.10113 2.94108,3.4708 -2.76298,3.7992 -4.63199,0.26668 -5.25,0.074 -5.25,-1.6365 z m -0.76469,-5.14909 c 0.21862,-1.13522 1.66847,-1.51667 5.76469,-1.51667 4.09622,0 5.54607,0.38145 5.76469,1.51667 0.2351,1.22076 -0.88959,1.51666 -5.76469,1.51666 -4.8751,0 -5.99979,-0.2959 -5.76469,-1.51666 z m 47.53435,-11.01667 c 1.11205,0 1.34864,0.80855 0.95095,3.25 -0.52728,3.23704 -0.52502,3.23903 0.56804,0.5 0.60359,-1.5125 1.37456,-2.75 1.71326,-2.75 0.33871,0 1.3851,-0.5625 2.32531,-1.25 1.45267,-1.06222 0.96996,-1.25 -3.21338,-1.25 -2.70757,0 -4.71427,0.3375 -4.45933,0.75 0.25494,0.4125 0.0995,0.75089 -0.34549,0.75199 -0.44496,10e-4 -0.87062,1.46359 -0.94591,3.25 l -0.13689,3.24801 1.03155,-3.25 c 0.56735,-1.7875 1.6977,-3.25 2.51189,-3.25 z m -5.3638,-2.46429 4.90586,-2.80269 5.3671,1.69183 c 2.95191,0.9305 5.10521,2.11557 4.78513,2.63349 -0.32009,0.51791 -0.10543,0.94166 0.47703,0.94166 1.82054,0 1.15931,-1.8893 -1.19098,-3.40297 -1.2375,-0.79699 -3.9223,-1.7546 -5.96622,-2.12801 -3.1362,-0.57296 -4.73603,-0.10862 -10.25,2.97497 -3.59358,2.00964 -6.53378,4.15161 -6.53378,4.75994 0,0.6634 0.70036,0.51142 1.75,-0.37974 0.9625,-0.81719 3.95764,-2.747 6.65586,-4.28848 z m -13.0243,1.91235 c 0.34149,-0.88992 0.17385,-1.29132 -0.39301,-0.94098 -0.5437,0.33602 -0.98855,1.0344 -0.98855,1.55194 0,1.43843 0.71677,1.12146 1.38156,-0.61096 z m 9.61844,-8.11467 c 0,-2.01717 -4.53877,-1.63122 -13.5,1.14793 -7.15673,2.21953 -8.31623,2.33665 -11,1.1111 -1.65,-0.75348 -4.125,-1.69559 -5.5,-2.09358 -4.01593,-1.16242 -1.04282,1.08609 3.25,2.45791 2.0625,0.65909 3.75,1.55301 3.75,1.98647 0,0.43347 2.3625,0.009 5.25,-0.94351 8.73764,-2.88199 12.0594,-3.4173 11.51194,-1.85519 -0.28046,0.80024 -1.76268,1.29508 -3.6185,1.20803 -3.80491,-0.17847 -4.15413,1.17697 -0.53713,2.08478 2.80815,0.7048 5.73797,-1.80047 4.89692,-4.18733 -0.27533,-0.78138 0.48502,-1.25 2.02815,-1.25 2.47148,0 3.30749,1.36352 1.51518,2.47122 -0.52439,0.3241 -1.91002,2.03815 -3.07918,3.80902 -1.88156,2.84991 -1.71461,2.76987 1.45344,-0.69685 1.96855,-2.15414 3.57918,-4.51664 3.57918,-5.25 z m -17.34224,-4.91518 c 3.03489,0.95666 5.72783,1.52954 5.98431,1.27306 0.66507,-0.66507 -8.55677,-3.69127 -11.24854,-3.69127 -2.01804,0 -14.39353,6.59583 -14.39353,7.6714 0,0.24071 3.18145,-1.23415 7.06989,-3.27746 l 7.06988,-3.71512 5.51799,1.73939 z m -0.65776,4.767 c 0,-1.26341 -6.85478,-4.22921 -7.47087,-3.23235 -0.30062,0.48642 0.80218,1.18064 2.45068,1.5427 1.64849,0.36207 3.25397,1.07369 3.56774,1.58138 0.70548,1.1415 1.45245,1.19718 1.45245,0.10827 z m 30,-0.18521 c 0,-0.55 -0.5625,-1.00277 -1.25,-1.00616 -0.6875,-0.003 -2.47988,-0.64775 -3.98306,-1.43191 -1.50319,-0.78416 -2.96849,-1.04483 -3.25624,-0.57925 -0.40799,0.66014 2.96735,2.27354 8.2393,3.93837 0.1375,0.0434 0.25,-0.37105 0.25,-0.92105 z m -51.58753,-2.60478 c 2.21937,-0.85166 1.00648,-2.31754 -1.39742,-1.6889 -1.09063,0.2852 -3.15489,0.22441 -4.58725,-0.13509 -2.14636,-0.5387 -2.39141,-0.91015 -1.39361,-2.11243 0.77865,-0.93822 0.83121,-1.4588 0.14727,-1.4588 -3.54838,0 -1.70986,4.55414 2.14116,5.30378 1.19756,0.23312 2.47808,0.48514 2.84559,0.56004 0.36752,0.0749 1.37743,-0.13597 2.24426,-0.4686 z m 39.58753,-0.19047 c 0,-0.43739 2.85788,-2.26106 6.35084,-4.0526 l 6.35085,-3.25735 5.39915,2.0521 c 6.24297,2.3728 6.21087,2.36648 5.40728,1.06624 -0.33545,-0.54277 -3.05538,-1.69778 -6.04428,-2.56667 l -5.43436,-1.57982 -7.00805,3.81668 c -6.47282,3.52518 -8.50179,5.31667 -6.02143,5.31667 0.55,0 1,-0.35786 1,-0.79525 z m -34,-1.2295 c 0,-1.08855 -4.16314,-2.97525 -6.5651,-2.97525 -0.78919,0 -1.4349,0.47656 -1.4349,1.05902 0,0.58246 0.42931,0.79369 0.95401,0.4694 1.37837,-0.85188 6.13527,0.51811 5.48006,1.57825 -0.30366,0.49133 -0.0756,0.89333 0.50691,0.89333 0.58246,0 1.05902,-0.46114 1.05902,-1.02475 z m 51,0.13316 c 0,-0.49038 -1.08319,-1.16346 -2.4071,-1.49574 -1.3239,-0.33228 -3.2364,-0.90276 -4.25,-1.26773 -1.08038,-0.38903 -1.50288,-0.28735 -1.02113,0.24573 0.63184,0.69917 4.55015,2.45742 7.42823,3.33325 0.1375,0.0418 0.25,-0.32514 0.25,-0.81551 z m -68.36111,-1.81588 c -0.40974,-5.0372 16.44869,-7.06209 20.98968,-2.5211 1.30739,1.30738 1.58136,1.35537 1.20318,0.21071 -1.83031,-5.53986 -18.04581,-5.24885 -22.74067,0.40812 -0.69479,0.83717 -0.97296,1.99184 -0.61815,2.56594 0.93278,1.50927 1.32457,1.28626 1.16596,-0.66367 z m 48.78723,-1.90713 c 2.57291,-1.43803 4.44992,-2.8427 4.17112,-3.12149 -0.52434,-0.52434 -9.59724,4.46553 -9.59724,5.27824 0,0.77918 0.59955,0.54087 5.42612,-2.15675 z m -30.42612,0.1146 c 0,-0.825 -0.43588,-1.5 -0.96862,-1.5 -0.53273,0 -0.70959,0.675 -0.39301,1.5 0.31659,0.825 0.75246,1.5 0.96862,1.5 0.21615,0 0.39301,-0.675 0.39301,-1.5 z m 21.94617,-2.76103 c 1.89539,-2.05643 3.10752,-3.73897 2.69363,-3.73897 -1.04183,0 -6.6398,6.23007 -6.6398,7.38953 0,0.51909 0.1125,0.75134 0.25,0.51611 0.1375,-0.23524 1.80078,-2.11024 3.69617,-4.16667 z m 4.36909,-5.73897 c 2.66436,0 2.66828,1.40775 0.0117,4.18067 -3.08774,3.2229 -2.36709,3.46035 3.79736,1.25121 2.48682,-0.89119 5.88661,-1.34259 7.87573,-1.04567 3.24082,0.48376 3.35626,0.41476 1.55887,-0.93188 -2.39048,-1.79099 -2.35256,-1.79122 -7.55887,0.0457 -5.44179,1.91998 -5.66521,1.89253 -3.55703,-0.43699 2.03285,-2.24635 1.32214,-4.06304 -1.58955,-4.06304 -2.34803,0 -14.85347,6.75555 -14.85347,8.02397 0,0.46852 2.91687,-0.92021 6.48193,-3.08606 3.56506,-2.16585 7.09006,-3.93791 7.83333,-3.93791 z m -18.9337,4.44806 c 0.34149,-0.88992 0.17385,-1.29132 -0.39301,-0.94098 -0.5437,0.33602 -0.98855,1.0344 -0.98855,1.55194 0,1.43843 0.71677,1.12146 1.38156,-0.61096 z m 6.98555,-3.42662 c 3.21913,-4.86443 3.29346,-6.0286 0.38289,-5.99705 -3.47676,0.0377 -18.82949,4.64318 -20.10969,6.03248 -0.88817,0.96386 -0.69808,1.07129 0.85969,0.48586 4.75009,-1.78516 14.90752,-4.46854 15.32699,-4.04907 1.1521,1.15209 -2.11221,3.19034 -4.58334,2.86186 l -2.74365,-0.36471 2.92585,1.14654 c 2.58435,1.01273 3.13813,0.88439 4.74464,-1.09957 1.00033,-1.23536 1.56964,-2.64923 1.26513,-3.14194 -0.30451,-0.49271 0.3729,-0.89584 1.50536,-0.89584 2.65217,0 2.5935,0.61048 -0.44098,4.58889 -2.34573,3.0754 -2.99158,4.41111 -2.13289,4.41111 0.20192,0 1.55192,-1.79035 3,-3.97856 z m -20.70019,-3.59583 c 0.41898,-1.09185 1.40547,-1.41094 3.21862,-1.04109 2.43337,0.49636 2.40666,0.43537 -0.38554,-0.8805 -3.61219,-1.70232 -6.5,-1.8963 -6.5,-0.43663 0,0.63328 0.86434,0.79306 2.12523,0.39286 1.43014,-0.4539 1.90143,-0.31241 1.44098,0.43262 -1.06174,1.71793 -8.56621,1.41729 -8.56621,-0.34318 0,-0.79767 0.7875,-1.90899 1.75,-2.46959 0.9625,-0.56061 1.2775,-1.03297 0.7,-1.04969 -1.45614,-0.0422 -3.45,2.09722 -3.45,3.70181 0,2.86202 8.63784,4.37513 9.66692,1.69339 z m 51.17279,-0.31679 c 2.49613,-2.84326 10.64472,-5.15689 20.16029,-5.72412 9.34778,-0.55723 12.30081,0.343 10.04425,3.06198 -1.13471,1.36724 -1.08913,1.50777 0.31431,0.96922 1.93488,-0.74248 2.12255,-2.53479 0.44144,-4.2159 -1.71061,-1.71061 -14.20926,-1.50489 -21.33512,0.35116 -6.51088,1.69587 -11.5709,4.2669 -12.21794,6.20801 -0.61173,1.8352 0.69939,1.50633 2.59277,-0.65035 z m -63.26031,-1.35882 c -0.0988,-2.79986 5.29386,-5.74619 10.52138,-5.74845 4.6471,-0.002 9.65699,1.75726 10.23903,3.59552 0.2874,0.90771 0.39841,0.79566 0.29954,-0.30235 -0.48453,-5.3814 -15.60705,-5.8343 -21.21675,-0.63541 -2.11698,1.96195 -2.37807,2.68942 -1.39177,3.87784 1.57876,1.90229 1.64234,1.86998 1.54857,-0.78715 z m 17.10371,-2.9375 c -0.31922,-0.79773 -0.55618,-0.56078 -0.60416,0.60417 -0.0434,1.05416 0.19293,1.64479 0.52522,1.3125 0.33229,-0.33229 0.36781,-1.1948 0.0789,-1.91667 z m 31.87305,-7.20373 c 4.32878,-1.06082 9.7952,-1.59315 14.4529,-1.40744 6.59194,0.26283 7.47214,0.52149 7.33427,2.15534 -0.11075,1.31254 0.15524,1.54476 0.90762,0.79238 1.73782,-1.73782 -0.946,-3.98172 -5.58272,-4.66764 -8.86395,-1.31126 -28.66823,4.15844 -28.66823,7.91781 0,1.11802 0.59616,0.91372 2.2971,-0.78723 1.38058,-1.38058 5.07487,-2.97783 9.25906,-4.00322 z m -23.1462,-7.60752 c 11.31183,-2.86193 22.39152,-2.53224 21.17798,0.63017 -0.28884,0.75272 -0.0893,1.36858 0.44344,1.36858 0.53274,0 0.96862,-0.87961 0.96862,-1.95469 0,-2.56709 -4.88507,-3.50212 -14.37555,-2.75154 -10.06501,0.79601 -21.62952,5.27098 -20.08401,7.77166 0.33745,0.54601 1.34479,0.0857 2.28186,-1.04269 1.03105,-1.24156 4.72651,-2.7916 9.58766,-4.02149 z m 796.61225,303.85082 c -0.012,-0.35636 1.0974,-2.60636 2.4658,-5 1.3683,-2.39364 2.5608,-6.15207 2.6498,-8.35207 0.1378,-3.40482 0.2272,-3.55631 0.6008,-1.01808 0.542,3.68178 -1.0971,9.19868 -3.7193,12.51808 -1.0861,1.375 -1.9848,2.20843 -1.9971,1.85207 z M 331.70497,571.20934 c -0.35034,-0.56686 0.0511,-0.7345 0.94098,-0.39301 1.73242,0.66479 2.04939,1.38156 0.61096,1.38156 -0.51754,0 -1.21592,-0.44485 -1.55194,-0.98855 z m -10.78441,-7.45968 c -10.06908,-8.20221 -15.98246,-18.69324 -17.29143,-30.677 -0.93799,-8.58741 0.0795,-7.19463 1.50082,2.05443 0.70837,4.60952 2.3129,9.62663 4.22757,13.21891 2.74097,5.14259 10.74511,14.10223 16.34037,18.29102 1.1,0.8235 1.70375,1.51157 1.34167,1.52907 -0.36208,0.0175 -3.11564,-1.9699 -6.119,-4.41643 z M 1372.6979,530.5433 c -1.65,-0.21399 -6.0375,-0.86991 -9.75,-1.45759 l -6.75,-1.06852 0,-3.31914 0,-3.31914 5.25,1.41503 c 18.8508,5.08084 39.7015,1.31026 50.5,-9.13231 l 5.25,-5.07693 0,3.37233 c 0,4.60844 -1.287,6.65423 -6.3987,10.17117 -8.477,5.83235 -26.8046,9.8802 -38.1013,8.4151 z m -6.789,-12.91439 c -8.1615,-1.9771 -10.1752,-3.16679 -8.591,-5.07562 4.0618,-4.89416 43.242,-27.3554 47.7173,-27.3554 2.9687,0 6.7773,3.57941 8.5664,8.05096 6.5319,16.3249 -21.5936,30.70245 -47.6927,24.38006 z m 28.1102,-17.78287 c 0.191,-0.96699 -0.7194,-2.10026 -2.2459,-2.79581 -2.1478,-0.9786 -2.8945,-0.8734 -4.5712,0.64398 -2.5866,2.34082 -2.529,3.3727 0.2459,4.40583 2.8052,1.04442 6.146,-0.10152 6.5712,-2.254 z M 655.12234,489.79232 c -11.0545,-13.28157 -16.76831,-28.52593 -14.79597,-39.47533 1.00125,-5.55839 5.40181,-20.84061 44.37902,-154.1191 6.99685,-23.925 13.40772,-45.8625 14.24637,-48.75 1.48855,-5.12512 2.48674,-6.01964 4.96207,-4.44672 0.94273,0.59905 0.87784,1.88759 -0.28882,5.73469 -1.99471,6.57763 -9.76479,33.0758 -13.91732,47.46203 -1.8257,6.325 -8.80196,30.175 -15.50281,53 -6.70085,22.825 -14.60052,49.825 -17.55482,60 -2.9543,10.175 -6.10417,20.75 -6.99972,23.5 -1.01545,3.11821 -1.83072,10.14712 -2.16619,18.6761 -0.64909,16.50249 0.88214,24.22131 6.82101,34.38424 2.16363,3.70252 3.81212,6.8211 3.6633,6.93019 -0.14881,0.10909 -1.42957,-1.19416 -2.84612,-2.8961 z m 756.59936,-3.21348 c -0.8905,-0.89047 -1.4851,-1.71755 -1.3214,-1.83795 0.1637,-0.1204 7.1414,-4.13778 15.5061,-8.92752 17.2903,-9.90066 22.9881,-12.21662 26.8711,-10.92229 2.474,0.82466 2.2252,1.06602 -4.7342,4.59309 -4.04,2.04748 -7.6829,3.72067 -8.0954,3.7182 -0.4125,-0.002 -1.5375,0.71651 -2.5,1.59773 -2.4421,2.23589 -21.4918,13.34875 -22.9286,13.37569 -0.6482,0.0122 -1.9071,-0.70647 -2.7976,-1.59695 z M 640.30682,441.19789 c -0.1077,-1.77961 3.38031,-14.26115 16.20828,-58 24.16781,-82.40367 38.11987,-130.11206 40.06491,-137 1.16483,-4.125 2.24242,-6.6 2.39464,-5.5 0.15221,1.1 -6.7227,25.85 -15.27759,55 -14.93625,50.89393 -18.33002,62.50833 -32.87288,112.5 -7.88968,27.12109 -10.39703,34.98834 -10.51736,33 z m 62.64107,-199.74926 c -0.9625,-0.21856 -1.75,-0.81439 -1.75,-1.32406 0,-1.20811 3.7102,-1.2046 4.45729,0.004 0.74875,1.2115 -0.5011,1.82082 -2.70729,1.31984 z m -0.75,-5.35773 c 0,-0.60884 -0.65961,-0.85387 -1.46581,-0.5445 -1.22343,0.46947 -1.17691,-0.21559 0.28131,-4.14302 0.96091,-2.58802 2.18302,-4.5989 2.71581,-4.46861 0.53278,0.13028 1.10471,2.49278 1.27095,5.25 0.24083,3.99427 -0.0132,5.01312 -1.25,5.01312 -0.85374,0 -1.55226,-0.49814 -1.55226,-1.10699 z"
     id="path15144"
     inkscape:connector-curvature="0" />
</svg>
