<?xml version="1.0" encoding="utf-8"?>
<svg id="Ebene_3" x="0px" y="0px" width="566.927px" height="167.468px" viewBox="0 0 566.927 167.468" xmlns="http://www.w3.org/2000/svg">
  <path d="M 33.98 108.929 L 33.912 67.342 L 39.296 67.342 L 39.296 117.139 L 33.912 117.139 L 5.249 75.215 L 5.384 117.139 L 0 117.139 L 0 67.342 L 5.652 67.342 L 33.98 108.929 Z" style="fill: rgb(153, 153, 153);"/>
  <path d="M 45.31 67.342 L 71.729 67.342 L 71.729 72.254 L 50.827 72.254 L 50.827 89.548 L 71.594 89.548 L 71.594 94.46 L 50.827 94.46 L 50.827 112.227 L 71.729 112.227 L 71.729 117.139 L 45.31 117.139 L 45.31 67.342 Z" style="fill: rgb(153, 153, 153);"/>
  <path d="M 74.242 92.375 C 74.242 77.034 86.153 66.467 100.218 66.467 C 114.82 66.467 126.193 77.638 126.193 92.24 C 126.193 106.844 114.888 118.013 100.218 118.013 C 85.48 118.013 74.242 106.64 74.242 92.441 L 74.242 92.375 Z M 79.827 92.24 C 79.827 103.949 88.642 113.101 100.285 113.101 C 112.061 113.101 120.675 103.615 120.675 92.24 C 120.675 80.867 112.062 71.379 100.218 71.379 C 88.509 71.379 79.827 80.665 79.827 92.171 L 79.827 92.24 Z" style="fill: rgb(153, 153, 153);"/>
  <path d="M 172.16 80.262 C 170.612 78.109 168.727 76.292 166.574 74.879 C 163.344 72.658 159.441 71.379 155 71.379 C 144.098 71.379 134.61 79.723 134.61 92.171 C 134.61 104.823 144.166 113.167 155.067 113.167 C 160.316 113.167 164.959 111.352 168.391 108.659 C 171.891 105.899 174.313 102.132 175.121 98.227 L 148.017 98.227 L 148.017 93.651 L 181.581 93.651 C 181.514 96.546 180.841 100.178 179.36 103.275 C 175.053 112.629 165.093 118.079 155.067 118.079 C 140.532 118.079 129.025 106.909 129.025 92.171 C 129.025 77.233 140.734 66.465 155.134 66.465 C 165.228 66.465 174.582 72.118 178.485 80.26 L 172.16 80.26 L 172.16 80.262 L 172.16 80.262 Z" style="fill: rgb(153, 153, 153);"/>
  <path d="M 184.25 67.342 L 211.84 67.342 L 211.84 72.254 L 189.769 72.254 L 189.769 89.548 L 211.706 89.548 L 211.706 94.46 L 189.769 94.46 L 189.769 112.227 L 211.84 112.227 L 211.84 117.139 L 184.25 117.139 L 184.25 67.342 Z" style="fill: rgb(153, 153, 153);"/>
  <path d="M 214.061 92.375 C 214.061 77.034 225.972 66.467 240.036 66.467 C 254.639 66.467 266.011 77.638 266.011 92.24 C 266.011 106.844 254.706 118.013 240.036 118.013 C 225.299 118.013 214.061 106.64 214.061 92.441 L 214.061 92.375 Z M 219.646 92.24 C 219.646 103.949 228.461 113.101 240.103 113.101 C 251.88 113.101 260.493 103.615 260.493 92.24 C 260.493 80.867 251.88 71.379 240.036 71.379 C 228.327 71.379 219.646 80.665 219.646 92.171 L 219.646 92.24 L 219.646 92.24 Z" style="fill: rgb(153, 153, 153);"/>
  <path d="M 327.466 92.375 C 327.466 77.034 339.376 66.467 353.442 66.467 C 368.045 66.467 379.418 77.638 379.418 92.24 C 379.418 106.844 368.113 118.013 353.442 118.013 C 338.705 118.013 327.466 106.64 327.466 92.441 L 327.466 92.375 Z M 333.05 92.24 C 333.05 103.949 341.866 113.101 353.509 113.101 C 365.286 113.101 373.9 103.615 373.9 92.24 C 373.9 80.867 365.287 71.379 353.442 71.379 C 341.734 71.379 333.05 80.665 333.05 92.171 L 333.05 92.24 L 333.05 92.24 Z" style="fill: rgb(153, 153, 153);"/>
  <path d="M 435.001 103.748 C 431.772 111.42 423.091 118.016 412.122 118.016 C 397.386 118.016 386.146 106.643 386.146 92.244 C 386.146 78.044 397.116 66.47 412.052 66.47 C 424.365 66.47 432.106 74.68 434.998 81.005 L 429.008 81.005 C 427.324 78.045 421.674 71.382 412.052 71.382 C 400.41 71.382 391.662 80.601 391.662 92.175 C 391.662 103.952 400.475 113.104 412.052 113.104 C 422.485 113.104 427.797 105.634 429.008 103.75 L 435.001 103.748 L 435.001 103.748 Z" style="fill: rgb(153, 153, 153);"/>
  <path d="M 489.644 67.342 L 517.236 67.342 L 517.236 72.254 L 495.164 72.254 L 495.164 89.548 L 517.1 89.548 L 517.1 94.46 L 495.164 94.46 L 495.164 112.227 L 517.236 112.227 L 517.236 117.139 L 489.644 117.139 L 489.644 67.342 L 489.644 67.342 Z" style="fill: rgb(153, 153, 153);"/>
  <path d="M 545.228 72.254 L 529.181 72.254 L 529.181 67.342 L 566.927 67.342 L 566.927 72.254 L 550.814 72.254 L 550.814 117.139 L 545.228 117.139 L 545.228 72.254 Z" style="fill: rgb(153, 153, 153);"/>
  <path fill="#F10000" d="M 214.245 155.511 C 212.192 162.493 205.62 167.468 197.724 167.468 C 187.41 167.468 180.017 159.298 180.017 149.899 C 180.017 140.909 186.999 132.42 197.679 132.42 C 207.4 132.467 212.922 139.631 214.245 144.562 L 207.08 144.562 C 206.031 142.234 203.019 138.447 197.633 138.4 C 191.061 138.4 186.817 143.921 186.817 149.9 C 186.817 156.062 191.244 161.494 197.679 161.494 C 203.703 161.494 206.442 156.748 207.08 155.515 L 214.245 155.511 L 214.245 155.511 Z"/>
  <path fill="#F10000" d="M 232.454 150.216 C 232.454 139.403 240.76 132.417 250.162 132.417 C 260.385 132.417 267.915 140.357 267.915 149.941 C 267.915 159.525 260.43 167.464 250.116 167.464 C 239.756 167.464 232.454 159.296 232.454 150.261 L 232.454 150.216 L 232.454 150.216 Z M 239.254 149.943 C 239.254 156.105 243.681 161.49 250.254 161.49 C 257.1 161.49 261.116 155.556 261.116 149.99 C 261.116 144.332 257.1 138.396 250.208 138.396 C 243.454 138.396 239.254 143.963 239.254 149.898 L 239.254 149.943 Z"/>
  <path fill="#F10000" d="M 287.996 133.059 L 294.795 133.059 L 294.795 160.852 L 305.885 160.852 L 305.885 166.831 L 287.996 166.831 L 287.996 133.059 Z"/>
  <path fill="#F10000" d="M 322.606 150.216 C 322.606 139.403 330.912 132.417 340.313 132.417 C 350.537 132.417 358.067 140.357 358.067 149.941 C 358.067 159.525 350.582 167.464 340.268 167.464 C 329.91 167.464 322.606 159.296 322.606 150.261 L 322.606 150.216 Z M 329.406 149.943 C 329.406 156.105 333.834 161.49 340.404 161.49 C 347.25 161.49 351.266 155.556 351.266 149.99 C 351.266 144.332 347.249 138.396 340.359 138.396 C 333.605 138.396 329.406 143.963 329.406 149.898 L 329.406 149.943 L 329.406 149.943 Z"/>
  <path d="M 475.574 117.139 L 482.506 117.139 L 456.635 92.171 L 480.418 67.341 L 474.363 67.341 L 448.258 94.339 L 448.258 87.943 L 448.258 67.342 L 442.74 67.342 L 442.74 117.139 L 448.258 117.139 L 448.258 100.911 L 453.338 95.605 L 475.574 117.139 Z" style="fill: rgb(153, 153, 153);"/>
  <path fill="#F10000" d="M 385.808 133.059 C 389.607 133.155 392.964 133.35 395.984 135.88 C 396.762 136.516 397.494 137.341 398.029 138.169 C 399.588 140.557 399.733 143.232 399.733 144.159 C 399.733 144.984 399.636 147.273 398.371 149.368 C 398.029 149.9 397.592 150.632 396.569 151.556 C 395.449 152.532 394.281 153.066 393.841 153.26 C 393.013 153.601 392.187 153.845 390.385 154.234 L 400.318 167.427 L 392.673 167.427 L 383.13 154.429 L 383.13 167.427 L 376.266 167.427 L 376.266 133.056 L 385.808 133.059 L 385.808 133.059 Z M 383.13 149.369 L 386.538 149.369 C 386.929 149.369 387.267 149.369 387.659 149.32 C 388.388 149.32 390.823 149.222 392.43 147.275 C 392.818 146.787 393.501 145.765 393.501 144.109 C 393.501 143.574 393.452 142.258 392.575 141.045 C 391.064 138.998 388.727 138.805 386.389 138.754 L 383.127 138.754 L 383.127 149.369 L 383.13 149.369 Z"/>
  <path fill="none" d="M 302.794 120.945 C 291.956 99.391 281.148 77.895 270.333 56.383 C 270.393 56.341 270.441 56.3 270.496 56.273 C 273.193 54.893 275.891 53.513 278.587 52.135 C 282.399 50.189 286.212 48.252 290.02 46.296 C 294.023 44.24 298.23 43.003 302.771 43.15 C 305.862 43.25 308.696 44.149 311.182 46.045 C 313.376 47.719 314.929 49.893 316.119 52.351 C 317.248 54.683 318.053 57.11 318.098 59.728 C 318.161 63.364 317.062 66.652 315.113 69.705 C 313.807 71.747 312.317 73.626 310.569 75.289 C 309.365 76.435 308.078 77.493 306.83 78.588 C 302.261 75.347 297.789 72.178 293.299 68.995 C 294.152 65.882 294.992 62.797 295.838 59.704 C 300.199 59.704 304.5 59.704 308.778 59.704 C 308.778 56.427 308.778 53.177 308.778 49.881 C 302.096 49.945 295.488 50.008 288.881 50.074 C 286.474 56.875 284.078 63.639 281.681 70.416 C 289.416 76.814 297.125 83.19 304.84 89.573 C 307.906 88.404 310.815 86.964 313.553 85.186 C 317.916 82.351 321.553 78.79 324.224 74.305 C 326.705 70.136 327.952 65.595 328.02 60.746 C 328.062 57.741 327.606 54.803 326.722 51.923 C 325.549 48.107 323.735 44.653 320.967 41.758 C 315.778 36.325 309.414 33.405 301.886 33.137 C 297.436 32.979 293.226 33.984 289.254 35.979 C 287.465 36.879 285.713 37.851 283.913 38.723 C 279.903 40.662 275.873 42.56 271.851 44.471 C 268.304 46.157 264.756 47.837 261.209 49.518 C 260.01 50.087 258.81 50.658 257.609 51.228 C 269.655 75.789 281.687 100.321 293.713 124.853 C 296.762 123.541 299.748 122.255 302.794 120.945 Z"/>
  <path fill="#F10000" d="M 302.794 120.945 C 299.747 122.256 296.762 123.541 293.708 124.853 C 281.683 100.324 269.649 75.79 257.604 51.229 C 258.805 50.659 260.004 50.088 261.204 49.519 C 264.751 47.837 268.299 46.157 271.846 44.472 C 275.868 42.561 279.898 40.663 283.908 38.724 C 285.708 37.852 287.46 36.88 289.249 35.98 C 293.221 33.984 297.431 32.98 301.88 33.138 C 309.409 33.406 315.773 36.326 320.962 41.759 C 323.73 44.654 325.544 48.107 326.716 51.924 C 327.601 54.803 328.057 57.742 328.015 60.747 C 327.947 65.596 326.702 70.137 324.219 74.306 C 321.546 78.79 317.911 82.351 313.546 85.187 C 310.81 86.963 307.901 88.404 304.835 89.573 C 297.12 83.191 289.411 76.815 281.676 70.417 C 284.073 63.64 286.469 56.876 288.876 50.075 C 295.483 50.01 302.094 49.946 308.773 49.882 C 308.773 53.178 308.773 56.428 308.773 59.705 C 304.495 59.705 300.194 59.705 295.833 59.705 C 294.987 62.798 294.145 65.883 293.294 68.996 C 297.784 72.179 302.255 75.348 306.825 78.589 C 308.073 77.494 309.36 76.436 310.564 75.29 C 312.312 73.627 313.802 71.748 315.107 69.706 C 317.057 66.653 318.157 63.365 318.093 59.729 C 318.045 57.111 317.242 54.684 316.114 52.352 C 314.926 49.894 313.372 47.72 311.177 46.046 C 308.691 44.15 305.857 43.252 302.766 43.151 C 298.225 43.004 294.018 44.24 290.015 46.297 C 286.209 48.253 282.394 50.19 278.582 52.136 C 275.885 53.514 273.187 54.894 270.491 56.274 C 270.436 56.302 270.387 56.343 270.328 56.384 C 281.149 77.895 291.957 99.391 302.794 120.945 Z"/>
  <path fill="#F10000" d="M 310.439 26.526 C 308.277 26.081 306.175 25.647 304.016 25.202 C 305.273 16.807 306.53 8.414 307.79 0 C 311.725 0.574 315.622 1.145 319.581 1.724 C 316.526 10.012 313.488 18.253 310.439 26.526 Z"/>
  <path fill="#07B8F9" d="M 345.539 19.679 C 347.627 23.06 349.686 26.399 351.78 29.791 C 344.961 34.013 338.145 38.231 331.308 42.462 C 329.874 40.322 328.468 38.221 327.03 36.071 C 333.195 30.612 339.347 25.163 345.539 19.679 Z"/>
  <path fill="#069211" d="M 329.069 6.482 C 332.086 8.567 335.048 10.616 338.023 12.672 C 332.646 19.084 327.285 25.477 321.887 31.911 C 319.999 30.746 318.128 29.592 316.204 28.404 C 320.475 21.129 324.753 13.837 329.069 6.482 Z"/>
  <g>
    <path d="M412.074,158.443h-1.98v-1.621h5.791v1.621h-1.967v7.535h-1.844V158.443L412.074,158.443z"/>
    <path d="M416.851,165.979v-9.156h2.486l2.354,6.57l2.313-6.57h2.5v9.156h-1.709l0.051-7.338l-2.563,7.338h-1.213l-2.574-7.338&#10;&#9;&#9;&#9;l0.051,7.338H416.851z"/>
  </g>
</svg>