<?xml version="1.0" encoding="UTF-8" standalone="no"?><!DOCTYPE svg PUBLIC "-//W3C//DTD SVG 1.1//EN" "http://www.w3.org/Graphics/SVG/1.1/DTD/svg11.dtd"><svg width="100%" height="100%" viewBox="0 0 2363 698" version="1.1" xmlns="http://www.w3.org/2000/svg" xmlns:xlink="http://www.w3.org/1999/xlink" xml:space="preserve" xmlns:serif="http://www.serif.com/" style="fill-rule:evenodd;clip-rule:evenodd;stroke-linejoin:round;stroke-miterlimit:2;"><g><g><path d="M141.583,453.871l-0.283,-173.279l22.433,0l0,207.487l-22.433,0l-119.429,-174.683l0.562,174.683l-22.433,0l0,-207.487l23.55,0l118.033,173.279Z" style="fill:#fff;fill-rule:nonzero;"/><path d="M188.792,280.592l110.079,0l0,20.466l-87.092,0l0,72.059l86.529,0l0,20.466l-86.529,0l0,74.03l87.092,0l0,20.466l-110.079,0l0,-207.487Z" style="fill:#fff;fill-rule:nonzero;"/><path d="M309.342,384.896c0,-63.921 49.629,-107.95 108.233,-107.95c60.842,0 108.229,46.546 108.229,107.387c0,60.85 -47.104,107.388 -108.229,107.388c-61.408,0 -108.233,-47.388 -108.233,-106.55l0,-0.275Zm23.271,-0.563c0,48.788 36.729,86.921 85.241,86.921c49.067,0 84.959,-39.525 84.959,-86.921c0,-47.387 -35.888,-86.921 -85.238,-86.921c-48.788,0 -84.962,38.692 -84.962,86.634l0,0.287Z" style="fill:#fff;fill-rule:nonzero;"/><path d="M717.333,334.425c-6.45,-8.971 -14.304,-16.542 -23.275,-22.429c-13.458,-9.254 -29.721,-14.583 -48.225,-14.583c-45.425,0 -84.958,34.766 -84.958,86.633c0,52.717 39.817,87.483 85.237,87.483c21.871,0 41.217,-7.562 55.517,-18.783c14.583,-11.5 24.675,-27.196 28.042,-43.467l-112.934,0l0,-19.066l139.85,0c-0.279,12.062 -3.083,27.195 -9.254,40.1c-17.946,38.975 -59.446,61.683 -101.221,61.683c-60.562,0 -108.508,-46.542 -108.508,-107.95c0,-62.242 48.788,-107.108 108.788,-107.108c42.058,0 81.033,23.554 97.295,57.479l-26.354,0l0,0.008Z" style="fill:#fff;fill-rule:nonzero;"/><path d="M767.708,280.592l114.959,0l0,20.466l-91.963,0l0,72.059l91.404,0l0,20.466l-91.404,0l0,74.03l91.963,0l0,20.466l-114.959,0l0,-207.487Z" style="fill:#fff;fill-rule:nonzero;"/><path d="M891.921,384.896c0,-63.921 49.629,-107.95 108.229,-107.95c60.846,0 108.229,46.546 108.229,107.387c0,60.85 -47.104,107.388 -108.229,107.388c-61.404,0 -108.229,-47.388 -108.229,-106.55l0,-0.275Zm23.271,-0.563c0,48.788 36.729,86.921 85.237,86.921c49.071,0 84.959,-39.525 84.959,-86.921c0,-47.387 -35.888,-86.921 -85.238,-86.921c-48.787,0 -84.958,38.692 -84.958,86.634l0,0.287Z" style="fill:#fff;fill-rule:nonzero;"/></g><g><path d="M1364.44,384.896c0,-63.921 49.625,-107.95 108.233,-107.95c60.846,0 108.233,46.546 108.233,107.387c0,60.85 -47.104,107.388 -108.233,107.388c-61.404,0 -108.233,-47.388 -108.233,-106.55l0,-0.275Zm23.266,-0.563c0,48.788 36.734,86.921 85.246,86.921c49.071,0 84.963,-39.525 84.963,-86.921c0,-47.387 -35.888,-86.921 -85.242,-86.921c-48.783,0 -84.967,38.692 -84.967,86.634l0,0.287Z" style="fill:#fff;fill-rule:nonzero;"/><path d="M1812.5,432.283c-13.454,31.967 -49.625,59.45 -95.329,59.45c-61.4,0 -108.233,-47.387 -108.233,-107.383c0,-59.167 45.708,-107.392 107.941,-107.392c51.304,0 83.559,34.209 95.609,60.563l-24.959,0c-7.016,-12.333 -30.558,-40.096 -70.65,-40.096c-48.508,0 -84.958,38.412 -84.958,86.637c0,49.071 36.721,87.205 84.958,87.205c43.471,0 65.604,-31.125 70.65,-38.975l24.971,-0.009Z" style="fill:#fff;fill-rule:nonzero;"/><path d="M2040.18,280.592l114.967,0l0,20.466l-91.967,0l0,72.059l91.4,0l0,20.466l-91.4,0l0,74.03l91.967,0l0,20.466l-114.967,0l0,-207.487Z" style="fill:#fff;fill-rule:nonzero;"/><path d="M2271.78,301.058l-66.862,0l0,-20.466l157.275,0l0,20.466l-67.138,0l0,187.021l-23.275,0l0,-187.021Z" style="fill:#fff;fill-rule:nonzero;"/></g><path d="M892.688,647.963c-8.555,29.091 -35.938,49.82 -68.838,49.82c-42.975,0 -73.779,-34.041 -73.779,-73.204c0,-37.458 29.091,-72.829 73.592,-72.829c40.504,0.196 63.512,30.046 69.025,50.592l-29.855,0c-4.37,-9.7 -16.92,-25.479 -39.362,-25.675c-27.383,0 -45.067,23.004 -45.067,47.916c0,25.675 18.446,48.309 45.259,48.309c25.1,0 36.512,-19.775 39.17,-24.913l29.855,-0.017Z" style="fill:#f10000;fill-rule:nonzero;"/><path d="M968.558,625.9c0,-45.054 34.609,-74.162 73.784,-74.162c42.595,0 73.971,33.083 73.971,73.016c0,39.934 -31.188,73.013 -74.163,73.013c-43.167,0 -73.592,-34.034 -73.592,-71.679l0,-0.188Zm28.334,-1.137c0,25.675 18.445,48.112 45.833,48.112c28.525,0 45.258,-24.725 45.258,-47.917c0,-23.575 -16.733,-48.308 -45.45,-48.308c-28.141,0 -45.641,23.196 -45.641,47.925l0,0.188Z" style="fill:#f10000;fill-rule:nonzero;"/><path d="M1199.98,554.413l28.33,0l0,115.804l46.208,0l0,24.912l-74.538,0l0,-140.717Z" style="fill:#f10000;fill-rule:nonzero;"/><path d="M1344.19,625.9c0,-45.054 34.608,-74.162 73.779,-74.162c42.6,0 73.975,33.083 73.975,73.016c0,39.934 -31.188,73.013 -74.163,73.013c-43.158,0 -73.591,-34.034 -73.591,-71.679l0,-0.188Zm28.333,-1.137c0,25.675 18.45,48.112 45.825,48.112c28.525,0 45.258,-24.725 45.258,-47.917c0,-23.575 -16.737,-48.308 -45.445,-48.308c-28.142,0 -45.638,23.196 -45.638,47.925l0,0.188Z" style="fill:#f10000;fill-rule:nonzero;"/><path d="M1981.56,488.079l28.884,0l-107.796,-104.033l99.096,-103.459l-25.229,0l-108.771,112.492l0,-112.487l-22.992,0l0,207.487l22.992,0l0,-67.616l21.166,-22.109l92.65,89.725Z" style="fill:#fff;fill-rule:nonzero;"/><path d="M1607.53,554.413c15.829,0.399 29.817,1.212 42.4,11.754c3.242,2.65 6.292,6.087 8.521,9.537c6.496,9.95 7.1,21.096 7.1,24.958c0,3.438 -0.404,12.976 -5.675,21.705c-1.425,2.216 -3.246,5.266 -7.508,9.116c-4.667,4.067 -9.534,6.292 -11.367,7.1c-3.45,1.421 -6.892,2.438 -14.4,4.059l41.388,54.971l-31.855,0l-39.762,-54.159l0,54.159l-28.6,0l0,-143.213l39.758,0.012Zm-11.17,67.959l14.212,0c1.629,0 3.038,0 4.671,-0.204c3.037,0 13.183,-0.409 19.879,-8.521c1.617,-2.034 4.463,-6.292 4.463,-13.192c0,-2.229 -0.205,-7.712 -3.859,-12.767c-6.296,-8.529 -16.033,-9.333 -25.775,-9.545l-13.591,0l0,44.229Z" style="fill:#f10000;fill-rule:nonzero;"/><path d="M1261.64,503.938c-45.159,-89.809 -90.192,-179.375 -135.255,-269.009c0.25,-0.175 0.45,-0.346 0.68,-0.458c11.237,-5.75 22.479,-11.5 33.712,-17.242c15.883,-8.108 31.771,-16.179 47.638,-24.329c16.679,-8.567 34.208,-13.721 53.129,-13.108c12.879,0.416 24.687,4.162 35.046,12.062c9.141,6.975 15.612,16.034 20.57,26.275c4.705,9.717 8.059,19.829 8.246,30.738c0.263,15.15 -4.316,28.85 -12.437,41.571c-5.442,8.508 -11.65,16.337 -18.934,23.266c-5.016,4.775 -10.379,9.183 -15.579,13.746c-19.037,-13.504 -37.671,-26.708 -56.379,-39.971c3.554,-12.971 7.054,-25.825 10.579,-38.712l53.917,0l0,-40.929c-27.842,0.266 -55.375,0.529 -82.904,0.804c-10.029,28.337 -20.013,56.521 -30,84.758c32.229,26.658 64.35,53.225 96.496,79.821c12.775,-4.871 24.895,-10.871 36.304,-18.279c18.179,-11.813 33.333,-26.65 44.462,-45.338c10.338,-17.371 15.534,-36.291 15.817,-56.496c0.175,-12.52 -1.725,-24.762 -5.408,-36.762c-4.888,-15.9 -12.446,-30.292 -23.98,-42.354c-21.62,-22.638 -48.137,-34.804 -79.504,-35.921c-18.541,-0.659 -36.083,3.529 -52.633,11.841c-7.454,3.75 -14.754,7.8 -22.254,11.434c-16.709,8.079 -33.5,15.987 -50.259,23.95c-14.779,7.025 -29.562,14.025 -44.341,21.029c-4.996,2.371 -9.996,4.75 -15,7.125c50.191,102.338 100.325,204.554 150.433,306.771c12.704,-5.467 25.146,-10.825 37.838,-16.284Z" style="fill:none;fill-rule:nonzero;"/><path d="M1261.64,503.938c-12.696,5.462 -25.134,10.816 -37.859,16.283c-50.104,-102.204 -100.246,-204.429 -150.433,-306.767c5.004,-2.375 10,-4.754 15,-7.125c14.779,-7.008 29.563,-14.008 44.342,-21.029c16.758,-7.963 33.55,-15.871 50.258,-23.95c7.5,-3.633 14.8,-7.683 22.254,-11.433c16.55,-8.317 34.092,-12.5 52.629,-11.842c31.371,1.117 57.888,13.283 79.509,35.921c11.533,12.062 19.091,26.45 23.975,42.354c3.687,11.996 5.587,24.242 5.412,36.763c-0.283,20.204 -5.471,39.124 -15.816,56.495c-11.138,18.684 -26.284,33.521 -44.471,45.338c-11.4,7.4 -23.521,13.404 -36.296,18.275c-32.146,-26.592 -64.267,-53.159 -96.496,-79.817c9.988,-28.237 19.971,-56.421 30,-84.758c27.529,-0.271 55.075,-0.538 82.904,-0.804l0,40.929l-53.916,0c-3.525,12.887 -7.034,25.741 -10.58,38.712c18.709,13.263 37.338,26.467 56.38,39.971c5.199,-4.562 10.562,-8.971 15.579,-13.746c7.283,-6.929 13.491,-14.758 18.929,-23.266c8.125,-12.721 12.708,-26.421 12.441,-41.571c-0.2,-10.909 -3.545,-21.021 -8.245,-30.738c-4.95,-10.241 -11.425,-19.3 -20.571,-26.275c-10.359,-7.9 -22.167,-11.641 -35.046,-12.062c-18.921,-0.613 -36.45,4.537 -53.129,13.108c-15.859,8.15 -31.754,16.221 -47.638,24.329c-11.237,5.742 -22.479,11.492 -33.712,17.242c-0.229,0.117 -0.434,0.287 -0.679,0.458c45.087,89.629 90.12,179.196 135.275,269.004Z" style="fill:#f10000;fill-rule:nonzero;"/><path d="M1293.5,110.525c-9.008,-1.854 -17.767,-3.663 -26.763,-5.517c5.238,-34.979 10.475,-69.95 15.725,-105.008c16.396,2.392 32.634,4.771 49.13,7.183c-12.73,34.534 -25.388,68.871 -38.092,103.342Z" style="fill:#f10000;fill-rule:nonzero;"/><path d="M1439.75,81.996c8.7,14.087 17.279,28 26.004,42.133c-28.413,17.592 -56.813,35.167 -85.3,52.796c-5.975,-8.917 -11.833,-17.671 -17.825,-26.629c25.688,-22.746 51.321,-45.45 77.121,-68.3Z" style="fill:#07b8f9;fill-rule:nonzero;"/><path d="M1371.12,27.008c12.571,8.688 24.912,17.225 37.308,25.792c-22.404,26.717 -44.741,53.354 -67.233,80.163c-7.867,-4.855 -15.663,-9.663 -23.679,-14.613c17.796,-30.312 35.62,-60.696 53.604,-91.342Z" style="fill:#069211;fill-rule:nonzero;"/><g><path d="M1716.98,660.179l-8.25,0l0,-6.754l24.129,0l0,6.754l-8.196,0l0,31.396l-7.683,0l0,-31.396Z" style="fill:#fff;fill-rule:nonzero;"/><path d="M1736.88,691.579l0,-38.15l10.359,0l9.808,27.375l9.637,-27.375l10.417,0l0,38.15l-7.121,0l0.213,-30.575l-10.679,30.575l-5.055,0l-10.725,-30.575l0.213,30.575l-7.067,0Z" style="fill:#fff;fill-rule:nonzero;"/></g></g></svg>