<?xml version="1.0" encoding="UTF-8" standalone="no"?><!DOCTYPE svg PUBLIC "-//W3C//DTD SVG 1.1//EN" "http://www.w3.org/Graphics/SVG/1.1/DTD/svg11.dtd"><svg width="100%" height="100%" viewBox="0 0 2363 518" version="1.1" xmlns="http://www.w3.org/2000/svg" xmlns:xlink="http://www.w3.org/1999/xlink" xml:space="preserve" xmlns:serif="http://www.serif.com/" style="fill-rule:evenodd;clip-rule:evenodd;stroke-linejoin:round;stroke-miterlimit:2;"><g><g><g id="Layer_6"><path d="M121.867,413.013l-4.7,-3.505" style="fill:none;fill-rule:nonzero;"/></g><g id="_x33_D_PART"><path d="M372.712,260.158l0,84.042l-148.966,85.9l-147.821,-85.9l-6.642,4.512l154.463,90.567l155.692,-90.012l0,-92.996l-6.726,3.887Z" style="fill:url(#_Linear1);fill-rule:nonzero;"/></g><g id="black_line_thing"><path d="M372.712,343.833l6.726,4.855l0,0.579l-0.425,0.316l-6.896,-5.041l0.596,-0.342l0,-0.367Z" style="fill:#7a7eae;fill-rule:nonzero;"/></g><g id="dark_purple_top_line"><path d="M225.017,259.188l-104.959,-61.459l-1.658,1.659l105.346,62.491l1.271,-2.691Z" style="fill:url(#_Linear2);fill-rule:nonzero;"/><path d="M224.675,259.188l0.771,0l0.137,0.866l-1.362,0l0.454,-0.866Z" style="fill:url(#_Linear3);fill-rule:nonzero;"/></g><g id="top_black_line"><path d="M225.017,261.879l0,-2.692l223.429,-129.162l0.658,1.838l-224.087,130.016Z" style="fill:#120f22;fill-rule:nonzero;"/></g><g id="LOGO_DARK_LINES"><path d="M225.017,517.625l1.496,-77.087l155.079,-89.371l0.575,-95.7l-2.729,0l0,93.8l-155.692,90.012l-0.558,78.346l1.829,0Z" style="fill:#453d76;fill-rule:nonzero;"/></g><g id="LOGO"><path d="M225.017,380.05l0,-118.171l224.087,-130.017l0,256.459l-224.087,129.304l0,-77.738l155.654,-89.629l0,-94.708l-52.129,30.142l0,33.454l-103.525,60.904Z" style="fill:url(#_Linear4);fill-rule:nonzero;"/></g><g id="BOTTOM_LAIN_LEFT_LIGHT_LINE"><path d="M222.508,517.625l1.238,0l0,-78.346l-4.404,-2.587l3.166,80.933" style="fill:url(#_Linear5);fill-rule:nonzero;"/></g><g id="underneath"><path d="M68.925,169.596l0.954,0.808l0.379,177.646l-0.975,0.663l-0.591,-0.375l0.233,-178.742" style="fill:#2d2868;fill-rule:nonzero;"/></g><g id="LEFT_3D_PURPLE_SHADOW"><path d="M75.925,344.2l-6.642,4.513l0,-178.9l155.734,-89.921l0,8.858l-148.934,86.196l-0.158,169.254Z" style="fill:#453d76;fill-rule:nonzero;"/></g><g id="MAIN_DARK_PURPLE_LINE"><path d="M225.017,258.725l0,121.325l-1.271,0.854l0,-122.454l1.271,0.275Z" style="fill:#453d76;fill-rule:nonzero;"/></g><g id="logo_LEFT_side"><path d="M118.4,199.388l0,120.62l105.346,60.896l0,-119.025l-105.346,-62.492Z" style="fill:url(#_Linear6);fill-rule:nonzero;"/><path d="M222.508,517.625l0,-79.079l-153.225,-89.833l0,-178.03l-69.283,-40.658l0,258.733l222.508,128.867Z" style="fill:url(#_Linear7);fill-rule:nonzero;"/></g><g id="left_purple_line"><rect x="68.096" y="169.813" width="1.188" height="178.908" style="fill:#2d2868;"/><path d="M69.283,169.813l-68.391,-40.68l-0.892,0.892l68.692,40.379l0.591,-0.591Z" style="fill:#2d2868;fill-rule:nonzero;"/></g><g id="BOTTOM_PURPLE_LINE"><path d="M222.508,438.546l0,1.466l-154.412,-89.95l0,-1.349l1.187,0l153.225,89.833Z" style="fill:url(#_Linear8);fill-rule:nonzero;"/></g><g id="top_middle_light_line"><path d="M225.017,79.892l99.571,58.2l0,8.704l-99.571,-58.046l0,-8.858Z" style="fill:url(#_Linear9);fill-rule:nonzero;"/></g><g id="top_right"><path d="M324.588,138.092l0,8.704l68.97,-40.446l0,-8.217l-68.97,39.959Z" style="fill:#484592;fill-rule:nonzero;"/></g><g id="MAIN_TOP"><path d="M224.304,0l169.254,98.133l-68.97,39.959l-99.571,-58.2l-155.734,89.921l-68.391,-40.68l223.412,-129.133Z" style="fill:url(#_Linear10);fill-rule:nonzero;"/><path d="M120.058,197.729l103.609,-58.525l98.704,55.717l120.262,-69.121l5.813,4.225l-223.429,129.162l-104.959,-61.458Z" style="fill:url(#_Linear11);fill-rule:nonzero;"/></g></g><g><path id="path23497" d="M1556.33,88.158l0,-20.62l-58.929,0c-7.566,0 -14.721,1.683 -21.058,4.625c-6.304,2.958 -11.359,7.158 -15.142,12.216c-3.783,5.038 -5.475,10.538 -5.9,16.834l0,63.55c0.417,5.904 2.117,11.37 5.471,16.433c3.8,5.042 8.838,8.817 14.737,12.183c6.317,2.959 13.03,4.646 21.055,4.646l59.75,0l0,-20.621l-57.246,0c-4.625,0 -8.825,-1.275 -12.592,-3.796c-3.396,-2.516 -5.491,-5.466 -5.491,-9.662l0,-23.571l75.341,0l0,-21.054l-75.341,0l0,-17.258c0,-4.221 2.095,-7.571 5.491,-10.113c3.767,-2.525 7.967,-3.792 12.592,-3.792l57.246,0" style="fill:#fff;fill-rule:nonzero;"/><path id="path23501" d="M1908.13,67.542l0,130.487l62.925,0c7.984,-0.408 15.105,-1.687 21.413,-4.612c6.704,-3.35 11.742,-7.134 15.512,-12.171c3.784,-5.013 5.446,-10.896 5.867,-17.196l0,-62.942c-0.425,-6.279 -2.083,-11.754 -5.867,-16.783c-3.766,-5.033 -8.795,-9.221 -15.512,-12.171c-6.308,-2.937 -13.438,-4.612 -21.413,-4.612l-62.925,0Zm74.275,24.341c3.742,2.517 5.43,5.863 5.85,10.075l0,61.679c-0.433,4.192 -2.108,7.55 -5.85,10.067c-3.37,2.929 -7.583,4.188 -12.2,4.188l-36.491,0l0,-90.2l36.491,0c4.617,0 8.83,1.254 12.2,4.191" style="fill:#fff;fill-rule:nonzero;"/><path id="path23503" d="M2216.49,72.092c-6.2,-2.884 -13.217,-4.138 -21.055,-4.554l-22.72,0c-7.855,0.412 -14.859,1.666 -21.071,4.554c-6.6,3.308 -11.563,7 -15.275,11.975c-3.729,4.941 -5.788,10.733 -5.788,16.929l0,63.996c0,6.191 2.059,11.571 5.788,16.529c3.712,4.958 8.675,9.079 15.275,11.975c6.208,2.887 13.216,4.537 21.071,4.537l22.72,0c7.838,0 14.846,-1.65 21.055,-4.537c6.6,-2.892 11.554,-7.017 15.275,-11.975c3.72,-4.963 5.779,-10.738 5.779,-16.529l0,-64c-0.4,-6.196 -2.059,-11.988 -5.779,-16.929c-3.721,-4.975 -8.675,-8.667 -15.275,-11.971Zm-9.913,19.4c3.713,2.891 5.779,6.183 5.779,9.925l0,62.746c0,3.716 -2.066,7.025 -5.779,9.912c-3.304,2.488 -7.446,4.142 -11.971,4.142l-21.062,0c-4.559,0 -8.684,-1.65 -12.404,-4.142c-3.288,-2.892 -5.354,-6.196 -5.354,-9.912l-0.001,-62.746c0.001,-3.738 2.067,-7.034 5.355,-9.925c3.72,-2.484 7.845,-3.721 12.404,-4.134l21.062,0c4.53,0.421 8.667,1.655 11.971,4.134" style="fill:#fff;fill-rule:nonzero;"/><path id="path23515" d="M705.421,67.542l-25.679,0l0,83.346l-43.767,-83.346l-34.938,0l0,130.487l25.68,0l0,-101.85l53.45,101.85l25.254,0l0,-130.487" style="fill:#fff;fill-rule:nonzero;"/><path id="path23515_1_" d="M1123.8,67.542l-25.679,0l0,83.346l-43.771,-83.346l-34.938,0l0,130.487l25.68,0l0,-101.85l53.45,101.85l25.258,0l0,-130.487" style="fill:#fff;fill-rule:nonzero;"/><path id="path23515_2_" d="M1784.58,67.542l-25.675,0l0,83.346l-43.766,-83.346l-34.946,0l0,130.487l25.679,0l0,-101.85l53.45,101.85l25.258,0l0,-130.487" style="fill:#fff;fill-rule:nonzero;"/><path id="path23517" d="M877.192,198.029l0,-130.487l-29.459,0l0,130.487l29.459,0" style="fill:#fff;fill-rule:nonzero;"/><path id="path23521" d="M1237.17,67.542l0,20.621l43.338,0l0,109.87l27.795,0l0,-109.875l43.767,0l0,-20.621l-114.908,0" style="fill:#fff;fill-rule:nonzero;"/></g><g><path id="path23505" d="M2266.33,287.625l0,-35.262l-177.987,0l0,167.62l179.637,0l0,-37.758l-132.729,0l0,-31.542l76.317,0l0,-35.237l-76.317,0l0,-27.821l131.079,0" style="fill:#fff;fill-rule:nonzero;"/><path id="path23507" d="M2068.22,286.479c0.4,-11.604 -2.904,-20.737 -9.971,-26.142c-6.65,-5.808 -17,-8.708 -31.112,-8.708l-146.45,0l0,168.021l136.075,0c35.679,-0.412 53.1,-12.029 53.1,-35.675l0,-20.346c0,-14.091 -6.217,-24.458 -19.092,-30.258c11.621,-5.408 17.45,-14.529 17.45,-27.4l0,-19.492Zm-45.225,0.834c1.658,1.662 2.508,3.333 2.067,5.816l0,15.354c0.433,2.063 -0.409,4.146 -2.067,5.388l-11.646,2.062l-83.779,0l0,-30.275l83.779,0c6.259,0 10.4,0.83 11.646,1.655Zm-95.425,95.416l0,-32.779l84.213,0c6.233,0 9.97,0.838 12.037,2.083c1.675,1.671 2.483,4.159 2.483,8.305l0,12.025c0,3.737 -0.795,6.641 -2.483,7.879c-2.067,1.666 -5.804,2.487 -12.037,2.487l-84.213,0" style="fill:#fff;fill-rule:nonzero;"/><path id="path23509" d="M1860.89,251.908l-46.875,0l0,129.863l-101.65,0l0,-129.863l-46.867,0l0,126.13c-0.442,10.358 1.229,18.683 4.125,24.895c2.5,5.813 7.488,10.375 14.121,12.871c6.654,2.896 15.35,4.138 26.958,3.734l104.554,0c11.621,0.404 20.738,-0.838 27.375,-3.734c6.625,-2.496 11.205,-7.058 14.121,-12.871c2.896,-6.212 4.15,-14.529 4.15,-24.895l0,-126.13" style="fill:#fff;fill-rule:nonzero;"/><path id="path23511" d="M1642.04,269.196c-2.938,-6.204 -7.9,-10.367 -14.117,-13.275c-6.65,-2.508 -15.767,-3.742 -26.971,-3.742l-102.462,0c-11.621,0 -20.338,1.242 -26.992,3.742c-6.629,2.904 -11.608,7.066 -14.092,13.275c-2.904,6.225 -4.566,14.516 -4.137,24.892l0,84.225c-0.429,10.349 1.233,18.666 4.137,24.879c2.484,5.816 7.463,10.379 14.092,12.887c6.654,2.888 15.367,4.129 26.992,3.721l102.466,0c11.2,0.408 20.321,-0.829 26.971,-3.721c6.217,-2.508 11.184,-7.071 14.113,-12.887c2.487,-6.205 4.15,-14.521 4.15,-24.88l0,-30.712l-46.9,0.438l0,34.008l-99.555,0l0,-92.921l99.555,0l0,29.854l46.9,0l0,-24.892c0,-10.77 -1.663,-19.058 -4.15,-24.891" style="fill:#fff;fill-rule:nonzero;"/><path id="path23513" d="M1418.59,287.625l0,-35.262l-177.992,0l0,167.62l179.65,0l0,-37.758l-132.754,0l0,-31.542l76.337,0l0,-35.237l-76.337,0l0,-27.821l131.095,0" style="fill:#fff;fill-rule:nonzero;"/><path id="path23523" d="M1176.71,251.908l-71.363,118.667l-70.938,-118.667l-42.724,0l0,138.163l-83.4,-138.163l-41.9,0l-99.975,167.617l125.283,0l0,-37.754l-56.008,0l51.862,-83.388l70.117,121.134l77.162,0l0,-89.604l53.509,89.604l34.441,0l53.925,-89.604l0,89.604l43.142,0l0,-167.613l-43.142,0" style="fill:#fff;fill-rule:nonzero;"/><path id="path23525" d="M770.125,288.779l0,-36.541l-158.075,0c-11.187,0 -20.329,1.25 -26.975,3.745c-6.625,2.9 -11.192,7.075 -14.087,13.28c-2.917,6.22 -4.159,14.512 -4.159,24.895l0,84.209c0,10.358 1.242,18.679 4.159,24.895c2.9,5.813 7.466,10.375 14.087,12.88c6.642,2.883 15.788,4.129 26.975,3.729l114.933,0c16.575,0.404 28.2,-2.496 35.242,-8.713c6.646,-6.645 9.963,-17.429 9.558,-32.783l0,-59.333l-108.7,0l0,35.291l63.063,0l0,27.78l-112.438,0l0,-93.334l156.417,0" style="fill:#fff;fill-rule:nonzero;"/></g><g><path id="path23527" d="M2362.21,383.246l-7.054,0l-8.504,26.875c-1.392,2.137 -2.125,4.267 -2.125,5.675c-0.717,-1.408 -1.442,-2.842 -2.133,-4.95l-9.213,-27.608l-7.079,0l0,38.208l4.279,0l0,-32.554l11.321,32.554l4.217,0l11.337,-31.842l0,31.842l4.954,0l0,-38.2" style="fill:#fff;fill-rule:nonzero;"/><path id="path23529" d="M2308.4,388.196l12.054,0l0,-4.95l-29.746,0l0,4.95l12.763,0l0,33.258l4.942,0l0,-33.258" style="fill:#fff;fill-rule:nonzero;"/></g></g><defs><linearGradient id="_Linear1" x1="0" y1="0" x2="1" y2="0" gradientUnits="userSpaceOnUse" gradientTransform="matrix(334.703,-55.6783,55.6783,334.703,101.707,381.025)"><stop offset="0" style="stop-color:#fff;stop-opacity:1"/><stop offset="0.04" style="stop-color:#fff;stop-opacity:1"/><stop offset="0.9" style="stop-color:#898cbf;stop-opacity:1"/><stop offset="1" style="stop-color:#898cbf;stop-opacity:1"/></linearGradient><linearGradient id="_Linear2" x1="0" y1="0" x2="1" y2="0" gradientUnits="userSpaceOnUse" gradientTransform="matrix(106.616,0,0,106.616,118.4,229.804)"><stop offset="0" style="stop-color:#6e70a9;stop-opacity:1"/><stop offset="0.97" style="stop-color:#514a8e;stop-opacity:1"/><stop offset="1" style="stop-color:#514a8e;stop-opacity:1"/></linearGradient><linearGradient id="_Linear3" x1="0" y1="0" x2="1" y2="0" gradientUnits="userSpaceOnUse" gradientTransform="matrix(1.365,0,0,1.365,224.219,259.62)"><stop offset="0" style="stop-color:#6e70a9;stop-opacity:1"/><stop offset="0.97" style="stop-color:#514a8e;stop-opacity:1"/><stop offset="1" style="stop-color:#514a8e;stop-opacity:1"/></linearGradient><linearGradient id="_Linear4" x1="0" y1="0" x2="1" y2="0" gradientUnits="userSpaceOnUse" gradientTransform="matrix(186.007,122.107,-122.107,186.007,266.998,278.75)"><stop offset="0" style="stop-color:#4c5284;stop-opacity:1"/><stop offset="1" style="stop-color:#8789bc;stop-opacity:1"/></linearGradient><linearGradient id="_Linear5" x1="0" y1="0" x2="1" y2="0" gradientUnits="userSpaceOnUse" gradientTransform="matrix(-1.29583,-82.9304,82.9304,-1.29583,222.746,514.887)"><stop offset="0" style="stop-color:#4c407e;stop-opacity:1"/><stop offset="0.11" style="stop-color:#4c407e;stop-opacity:1"/><stop offset="0.89" style="stop-color:#669;stop-opacity:1"/><stop offset="1" style="stop-color:#a7b3d9;stop-opacity:1"/><stop offset="1" style="stop-color:#9ba5cd;stop-opacity:1"/></linearGradient><linearGradient id="_Linear6" x1="0" y1="0" x2="1" y2="0" gradientUnits="userSpaceOnUse" gradientTransform="matrix(255.009,-70.8712,70.8712,255.009,20.0783,332.112)"><stop offset="0" style="stop-color:#669;stop-opacity:1"/><stop offset="0.23" style="stop-color:#669;stop-opacity:1"/><stop offset="0.72" style="stop-color:#a7b3d9;stop-opacity:1"/><stop offset="1" style="stop-color:#a7b3d9;stop-opacity:1"/></linearGradient><linearGradient id="_Linear7" x1="0" y1="0" x2="1" y2="0" gradientUnits="userSpaceOnUse" gradientTransform="matrix(254.991,-70.8663,70.8663,254.991,24.4892,347.94)"><stop offset="0" style="stop-color:#669;stop-opacity:1"/><stop offset="0.23" style="stop-color:#669;stop-opacity:1"/><stop offset="0.99" style="stop-color:#a7b3d9;stop-opacity:1"/><stop offset="1" style="stop-color:#a7b3d9;stop-opacity:1"/></linearGradient><linearGradient id="_Linear8" x1="0" y1="0" x2="1" y2="0" gradientUnits="userSpaceOnUse" gradientTransform="matrix(101.395,54.2567,-54.2567,101.395,81.5875,359.952)"><stop offset="0" style="stop-color:#6e70a9;stop-opacity:1"/><stop offset="0.97" style="stop-color:#514a8e;stop-opacity:1"/><stop offset="1" style="stop-color:#514a8e;stop-opacity:1"/></linearGradient><linearGradient id="_Linear9" x1="0" y1="0" x2="1" y2="0" gradientUnits="userSpaceOnUse" gradientTransform="matrix(64.3767,31.3187,-31.3187,64.3767,232.208,92.6179)"><stop offset="0" style="stop-color:#9ea5d3;stop-opacity:1"/><stop offset="0.04" style="stop-color:#9ea5d3;stop-opacity:1"/><stop offset="0.9" style="stop-color:#7675ae;stop-opacity:1"/><stop offset="1" style="stop-color:#7675ae;stop-opacity:1"/></linearGradient><linearGradient id="_Linear10" x1="0" y1="0" x2="1" y2="0" gradientUnits="userSpaceOnUse" gradientTransform="matrix(-15.1854,168.729,-168.729,-15.1854,205.753,18.8383)"><stop offset="0" style="stop-color:#aaacd2;stop-opacity:1"/><stop offset="0.63" style="stop-color:#fcfafb;stop-opacity:1"/><stop offset="1" style="stop-color:#fcfafb;stop-opacity:1"/></linearGradient><linearGradient id="_Linear11" x1="0" y1="0" x2="1" y2="0" gradientUnits="userSpaceOnUse" gradientTransform="matrix(-15.1858,168.733,-168.733,-15.1858,299.062,-0.668333)"><stop offset="0" style="stop-color:#aaacd2;stop-opacity:1"/><stop offset="0.67" style="stop-color:#aaacd2;stop-opacity:1"/><stop offset="1" style="stop-color:#fcfafb;stop-opacity:1"/></linearGradient></defs></svg>