<?xml version="1.0" encoding="UTF-8" standalone="no"?>
<!-- Created with Inkscape (http://www.inkscape.org/) -->

<svg
   xmlns:dc="http://purl.org/dc/elements/1.1/"
   xmlns:cc="http://creativecommons.org/ns#"
   xmlns:rdf="http://www.w3.org/1999/02/22-rdf-syntax-ns#"
   xmlns:svg="http://www.w3.org/2000/svg"
   xmlns="http://www.w3.org/2000/svg"
   xmlns:sodipodi="http://sodipodi.sourceforge.net/DTD/sodipodi-0.dtd"
   xmlns:inkscape="http://www.inkscape.org/namespaces/inkscape"
   id="svg3336"
   version="1.1"
   inkscape:version="0.91 r13725"
   width="1920"
   height="1080"
   viewBox="0 0 1920 1080"
   sodipodi:docname="3do_wire.svg">
  <metadata
     id="metadata3342">
    <rdf:RDF>
      <cc:Work
         rdf:about="">
        <dc:format>image/svg+xml</dc:format>
        <dc:type
           rdf:resource="http://purl.org/dc/dcmitype/StillImage" />
        <dc:title></dc:title>
      </cc:Work>
    </rdf:RDF>
  </metadata>
  <defs
     id="defs3340" />
  <sodipodi:namedview
     pagecolor="#ffffff"
     bordercolor="#666666"
     borderopacity="1"
     objecttolerance="10"
     gridtolerance="10"
     guidetolerance="10"
     inkscape:pageopacity="0"
     inkscape:pageshadow="2"
     inkscape:window-width="1920"
     inkscape:window-height="1178"
     id="namedview3338"
     showgrid="false"
     inkscape:zoom="0.90648148"
     inkscape:cx="793.42186"
     inkscape:cy="540"
     inkscape:window-x="-8"
     inkscape:window-y="-8"
     inkscape:window-maximized="1"
     inkscape:current-layer="svg3336" />
  <path
     style="fill:#000000;stroke:#ffffff;stroke-opacity:1;fill-opacity:0"
     d="m 1021.7145,1021.2122 c -2.2,-0.1704 -9.5911,-1.4801 -16.4247,-2.9105 -26.08889,-5.4607 -48.2864,-17.5864 -60.04216,-32.79869 -3.2422,-4.1955 -6.0385,-8.0579 -6.21402,-8.5831 -0.17551,-0.5252 -14.26911,-5.2575 -31.31911,-10.51633 -17.05,-5.25881 -46.3,-14.30396 -65,-20.10035 -18.7,-5.79638 -39.85,-12.32507 -47,-14.50818 -7.15,-2.18312 -20.65,-6.37704 -30,-9.31983 -9.35,-2.94279 -28.025,-8.72614 -41.5,-12.85188 -13.475,-4.12574 -33.95,-10.43477 -45.5,-14.02008 -11.55,-3.58531 -27.075,-8.39203 -34.5,-10.6816 -7.425,-2.28957 -26.325,-8.13711 -42,-12.99453 -37.8981,-11.74399 -69.01734,-21.33843 -77,-23.74004 -3.575,-1.07555 -18.875,-5.81062 -34,-10.52238 -29.01071,-9.03744 -49.35495,-15.33817 -104,-32.20939 l -33.5,-10.34285 -10.5,1.5189 c -6.37365,0.92199 -17.20968,1.4924 -27.57361,1.45146 -15.04627,-0.0594 -18.83732,-0.43422 -31.9269,-3.15632 -36.54899,-7.6007 -62.72403,-25.65178 -69.42076,-47.8746 -2.16698,-7.19106 -2.23259,-8.73022 -2.23773,-52.5 -0.003,-24.80045 0.38271,-46.11401 0.85695,-47.36344 0.79399,-2.09186 1.07866,-1.84432 3.5957,3.12667 8.74056,17.26201 36.04429,34.10366 64.95106,40.0635 6.52207,1.34468 23.18848,3.50436 27.50529,3.5642 0.6875,0.01 1.25,1.12113 1.25,2.47022 0,2.35455 -0.21047,2.43325 -5.25,1.9632 -34.91296,-3.25643 -59.97861,-12.95715 -77.30008,-29.91609 -5.91391,-5.79014 -9.03117,-9.79551 -11.28491,-14.5 -1.71265,-3.575 -3.12541,-5.86139 -3.13946,-5.08086 -0.043,2.38739 6.0061,12.29899 10.69883,17.53037 13.3017,14.82849 36.32483,25.96275 64.53985,31.21225 12.35786,2.29921 45.81033,2.34422 56.73577,0.0763 l 7.5,-1.55684 42,12.96276 c 23.1,7.12952 52.95387,16.34737 66.34194,20.48411 13.38806,4.13674 24.60056,7.26272 24.91666,6.94662 0.31611,-0.3161 0.27452,-0.57473 -0.0924,-0.57473 -0.55827,0 -92.62857,-28.35909 -123.57844,-38.06409 -9.33068,-2.92584 -9.47839,-2.93887 -17.04549,-1.50341 -4.19829,0.7964 -13.39049,1.76788 -20.42711,2.15884 l -12.79385,0.71084 0.33935,-2.40109 c 0.33228,-2.35109 0.61559,-2.41723 13.60503,-3.17619 7.29612,-0.4263 16.37223,-1.36251 20.16913,-2.08045 6.28413,-1.18825 7.4714,-1.12796 13.23432,0.67201 49.13938,15.34808 69.49755,21.30037 70.40194,20.58402 0.61901,-0.4903 4.56473,0.22454 9.34857,1.69367 4.55263,1.39812 8.48205,2.33749 8.73206,2.08748 0.47097,-0.47096 -12.62152,-4.68161 -14.55695,-4.68161 -0.75741,0 -1.09476,-6.31701 -1.09476,-20.5 0,-11.275 0.1125,-20.49767 0.25,-20.49482 0.3099,0.006 13.1742,3.96332 69.60331,21.40912 24.39432,7.54183 44.57402,13.49171 44.84377,13.22195 0.26975,-0.26975 -1.01423,-0.91853 -2.85331,-1.44172 -3.19725,-0.90959 -53.29288,-16.33727 -83.84377,-25.82093 -22.03758,-6.84094 -27.15946,-8.54747 -26.7832,-8.92373 0.50295,-0.50295 3.16788,0.30335 94.7832,28.67762 19.525,6.04711 41.35,12.82386 48.5,15.05945 7.15,2.23559 15.8125,4.90809 19.25,5.93888 13.34724,4.00242 19.57281,5.91974 43.25,13.3199 35.94551,11.23457 42.48117,13.26096 87.5,27.12952 98.85678,30.45394 130.83565,40.42708 131.38229,40.97372 1.33474,1.33474 -1.00759,0.62981 -99.88229,-30.05975 -11.275,-3.49963 -33.1,-10.24679 -48.5,-14.99369 -15.4,-4.74691 -37.225,-11.49516 -48.5,-14.99611 -89.20629,-27.6991 -112.15843,-34.67432 -112.61018,-34.22257 -0.35235,0.35236 15.86246,5.55212 47.61018,15.26763 5.775,1.76728 22.9875,7.09275 38.25,11.83438 52.75777,16.39036 83.29879,25.83555 95.75,29.61187 6.875,2.08512 25.775,7.92013 42,12.9667 16.225,5.04657 41.2,12.77599 55.5,17.17649 14.3,4.40051 27.0125,8.41094 28.25,8.91207 2.22445,0.9008 2.25,1.13093 2.25,20.26591 0,10.64513 -0.2326,19.58737 -0.51688,19.87166 -0.28428,0.28428 -18.39678,-5.01172 -40.25,-11.76888 -21.85322,-6.75717 -55.70812,-17.23019 -75.23312,-23.27339 -61.01217,-18.88393 -64.37498,-19.92228 -69.5,-21.45992 -2.75,-0.82507 -21.2,-6.5288 -41,-12.67495 -19.8,-6.14615 -48.15,-14.92303 -63,-19.50419 -14.85,-4.58115 -45.45,-14.04154 -68,-21.02308 -51.95881,-16.08659 -50.62357,-15.6889 -51.09433,-15.21815 -0.21838,0.21839 5.78851,2.30974 13.34864,4.64746 7.56013,2.33772 17.12069,5.29917 21.24569,6.58101 4.125,1.28183 20.1,6.22238 35.5,10.97899 15.4,4.75661 37.9,11.73409 50,15.5055 12.1,3.77142 24.25,7.52996 27,8.35231 2.75,0.82236 14.45,4.42461 26,8.005 11.55,3.5804 37.2,11.52632 57,17.65761 19.8,6.13129 54.225,16.79357 76.5,23.69396 22.275,6.90038 43.2,13.35987 46.5,14.35442 8.58586,2.5876 31.37671,9.66961 42.5,13.20643 5.225,1.66137 10.625,3.07369 12,3.13849 1.57458,0.0742 2.69887,0.84588 3.03725,2.08464 0.33361,1.22133 2.03926,2.41504 4.5,3.14936 37.76,11.26825 73.15204,22.7919 73.96275,24.08227 0.55,0.87541 2.42835,3.51054 4.17411,5.85583 2.90816,3.90691 3.25381,5.44573 1.22321,5.44573 -0.42314,0 -1.75483,-1.75342 -2.9593,-3.89649 -1.80294,-3.20791 -3.09546,-4.16497 -7.31398,-5.41578 -2.81822,-0.83562 -8.72404,-2.6437 -13.12404,-4.01796 -7.30878,-2.28276 -41.73193,-12.92375 -97.5,-30.13949 -11.825,-3.65041 -27.125,-8.39086 -34,-10.53434 -6.875,-2.14348 -19.25,-5.98116 -27.5,-8.52817 -8.25,-2.54701 -28.05,-8.67677 -44,-13.6217 -15.95,-4.94494 -52.85,-16.34799 -82,-25.34012 -29.15,-8.99214 -59.75,-18.44829 -68,-21.01366 -8.25,-2.56538 -21.525,-6.69357 -29.5,-9.17376 -35.35809,-10.99622 -50.24438,-15.40749 -50.64436,-15.00751 -0.23653,0.23654 3.52419,1.63748 8.35715,3.11322 8.52909,2.60433 34.00773,10.49224 139.28721,43.1218 27.775,8.60838 59.95,18.55754 71.5,22.10924 11.55,3.55169 27.3,8.4318 35,10.84468 7.7,2.41287 19.175,5.95672 25.5,7.8752 18.57169,5.63311 97.66827,30.08522 141.91483,43.87189 27.47723,8.56155 29.51926,9.35903 31,12.10651 0.87185,1.61768 3.55967,5.2374 5.97294,8.04384 25.02213,29.09863 79.30962,42.27829 130.11222,31.58805 39.308,-8.27146 68.1401,-31.07611 70.6657,-55.89267 0.4822,-4.73827 0.3502,-6.22065 -0.5068,-5.69098 -0.6374,0.39393 -1.1589,1.57302 -1.1589,2.6202 0,1.04718 -0.8628,4.09299 -1.9174,6.76848 -7.5658,19.19458 -29.7315,34.98536 -60.5826,43.15893 -14.2216,3.7678 -21.6515,4.54465 -43,4.49596 -17.5097,-0.0399 -22.662,-0.40214 -31,-2.17928 -32.47759,-6.92224 -54.94096,-19.64994 -66.79465,-37.84578 -3.61529,-5.5496 -0.93973,-4.48305 -46.20534,-18.41869 -11,-3.38651 -23.15,-7.13476 -27,-8.32945 l -7,-2.17217 -0.0288,-22.69547 c -0.0158,-12.48251 -0.36795,-23.03461 -0.78246,-23.44912 -0.4145,-0.41451 -6.92654,-2.64483 -14.47119,-4.95628 -7.54465,-2.31144 -26.31755,-8.12532 -41.71755,-12.91972 -15.4,-4.79441 -30.7,-9.51745 -34,-10.49566 -3.3,-0.9782 -24.9,-7.63984 -48,-14.80363 -23.1,-7.1638 -70.575,-21.86971 -105.5,-32.67981 -190.70415,-59.02737 -185.72014,-57.50031 -187.66938,-57.50031 -1.06807,0 -1.33062,4.43958 -1.33062,22.5 0,12.375 -0.279,22.5 -0.62,22.5 -0.341,0 -17.3285,-5.14605 -37.75,-11.43567 l -37.13,-11.43568 -7.42565,1.41911 c -4.08411,0.78051 -13.30911,1.70537 -20.5,2.05524 -52.31633,2.54545 -99.68429,-18.8785 -110.63652,-50.03955 -1.76841,-5.03147 -1.9865,-8.38083 -2.04118,-31.3484 -0.0733,-30.78705 -0.13549,-29.9473 1.76016,-23.76993 2.38641,7.77665 12.07965,19.44972 22.20464,26.73989 25.0712,18.05171 62.92759,26.11497 101.82058,21.68739 l 16.18203,-1.84216 30.31797,9.40288 c 32.74733,10.15632 115.65289,35.80801 148.81797,46.04556 25.3154,7.81448 117.39314,36.28632 156.5,48.3922 15.95,4.93747 51.725,16.00708 79.5,24.59915 27.775,8.59206 62.875,19.452 78,24.13319 15.125,4.68119 38.525,11.89654 52,16.03412 13.475,4.13758 27.65,8.53615 31.5,9.7746 l 7,2.25173 0.53424,18.41817 c 0.29382,10.12999 0.64599,14.81816 0.78258,10.41816 0.35024,-11.28223 1.1094,-23.75955 1.46739,-24.11754 0.16652,-0.16653 2.49811,2.49179 5.18129,5.90738 11.15132,14.19519 34.9016,26.79649 60.53449,32.11811 64.8996,13.47373 134.3056,-13.86716 140.1522,-55.20973 1.0554,-7.46299 0.9614,-8.78918 -1.1633,-16.40871 -1.2713,-4.55923 -2.698,-8.79651 -3.1703,-9.41617 -0.5598,-0.7344 9.809,-13.61645 29.7815,-37 16.8521,-19.73034 47.3486,-55.44117 67.77,-79.35741 20.4215,-23.91624 48.0924,-56.31624 61.4909,-72 13.3986,-15.68376 37.0455,-43.36593 52.5486,-61.51593 76.1278,-89.1248 87.7924,-102.63022 88.8979,-102.92634 22.394,-5.99856 29.2162,-8.35472 38.6925,-13.36322 17.6511,-9.32906 30.4061,-22.30127 35.6042,-36.21044 1.1374,-3.04343 1.3137,-0.23361 1.3519,21.5399 0.047,27.00458 -0.5903,31.85792 -5.4441,41.43636 -5.0723,10.00984 -18.7513,22.14054 -33.0647,29.32228 -7.198,3.61158 -23.7867,9.2031 -31.6247,10.65965 -6.2417,1.15991 -6.9581,1.57693 -10.9791,6.39134 -4.3959,5.26325 -35.0605,41.23397 -71.7373,84.15047 -11.2808,13.2 -26.4576,30.975 -33.7263,39.5 -7.2687,8.525 -24.3902,28.5832 -38.0479,44.57377 -13.6576,15.99058 -37.8655,44.34058 -53.7954,63 -15.9299,18.65943 -43.1549,50.51142 -60.5,70.7822 -17.3451,20.27078 -31.9019,37.49298 -32.3484,38.27155 -0.4464,0.77857 -0.6714,2.82732 -0.5,4.55277 0.3076,3.0948 0.4199,3.01008 8.3118,-6.27155 9.6455,-11.34404 10.5268,-12.37639 18.7029,-21.90874 3.5381,-4.125 15.6473,-18.3 26.9093,-31.5 24.0655,-28.20679 78.802,-92.29121 100.8878,-118.11739 8.525,-9.96879 25.4,-29.74382 37.5,-43.94453 56.1691,-65.92072 99.8972,-117.09948 101.4643,-118.75256 0.9831,-1.03696 5.323,-2.60787 10.128,-3.666 29.1824,-6.42647 53.5669,-22.02995 63.7462,-40.79088 l 3.1082,-5.72864 0.047,26.5 c 0.026,14.575 0.3229,32.42628 0.6602,39.66952 0.3814,8.18871 0.1512,16.88747 -0.6085,23 -1.1024,8.86917 -1.7095,10.68613 -6.2088,18.58048 -2.7428,4.8125 -5.2906,8.76664 -5.6618,8.78697 -0.3711,0.0203 -3.5998,2.74653 -7.1748,6.05821 -9.3054,8.62004 -25.3253,16.50808 -43.5,21.41906 l -14,3.78292 -17,19.96053 c -9.35,10.97829 -25.7039,30.14893 -36.342,42.60142 -10.6381,12.45249 -21.2576,24.89089 -23.5988,27.64089 -17.6347,20.71338 -67.4166,79.0195 -119.9591,140.5 -16.4152,19.20762 -35.9421,42.08374 -88.2805,103.42226 l -9.3196,10.92227 -0.02,14.07773 c -0.029,20.56893 -1.1034,26.40638 -6.5796,35.74728 -6.2969,10.7408 -16.5067,19.4842 -31.5471,27.01599 -23.9035,11.9702 -52.749,16.669 -86.3535,14.0665 z m -86.49999,-70.27347 c 0,-20.84494 -0.0189,-21.02961 -2.25,-21.99479 -1.88032,-0.81342 -43.14607,-13.65187 -64.25,-19.98922 -3.3,-0.99097 -15.45,-4.7357 -27,-8.32162 -11.55,-3.58593 -30.675,-9.52362 -42.5,-13.19487 -11.825,-3.67125 -27.8,-8.60096 -35.5,-10.95491 -7.7,-2.35394 -32.225,-9.92575 -54.5,-16.82623 -22.275,-6.90047 -56.475,-17.48793 -76,-23.52767 -19.525,-6.03974 -56.875,-17.6008 -83,-25.69125 -26.125,-8.09044 -50.2,-15.51528 -53.5,-16.49964 -3.3,-0.98436 -25.125,-7.72064 -48.5,-14.96952 -23.375,-7.24888 -53.24607,-16.50668 -66.38015,-20.57289 -13.13408,-4.06621 -24.1891,-7.20217 -24.56671,-6.96879 -0.37761,0.23337 -0.65654,9.78094 -0.61985,21.21682 l 0.0667,20.7925 36,11.15596 c 19.8,6.13577 40.05,12.39424 45,13.9077 4.95,1.51346 16.875,5.18282 26.5,8.15414 9.625,2.97132 22.45,6.92729 28.5,8.79103 6.05,1.86374 24.725,7.6434 41.5,12.84369 51.43377,15.94458 110.17856,34.13654 161,49.85813 75.61613,23.39181 131.19832,40.57914 146.5,45.30126 24.98166,7.70938 69.73386,21.6228 80.5,25.02738 5.775,1.82627 11.0625,3.35727 11.75,3.40237 0.96296,0.063 1.25,-4.74541 1.25,-20.93958 z m -30.5,10.78377 c -15.95,-4.91958 -34.625,-10.6757 -41.5,-12.79138 -6.875,-2.11568 -26.45,-8.17462 -43.5,-13.46432 -17.05,-5.28969 -35.95,-11.12871 -42,-12.97559 -6.05,-1.84688 -26.975,-8.31019 -46.5,-14.36292 -19.525,-6.05272 -50.8,-15.73503 -69.5,-21.51623 -18.7,-5.78121 -46.6,-14.41294 -62,-19.18162 -15.4,-4.76867 -36.55,-11.29534 -47,-14.5037 -17.89497,-5.49412 -34.35717,-10.59415 -85.5,-26.48814 -11.825,-3.67493 -24.875,-7.69597 -29,-8.93564 -12.61754,-3.7919 -75.35598,-23.35863 -77.73137,-24.24269 -2.14738,-0.7992 -2.03447,-1.05053 3,-6.67735 l 5.23137,-5.84688 55,17.02446 c 30.25,9.36345 67.6,20.95097 83,25.75005 15.4,4.79907 31.375,9.74806 35.5,10.99775 13.02686,3.94657 32.23227,9.86397 76,23.41647 23.375,7.23797 70.175,21.71825 104,32.17841 61.85786,19.12912 90.58979,28.02527 145,44.89572 16.225,5.03073 37.6,11.62821 47.5,14.66106 9.9,3.03285 18.3586,5.84722 18.7969,6.25414 0.43829,0.40693 0.66329,3.89284 0.5,7.74648 l -0.2969,7.00663 -29,-8.94471 z m 12,-12.47854 c -7.7,-2.46886 -16.7,-5.31703 -20,-6.32927 -26.13495,-8.01662 -55.33119,-17.0497 -79,-24.44196 -15.4,-4.80973 -30.7,-9.54108 -34,-10.51409 -3.3,-0.97302 -12.75,-3.88207 -21,-6.46455 -8.25,-2.58249 -36.15,-11.21817 -62,-19.1904 -25.85,-7.97223 -63.425,-19.60207 -83.5,-25.84408 -20.075,-6.24201 -57.2,-17.70434 -82.5,-25.47185 -25.3,-7.76751 -50.05,-15.422 -55,-17.00998 -4.95,-1.58798 -14.4,-4.5257 -21,-6.52827 -6.6,-2.00257 -16.05,-4.92458 -21,-6.49336 -4.95,-1.56877 -15.75,-4.93922 -24,-7.48989 -8.25,-2.55066 -18.375,-5.69174 -22.5,-6.98018 -4.125,-1.28843 -10.7625,-3.3029 -14.75,-4.4766 l -7.25,-2.134 0,-11.95766 c 0,-6.57671 0.11393,-11.95765 0.25318,-11.95765 0.79816,0 35.85954,10.73722 70.24682,21.51243 8.25,2.58512 17.7,5.49897 21,6.47521 3.3,0.97623 15.45,4.71638 27,8.31144 11.55,3.59505 33.6,10.42985 49,15.18845 156.27562,48.28913 143.22863,44.03022 146.3375,47.76872 6.83373,8.21772 6.84723,8.22484 27.73779,14.60886 11.04141,3.37419 20.83785,6.13489 21.76987,6.13489 0.93202,0 3.45597,-1.11191 5.60877,-2.47092 l 3.91418,-2.47091 9.31595,2.84707 c 5.12377,1.56589 18.99094,5.8651 30.81594,9.5538 11.825,3.6887 27.125,8.4104 34,10.49265 6.875,2.08225 22.175,6.80729 34,10.50009 11.825,3.6928 26.45,8.23008 32.5,10.08286 37.03434,11.34152 47.24236,14.53911 49.25,15.42719 2.14555,0.94909 2.25,1.53014 2.25,12.51673 0,10.34944 -0.17802,11.50988 -1.75,11.40775 -0.9625,-0.0625 -8.05,-2.13366 -15.75,-4.60252 z m -194,-76.84114 c -3.85,-1.27361 -12.85,-4.14957 -20,-6.39102 -11.88555,-3.72599 -13.28777,-4.42239 -16.35676,-8.1234 -1.84622,-2.22643 -3.15129,-4.25351 -2.90016,-4.50464 0.41127,-0.41127 55.75213,16.33654 56.6197,17.13483 0.76181,0.70097 -6.459,4.42847 -8.36278,4.317 -1.1,-0.0644 -5.15,-1.15916 -9,-2.43277 z m -364.4682,-100.67498 -0.0318,-19.73233 4.75,1.76624 4.75,1.76624 0.0953,11.96609 0.0953,11.96609 -3.59526,4.43966 c -1.97739,2.44181 -4.14344,5.14181 -4.81345,6 -0.96943,1.24171 -1.22469,-2.46914 -1.25,-18.17199 z m 332.78475,46.51824 c -0.20036,-1.04034 -1.80143,-2.06205 -4.07333,-2.59934 l -3.74322,-0.88525 0,-6.70066 c 0,-6.59481 -1.01879,-9.10066 -3.7,-9.10066 -1.80036,0 -1.84707,16.52789 -0.05,17.69098 1.73867,1.1253 7.87724,3.07788 10.07332,3.20417 1.21094,0.0696 1.71246,-0.47085 1.49323,-1.60924 z m -7.06655,-0.88582 -4.75,-1.46061 0,-7.96974 c 0,-4.64649 0.41698,-7.96974 1,-7.96974 0.56973,0 1,2.95919 1,6.87756 0,7.34585 0.62281,8.4877 5.26504,9.65283 1.51462,0.38014 3.00116,1.09132 3.30343,1.58039 0.71151,1.15125 -0.0762,1.05503 -5.81847,-0.71069 z m -18.35699,-11.15009 c -3.68779,-9.88835 -5.70533,-13.71557 -7.39351,-14.02528 -0.97986,-0.17976 -2.8015,2.28614 -5.25,7.10676 -2.06223,4.06012 -3.7495,7.61901 -3.7495,7.90865 0,0.28963 0.90589,0.7635 2.01309,1.05304 1.31778,0.34461 2.3561,-0.11449 3.00619,-1.32919 0.84502,-1.57894 1.44403,-1.69843 4.01729,-0.80139 1.66331,0.57984 3.69708,2.35546 4.51949,3.94583 0.86518,1.67306 2.3084,2.89158 3.42481,2.89158 1.84794,0 1.8231,-0.28531 -0.58786,-6.75 z m -1.74667,3.03299 c -1.86719,-3.61074 -8.57957,-6.15368 -9.92016,-3.75818 -0.45406,0.81136 -1.48386,1.47519 -2.28844,1.47519 -1.08804,0 -0.56354,-1.78586 2.04698,-6.96966 2.15553,-4.28031 3.99324,-6.78316 4.76257,-6.48634 1.40474,0.54196 8.27447,17.26757 7.43651,18.10553 -0.29498,0.29498 -1.21184,-0.76996 -2.03746,-2.36654 z m -3.19992,-7.53299 c -1.49603,-4.89005 -2.20648,-5.37072 -3.55703,-2.40659 -1.06693,2.34166 -1.03952,2.94923 0.16747,3.71289 2.6551,1.67988 4.12932,1.11173 3.38956,-1.3063 z m -3.00027,0.16287 c -0.36954,-0.59793 -0.23136,-1.52766 0.30707,-2.06609 0.6386,-0.6386 1.16679,-0.26065 1.51925,1.08713 0.5678,2.17129 -0.67703,2.83855 -1.82632,0.97896 z m 17.27127,5.79311 c -0.30149,-0.78565 -1.48624,-1.67377 -2.63279,-1.9736 -1.67293,-0.43748 -2.08463,-0.0844 -2.08463,1.78792 0,1.40266 0.69787,2.49282 1.75,2.73369 2.24115,0.51308 3.67095,-0.71463 2.96742,-2.54801 z m -3.71742,0.29402 c 0,-0.55 0.45,-1 1,-1 0.55,0 1,0.45 1,1 0,0.55 -0.45,1 -1,1 -0.55,0 -1,-0.45 -1,-1 z m -32.18463,-5.72019 c -0.19819,-1.02912 -1.93505,-2.16988 -4.32332,-2.83954 -2.47366,-0.6936 -4.12496,-1.80247 -4.34149,-2.91539 -0.3475,-1.78614 0.45624,-1.84327 5.79005,-0.41157 0.79234,0.21268 1.60803,-0.37587 1.81265,-1.3079 0.27566,-1.25558 -0.68042,-1.97798 -3.69061,-2.78854 -2.56037,-0.68944 -4.06265,-1.67446 -4.06265,-2.66382 0,-1.54938 1.31302,-1.50197 7.25,0.26183 1.13894,0.33836 1.75,-0.0227 1.75,-1.03407 0,-1.60601 -4.36861,-3.84395 -9.85656,-5.0493 l -3.14344,-0.69042 0,8.90389 0,8.90388 4.75,1.57996 c 6.48573,2.1573 8.47343,2.16986 8.06537,0.051 z m -7.06537,-0.87972 -4.75,-1.46061 0,-8.03713 c 0,-9.00271 -0.58859,-8.61713 8,-5.24069 3.45653,1.35887 3.46196,1.3703 0.4375,0.91965 -1.68438,-0.25097 -3.69869,-0.59694 -4.47626,-0.76881 -0.8276,-0.18294 -1.55668,0.62487 -1.75847,1.94836 -0.27853,1.82674 0.48499,2.6461 3.97626,4.26708 3.43935,1.59688 3.71268,1.88498 1.33961,1.41202 -1.63974,-0.32681 -3.43974,-0.67199 -4,-0.76708 -0.56025,-0.0951 -1.15684,1.02124 -1.32576,2.48072 -0.26544,2.29348 0.20954,2.81878 3.5,3.8708 2.09392,0.66946 4.23462,1.61284 4.75712,2.0964 1.29537,1.19883 0.0167,1.03715 -5.7,-0.72071 z m 112.20432,1.15495 c 2.22933,-2.68618 0.86025,-5.91702 -2.82491,-6.66637 -4.45528,-0.90596 -7.37871,-3.91464 -6.95954,-7.16251 0.32227,-2.49709 0.41858,-2.5274 4.04326,-1.27261 3.29727,1.14146 3.89506,1.08438 5.33765,-0.50966 3.34287,-3.69383 -0.0699,-7.34249 -8.08437,-8.64305 -3.06281,-0.49703 -3.90095,-0.11985 -6.9738,3.13832 -2.89838,3.07317 -3.49261,4.45084 -3.49261,8.09725 0,3.50497 0.63885,5.12161 3.1575,7.99019 4.98364,5.67606 13.11198,8.26347 15.79682,5.02844 z m -9.68366,-1.51886 c -5.03374,-2.28505 -8.26169,-7.06024 -8.26692,-12.22948 -0.004,-4.03757 2.66856,-6.8067 6.56954,-6.8067 3.61178,0 8.42672,2.11689 8.42672,3.70481 0,0.96976 -0.56934,1.29069 -1.5929,0.89791 -4.94752,-1.89854 -6.25363,-1.76657 -7.93654,0.80187 -3.01064,4.59482 0.43332,11.02619 6.56069,12.25166 1.63281,0.32656 2.96875,1.2125 2.96875,1.96875 0,1.84911 -1.68329,1.70182 -6.72934,-0.58882 z m 0.32275,-4.28618 c -2.72374,-2.43374 -4.57711,-7.75 -2.70182,-7.75 0.60963,0 1.10841,0.69649 1.10841,1.54775 0,2.0844 4.8375,6.45225 7.14602,6.45225 1.01969,0 1.85398,0.45 1.85398,1 0,1.84428 -4.8619,1.02375 -7.40659,-1.25 z m 7.40659,-11.72432 c 0,-1.44053 -5.48019,-4.01616 -8.70034,-4.08907 -2.68197,-0.0607 -2.70469,-0.10154 -0.54047,-0.97117 3.40091,-1.36656 9.47073,0.95552 9.89268,3.78456 0.18457,1.2375 0.1134,2.25 -0.15814,2.25 -0.27155,0 -0.49373,-0.43844 -0.49373,-0.97432 z m -95,15.08131 c 0,-1.73494 -1.80252,-3.10699 -4.08179,-3.10699 -1.05529,0 -1.24894,3.33594 -0.25154,4.33333 1.44292,1.44292 4.33333,0.62493 4.33333,-1.22634 z m -3.45729,-0.0379 c -0.68308,-1.10523 0.8944,-2.29865 1.81781,-1.37525 0.95079,0.95079 0.77359,2.30615 -0.3015,2.30615 -0.51754,0 -1.19988,-0.41891 -1.51631,-0.9309 z m 78.42211,-4.00336 c 0.56935,-1.06383 1.03518,-6.46383 1.03518,-11.99999 0,-6.2719 -0.39017,-10.06574 -1.03518,-10.06574 -0.71358,0 -0.71358,-0.60093 0,-1.93426 1.93411,-3.61392 1.2589,-7.03018 -1.60467,-8.11891 -2.07536,-0.78905 -3.03763,-0.6437 -4.5,0.67974 -2.21729,2.00661 -2.45608,6.20752 -0.39775,6.99738 1.27761,0.49026 1.27268,0.85074 -0.0391,2.8527 -1.12651,1.71927 -1.42927,4.62371 -1.2124,11.63064 0.27314,8.82474 0.42675,9.40862 2.78906,10.60117 3.3249,1.67848 3.75215,1.62317 4.96482,-0.64272 z m -5.60586,-0.6917 c -0.7841,-0.32164 -0.99316,-3.1901 -0.6683,-9.16943 0.26002,-4.78574 0.59658,-8.82518 0.74792,-8.97652 0.15134,-0.15134 1.01457,0.009 1.91829,0.35536 1.35373,0.51947 1.64313,2.19684 1.64313,9.52354 0,8.89039 -0.32463,9.62747 -3.64104,8.26705 z m 4.84228,-9.10499 c -0.19647,-9.01222 -0.26221,-9.24625 -2.77446,-9.87678 -1.53748,-0.38589 -2.20854,-1.01051 -1.66721,-1.55184 1.37364,-1.37364 4.18935,0.10787 4.79557,2.52323 0.29583,1.17868 0.3825,5.74154 0.19261,10.1397 l -0.34526,7.99664 -0.20125,-9.23095 z m -4.95124,-14.93132 c -0.6875,-0.27741 -1.25,-1.41503 -1.25,-2.52804 0,-1.43447 0.46054,-1.84693 1.58179,-1.41667 0.86998,0.33385 1.99498,0.60699 2.5,0.60699 0.50501,0 0.91821,0.9 0.91821,2 0,1.94432 -1.19247,2.36971 -3.75,1.33772 z m 4.75,-2.06265 c 0,-1.37032 -0.84925,-2.2714 -2.5409,-2.69598 -1.39749,-0.35075 -2.29704,-1.03229 -1.999,-1.51453 1.00691,-1.62922 4.55741,0.15704 5.17093,2.6015 0.33504,1.3349 0.33012,2.70612 -0.0109,3.04718 -0.34109,0.34105 -0.62013,-0.30612 -0.62013,-1.43817 z m -106,27.17188 c 0,-0.30418 -1.09691,-2.1673 -2.43757,-4.14026 l -2.43757,-3.58721 2.16742,-1.75507 c 1.82191,-1.4753 2.01123,-2.19773 1.18757,-4.5319 -1.06277,-3.01182 -8.2593,-7.355 -12.26878,-7.40434 -2.23468,-0.0275 -2.28209,0.17924 -2,8.72183 0.26324,7.97215 0.46585,8.75 2.27911,8.75 1.42878,0 2.13726,-0.84626 2.51158,-3 l 0.52139,-3 2.33638,3.77652 c 1.285,2.07709 2.99944,4.43959 3.80985,5.25 1.42682,1.42683 4.33062,2.044 4.33062,0.92043 z m -7.03768,-6.00171 c -3.40193,-4.94455 -5.28268,-5.30845 -5.77874,-1.11812 -0.17403,1.47008 -0.73653,2.67288 -1.25,2.67288 -0.51347,0 -0.93358,-3.6 -0.93358,-8 0,-4.4 0.38285,-8 0.85078,-8 2.18174,0 7.87303,2.47955 9.89922,4.31284 2.79498,2.52888 2.91888,5.69948 0.25,6.39741 -2.47449,0.6471 -2.47526,0.99801 -0.011,5.03975 3.01516,4.94522 0.53896,3.87778 -3.02672,-1.30476 z m 2.30211,-6.04301 c 1.78892,-1.78892 -5.02528,-7.2861 -7.2938,-5.88408 -1.40301,0.86711 -1.19381,5.22513 0.27937,5.81957 1.79804,0.72552 6.31191,0.76704 7.01443,0.0645 z m -6.26443,-2.40223 c 0,-2.09129 0.77523,-2.40722 3.41821,-1.39301 2.52911,0.97051 1.87353,3.39301 -0.91821,3.39301 -1.83333,0 -2.5,-0.53333 -2.5,-2 z m 18,10.10699 c 0,-2.17288 -2.8641,-3.64289 -4.3,-2.20699 -1.47255,1.47255 -0.0187,4.1 2.26862,4.1 1.32644,0 2.03138,-0.65692 2.03138,-1.89301 z m -3.5,-0.10699 c -0.33992,-0.55 0.0835,-1 0.94098,-1 0.85746,0 1.55902,0.45 1.55902,1 0,0.55 -0.42344,1 -0.94098,1 -0.51754,0 -1.2191,-0.45 -1.55902,-1 z m 92.56517,-0.12177 c 0.6763,-1.26369 0.98915,-5.34527 0.77357,-10.09241 -0.34207,-7.53253 -0.54082,-8.13044 -3.61613,-10.87822 -2.5675,-2.29407 -4.20038,-2.9076 -7.73839,-2.9076 -2.46632,0 -4.48422,0.45 -4.48422,1 0,0.55 -0.5051,1 -1.12244,1 -0.75139,0 -0.69,-0.52107 0.18569,-1.57622 1.08413,-1.30629 1.06229,-1.73178 -0.12755,-2.48468 -4.34328,-2.74831 -6.09126,0.18316 -6.11778,10.2599 -0.0314,11.92216 -0.0677,11.75552 2.80372,12.84725 4.10503,1.56073 5.37836,-0.25483 5.37836,-7.66869 0,-6.56661 0.51465,-7.24286 4.06574,-5.34238 1.64829,0.88214 1.93426,2.14358 1.93426,8.53223 0,6.84007 0.19717,7.57629 2.25,8.40143 3.49487,1.40476 4.58956,1.19946 5.81517,-1.09061 z m -5.31517,0.31515 c -1.47505,-0.28661 -1.75,-1.4825 -1.75,-7.61172 0,-8.33372 -1.69117,-10.97565 -6.66157,-10.40662 -2.7743,0.31762 -2.84514,0.47891 -3.13558,7.1392 -0.25249,5.78986 -0.55315,6.76529 -2,6.48858 -1.43168,-0.27381 -1.74864,-1.79689 -1.99038,-9.56425 -0.18887,-6.06877 0.0792,-9.23857 0.78139,-9.23857 0.5879,0 1.33684,0.69822 1.66432,1.55161 0.42686,1.11237 1.37943,1.3794 3.36502,0.94329 3.48581,-0.76561 9.44948,1.65127 10.93815,4.43288 0.62615,1.16997 0.99331,5.30419 0.83049,9.35136 -0.25293,6.28698 -0.52519,7.20893 -2.04184,6.91424 z m 3.81942,-4.8205 c 0.49842,-5.14327 1.43058,-5.49484 1.43058,-0.53955 0,2.29167 -0.40097,4.16667 -0.89104,4.16667 -0.49007,0 -0.73287,-1.63221 -0.53954,-3.62712 z m -14.25955,-5.87288 c 0.006,-3.3 0.1923,-4.52944 0.41486,-2.73209 0.22256,1.79735 0.21797,4.49735 -0.0102,6 -0.22818,1.50265 -0.41027,0.0321 -0.40466,-3.26791 z m 14.23038,-2.17996 c -0.94782,-3.9542 -4.18687,-7.07559 -9.19544,-8.86139 l -3.84481,-1.37086 3.1849,-0.0439 c 5.22327,-0.072 8.28601,1.64223 9.91962,5.55202 0.82928,1.98474 1.32557,4.5751 1.10287,5.75636 -0.33689,1.7869 -0.53297,1.61349 -1.16714,-1.03223 z m -18.74025,-12.52004 c 0.93333,-0.93333 1.46667,-0.93333 2.4,0 0.93333,0.93333 0.66667,1.2 -1.2,1.2 -1.86667,0 -2.13333,-0.26667 -1.2,-1.2 z m -8.63743,15.95 c 7.46836,-6.04304 5.87954,-16.54789 -3.28155,-21.69671 -5.7126,-3.21067 -10.06895,-2.74222 -13.77743,1.48151 -1.70697,1.94413 -3.10359,4.01899 -3.10359,4.61078 0,0.59179 -0.85299,0.0226 -1.89553,-1.2649 -1.66023,-2.05029 -1.7223,-2.58822 -0.5,-4.33329 2.45028,-3.49827 1.6919,-5.51065 -2.85447,-7.57432 -6.16045,-2.79633 -9.10429,-2.52917 -12.16111,1.10366 -3.07446,3.65379 -3.19645,4.95139 -0.74957,7.97317 1.78576,2.20532 1.78576,2.32502 0,4.11078 -3.12136,3.12136 -2.32618,5.71611 2.41068,7.86625 6.35865,2.8863 10.06533,2.57547 13.16111,-1.10366 1.42389,-1.69219 2.58889,-2.47165 2.58889,-1.73213 0,2.49502 4.83062,8.47682 8.17723,10.12594 3.96924,1.95594 9.84098,2.16803 11.98534,0.43292 z m -12.38421,-1.95332 c -5.87834,-3.40758 -8.68792,-11.80294 -5.43756,-16.24808 1.10562,-1.51202 2.27871,-1.74353 6.68798,-1.31986 4.52099,0.43441 5.84956,1.062 8.59875,4.06189 6.48318,7.07437 5.15809,15.73299 -2.40058,15.6864 -2.04982,-0.0126 -5.40169,-0.99379 -7.44859,-2.18035 z m 8.02164,-1.99668 c 1.87385,-1.87385 1.41137,-7.26157 -0.87258,-10.16514 -2.53549,-3.22335 -7.33487,-3.61056 -8.88361,-0.71672 -3.15945,5.90349 5.29955,15.3385 9.75619,10.88186 z m -6.8,-1.8 c -1.25371,-1.25371 -1.95671,-3.21271 -1.884,-5.25 0.0754,-2.11217 0.28539,-2.5498 0.59983,-1.25 0.61858,2.557 4.23308,6.5 5.95848,6.5 0.72913,0 1.32569,0.45 1.32569,1 0,1.73621 -3.91655,1.08345 -6,-1 z m 1.5567,-3.22251 c -2.00227,-2.85864 -2.03506,-6.77749 -0.0567,-6.77749 2.33892,0 5.5,3.73583 5.5,6.5 0,3.23027 -3.25873,3.3964 -5.4433,0.27749 z m 12.0475,-0.0738 c -0.96518,-5.1448 -5.36129,-9.59392 -11.6042,-11.7441 l -5.5,-1.8943 3.79966,-0.0326 c 7.5023,-0.0645 13.63421,5.20107 14.44621,12.40508 0.59249,5.25657 -0.22332,6.16122 -1.14167,1.266 z m -36.31012,0.99346 c -3.4337,-1.28225 -5.98146,-3.34315 -5.15483,-4.16977 0.27825,-0.27825 2.40136,0.23864 4.71802,1.14865 2.80271,1.10094 4.54607,1.32059 5.2102,0.65646 1.60551,-1.60551 0.16038,-3.6409 -4.67426,-6.58346 -4.04824,-2.46392 -4.4871,-3.0899 -4.2065,-6 0.30653,-3.179 0.41636,-3.24768 5.09223,-3.18442 3.05023,0.0413 5.37998,0.6657 6.44048,1.72619 2.09388,2.09389 1.10627,3.22142 -1.56803,1.79018 -1.11095,-0.59452 -2.98249,-1.08098 -4.15897,-1.08098 -3.40331,0 -2.03963,2.94751 3.00758,6.50067 3.83673,2.701 4.5,3.67139 4.5,6.58363 0,3.08473 -0.29069,3.43481 -3,3.61289 -1.65,0.10846 -4.44267,-0.34154 -6.20592,-1 z m 0.005,-3.85983 c -1.76042,-0.47797 -3.45526,-1.28081 -3.76631,-1.7841 -1.07572,-1.74055 0.98286,-1.78436 4.9168,-0.10463 4.48087,1.91326 3.69452,3.20418 -1.15049,1.88873 z m 10.55217,-0.53172 c -0.34929,-1.2069 -2.70874,-3.65603 -5.24323,-5.4425 -4.05098,-2.85546 -5.7305,-4.8631 -4.06818,-4.8631 1.26472,0 8.19873,3.98007 9.34932,5.36644 0.69044,0.83194 1.10729,2.77733 0.92632,4.32309 -0.30043,2.56622 -0.38422,2.61977 -0.96408,0.61611 z m -6.09114,-14.2625 c -5.77697,-2.05922 -6.92439,-3.0431 -3.5489,-3.0431 3.48124,0 10.00738,2.83731 9.27009,4.03026 -0.32964,0.53336 -0.68528,0.90959 -0.79032,0.83606 -0.10504,-0.0735 -2.32393,-0.89397 -4.93087,-1.82322 z m -12.79529,14.02264 c 1.51513,-2.83106 1.27144,-14.70818 -0.36678,-17.87616 -2.79312,-5.40129 -14.24618,-9.38634 -18.00672,-6.26537 -2.22918,1.85006 -2.00202,5.15563 0.39743,5.7831 1.09382,0.28604 1.79689,0.83052 1.56238,1.20996 -0.23451,0.37944 1.18001,0.73542 3.14337,0.79108 1.96337,0.0557 3.93583,0.69351 4.38325,1.41746 1.11394,1.80239 0.45115,2.21939 -1.7421,1.09606 -1.00961,-0.51709 -3.2349,-1.20465 -4.94509,-1.52791 -2.62898,-0.49692 -3.32432,-0.18622 -4.5,2.01075 -1.65184,3.08673 -1.32226,6.09162 0.95239,8.68331 2.01275,2.29329 7.8819,4.90007 9.19931,4.08586 0.52483,-0.32436 1.95515,0.11132 3.17849,0.96819 2.99918,2.1007 5.49287,1.96155 6.74407,-0.37633 z m -5.14339,-0.38116 c -1.03114,-1.03483 -3.26648,-1.68458 -5.79546,-1.68458 -5.13841,0 -9.02597,-3.41788 -9.02597,-7.93549 0,-3.6503 3.18708,-4.89215 8.13157,-3.16849 4.15762,1.44936 4.86843,1.3949 4.86843,-0.37297 0,-1.85057 -4.09313,-4.59018 -8.0746,-5.40447 -3.72985,-0.76284 -3.82753,-2.7 -0.1211,-2.40142 4.12609,0.33239 9.83073,3.23237 11.12846,5.65721 0.67752,1.26594 1.03927,5.27165 0.8656,9.58482 -0.27942,6.93968 -0.40489,7.30305 -1.97693,5.72539 z m -2.02054,-6.29218 c 0.22057,-1.54501 -0.50871,-2.44295 -2.73204,-3.36388 -3.67867,-1.52376 -6.06885,-0.77923 -6.06885,1.89041 0,4.18459 8.21743,5.56038 8.80089,1.47347 z m -6.60089,0.4076 c -1.87911,-1.87911 -1.44097,-2.46667 1.83934,-2.46667 1.95959,0 2.5813,0.29061 1.75,0.81802 -0.99942,0.63409 -1.00827,0.82147 -0.0393,0.83334 0.6875,0.008 1.25,0.46531 1.25,1.01531 0,1.39259 -3.34686,1.25314 -4.8,-0.2 z m 11.8991,-1.47504 c -0.11885,-3.67128 -0.6215,-7.43255 -1.11699,-8.35839 -1.31395,-2.45513 -5.73713,-5.09773 -10.93344,-6.53212 l -4.54867,-1.25562 3.78212,-0.0894 c 2.08016,-0.0492 5.23016,0.52347 7,1.27256 5.44474,2.30452 6.48433,4.30999 6.94003,13.38802 0.22778,4.5375 0.11689,8.25 -0.24641,8.25 -0.3633,0 -0.75779,-3.00377 -0.87664,-6.67504 z m -22.67053,1.10361 c 2.16765,-2.16765 2.17103,-15.36839 0.005,-19.55701 -1.77714,-3.43662 -7.55148,-6.30977 -10.96118,-5.45399 -1.35964,0.34125 -2.73086,-0.0241 -3.48042,-0.92724 -0.68027,-0.81968 -1.99176,-1.49033 -2.91441,-1.49033 -3.37461,0 -4.07756,2.16931 -4.07756,12.58337 0,9.7152 0.10344,10.21109 2.25,10.78634 4.1321,1.10736 4.34967,0.81479 4.17919,-5.61971 l -0.16559,-6.25 0.6182,5.5 c 0.76057,6.76666 1.95253,5.45693 1.59264,-1.75 -0.26869,-5.38059 0.29433,-6.04343 3.94377,-4.64301 1.25554,0.48179 1.58179,2.21775 1.58179,8.41667 0,7.60949 0.0705,7.83542 2.75,8.81406 1.5125,0.55241 2.83036,1.03991 2.92857,1.08333 0.0982,0.0434 0.88572,-0.62819 1.75,-1.49248 z m -5.7619,-1.09524 c -0.36667,-0.36666 -0.66667,-3.91156 -0.66667,-7.87755 0,-8.22622 -1.0288,-9.76891 -6.18468,-9.27401 l -3.31532,0.31823 -0.29771,6.83868 c -0.24657,5.66383 -0.56126,6.73755 -1.83179,6.25 -0.84374,-0.32377 -1.72227,-0.58868 -1.95229,-0.58868 -0.23001,0 -0.41821,-4.05 -0.41821,-9 0,-7.02612 0.30552,-9 1.39301,-9 0.76616,0 1.64264,0.65052 1.94774,1.44561 0.39841,1.03823 1.52796,1.28768 4.00831,0.88517 4.52724,-0.73467 9.29112,2.04893 10.67313,6.23645 0.57094,1.72997 0.95508,5.68506 0.85365,8.78909 -0.14849,4.54418 -0.51153,5.64368 -1.86346,5.64368 -0.92348,0 -1.97905,-0.3 -2.34571,-0.66667 z m 5.53457,-6.13299 c -0.11068,-3.46481 -0.88386,-7.6197 -1.71817,-9.23307 -1.66134,-3.21269 -6.08088,-5.95004 -9.68341,-5.99768 -1.96805,-0.026 -2.05958,-0.17052 -0.63476,-1.00207 2.38248,-1.39044 8.71302,0.95134 11.03526,4.08213 1.56715,2.11281 1.83217,3.91184 1.54675,10.5 -0.32545,7.51239 -0.35551,7.60332 -0.54567,1.65069 z m -15.70124,-16.20034 c 0.33992,-0.55 0.81648,-1 1.05902,-1 0.24254,0 0.44098,0.45 0.44098,1 0,0.55 -0.47656,1 -1.05902,1 -0.58246,0 -0.7809,-0.45 -0.44098,-1 z m -3.5,-2 c 0,-0.55 0.675,-1 1.5,-1 0.825,0 1.5,0.45 1.5,1 0,0.55 -0.675,1 -1.5,1 -0.825,0 -1.5,-0.45 -1.5,-1 z m -6.2,17.8 c 0.73738,-0.73738 1.2,-4.34781 1.2,-9.36514 0,-6.76602 -0.35783,-8.62006 -2.0883,-10.81998 -2.50825,-3.18872 -6.1751,-5.19847 -11.20722,-6.1425 -4.54956,-0.8535 -6.70448,0.6373 -6.70448,4.63825 0,2.56758 0.41399,2.93194 3.97908,3.50202 2.1885,0.34995 4.776,1.27647 5.75,2.05893 1.58957,1.27697 1.41251,1.35584 -1.72908,0.77019 -1.925,-0.35886 -3.92435,-1.05192 -4.443,-1.54012 -1.45923,-1.37358 -5.56009,3.08879 -5.53476,6.02266 0.0394,4.56265 5.1601,9.07569 10.29771,9.07569 1.34829,0 3.74037,0.67223 5.31574,1.49384 3.46784,1.8086 3.65101,1.81946 5.16431,0.30616 z m -6.04653,-2.03958 c -0.25624,-0.76874 -1.80737,-1.11947 -4.08361,-0.92336 -2.98001,0.25674 -4.23468,-0.24803 -6.67014,-2.68349 -6.48712,-6.48712 -0.92295,-11.67947 8.25028,-7.69896 1.33389,0.5788 1.75,0.28748 1.75,-1.22518 0,-2.61914 -1.82093,-4.01571 -6.50481,-4.98887 -4.51253,-0.93757 -5.96687,-3.24056 -2.0464,-3.24056 3.94509,0 8.95505,2.42665 11.38331,5.51368 1.74571,2.21931 2.1679,4.093 2.1679,9.62118 0,6.09898 -0.2139,6.86514 -1.91667,6.86514 -1.05416,0 -2.1026,-0.55781 -2.32986,-1.23958 z m -0.65835,-4.37504 c 1.1488,-1.38422 1.00777,-1.88364 -0.98834,-3.5 -4.25485,-3.44537 -9.86609,-1.45949 -6.7881,2.40239 2.28844,2.87124 5.88335,3.37865 7.77644,1.09761 z m -5.34512,-0.46548 c -0.9625,-0.5606 -1.75,-1.65099 -1.75,-2.42308 0,-1.14283 0.54306,-1.09212 2.92117,0.27272 1.60665,0.92209 2.70509,2.02616 2.44099,2.45349 -0.62628,1.01334 -1.47407,0.9422 -3.61216,-0.30313 z m 1.75708,-2.90845 c -0.35034,-0.56686 0.0511,-0.7345 0.94098,-0.39301 1.73242,0.66479 2.04939,1.38156 0.61096,1.38156 -0.51754,0 -1.21592,-0.44485 -1.55194,-0.98855 z m 9.69416,2.18889 c -0.11068,-3.46481 -0.86396,-7.58123 -1.67396,-9.14759 -1.56694,-3.03013 -8.64058,-7.05275 -12.40202,-7.05275 -1.28541,0 -1.9713,-0.4401 -1.6063,-1.03068 0.76646,-1.24016 6.82282,-0.28826 10.72162,1.68514 4.77114,2.41494 5.88589,5.24749 5.50468,13.98719 -0.32858,7.533 -0.3511,7.59753 -0.54402,1.55869 z m -37.2026,-9.60533 -0.001,-3.09501 5.34235,0.33333 c 4.95272,0.30902 5.53629,0.10286 8.00137,-2.82672 3.01367,-3.58156 3.29413,-5.87775 1.21012,-9.90777 -1.90209,-3.67825 -5.2445,-5.77358 -13.91285,-8.72187 -9.54844,-3.24751 -9.63863,-3.10966 -9.63863,14.73083 l 0,13.72553 2.75,0.95285 c 3.59701,1.24632 6.2505,-0.95811 6.24864,-5.19117 z m -6.74864,3.74271 c -0.90888,-0.36674 -1.25,-4.00727 -1.25,-13.34045 l 0,-12.83606 3.75,1.02277 c 8.28117,2.25858 14.39365,5.91558 15.89551,9.51002 2.80343,6.70957 -0.78447,9.49189 -9.84637,7.63558 -2.64553,-0.54193 -5.0326,-0.76279 -5.3046,-0.49079 -0.272,0.272 -0.49454,2.44454 -0.49454,4.82788 0,4.27598 -0.29033,4.66355 -2.75,3.67105 z m 13.71013,-11.78968 c 2.64895,-3.19179 -1.32208,-7.91033 -7.71013,-9.16149 -3.23137,-0.6329 -3.25,-0.61361 -3.25,3.36601 0,4.1376 1.06327,5.67907 4.5,6.52383 3.69262,0.90766 5.24789,0.73231 6.46013,-0.72835 z m -5.46013,-0.26111 c -2.92994,-0.70474 -4.28947,-2.28966 -1.95,-2.27328 3.04855,0.0213 6.45,1.13037 6.45,2.10298 0,0.92681 -1.17065,0.97112 -4.5,0.1703 z m 0.25,-2.97626 c -0.9625,-0.25152 -1.75,-1.32432 -1.75,-2.38399 0,-2.32333 0.27888,-2.35094 4.04966,-0.401 4.82667,2.49597 3.36554,4.26547 -2.29966,2.78499 z m -4.125,-1.10842 c -0.27117,-0.43876 -0.0927,-1.44558 0.39672,-2.23739 0.67091,-1.08556 0.84829,-0.88935 0.72121,0.79775 -0.18286,2.42756 -0.36356,2.66025 -1.11793,1.43964 z m -0.15695,12.69709 c -0.3667,-1.15537 -0.17202,-2.59537 0.43261,-3.2 0.79912,-0.79912 1.09934,-0.22544 1.09934,2.10066 0,3.69357 -0.57713,4.10772 -1.53195,1.09934 z m 15.29486,-12.26336 c -1.95419,-4.10583 -5.90854,-6.86563 -13.26291,-9.25641 -5.49692,-1.78695 -7.93255,-3.37957 -5.16845,-3.37957 2.44833,0 13.43454,3.80063 16.17312,5.59501 2.58328,1.69264 4.84445,6.37198 4.33389,8.96871 -0.23763,1.20861 -0.85639,0.63394 -2.07565,-1.92774 z m 467.73708,195.69162 c -3.3,-0.17068 -7.8891,-0.56328 -10.198,-0.87244 -3.7945,-0.50809 -4.1213,-0.76929 -3.4005,-2.71793 0.7803,-2.10922 1.1736,-2.15003 18.198,-1.88797 9.5703,0.14731 20.7715,-0.22227 24.8916,-0.82129 6.7041,-0.97472 7.6233,-0.90826 8.75,0.63258 0.6924,0.94694 1.2589,2.03069 1.2589,2.40833 0,1.76002 -26.3873,3.93695 -39.5,3.25872 z m -19,-1.82465 c -0.55,-0.18654 -2.6875,-0.62141 -4.75,-0.96637 -4.0425,-0.67613 -4.3591,-1.15262 -2.4409,-3.67314 1.061,-1.39416 2.0839,-1.4921 6.9063,-0.66126 5.5101,0.94931 5.6316,1.0395 4.5622,3.38655 -1.0394,2.28133 -1.9689,2.69725 -4.2776,1.91422 z m 58.88,-2.95506 c -0.8837,-2.303 0.3227,-3.32187 4.8366,-4.08449 2.3134,-0.39084 6.8277,-1.57124 10.0319,-2.6231 6.2562,-2.05381 8.7147,-1.71174 6.5501,0.91135 -1.0868,1.31688 -1.0539,1.48829 0.2014,1.05074 0.825,-0.28757 1.4101,-1.38798 1.3003,-2.44535 -0.1597,-1.53698 1.7655,-2.77341 9.6004,-6.1658 8.8766,-3.84345 13.0993,-4.54294 13.0993,-2.1699 0,1.441 -20.6559,11.11737 -24.3592,11.41122 -1.9778,0.15692 -4.2556,0.83283 -5.062,1.50201 -1.5689,1.30208 -10.9097,4.0339 -13.8602,4.05356 -0.9797,0.007 -2.0321,-0.64158 -2.3386,-1.44024 z m -73.87999,-0.25532 c -17.6821,-4.20322 -37.87336,-14.89553 -48.36938,-25.61403 -7.44395,-7.60174 -5.72867,-9.15951 2.44773,-2.22298 13.09361,11.10811 27.30065,17.90549 49.18434,23.53233 3.8074,0.97897 4.1508,1.3052 3.2148,3.05408 -1.0278,1.92046 -2.48,2.20085 -6.47749,1.2506 z M 1117.781,899.63247 c -1.6856,-1.23253 -1.5518,-1.48342 1.866,-3.5 6.5193,-3.84647 9.7777,-2.09545 4.1245,2.21644 -3.9986,3.0499 -3.6709,2.97968 -5.9905,1.28356 z m 8.0721,-6.36705 c -0.3821,-0.38212 2.1174,-3.53212 5.5544,-7 10.0868,-10.17725 11.3758,-7.22425 1.5596,3.57288 -3.5919,3.95085 -5.6155,4.92568 -7.114,3.42712 z m 13.3614,-14.81762 c 0,-1.23423 3.4159,-6.48763 4.2185,-6.48763 1.1835,0 -1.6241,6.30185 -3.0139,6.76515 -0.6626,0.22083 -1.2046,0.096 -1.2046,-0.27752 z m 4.7312,-9.56779 c 0.3536,-1.3522 0.8069,-1.8055 1.0566,-1.05655 0.2404,0.72144 -0.038,1.78716 -0.6194,2.36826 -0.742,0.74207 -0.8722,0.35164 -0.4372,-1.31171 z m -120.2312,-9.87254 c -33.63909,-2.97263 -64.30844,-17.29939 -79.30731,-37.0473 -3.55075,-4.675 -7.40918,-8.78059 -8.57429,-9.12354 -1.16511,-0.34294 -14.71839,-4.55773 -30.11839,-9.3662 -15.4,-4.80847 -30.7,-9.53892 -34,-10.5121 -3.3,-0.97319 -24.225,-7.41952 -46.5,-14.32518 -100.59591,-31.18659 -163.81807,-50.74218 -217,-67.12143 -18.975,-5.84402 -37.2,-11.47199 -40.5,-12.5066 -3.3,-1.0346 -31.65,-9.81581 -63,-19.51379 -31.35,-9.69799 -69.825,-21.62149 -85.5,-26.49667 -15.675,-4.87518 -36.6775,-11.37639 -46.67223,-14.44713 l -18.17223,-5.58317 -15.82777,1.74791 c -58.62555,6.47417 -112.79143,-15.13913 -124.03662,-49.49316 -2.5801,-7.8822 -2.64905,-8.62543 -1.58342,-17.06783 0.97422,-7.71828 1.69058,-9.77625 5.70426,-16.38731 10.01509,-16.49622 29.44423,-29.03887 56.1841,-36.27016 l 14.09609,-3.81201 9.40391,-11.07747 c 5.17215,-6.09261 20.5853,-24.14247 34.25145,-40.11081 13.66615,-15.96834 26.76667,-31.28335 29.11227,-34.03335 15.75005,-18.4655 38.89091,-45.56406 69.59706,-81.5 47.92849,-56.09153 71.96308,-84.24624 93.83079,-109.91564 10.11321,-11.8714 20.51963,-24.05936 23.12539,-27.08436 40.05542,-46.50007 41.23132,-47.98842 40.13824,-50.80339 -0.57591,-1.48314 -1.93681,-5.67224 -3.0242,-9.30912 -4.5339,-15.16396 2.0649,-32.8228 17.06982,-45.68002 8.64424,-7.406955 24.07684,-15.921325 34.58227,-19.079505 3.69645,-1.11124 9.19582,-2.74884 12.22082,-3.63911 3.025,-0.89028 12.025,-2.39043 20,-3.33369 37.7503,-4.46496 76.26234,3.79959 101.20064,21.7173 7.82272,5.620475 10.23722,8.158055 18.53654,19.481355 1.23045,1.67878 2.80545,3.35932 3.5,3.73454 0.69455,0.37521 12.51282,4.14626 26.26282,8.38009 27.15967,8.36289 52.6955,16.25335 128,39.55146 26.95,8.33793 51.7,15.98406 54.99999,16.9914 3.3,1.00734 9.825,3.01406 14.5,4.45939 4.675,1.44533 11.2,3.45256 14.5,4.46051 3.3,1.00795 43.35,13.39936 89,27.53647 85.0473,26.33785 149.5183,46.29669 217.5783,67.35758 l 38.5784,11.93791 15.4216,-1.82071 c 20.6459,-2.43749 36.5694,-1.80233 55.3965,2.20967 36.8089,7.84392 61.9903,25.37718 68.878,47.95816 2.4686,8.09332 2.5129,8.69382 1.246,16.89068 -2.6675,17.25867 -15.0887,31.71133 -36.47,42.43442 -9.6063,4.81777 -32.4978,12.56461 -37.1276,12.56461 -0.8591,0 -11.4484,11.56997 -23.5316,25.71104 -39.4317,46.14699 -46.9064,54.90247 -51.4696,60.28916 -2.475,2.92163 -11.475,13.4576 -20,23.41326 -8.525,9.95566 -32.375,37.87535 -53,62.04377 -20.625,24.16841 -46.7448,54.76512 -58.0441,67.99267 -11.2992,13.22756 -29.7665,34.8501 -41.0384,48.0501 -11.2719,13.2 -28.4078,33.26337 -38.0798,44.58527 l -17.5855,20.58526 2.956,8.91474 c 2.8701,8.65594 2.9236,9.17147 1.8431,17.75899 -1.523,12.10475 -6.8232,21.3296 -17.7951,30.97218 -13.4825,11.84892 -38.6099,22.46244 -60.7562,25.6627 -9.9837,1.4427 -32.447,2.00071 -43,1.06816 z m 21.0547,-64.53609 c 5.2795,-1.33928 12.0355,-3.55042 15.0132,-4.91365 12.5596,-5.74998 15.5324,-8.61258 46.3084,-44.59168 28.9185,-33.80761 76.0411,-88.95934 131.2283,-153.58813 15.0675,-17.64523 41.3952,-48.47023 58.506,-68.5 17.1108,-20.02976 35.5608,-41.65899 41,-48.06495 5.4392,-6.40596 22.4894,-26.35979 37.8894,-44.34185 31.6068,-36.90624 35.9737,-42.38631 37.5272,-47.09342 0.6044,-1.83142 1.1065,-8.55919 1.1156,-14.9506 0.015,-10.51777 -0.2313,-12.12747 -2.5953,-16.95929 -3.5924,-7.3426 -13.5919,-16.48853 -22.8102,-20.86296 -4.0215,-1.90837 -20.345,-7.53777 -36.2745,-12.50977 -60.0831,-18.75345 -119.8909,-37.13491 -120.826,-37.13491 -3.198,0 -0.9562,0.71355 99.3632,31.62763 56.0568,17.27428 55.2399,16.97897 65,23.4977 6.8773,4.59336 11.1575,9.08871 14.1627,14.87467 3.0009,5.77768 3.2974,18.63082 0.5475,23.73124 -1.5426,2.86103 -12.4186,16.4568 -19.8141,24.76876 -1.468,1.65 -13.792,16.05 -27.3867,32 -23.8759,28.01256 -42.7483,50.11782 -105.4383,123.5 -16.2102,18.975 -35.8146,41.925 -43.5652,51 -7.7507,9.075 -24.6614,28.875 -37.5793,44 -12.918,15.125 -40.439,47.35796 -61.1578,71.62881 -22.1652,25.96513 -39.6896,45.61087 -42.5758,47.72949 -16.4752,12.0939 -41.7905,17.64699 -67.0499,14.7079 -6.86919,-0.79927 -15.79329,-2.89633 -26.49999,-6.22723 -8.87873,-2.76217 -18.8431,-5.83041 -22.1431,-6.81831 -7.42445,-2.22261 -95.1756,-29.37488 -117,-36.20255 -8.8,-2.75305 -18.025,-5.58362 -20.5,-6.29016 -2.475,-0.70655 -20.7,-6.32037 -40.5,-12.47516 -42.30302,-13.14982 -111.69709,-34.63395 -129.5,-40.0927 -11.77461,-3.61034 -50.58482,-15.62122 -114.5,-35.43515 -29.15093,-9.03689 -50.2843,-15.57255 -129,-39.89423 -25.85,-7.98717 -50.28826,-15.63558 -54.30725,-16.99646 -14.42711,-4.88523 -26.07571,-13.73156 -31.31919,-23.78484 -1.78319,-3.41891 -2.26144,-5.95393 -2.23544,-11.84941 0.0496,-11.24839 -2.09699,-8.19898 42.36188,-60.17841 29.44728,-34.42852 104.40935,-122.17668 125,-146.32093 8.525,-9.99628 26.975,-31.59657 41,-48.00066 14.025,-16.40409 32.475,-38.00544 41,-48.003 66.78937,-78.3262 84.37643,-98.66336 88.01451,-101.77743 14.19641,-12.15159 42.3334,-19.27186 66.10358,-16.72798 11.06601,1.18429 17.92204,2.73925 32.56934,7.38681 5.94691,1.88694 16.66257,5.23665 23.81257,7.44379 14.34222,4.42733 122.72141,37.94065 159,49.16644 12.65,3.91433 33.26821,10.28749 45.8182,14.1626 12.5501,3.8751 23.05479,6.80914 23.34379,6.5201 0.2891,-0.28905 -0.9792,-0.95674 -2.8182,-1.48377 -3.79449,-1.08738 -7.77019,-2.31063 -75.34379,-23.1818 -47.65121,-14.71783 -84.78868,-26.22166 -97,-30.04705 -80.59331,-25.24713 -96.29504,-29.7382 -108.75,-31.10504 -24.94797,-2.73787 -52.82821,4.35835 -67.02206,17.05879 -2.81984,2.52315 -21.10301,23.26254 -40.62928,46.08754 -34.09073,39.84996 -45.36876,53.05075 -102.04147,119.43813 -14.05645,16.46598 -35.39662,41.44098 -47.42259,55.5 -12.02597,14.05903 -23.77985,27.81187 -26.11973,30.56187 -5.48596,6.44751 -57.83103,67.73794 -90.01487,105.39769 -13.75,16.08949 -26.23898,31.0895 -27.7533,33.33336 -4.04029,5.98676 -4.99668,10.87094 -4.55254,23.24944 0.44182,12.31421 1.86752,16.26138 8.54196,23.64918 8.21598,9.09411 17.66254,13.81922 43.49233,21.75457 10.59935,3.2563 37.72155,11.6362 60.27155,18.622 22.55,6.98581 63.275,19.58125 90.5,27.98987 27.225,8.40862 65.025,20.11291 84,26.00952 18.975,5.89662 37.875,11.7337 42,12.97128 4.125,1.23759 28.875,8.89694 55,17.02079 26.125,8.12384 53.8,16.69269 61.5,19.04188 15.12925,4.61577 66.22432,20.41091 76,23.49405 11.82687,3.73007 78.37048,24.29076 97,29.97114 10.45,3.18634 25.75,7.92096 34,10.52139 29.5785,9.32325 36.63859,10.59826 54.72769,9.88349 7.7808,-0.30744 14.9583,-1.28291 21.327,-2.89844 z m -35.5547,1.82689 c -11.91029,-1.16321 -12.87119,-1.43492 -95.49999,-27.00264 -27.5,-8.5093 -71.15,-21.99786 -97,-29.97459 -25.85,-7.97673 -56.45,-17.44034 -68,-21.03024 -11.55,-3.5899 -30.225,-9.37105 -41.5,-12.84701 -11.275,-3.47595 -33.775,-10.43291 -50,-15.45992 -16.225,-5.027 -56.95,-17.62232 -90.5,-27.9896 -33.55,-10.36728 -79.45,-24.56672 -102,-31.55432 -22.55,-6.9876 -46.625,-14.42597 -53.5,-16.52971 -58.42336,-17.87749 -64.46562,-19.91986 -72.92113,-24.64845 -12.2807,-6.86776 -19.61884,-16.61111 -20.66364,-27.43651 l -0.5178,-5.36511 1.53015,3.31454 c 0.84158,1.823 4.29795,6.19692 7.68081,9.71982 7.4596,7.7684 18.63099,13.63659 35.89161,18.85339 6.325,1.91166 46.6,14.35367 89.5,27.64892 42.9,13.29525 80.25,24.82683 83,25.62574 2.75,0.79891 9.05,2.74704 14,4.32919 4.95,1.58215 27.45,8.56128 50,15.50919 22.55,6.9479 47.975,14.82305 56.5,17.50031 8.525,2.67727 21.35,6.66027 28.5,8.85111 7.15,2.19084 25.6,7.88076 41,12.64428 15.4,4.76351 40.15,12.40931 55,16.99066 14.85,4.58135 36.675,11.33019 48.5,14.99742 11.825,3.66722 36.8,11.39346 55.5,17.1694 18.7,5.77595 46.375,14.32652 61.5,19.00128 15.125,4.67476 31.775,9.81842 37,11.43036 25.42339,7.84323 49.75379,7.93162 71.34959,0.25919 17.1437,-6.09071 20.163,-8.77529 52.1504,-46.36842 4.4,-5.17109 13.3743,-15.71872 19.943,-23.43918 13.9573,-16.40473 44.3284,-51.97112 70.557,-82.62646 10.175,-11.8923 23.2559,-27.19976 29.0688,-34.01656 5.8128,-6.8168 38.8303,-45.46918 73.3721,-85.89418 117.2692,-137.24233 109.3604,-127.87411 111.8588,-132.5 l 1.6202,-3 0.03,4 c 0.054,7.18745 -3.9597,13.27237 -25.1065,38.05912 -11.2339,13.16748 -40.1853,47.11588 -64.3366,75.44088 -24.1513,28.325 -58.3507,68.375 -75.9986,89 -17.6479,20.625 -42.4194,49.61303 -55.0478,64.41784 -12.6284,14.80481 -33.7607,39.56389 -46.9607,55.02017 -13.2,15.45627 -33.9788,39.79325 -46.1751,54.08215 -23.5512,27.59206 -27.5698,31.21205 -40.8273,36.77713 -13.585,5.70271 -33.1358,8.54108 -48.4973,7.04081 z m 94.4322,-251.8381 c 1.4683,-1.925 2.4613,-3.5 2.2067,-3.5 -2.1255,0 -15.9845,-3.11458 -17.5231,-3.93804 -8.1415,-4.3572 -6.5185,-12.76084 3.402,-17.61447 4.8347,-2.36542 6.3889,-2.64853 12.046,-2.19443 4.1532,0.33338 8.3776,1.46467 11.7157,3.13743 l 5.2205,2.61606 2.8069,-3.08269 c 1.5437,-1.69548 2.6322,-3.60945 2.4187,-4.25328 -0.2134,-0.64382 -3.5015,-2.51506 -7.3068,-4.15832 -6.4593,-2.78932 -7.749,-2.98759 -19.4188,-2.98531 -11.2332,0.002 -13.0067,0.25063 -17.5,2.45136 -2.75,1.3469 -7.0998,4.59412 -9.6663,7.21604 -7.0822,7.2352 -7.5927,13.74374 -1.5375,19.60304 5.2159,5.04713 17.9346,9.93137 26.3351,10.11319 3.595,0.0778 4.4779,-0.36497 6.8009,-3.41058 z m -13.4024,0.91653 c -5.0521,-2.19131 -7.0298,-4.34433 -7.0298,-7.65308 l 0,-2.92657 3.25,2.00613 c 2.9109,1.79679 5.8015,2.68649 15.0272,4.62514 2.7497,0.57783 2.7596,0.60771 1,3.0263 -2.1075,2.89671 -6.8685,3.25516 -12.2474,0.92208 z m -13.0596,-4.16653 c -6.6036,-3.45358 -9.4247,-7.1172 -9.4247,-12.23908 0,-6.16749 4.5691,-11.78591 12.9907,-15.97411 6.0814,-3.02436 8.1279,-3.5143 16.1508,-3.86653 7.4132,-0.32545 10.5793,0.0195 16.3975,1.78677 3.9658,1.20456 8.2982,2.90285 9.6278,3.77398 2.3997,1.5724 2.4031,1.59804 0.4598,3.54135 -1.9433,1.94331 -2.0035,1.94113 -8.3148,-0.30097 -8.8032,-3.12736 -22.9661,-3.17533 -30.9366,-0.10479 -5.8787,2.26469 -13.1859,7.83254 -15.0552,11.4716 -0.6108,1.18898 0.4724,0.34543 2.407,-1.87456 3.6746,-4.21654 11.7473,-8.73944 17.7275,-9.93221 l 3.5,-0.69809 -3.7391,2.612 c -2.0566,1.4366 -4.4191,3.92674 -5.25,5.53366 -2.1082,4.07666 -2.0182,14.80289 0.1441,17.19224 2.5332,2.79916 -0.324,2.40541 -6.6848,-0.92126 z m -159.03718,-5.66928 c 0.92969,-1.12021 0.79745,-1.66031 -0.62756,-2.56312 -1.54169,-0.97674 -1.4037,-1.05879 0.94455,-0.56167 4.28264,0.90663 3.23238,-1.10888 -1.5,-2.87858 -2.49982,-0.93482 -3.01458,-1.31591 -1.25,-0.9254 4.7012,1.04041 7.77072,0.94635 8.18534,-0.25081 0.22094,-0.63796 -3.48298,-2.20178 -8.83081,-3.72842 -5.06626,-1.44626 -9.65131,-3.0695 -10.18901,-3.6072 -0.63685,-0.63685 0.2968,-2.38829 2.67842,-5.02446 2.01083,-2.22575 3.65606,-4.42002 3.65606,-4.87616 0,-0.45614 -1.52538,-1.29749 -3.38972,-1.86967 -3.32035,-1.01905 -3.49432,-0.92151 -8.5,4.76523 -5.09022,5.78278 -6.16149,7.93954 -3.94361,7.93954 0.64166,0 0.9164,0.25026 0.61052,0.55614 -1.02724,1.02724 -24.86473,-6.88563 -24.39901,-8.09927 0.24316,-0.63368 -0.54524,-4.70821 -1.75201,-9.05451 -1.86544,-6.71859 -2.62837,-8.11091 -5.09297,-9.29455 -3.24999,-1.56083 -5.16429,-1.21556 -21.0332,3.79366 l -9,2.84096 3.5,1.58964 c 6.22853,2.8289 1.82677,1.76055 -13.5,-3.27659 -8.25,-2.71136 -13.6972,-4.84554 -12.10489,-4.74261 1.59231,0.10292 3.08447,-0.35186 3.31591,-1.01062 0.26582,-0.75658 -2.73428,-2.16011 -8.1451,-3.81051 -4.71126,-1.43702 -8.56592,-2.98044 -8.56592,-3.42981 0,-1.3126 2.7674,-3.24856 3.15275,-2.20554 0.41455,1.12202 13.01973,5.12495 14.09725,4.47675 2.25246,-1.355 -0.0332,-3.13014 -6.20859,-4.8218 -5.19984,-1.42442 -6.70519,-2.21154 -5.956,-3.11426 0.77172,-0.92986 2.85771,-0.63834 9.05871,1.26601 7.54867,2.31821 10.85588,2.49722 10.85588,0.58759 0,-0.44665 -5.51203,-2.52713 -12.24895,-4.62327 l -12.24896,-3.81118 -5.22512,5.84188 c -2.87381,3.21304 -5.09712,6.26089 -4.94067,6.773 0.15644,0.5121 1.83227,1.49037 3.72407,2.17392 1.8918,0.68355 3.03048,1.27705 2.53042,1.31889 -0.93468,0.0782 -13.05133,-3.59919 -38.76276,-11.76448 l -14.67196,-4.65944 3.17196,-3.73592 3.17197,-3.73592 4.60895,5.77485 c 3.31888,4.15843 5.68385,6.10474 8.44915,6.95344 4.93054,1.51323 5.44008,0.89486 2.119,-2.5716 -1.47241,-1.53686 -2.6771,-3.10716 -2.6771,-3.48957 0,-0.3824 1.9699,-0.69528 4.37756,-0.69528 2.80923,0 4.85761,-0.57843 5.7175,-1.61454 1.15266,-1.38887 0.96926,-1.93338 -1.3121,-3.89573 -2.54547,-2.18952 -19.54912,-8.48973 -22.91295,-8.48973 -1.53931,0 -10.87001,10.32775 -10.87001,12.03155 0,0.44098 1.2375,1.29198 2.75,1.8911 l 2.75,1.08931 -2.98136,-0.5831 c -1.63974,-0.3207 -3.21474,-0.66089 -3.5,-0.75598 -0.28525,-0.0951 -0.60158,0.1987 -0.70295,0.65286 -0.10138,0.45415 -1.10569,1.62484 -2.23182,2.60152 -2.21957,1.92502 -1.81513,3.07274 1.0828,3.07274 1.16666,0 1.83333,-0.72727 1.83333,-2 0,-2.43167 -0.63631,-2.44218 7.64466,0.12625 5.99979,1.8609 6.56409,2.23515 4.52159,2.99876 -3.13776,1.17309 -2.21323,3.37499 1.41708,3.37499 2.16402,0 2.88083,-0.45159 2.77778,-1.75 -0.16457,-2.07354 -0.17056,-2.0728 4.77287,-0.59171 3.86761,1.15876 4.74425,2.1809 2.86602,3.34171 -1.33805,0.82696 -1.2754,2.5 0.0936,2.5 0.60149,0 1.33563,-0.92545 1.63142,-2.05656 0.34491,-1.31894 1.07484,-1.85047 2.03513,-1.48198 0.82354,0.31602 3.4357,1.06267 5.8048,1.65922 3.99774,1.00664 4.24193,1.25701 3.396,3.48197 -0.99255,2.6106 0.28352,3.19091 3.03903,1.38204 1.33333,-0.87528 1.33333,-1.0941 0,-1.96938 -2.06844,-1.35784 -0.19513,-1.13085 4,0.48469 2.60981,1.00503 2.95495,1.36719 1.35699,1.42392 -2.89112,0.10264 -3.82878,2.79157 -1.25797,3.60751 2.15461,0.68384 5.22815,-1.19304 4.33095,-2.64474 -0.65178,-1.05461 1.3011,-1.04703 4.01648,0.0156 1.85785,0.72704 1.84647,0.78786 -0.25,1.3361 -1.20803,0.3159 -2.19643,1.31806 -2.19643,2.22701 0,0.9579 0.46738,1.36378 1.1118,0.9655 0.6115,-0.37792 1.5115,-0.067 2,0.69098 0.74508,1.15606 1.04764,1.13642 1.8777,-0.12188 0.54422,-0.825 0.78121,-2.06806 0.52664,-2.76237 -0.33502,-0.91369 0.27579,-1.07697 2.21141,-0.59116 5.32179,1.33568 19.74201,6.23561 18.52245,6.29384 -1.34864,0.0644 -1.78277,4.05969 -0.44113,4.05969 0.44488,0 1.68238,-0.66069 2.75,-1.4682 3.05233,-2.30866 5.14775,-1.97009 2.93558,0.47433 -0.99854,1.10337 -1.47954,2.34087 -1.06891,2.75 0.41064,0.40913 1.59056,-0.29709 2.62204,-1.56937 1.87529,-2.31307 1.87579,-2.31311 7.33133,-0.59341 5.3695,1.69259 5.42253,1.74685 3.34845,3.42634 l -2.10746,1.70652 2.27201,1.21594 c 1.9222,1.02873 2.47721,0.93531 3.6048,-0.60677 1.00152,-1.36966 1.04329,-2.03227 0.16805,-2.66579 -1.70515,-1.23423 -0.38559,-0.8558 34.58524,9.91854 l 31.75,9.78202 0,2.79349 c 0,2.64036 0.14151,2.72901 2.58166,1.6172 l 2.58165,-1.17628 -2.22684,-0.82376 c -3.88652,-1.43772 -1.53845,-1.74754 3.02728,-0.39944 3.60188,1.06351 3.99617,1.39586 2.21012,1.86292 -2.70918,0.70847 -2.84686,3.34647 -0.21064,4.03585 2.28481,0.59749 4.55285,-1.63608 3.45881,-3.40626 -0.52389,-0.84768 -0.22359,-1.01169 0.9957,-0.54381 0.96021,0.36847 2.22877,0.66994 2.81904,0.66994 0.59026,0 0.32845,0.82293 -0.58179,1.82874 -2.06104,2.27742 -2.13225,3.56838 -0.15499,2.80963 0.825,-0.31658 1.5,-0.13972 1.5,0.39301 0,1.42254 1.57985,1.1798 2.93301,-0.45066 z m 0.067,-7.58837 c -1.375,-0.46737 -7.1374,-2.26823 -12.80534,-4.00192 -11.49101,-3.51481 -11.21055,-2.84622 -4.29567,-10.24043 3.49072,-3.73269 5.44404,-4.45357 7.87962,-2.90799 0.94295,0.59838 0.18864,2.04968 -2.87322,5.52813 -2.28351,2.59421 -3.94272,4.92586 -3.68713,5.18146 0.2556,0.25559 5.14855,1.99013 10.87323,3.85454 5.72468,1.8644 9.73351,3.40021 8.90851,3.4129 -0.825,0.0127 -2.625,-0.35933 -4,-0.82669 z m -15,-2.49235 c -1.925,-0.74131 -2.825,-1.34784 -2,-1.34784 0.825,0 3.075,0.60653 5,1.34784 1.925,0.74131 2.825,1.34784 2,1.34784 -0.825,0 -3.075,-0.60653 -5,-1.34784 z m -50,-15.40552 -11.5,-3.70921 4.92814,-1.69263 c 5.59813,-1.92276 6.9358,-2.09053 6.11802,-0.76733 -0.31452,0.50891 1.90892,1.64648 4.94099,2.52793 4.31705,1.255 5.51285,2.03738 5.51285,3.60692 0,1.14389 0.96588,2.39252 2.25,2.90868 5.50467,2.2126 -1.77223,0.50515 -12.25,-2.87436 z m 13.70192,2.05528 c -0.98894,-0.39031 -2.35204,-1.82118 -3.02911,-3.17971 -0.86588,-1.73737 -2.48307,-2.73467 -5.45192,-3.36213 -2.32149,-0.49065 -4.22089,-1.24673 -4.22089,-1.6802 0,-0.43346 1.45953,-0.36952 3.2434,0.14209 5.31265,1.52364 6.058,1.26722 5.28372,-1.81776 -0.37933,-1.51137 -0.83599,-2.89426 -1.01481,-3.07307 -0.17882,-0.17882 -4.07974,0.87565 -8.66872,2.34326 -8.31751,2.66005 -12.3664,3.28829 -13.55192,2.10276 -1.0283,-1.02829 -0.20308,-1.37369 11.05202,-4.62587 14.07274,-4.06634 15.33377,-3.70789 17.78384,5.05509 2.59916,9.29617 2.53529,9.65883 -1.42561,8.09554 z m -8.95192,-8.83909 c -1.8038,-0.47138 -2.4659,-2.31067 -0.83179,-2.31067 0.50502,0 1.57088,-0.25045 2.36858,-0.55656 0.9062,-0.34774 1.65215,0.21505 1.98817,1.5 0.53924,2.06205 -0.0265,2.28148 -3.52496,1.36723 z m -56.08464,-8.99682 c -2.65905,-0.81285 -4.64301,-1.66953 -4.4088,-1.90374 0.2342,-0.23421 3.08479,0.43277 6.33463,1.48218 3.24985,1.0494 5.23381,1.90609 4.40881,1.90374 -0.825,-0.002 -3.67559,-0.66932 -6.33464,-1.48218 z m 9.33464,0.66268 c -1.375,-0.47607 -6.4375,-2.06858 -11.25,-3.53891 -4.8125,-1.47034 -8.72983,-3.1828 -8.70519,-3.80548 0.0247,-0.62268 1.96076,-3.26881 4.30248,-5.88029 l 4.25767,-4.74815 11.69554,3.6668 c 6.43255,2.01673 11.48818,3.87416 11.23473,4.1276 -0.25345,0.25345 -4.39043,-0.76437 -9.1933,-2.26183 -8.21617,-2.56167 -8.80773,-2.61974 -10.00517,-0.98214 -0.69998,0.95728 -0.99258,2.19375 -0.65022,2.7477 0.34236,0.55395 0.16836,0.72653 -0.38667,0.3835 -0.55503,-0.34303 -2.01686,0.44897 -3.24851,1.76 -2.12998,2.26726 -2.14929,2.42831 -0.39536,3.29732 1.0142,0.50249 4.769,1.74203 8.344,2.75453 3.575,1.0125 6.9275,2.21484 7.45,2.67186 1.19206,1.04269 -0.0889,0.97121 -3.45,-0.19251 z m -1.5,-7.13471 c -1.65,-0.55015 -3.62691,-1.20022 -4.39313,-1.44459 -0.76622,-0.24437 -1.19715,-0.64029 -0.95761,-0.87982 0.23953,-0.23953 3.11644,0.40501 6.39312,1.43232 3.27669,1.02731 5.05762,1.87336 3.95762,1.88011 -1.1,0.007 -3.35,-0.43786 -5,-0.98802 z m -49.79962,-8.6926 c -1.81435,-0.71602 -9.02301,-9.15993 -8.374,-9.80894 0.19212,-0.19211 1.73562,0.13398 3.43002,0.72464 3.58301,1.24905 9.7436,0.89186 9.7436,-0.56492 0,-1.36726 -6.63714,-4.50563 -10.68823,-5.05392 -2.94997,-0.39926 -3.69413,0.0369 -6.81177,3.99207 -2.5409,3.22354 -4.23741,4.45696 -6.19098,4.50108 -1.48004,0.0334 -2.9258,-0.31916 -3.21279,-0.78352 -0.65281,-1.05627 7.48459,-11.02065 9.06359,-11.09851 0.63791,-0.0315 5.36291,1.31563 10.5,2.99353 15.31445,5.00207 17.82153,8.05134 7.35801,8.94927 l -5.82647,0.5 2.74321,3.25 c 2.68799,3.18457 2.14819,3.93138 -1.73419,2.39922 z m -7.04715,-10.55133 c -3.44159,-1.0668 -3.67304,-1.33657 -2.19745,-2.5612 1.40342,-1.16474 2.46144,-1.1128 7.09676,0.34835 2.9961,0.94444 5.44745,2.14417 5.44745,2.66606 0,1.26868 -5.58038,1.02425 -10.34676,-0.45321 z m 306.33055,47.39834 c 7.416,-8.74434 13.6183,-16.30255 13.7828,-16.79604 0.1645,-0.49348 -2.7156,-1.8869 -6.4003,-3.09649 -5.4586,-1.79193 -6.9179,-1.95889 -7.8792,-0.90147 -1.0575,1.16319 -22.8606,26.87301 -26.242,30.94406 -1.2235,1.47305 -0.7559,1.85935 4.4438,3.67105 3.1961,1.11362 6.4861,2.03667 7.3111,2.05122 0.825,0.0145 7.5677,-7.128 14.9838,-15.87233 z m -17.4838,14.2907 c -1.1,-0.26458 -2.344,-0.80391 -2.7645,-1.19852 -0.4205,-0.3946 4.0264,-6.31342 9.882,-13.15293 9.1388,-10.67443 11.0127,-12.38989 13.2318,-12.11357 5.5126,0.68642 5.1842,1.47336 -6.0213,14.42809 -6.0656,7.0125 -11.3208,12.6978 -11.6782,12.634 -0.3574,-0.0638 -1.5498,-0.33248 -2.6498,-0.59707 z m -8.3262,-3.30847 c 0.1873,-0.56184 5.9623,-7.62723 12.8334,-15.70087 11.3343,-13.31809 12.5224,-14.42647 12.8117,-11.95243 0.2593,2.21657 -1.5187,4.88932 -9.5,14.28129 -5.4004,6.3549 -10.3185,12.19319 -10.9291,12.97396 -1.2632,1.6151 -5.7354,1.95639 -5.216,0.39805 z m 29.5762,-24.14074 c -2.1419,-0.78227 -2.75,-1.64939 -2.75,-3.92105 0,-3.39496 0.8176,-3.5389 7.387,-1.30047 l 4.7433,1.6162 -2.2395,2.3838 c -2.4484,2.60629 -3.062,2.71124 -7.1408,1.22152 z m -167.74999,25.16228 c 0,-1.1 -0.6382,-2 -1.41821,-2 -2.10887,0 -4.58179,1.09966 -4.58179,2.03744 0,0.7075 0.99579,1.05392 5.25,1.82638 0.4125,0.0749 0.75,-0.76382 0.75,-1.86382 z m -8,-1 c 0,-0.55 -0.43588,-1 -0.96862,-1 -0.53273,0 -0.70959,-0.675 -0.39301,-1.5 0.7296,-1.90131 -1.01497,-1.95608 -2.57138,-0.0807 -0.93044,1.12111 -0.7986,1.63993 0.62756,2.46959 2.30119,1.33869 3.30545,1.37245 3.30545,0.11111 z m -6.25,-4.25 c -0.22917,-0.6875 -1.46667,-1.25 -2.75,-1.25 -1.28333,0 -2.52083,0.5625 -2.75,1.25 -0.27485,0.82456 0.66111,1.25 2.75,1.25 2.08889,0 3.02485,-0.42544 2.75,-1.25 z m -7.82389,-1.16097 c 0.75526,-0.91003 0.81654,-1.63004 0.17262,-2.02801 -0.54911,-0.33937 -1.48679,0.29557 -2.08374,1.41097 -1.23454,2.30676 0.14037,2.75067 1.91112,0.61704 z m 154.30848,-10.65574 c 5.646,-6.63669 10.6652,-13.23605 11.1538,-14.66524 2.8325,-8.28478 -11.5004,-16.25531 -26.9944,-15.0116 -6.1553,0.49409 -6.3552,0.43704 -5.8279,-1.66363 0.4753,-1.89405 -0.1318,-2.39197 -4.6966,-3.85173 -3.81029,-1.2185 -5.59819,-1.38125 -6.54459,-0.59577 -4.0633,3.37222 -27.45096,32.12217 -26.70766,32.83113 0.8063,0.76905 10.84696,4.02355 12.41336,4.02355 0.3671,0 5.0687,-5.175 10.4479,-11.5 9.36569,-11.01241 9.95499,-11.5085 13.90089,-11.70056 10.8067,-0.526 17.6206,1.48761 17.6206,5.20711 0,1.07536 -4.0414,6.66306 -8.9809,12.41711 -4.9395,5.75406 -9.102,10.9927 -9.25,11.64142 -0.2655,1.16392 8.0974,4.70693 11.4655,4.85742 1.036,0.0463 5.8691,-4.78251 12,-11.98921 z m -14.9846,10.36098 c -1.2375,-0.23836 -2.25,-0.86766 -2.25,-1.39846 0,-0.5308 2.925,-4.39317 6.5,-8.58305 l 6.5,-7.61796 0,-6.3474 c 0,-7.37983 0.2742,-7.51003 7.8579,-3.7309 3.8778,1.93239 5.1711,3.10276 4.9464,4.47629 -0.3918,2.39445 -18.6901,23.95097 -20.1782,23.77103 -0.6193,-0.0749 -2.1386,-0.3312 -3.3761,-0.56955 z m -6.55,-2.13677 c -1.5311,-0.61139 -0.4853,-2.26427 7,-11.06334 8.0832,-9.50198 8.8263,-10.12578 9.1223,-7.65853 0.3515,2.92976 -1.5165,5.74024 -9.4729,14.25251 -3.6629,3.91878 -5.2898,5.01228 -6.6494,4.46936 z m -29.44999,-9.17672 c -1.2375,-0.50398 -2.25,-1.19671 -2.25,-1.53939 0,-0.34268 4.7754,-6.23598 10.612,-13.09622 7.2201,-8.48636 11.0854,-12.29153 12.0929,-11.9049 0.8145,0.31254 2.5641,0.84012 3.88799,1.1724 2.5819,0.64802 3.3617,3.38733 0.9643,3.38733 -0.7936,0 -5.79799,5.0625 -11.12099,11.25 -5.323,6.1875 -10.1862,11.33935 -10.8072,11.44855 -0.6209,0.1092 -2.1415,-0.21379 -3.379,-0.71777 z m -7.54969,-3.36635 c 0.43983,-0.76207 4.39969,-5.55741 8.79969,-10.65631 4.4,-5.09891 9.7863,-11.42962 11.9695,-14.06826 3.8979,-4.71094 5.861,-4.93006 4.7408,-0.52916 -0.2995,1.17661 -5.2895,7.6518 -11.0891,14.3893 -7.8908,9.16705 -11.1329,12.25 -12.8825,12.25 -1.71059,0 -2.12346,-0.37187 -1.53839,-1.38557 z m 65.13958,-12.66403 c -3.2189,-2.40347 -16.2774,-5.93315 -23.8399,-6.44387 -4.5131,-0.30478 -5.5,-0.69758 -5.5,-2.18898 0,-3.04586 11.6436,-4.11689 20.042,-1.84355 7.2779,1.97004 13.458,6.74313 13.458,10.39408 0,2.61766 -0.7449,2.6324 -4.1601,0.0823 z m -34.83989,-10.83938 c -1.9007,-0.52431 -2.5751,-1.45923 -2.8134,-3.90032 -0.1723,-1.76588 0.098,-3.2107 0.6008,-3.2107 0.8733,0 7.40029,2.05536 7.99999,2.51923 0.4889,0.37814 -2.0724,5.48686 -2.6979,5.38109 -0.3242,-0.0548 -1.7145,-0.41001 -3.08949,-0.7893 z m -130.55887,36.35718 c 1.06762,-0.80751 1.44193,-1.4682 0.83179,-1.4682 -0.61014,0 -1.82115,-0.27314 -2.69113,-0.60699 -1.13395,-0.43514 -1.58179,-0.0104 -1.58179,1.5 0,2.46334 0.77376,2.59268 3.44113,0.57519 z m -8.18421,-1.21589 c -0.62951,-0.20984 -0.8967,-1.02745 -0.59375,-1.81692 0.70977,-1.84965 -1.06533,-1.86066 -2.59618,-0.0161 -0.93016,1.12078 -0.80267,1.62926 0.6062,2.41771 0.98125,0.54913 2.22154,0.72807 2.7562,0.39763 0.58914,-0.3641 0.52119,-0.75109 -0.17247,-0.98231 z m -5.4488,-3.16166 c 0.31333,-0.9501 -0.0474,-1.2128 -1.10706,-0.80618 -0.86452,0.33175 -1.76967,0.066 -2.01145,-0.59065 -0.33442,-0.90815 -0.73582,-0.91555 -1.67748,-0.031 -0.68082,0.63957 -0.91961,1.67781 -0.53064,2.30718 0.94233,1.52473 4.74059,0.89765 5.32663,-0.8794 z m -8.39157,-1.73378 c 0.8034,-2.09362 0.45428,-2.40164 -3.00579,-2.65196 -3.63039,-0.26264 -4.71188,2.91443 -1.21921,3.5817 1.26965,0.24256 2.59781,0.50231 2.95146,0.57721 0.35366,0.0749 0.92675,-0.60323 1.27354,-1.50695 z m 42.53494,0.20158 c 0.99411,-1.19783 0.50373,-1.62806 -2.90063,-2.54475 -4.09556,-1.10282 -6.05086,-0.75462 -6.05086,1.07754 0,1.07785 3.5939,2.7467 6.12756,2.84537 0.89515,0.0349 2.16592,-0.58531 2.82393,-1.37816 z m -6.20149,-0.24778 c -0.9625,-0.25152 -1.75,-0.92681 -1.75,-1.50063 0,-0.59394 0.9691,-0.78359 2.25,-0.44033 1.2375,0.33164 2.8125,0.60913 3.5,0.61664 0.6875,0.008 1.25,0.46365 1.25,1.01365 0,1.01576 -2.08074,1.13889 -5.25,0.31067 z m -57.19113,-6.77887 c 1.67447,-1.2665 1.71196,-1.47256 0.27292,-1.5 -0.91752,-0.0175 -2.38002,-0.30494 -3.25,-0.63879 -1.13395,-0.43514 -1.58179,-0.0104 -1.58179,1.5 0,2.46013 1.81467,2.7144 4.55887,0.63879 z m -19.05887,-6.5318 c 0,-0.89299 -1.11285,-1.62805 -2.75,-1.81642 -2.65933,-0.30599 -3.78257,1.45052 -2.04115,3.19194 1.22157,1.22156 4.79115,0.19675 4.79115,-1.37552 z m -8.5,-2 c 0,-1.1 -0.6382,-2 -1.41821,-2 -2.10887,0 -4.58179,1.09966 -4.58179,2.03744 0,0.7075 0.99579,1.05392 5.25,1.82638 0.4125,0.0749 0.75,-0.76382 0.75,-1.86382 z m 161.35174,-2.8524 c 3.65654,-1.80011 6.64826,-3.67614 6.64826,-4.16896 0,-0.49282 -2.1375,0.41048 -4.75,2.00733 -2.6125,1.59686 -6.39544,3.19546 -8.40653,3.55246 l -3.65653,0.64908 4.90653,-5.09044 4.90653,-5.09044 0,-6.88087 c 0,-4.94487 -0.42884,-7.23678 -1.52417,-8.14582 -2.84386,-2.3602 -0.68324,-2.13665 4.9063,0.50762 5.45362,2.57998 9.61787,6.50726 9.61787,9.07057 0,0.70863 -1.181,2.69195 -2.62443,4.40738 -1.44344,1.71543 -2.36648,3.37691 -2.0512,3.69219 1.11296,1.11296 6.67563,-9.05771 6.67563,-12.2056 0,-4.77981 -3.8194,-9.56442 -10.46163,-13.10542 -15.94587,-8.50082 -36.77723,-6.74194 -47.86182,4.04118 -7.44248,7.24007 -8.36425,14.77059 -2.52299,20.61185 6.75765,6.75765 17.26625,10.1056 30.44818,9.70052 7.94211,-0.24406 9.94877,-0.69669 15.75,-3.55263 z m -25.07669,1.9244 c -5.10833,-1.2817 -7.98819,-3.66411 -8.48003,-7.01523 -0.24675,-1.68122 -0.35071,-3.05677 -0.23103,-3.05677 0.11968,0 2.17924,0.89012 4.57681,1.97804 8.55389,3.88143 17.43077,2.07481 24.6092,-5.00845 l 3.25,-3.2069 0,2.47077 c 0,8.41743 -13.63448,16.3703 -23.72495,13.83854 z m -12.6312,-3.55207 c -5.17306,-2.49319 -10.64385,-7.14835 -10.64385,-9.05698 0,-2.85415 6.07585,-9.22409 11.59581,-12.15709 5.72796,-3.04351 16.49656,-5.9649 11.90419,-3.22946 -3.33143,1.98436 -7.59558,6.26477 -9.08928,9.12394 -1.91057,3.65714 -1.80429,11.79274 0.19128,14.64182 0.8811,1.25795 1.43949,2.44968 1.24087,2.6483 -0.19862,0.19862 -2.53818,-0.68812 -5.19902,-1.97053 z m 9.95612,-4.99756 c -4.57934,-1.63193 -5.56393,-2.90055 -5.58466,-7.19564 -0.0469,-9.71969 15.6291,-16.39503 26.6994,-11.36946 4.93119,2.2386 6.20942,5.36348 3.96168,9.68503 -4.5153,8.68119 -15.1083,12.43239 -25.07642,8.88007 z m -21.59997,-7.30649 c 0,-2.69734 2.645,-8.11686 5.38411,-11.03185 4.22796,-4.49945 8.66308,-7.11127 14.89116,-8.76934 18.08702,-4.81521 42.72473,4.16324 42.72473,15.56971 0,2.1162 -0.2274,2.0429 -3.86917,-1.24724 -2.12805,-1.92256 -6.51555,-4.55225 -9.75,-5.84377 -5.02731,-2.00739 -7.62246,-2.34805 -17.88083,-2.34719 -14.3977,10e-4 -18.84336,1.59302 -26.55204,9.50722 -2.72138,2.79394 -4.94796,4.66705 -4.94796,4.16246 z M 834.166,496.51862 c 0.99411,-1.19783 0.50373,-1.62806 -2.90063,-2.54475 -2.25335,-0.60677 -4.53662,-0.83152 -5.07393,-0.49944 -1.77253,1.09548 -1.01696,3.33893 1.27307,3.78001 4.30622,0.82941 5.51238,0.69698 6.70149,-0.73582 z m -5.70149,-0.26418 c -1.2375,-0.23836 -2.25,-0.90086 -2.25,-1.47223 0,-1.18107 4.94458,-0.2238 6.45,1.24872 0.98899,0.96737 -0.0507,1.0227 -4.2,0.22351 z m 255.33929,-8.83799 c 2.0968,-2.55884 3.3274,-4.88821 2.817,-5.33232 -1.0432,-0.90778 -11.0746,-4.13287 -12.7711,-4.10593 -1.2461,0.0198 -7.6352,7.31855 -7.6352,8.72217 0,0.70166 10.4569,4.80082 13.1831,5.16784 0.3756,0.0506 2.3585,-1.95271 4.4062,-4.45176 z m -9.3393,1.83799 c -1.2375,-0.23836 -2.25,-0.91095 -2.25,-1.49466 0,-1.29801 6.8558,-0.3438 8.3637,1.16408 1.0735,1.07349 -1.5266,1.21408 -6.1137,0.33058 z m -6.0297,-2.13696 c -0.9896,-0.62796 -0.8031,-1.41796 0.8226,-3.48469 1.1562,-1.46994 2.5196,-2.67262 3.0297,-2.67262 1.3449,0 1.1387,4.38874 -0.2726,5.8 -1.4043,1.40426 -1.8584,1.44959 -3.5797,0.35731 z m 9.0297,-0.40406 c -2.7999,-0.89817 -3.25,-1.49984 -3.25,-4.34401 l 0,-3.30144 5.25,1.55138 c 6.986,2.06435 7.0183,2.09581 5.0015,4.86933 -1.9356,2.66181 -2.3149,2.72816 -7.0015,1.22474 z m -308.24999,1.24094 c 0,-1.31895 -4.3376,-1.9589 -5.68695,-0.83903 -1.37743,1.14316 -0.76287,3.24088 0.68695,2.34484 0.47399,-0.29294 1.15796,-0.0534 1.51993,0.53225 0.68888,1.11464 3.48007,-0.51999 3.48007,-2.03806 z m 14.99018,-6.48236 c 0.9883,-1.19082 0.96281,-1.5845 -0.12756,-1.97033 -0.74944,-0.26519 -2.56526,-0.92112 -4.03516,-1.45763 -2.03634,-0.74326 -2.96295,-0.62554 -3.8925,0.4945 -1.41056,1.69961 -1.23213,1.98076 2.10166,3.31154 3.47512,1.38718 4.54491,1.31925 5.95356,-0.37808 z m -5.49018,-0.97572 c -2.58062,-1.18164 -2.6969,-1.38503 -0.83179,-1.45489 2.76142,-0.10344 5.33179,0.87315 5.33179,2.02577 0,1.18747 -0.91281,1.07167 -4.5,-0.57088 z m -35.5,0.0313 c 0,-1.60609 -3.43681,-3.03349 -4.99105,-2.07292 -2.20063,1.36005 -0.98207,3.50551 1.99105,3.50551 1.93728,0 3,-0.50749 3,-1.43261 z M 891.8234,479.4837 c 5.87815,-1.74563 10.64111,-6.24892 10.64111,-10.06097 0,-3.35216 -3.07439,-6.4116 -10.75,-10.69773 -4.14832,-2.31646 -6,-3.95447 -6,-5.30763 0,-3.29415 9.31582,-2.47754 18.4004,1.61294 l 7.4004,3.33215 2.87614,-3.44515 c 3.45874,-4.14301 3.29847,-4.32367 -8.0131,-9.03269 -14.53683,-6.05169 -28.36276,-5.01766 -35.07132,2.62298 -2.64387,3.0112 -2.87933,3.76571 -1.98013,6.34515 0.96644,2.77233 2.54804,4.0804 12.63761,10.45195 4.9158,3.10432 5.24281,4.24601 1.68099,5.86889 -3.47539,1.58349 -11.66742,-0.17212 -19.76808,-4.23644 l -6.16291,-3.09209 -2.75,3.26979 c -1.5125,1.79839 -2.75,3.59119 -2.75,3.98402 0,1.22002 10.1583,5.70151 17.5,7.7204 8.65507,2.38005 15.62628,2.58955 22.10889,0.66443 z m -16.50056,-0.60511 c -2.41542,-0.47437 -7.25292,-2.20142 -10.75,-3.8379 -5.84167,-2.73367 -6.35833,-3.23218 -6.35833,-6.13497 0,-2.15454 0.3976,-2.98443 1.25,-2.60906 11.66741,5.13805 14.7312,6.05047 20.49876,6.10473 6.14924,0.0578 6.24878,0.10297 6.25,2.83353 9.2e-4,2.05898 -0.66045,3.02633 -2.56386,3.75 -1.4108,0.53639 -2.8733,0.92595 -3.25,0.86568 -0.37669,-0.0603 -2.66115,-0.49767 -5.07657,-0.97203 z m 11.72729,-4.8648 c 0.3802,-6.71388 0.24595,-6.90082 -8.83562,-12.30254 -3.025,-1.79927 -5.5,-3.94183 -5.5,-4.76123 0,-1.54503 7.75976,-5.9888 10.46189,-5.99119 1.2226,-10e-4 1.50872,1.17838 1.39484,5.75 -0.0788,3.16325 0.0593,4.32777 0.30691,2.58783 l 0.45018,-3.16354 6.19309,3.45339 c 7.13702,3.97975 9.69309,6.61265 9.69309,9.98446 0,2.73353 -0.68167,2.96826 -2.92126,1.00592 -0.86831,-0.76081 -4.27874,-2.82631 -7.57874,-4.58998 -3.3,-1.76368 -5.1,-2.4553 -4,-1.53694 1.1,0.91837 4.05327,2.72376 6.56281,4.01198 6.82195,3.5019 7.62272,4.8785 4.22863,7.26944 -2.49668,1.75877 -3.82226,2.30065 -9.29144,3.79823 -1.23672,0.33864 -1.44109,-0.6295 -1.16438,-5.51583 z m -32.21076,-2.33864 c -1.66016,-1.21394 -1.64307,-1.38851 0.30887,-3.15499 2.04688,-1.85239 2.06627,-1.84033 2.06627,1.28504 0,3.5975 -0.006,3.60226 -2.37514,1.86995 z m 15.37514,-18.50411 c 0,-5.5869 8.05862,-10.19275 17.85566,-10.20529 7.31282,-0.009 27.14434,6.28153 27.14434,8.61065 0,0.39946 -0.69247,1.49146 -1.53882,2.42666 -1.44228,1.59371 -2.05392,1.52107 -9.75,-1.15788 -12.93035,-4.50096 -23.79892,-3.91064 -31.46118,1.7088 -2.20148,1.61455 -2.25,1.58473 -2.25,-1.38294 z m -21.41403,4.10422 c 8.9789,-10.76267 12.41403,-15.74758 12.41403,-18.01469 0,-2.4489 -6.60817,-8.6794 -11.49834,-10.84118 -5.32813,-2.3554 -18.77801,-5.45922 -23.65659,-5.45922 -2.66361,0 -7.71511,4.0114 -7.81347,6.20469 -0.0174,0.38757 1.6559,0.95841 3.7184,1.26851 8.60587,1.29394 18.09116,3.72724 20.14968,5.16909 1.46074,1.02314 2.1352,2.43894 2.00106,4.20052 -0.38691,5.081 0.10486,9.27176 1.02153,8.70523 1.18141,-0.73015 0.29281,-10.58395 -1.10649,-12.27002 -1.43422,-1.72812 -0.78802,-1.62298 4.85131,0.78933 4.55865,1.95003 9.33291,5.49542 9.33291,6.93067 0,0.35716 -3.31237,4.51563 -7.36083,9.24103 -4.04846,4.72541 -8.33504,9.83015 -9.52574,11.34387 l -2.1649,2.75223 -4.72427,-1.53354 c -3.95953,-1.2853 -4.40051,-1.66124 -2.72426,-2.32244 3.56664,-1.40688 6.42567,-5.72562 6.46404,-9.76435 0.0336,-3.53589 0.17475,-3.71091 2.14332,-2.65736 2.7904,1.49337 3.73273,0.23611 3.16276,-4.21975 -0.43314,-3.38623 -0.9217,-3.85887 -6.48109,-6.26991 -8.01967,-3.47803 -17.29321,-4.73134 -24.98423,-3.3766 -4.99741,0.88028 -6.78894,1.78542 -10.41992,5.26451 -6.81283,6.52784 -5.65249,11.31756 3.93473,16.24207 4.39368,2.25683 6.50644,2.67165 13.9123,2.73157 6.19188,0.0501 8.87929,0.44937 9.23855,1.37259 0.27865,0.71606 0.0618,1.02701 -0.48191,0.69098 -0.5437,-0.33602 -0.98855,-0.1719 -0.98855,0.36473 0,1.10148 7.40251,3.94292 10.58597,4.0634 1.47449,0.0558 4.69903,-3.05323 11,-10.60596 z m -18.58597,3.74309 c 0,-0.55265 -2.80994,-0.70624 -6.80028,-0.3717 -7.59191,0.63647 -10.19972,-0.70784 -10.19972,-5.25791 0,-2.86774 -0.19541,-2.82599 4.34576,-0.92857 5.37544,2.246 13.79629,1.9627 17.01938,-0.57258 l 2.63486,-2.07258 0,2.89827 c 0,1.73655 -0.9277,3.76979 -2.31445,5.07258 -2.40645,2.26073 -4.68555,2.86023 -4.68555,1.23249 z m -22.5,-2.67098 c -5.82267,-2.11786 -7.79884,-3.87028 -7.04453,-6.2469 0.70938,-2.23505 7.95692,-6.1403 11.39544,-6.1403 1.9454,0 2.08057,0.25952 1.09462,2.10177 -0.61865,1.15597 -0.97199,4.30625 -0.78518,7.00062 0.18681,2.69437 0.11465,4.86305 -0.16035,4.81928 -0.275,-0.0438 -2.3,-0.73427 -4.5,-1.53447 z m 11.00116,-4.45322 c -7.58163,-2.26049 -5.86012,-7.93843 2.40383,-7.9284 5.22027,0.006 10.86173,1.37214 13.43268,3.25207 1.64439,1.2024 1.62501,1.40528 -0.33515,3.50927 -1.66596,1.7882 -3.11858,2.21596 -7.29148,2.14713 -2.86607,-0.0473 -6.56052,-0.48831 -8.20988,-0.98007 z m -20.50116,-4.79912 c 0,-2.89147 3.92353,-7.1957 8.4214,-9.23853 5.76297,-2.61741 17.33188,-2.52443 25.66344,0.20624 9.17529,3.00722 9.91516,3.53251 9.91516,7.0396 0,2.51644 -0.31639,2.94957 -1.75,2.39568 -10.4188,-4.02539 -14.38774,-4.90856 -22.33829,-4.97071 -8.00732,-0.0626 -8.94196,0.15271 -13.81645,3.18286 -6.12496,3.80749 -6.09526,3.80074 -6.09526,1.38486 z m 58.5,-8.78046 c -5.57138,-4.20907 -23.32018,-10.27262 -30.25,-10.33436 -1.8346,-0.0163 -2.25,-0.58026 -2.25,-3.05448 l 0,-3.03445 5.25,0.62653 c 15.12938,1.80551 27.60536,7.30154 29.82461,13.1386 1.26687,3.33213 0.0206,4.61881 -2.57461,2.65816 z m -36.5,-12.8544 c 0.68469,-0.825 1.56479,-1.5 1.95578,-1.5 0.39099,0 0.71089,0.675 0.71089,1.5 0,0.825 -0.8801,1.5 -1.95578,1.5 -1.62509,0 -1.74529,-0.25363 -0.71089,-1.5 z m -28.82405,9.11018 c 7.16545,-8.53298 10.82405,-13.69947 10.82405,-15.28519 0,-3.76719 -2.87867,-7.22435 -8.40565,-10.09485 -4.51167,-2.34317 -6.26144,-2.65062 -15.29816,-2.68797 -9.96238,-0.0412 -10.19097,-0.0935 -9.66142,-2.21315 0.47428,-1.8984 -0.14652,-2.38814 -4.94454,-3.90058 l -5.48692,-1.7296 -2.94922,3.40058 c -14.8796,17.1568 -25.25045,29.52293 -25.2521,30.1104 -10e-4,0.3904 3.03551,1.64878 6.74801,2.7964 6.5168,2.0145 6.80182,2.02364 8.25,0.2644 0.825,-1.0022 5.23123,-6.17331 9.79162,-11.49137 7.68513,-8.96194 8.62109,-9.71859 12.79603,-10.34467 8.54308,-1.28111 17.41235,1.49922 17.41235,5.45841 0,1.01579 -4.32547,6.87995 -9.61216,13.03146 -5.28669,6.15151 -9.40879,11.38793 -9.16023,11.63649 0.92887,0.92887 11.32738,4.30894 12.69834,4.12764 0.78428,-0.10372 6.29678,-5.989 12.25,-13.0784 z m -15.67595,11.21193 c -1.1,-0.61439 -2.16517,-1.25337 -2.36705,-1.41997 -0.20187,-0.16659 2.56587,-3.72654 6.15054,-7.91098 6.83825,-7.98239 8.38413,-12.321 6.64275,-18.64328 -0.70509,-2.5599 -0.62534,-2.62197 2.29325,-1.78493 5.04288,1.44628 10.26154,4.5338 10.60158,6.27222 0.34039,1.74021 -18.58607,24.68237 -20.32107,24.63266 -0.55,-0.0158 -1.9,-0.53133 -3,-1.14572 z m -7.5,-2.87197 c 0,-0.57742 3.7125,-5.36277 8.25,-10.63411 7.59793,-8.82672 8.27524,-9.37366 8.56933,-6.91996 0.24851,2.07335 -1.1724,4.432 -6.40626,10.63411 -3.92078,4.64611 -7.49451,7.96982 -8.56934,7.96982 -1.01405,0 -1.84373,-0.47244 -1.84373,-1.04986 z m -28.25,-8.11681 c -1.5125,-0.55 -2.74677,-1.3 -2.74282,-1.66666 0.0113,-1.0457 20.99366,-25.16667 21.89202,-25.16667 0.44129,0 2.2195,0.49402 3.95158,1.09783 3.48817,1.21598 4.16791,3.40251 1.29159,4.15469 -1.0217,0.26718 -6.04769,5.38216 -11.16886,11.36663 -5.12118,5.98447 -9.57274,10.95585 -9.89237,11.04752 -0.31963,0.0917 -1.81864,-0.28334 -3.33114,-0.83334 z m -7.36126,-2.59864 c -0.70285,-0.46468 3.43557,-6.06376 11.26032,-15.23469 6.80438,-7.975 12.79223,-14.64176 13.30635,-14.81503 0.51412,-0.17326 0.84437,0.86103 0.73388,2.29844 -0.20767,2.70185 -21.22019,28.53128 -23.18609,28.50128 -0.55176,-0.008 -1.50327,-0.34592 -2.11446,-0.75 z m 66.09508,-12.26087 c -1.85626,-3.00349 -19.13603,-7.97113 -27.73382,-7.973 -3.04355,-6.7e-4 -3.75,-0.36605 -3.75,-1.93955 0,-4.27626 17.44714,-4.03423 26.44256,0.36683 5.60815,2.74381 8.9795,7.54984 6.81467,9.71467 -0.70866,0.70866 -1.2637,0.65578 -1.77341,-0.16895 z m -36.23382,-12.30095 c -2.80258,-0.82973 -3.25,-1.40958 -3.25,-4.21203 l 0,-3.24984 3.93363,1.16146 c 5.10773,1.50814 5.48413,1.97752 3.89463,4.85666 -1.18485,2.14617 -1.67916,2.30205 -4.57826,1.44375 z m -37.74342,9.66387 c 14.03675,-16.643 14.52122,-17.77338 9.94726,-23.20923 -4.37931,-5.20452 -19.36618,-10.65354 -31.09626,-11.30618 -3.54658,-0.19732 -4.5175,0.21528 -6.75,2.86845 -1.43417,1.70441 -2.60758,3.31962 -2.60758,3.58935 0,0.26973 2.53222,0.8068 5.62715,1.19349 8.17369,1.02123 16.5473,3.37528 18.5936,5.22716 1.68178,1.52198 2.41087,5.33526 1.24333,6.5028 -0.29475,0.29476 -3.14896,-0.51953 -6.34268,-1.80953 -9.26852,-3.74373 -18.75821,-5.01576 -25.75902,-3.45285 -4.64717,1.03747 -6.74336,2.18848 -10.11238,5.5527 -4.91709,4.91008 -5.24756,7.16812 -1.67112,11.41847 4.13775,4.91744 10.61264,7.31415 20.15779,7.46149 7.09323,0.10949 8.1657,0.35135 7.72543,1.74223 -0.39136,1.23637 0.7256,1.97955 4.76333,3.16934 2.90101,0.85483 5.72753,1.59054 6.28115,1.6349 0.55361,0.0444 5.05361,-4.7178 10,-10.58259 z m -14.25658,8.41651 c -3.06761,-0.98406 -4.4826,-2.75325 -2.20203,-2.75325 2.33992,0 5.88908,-5.53018 5.92043,-9.225 0.0303,-3.57442 0.14914,-3.70149 2.93939,-3.14344 2.26612,0.45322 3.14881,0.13121 4,-1.45926 1.35498,-2.53181 1.41211,-8.20071 0.11696,-11.6072 -0.53639,-1.41081 -0.77422,-2.5651 -0.52851,-2.5651 0.2457,0 2.82206,1.05224 5.72525,2.33831 5.59704,2.47941 8.22219,4.83064 7.57183,6.78174 -0.69604,2.0881 -18.25392,22.7632 -19.29332,22.71864 -0.55,-0.0236 -2.4625,-0.51202 -4.25,-1.08544 z m -4.25,-4.89315 c 0,-0.78627 -1.73678,-0.96065 -5.59826,-0.56211 -7.56635,0.78091 -10.40174,-0.38392 -10.40174,-4.27324 0,-3.5438 -0.27982,-3.45744 4.59836,-1.4192 4.89554,2.04548 13.55735,1.46849 16.38614,-1.09153 1.97783,-1.78991 2.0155,-1.76829 2.0155,1.15668 0,1.82269 -0.89915,3.82538 -2.31445,5.15499 -2.51667,2.36428 -4.68555,2.8431 -4.68555,1.03441 z m -23.62746,-3.26709 c -5.60081,-2.60785 -6.66292,-3.67273 -5.82947,-5.84466 0.70964,-1.84929 7.01311,-5.33087 11.29467,-6.23836 l 3.33774,-0.70744 -1.72331,2.63011 c -1.30531,1.99215 -1.58058,3.83529 -1.13486,7.59872 0.32365,2.73274 0.27216,4.96422 -0.11442,4.95885 -0.38659,-0.005 -3.01025,-1.08412 -5.83035,-2.39722 z m 12.12746,-4.06536 c -2.2,-0.82365 -4.1438,-1.50431 -4.31955,-1.51259 -0.17575,-0.008 -0.17575,-1.0163 0,-2.24003 0.42692,-2.97258 4.47263,-4.95347 9.01931,-4.4161 4.11798,0.48671 12.81793,3.57119 12.76844,4.52693 -0.2127,4.10736 -10.49743,6.25153 -17.4682,3.64179 z m -19.61515,-3.22676 c -0.59965,-4.17048 2.58129,-8.69523 7.61515,-10.83221 7.81726,-3.3186 17.61985,-2.76802 29.75,1.67098 5.39084,1.97276 5.75,2.30744 5.75,5.35815 l 0,3.25396 -6.75,-2.45272 c -12.70991,-4.61834 -25.89097,-4.08828 -33,1.32704 -1.7875,1.36163 -3.30182,2.11529 -3.36515,1.6748 z m 44.11515,-4.74187 c 0,-1.40746 0.45,-2.55902 1,-2.55902 0.55,0 1,0.87344 1,1.94098 0,1.06754 -0.45,2.2191 -1,2.55902 -0.56716,0.35052 -1,-0.48962 -1,-1.94098 z m 13.97452,-5.08973 c -2.82051,-3.39849 -12.95427,-7.05151 -30.22452,-10.89533 -2.09656,-0.46663 -2.75,-1.20157 -2.75,-3.09301 0,-3.03805 2.34753,-3.21011 13.18462,-0.96634 10.3879,2.15077 19.00557,6.56647 21.36483,10.94736 1.32884,2.4675 1.5729,3.81568 0.82598,4.5626 -0.74692,0.74692 -1.45635,0.58285 -2.40091,-0.55528 z m -36.97452,-12.34685 c 0,-0.48265 0.675,-1.43775 1.5,-2.12244 1.2532,-1.04007 1.5,-0.89568 1.5,0.87756 0,1.21995 -0.63782,2.12244 -1.5,2.12244 -0.825,0 -1.5,-0.3949 -1.5,-0.87756 z m -72.01216,0.87756 c 3.99381,-4.675 7.33571,-8.59285 7.42647,-8.70632 0.0907,-0.11348 3.74716,0.96304 8.12535,2.39226 6.8019,2.22043 9.85514,2.61428 20.98063,2.70633 12.11739,0.10026 13.36562,-0.0697 18,-2.45155 5.58349,-2.8696 9.47971,-7.82438 9.47971,-12.05527 0,-3.88354 -5.8124,-9.47481 -13.42573,-12.91493 -5.06989,-2.29086 -31.06057,-10.97052 -32.85052,-10.97052 -0.79868,0 -38.87555,44.72228 -38.87414,45.65869 10e-4,0.77665 12.07115,5.33478 13.26358,5.00889 0.33726,-0.0922 3.88085,-3.99258 7.87465,-8.66758 z m -12.79547,6.28671 c -1.2692,-0.2425 -2.1692,-0.80022 -2,-1.23937 1.02115,-2.65038 32.4126,-38.04095 33.71657,-38.0119 0.87508,0.0195 2.56593,0.58198 3.75744,1.25 2.11473,1.18561 2.02534,1.37996 -3.75,8.15357 -5.22235,6.12503 -5.91638,7.44182 -5.91638,11.22525 0,4.1878 -0.0589,4.26384 -2.5651,3.31099 -1.4108,-0.53639 -2.68094,-0.97525 -2.82252,-0.97525 -0.14158,0 -3.54102,3.825 -7.5543,8.5 -4.06631,4.73677 -8.0188,8.43971 -8.92748,8.36382 -0.89683,-0.0749 -2.66903,-0.3346 -3.93823,-0.57711 z m -6.07542,-2.19327 c -1.05282,-0.66679 2.88688,-5.90191 16.5,-21.92544 9.83568,-11.57724 18.22055,-21.07618 18.63305,-21.10876 0.4125,-0.0326 0.75,1.07447 0.75,2.46012 0,1.81462 -4.67353,7.96862 -16.70745,22 -9.1891,10.71435 -16.9516,19.47375 -17.25,19.46533 -0.2984,-0.008 -1.16492,-0.40949 -1.9256,-0.89125 z m 49.3596,-9.07226 c -2.76289,-0.41115 -7.60039,-1.49668 -10.75,-2.4123 -5.31078,-1.54388 -5.72655,-1.88053 -5.72655,-4.63681 0,-1.63464 0.37802,-2.97207 0.84004,-2.97207 0.46202,0 4.359,0.9 8.65996,2 9.41405,2.40771 15.55327,2.54093 19.64259,0.42626 1.6738,-0.86555 2.8434,-1.7736 2.59912,-2.01788 -0.24428,-0.24428 -1.7486,0.23613 -3.34293,1.06757 -1.59433,0.83145 -4.60256,1.5145 -6.68497,1.51789 -4.7923,0.008 -20.88871,-3.98338 -20.50294,-5.08379 0.97659,-2.78575 9.5874,-11.81704 11.28913,-11.8404 2.5554,-0.0351 14.89079,4.30116 17.96422,6.31495 2.07394,1.3589 2.32611,2.24779 2.18981,7.71904 -0.13357,5.36208 -0.48606,6.41966 -2.65403,7.96298 -3.23078,2.2999 -7.27492,2.8844 -13.52345,1.95456 z m 14.2221,-0.69858 c 2.63738,-2.1863 4.13402,-5.90747 3.7495,-9.3226 -0.15482,-1.375 -0.31898,-3.26997 -0.36482,-4.21104 -0.0458,-0.94108 -1.09583,-2.67109 -2.33333,-3.84447 l -2.25,-2.13342 4,1.68527 c 2.2,0.9269 4.675,1.94879 5.5,2.27085 3.31069,1.29244 8,5.57879 8,7.31254 0,3.63471 -7.00749,8.18235 -14.5,9.41004 -3.98001,0.65216 -3.98901,0.64632 -1.80135,-1.16717 z m 13.80135,-12.92654 c -4.2803,-3.6126 -11.04353,-6.5046 -26.75,-11.43846 l -13.75,-4.31928 0,-3.20921 0,-3.20921 12.25,3.78932 c 21.91487,6.77898 27.97508,9.71607 31.15507,15.09936 1.67466,2.83498 2.11933,5.91657 0.84493,5.85546 -0.4125,-0.0198 -2.1,-1.17537 -3.75,-2.56798 z m 546.33809,-91.89127 c -0.2723,-0.27237 -10.1348,-3.46284 -21.9166,-7.08994 -30.4192,-9.36472 -32.61,-10.04074 -70.9215,-21.88397 -42.4227,-13.11413 -101.6012,-31.43152 -116.8386,-36.1648 -6.2363,-1.9372 -11.566,-3.29485 -11.8438,-3.01702 -0.2778,0.27783 0.9996,0.93403 2.8386,1.45822 1.8391,0.52419 24.7188,7.57807 50.8438,15.6753 26.125,8.09723 53.125,16.43933 60,18.538 17.3233,5.28814 82.2451,25.43722 95,29.48414 9.9991,3.17254 13.9289,4.09089 12.8381,3.00007 z M 859.63779,821.46017 c 8.2e-4,-11.55 0.14638,-16.13804 0.32348,-10.19565 0.17711,5.94239 0.17644,15.39239 -10e-4,21 -0.17792,5.60761 -0.32282,0.74565 -0.322,-10.80435 z m 287.57671,5.29219 c 0,-1.96261 6.2159,-9.86737 25.1238,-31.95 13.8181,-16.1382 28.1784,-32.94219 31.9118,-37.34219 3.7334,-4.4 19.3152,-22.64446 34.6262,-40.54324 15.311,-17.89879 34.1382,-39.93746 41.8382,-48.97484 7.7,-9.03738 27.5,-32.22547 44,-51.5291 16.5,-19.30363 48,-56.20483 70,-82.00266 50.1423,-58.79826 46.7454,-55.09591 51.28,-55.89148 5.7873,-1.01536 20.6373,-5.4635 27.5055,-8.23893 17.4155,-7.03765 34.2405,-20.95151 40.7061,-33.66304 2.1014,-4.13142 2.4616,-1.43852 0.4077,3.04821 -2.2923,5.00764 -9.5242,15.14699 -13.0731,18.32911 -13.5047,12.10875 -33.0466,21.07244 -57.5568,26.40071 -1.9155,0.41643 -6.1097,4.54404 -14.0523,13.82943 -59.676,69.76466 -91.9211,107.50114 -111.7111,130.73583 -12.8826,15.125 -35.1597,41.225 -49.5046,58 -14.3449,16.775 -47.1742,55.25 -72.954,85.5 -25.7798,30.25 -47.2493,55.4275 -47.7099,55.95 -0.4788,0.54307 -0.8375,-0.16704 -0.8375,-1.65781 z M 429.21451,689.66017 c 0,-16.6928 0.28843,-21.70023 1.25,-21.701 0.96919,-7.7e-4 1.18467,4.65853 0.95919,20.74081 -0.16091,11.47732 -0.71923,21.17023 -1.25,21.701 -0.61225,0.61225 -0.95919,-6.88959 -0.95919,-20.74081 z m 154,-533.86667 c 0,-5.04166 0.22247,-8.9442 0.49437,-8.6723 0.2719,0.27191 1.36529,3.13433 2.42976,6.36094 1.9234,5.83022 1.92302,5.88395 -0.0625,8.6723 -1.09878,1.54315 -2.19218,2.80573 -2.42972,2.80573 -0.23755,0 -0.43191,-4.125 -0.43191,-9.16667 z"
     id="path3346"
     inkscape:connector-curvature="0" />
</svg>
