<?xml version="1.0" encoding="UTF-8" standalone="no"?><!DOCTYPE svg PUBLIC "-//W3C//DTD SVG 1.1//EN" "http://www.w3.org/Graphics/SVG/1.1/DTD/svg11.dtd"><svg width="100%" height="100%" viewBox="0 0 2363 408" version="1.1" xmlns="http://www.w3.org/2000/svg" xmlns:xlink="http://www.w3.org/1999/xlink" xml:space="preserve" xmlns:serif="http://www.serif.com/" style="fill-rule:evenodd;clip-rule:evenodd;stroke-linejoin:round;stroke-miterlimit:2;"><g><path d="M378.879,250.15l-138.308,-83.067l61.479,-0.033c41.321,0 74.821,-33.5 74.821,-74.821l0,-16.521c0,-41.321 -33.5,-74.821 -74.821,-74.821l-301.937,0l0,249.613l48.129,0l0,-206.5l179.529,0l67.354,-0.05c19.904,0 36.038,16.137 36.038,36.037l0,7.959c0,19.9 -16.138,36.037 -36.038,36.037l-209.954,0l210.062,126.167l83.646,0Z" style="fill:#fff;fill-rule:nonzero;"/><path d="M48.242,44l179.529,0l67.354,-0.05" style="fill:#fff;fill-rule:nonzero;"/><path d="M302.05,0.888l-301.938,0" style="fill:none;fill-rule:nonzero;"/><path d="M825.05,44l161.488,-0.05l0,-43.063l-389.146,0l0,249.613l227.658,0l161.488,-0.05l0,-43.067l-341.017,0l0,-163.383l179.529,0Z" style="fill:#fff;fill-rule:nonzero;"/><path d="M1860.4,0.888l0,249.612l227.658,0l161.484,-0.05l0,-43.067l-341.013,0l0,-206.496l-48.129,0.001Z" style="fill:#fff;fill-rule:nonzero;"/><path d="M678.033,104.138l244.542,-0.001l0,43.063l-244.542,0.05l0,-43.112Z" style="fill:#fff;fill-rule:nonzero;"/><path d="M1419.73,0l-263.05,249.308l62.604,0l201.392,-190.871l96.083,85.351l-136.254,0l-45.5,43.066l230.233,0l70.309,62.454l64.846,0l-280.663,-249.308Z" style="fill:#fff;fill-rule:nonzero;"/><rect x="455.871" y="80.858" width="79.183" height="79.183" style="fill:#f01b20;"/><rect x="1065.6" y="80.858" width="79.183" height="79.183" style="fill:#23b14d;"/><rect x="1691.16" y="80.858" width="79.188" height="79.183" style="fill:#2993c3;"/><rect x="0" y="295.058" width="2249.43" height="15.837" style="fill:#fff;"/><g><path d="M1338.8,343.863l29.746,0l21.895,40.654l21.896,-40.654l29.746,0l0,63.158l-18.841,0l-0.001,-45.358l-0.175,0l-25.383,45.362l-14.483,0l-25.384,-45.362l-0.174,0l0,45.362l-18.842,0l0,-63.163Z" style="fill:#fff;fill-rule:nonzero;"/><path d="M1458.65,343.863l19.371,0l0,36.466c0,8.025 2.875,11.167 10.817,11.167l19.191,0c7.938,0 10.817,-3.142 10.817,-11.167l0,-36.466l19.367,0l0,40.654c0,15.704 -8.113,23.204 -25.913,23.204l-27.737,0c-17.796,0 -25.913,-7.504 -25.913,-23.204l0,-40.654Z" style="fill:#fff;fill-rule:nonzero;"/><path d="M1554.78,343.863l19.371,0l0,46.933l43.533,0l0,16.229l-62.904,0l0,-63.162Z" style="fill:#fff;fill-rule:nonzero;"/><path d="M1615.06,343.863l73.805,0l0,15.704l-27.217,0l0,47.458l-19.367,0l0,-47.458l-27.216,0l0,-15.704l-0.005,0Z" style="fill:#fff;fill-rule:nonzero;"/><rect x="1701.85" y="343.863" width="19.367" height="63.158" style="fill:#fff;fill-rule:nonzero;"/><path d="M1738.84,343.863l52.779,0c18.408,0 22.854,9.25 22.854,21.633l0,5.408c0,9.425 -4.1,20.238 -17.796,20.238l-38.471,0l0,15.879l-19.366,0l0,-63.159Zm19.366,31.58l30.096,0c4.538,0 6.284,-2.967 6.284,-6.717l0,-2.442c0,-4.271 -2.096,-6.716 -7.938,-6.716l-28.437,0l0,15.875l-0.005,0Z" style="fill:#fff;fill-rule:nonzero;"/><path d="M1828.42,343.863l19.371,0l0,46.933l43.529,0l0,16.229l-62.9,0l0,-63.162Z" style="fill:#fff;fill-rule:nonzero;"/><path d="M1931.02,343.863l25.212,0l34.721,63.158l-21.55,0l-6.017,-11.167l-39.258,0l-5.667,11.167l-21.637,0l34.196,-63.159Zm0.346,38.384l24.775,0l-12.563,-23.725l-12.212,23.725Z" style="fill:#fff;fill-rule:nonzero;"/><path d="M2019.12,385.038l-34.984,-41.176l23.38,0l21.283,25.821l21.283,-25.821l23.379,0l-34.983,41.176l0,21.983l-19.367,0l0,-21.983l0.009,0Z" style="fill:#fff;fill-rule:nonzero;"/><path d="M2084.1,343.863l69.096,0l0,14.658l-49.725,0l0,10.121l47.108,0l0,13.083l-47.108,0l0,10.125l50.854,0l0,15.179l-70.225,0l0,-63.166Z" style="fill:#fff;fill-rule:nonzero;"/><path d="M2169.5,343.863l58.45,0c14.917,0 18.929,7.412 18.929,18.758l0,4.012c0,8.459 -1.92,13.434 -10.82,15.53l0,0.175c5.758,1.045 10.554,3.575 10.554,13.958l0,10.729l-19.363,0l0,-7.588c0,-6.633 -1.921,-8.812 -7.937,-8.812l-30.446,0l0,16.404l-19.367,0l0,-63.166Zm19.371,31.054l32.017,0c5.233,0 7.154,-2.092 7.154,-6.629l0,-2.096c0,-5.584 -2.792,-6.629 -8.9,-6.629l-30.271,0l0,15.354Z" style="fill:#fff;fill-rule:nonzero;"/></g><g><rect x="379.046" y="343.863" width="19.367" height="63.158" style="fill:#fff;fill-rule:nonzero;"/><path d="M416.029,343.863l30.013,0l36.375,45.887l0.175,0l0,-45.887l19.362,0l0,63.158l-30.008,0l-36.375,-45.888l-0.175,0l0,45.888l-19.367,0l0,-63.159Z" style="fill:#fff;fill-rule:nonzero;"/><path d="M513.908,343.863l73.8,0l0,15.704l-27.216,0l0,47.458l-19.367,0l0,-47.458l-27.217,0l0,-15.704Z" style="fill:#fff;fill-rule:nonzero;"/><path d="M599.654,343.863l69.096,0l0,14.658l-49.725,0l0,10.121l47.108,0l0,13.083l-47.108,0l0,10.125l50.858,0l0,15.179l-70.225,0l0,-63.166l-0.004,0Z" style="fill:#fff;fill-rule:nonzero;"/><path d="M685.058,343.863l58.45,0c14.917,0 18.929,7.412 18.929,18.758l0,4.012c0,8.459 -1.92,13.434 -10.816,15.53l0,0.175c5.758,1.045 10.554,3.575 10.554,13.958l0,10.729l-19.367,0l0,-7.588c0,-6.633 -1.921,-8.812 -7.937,-8.812l-30.446,0l0,16.404l-19.367,0l0,-63.166Zm19.367,31.054l32.013,0c5.237,0 7.154,-2.092 7.154,-6.629l0,-2.096c0,-5.584 -2.792,-6.629 -8.896,-6.629l-30.271,0l0,15.354Z" style="fill:#fff;fill-rule:nonzero;"/><path d="M807.008,343.863l25.213,0l34.721,63.158l-21.546,0l-6.021,-11.167l-39.258,0l-5.667,11.167l-21.638,0l34.196,-63.159Zm0.346,38.384l24.775,0l-12.562,-23.725l-12.213,23.725Z" style="fill:#fff;fill-rule:nonzero;"/><path d="M875.917,366.021c0,-18.492 10.379,-22.854 27.829,-22.854l22.771,0c27.566,0 31.141,5.933 30.971,23.82l-19.367,0l0,-1.745c0,-4.538 -3.313,-5.846 -9.071,-5.846l-21.112,0c-10.205,0 -12.125,4.8 -12.125,12.65l0,6.804c0,9.158 1.92,12.65 11.079,12.65l20.675,0c8.725,0 11.341,-0.875 11.341,-8.725l19.363,0l0,5.933c0,10.646 -3.838,19.017 -23.292,19.017l-31.233,0c-17.45,0 -27.829,-4.362 -27.829,-22.854l0,-18.85Z" style="fill:#fff;fill-rule:nonzero;"/><path d="M968.821,343.863l73.8,0l0,15.704l-27.217,0l0,47.458l-19.367,0l0,-47.458l-27.216,0l0,-15.704Z" style="fill:#fff;fill-rule:nonzero;"/><rect x="1055.61" y="343.863" width="19.367" height="63.158" style="fill:#fff;fill-rule:nonzero;"/><path d="M1086.49,343.863l21.2,0l24.687,46.933l24.688,-46.933l21.2,0l-33.938,63.158l-23.904,0l-33.933,-63.159Z" style="fill:#fff;fill-rule:nonzero;"/><path d="M1188.73,343.863l69.096,0l0,14.658l-49.725,0l0,10.121l47.108,0l0,13.083l-47.108,0l0,10.125l50.862,0l0,15.179l-70.229,0l0,-63.166l-0.004,0Z" style="fill:#fff;fill-rule:nonzero;"/></g><g><path d="M0.113,384.604l18.316,0l0,2.792c0,5.321 1.659,6.717 8.375,6.717l23.117,0c6.021,0 6.721,-1.655 6.721,-5.934c0,-4.187 -1.05,-6.104 -6.979,-6.104l-19.888,0l0,-13.092l18.058,0c6.28,0 7.413,-1.566 7.413,-6.104c0,-4.887 -3.05,-6.108 -8.808,-6.108l-19.192,0c-6.279,0 -8.2,1.308 -8.2,6.017l0,2.704l-18.321,0l0,-3.488c0,-17.012 8.288,-18.846 32.017,-18.846l12.996,0c22.508,0 27.829,3.492 27.829,17.45c0,10.646 -1.83,11.955 -10.467,14.571l0,0.263c10.208,1.746 11.867,4.971 11.867,15.008c0,12.471 -4.363,17.275 -21.896,17.275l-32.196,0c-11.254,0 -20.763,-3.225 -20.763,-16.404l0,-6.717Z" style="fill:#fff;fill-rule:nonzero;"/><path d="M91.358,343.863l58.45,0c19.367,0 26.171,6.366 26.171,21.983l0,19.187c0,15.617 -6.804,21.984 -26.171,21.984l-58.45,0l0,-63.154Zm19.367,46.933l34.375,0c8.287,0 11.512,-2.354 11.512,-11.342l0,-8.55c0,-8.983 -3.225,-11.341 -11.512,-11.341l-34.375,0l0,31.233Z" style="fill:#fff;fill-rule:nonzero;"/><path d="M189.758,366.021c0,-18.492 10.38,-22.854 27.83,-22.854l31.058,0c17.45,0 27.829,4.366 27.829,22.854l0,18.846c0,18.491 -10.379,22.854 -27.829,22.854l-31.063,0c-17.45,0 -27.829,-4.363 -27.829,-22.854l0,-18.846l0.004,0Zm19.888,12.825c0,9.158 1.921,12.65 11.079,12.65l24.775,0c9.158,0 11.079,-3.492 11.079,-12.65l0,-6.804c0,-7.85 -1.917,-12.65 -12.125,-12.65l-22.683,0c-10.204,0 -12.125,4.8 -12.125,12.65l0,6.804Z" style="fill:#fff;fill-rule:nonzero;"/></g><g><path d="M303.35,377.117l-9.054,0l0,-26.075l-8.692,0l0,-7.88l26.892,0l0,7.88l-9.146,0l0,26.075Z" style="fill:#fff;fill-rule:nonzero;"/><path d="M326.113,377.117l-9.055,0l0,-33.95l14.35,0l6.475,21.321l0.317,0l6.158,-21.321l14.713,0l0,33.95l-9.054,0l0.904,-26.025l-0.317,0l-8.6,26.025l-7.829,0l-8.692,-26.025l-0.271,0l0.9,26.025Z" style="fill:#fff;fill-rule:nonzero;"/></g><g><path d="M2286.66,377.817l-9.054,0l0,-26.075l-8.691,0l-0.001,-7.88l26.888,0l0,7.88l-9.142,0l0,26.075Z" style="fill:#fff;fill-rule:nonzero;"/><path d="M2309.42,377.817l-9.054,0l0,-33.95l14.35,0l6.475,21.321l0.316,0l6.159,-21.321l14.712,0l0,33.95l-9.054,0l0.904,-26.029l-0.317,0l-8.6,26.029l-7.829,0l-8.696,-26.029l-0.266,0l0.9,26.029Z" style="fill:#fff;fill-rule:nonzero;"/></g><g><path d="M2291.44,250.5l-11.492,0l0,-33.113l-11.033,0l0,-10l34.146,0l-0.001,10l-11.62,0l0,33.113Z" style="fill:#fff;fill-rule:nonzero;"/><path d="M2320.35,250.5l-11.492,0l0,-43.117l18.221,0l8.221,27.075l0.404,0l7.817,-27.075l18.683,0l0,43.117l-11.491,0l1.145,-33.054l-0.408,0l-10.917,33.054l-9.95,0l-11.033,-33.054l-0.346,0l1.146,33.054Z" style="fill:#fff;fill-rule:nonzero;"/></g></g></svg>