<?xml version="1.0" encoding="UTF-8" standalone="no"?><!DOCTYPE svg PUBLIC "-//W3C//DTD SVG 1.1//EN" "http://www.w3.org/Graphics/SVG/1.1/DTD/svg11.dtd"><svg width="100%" height="100%" viewBox="0 0 2365 471" version="1.1" xmlns="http://www.w3.org/2000/svg" xmlns:xlink="http://www.w3.org/1999/xlink" xml:space="preserve" xmlns:serif="http://www.serif.com/" style="fill-rule:evenodd;clip-rule:evenodd;stroke-miterlimit:10;"><g><path id="path2998" d="M691.183,120.492l0,239.746l41.992,0l0,-214.009l25.775,0c18.588,0 26.979,0.5 30.138,1.821c6.233,2.604 12.649,10.537 15.279,18.838c1.379,4.362 2.516,13.804 2.92,24.295c0.834,21.475 -1.658,34.817 -8.212,43.471c-6.837,9.034 -11.021,10.459 -30.35,10.459l-16.592,0l0,26.024l26.071,-0.504l26.075,-0.508l9.225,-4.358c16.854,-7.95 29.092,-24.213 34.029,-45.167c2.759,-11.7 2.717,-37.858 -0.087,-50.412c-2.692,-12.067 -8.296,-24.221 -14.6,-31.58c-2.638,-3.075 -7.738,-7.487 -11.3,-9.779c-12.221,-7.841 -16.925,-8.337 -76.483,-8.337l-53.88,0Zm185.563,0l0,239.746l41.987,0l0,-239.746l-41.987,0Zm526.55,0c-18.809,0.004 -38.159,0.666 -43.004,1.441c-10.925,1.742 -23.675,7.521 -30.896,14.05c-7.284,6.579 -13.492,16.454 -16.85,26.834c-2.088,6.45 -2.746,12.329 -2.834,24.72c-0.116,17.096 1.321,24.38 7.2,35.892c3.817,7.492 14.005,18.304 20.996,22.346c8.117,4.704 18.5,7.196 36.354,8.633c13.584,1.1 16.75,1.775 21.167,4.704c3.475,2.296 6.525,6.055 9.1,11.296c3.625,7.38 3.829,8.921 3.813,24.805c-0.017,15.837 -0.242,17.399 -3.734,24.045c-2.362,4.513 -5.771,8.467 -9.35,10.838l-5.633,3.729l-35.679,0.425l-35.638,0.383l0,25.604l40.542,0c24.667,0 43.383,-0.608 47.746,-1.525c16.6,-3.495 30.412,-14.254 37.116,-28.908c5.655,-12.346 7.642,-25.033 6.9,-44.067c-0.775,-20.07 -3.75,-31.004 -11.766,-43c-9.954,-14.9 -21.096,-20.008 -49.392,-22.6c-10.471,-0.958 -21.192,-2.645 -23.833,-3.766c-5.821,-2.467 -11.267,-8.675 -13.667,-15.575c-2.375,-6.804 -2.337,-26.504 0.083,-34.829c2.384,-8.221 9.609,-15.792 17.23,-18.075c3.683,-1.109 16.05,-1.65 36.866,-1.65l31.367,0l0,-25.742l-34.204,0l0,-0.008Zm482.525,0l0,35.22l41.991,0l0,-35.22l-41.991,0Zm-403.759,27.091l0.434,86.346c0.375,84.996 0.433,86.475 3.346,94.183c1.62,4.305 5.104,10.75 7.737,14.346c5.388,7.334 12.388,12.475 21.25,15.575c4.263,1.496 11.5,2.075 25.267,2.125l19.304,0.084l0,-25.734l-12.613,0c-12.004,0 -12.8,-0.162 -16.212,-3.729c-2.117,-2.204 -4.192,-6.512 -5.029,-10.5c-0.921,-4.3 -1.304,-26.687 -1.067,-61.629l0.383,-54.85l45.375,-0.767l0,-25.65l-46.05,0l0,-29.8l-42.125,0Zm289.984,0l0,85.288c0,82.487 0.096,85.583 2.8,93.8c3.208,9.779 9.741,19.466 16.846,24.887c2.708,2.071 8.079,4.854 11.929,6.175c5.371,1.854 11.375,2.425 25.65,2.459l18.621,0.041l0,-25.733l-12.021,0c-10.042,0 -12.584,-0.433 -15.529,-2.758c-1.946,-1.521 -4.15,-5.021 -4.917,-7.784c-0.854,-3.079 -1.4,-27.433 -1.4,-62.941l0,-57.9l46.142,0l-0.384,-12.53l-0.383,-12.533l-22.688,-0.375l-22.679,-0.387l0,-29.709l-41.987,0Zm-37.038,29.454l-44.825,0.725c-48.2,0.742 -53.191,1.334 -67.341,8.509c-15.83,8.021 -26.863,23.596 -31.867,44.95c-2.092,8.908 -2.458,16.579 -2.458,50.454c0,38.462 0.112,40.254 3.091,47.617c6.004,14.837 14.942,23.995 27.809,28.441c5.67,1.963 11.587,2.417 31.07,2.45l24.046,0.046l0,-25.737l-16.846,0c-15.949,0 -17.033,-0.196 -20.825,-3.388c-2.508,-2.104 -4.55,-5.625 -5.499,-9.396c-1.888,-7.475 -1.98,-66.404 -0.13,-80.675c2.63,-20.271 7.196,-29.775 16.725,-34.879c3.28,-1.75 8.938,-2.375 24.888,-2.792l20.654,-0.55l0,157.421l43.35,0l0,-50.587c0,-27.809 -0.437,-69.029 -0.937,-91.592l-0.905,-41.017Zm-636.133,0.046l-45.033,0.675c-48.942,0.754 -55.971,1.65 -69.334,8.804c-15.52,8.309 -26.604,24.734 -31.283,46.346c-2.971,13.729 -4.362,69.963 -2.075,83.554c2,11.863 7.546,23.805 14.183,30.559c4.884,4.971 12.988,9.871 19.763,11.937c1.862,0.571 14.504,1.075 28.104,1.138l24.717,0.129l0,-25.725l-17.309,0c-19.525,0 -22.096,-0.921 -25.775,-9.313c-1.646,-3.737 -2.287,-11.091 -2.708,-30.9c-0.608,-28.15 1.35,-58.691 4.4,-68.829c2.738,-9.104 7.837,-16.096 13.837,-19.041c4.384,-2.15 8.413,-2.555 25.521,-2.584l20.313,-0.046l0.341,78.221l0.342,78.217l41.992,0l0,-183.142l0.004,0Zm45.208,0.296c-12.2,0 -22.162,0.154 -22.137,0.342c0.016,0.187 13.941,41.071 30.941,90.879l30.9,90.575l-17.4,44.871c-9.562,24.696 -17.395,45.079 -17.395,45.287c0,0.209 8.304,0.209 18.454,0l18.458,-0.379l53.963,-135.45c29.695,-74.496 54.012,-135.596 54.012,-135.783c0.008,-0.188 -8.758,-0.342 -19.517,-0.342c-14.183,0 -19.854,0.471 -20.612,1.7c-0.571,0.929 -10.946,27.263 -23.021,58.538c-12.075,31.266 -22.492,57.033 -23.192,57.266c-0.708,0.238 -10.295,-26.104 -21.287,-58.537l-19.979,-58.967l-22.188,0Zm741.738,0l0,182.85l41.991,0l0,-182.85l-41.991,0Zm253.962,0.675l-0.391,91.088l0.05,0l-0.384,91.087l43.384,0l0,-157.412l20.654,0.554c21.925,0.571 25.587,1.483 31.746,8.079c4.833,5.167 8.283,14.579 9.82,26.829c0.796,6.413 1.442,35.846 1.442,66.708l0,55.242l41.983,0l-0.041,-53.842c-0.009,-57.1 -1.009,-70.65 -6.517,-86.133c-7.479,-21.054 -21.258,-33.537 -43.675,-39.617c-7.412,-2.012 -15.333,-2.362 -53.379,-2.458l-44.692,-0.125Zm-106.158,0.383c-11.842,0 -23.642,1.488 -32.121,4.405c-11.287,3.883 -18.375,8.429 -25.487,16.337c-7.717,8.583 -13.305,20.204 -16.584,34.413c-2.008,8.708 -2.483,16.016 -2.366,37.245c0.112,22.33 0.554,28.038 2.962,36.867c4.079,14.983 9.417,25.067 17.521,33.271c7.983,8.075 19.783,14.262 33.067,17.275c5.975,1.35 14.258,1.775 26.92,1.433c21.825,-0.579 32.209,-3.387 44.946,-12.1c10.679,-7.3 18.75,-18.816 23.325,-33.312c6.542,-20.7 7.692,-54.821 2.671,-80c-2.442,-12.234 -8.375,-25.496 -14.992,-33.567c-6.216,-7.587 -16.399,-14.242 -27.295,-17.862c-8.804,-2.917 -20.725,-4.405 -32.567,-4.405Zm0.513,25.225c6.145,0 12.304,1.188 17.137,3.638c6.308,3.2 10.271,8.767 13.713,19.3c2.254,6.887 2.816,13.158 3.345,35.937c0.692,29.75 -0.675,43.771 -5.291,54.346c-3.255,7.467 -8.521,13.271 -14.309,15.746c-2.466,1.054 -8.983,1.858 -15.02,1.858c-8.563,0 -11.85,-0.604 -16.634,-3.125c-3.758,-1.991 -7.387,-5.395 -9.733,-9.187c-6.121,-9.879 -8.138,-22.833 -8.221,-52.017c-0.067,-27.779 1.367,-38.95 6.487,-50.246c1.734,-3.833 5.234,-8.512 7.83,-10.5c4.933,-3.762 12.791,-5.75 20.696,-5.75Z" style="fill:#fff;fill-rule:nonzero;"/><path id="path3775" d="M2330.98,349.633l3.208,0l0,-11.812l7.317,0c2,0 3.313,0.325 3.908,0.967c0.58,0.616 0.955,2.054 1.117,4.3l0.283,3.483c0.05,0.662 0.121,1.217 0.23,1.662c0.095,0.48 0.262,0.95 0.487,1.396l3.363,0l0,-0.875c-0.267,-0.237 -0.446,-0.521 -0.563,-0.85c-0.154,-0.396 -0.262,-0.883 -0.3,-1.462l-0.292,-4.05c-0.195,-1.967 -0.454,-3.317 -0.787,-4.05c-0.488,-1.1 -1.342,-1.759 -2.546,-1.988c1.288,-0.291 2.313,-1.016 3.092,-2.187c0.787,-1.188 1.179,-2.638 1.179,-4.329c0,-1.392 -0.283,-2.605 -0.863,-3.63c-0.604,-1.145 -1.466,-2.029 -2.57,-2.645c-0.905,-0.5 -1.988,-0.825 -3.238,-0.975c-0.837,-0.096 -2.117,-0.15 -3.808,-0.15l-9.204,0l0,27.195l-0.013,0Zm3.217,-14.737l0,-9.533l6.487,0c1.263,0 2.179,0.033 2.759,0.091c0.854,0.138 1.537,0.384 2.033,0.725c0.608,0.404 1.067,0.913 1.367,1.538c0.333,0.658 0.504,1.391 0.504,2.191c0,1.805 -0.504,3.08 -1.529,3.838c-1.025,0.767 -2.7,1.142 -5.03,1.142l-6.591,0.008Z" style="fill:#fff;fill-rule:nonzero;"/><path id="path3004" d="M2363.25,336.038c0,12.32 -9.992,22.316 -22.313,22.316c-12.329,0 -22.312,-9.987 -22.312,-22.316c0,-12.33 9.983,-22.317 22.312,-22.317c12.321,-0.004 22.313,9.987 22.313,22.317Z" style="fill:none;fill-rule:nonzero;stroke:#fff;stroke-width:4.17px;"/><g id="g3"><path id="path7" d="M335.506,97.942l-0.413,373.021l-99.941,-32.505l0,-438.458l127.575,33.733c81.662,21.946 131.633,64.613 130.825,139.375c-0.813,86.971 -41.038,121.909 -119.446,99.155l0,-171.48c-0.008,-20.733 -38.6,-21.946 -38.6,-2.841Z" style="fill:#de0029;fill-rule:nonzero;"/><path id="path9" d="M189.235,366.125l-47.129,15.85c-30.475,10.571 -56.475,-14.217 -28.442,-24.388l22.75,-8.116l-85.729,-27.234c-26.408,8.95 -51.2,28.042 -49.567,54.867c1.625,27.221 63.788,33.729 111.729,41.446c44.692,7.308 85.321,3.246 122.296,-9.758l0,-28.042l-45.908,-14.625Zm146.667,104.842l87.354,-30.471l-88.167,-28.038l0,56.488l0.813,2.021Z" style="fill:#f3c202;fill-rule:nonzero;"/><path id="path11" d="M568.31,389.296l1.621,-0.413c38.196,-13.404 54.446,-32.112 50.383,-49.575c-6.5,-29.254 -53.221,-45.108 -125.137,-50.387c-51.6,-3.659 -102.384,7.721 -151.95,24.779l-8.125,2.854l88.979,27.638l52,-17.488c54.446,-10.15 76.387,7.725 23.979,24.392l-26.008,8.941l94.258,29.259Zm-333.158,-129.217l-39.413,13.404l39.413,12.188l0,-25.592Z" style="fill:#326db3;fill-rule:nonzero;"/><path id="path13" d="M423.26,440.487l145.05,-51.191l-94.267,-29.259l-138.95,47.542l0,4.875l88.167,28.033Zm-188.108,-89.8l-45.913,15.438l45.913,14.633l0,-30.071Zm99.937,23.984l0,-58.109l88.979,27.63l-88.979,30.479Zm-198.675,-25.196l98.733,-35.358l0,-28.442l-39.412,-12.192l-143.017,48.355c-0.404,0 -1.216,0.4 -2.029,0.4l85.725,27.237Z" style="fill:#00aa9e;fill-rule:nonzero;"/></g></g></svg>