<?xml version="1.0" encoding="UTF-8" standalone="no"?><!DOCTYPE svg PUBLIC "-//W3C//DTD SVG 1.1//EN" "http://www.w3.org/Graphics/SVG/1.1/DTD/svg11.dtd"><svg width="100%" height="100%" viewBox="0 0 2363 772" version="1.1" xmlns="http://www.w3.org/2000/svg" xmlns:xlink="http://www.w3.org/1999/xlink" xml:space="preserve" xmlns:serif="http://www.serif.com/" style="fill-rule:evenodd;clip-rule:evenodd;stroke-linejoin:round;stroke-miterlimit:2;"><g id="Ebene-1" serif:id="Ebene 1"><path id="path6905" d="M430.189,670.46c22.217,0 35.546,-4.53 35.546,-25.65c0,-15.634 -9.696,-23.996 -31.909,-23.996l-30.7,0l0,49.646l27.063,0Zm-38.775,65.229l0,-124.934l45.646,0c32.312,0 40.8,16.155 40.8,34.896c0,27.913 -25.046,34.859 -48.071,34.859l-26.663,0l0,55.175l-11.712,0.004" style="fill:#fff;fill-rule:nonzero;"/><rect id="path6907" x="493.606" y="610.755" width="10.1" height="124.933" style="fill:#fff;fill-rule:nonzero;"/><path id="path6909" d="M588.531,688.468c-8.884,3.633 -18.175,4.362 -27.059,5.054c-15.758,1.204 -25.446,6.942 -25.446,19.063c0,10.987 9.696,16.158 19.392,16.158c16.558,0 33.121,-8 33.121,-26.217l-0.008,-14.058Zm-17.771,-5.171c4.037,-0.362 10.504,-1.412 13.733,-2.992c3.638,-1.537 4.038,-6.216 4.038,-9.325c0,-10.583 -6.463,-18.216 -22.617,-18.216c-14.138,0 -24.233,4.683 -26.258,20.279l-10.505,0c1.617,-21.171 17.367,-29.692 37.163,-29.692c18.175,0 32.317,7.15 32.317,27.95l0,48.921c0,8.154 2.42,10.058 10.904,6.942l0,8.162c-1.213,0.525 -4.846,1.734 -8.075,1.734c-1.621,0 -2.829,-0.159 -4.442,-0.521c-7.271,-1.009 -8.487,-7.109 -8.487,-13.375c-8.488,9.741 -20.6,14.95 -33.525,14.95c-15.755,0 -29.896,-8.525 -29.896,-25.85c0,-15.067 10.504,-24.275 31.508,-27.063l14.142,-1.904" style="fill:#fff;fill-rule:nonzero;"/><path id="path6911" d="M624.481,760.126c2.829,0.525 5.65,1.092 8.483,1.092c12.121,0 13.733,-17.042 17.771,-24.842l-35.142,-90.562l11.717,0l29.083,77.233l28.675,-77.233l11.313,0l-33.53,88.662c-8.487,22.538 -14.137,36.6 -28.679,36.6c-3.637,0 -6.866,-0.521 -9.696,-1.208l0,-9.742" style="fill:#fff;fill-rule:nonzero;"/><path id="path6913" d="M721.018,698.368c2.021,22.375 16.567,30.533 35.95,30.533c22.217,0 31.508,-12.108 31.508,-25.85c0,-38.696 -75.941,-13.004 -75.941,-62.079c0,-17.375 14.137,-33.492 42.412,-33.492c27.871,0 42.009,16.967 41.604,37.33l-10.904,0c0,-19.113 -14.946,-27.267 -30.7,-27.267c-24.237,0 -32.721,14.742 -30.7,27.587c5.25,32.234 76.346,9.005 76.346,57.396c0,22.95 -16.967,36.442 -45.646,36.442c-26.258,0 -45.646,-13.492 -45.646,-40.596l11.717,-0.004" style="fill:#fff;fill-rule:nonzero;"/><path id="path6915" d="M854.726,736.018c-2.425,0.521 -6.866,2.1 -12.12,2.1c-10.1,0 -15.755,-4.525 -15.755,-17.892l0,-65.762l-12.929,0l0,-8.642l12.929,0l0,-25.004l10.505,0l0,25.004l16.562,0l0,8.642l-16.562,0l0,61.604c0,8.887 0,12.679 8.883,12.679c2.829,0 5.65,-0.525 8.487,-1.208l0,8.479" style="fill:#fff;fill-rule:nonzero;"/><path id="path6917" d="M932.676,688.468c-8.883,3.633 -17.766,4.362 -26.658,5.054c-15.75,1.204 -25.446,6.942 -25.446,19.063c0,10.987 9.696,16.158 19.396,16.158c16.558,0 32.713,-8 32.713,-26.217l0,-14.058l-0.005,0Zm-17.366,-5.171c3.637,-0.362 10.104,-1.412 13.737,-2.992c3.234,-1.537 3.634,-6.216 3.634,-9.325c0,-10.583 -6.059,-18.216 -22.217,-18.216c-14.538,0 -24.233,4.683 -26.254,20.279l-10.504,0c1.612,-21.171 17.366,-29.692 36.754,-29.692c18.183,0 32.721,7.15 32.721,27.95l0,48.921c0,8.154 2.025,10.058 10.912,6.942l0,8.162c-1.621,0.525 -5.258,1.734 -8.079,1.734c-1.617,0 -3.229,-0.159 -4.85,-0.521c-6.867,-1.009 -8.079,-7.109 -8.079,-13.375c-8.892,9.741 -20.596,14.95 -33.525,14.95c-15.754,0 -30.296,-8.525 -30.296,-25.85c0,-15.067 10.504,-24.275 31.508,-27.063l14.538,-1.904" style="fill:#fff;fill-rule:nonzero;"/><path id="path6919" d="M1004.59,736.018c-2.421,0.521 -6.871,2.1 -12.117,2.1c-10.096,0 -15.754,-4.525 -15.754,-17.892l0,-65.762l-12.525,0l0,-8.642l12.525,0l0,-25.004l10.504,0l0,25.004l16.563,0l0,8.642l-16.563,0l0,61.604c0,8.887 0,12.679 8.883,12.679c2.825,0 5.659,-0.525 8.488,-1.208l0,8.479" style="fill:#fff;fill-rule:nonzero;"/><path id="path6921" d="M1035.69,735.689l-10.104,0l0,-89.871l10.104,0l0,89.871Zm-10.913,-109.513l0,-15.421l11.717,0l0,15.421l-11.717,0" style="fill:#fff;fill-rule:nonzero;"/><path id="path6923" d="M1097.09,652.764c-21.813,0 -30.296,18.537 -30.296,37.966c0,22.38 10.504,38.009 30.296,38.009c21.808,0 30.7,-18.742 30.7,-38.009c0,-21.166 -8.484,-37.966 -30.7,-37.966Zm-41.604,37.962c0,-26.171 14.137,-47.379 41.604,-47.379c28.271,0 42.008,21 42.008,47.379c0,28.488 -16.562,47.384 -42.008,47.384c-22.621,-0.359 -41.604,-15.955 -41.604,-47.384" style="fill:#fff;fill-rule:nonzero;"/><path id="path6925" d="M1164.14,735.689l-10.504,0l0,-89.871l10.504,0l0,12.479c8.075,-8.846 16.562,-14.946 28.679,-14.946c11.308,0 21.004,3.471 27.467,12.846c4.437,6.463 4.846,13.204 4.846,20.638l0,58.85l-10.505,0l0,-58.65c0,-16.113 -6.862,-24.275 -23.429,-24.275c-12.929,0 -21.812,8.32 -25.041,17.487c-2.025,5.738 -2.025,10.792 -2.025,17.05l0,48.392" style="fill:#fff;fill-rule:nonzero;"/><path id="path6927" d="M1265.93,706.489c-1.212,-0.567 -2.825,-0.85 -5.245,-0.85l-3.238,0l0,8.321l3.646,0c1.608,0 3.225,-0.159 4.033,-0.475c1.613,-0.646 2.425,-1.859 2.425,-3.638c0,-1.662 -0.812,-2.796 -1.621,-3.358Zm-4.441,-3.679c2.833,0 4.85,0.245 6.462,0.808c2.425,1.012 3.229,2.95 3.229,5.9c0,2.058 -0.408,3.554 -2.016,4.525c-0.813,0.525 -2.017,0.892 -3.229,1.129c1.612,0.279 2.825,1.092 3.629,2.304c0.812,1.254 1.212,2.471 1.212,3.638l0,1.696c0,0.562 0,1.17 0.409,1.741l0,1.529l-3.638,0l0,-0.529l-0.4,-0.721l0,-1.862c0,-2.742 -0.812,-4.525 -2.025,-5.371c-0.804,-0.525 -2.417,-0.767 -4.442,-0.767l-3.225,0l0,9.25l-4.045,0l0,-23.266l8.083,0l0,-0.004l-0.004,0Zm-12.517,-1.209c-3.637,3.554 -5.258,7.875 -5.258,12.879c0,5.134 1.621,9.459 5.258,13.013c3.633,3.596 7.671,5.371 12.929,5.371c5.254,0 9.288,-1.775 12.925,-5.371c3.638,-3.558 5.259,-7.875 5.259,-13.013c0,-5.004 -1.621,-9.325 -5.259,-12.879c-3.633,-3.558 -7.671,-5.337 -12.925,-5.337c-5.258,-0.004 -9.296,1.775 -12.929,5.337Zm27.871,27.863c-4.042,4.125 -9.288,6.221 -14.942,6.221c-5.662,0 -10.912,-2.1 -14.946,-6.221c-4.045,-4.117 -6.062,-9.125 -6.062,-14.988c0,-5.775 2.017,-10.783 6.062,-14.862c4.034,-4.159 9.284,-6.179 14.946,-6.179c5.65,0 10.9,2.016 14.942,6.179c4.037,4.037 6.062,9.05 6.062,14.862c0,5.871 -2.029,10.875 -6.062,14.988" style="fill:#fff;fill-rule:nonzero;"/><path id="path6929" d="M1353.99,670.46c22.216,0 35.95,-4.53 35.95,-25.65c0,-15.634 -10.096,-23.996 -32.313,-23.996l-30.704,0l0,49.646l27.067,0Zm-38.771,65.229l0,-124.934l45.65,0c32.312,0 40.787,16.155 40.787,34.896c0,27.913 -24.641,34.859 -48.062,34.859l-26.667,0l0,55.175l-11.708,0.004" style="fill:#fff;fill-rule:nonzero;"/><path id="path6931" d="M1448.1,652.764c-21.808,0 -30.691,18.537 -30.691,37.966c0,22.38 10.9,38.009 30.691,38.009c21.821,0 30.705,-18.742 30.705,-38.009c-0.405,-21.166 -8.484,-37.966 -30.705,-37.966Zm-41.6,37.962c0,-26.171 13.734,-47.379 41.6,-47.379c28.28,0 41.613,21 41.613,47.379c0,28.488 -16.567,47.384 -41.613,47.384c-23.02,-0.359 -41.6,-15.955 -41.6,-47.384" style="fill:#fff;fill-rule:nonzero;"/><path id="path6933" d="M1515.56,735.689l-10.504,0l0,-89.871l10.504,0l0,16.846l0.408,0c5.642,-14.425 14.134,-19.309 29.084,-19.309l0,11.313c-23.434,-0.525 -29.484,16.804 -29.484,36.921l0,44.1" style="fill:#fff;fill-rule:nonzero;"/><path id="path6935" d="M1603.22,736.018c-2.425,0.521 -6.866,2.1 -11.721,2.1c-10.495,0 -16.158,-4.525 -16.158,-17.892l0,-65.762l-12.521,0l0,-8.642l12.521,0l0,-25.004l10.504,0l0,25.004l16.963,0l0,8.642l-16.963,0l0,61.604c0,8.887 0.409,12.679 8.884,12.679c2.841,0 6.062,-0.525 8.487,-1.208l0,8.479" style="fill:#fff;fill-rule:nonzero;"/><path id="path6937" d="M1677.94,688.468c-8.887,3.633 -17.771,4.362 -26.658,5.054c-15.759,1.204 -25.446,6.942 -25.446,19.063c0,10.987 9.696,16.158 19.383,16.158c16.567,0 32.725,-8 32.725,-26.217l0,-14.058l-0.004,0Zm-17.371,-5.171c3.629,-0.362 10.096,-1.412 13.734,-2.992c3.237,-1.537 3.637,-6.216 3.637,-9.325c0,-10.583 -6.062,-18.216 -22.217,-18.216c-14.537,0 -24.237,4.683 -26.254,20.279l-10.504,0c1.613,-21.171 17.371,-29.692 36.758,-29.692c18.18,0 32.721,7.15 32.721,27.95l0,48.921c0,8.154 2.017,10.058 10.909,6.942l0,8.162c-1.621,0.525 -5.259,1.734 -8.075,1.734c-1.621,0 -3.238,-0.159 -4.85,-0.521c-6.863,-1.009 -8.075,-7.109 -8.075,-13.375c-8.888,9.741 -20.6,14.95 -33.538,14.95c-15.746,0 -30.296,-8.525 -30.296,-25.85c0,-15.067 10.504,-24.275 31.509,-27.063l14.541,-1.904" style="fill:#fff;fill-rule:nonzero;"/><path id="path6939" d="M1760.35,728.739c17.371,0 30.296,-12.679 30.704,-35.217c0.8,-22.542 -9.291,-40.758 -30.704,-40.758c-18.987,0 -30.296,17.325 -30.296,37.608c-0.004,21.725 10.505,38.367 30.296,38.367Zm-30.3,6.95l-10.504,0l0,-124.934l10.504,0l0,49.438c6.471,-10.908 19.388,-16.846 31.917,-16.846c27.458,0 39.987,22.417 39.987,47.583c0,26.496 -11.308,47.18 -40.391,47.18c-11.717,0 -25.042,-6.421 -31.5,-18.217l0,15.796" style="fill:#fff;fill-rule:nonzero;"/><rect id="path6941" x="1824.98" y="610.755" width="10.496" height="124.933" style="fill:#fff;fill-rule:nonzero;"/><path id="path6943" d="M1925.96,684.472c0,-17.492 -9.692,-31.708 -28.271,-31.708c-18.583,0 -28.279,14.741 -30.296,31.708l58.567,0Zm-58.571,8.721c0,19.392 10.504,35.55 30.296,35.55c13.333,0 24.233,-7.475 27.058,-20.638l11.717,0c-5.25,16.959 -15.75,30.013 -38.775,30.013c-28.688,0 -41.209,-20.479 -41.209,-47.008c0,-26.221 15.355,-47.755 41.209,-47.755c24.641,0 39.587,17.575 39.587,49.842l-69.883,-0.004" style="fill:#fff;fill-rule:nonzero;"/><path id="path6945" d="M0.001,0.001l735.967,0l0,218.25l-706.887,0l0,189.163l-29.08,0l0,-218.25l706.884,0l0,-160.084l-706.884,0l0,-29.079" style="fill:#fff;fill-rule:nonzero;"/><path id="path6947" d="M1655.33,218.251l0,189.163l-29.083,0l0,-218.25l706.875,0l0,-160.084l-706.875,0l0,-29.079l735.963,0l0,218.25l-706.88,0" style="fill:#fff;fill-rule:nonzero;"/><path id="path6949" d="M1111.22,0.001l0,378.325l-375.254,0l0,29.088l405.95,0l0,-378.334l375.263,0l0,-29.079l-405.959,0" style="fill:#fff;fill-rule:nonzero;"/></g></svg>