<?xml version="1.0" encoding="UTF-8" standalone="no"?><!DOCTYPE svg PUBLIC "-//W3C//DTD SVG 1.1//EN" "http://www.w3.org/Graphics/SVG/1.1/DTD/svg11.dtd"><svg width="100%" height="100%" viewBox="0 0 2363 322" version="1.1" xmlns="http://www.w3.org/2000/svg" xmlns:xlink="http://www.w3.org/1999/xlink" xml:space="preserve" xmlns:serif="http://www.serif.com/" style="fill-rule:evenodd;clip-rule:evenodd;stroke-linejoin:round;stroke-miterlimit:2;"><g><g><path d="M318.892,110.892l-6.471,-2.996c0.404,-1.334 0.808,-2.996 0.808,-4.663c0,-4.329 -38.029,-27.637 -103.971,-27.637c-63.108,0 -90.212,15.983 -90.212,36.625c0,54.6 238.275,-25.3 238.275,95.225c0,43.95 -51.783,77.912 -155.346,77.912c-98.704,0 -127.025,-25.971 -136.329,-25.971c-2.429,0 -3.642,1.659 -5.663,2.663l-5.258,-1l33.575,-56.604l6.475,2.662c0,1.342 -0.812,2.675 -0.812,5.334c0,19.65 52.187,33.62 103.97,33.62c73.63,0 98.709,-17.304 98.709,-35.625c0,-65.25 -235.042,15.646 -235.042,-94.879c0,-55.937 71.604,-79.246 150.088,-79.246c70.391,0 119.745,25.305 124.6,25.305c5.258,0 6.066,-1.33 7.283,-2.33l6.471,1.663l-31.15,49.942Z" style="fill:#fff;fill-rule:nonzero;"/><path d="M388.454,277.363c8.9,0 10.517,-2.663 10.517,-9.992l0,-213.079c0,-7.325 -1.621,-9.988 -10.517,-9.988l0,-4.662l262.55,0c9.709,0 13.754,-2.667 13.754,-7.325l5.663,0l0,55.271l-5.663,0c0,-5.992 -4.046,-8.655 -13.754,-8.655l-194.587,0l0,59.267l127.029,0c9.708,0 13.754,-2.667 13.754,-8.658l5.663,0l0,55.925l-5.663,0c0,-2.663 -0.808,-4.659 -3.237,-5.992c-2.021,-1.329 -5.663,-2 -10.517,-2l-127.029,0l0,65.267l198.229,0c9.708,0 13.754,-2.671 13.754,-7.992l5.663,0l0,54.6l-5.663,0c0,-4.662 -4.046,-7.325 -13.754,-7.325l-266.192,0l0,-4.663Z" style="fill:#fff;fill-rule:nonzero;"/><path d="M1032.87,154.175l0,4.663c-4.046,0.666 -7.688,3.329 -7.688,10.654l0,65.587c0,5.329 2.025,7.321 7.284,8.321l0,4.663c-25.488,11.983 -87.788,37.295 -157.775,37.295c-93.046,0 -174.763,-37.966 -174.763,-124.525c0,-86.566 95.471,-124.525 179.617,-124.525c33.175,0 64.729,6.325 87.787,12.321c21.442,7.659 37.217,13.654 40.05,13.654c3.642,0 7.284,-1.666 8.9,-3.662l5.663,1.996l-39.238,54.6l-5.666,-2.996c0.404,-1.329 0.808,-3.329 0.808,-5.658c0,-10.325 -43.688,-30.967 -97.492,-30.967c-67.962,0 -122.979,27.637 -122.979,83.908c0,58.929 55.017,86.554 117.317,86.554c50.975,0 80.908,-14.316 93.046,-21.637l0,-27.629l-69.58,0c-8.091,0 -12.946,3.329 -12.946,7.983l-5.666,0l0,-58.588l5.667,0c0,4.659 4.854,7.988 12.945,7.988l134.709,0Z" style="fill:#fff;fill-rule:nonzero;"/><path d="M1053.07,282.029l0,-4.662c7.283,-0.329 9.708,-1.996 15.371,-12.654l110.441,-204.426c2.021,-3.329 4.446,-6.991 4.446,-9.987c0,-3.662 -3.229,-5.329 -8.496,-5.992l0,-4.666l88.196,0l0,4.662c-6.067,0.667 -8.5,2.663 -8.5,4.996c0,2.662 1.621,5.325 3.642,8.658l117.316,206.755c5.663,10.325 7.284,12.654 15.775,12.654l0,4.662l-80.5,0l0,-4.662c5.263,0 7.284,-1.667 7.284,-3.33c0,-3.662 -3.642,-8.325 -30.75,-55.937l-138.759,0c-23.462,43.279 -29.529,49.942 -29.529,54.271c0,2.996 2.425,4.662 6.067,4.991l0,4.663l-72.004,0l0,0.004Zm210.77,-101.887l-48.545,-87.23l-47.738,87.23l96.284,0Z" style="fill:#fff;fill-rule:nonzero;"/></g><g><path d="M2276.92,321.663l-2276.92,0l0,-321.663l2276.92,0l0,321.663Zm-2256.43,-20.488l2235.95,0l0,-280.688l-2235.95,0l0,280.688Z" style="fill:#fff;fill-rule:nonzero;"/></g><g><path d="M2284.1,5.933l13.837,0l0,36.863l6.804,0l0,-36.863l13.842,0l0,-5.933l-34.483,0l0,5.933Z" style="fill:#fff;fill-rule:nonzero;"/><path d="M2353.56,0l-12.695,33.708l-12.638,-33.708l-8.642,0l0,42.796l6.509,0l0,-31.967l12,31.967l5.604,0l11.996,-31.954l0,31.954l6.512,0l0,-42.796l-8.646,0Z" style="fill:#fff;fill-rule:nonzero;"/></g><path d="M1461.4,39.642l0,242.383l778.567,0l0,-242.383l-778.567,0Zm33.004,170.145c-6.471,-43.154 136.879,-100.675 323.625,-130.987c-4.212,1.087 -12.371,3.175 -12.371,3.175c0,0 -18.35,4.483 -23.425,5.725c-95.266,23.279 -162.008,65.217 -156.437,102.404c5.708,38.071 85.287,58.679 186.525,51.633c5.625,-0.395 25.579,-1.354 29.921,-1.55c-187.454,25.746 -341.371,12.767 -347.838,-30.4Zm466.834,9.326c-41.38,9.404 -93.105,17.387 -93.105,17.387l0,-108.163l26.667,88.017c0,0 63.508,-10.308 111.85,-30.433c42.017,-17.496 68.079,-39.442 66.321,-62.821c-2.85,-37.979 -83.617,-58.242 -183.329,-51.829c-6.65,0.429 -28.73,1.562 -33.071,1.754c187.421,-25.754 341.321,-12.767 347.796,30.387c5.504,36.709 -97.38,83.788 -243.13,115.7Z" style="fill:#fff;fill-rule:nonzero;"/></g></svg>