<?xml version="1.0" encoding="UTF-8" standalone="no"?><!DOCTYPE svg PUBLIC "-//W3C//DTD SVG 1.1//EN" "http://www.w3.org/Graphics/SVG/1.1/DTD/svg11.dtd"><svg width="100%" height="100%" viewBox="0 0 11305 2867" version="1.1" xmlns="http://www.w3.org/2000/svg" xmlns:xlink="http://www.w3.org/1999/xlink" xml:space="preserve" xmlns:serif="http://www.serif.com/" style="fill-rule:evenodd;clip-rule:evenodd;stroke-linejoin:round;stroke-miterlimit:2;"><g><g id="Layer_1"><g><g><g><path d="M458.333,496.529c-5.208,31.25 -3.471,64.234 3.471,98.959c8.684,34.72 19.1,65.97 29.517,93.75c13.887,32.983 31.25,65.97 50.346,98.958l204.862,392.358c12.15,24.308 22.567,50.35 29.513,78.125c6.946,24.308 12.154,53.821 15.625,86.808c3.471,32.984 1.737,69.442 -5.209,109.375l-39.929,229.167c-12.154,52.083 -32.987,98.958 -60.767,138.888c-12.149,17.362 -26.041,34.721 -43.399,50.346c-17.363,17.362 -36.459,31.25 -60.767,45.141c-22.567,13.888 -48.608,24.304 -78.125,31.25c-29.513,8.679 -62.5,12.15 -98.958,12.15l-145.834,0c-36.458,0 -67.708,-3.471 -93.75,-12.15c-26.042,-8.683 -48.608,-19.1 -67.708,-31.25c-19.096,-12.154 -32.984,-27.779 -45.138,-45.141c-12.154,-17.359 -19.096,-32.984 -26.041,-50.346c-13.888,-39.929 -17.363,-86.804 -12.155,-138.888l74.655,-425.35l234.375,0l-74.655,425.35c-1.733,10.417 0,20.834 1.738,29.513c3.471,6.946 6.946,13.887 13.887,20.833c6.946,6.946 17.363,8.679 31.25,8.679l145.834,0c13.891,0 26.041,-3.471 34.725,-8.679c8.679,-6.946 15.625,-12.154 20.833,-20.833c5.208,-8.679 10.417,-19.096 12.15,-29.513l36.458,-210.071c5.209,-31.25 3.476,-64.237 -3.47,-98.958c-8.679,-34.721 -19.096,-65.971 -29.513,-93.75c-13.891,-32.987 -31.25,-65.971 -50.35,-98.958l-201.387,-392.363c-12.154,-24.304 -22.571,-50.346 -29.513,-78.125c-6.946,-24.304 -12.154,-53.816 -15.625,-86.804c-3.475,-32.987 -1.737,-69.446 5.209,-109.375l39.929,-229.167c12.154,-52.083 32.987,-98.958 60.762,-138.887c12.154,-17.363 26.042,-34.725 43.404,-50.35c17.363,-17.358 36.459,-31.25 60.763,-45.138c22.571,-12.154 48.612,-24.304 78.125,-31.25c29.517,-8.679 62.5,-12.154 98.958,-12.154l145.834,0c36.458,0 67.708,3.475 93.75,12.154c26.041,8.68 48.612,19.096 67.708,31.25c19.1,13.888 32.987,27.78 45.142,45.138c10.416,17.362 19.095,32.987 26.041,50.35c13.888,39.929 17.359,86.804 12.15,138.887l-74.65,425.346l-234.375,0l74.65,-425.346c1.738,-10.416 0,-20.833 -1.733,-29.512c-3.475,-6.946 -6.946,-13.892 -13.892,-20.833c-6.941,-6.946 -17.358,-8.684 -31.25,-8.684l-145.833,0c-13.888,0 -26.042,3.475 -34.721,8.684c-8.679,6.941 -15.625,12.15 -20.833,20.833c-5.209,8.679 -10.417,19.096 -12.154,29.512l-39.93,210.071Z" style="fill:#fc0c18;fill-rule:nonzero;"/><path d="M1197.92,8.679l234.375,0l-295.138,1675.35c-1.737,10.417 0,20.833 1.734,29.513c3.475,6.946 6.945,13.887 13.891,20.833c6.942,6.946 17.359,8.679 31.25,8.679l145.834,0c13.887,0 26.041,-3.471 34.72,-8.679c8.68,-6.946 15.625,-12.154 20.834,-20.833c5.208,-8.679 10.416,-19.096 12.154,-29.513l295.137,-1675.35l234.375,0l-295.137,1675.35c-12.154,52.083 -32.988,98.958 -60.767,138.888c-12.15,17.362 -26.041,34.721 -43.4,50.346c-17.362,17.362 -36.458,31.25 -60.766,45.141c-22.567,13.888 -48.609,24.304 -78.125,31.25c-29.513,8.679 -62.5,12.15 -98.959,12.15l-145.833,0c-36.458,0 -67.708,-3.471 -93.75,-12.15c-26.042,-8.683 -48.608,-19.1 -67.708,-31.25c-19.096,-12.154 -32.984,-27.779 -45.138,-45.141c-12.154,-17.359 -19.096,-32.984 -26.042,-50.346c-13.887,-39.93 -17.362,-86.804 -12.154,-138.888l298.613,-1675.35Z" style="fill:#fc0c18;fill-rule:nonzero;"/><path d="M2086.8,8.679l439.238,0c36.458,0 67.708,3.475 93.75,12.154c26.041,8.68 48.612,19.096 67.708,31.25c19.096,13.888 32.988,27.78 45.138,45.138c10.416,17.362 19.099,32.987 26.041,50.35c13.892,39.929 17.363,86.804 12.154,138.887l-97.22,546.875c-12.155,52.084 -32.988,98.959 -60.767,138.888c-12.15,17.362 -26.042,34.725 -43.4,50.35c-17.363,17.358 -36.459,31.25 -60.767,45.137c-22.567,13.888 -48.608,24.305 -78.125,31.25c-29.512,8.68 -62.5,12.154 -98.958,12.154l-204.858,0l38.191,-220.487l204.863,0c13.887,0 26.041,-3.471 34.721,-8.679c8.683,-6.946 15.625,-12.154 20.833,-20.834c5.208,-8.683 10.417,-19.1 12.154,-29.516l97.221,-546.875c1.737,-10.417 0,-20.834 -1.733,-29.513c-3.475,-6.946 -6.946,-13.887 -13.892,-20.833c-6.942,-6.946 -17.358,-8.679 -31.25,-8.679l-204.858,0l-305.559,1736.11l-234.375,0l343.75,-1953.12Z" style="fill:#fc0c18;fill-rule:nonzero;"/><path d="M3053.82,892.363l293.4,0l-38.192,220.483l-293.404,0l-111.112,630.208l293.404,0l-38.196,220.488l-527.775,0l343.75,-1953.12l527.775,0l-38.192,220.487l-293.404,0l-118.054,661.459Z" style="fill:#fc0c18;fill-rule:nonzero;"/><path d="M3659.72,8.679l439.237,0c36.459,0 67.709,3.475 93.75,12.154c26.042,8.68 48.613,19.096 67.709,31.25c19.096,13.888 32.987,27.78 45.137,45.138c10.417,17.362 19.1,32.987 26.042,50.35c13.892,39.929 17.362,86.804 12.154,138.887l-97.221,546.875c-6.946,36.459 -20.833,67.709 -45.141,95.488c-24.305,27.775 -52.084,52.083 -83.334,72.917c24.308,20.833 43.404,45.137 57.292,72.916c13.891,27.775 17.362,59.025 12.154,95.484l-138.888,791.666l-234.375,0l138.888,-791.666c1.737,-10.417 0,-20.834 -1.738,-29.513c-3.47,-6.946 -6.941,-13.888 -13.887,-20.833c-6.946,-6.946 -17.363,-8.679 -31.25,-8.679l-204.863,0l-149.304,848.958l-234.375,0l342.013,-1951.39Zm78.125,883.684l204.862,0c13.888,0 26.042,-3.475 34.721,-8.684c8.683,-6.941 15.625,-12.15 20.833,-20.833c5.209,-8.679 10.417,-19.096 12.155,-29.513l97.22,-546.875c1.738,-10.416 0,-20.833 -1.733,-29.512c-3.475,-6.946 -6.946,-13.892 -13.892,-20.833c-6.941,-6.946 -17.358,-8.684 -31.25,-8.684l-206.595,0l-116.321,664.934Z" style="fill:#fc0c18;fill-rule:nonzero;"/><path d="M4690.96,1961.8l343.75,-1953.12l234.375,0l-343.75,1953.12l-234.375,0Zm440.975,-1171.88l137.15,-781.25l125,1171.88l-137.15,781.25l-125,-1171.88Zm126.734,1171.88l343.75,-1953.12l234.375,0l-343.75,1953.12l-234.375,0Z" style="fill:#fc0c18;fill-rule:nonzero;"/><path d="M5993.04,8.679l234.375,0l-343.75,1953.12l-234.375,0l343.75,-1953.12Z" style="fill:#fc0c18;fill-rule:nonzero;"/><path d="M6039.92,1961.8l343.75,-1953.12l234.375,0l-343.75,1953.12l-234.375,0Zm440.975,-1171.88l137.15,-781.25l125,1171.88l-137.15,781.25l-125,-1171.88Zm125,1171.88l343.75,-1953.12l234.375,0l-343.75,1953.12l-234.375,0Z" style="fill:#fc0c18;fill-rule:nonzero;"/><path d="M7340.29,8.679l576.387,0l-38.196,220.488l-156.25,0l-305.554,1732.64l-263.887,0l305.554,-1732.64l-156.25,0l38.196,-220.488Z" style="fill:#fc0c18;fill-rule:nonzero;"/><path d="M8151.04,892.363l293.404,0l-38.196,220.483l-293.404,0l-111.108,630.208l293.4,0l-38.192,220.488l-527.779,0l343.75,-1954.86l527.779,0l-38.196,220.488l-293.404,0l-118.054,663.196Z" style="fill:#fc0c18;fill-rule:nonzero;"/><path d="M8413.21,1961.8l343.75,-1953.12l234.375,0l-343.75,1953.12l-234.375,0Zm440.971,-1171.88l137.154,-781.25l125,1171.88l-137.154,781.25l-125,-1171.88Zm125,1171.88l343.75,-1953.12l234.375,0l-343.75,1953.12l-234.375,0Z" style="fill:#fc0c18;fill-rule:nonzero;"/><path d="M9713.54,8.679l460.071,0c36.458,0 67.708,3.475 93.75,12.154c26.041,8.68 48.608,19.096 67.708,31.25c19.096,13.888 32.983,27.78 45.137,45.138c10.417,17.362 19.096,32.987 26.042,50.35c13.888,39.929 17.363,86.804 12.154,138.887l-248.266,1397.57c-12.15,52.083 -32.984,98.958 -60.763,138.888c-12.154,17.362 -26.042,34.721 -43.404,50.346c-17.358,17.362 -36.458,31.25 -60.763,45.141c-22.57,13.888 -48.612,24.304 -78.125,31.25c-29.512,8.679 -62.5,12.15 -98.958,12.15l-458.333,0l343.75,-1953.12Zm-71.179,1732.64l223.958,0c13.887,0 26.042,-3.475 34.721,-8.683c8.679,-6.942 15.625,-12.15 20.833,-20.834c5.208,-8.679 10.417,-19.096 12.154,-29.512l246.525,-1395.83c1.738,-10.416 0,-20.833 -1.733,-29.512c-3.475,-6.946 -6.946,-13.892 -13.892,-20.834c-6.941,-6.945 -17.358,-8.683 -31.25,-8.683l-223.958,0l-267.358,1513.89Z" style="fill:#fc0c18;fill-rule:nonzero;"/><path d="M10572.9,286.458c12.154,-52.083 32.987,-98.958 60.762,-138.887c12.154,-17.363 26.042,-34.725 43.404,-50.35c17.363,-17.359 36.459,-31.25 60.763,-45.138c22.571,-12.154 48.612,-24.304 78.125,-31.25c29.516,-8.679 62.5,-12.154 98.958,-12.154l145.833,0c36.459,0 67.709,3.475 93.75,12.154c26.042,8.679 48.613,19.096 67.709,31.25c19.1,13.888 32.987,27.779 45.141,45.138c10.417,17.362 19.096,32.987 26.042,50.35c13.888,39.929 17.358,86.804 12.15,138.887l-246.525,1397.57c-12.154,52.083 -32.987,98.958 -60.767,138.888c-12.15,17.362 -26.041,34.721 -43.4,50.346c-17.362,17.362 -36.458,31.25 -60.766,45.141c-22.567,13.888 -48.609,24.304 -78.125,31.25c-29.513,8.679 -62.5,12.15 -98.959,12.15l-145.833,0c-36.458,0 -67.708,-3.471 -93.75,-12.15c-26.042,-8.683 -48.608,-19.1 -67.708,-31.25c-19.096,-12.154 -32.984,-27.779 -45.138,-45.141c-12.154,-17.359 -19.095,-32.984 -26.041,-50.346c-13.888,-39.93 -17.363,-86.804 -12.155,-138.888l246.53,-1397.57Zm-12.155,1397.57c-1.733,10.417 0.001,20.833 1.738,29.513c3.471,6.945 6.946,13.887 13.888,20.833c6.945,6.946 17.362,8.679 31.249,8.679l145.834,0c13.891,0 26.041,-3.471 34.725,-8.679c8.679,-6.946 15.625,-12.154 20.833,-20.833c5.208,-8.68 10.417,-19.096 12.15,-29.513l246.529,-1395.83c1.738,-10.417 0,-20.834 -1.737,-29.517c-3.471,-6.942 -6.942,-13.887 -13.888,-20.833c-6.946,-6.942 -17.362,-8.679 -31.25,-8.679l-145.833,0c-13.888,0 -26.042,3.47 -34.721,8.679c-8.683,6.946 -15.625,12.154 -20.833,20.833c-5.209,8.683 -10.417,19.1 -12.154,29.517l-246.53,1395.83Z" style="fill:#fc0c18;fill-rule:nonzero;"/></g><g><path d="M458.333,496.529c-5.208,31.25 -3.471,64.234 3.471,98.959c8.684,34.72 19.1,65.97 29.517,93.75c13.887,32.983 31.25,65.97 50.346,98.958l204.862,392.358c12.15,24.308 22.567,50.35 29.513,78.125c6.946,24.308 12.154,53.821 15.625,86.808c3.471,32.984 1.737,69.442 -5.209,109.375l-39.929,229.167c-12.154,52.083 -32.987,98.958 -60.767,138.888c-12.149,17.362 -26.041,34.721 -43.399,50.346c-17.363,17.362 -36.459,31.25 -60.767,45.141c-22.567,13.888 -48.608,24.304 -78.125,31.25c-29.513,8.679 -62.5,12.15 -98.958,12.15l-145.834,0c-36.458,0 -67.708,-3.471 -93.75,-12.15c-26.042,-8.683 -48.608,-19.1 -67.708,-31.25c-19.096,-12.154 -32.984,-27.779 -45.138,-45.141c-12.154,-17.359 -19.096,-32.984 -26.041,-50.346c-13.888,-39.929 -17.363,-86.804 -12.155,-138.888l74.655,-425.35l234.375,0l-74.655,425.35c-1.733,10.417 0,20.834 1.738,29.513c3.471,6.946 6.946,13.887 13.887,20.833c6.946,6.946 17.363,8.679 31.25,8.679l145.834,0c13.891,0 26.041,-3.471 34.725,-8.679c8.679,-6.946 15.625,-12.154 20.833,-20.833c5.208,-8.679 10.417,-19.096 12.15,-29.513l36.458,-210.071c5.209,-31.25 3.476,-64.237 -3.47,-98.958c-8.679,-34.721 -19.096,-65.971 -29.513,-93.75c-13.891,-32.987 -31.25,-65.971 -50.35,-98.958l-201.387,-392.363c-12.154,-24.304 -22.571,-50.346 -29.513,-78.125c-6.946,-24.304 -12.154,-53.816 -15.625,-86.804c-3.475,-32.987 -1.737,-69.446 5.209,-109.375l39.929,-229.167c12.154,-52.083 32.987,-98.958 60.762,-138.887c12.154,-17.363 26.042,-34.725 43.404,-50.35c17.363,-17.358 36.459,-31.25 60.763,-45.138c22.571,-12.154 48.612,-24.304 78.125,-31.25c29.517,-8.679 62.5,-12.154 98.958,-12.154l145.834,0c36.458,0 67.708,3.475 93.75,12.154c26.041,8.68 48.612,19.096 67.708,31.25c19.1,13.888 32.987,27.78 45.142,45.138c10.416,17.362 19.095,32.987 26.041,50.35c13.888,39.929 17.359,86.804 12.15,138.887l-74.65,425.346l-234.375,0l74.65,-425.346c1.738,-10.416 0,-20.833 -1.733,-29.512c-3.475,-6.946 -6.946,-13.892 -13.892,-20.833c-6.941,-6.946 -17.358,-8.684 -31.25,-8.684l-145.833,0c-13.888,0 -26.042,3.475 -34.721,8.684c-8.679,6.941 -15.625,12.15 -20.833,20.833c-5.209,8.679 -10.417,19.096 -12.154,29.512l-39.93,210.071Z" style="fill:#fc0c18;fill-rule:nonzero;"/><path d="M1197.92,8.679l234.375,0l-295.138,1675.35c-1.737,10.417 0,20.833 1.734,29.513c3.475,6.946 6.945,13.887 13.891,20.833c6.942,6.946 17.359,8.679 31.25,8.679l145.834,0c13.887,0 26.041,-3.471 34.72,-8.679c8.68,-6.946 15.625,-12.154 20.834,-20.833c5.208,-8.679 10.416,-19.096 12.154,-29.513l295.137,-1675.35l234.375,0l-295.137,1675.35c-12.154,52.083 -32.988,98.958 -60.767,138.888c-12.15,17.362 -26.041,34.721 -43.4,50.346c-17.362,17.362 -36.458,31.25 -60.766,45.141c-22.567,13.888 -48.609,24.304 -78.125,31.25c-29.513,8.679 -62.5,12.15 -98.959,12.15l-145.833,0c-36.458,0 -67.708,-3.471 -93.75,-12.15c-26.042,-8.683 -48.608,-19.1 -67.708,-31.25c-19.096,-12.154 -32.984,-27.779 -45.138,-45.141c-12.154,-17.359 -19.096,-32.984 -26.042,-50.346c-13.887,-39.93 -17.362,-86.804 -12.154,-138.888l298.613,-1675.35Z" style="fill:#fc0c18;fill-rule:nonzero;"/><path d="M2086.8,8.679l439.238,0c36.458,0 67.708,3.475 93.75,12.154c26.041,8.68 48.612,19.096 67.708,31.25c19.096,13.888 32.988,27.78 45.138,45.138c10.416,17.362 19.099,32.987 26.041,50.35c13.892,39.929 17.363,86.804 12.154,138.887l-97.22,546.875c-12.155,52.084 -32.988,98.959 -60.767,138.888c-12.15,17.362 -26.042,34.725 -43.4,50.35c-17.363,17.358 -36.459,31.25 -60.767,45.137c-22.567,13.888 -48.608,24.305 -78.125,31.25c-29.512,8.68 -62.5,12.154 -98.958,12.154l-204.858,0l38.191,-220.487l204.863,0c13.887,0 26.041,-3.471 34.721,-8.679c8.683,-6.946 15.625,-12.154 20.833,-20.834c5.208,-8.683 10.417,-19.1 12.154,-29.516l97.221,-546.875c1.737,-10.417 0,-20.834 -1.733,-29.513c-3.475,-6.946 -6.946,-13.887 -13.892,-20.833c-6.942,-6.946 -17.358,-8.679 -31.25,-8.679l-204.858,0l-305.559,1736.11l-234.375,0l343.75,-1953.12Z" style="fill:#fc0c18;fill-rule:nonzero;"/><path d="M3053.82,892.363l293.4,0l-38.192,220.483l-293.404,0l-111.112,630.208l293.404,0l-38.196,220.488l-527.775,0l343.75,-1953.12l527.775,0l-38.192,220.487l-293.404,0l-118.054,661.459Z" style="fill:#fc0c18;fill-rule:nonzero;"/><path d="M3659.72,8.679l439.237,0c36.459,0 67.709,3.475 93.75,12.154c26.042,8.68 48.613,19.096 67.709,31.25c19.096,13.888 32.987,27.78 45.137,45.138c10.417,17.362 19.1,32.987 26.042,50.35c13.892,39.929 17.362,86.804 12.154,138.887l-97.221,546.875c-6.946,36.459 -20.833,67.709 -45.141,95.488c-24.305,27.775 -52.084,52.083 -83.334,72.917c24.308,20.833 43.404,45.137 57.292,72.916c13.891,27.775 17.362,59.025 12.154,95.484l-138.888,791.666l-234.375,0l138.888,-791.666c1.737,-10.417 0,-20.834 -1.738,-29.513c-3.47,-6.946 -6.941,-13.888 -13.887,-20.833c-6.946,-6.946 -17.363,-8.679 -31.25,-8.679l-204.863,0l-149.304,848.958l-234.375,0l342.013,-1951.39Zm78.125,883.684l204.862,0c13.888,0 26.042,-3.475 34.721,-8.684c8.683,-6.941 15.625,-12.15 20.833,-20.833c5.209,-8.679 10.417,-19.096 12.155,-29.513l97.22,-546.875c1.738,-10.416 0,-20.833 -1.733,-29.512c-3.475,-6.946 -6.946,-13.892 -13.892,-20.833c-6.941,-6.946 -17.358,-8.684 -31.25,-8.684l-206.595,0l-116.321,664.934Z" style="fill:#fc0c18;fill-rule:nonzero;"/><path d="M4690.96,1961.8l343.75,-1953.12l234.375,0l-343.75,1953.12l-234.375,0Zm440.975,-1171.88l137.15,-781.25l125,1171.88l-137.15,781.25l-125,-1171.88Zm126.734,1171.88l343.75,-1953.12l234.375,0l-343.75,1953.12l-234.375,0Z" style="fill:#fc0c18;fill-rule:nonzero;"/><path d="M5993.04,8.679l234.375,0l-343.75,1953.12l-234.375,0l343.75,-1953.12Z" style="fill:#fc0c18;fill-rule:nonzero;"/><path d="M6039.92,1961.8l343.75,-1953.12l234.375,0l-343.75,1953.12l-234.375,0Zm440.975,-1171.88l137.15,-781.25l125,1171.88l-137.15,781.25l-125,-1171.88Zm125,1171.88l343.75,-1953.12l234.375,0l-343.75,1953.12l-234.375,0Z" style="fill:#fc0c18;fill-rule:nonzero;"/><path d="M7340.29,8.679l576.387,0l-38.196,220.488l-156.25,0l-305.554,1732.64l-263.887,0l305.554,-1732.64l-156.25,0l38.196,-220.488Z" style="fill:#fc0c18;fill-rule:nonzero;"/><path d="M8151.04,892.363l293.404,0l-38.196,220.483l-293.404,0l-111.108,630.208l293.4,0l-38.192,220.488l-527.779,0l343.75,-1954.86l527.779,0l-38.196,220.488l-293.404,0l-118.054,663.196Z" style="fill:#fc0c18;fill-rule:nonzero;"/><path d="M8413.21,1961.8l343.75,-1953.12l234.375,0l-343.75,1953.12l-234.375,0Zm440.971,-1171.88l137.154,-781.25l125,1171.88l-137.154,781.25l-125,-1171.88Zm125,1171.88l343.75,-1953.12l234.375,0l-343.75,1953.12l-234.375,0Z" style="fill:#fc0c18;fill-rule:nonzero;"/><path d="M9713.54,8.679l460.071,0c36.458,0 67.708,3.475 93.75,12.154c26.041,8.68 48.608,19.096 67.708,31.25c19.096,13.888 32.983,27.78 45.137,45.138c10.417,17.362 19.096,32.987 26.042,50.35c13.888,39.929 17.363,86.804 12.154,138.887l-248.266,1397.57c-12.15,52.083 -32.984,98.958 -60.763,138.888c-12.154,17.362 -26.042,34.721 -43.404,50.346c-17.358,17.362 -36.458,31.25 -60.763,45.141c-22.57,13.888 -48.612,24.304 -78.125,31.25c-29.512,8.679 -62.5,12.15 -98.958,12.15l-458.333,0l343.75,-1953.12Zm-71.179,1732.64l223.958,0c13.887,0 26.042,-3.475 34.721,-8.683c8.679,-6.942 15.625,-12.15 20.833,-20.834c5.208,-8.679 10.417,-19.096 12.154,-29.512l246.525,-1395.83c1.738,-10.416 0,-20.833 -1.733,-29.512c-3.475,-6.946 -6.946,-13.892 -13.892,-20.834c-6.941,-6.945 -17.358,-8.683 -31.25,-8.683l-223.958,0l-267.358,1513.89Z" style="fill:#fc0c18;fill-rule:nonzero;"/><path d="M10572.9,286.458c12.154,-52.083 32.987,-98.958 60.762,-138.887c12.154,-17.363 26.042,-34.725 43.404,-50.35c17.363,-17.359 36.459,-31.25 60.763,-45.138c22.571,-12.154 48.612,-24.304 78.125,-31.25c29.516,-8.679 62.5,-12.154 98.958,-12.154l145.833,0c36.459,0 67.709,3.475 93.75,12.154c26.042,8.679 48.613,19.096 67.709,31.25c19.1,13.888 32.987,27.779 45.141,45.138c10.417,17.362 19.096,32.987 26.042,50.35c13.888,39.929 17.358,86.804 12.15,138.887l-246.525,1397.57c-12.154,52.083 -32.987,98.958 -60.767,138.888c-12.15,17.362 -26.041,34.721 -43.4,50.346c-17.362,17.362 -36.458,31.25 -60.766,45.141c-22.567,13.888 -48.609,24.304 -78.125,31.25c-29.513,8.679 -62.5,12.15 -98.959,12.15l-145.833,0c-36.458,0 -67.708,-3.471 -93.75,-12.15c-26.042,-8.683 -48.608,-19.1 -67.708,-31.25c-19.096,-12.154 -32.984,-27.779 -45.138,-45.141c-12.154,-17.359 -19.095,-32.984 -26.041,-50.346c-13.888,-39.93 -17.363,-86.804 -12.155,-138.888l246.53,-1397.57Zm-12.155,1397.57c-1.733,10.417 0.001,20.833 1.738,29.513c3.471,6.945 6.946,13.887 13.888,20.833c6.945,6.946 17.362,8.679 31.249,8.679l145.834,0c13.891,0 26.041,-3.471 34.725,-8.679c8.679,-6.946 15.625,-12.154 20.833,-20.833c5.208,-8.68 10.417,-19.096 12.15,-29.513l246.529,-1395.83c1.738,-10.417 0,-20.834 -1.737,-29.517c-3.471,-6.942 -6.942,-13.887 -13.888,-20.833c-6.946,-6.942 -17.362,-8.679 -31.25,-8.679l-145.833,0c-13.888,0 -26.042,3.47 -34.721,8.679c-8.683,6.946 -15.625,12.154 -20.833,20.833c-5.209,8.683 -10.417,19.1 -12.154,29.517l-246.53,1395.83Z" style="fill:#fc0c18;fill-rule:nonzero;"/></g></g><g><g><path d="M3619.79,2565.97l125,0l-6.946,-305.554l-118.054,305.554Zm-980.904,-310.763c-12.151,-1.737 -26.042,-3.47 -41.667,-3.47l-50.346,-0.001l-32.987,185.763l50.349,0c34.721,0 60.763,-6.946 78.125,-19.096c20.834,-15.625 34.721,-41.666 39.93,-76.391c5.208,-32.984 1.737,-55.555 -10.417,-69.442c-8.679,-8.683 -19.096,-13.892 -32.988,-17.363Zm-2630.21,-163.196l0,781.251l11302.1,0l-0.001,-781.251l-11302.1,0.001Zm493.058,164.933l-173.612,0l-32.988,180.554l163.196,0l-12.154,65.971l-163.192,0l-32.987,190.975l184.029,0l-12.154,65.971l-262.154,0l100.696,-572.917l253.47,0l-12.15,69.446Zm526.042,505.208l-116.321,0l-62.5,-397.571c0,-6.946 -3.471,-27.779 -6.946,-64.237c-1.733,-20.834 -3.47,-38.192 -5.208,-50.346l-3.471,19.096l-3.471,15.625l-3.475,24.308l-6.941,36.458l-72.917,416.667l-71.183,0l100.696,-572.917l123.262,0l53.821,340.275c10.417,79.863 17.362,135.417 20.833,168.405c1.738,-12.155 3.471,-29.513 5.209,-53.821c5.208,-34.721 6.945,-53.817 8.679,-59.025l69.446,-395.834l71.179,0l-100.692,572.917Zm673.609,-505.208l-133.68,0l-88.541,505.208l-78.125,0l88.541,-505.208l-131.945,0l12.154,-67.709l345.487,0l-13.892,67.709Zm498.267,0l-173.612,0l-31.25,180.554l163.195,0l-12.154,65.971l-163.196,0l-32.983,190.975l184.025,0l-12.15,65.971l-263.892,0l100.696,-572.917l253.471,0l-12.15,69.446Zm562.5,79.858c-8.683,46.875 -26.042,81.6 -55.558,102.433c-15.625,12.15 -38.192,20.834 -65.971,27.775c17.363,5.209 31.25,8.684 39.929,13.892c19.1,10.417 27.779,32.983 27.779,65.971c0,22.571 -3.47,60.762 -10.416,112.846c-3.471,34.725 -5.209,60.766 -1.738,76.391c1.738,8.68 3.475,15.625 5.209,24.305l-88.542,0c-1.734,-10.417 -3.471,-20.834 -3.471,-32.988c0,-6.942 3.471,-32.983 6.946,-76.387c5.208,-57.292 6.942,-95.488 6.942,-111.113c-1.734,-13.887 -8.68,-24.304 -19.096,-29.512c-8.679,-5.209 -19.096,-8.68 -29.513,-10.417c-8.683,-1.738 -20.833,-1.738 -34.725,-1.738l-38.191,0l-45.142,260.417l-78.125,0l100.696,-572.917l144.096,0c38.195,0 67.708,3.475 85.07,8.684c48.613,20.833 67.709,67.708 53.821,142.358Zm607.638,-79.858l-133.68,0l-88.541,505.208l-78.125,0l88.541,-505.208l-131.945,0l12.154,-67.709l345.483,0l-13.887,67.709Zm383.679,505.208l-3.471,-130.208l-152.779,0l-50.346,130.208l-76.388,0l232.638,-572.917l104.167,0l31.25,572.917l-85.071,0Zm414.933,0l-78.125,0l100.692,-572.917l78.125,0l-100.692,572.917Zm616.317,0l-116.317,0l-62.5,-397.571c0,-6.946 -3.475,-27.779 -6.946,-64.237c-1.737,-20.834 -3.471,-38.192 -5.208,-50.346l-3.471,19.096l-3.475,15.625l-3.471,24.308l-6.946,36.458l-72.916,416.667l-71.179,0l100.695,-572.917l123.263,0l53.821,340.275c10.416,79.863 17.358,135.417 20.833,168.405c1.733,-12.155 3.471,-29.513 5.208,-53.821c5.209,-34.721 6.942,-53.817 8.68,-59.025l69.445,-395.834l71.18,0l-100.696,572.917Zm727.433,0l-67.708,0l86.804,-491.321l-208.333,491.321l-78.125,0l-34.721,-491.321l-86.809,491.321l-67.708,0l100.696,-572.917l130.208,0l27.779,439.234l168.4,-439.234l130.209,0l-100.692,572.917Zm614.583,-505.208l-173.612,0l-31.25,180.554l163.196,0l-12.154,65.971l-163.196,0l-32.983,190.975l182.291,0l-12.154,65.971l-263.887,0l100.691,-572.917l253.475,0l-10.416,69.446Zm526.041,505.208l-116.321,0l-62.5,-397.571c0,-6.946 -3.471,-27.779 -6.945,-64.237c-1.734,-20.834 -3.471,-38.192 -5.209,-50.346l-3.471,19.096l-3.471,15.625l-3.475,24.308l-6.941,36.458l-72.917,416.667l-71.183,0l100.696,-572.917l123.262,0l53.821,340.275c10.417,79.863 17.362,135.417 20.833,168.405c1.738,-12.155 3.471,-29.513 5.209,-53.821c5.208,-34.721 6.945,-53.817 8.679,-59.025l69.446,-395.834l71.179,0l-100.692,572.917Zm673.608,-505.208l-133.679,0l-88.541,505.208l-78.125,0l88.541,-505.208l-131.946,0l12.155,-67.709l345.487,0l-13.892,67.709Zm895.834,79.858c0,1.738 -1.734,8.683 -3.471,17.363l-79.863,0c1.738,-8.68 1.738,-13.888 3.475,-15.625c3.471,-19.096 3.471,-32.988 3.471,-41.667c-5.208,-34.721 -26.041,-52.083 -65.971,-52.083c-26.041,0 -46.875,8.679 -62.5,24.304c-13.891,13.891 -22.57,31.25 -26.041,53.821c-3.475,20.833 -1.738,36.458 5.208,50.345c8.679,19.1 24.304,34.725 48.608,48.613l46.875,27.779c41.667,26.042 69.446,52.083 81.6,78.125c10.417,22.567 12.15,52.083 5.209,88.542c-8.684,52.083 -32.988,92.012 -69.446,119.791c-32.988,24.305 -72.917,34.721 -123.263,34.721c-57.291,0 -98.958,-13.887 -121.529,-41.666c-22.57,-26.042 -27.779,-67.709 -19.096,-123.263c1.734,-5.208 3.471,-15.625 6.942,-32.987l79.863,0c-1.738,10.416 -3.471,19.095 -5.209,22.57c-5.208,31.25 -5.208,55.555 0,72.917c8.679,26.042 31.25,38.192 67.709,38.192c32.987,0 57.291,-10.417 74.654,-29.513c13.887,-15.625 24.304,-34.721 27.775,-59.029c5.208,-27.775 0,-50.346 -15.625,-69.442c-12.15,-13.891 -32.984,-31.25 -65.971,-50.35c-32.988,-19.095 -59.029,-38.191 -76.388,-55.554c-27.779,-27.779 -38.195,-65.971 -27.779,-118.054c8.679,-48.612 29.513,-85.071 62.5,-111.112c31.25,-24.305 71.179,-34.721 118.054,-34.721c53.821,0 92.017,13.887 114.584,41.666c19.1,26.042 24.308,64.234 15.625,116.317Zm402.779,187.5l-41.667,237.85l-78.125,0l41.667,-237.85l-71.179,-335.067l90.275,0l39.933,251.734l131.942,-251.734l78.125,0l-190.971,335.067Zm711.804,-187.5c0,1.738 -1.733,8.683 -3.471,17.363l-79.862,0c1.737,-8.68 1.737,-13.888 3.475,-15.625c3.471,-19.096 3.471,-32.988 3.471,-41.667c-5.209,-34.721 -26.042,-52.083 -65.971,-52.083c-26.042,0 -46.875,8.679 -62.5,24.304c-13.892,13.891 -22.571,31.25 -26.042,53.821c-3.475,20.833 -1.737,36.458 5.208,50.345c8.68,19.1 24.305,34.725 48.609,48.613l46.875,27.779c41.666,26.042 69.446,52.083 81.6,78.125c10.416,22.567 12.15,52.083 5.208,88.542c-8.683,52.083 -32.987,92.012 -69.446,119.791c-32.987,24.305 -72.916,34.721 -123.262,34.721c-57.292,0 -98.959,-13.887 -121.529,-41.666c-22.571,-26.042 -27.78,-67.709 -19.096,-123.263c1.733,-5.208 3.471,-15.625 6.941,-32.987l79.863,0c-1.738,10.416 -3.471,19.095 -5.208,22.57c-5.209,31.25 -5.209,55.555 0,72.917c8.679,26.042 31.25,38.192 67.708,38.192c32.987,0 57.292,-10.417 74.654,-29.513c13.888,-15.625 24.304,-34.721 27.775,-59.029c5.208,-27.775 0,-50.346 -15.625,-69.442c-12.15,-13.891 -32.983,-31.25 -65.971,-50.35c-32.987,-19.095 -59.029,-38.191 -76.387,-55.554c-27.779,-27.779 -38.196,-65.971 -27.779,-118.054c8.679,-48.612 29.512,-85.071 62.5,-111.112c31.25,-24.305 71.179,-34.721 118.054,-34.721c53.821,0 92.016,13.887 114.583,41.666c19.1,26.042 26.042,64.234 15.625,116.317Zm598.958,-79.858l-133.679,0l-88.541,505.208l-78.125,0l88.541,-505.208l-131.946,0l12.155,-67.709l343.75,0l-12.155,67.709Zm500,0l-173.608,0l-31.25,180.554l163.192,0l-12.15,65.971l-163.196,0l-32.988,190.975l184.03,0l-12.155,65.971l-263.887,0l100.696,-572.917l253.471,0l-12.155,69.446Zm640.625,505.208l-67.708,0l86.808,-491.321l-208.333,491.321l-78.125,0l-34.725,-491.321l-86.804,491.321l-67.708,0l100.695,-572.917l130.209,0l27.775,439.234l168.404,-439.234l130.208,0l-100.696,572.917Z" style="fill:#fc0c18;fill-rule:nonzero;"/></g></g></g></g></g></svg>