<?xml version="1.0" encoding="UTF-8" standalone="no"?><!DOCTYPE svg PUBLIC "-//W3C//DTD SVG 1.1//EN" "http://www.w3.org/Graphics/SVG/1.1/DTD/svg11.dtd"><svg width="100%" height="100%" viewBox="0 0 2713 688" version="1.1" xmlns="http://www.w3.org/2000/svg" xmlns:xlink="http://www.w3.org/1999/xlink" xml:space="preserve" xmlns:serif="http://www.serif.com/" style="fill-rule:evenodd;clip-rule:evenodd;stroke-linejoin:round;stroke-miterlimit:2;"><rect id="Artboard1" x="0" y="0" width="2712.5" height="687.5" style="fill:none;"/><clipPath id="_clip1"><rect x="0" y="0" width="2712.5" height="687.5"/></clipPath><g clip-path="url(#_clip1)"><g id="Layer_1"><g><g><g><path d="M110,119.167c-1.25,7.5 -0.833,15.416 0.833,23.75c2.084,8.333 4.584,15.833 7.084,22.5c3.333,7.916 7.5,15.833 12.083,23.75l49.167,94.166c2.916,5.834 5.416,12.084 7.083,18.75c1.667,5.834 2.917,12.917 3.75,20.834c0.833,7.916 0.417,16.666 -1.25,26.25l-9.583,55c-2.917,12.5 -7.917,23.75 -14.584,33.333c-2.916,4.167 -6.25,8.333 -10.416,12.083c-4.167,4.167 -8.75,7.5 -14.584,10.834c-5.416,3.333 -11.666,5.833 -18.75,7.5c-7.083,2.083 -15,2.916 -23.75,2.916l-35,0c-8.75,0 -16.25,-0.833 -22.5,-2.916c-6.25,-2.084 -11.666,-4.584 -16.25,-7.5c-4.583,-2.917 -7.916,-6.667 -10.833,-10.834c-2.917,-4.166 -4.583,-7.916 -6.25,-12.083c-3.333,-9.583 -4.167,-20.833 -2.917,-33.333l17.917,-102.084l56.25,0l-17.917,102.084c-0.416,2.5 0,5 0.417,7.083c0.833,1.667 1.667,3.333 3.333,5c1.667,1.667 4.167,2.083 7.5,2.083l35,0c3.334,0 6.25,-0.833 8.334,-2.083c2.083,-1.667 3.75,-2.917 5,-5c1.25,-2.083 2.5,-4.583 2.916,-7.083l8.75,-50.417c1.25,-7.5 0.834,-15.417 -0.833,-23.75c-2.083,-8.333 -4.583,-15.833 -7.083,-22.5c-3.334,-7.917 -7.5,-15.833 -12.084,-23.75l-48.333,-94.167c-2.917,-5.833 -5.417,-12.083 -7.083,-18.75c-1.667,-5.833 -2.917,-12.916 -3.75,-20.833c-0.834,-7.917 -0.417,-16.667 1.25,-26.25l9.583,-55c2.917,-12.5 7.917,-23.75 14.583,-33.333c2.917,-4.167 6.25,-8.334 10.417,-12.084c4.167,-4.166 8.75,-7.5 14.583,-10.833c5.417,-2.917 11.667,-5.833 18.75,-7.5c7.084,-2.083 15,-2.917 23.75,-2.917l35,0c8.75,0 16.25,0.834 22.5,2.917c6.25,2.083 11.667,4.583 16.25,7.5c4.584,3.333 7.917,6.667 10.834,10.833c2.5,4.167 4.583,7.917 6.25,12.084c3.333,9.583 4.166,20.833 2.916,33.333l-17.916,102.083l-56.25,0l17.916,-102.083c0.417,-2.5 0,-5 -0.416,-7.083c-0.834,-1.667 -1.667,-3.334 -3.334,-5c-1.666,-1.667 -4.166,-2.084 -7.5,-2.084l-35,0c-3.333,0 -6.25,0.834 -8.333,2.084c-2.083,1.666 -3.75,2.916 -5,5c-1.25,2.083 -2.5,4.583 -2.917,7.083l-9.583,50.417Z" style="fill:#fc0c18;fill-rule:nonzero;"/><path d="M287.5,2.083l56.25,0l-70.833,402.084c-0.417,2.5 0,5 0.416,7.083c0.834,1.667 1.667,3.333 3.334,5c1.666,1.667 4.166,2.083 7.5,2.083l35,0c3.333,0 6.25,-0.833 8.333,-2.083c2.083,-1.667 3.75,-2.917 5,-5c1.25,-2.083 2.5,-4.583 2.917,-7.083l70.833,-402.084l56.25,0l-70.833,402.084c-2.917,12.5 -7.917,23.75 -14.584,33.333c-2.916,4.167 -6.25,8.333 -10.416,12.083c-4.167,4.167 -8.75,7.5 -14.584,10.834c-5.416,3.333 -11.666,5.833 -18.75,7.5c-7.083,2.083 -15,2.916 -23.75,2.916l-35,0c-8.75,0 -16.25,-0.833 -22.5,-2.916c-6.25,-2.084 -11.666,-4.584 -16.25,-7.5c-4.583,-2.917 -7.916,-6.667 -10.833,-10.834c-2.917,-4.166 -4.583,-7.916 -6.25,-12.083c-3.333,-9.583 -4.167,-20.833 -2.917,-33.333l71.667,-402.084Z" style="fill:#fc0c18;fill-rule:nonzero;"/><path d="M500.833,2.083l105.417,0c8.75,0 16.25,0.834 22.5,2.917c6.25,2.083 11.667,4.583 16.25,7.5c4.583,3.333 7.917,6.667 10.833,10.833c2.5,4.167 4.584,7.917 6.25,12.084c3.334,9.583 4.167,20.833 2.917,33.333l-23.333,131.25c-2.917,12.5 -7.917,23.75 -14.584,33.333c-2.916,4.167 -6.25,8.334 -10.416,12.084c-4.167,4.166 -8.75,7.5 -14.584,10.833c-5.416,3.333 -11.666,5.833 -18.75,7.5c-7.083,2.083 -15,2.917 -23.75,2.917l-49.166,0l9.166,-52.917l49.167,0c3.333,0 6.25,-0.833 8.333,-2.083c2.084,-1.667 3.75,-2.917 5,-5c1.25,-2.084 2.5,-4.584 2.917,-7.084l23.333,-131.25c0.417,-2.5 0,-5 -0.416,-7.083c-0.834,-1.667 -1.667,-3.333 -3.334,-5c-1.666,-1.667 -4.166,-2.083 -7.5,-2.083l-49.166,0l-73.334,416.666l-56.25,0l82.5,-468.75Z" style="fill:#fc0c18;fill-rule:nonzero;"/><path d="M732.917,214.167l70.416,0l-9.166,52.916l-70.417,0l-26.667,151.25l70.417,0l-9.167,52.917l-126.666,0l82.5,-468.75l126.666,0l-9.166,52.917l-70.417,0l-28.333,158.75Z" style="fill:#fc0c18;fill-rule:nonzero;"/><path d="M878.333,2.083l105.417,0c8.75,0 16.25,0.834 22.5,2.917c6.25,2.083 11.667,4.583 16.25,7.5c4.583,3.333 7.917,6.667 10.833,10.833c2.5,4.167 4.584,7.917 6.25,12.084c3.334,9.583 4.167,20.833 2.917,33.333l-23.333,131.25c-1.667,8.75 -5,16.25 -10.834,22.917c-5.833,6.666 -12.5,12.5 -20,17.5c5.834,5 10.417,10.833 13.75,17.5c3.334,6.666 4.167,14.166 2.917,22.916l-33.333,190l-56.25,0l33.333,-190c0.417,-2.5 0,-5 -0.417,-7.083c-0.833,-1.667 -1.666,-3.333 -3.333,-5c-1.667,-1.667 -4.167,-2.083 -7.5,-2.083l-49.167,0l-35.833,203.75l-56.25,0l82.083,-468.334Zm18.75,212.084l49.167,0c3.333,0 6.25,-0.834 8.333,-2.084c2.084,-1.666 3.75,-2.916 5,-5c1.25,-2.083 2.5,-4.583 2.917,-7.083l23.333,-131.25c0.417,-2.5 0,-5 -0.416,-7.083c-0.834,-1.667 -1.667,-3.334 -3.334,-5c-1.666,-1.667 -4.166,-2.084 -7.5,-2.084l-49.583,0l-27.917,159.584Z" style="fill:#fc0c18;fill-rule:nonzero;"/><path d="M1125.83,470.833l82.5,-468.75l56.25,0l-82.5,468.75l-56.25,0Zm105.834,-281.25l32.916,-187.5l30,281.25l-32.916,187.5l-30,-281.25Zm30.416,281.25l82.5,-468.75l56.25,0l-82.5,468.75l-56.25,0Z" style="fill:#fc0c18;fill-rule:nonzero;"/><path d="M1438.33,2.083l56.25,0l-82.5,468.75l-56.25,0l82.5,-468.75Z" style="fill:#fc0c18;fill-rule:nonzero;"/><path d="M1449.58,470.833l82.5,-468.75l56.25,0l-82.5,468.75l-56.25,0Zm105.834,-281.25l32.916,-187.5l30,281.25l-32.916,187.5l-30,-281.25Zm30,281.25l82.5,-468.75l56.25,0l-82.5,468.75l-56.25,0Z" style="fill:#fc0c18;fill-rule:nonzero;"/><path d="M1761.67,2.083l138.333,0l-9.167,52.917l-37.5,0l-73.333,415.833l-63.333,0l73.333,-415.833l-37.5,0l9.167,-52.917Z" style="fill:#fc0c18;fill-rule:nonzero;"/><path d="M1956.25,214.167l70.417,0l-9.167,52.916l-70.417,0l-26.666,151.25l70.416,0l-9.166,52.917l-126.667,0l82.5,-469.167l126.667,0l-9.167,52.917l-70.417,0l-28.333,159.167Z" style="fill:#fc0c18;fill-rule:nonzero;"/><path d="M2019.17,470.833l82.5,-468.75l56.25,0l-82.5,468.75l-56.25,0Zm105.833,-281.25l32.917,-187.5l30,281.25l-32.917,187.5l-30,-281.25Zm30,281.25l82.5,-468.75l56.25,0l-82.5,468.75l-56.25,0Z" style="fill:#fc0c18;fill-rule:nonzero;"/><path d="M2331.25,2.083l110.417,0c8.75,0 16.25,0.834 22.5,2.917c6.25,2.083 11.666,4.583 16.25,7.5c4.583,3.333 7.916,6.667 10.833,10.833c2.5,4.167 4.583,7.917 6.25,12.084c3.333,9.583 4.167,20.833 2.917,33.333l-59.584,335.417c-2.916,12.5 -7.916,23.75 -14.583,33.333c-2.917,4.167 -6.25,8.333 -10.417,12.083c-4.166,4.167 -8.75,7.5 -14.583,10.834c-5.417,3.333 -11.667,5.833 -18.75,7.5c-7.083,2.083 -15,2.916 -23.75,2.916l-110,0l82.5,-468.75Zm-17.083,415.834l53.75,0c3.333,0 6.25,-0.834 8.333,-2.084c2.083,-1.666 3.75,-2.916 5,-5c1.25,-2.083 2.5,-4.583 2.917,-7.083l59.166,-335c0.417,-2.5 0,-5 -0.416,-7.083c-0.834,-1.667 -1.667,-3.334 -3.334,-5c-1.666,-1.667 -4.166,-2.084 -7.5,-2.084l-53.75,0l-64.166,363.334Z" style="fill:#fc0c18;fill-rule:nonzero;"/><path d="M2537.5,68.75c2.917,-12.5 7.917,-23.75 14.583,-33.333c2.917,-4.167 6.25,-8.334 10.417,-12.084c4.167,-4.166 8.75,-7.5 14.583,-10.833c5.417,-2.917 11.667,-5.833 18.75,-7.5c7.084,-2.083 15,-2.917 23.75,-2.917l35,0c8.75,0 16.25,0.834 22.5,2.917c6.25,2.083 11.667,4.583 16.25,7.5c4.584,3.333 7.917,6.667 10.834,10.833c2.5,4.167 4.583,7.917 6.25,12.084c3.333,9.583 4.166,20.833 2.916,33.333l-59.166,335.417c-2.917,12.5 -7.917,23.75 -14.584,33.333c-2.916,4.167 -6.25,8.333 -10.416,12.083c-4.167,4.167 -8.75,7.5 -14.584,10.834c-5.416,3.333 -11.666,5.833 -18.75,7.5c-7.083,2.083 -15,2.916 -23.75,2.916l-35,0c-8.75,0 -16.25,-0.833 -22.5,-2.916c-6.25,-2.084 -11.666,-4.584 -16.25,-7.5c-4.583,-2.917 -7.916,-6.667 -10.833,-10.834c-2.917,-4.166 -4.583,-7.916 -6.25,-12.083c-3.333,-9.583 -4.167,-20.833 -2.917,-33.333l59.167,-335.417Zm-2.917,335.417c-0.416,2.5 0,5 0.417,7.083c0.833,1.667 1.667,3.333 3.333,5c1.667,1.667 4.167,2.083 7.5,2.083l35,0c3.334,0 6.25,-0.833 8.334,-2.083c2.083,-1.667 3.75,-2.917 5,-5c1.25,-2.083 2.5,-4.583 2.916,-7.083l59.167,-335c0.417,-2.5 0,-5 -0.417,-7.084c-0.833,-1.666 -1.666,-3.333 -3.333,-5c-1.667,-1.666 -4.167,-2.083 -7.5,-2.083l-35,0c-3.333,0 -6.25,0.833 -8.333,2.083c-2.084,1.667 -3.75,2.917 -5,5c-1.25,2.084 -2.5,4.584 -2.917,7.084l-59.167,335Z" style="fill:#fc0c18;fill-rule:nonzero;"/></g><g><path d="M110,119.167c-1.25,7.5 -0.833,15.416 0.833,23.75c2.084,8.333 4.584,15.833 7.084,22.5c3.333,7.916 7.5,15.833 12.083,23.75l49.167,94.166c2.916,5.834 5.416,12.084 7.083,18.75c1.667,5.834 2.917,12.917 3.75,20.834c0.833,7.916 0.417,16.666 -1.25,26.25l-9.583,55c-2.917,12.5 -7.917,23.75 -14.584,33.333c-2.916,4.167 -6.25,8.333 -10.416,12.083c-4.167,4.167 -8.75,7.5 -14.584,10.834c-5.416,3.333 -11.666,5.833 -18.75,7.5c-7.083,2.083 -15,2.916 -23.75,2.916l-35,0c-8.75,0 -16.25,-0.833 -22.5,-2.916c-6.25,-2.084 -11.666,-4.584 -16.25,-7.5c-4.583,-2.917 -7.916,-6.667 -10.833,-10.834c-2.917,-4.166 -4.583,-7.916 -6.25,-12.083c-3.333,-9.583 -4.167,-20.833 -2.917,-33.333l17.917,-102.084l56.25,0l-17.917,102.084c-0.416,2.5 0,5 0.417,7.083c0.833,1.667 1.667,3.333 3.333,5c1.667,1.667 4.167,2.083 7.5,2.083l35,0c3.334,0 6.25,-0.833 8.334,-2.083c2.083,-1.667 3.75,-2.917 5,-5c1.25,-2.083 2.5,-4.583 2.916,-7.083l8.75,-50.417c1.25,-7.5 0.834,-15.417 -0.833,-23.75c-2.083,-8.333 -4.583,-15.833 -7.083,-22.5c-3.334,-7.917 -7.5,-15.833 -12.084,-23.75l-48.333,-94.167c-2.917,-5.833 -5.417,-12.083 -7.083,-18.75c-1.667,-5.833 -2.917,-12.916 -3.75,-20.833c-0.834,-7.917 -0.417,-16.667 1.25,-26.25l9.583,-55c2.917,-12.5 7.917,-23.75 14.583,-33.333c2.917,-4.167 6.25,-8.334 10.417,-12.084c4.167,-4.166 8.75,-7.5 14.583,-10.833c5.417,-2.917 11.667,-5.833 18.75,-7.5c7.084,-2.083 15,-2.917 23.75,-2.917l35,0c8.75,0 16.25,0.834 22.5,2.917c6.25,2.083 11.667,4.583 16.25,7.5c4.584,3.333 7.917,6.667 10.834,10.833c2.5,4.167 4.583,7.917 6.25,12.084c3.333,9.583 4.166,20.833 2.916,33.333l-17.916,102.083l-56.25,0l17.916,-102.083c0.417,-2.5 0,-5 -0.416,-7.083c-0.834,-1.667 -1.667,-3.334 -3.334,-5c-1.666,-1.667 -4.166,-2.084 -7.5,-2.084l-35,0c-3.333,0 -6.25,0.834 -8.333,2.084c-2.083,1.666 -3.75,2.916 -5,5c-1.25,2.083 -2.5,4.583 -2.917,7.083l-9.583,50.417Z" style="fill:#fc0c18;fill-rule:nonzero;"/><path d="M287.5,2.083l56.25,0l-70.833,402.084c-0.417,2.5 0,5 0.416,7.083c0.834,1.667 1.667,3.333 3.334,5c1.666,1.667 4.166,2.083 7.5,2.083l35,0c3.333,0 6.25,-0.833 8.333,-2.083c2.083,-1.667 3.75,-2.917 5,-5c1.25,-2.083 2.5,-4.583 2.917,-7.083l70.833,-402.084l56.25,0l-70.833,402.084c-2.917,12.5 -7.917,23.75 -14.584,33.333c-2.916,4.167 -6.25,8.333 -10.416,12.083c-4.167,4.167 -8.75,7.5 -14.584,10.834c-5.416,3.333 -11.666,5.833 -18.75,7.5c-7.083,2.083 -15,2.916 -23.75,2.916l-35,0c-8.75,0 -16.25,-0.833 -22.5,-2.916c-6.25,-2.084 -11.666,-4.584 -16.25,-7.5c-4.583,-2.917 -7.916,-6.667 -10.833,-10.834c-2.917,-4.166 -4.583,-7.916 -6.25,-12.083c-3.333,-9.583 -4.167,-20.833 -2.917,-33.333l71.667,-402.084Z" style="fill:#fc0c18;fill-rule:nonzero;"/><path d="M500.833,2.083l105.417,0c8.75,0 16.25,0.834 22.5,2.917c6.25,2.083 11.667,4.583 16.25,7.5c4.583,3.333 7.917,6.667 10.833,10.833c2.5,4.167 4.584,7.917 6.25,12.084c3.334,9.583 4.167,20.833 2.917,33.333l-23.333,131.25c-2.917,12.5 -7.917,23.75 -14.584,33.333c-2.916,4.167 -6.25,8.334 -10.416,12.084c-4.167,4.166 -8.75,7.5 -14.584,10.833c-5.416,3.333 -11.666,5.833 -18.75,7.5c-7.083,2.083 -15,2.917 -23.75,2.917l-49.166,0l9.166,-52.917l49.167,0c3.333,0 6.25,-0.833 8.333,-2.083c2.084,-1.667 3.75,-2.917 5,-5c1.25,-2.084 2.5,-4.584 2.917,-7.084l23.333,-131.25c0.417,-2.5 0,-5 -0.416,-7.083c-0.834,-1.667 -1.667,-3.333 -3.334,-5c-1.666,-1.667 -4.166,-2.083 -7.5,-2.083l-49.166,0l-73.334,416.666l-56.25,0l82.5,-468.75Z" style="fill:#fc0c18;fill-rule:nonzero;"/><path d="M732.917,214.167l70.416,0l-9.166,52.916l-70.417,0l-26.667,151.25l70.417,0l-9.167,52.917l-126.666,0l82.5,-468.75l126.666,0l-9.166,52.917l-70.417,0l-28.333,158.75Z" style="fill:#fc0c18;fill-rule:nonzero;"/><path d="M878.333,2.083l105.417,0c8.75,0 16.25,0.834 22.5,2.917c6.25,2.083 11.667,4.583 16.25,7.5c4.583,3.333 7.917,6.667 10.833,10.833c2.5,4.167 4.584,7.917 6.25,12.084c3.334,9.583 4.167,20.833 2.917,33.333l-23.333,131.25c-1.667,8.75 -5,16.25 -10.834,22.917c-5.833,6.666 -12.5,12.5 -20,17.5c5.834,5 10.417,10.833 13.75,17.5c3.334,6.666 4.167,14.166 2.917,22.916l-33.333,190l-56.25,0l33.333,-190c0.417,-2.5 0,-5 -0.417,-7.083c-0.833,-1.667 -1.666,-3.333 -3.333,-5c-1.667,-1.667 -4.167,-2.083 -7.5,-2.083l-49.167,0l-35.833,203.75l-56.25,0l82.083,-468.334Zm18.75,212.084l49.167,0c3.333,0 6.25,-0.834 8.333,-2.084c2.084,-1.666 3.75,-2.916 5,-5c1.25,-2.083 2.5,-4.583 2.917,-7.083l23.333,-131.25c0.417,-2.5 0,-5 -0.416,-7.083c-0.834,-1.667 -1.667,-3.334 -3.334,-5c-1.666,-1.667 -4.166,-2.084 -7.5,-2.084l-49.583,0l-27.917,159.584Z" style="fill:#fc0c18;fill-rule:nonzero;"/><path d="M1125.83,470.833l82.5,-468.75l56.25,0l-82.5,468.75l-56.25,0Zm105.834,-281.25l32.916,-187.5l30,281.25l-32.916,187.5l-30,-281.25Zm30.416,281.25l82.5,-468.75l56.25,0l-82.5,468.75l-56.25,0Z" style="fill:#fc0c18;fill-rule:nonzero;"/><path d="M1438.33,2.083l56.25,0l-82.5,468.75l-56.25,0l82.5,-468.75Z" style="fill:#fc0c18;fill-rule:nonzero;"/><path d="M1449.58,470.833l82.5,-468.75l56.25,0l-82.5,468.75l-56.25,0Zm105.834,-281.25l32.916,-187.5l30,281.25l-32.916,187.5l-30,-281.25Zm30,281.25l82.5,-468.75l56.25,0l-82.5,468.75l-56.25,0Z" style="fill:#fc0c18;fill-rule:nonzero;"/><path d="M1761.67,2.083l138.333,0l-9.167,52.917l-37.5,0l-73.333,415.833l-63.333,0l73.333,-415.833l-37.5,0l9.167,-52.917Z" style="fill:#fc0c18;fill-rule:nonzero;"/><path d="M1956.25,214.167l70.417,0l-9.167,52.916l-70.417,0l-26.666,151.25l70.416,0l-9.166,52.917l-126.667,0l82.5,-469.167l126.667,0l-9.167,52.917l-70.417,0l-28.333,159.167Z" style="fill:#fc0c18;fill-rule:nonzero;"/><path d="M2019.17,470.833l82.5,-468.75l56.25,0l-82.5,468.75l-56.25,0Zm105.833,-281.25l32.917,-187.5l30,281.25l-32.917,187.5l-30,-281.25Zm30,281.25l82.5,-468.75l56.25,0l-82.5,468.75l-56.25,0Z" style="fill:#fc0c18;fill-rule:nonzero;"/><path d="M2331.25,2.083l110.417,0c8.75,0 16.25,0.834 22.5,2.917c6.25,2.083 11.666,4.583 16.25,7.5c4.583,3.333 7.916,6.667 10.833,10.833c2.5,4.167 4.583,7.917 6.25,12.084c3.333,9.583 4.167,20.833 2.917,33.333l-59.584,335.417c-2.916,12.5 -7.916,23.75 -14.583,33.333c-2.917,4.167 -6.25,8.333 -10.417,12.083c-4.166,4.167 -8.75,7.5 -14.583,10.834c-5.417,3.333 -11.667,5.833 -18.75,7.5c-7.083,2.083 -15,2.916 -23.75,2.916l-110,0l82.5,-468.75Zm-17.083,415.834l53.75,0c3.333,0 6.25,-0.834 8.333,-2.084c2.083,-1.666 3.75,-2.916 5,-5c1.25,-2.083 2.5,-4.583 2.917,-7.083l59.166,-335c0.417,-2.5 0,-5 -0.416,-7.083c-0.834,-1.667 -1.667,-3.334 -3.334,-5c-1.666,-1.667 -4.166,-2.084 -7.5,-2.084l-53.75,0l-64.166,363.334Z" style="fill:#fc0c18;fill-rule:nonzero;"/><path d="M2537.5,68.75c2.917,-12.5 7.917,-23.75 14.583,-33.333c2.917,-4.167 6.25,-8.334 10.417,-12.084c4.167,-4.166 8.75,-7.5 14.583,-10.833c5.417,-2.917 11.667,-5.833 18.75,-7.5c7.084,-2.083 15,-2.917 23.75,-2.917l35,0c8.75,0 16.25,0.834 22.5,2.917c6.25,2.083 11.667,4.583 16.25,7.5c4.584,3.333 7.917,6.667 10.834,10.833c2.5,4.167 4.583,7.917 6.25,12.084c3.333,9.583 4.166,20.833 2.916,33.333l-59.166,335.417c-2.917,12.5 -7.917,23.75 -14.584,33.333c-2.916,4.167 -6.25,8.333 -10.416,12.083c-4.167,4.167 -8.75,7.5 -14.584,10.834c-5.416,3.333 -11.666,5.833 -18.75,7.5c-7.083,2.083 -15,2.916 -23.75,2.916l-35,0c-8.75,0 -16.25,-0.833 -22.5,-2.916c-6.25,-2.084 -11.666,-4.584 -16.25,-7.5c-4.583,-2.917 -7.916,-6.667 -10.833,-10.834c-2.917,-4.166 -4.583,-7.916 -6.25,-12.083c-3.333,-9.583 -4.167,-20.833 -2.917,-33.333l59.167,-335.417Zm-2.917,335.417c-0.416,2.5 0,5 0.417,7.083c0.833,1.667 1.667,3.333 3.333,5c1.667,1.667 4.167,2.083 7.5,2.083l35,0c3.334,0 6.25,-0.833 8.334,-2.083c2.083,-1.667 3.75,-2.917 5,-5c1.25,-2.083 2.5,-4.583 2.916,-7.083l59.167,-335c0.417,-2.5 0,-5 -0.417,-7.084c-0.833,-1.666 -1.666,-3.333 -3.333,-5c-1.667,-1.666 -4.167,-2.083 -7.5,-2.083l-35,0c-3.333,0 -6.25,0.833 -8.333,2.083c-2.084,1.667 -3.75,2.917 -5,5c-1.25,2.084 -2.5,4.584 -2.917,7.084l-59.167,335Z" style="fill:#fc0c18;fill-rule:nonzero;"/></g></g><g><g><path d="M868.75,615.833l30,0l-1.667,-73.333l-28.333,73.333Zm-235.417,-74.583c-2.916,-0.417 -6.25,-0.833 -10,-0.833l-12.083,0l-7.917,44.583l12.084,0c8.333,0 14.583,-1.667 18.75,-4.583c5,-3.75 8.333,-10 9.583,-18.334c1.25,-7.916 0.417,-13.333 -2.5,-16.666c-2.083,-2.084 -4.583,-3.334 -7.917,-4.167Zm-631.25,-39.167l0,187.5l2712.5,0l0,-187.5l-2712.5,0Zm118.334,39.584l-41.667,0l-7.917,43.333l39.167,0l-2.917,15.833l-39.166,0l-7.917,45.834l44.167,0l-2.917,15.833l-62.917,0l24.167,-137.5l60.833,0l-2.916,16.667Zm126.25,121.25l-27.917,0l-15,-95.417c0,-1.667 -0.833,-6.667 -1.667,-15.417c-0.416,-5 -0.833,-9.166 -1.25,-12.083l-0.833,4.583l-0.833,3.75l-0.834,5.834l-1.666,8.75l-17.5,100l-17.084,0l24.167,-137.5l29.583,0l12.917,81.666c2.5,19.167 4.167,32.5 5,40.417c0.417,-2.917 0.833,-7.083 1.25,-12.917c1.25,-8.333 1.667,-12.916 2.083,-14.166l16.667,-95l17.083,0l-24.166,137.5Zm161.666,-121.25l-32.083,0l-21.25,121.25l-18.75,0l21.25,-121.25l-31.667,0l2.917,-16.25l82.917,0l-3.334,16.25Zm119.584,0l-41.667,0l-7.5,43.333l39.167,0l-2.917,15.833l-39.167,0l-7.916,45.834l44.166,0l-2.916,15.833l-63.334,0l24.167,-137.5l60.833,0l-2.916,16.667Zm135,19.166c-2.084,11.25 -6.25,19.584 -13.334,24.584c-3.75,2.916 -9.166,5 -15.833,6.666c4.167,1.25 7.5,2.084 9.583,3.334c4.584,2.5 6.667,7.916 6.667,15.833c0,5.417 -0.833,14.583 -2.5,27.083c-0.833,8.334 -1.25,14.584 -0.417,18.334c0.417,2.083 0.834,3.75 1.25,5.833l-21.25,0c-0.416,-2.5 -0.833,-5 -0.833,-7.917c0,-1.666 0.833,-7.916 1.667,-18.333c1.25,-13.75 1.666,-22.917 1.666,-26.667c-0.416,-3.333 -2.083,-5.833 -4.583,-7.083c-2.083,-1.25 -4.583,-2.083 -7.083,-2.5c-2.084,-0.417 -5,-0.417 -8.334,-0.417l-9.166,0l-10.834,62.5l-18.75,0l24.167,-137.5l34.583,0c9.167,0 16.25,0.834 20.417,2.084c11.667,5 16.25,16.25 12.917,34.166Zm145.833,-19.166l-32.083,0l-21.25,121.25l-18.75,0l21.25,-121.25l-31.667,0l2.917,-16.25l82.916,0l-3.333,16.25Zm92.083,121.25l-0.833,-31.25l-36.667,0l-12.083,31.25l-18.333,0l55.833,-137.5l25,0l7.5,137.5l-20.417,0Zm99.584,0l-18.75,0l24.166,-137.5l18.75,0l-24.166,137.5Zm147.916,0l-27.916,0l-15,-95.417c0,-1.667 -0.834,-6.667 -1.667,-15.417c-0.417,-5 -0.833,-9.166 -1.25,-12.083l-0.833,4.583l-0.834,3.75l-0.833,5.834l-1.667,8.75l-17.5,100l-17.083,0l24.167,-137.5l29.583,0l12.917,81.666c2.5,19.167 4.166,32.5 5,40.417c0.416,-2.917 0.833,-7.083 1.25,-12.917c1.25,-8.333 1.666,-12.916 2.083,-14.166l16.667,-95l17.083,0l-24.167,137.5Zm174.584,0l-16.25,0l20.833,-117.917l-50,117.917l-18.75,0l-8.333,-117.917l-20.834,117.917l-16.25,0l24.167,-137.5l31.25,0l6.667,105.416l40.416,-105.416l31.25,0l-24.166,137.5Zm147.5,-121.25l-41.667,0l-7.5,43.333l39.167,0l-2.917,15.833l-39.167,0l-7.916,45.834l43.75,0l-2.917,15.833l-63.333,0l24.166,-137.5l60.834,0l-2.5,16.667Zm126.25,121.25l-27.917,0l-15,-95.417c0,-1.667 -0.833,-6.667 -1.667,-15.417c-0.416,-5 -0.833,-9.166 -1.25,-12.083l-0.833,4.583l-0.833,3.75l-0.834,5.834l-1.666,8.75l-17.5,100l-17.084,0l24.167,-137.5l29.583,0l12.917,81.666c2.5,19.167 4.167,32.5 5,40.417c0.417,-2.917 0.833,-7.083 1.25,-12.917c1.25,-8.333 1.667,-12.916 2.083,-14.166l16.667,-95l17.083,0l-24.166,137.5Zm161.666,-121.25l-32.083,0l-21.25,121.25l-18.75,0l21.25,-121.25l-31.667,0l2.917,-16.25l82.917,0l-3.334,16.25Zm215,19.166c0,0.417 -0.416,2.084 -0.833,4.167l-19.167,0c0.417,-2.083 0.417,-3.333 0.834,-3.75c0.833,-4.583 0.833,-7.917 0.833,-10c-1.25,-8.333 -6.25,-12.5 -15.833,-12.5c-6.25,0 -11.25,2.083 -15,5.833c-3.334,3.334 -5.417,7.5 -6.25,12.917c-0.834,5 -0.417,8.75 1.25,12.083c2.083,4.584 5.833,8.334 11.666,11.667l11.25,6.667c10,6.25 16.667,12.5 19.584,18.75c2.5,5.416 2.916,12.5 1.25,21.25c-2.084,12.5 -7.917,22.083 -16.667,28.75c-7.917,5.833 -17.5,8.333 -29.583,8.333c-13.75,0 -23.75,-3.333 -29.167,-10c-5.417,-6.25 -6.667,-16.25 -4.583,-29.583c0.416,-1.25 0.833,-3.75 1.666,-7.917l19.167,0c-0.417,2.5 -0.833,4.583 -1.25,5.417c-1.25,7.5 -1.25,13.333 0,17.5c2.083,6.25 7.5,9.166 16.25,9.166c7.917,0 13.75,-2.5 17.917,-7.083c3.333,-3.75 5.833,-8.333 6.666,-14.167c1.25,-6.666 0,-12.083 -3.75,-16.666c-2.916,-3.334 -7.916,-7.5 -15.833,-12.084c-7.917,-4.583 -14.167,-9.166 -18.333,-13.333c-6.667,-6.667 -9.167,-15.833 -6.667,-28.333c2.083,-11.667 7.083,-20.417 15,-26.667c7.5,-5.833 17.083,-8.333 28.333,-8.333c12.917,0 22.084,3.333 27.5,10c4.584,6.25 5.834,15.416 3.75,27.916Zm96.667,45l-10,57.084l-18.75,0l10,-57.084l-17.083,-80.416l21.666,0l9.584,60.416l31.666,-60.416l18.75,0l-45.833,80.416Zm170.833,-45c0,0.417 -0.416,2.084 -0.833,4.167l-19.167,0c0.417,-2.083 0.417,-3.333 0.834,-3.75c0.833,-4.583 0.833,-7.917 0.833,-10c-1.25,-8.333 -6.25,-12.5 -15.833,-12.5c-6.25,0 -11.25,2.083 -15,5.833c-3.334,3.334 -5.417,7.5 -6.25,12.917c-0.834,5 -0.417,8.75 1.25,12.083c2.083,4.584 5.833,8.334 11.666,11.667l11.25,6.667c10,6.25 16.667,12.5 19.584,18.75c2.5,5.416 2.916,12.5 1.25,21.25c-2.084,12.5 -7.917,22.083 -16.667,28.75c-7.917,5.833 -17.5,8.333 -29.583,8.333c-13.75,0 -23.75,-3.333 -29.167,-10c-5.417,-6.25 -6.667,-16.25 -4.583,-29.583c0.416,-1.25 0.833,-3.75 1.666,-7.917l19.167,0c-0.417,2.5 -0.833,4.583 -1.25,5.417c-1.25,7.5 -1.25,13.333 0,17.5c2.083,6.25 7.5,9.166 16.25,9.166c7.917,0 13.75,-2.5 17.917,-7.083c3.333,-3.75 5.833,-8.333 6.666,-14.167c1.25,-6.666 0,-12.083 -3.75,-16.666c-2.916,-3.334 -7.916,-7.5 -15.833,-12.084c-7.917,-4.583 -14.167,-9.166 -18.333,-13.333c-6.667,-6.667 -9.167,-15.833 -6.667,-28.333c2.083,-11.667 7.083,-20.417 15,-26.667c7.5,-5.833 17.083,-8.333 28.333,-8.333c12.917,0 22.084,3.333 27.5,10c4.584,6.25 6.25,15.416 3.75,27.916Zm143.75,-19.166l-32.083,0l-21.25,121.25l-18.75,0l21.25,-121.25l-31.667,0l2.917,-16.25l82.5,0l-2.917,16.25Zm120,0l-41.666,0l-7.5,43.333l39.166,0l-2.916,15.833l-39.167,0l-7.917,45.834l44.167,0l-2.917,15.833l-63.333,0l24.167,-137.5l60.833,0l-2.917,16.667Zm153.75,121.25l-16.25,0l20.834,-117.917l-50,117.917l-18.75,0l-8.334,-117.917l-20.833,117.917l-16.25,0l24.167,-137.5l31.25,0l6.666,105.416l40.417,-105.416l31.25,0l-24.167,137.5Z" style="fill:#fc0c18;fill-rule:nonzero;"/></g></g></g></g></g></svg>