<?xml version="1.0" encoding="UTF-8" standalone="no"?><!DOCTYPE svg PUBLIC "-//W3C//DTD SVG 1.1//EN" "http://www.w3.org/Graphics/SVG/1.1/DTD/svg11.dtd"><svg width="100%" height="100%" viewBox="0 0 2363 508" version="1.1" xmlns="http://www.w3.org/2000/svg" xmlns:xlink="http://www.w3.org/1999/xlink" xml:space="preserve" xmlns:serif="http://www.serif.com/" style="fill-rule:evenodd;clip-rule:evenodd;stroke-linejoin:round;stroke-miterlimit:2;"><g><path d="M0,0l117.004,0l0,34.433l-34.246,0l0,467.338l-41.387,0l0,-467.338l-41.371,0l0,-34.433Z" style="fill:#fff;fill-rule:nonzero;"/><path d="M222.996,467.567l45.671,0l0,-327.425l39.946,0l0,327.425c0,21.191 -19.259,36.2 -39,36.2l-46.617,0c-20.863,0 -39.475,-16.975 -39.475,-36.629l0,-326.996l39.475,0l0,327.425Z" style="fill:#fff;fill-rule:nonzero;"/><path d="M1081.97,220.113l61.008,0l0,283.975l-85.966,0c-18.384,0 -41.025,-14.071 -41.025,-35.417l0,-429.267c0,-18.033 18.895,-37.237 40.121,-37.237l46.912,0c20.808,0 39.687,19.029 39.687,36.816l0,101.696l-41.116,0l0,-100.279l-46.721,0l0,428.592l47.8,0l0,-214.125l-20.7,0l0,-34.755Z" style="fill:#fff;fill-rule:nonzero;"/><path d="M1671.9,329.804l0,172.129l-38.517,0l0,-329.662c0,-14.892 14.804,-31.117 33.529,-31.117l63.5,0l0,31.775l-58.512,0l0,121.8l48.171,0l0,35.238l-48.171,-0.163Z" style="fill:#fff;fill-rule:nonzero;"/><path d="M1808.52,141.246l40.429,0l0,131.3l22.829,22.954l22.346,-22.317l0,-131.937l39.942,0l0,124.925c0,15.254 -39.459,55.441 -39.459,55.441c0,0 39.942,40.167 39.942,56.446l0,124.6l-37.571,0l0,-129.725l-24.258,-24.529l-24.254,24.208l0,130.055l-39.946,0l0,-124.309c0,-15.283 42.312,-57.062 42.312,-57.062c0,0 -42.312,-39.738 -42.312,-55.754l0,-124.296Z" style="fill:#fff;fill-rule:nonzero;"/><path d="M481.733,330.621c13.555,0 31.575,-16.2 31.575,-37.883l0,-118.488c0,-17.05 -19.445,-32.925 -41.562,-32.925l-82.046,0l0,362.058l37.817,0l0,-170.104l14.271,0l42.087,169.463l37.1,0l-39.242,-172.121Zm-7.483,-35.4l-45.308,0l0,-118.817l45.308,0l0,118.817Z" style="fill:#fff;fill-rule:nonzero;"/><path d="M1318.57,329.675c13.558,0 31.587,-16.229 31.587,-37.9l0,-118.483c0,-17.046 -19.458,-32.938 -41.562,-32.938l-82.042,0l0,362.084l37.788,0l0,-170.125l14.283,0l42.1,169.454l37.087,0l-39.241,-172.092Zm-8.034,-35.808l-45.279,0l0,-118.809l45.28,0l0,118.809Z" style="fill:#fff;fill-rule:nonzero;"/><path d="M715.467,339.154c-0.175,-16.225 -17.113,-26.487 -17.113,-26.487c0,0 17.113,-11.075 17.113,-26.475l0,-110.525c0,-20.863 -18.367,-34.434 -37.088,-34.434l-86.329,0l0,361.434l86.329,0c17.479,0 37.088,-10.921 37.088,-34.425c0,0 0.191,-112.879 0,-129.088Zm-38.88,128.096l-45.295,0l0,-134.717l45.295,0l0,134.717Zm0,-172.117l-45.295,0l0,-118.808l45.295,0l0,118.808Z" style="fill:#fff;fill-rule:nonzero;"/><path d="M880.8,138.563l-44.946,0c-22.654,0 -39.15,19.366 -39.15,34.095l0,293.534c0,18.971 21.134,36.175 38.975,36.175l48.867,0c19.083,0 38.167,-19.704 38.167,-35.417l0,-295.288c0,-13.233 -18.021,-33.1 -41.913,-33.1Zm1.425,326.496l-43.758,0l0,-290.741l43.758,0l0,290.741Z" style="fill:#fff;fill-rule:nonzero;"/><path d="M1515.38,141.15l-49.912,0c-22.484,0 -35.679,18.529 -35.679,33.1l0,327.683l37.808,0l0,-172.129l47.792,0l0,172.129l37.812,0l0,-325.704c-0.004,-21.616 -14.962,-35.079 -37.821,-35.079Zm-1.079,152.917l-45.275,0l0,-116.5l45.275,0l0,116.5Z" style="fill:#fff;fill-rule:nonzero;"/><g><g><rect x="2162.09" y="333.092" width="117.058" height="43.663" style="fill:#fff;"/><path d="M2176.54,136.138c-102.529,0 -185.629,83.108 -185.629,185.637c0,102.529 83.091,185.658 185.629,185.658c102.521,0 185.654,-83.12 185.654,-185.658c-0.004,-102.525 -83.129,-185.637 -185.654,-185.637Zm-63.179,261.916l-58.867,0l0,-20.621l18.975,0l0,-108.941l-18.625,0l0,-21.304l39.917,0l0,129.895l18.6,0l0,20.971Zm186.083,-111.291l-18.921,0l0,-18.946l-119.458,0l0,45.329l127.571,0l10.808,10.842l0,59.891l-13.529,13.529l-130.588,0l-13.533,-13.529l0,-123.5l12.533,-12.521l133.634,0l11.483,11.496l0,27.409Z" style="fill:#fff;fill-rule:nonzero;"/></g></g></g></svg>