<?xml version="1.0" encoding="UTF-8" standalone="no"?>
<!-- Created with Inkscape (http://www.inkscape.org/) -->

<svg
   xmlns:dc="http://purl.org/dc/elements/1.1/"
   xmlns:cc="http://creativecommons.org/ns#"
   xmlns:rdf="http://www.w3.org/1999/02/22-rdf-syntax-ns#"
   xmlns:svg="http://www.w3.org/2000/svg"
   xmlns="http://www.w3.org/2000/svg"
   xmlns:sodipodi="http://sodipodi.sourceforge.net/DTD/sodipodi-0.dtd"
   xmlns:inkscape="http://www.inkscape.org/namespaces/inkscape"
   id="svg13490"
   version="1.1"
   inkscape:version="0.91 r13725"
   width="1920"
   height="1080"
   viewBox="0 0 1920 1080"
   sodipodi:docname="gameboycolor_wire.svg">
  <metadata
     id="metadata13496">
    <rdf:RDF>
      <cc:Work
         rdf:about="">
        <dc:format>image/svg+xml</dc:format>
        <dc:type
           rdf:resource="http://purl.org/dc/dcmitype/StillImage" />
        <dc:title></dc:title>
      </cc:Work>
    </rdf:RDF>
  </metadata>
  <defs
     id="defs13494" />
  <sodipodi:namedview
     pagecolor="#ffffff"
     bordercolor="#666666"
     borderopacity="1"
     objecttolerance="10"
     gridtolerance="10"
     guidetolerance="10"
     inkscape:pageopacity="0"
     inkscape:pageshadow="2"
     inkscape:window-width="663"
     inkscape:window-height="480"
     id="namedview13492"
     showgrid="false"
     inkscape:zoom="0.19739583"
     inkscape:cx="960"
     inkscape:cy="540"
     inkscape:window-x="0"
     inkscape:window-y="0"
     inkscape:window-maximized="0"
     inkscape:current-layer="svg13490" />
  <path
     style="fill:#000000;fill-opacity:0"
     d="m 965.32978,916.62936 c -15.54,-2.91526 -46.29448,-10.56029 -61.49996,-15.28784 -9.68985,-3.01268 -19.69587,-6.68979 -42.5,-15.61829 -17.94749,-7.02698 -22.4883,-8.43481 -27.25,-8.44856 -7.12179,-0.0205 -3.7186,-1.57533 6,-2.74115 5.3625,-0.64328 15.36371,-2.54211 22.22491,-4.21963 18.89827,-4.62051 25.27064,-4.34229 56.11446,2.44996 13.73661,3.025 25.18599,5.5 25.44319,5.5 0.2571,0 0.4872,-14.0625 0.5113,-31.25 0.033,-23.73724 0.3712,-32.1678 1.4055,-35.06768 1.6011,-4.4895 2.841,-3.81001 -12.94936,-7.09627 -118.18643,-24.59667 -253.93411,-67.58583 -362.38089,-114.76035 -11.34051,-4.93314 -21.15119,-9.1985 -21.80152,-9.47857 -0.65032,-0.28008 -1.88782,0.85489 -2.75,2.52216 -1.32775,2.56759 -1.56759,7.93289 -1.56759,35.06763 l 0,32.03624 3.25,1.40756 c 43.84018,18.98702 50.779,22.86333 64.75,36.17196 14.39116,13.70887 33,29.60437 33,28.18829 0,-0.21737 -4.6125,-4.258 -10.25,-8.97917 -5.6375,-4.72118 -15.2,-13.20131 -21.25,-18.84473 -6.05,-5.64343 -14.18061,-12.34229 -18.06801,-14.88636 -6.90669,-4.52001 -10.263,-6.14426 -36.93199,-17.87289 l -13,-5.7172 -0.26466,-30.22031 c -0.14557,-16.62117 -0.0269,-30.22031 0.26369,-30.22031 0.29059,0 7.0539,2.92319 15.02958,6.49598 19.19903,8.60041 52.90465,22.4063 79.47139,32.55166 23.94106,9.14265 74.30779,26.9495 76.24953,26.95754 1.78571,0.007 23.97126,6.96698 39.25047,12.31283 31.70578,11.09313 103.30786,30.22939 161.21034,43.08482 13.86568,3.07844 25.45322,5.59717 25.75002,5.59717 0.2968,0 0.5396,13.5 0.5396,30 0,28.32524 -0.1014,30 -1.8168,30 -0.9993,0 -12.01776,-2.25 -24.48553,-5 -28.49621,-6.28537 -36.75627,-6.58518 -55.47762,-2.01359 -53.41903,13.04445 -110.92626,5.25865 -166.38774,-22.52693 -12.28729,-6.15579 -28.64633,-16.05823 -40.68945,-24.6301 -4.59645,-3.27159 -8.58876,-5.71677 -8.8718,-5.43374 -0.28303,0.28304 -2.73849,-0.61231 -5.45657,-1.98966 -2.71808,-1.37736 -14.92577,-4.99853 -27.1282,-8.04706 -12.20244,-3.04852 -22.63625,-5.90302 -23.18625,-6.34332 -0.55,-0.44031 -3.925,-1.59584 -7.5,-2.56786 -9.63052,-2.61847 -36.36822,-13.05227 -45.27417,-17.66725 -9.75976,-5.05742 -14.64032,-10.42251 -17.73904,-19.50012 -2.26271,-6.62854 -2.32229,-7.79923 -2.6606,-52.28037 l -0.34606,-45.5 2.5788,4.8478 c 1.41835,2.66629 2.76214,4.66446 2.98621,4.44039 0.22407,-0.22407 -0.52024,-2.84876 -1.65403,-5.83265 -2.63763,-6.94168 -2.60505,-15.59163 0.0882,-23.40582 1.12795,-3.27266 2.3841,-6.19766 2.79145,-6.5 0.40736,-0.30235 2.07238,-2.3341 3.70006,-4.515 4.27742,-5.73129 24.47297,-29.10222 51.4458,-59.53472 12.91806,-14.575 28.86051,-32.575 35.42765,-40 6.56715,-7.425 14.72735,-16.65 18.13378,-20.5 9.32845,-10.54316 49.47962,-56.01708 71.52198,-81.00351 10.725,-12.15747 33,-37.35528 49.5,-55.99514 16.5,-18.63987 31.79979,-35.94057 33.99954,-38.44601 8.69678,-9.90535 57.66254,-65.33748 68.98442,-78.09444 6.60882,-7.44651 18.31604,-20.69508 26.01604,-29.44128 47.12874,-53.53212 48.46205,-54.9638 54.76153,-58.80194 7.0753,-4.31079 15.9053,-7.29875 24.401,-8.25698 5.3044,-0.59829 28.1588,1.02734 29.2091,2.07763 0.2417,0.24169 -3.1659,4.38193 -7.5725,9.20055 -6.1155,6.68728 -8.6969,8.82173 -10.9055,9.01716 -7.0991,0.62817 -15.1867,2.61432 -19.3603,4.75447 -5.6646,2.90468 -6.8371,4.14118 -45.50936,47.98949 -17.46271,19.8 -36.12777,40.95 -41.47792,47 -35.75843,40.43597 -88.38556,100.03236 -97.82329,110.77775 -8.57842,9.76699 -11.22279,13.43701 -11.22279,15.57569 0,3.25012 3.24359,6.68647 7.25,7.68084 1.5125,0.37539 2.75,0.97456 2.75,1.33149 0,0.64467 -7.88587,9.97654 -14.90176,17.63423 -2.01562,2.2 -11.685,13.1125 -21.48752,24.25 -9.80252,11.1375 -17.92247,20.25 -18.04433,20.25 -0.12187,0 -2.99022,-1.125 -6.37411,-2.5 -3.3839,-1.375 -6.57601,-2.5 -7.09358,-2.5 -0.51758,0 -5.63648,5.32772 -11.37535,11.83939 l -10.4343,11.83938 -0.17832,7.06602 c -0.17197,6.81409 -0.0842,7.09737 2.46018,7.94551 2.58063,0.86021 2.11529,1.46909 -21.21621,27.76087 -29.50514,33.24873 -35.7204,40.59798 -40.14314,47.46736 -14.52671,22.56283 -10.68136,39.78538 11.37218,50.9336 6.52084,3.29633 37.7313,15.94668 60.99152,24.72133 55.8017,21.05054 122.56466,42.50058 180.42474,57.96803 9.625,2.57301 18.625,5.24082 20,5.92848 1.375,0.68765 4.82814,1.51295 7.67365,1.834 2.8455,0.32104 5.9955,1.00875 7,1.52824 1.00449,0.5195 4.30135,1.42518 7.32635,2.01263 3.025,0.58745 10.45,2.23021 16.5,3.65058 17.78966,4.17652 20.76756,4.71057 25.37666,4.55092 3.2586,-0.11288 4.8651,0.37272 6.2889,1.90103 2.3809,2.55552 5.3133,2.63421 7.0277,0.18858 1.373,-1.95855 9.4262,-4.13595 15.2969,-4.13595 1.8655,0 3.6419,-0.40465 3.9476,-0.89923 0.3056,-0.49458 4.7197,-2.94954 9.809,-5.45547 18.36682,-9.0437 25.76072,-15.92514 64.94752,-60.44675 l 28.431,-32.30145 7.1437,-0.42289 c 8.8267,-0.52252 15.0646,-3.29356 19.7583,-8.77719 3.5371,-4.1322 4.2646,-7.79834 3.4127,-17.19702 -0.1495,-1.65 -0.3097,-3.98713 -0.3559,-5.19363 -0.058,-1.51075 8.1207,-11.49126 26.272,-32.0604 l 26.3562,-29.86678 5.1438,1.77776 c 2.8292,0.97777 7.4973,1.79245 10.3737,1.8104 10.21,0.0637 10.6834,-0.33847 41.5569,-35.30311 15.6204,-17.69033 45.8832,-51.96424 67.2507,-76.16424 53.0254,-60.05463 57.6415,-65.27856 76.7709,-86.88142 9.1958,-10.38478 16.9973,-19.98805 17.3368,-21.34059 1.2763,-5.08545 -1.7568,-11.0743 -8.1596,-16.11072 -2.5762,-2.02644 -2.6412,-2.27326 -1.1611,-4.40697 0.8623,-1.24316 4.6433,-5.58746 8.402,-9.65399 l 6.8341,-7.39368 11.014,6.011 c 6.0577,3.30605 11.9735,6.31551 13.1461,6.6877 3.4065,1.08118 9.6198,7.93136 12.68,13.97978 2.235,4.41729 2.8216,6.9296 2.8216,12.0832 0,3.57851 0.4,6.25917 0.8889,5.95702 0.5115,-0.31609 0.8863,12.9573 0.8827,31.25965 -0.01,26.33169 -0.2646,32.30466 -1.5073,34.68739 -1.3888,2.66299 -16.8742,21.03706 -19.7288,23.40901 -1.0058,0.83576 -1.201,-3.9244 -0.9747,-23.76669 0.2474,-21.68716 0.081,-25.01381 -1.3214,-26.41622 -2.3791,-2.3791 -4.2262,-1.96029 -5.9359,1.34587 -1.2462,2.40984 -1.5257,7.45354 -1.5257,27.53138 0,26.81419 0.081,27.16917 5.6404,24.63628 1.5914,-0.72513 -1.237,3.07651 -7.7143,10.36855 -5.6249,6.3324 -10.2718,11.51378 -10.3266,11.51417 -0.055,4e-4 0.027,-11.39175 0.1827,-25.31588 0.2731,-24.50635 0.216,-25.37648 -1.7853,-27.18765 -2.0257,-1.8332 -2.1123,-1.82628 -4.2822,0.34243 -2.1715,2.1703 -2.2147,2.71517 -2.2147,27.93692 l 0,25.72346 3.1535,-0.004 c 3.7274,-0.005 3.3693,1.21587 -1.8214,6.2093 l -3.3321,3.20539 0.2852,-24.07725 c 0.2422,-20.45035 0.05,-24.43548 -1.2731,-26.45539 -1.9488,-2.97421 -3.9447,-3.02638 -5.9554,-0.15564 -1.3094,1.86941 -1.5567,6.24334 -1.5567,27.53138 0,27.63306 0.061,27.90618 5.6742,25.34871 2.1462,-0.97789 1.878,-0.40899 -1.7058,3.61854 -2.3388,2.62837 -8.351,9.45672 -13.3604,15.17411 l -9.108,10.39525 -0.2651,-29.14525 c -0.1458,-16.02979 -0.6284,-29.14515 -1.0724,-29.14515 -0.444,0 -3.4748,3.01991 -6.7349,6.71092 -4.5905,5.19709 -5.9276,7.42913 -5.9276,9.89484 0,2.67972 -2.3754,5.8824 -15,20.22409 -8.25,9.37208 -15.3375,17.0694 -15.75,17.10515 -2.4707,0.21412 0.3178,-4.30446 7.8818,-12.77207 4.7475,-5.31461 11.7742,-13.17374 15.6149,-17.46473 3.8407,-4.29099 6.7678,-8.01704 6.5047,-8.28011 -0.2631,-0.26308 -7.5147,7.4474 -16.1148,17.13439 l -15.6366,17.61271 0,30.34546 0,30.34547 -8.7663,9.82194 c -4.8215,5.40207 -15.2544,17.24694 -23.1842,26.32194 -7.9298,9.075 -16.6974,18.97742 -19.4836,22.00537 -2.7863,3.02796 -14.6171,16.37202 -26.2908,29.65346 -11.6737,13.28144 -21.8055,24.75402 -22.5152,25.49462 -0.7096,0.7406 -9.6008,10.79655 -19.7582,22.34655 -10.1573,11.55 -27.2505,30.92652 -37.9848,43.05894 -10.7343,12.13242 -25.5919,28.96526 -33.0169,37.40632 -7.425,8.44106 -13.9637,15.83953 -14.5303,16.44106 -0.5667,0.60152 -9.1167,10.26186 -19,21.46742 -62.9074,71.32351 -60.3691,68.69335 -71.6799,74.27076 -2.9094,1.4346 -6.5884,3.13217 -8.1756,3.77238 -2.7536,1.11067 -2.7994,1.22943 -1,2.59176 2.6993,2.04362 3.9005,1.84179 7.601,-1.27717 1.8067,-1.5227 5.681,-4.3352 8.6096,-6.25 4.9457,-3.23363 25.4811,-26.02272 121.1752,-134.47358 6.875,-7.79149 22.4,-25.35847 34.5,-39.03773 12.1,-13.67927 25.6,-28.96484 30,-33.96794 4.4,-5.00311 16.1413,-18.30033 26.0918,-29.54939 9.9505,-11.24906 25.4393,-28.77783 34.4195,-38.95283 71.2046,-80.67796 97.2978,-110.0242 97.5785,-109.7435 0.4278,0.42776 -2.2223,16.75301 -3.4288,21.12274 -1.4712,5.32808 -3.8332,8.26428 -34.7724,43.22521 -16.0113,18.09255 -36.9363,41.75496 -46.5,52.58313 -13.124,14.85918 -19.5594,23.11916 -26.24,33.67971 -5.6694,8.96211 -9.3218,13.81161 -10.1601,13.48994 -1.8416,-0.7067 -20.3525,26.89186 -21.8941,32.64277 -2.1866,8.15683 -41.9621,61.39361 -70.7869,94.74342 -19.4369,22.48823 -50.3018,54.21773 -68.8075,70.73506 -22.883,20.42431 -59.7231,47.23672 -77,56.04089 -3.025,1.54152 -6.40002,3.2654 -7.50002,3.83083 -11.3741,5.84666 -11.9227,6.00605 -21.5,6.24614 -5.225,0.13099 -10.625,0.0271 -12,-0.23083 z M 798.77864,849.84671 c 5.10208,-2.99001 7.07581,-6.52695 6.96822,-12.48707 -0.28639,-15.86473 -22.4971,-29.90762 -34.50459,-21.81577 -4.14139,2.79088 -5.87833,6.03113 -5.89771,11.0021 -0.0479,12.28513 13.34574,25.04044 26.8974,25.61552 1.32668,0.0563 4.26818,-0.98535 6.53668,-2.31478 z m -0.94882,-1.14324 c 2,-1.70869 2,-1.70869 0,-0.92177 -6.48847,2.55294 -14.0589,1.20354 -20.07634,-3.57852 -6.28476,-4.9945 -8.7458,-9.2447 -9.23012,-15.94041 -0.39964,-5.52493 -0.22604,-6.12026 2.61226,-8.95857 1.6722,-1.67219 2.68633,-3.04035 2.25364,-3.04035 -0.43269,0 -1.97308,1.18636 -3.42308,2.63636 -1.45,1.45 -2.63636,2.19475 -2.63636,1.65499 0,-0.53976 0.93794,-1.8302 2.08431,-2.86765 1.65869,-1.50109 3.34333,-1.82846 8.25,-1.60316 5.93674,0.27259 6.33279,0.46151 10.66569,5.08749 2.475,2.64241 6.404,5.99436 8.7311,7.44879 4.36375,2.72731 4.83958,3.73672 5.5813,11.83991 0.43641,4.76766 -0.91024,7.10704 -5.3124,9.22866 -0.825,0.39761 -0.6,-0.046 0.5,-0.98577 z m 4.5,-4.68451 c 0,-0.55783 -0.66326,-0.44954 -1.5,0.24489 -0.825,0.68469 -1.5,1.69489 -1.5,2.24489 0,0.55783 0.66326,0.44954 1.5,-0.24489 0.825,-0.68469 1.5,-1.69489 1.5,-2.24489 z m -8.17327,-18.50511 c -3.86778,-3.19725 -6.82663,-6.57675 -6.25876,-7.14855 0.70502,-0.70992 8.29037,5.0334 9.90764,7.50168 2.09271,3.19388 0.44964,3.03487 -3.64888,-0.35313 z m -85.65547,-11.90499 c 2.78766,-2.5228 2.40314,-8.50893 -0.79038,-12.3042 -5.10325,-6.06488 -11.09075,-7.60145 -15.06643,-3.8665 -3.86387,3.62993 -3.15969,8.24361 2.05397,13.45727 3.62626,3.62626 5.0145,4.36842 8.17126,4.36842 2.13526,0 4.60476,-0.72573 5.63158,-1.65499 z m -1.76627,-1.1995 c 2.11633,-2.38354 2.59501,-2.60133 2.59501,-1.18069 0,0.53065 -1.0125,1.49612 -2.25,2.14551 -2.23794,1.17436 -2.23979,1.16919 -0.34501,-0.96482 z m -10.32826,-2.7344 c -4.85604,-4.08609 -3.9735,-11.41712 1.37327,-11.40737 3.28861,0.006 8.10145,3.49916 9.51158,6.90351 1.14227,2.75768 1.08274,3.38629 -0.48468,5.11827 -2.46431,2.72304 -6.73358,2.47082 -10.40017,-0.61441 z m -5.07673,-9.122 c 0,-0.57432 0.7875,-1.66182 1.75,-2.41667 1.61876,-1.26951 1.63998,-1.22245 0.28297,0.62756 -0.80687,1.1 -1.59437,2.1875 -1.75,2.41667 -0.15563,0.22916 -0.28297,-0.0532 -0.28297,-0.62756 z m 270.08976,-13.89732 c 1.1341,-1.3664 1.0485,-1.81748 -0.5686,-3 -2.6335,-1.92567 -5.2646,-1.73975 -6.4392,0.45501 -1.9585,3.65954 4.2205,5.90352 7.0078,2.54499 z m -14.0898,-2.89179 c 1.6604,-2.0006 -0.3321,-4.5 -3.5872,-4.5 -2.8275,0 -4.8763,3.13651 -3.166,4.8468 1.6218,1.62175 5.2752,1.43413 6.7532,-0.3468 z m -13.99996,-3 c 1.67416,-2.01722 -0.34177,-4.5 -3.65383,-4.5 -1.32492,0 -2.66796,0.675 -2.98454,1.5 -0.94272,2.45669 0.41247,4.5 2.98454,4.5 1.32492,0 2.96914,-0.675 3.65383,-1.5 z m 46.75316,0.3468 c 1.7103,-1.71029 -0.3384,-4.8468 -3.1659,-4.8468 -1.2883,0 -2.9026,0.675 -3.5873,1.5 -2.5997,3.13248 3.7973,6.30275 6.7532,3.3468 z m -60.71151,-3.39699 c 1.90724,-2.29808 -0.98402,-4.93207 -4.45701,-4.06041 -2.45466,0.61608 -3.51433,3.34758 -1.91797,4.94393 1.22103,1.22103 5.07121,0.68743 6.37498,-0.88352 z m 46.95831,-0.94981 c 0.9932,-1.19672 0.9932,-1.80328 0,-3 -1.5569,-1.87597 -4.047,-1.91729 -6.5211,-0.10821 -1.6172,1.18252 -1.7027,1.6336 -0.5687,3 1.6786,2.02257 5.4532,2.08018 7.0898,0.10821 z m -61.01053,-1.98727 c 1.91655,-2.3093 0.4569,-4.51273 -2.98943,-4.51273 -3.18909,0 -4.6648,1.82518 -3.63837,4.5 0.74146,1.93222 5.02794,1.94045 6.6278,0.0127 z m 47.01053,-1.01273 c 1.6742,-2.01722 -0.3417,-4.5 -3.6538,-4.5 -1.3249,0 -2.668,0.675 -2.9845,1.5 -0.9428,2.45669 0.4124,4.5 2.9845,4.5 1.3249,0 2.9691,-0.675 3.6538,-1.5 z m -61.58175,-1.10699 c 2.0084,-0.77069 2.06373,-4.27084 0.0795,-5.03224 -2.6212,-1.00587 -6.49771,0.53032 -6.49771,2.57495 0,2.59134 3.0379,3.75444 6.41821,2.45729 z m 47.47655,-1.76626 c 1.8237,-2.19738 0.2311,-4.62675 -3.0331,-4.62675 -3.05042,0 -4.50781,1.87378 -3.50003,4.5 0.72079,1.87837 5.01043,1.96159 6.53313,0.12675 z m 47.195,-0.23496 c 1.1341,-1.3664 1.0485,-1.81748 -0.5686,-3 -2.4741,-1.80908 -4.9642,-1.76776 -6.5212,0.10821 -0.9932,1.19672 -0.9932,1.80328 0,3 1.6366,1.97197 5.4113,1.91436 7.0898,-0.10821 z m -107.58976,-3.39179 c 0,-1.94457 -0.57444,-2.56678 -2.5856,-2.80056 -2.96302,-0.34443 -5.4274,2.02131 -4.53315,4.3517 0.41849,1.09056 1.60903,1.47984 3.86187,1.26273 2.72364,-0.26248 3.25688,-0.72319 3.25688,-2.81387 z m 46.48943,0.51273 c 0.67888,-0.81799 0.96207,-2.19673 0.62932,-3.06387 -0.88967,-2.31844 -6.98701,-1.55714 -7.45895,0.93131 -0.63408,3.34332 4.49549,4.94503 6.82963,2.13256 z m 47.42083,-1.13948 c 1.4229,-3.708 -3.8213,-5.81938 -6.8734,-2.7673 -1.2399,1.23992 -1.3422,1.92367 -0.4489,3 1.6068,1.93609 6.5503,1.77899 7.3223,-0.2327 z m -61.42083,-1.86052 c 1.63081,-1.965 0.57154,-4.51273 -1.87626,-4.51273 -4.61994,0 -6.45825,2.25492 -3.91317,4.8 1.63954,1.63954 4.29988,1.50754 5.78943,-0.28727 z m 46.90533,-0.88598 c 0.6269,-0.75529 0.8495,-2.12952 0.4948,-3.05384 -0.9202,-2.39806 -6.7452,-1.74765 -7.2298,0.80726 -0.6183,3.26036 4.4818,4.96158 6.735,2.24658 z m -60.90533,-2.11402 c 1.63081,-1.965 0.57154,-4.51273 -1.87626,-4.51273 -4.61994,0 -6.45825,2.25492 -3.91317,4.8 1.63954,1.63954 4.29988,1.50754 5.78943,-0.28727 z m 94.10573,-0.12735 c 1.1477,-1.38293 1.0148,-1.87795 -0.9265,-3.44986 -3.6785,-2.97872 -8.5056,-0.0703 -5.4631,3.29164 1.9988,2.2086 4.6337,2.27385 6.3896,0.15822 z m -48.0294,-0.42056 c 2.5006,-1.33829 2.4705,-3.60743 -0.066,-4.96482 -3.8226,-2.04579 -7.7342,1.86581 -4.8,4.8 1.4692,1.46916 2.3715,1.49972 4.8658,0.16482 z m -60.21737,-1.84996 c 2.19305,-1.3898 0.93225,-4.58013 -1.94254,-4.91542 -3.35622,-0.39143 -5.67812,2.16511 -3.90585,4.30056 1.38176,1.66492 3.79165,1.91828 5.84839,0.61486 z m 46.21735,-1.15004 c 2.5006,-1.33829 2.47056,-3.60743 -0.0657,-4.96482 -3.82259,-2.04579 -7.73419,1.86581 -4.8,4.8 1.46916,1.46916 2.37145,1.49972 4.86574,0.16482 z m 47.00002,0 c 1.0638,-0.56935 1.9342,-1.67852 1.9342,-2.46482 0,-1.40504 -2.9107,-3.5 -4.8628,-3.5 -0.5469,0 -1.7228,0.72848 -2.6132,1.61885 -1.4918,1.49181 -1.4852,1.76649 0.084,3.5 1.9531,2.15808 2.7699,2.28469 5.4582,0.84597 z m -59.68484,-4.19606 c 0.83532,-1.33262 0.69466,-2.12175 -0.61093,-3.42734 -1.39977,-1.39977 -2.13936,-1.49415 -4.23305,-0.5402 -2.7634,1.25908 -3.23754,3.09818 -1.29862,5.0371 1.63876,1.63876 4.78877,1.09028 6.1426,-1.06956 z m 46.51384,-0.14201 c 1.8237,-2.19738 0.2311,-4.62675 -3.0331,-4.62675 -3.311,0 -4.731,2.24758 -2.8511,4.51273 1.546,1.86278 4.3872,1.91783 5.8842,0.11402 z m -60.49689,-2.93532 c 0.8721,-1.4311 0.72719,-2.08733 -0.69435,-3.14423 -3.56374,-2.6496 -8.35791,0.75445 -5.6529,4.01379 1.61195,1.94229 4.90899,1.4906 6.34725,-0.86956 z m 94.04959,0.58495 c 1.3026,-3.39458 -4.9881,-5.73973 -7.4475,-2.77638 -0.9932,1.19672 -0.9932,1.80328 0,3 1.7255,2.07906 6.6202,1.93209 7.4475,-0.22362 z m -48.3817,-0.31156 c 4.1789,-2.2365 0.7601,-7.11775 -3.5954,-5.13328 -2.8839,1.314 -3.2127,3.63669 -0.7204,5.08836 2.1956,1.27882 2.0137,1.27693 4.3158,0.0449 z m -59.7344,-2.77847 c 2.68973,-2.97213 -1.13197,-5.3513 -5.74957,-3.57936 -1.88094,0.72178 -2.04552,2.52928 -0.38179,4.19301 1.72858,1.72858 4.23905,1.47732 6.13136,-0.61365 z m 46.22751,-0.62778 c 1.55419,-1.15413 1.72009,-1.80192 0.83209,-3.25 -0.60989,-0.99471 -2.13585,-1.80857 -3.39096,-1.80857 -1.25511,0 -2.78107,0.81386 -3.39101,1.80857 -0.88795,1.44808 -0.72208,2.09587 0.83214,3.25 1.06762,0.79279 2.21911,1.44143 2.55887,1.44143 0.33976,0 1.49125,-0.64864 2.55887,-1.44143 z m 47.44109,-0.0586 c 0.9951,-1.19894 0.9866,-1.8112 -0.042,-3.05056 -1.7459,-2.1037 -6.3412,-1.47453 -6.7978,0.93073 -0.6365,3.35241 4.4966,4.94326 6.8398,2.11983 z m -61.93422,-2.53518 c 4.17893,-2.2365 0.76009,-7.11775 -3.59535,-5.13328 -2.88392,1.314 -3.21276,3.63669 -0.72039,5.08836 2.1956,1.27882 2.01371,1.27693 4.31574,0.0449 z m 80.93424,-2.46482 c 2.6208,-3.15787 -3.80462,-6.29532 -6.78632,-3.31365 -0.9151,0.91512 -0.8111,1.60097 0.455,3 1.9949,2.20442 4.6529,2.33609 6.33132,0.31365 z m -94.93424,-0.53518 c 2.50759,-1.34202 2.4906,-4.65347 -0.028,-5.45283 -2.3933,-0.75961 -6.03777,1.03523 -6.03777,2.9735 0,0.77832 0.7875,1.87381 1.75,2.43441 2.1956,1.27882 2.01371,1.27693 4.31574,0.0449 z m -14,-3 c 2.36131,-1.26374 2.53881,-4.51886 0.29338,-5.38051 -4.05688,-1.55677 -8.00453,2.73937 -4.72242,5.13931 2.10242,1.53732 2.016,1.53261 4.42904,0.2412 z M 1404.8604,439.91671 c 2.2299,-3.18359 2.1536,-47.23099 -0.087,-50.43035 -2.0892,-2.98271 -4.7937,-2.80488 -6.5243,0.429 -2.0179,3.77063 -2.0541,51.02892 -0.04,52.27367 1.9286,1.1919 4.9477,0.16053 6.6517,-2.27232 z m -5.8639,-0.31953 c -0.3667,-0.36666 -0.6667,-10.26666 -0.6667,-22 0,-18.29629 0.2135,-21.33333 1.5,-21.33333 1.2879,0 1.5,3.11111 1.5,22 0,20.08613 -0.353,23.31366 -2.3333,21.33333 z m -0.1667,-47.33333 c -0.3399,-0.55 -0.168,-1 0.382,-1 0.55,0 1.2781,0.45 1.618,1 0.3399,0.55 0.168,1 -0.382,1 -0.55,0 -1.2781,-0.45 -1.618,-1 z M 847.32982,883.24366 c -6.99583,-2.31859 -10.40815,-3.84436 -8.7123,-3.89559 2.37025,-0.0716 20.22698,6.09713 21.58736,7.4575 0.86818,0.86818 -1.40925,0.23813 -12.87506,-3.56191 z m -218.84849,-70.143 c -5.14166,-1.63525 -9.17451,-3.14714 -8.96188,-3.35978 0.65384,-0.65383 14.12912,3.09784 17.31037,4.81941 4.20566,2.27594 2.41019,1.96203 -8.34849,-1.45963 z m 309.65115,0.63249 c -0.2919,-0.29188 -13.1586,-3.41438 -28.59267,-6.93889 -55.16936,-12.59843 -125.95604,-31.62276 -165.70999,-44.53553 -9.9,-3.21569 -20.025,-6.36995 -22.5,-7.00947 -19.43792,-5.02259 -101.48913,-35.67839 -142.5,-53.24055 -28.18863,-12.07127 -33.32216,-14.7089 -32.76607,-16.8354 0.69401,-2.65392 1.74762,-2.45578 10.96476,2.06206 29.64258,14.52951 109.12988,45.45369 156.80131,61.00286 10.45,3.40851 23.5,7.71035 29,9.55963 19.17012,6.44564 61.97431,19.07487 83,24.48886 2.75,0.70811 5.45,1.61995 6,2.02631 1.75746,1.29849 73.78742,18.89519 109.24996,26.68945 2.9825,0.6555 2.9159,3.26137 -0.083,3.26137 -1.2833,0 -2.5721,-0.23881 -2.864,-0.5307 z m 15.3985,-75.51887 c -1.4744,-2.36081 -5.7563,-2.56779 -7.0038,-0.33855 -1.4129,2.52461 -6.8706,0.99108 -6.7724,-1.9029 0.094,-2.77594 -4.3954,-3.59564 -6.75737,-1.23371 -2.165,2.165 -6.4547,1.0274 -6.86036,-1.81931 -0.37485,-2.63049 -5.65797,-3.67405 -6.94622,-1.37208 -1.22531,2.18951 -5.83601,0.91207 -6.91075,-1.9147 -0.96944,-2.54983 -3.74653,-3.08377 -6.99548,-1.34498 -2.61262,1.39823 -6.65644,0.22465 -7.26668,-2.10889 -0.53594,-2.04944 -3.63354,-2.53949 -6.50384,-1.02893 -1.71272,0.90135 -3.38242,0.49739 -39.18426,-9.48005 -69.73436,-19.43393 -142.4102,-44.15603 -205.47369,-69.89588 -18.43978,-7.52633 -22.8221,-9.82404 -28.27137,-14.82301 -11.68868,-10.72281 -11.30388,-25.48693 1.14654,-43.99008 4.35587,-6.47345 34.26939,-41.22585 60.23154,-69.97472 l 3.41122,-3.77736 12.06807,3.85072 12.06808,3.85073 -6.12985,6.3823 -6.12986,6.38229 0.28966,6.94957 0.28966,6.94956 18,5.79867 c 9.9,3.18926 18.67979,5.81941 19.51064,5.84477 0.83085,0.0254 4.65585,-3.57334 8.5,-7.99711 3.84415,-4.42376 8.37282,-9.63869 10.06372,-11.58872 l 3.07436,-3.54551 13.92564,4.51551 c 7.6591,2.48354 16.48056,5.29537 19.60324,6.24853 l 5.67761,1.73301 4.9355,-5.4098 c 2.71452,-2.97539 7.48608,-8.40196 10.60347,-12.05904 l 5.66797,-6.64924 -0.57182,-6.30817 c -0.3145,-3.46949 -0.7627,-6.49905 -0.996,-6.73235 -0.36576,-0.36576 -9.07185,-2.81764 -25.29988,-7.12515 l -4.30555,-1.14285 6.05555,-6.83034 6.05555,-6.83034 0,-6.49371 c 0,-3.98974 -0.482,-6.88311 -1.25,-7.50355 -1.96276,-1.58564 -36.68737,-12.3918 -37.73646,-11.74343 -0.51642,0.31917 -5.26051,5.96412 -10.54241,12.54434 -5.2819,6.58022 -9.80086,11.96403 -10.04212,11.96403 -0.63727,0 -22.86047,-8.17422 -23.29658,-8.56904 -0.342,-0.30961 11.32152,-13.67848 41.81681,-47.93096 6.85538,-7.7 12.74131,-14.12334 13.07983,-14.27409 0.33852,-0.15076 4.18297,1.36011 8.54321,3.35747 29.14601,13.35137 71.9701,30.57872 116.42772,46.83677 77.83296,28.46331 171.56808,55.37518 257.99998,74.07321 21.4814,4.64714 20.6705,4.27014 17.2218,8.00664 -3.8284,4.1479 -45.2395,51.17754 -47.8045,54.29053 l -2.0828,2.5277 -4.1698,-4.52369 c -15.2839,-16.58114 -50.7258,-13.17627 -59.2997,5.69688 -2.1838,4.80695 -2.4134,13.5581 -0.4543,17.30824 4.0559,7.76361 15.7003,13.7515 27.8976,14.34582 2.6446,0.12885 4.9797,0.51153 5.1891,0.85039 0.2095,0.33886 -7.9855,10.04091 -18.2111,21.56012 -10.2255,11.5192 -23.126,26.11901 -28.6678,32.44401 -17.9268,20.46046 -28.5444,29.51658 -43.26532,36.90251 -7.2215,3.62322 -8.6761,4.01497 -12.8061,3.44889 -4.1296,-0.56603 -4.7197,-0.40717 -5.1917,1.39771 -0.6629,2.53487 -4.0229,3.3381 -15.8958,3.80003 -8.0972,0.31503 -9.1675,0.14823 -10.2584,-1.59871 z m 19.1951,-3.54067 c 0.9008,-2.34741 -0.1574,-3.40976 -3.3963,-3.40976 -3.1586,0 -4.4832,1.29823 -3.62,3.54789 0.7639,1.99055 6.2408,1.88272 7.0163,-0.13813 z m -14.5005,-2.32415 c 2.2904,-1.45033 0.481,-4.08561 -2.8054,-4.08561 -3.2416,0 -4.5805,1.28025 -3.7104,3.54789 0.6165,1.60658 4.3421,1.91404 6.5158,0.53772 z m 33.194,-2.69382 c 1.1351,-1.36762 1.0441,-1.82076 -0.6082,-3.02891 -2.3871,-1.74553 -4.4144,-1.42956 -5.8744,0.91559 -2.0324,3.26469 3.9174,5.2043 6.4826,2.11332 z m -46.3959,-1.0364 c 0.3864,-1.0069 -0.088,-2.17016 -1.2225,-3 -2.3061,-1.68623 -2.64,-1.68379 -4.9925,0.0364 -1.6172,1.18252 -1.7027,1.6336 -0.5687,3 1.7368,2.0927 5.9754,2.06996 6.7837,-0.0364 z m 32.3061,-1.85539 c 0.9932,-1.19672 0.9932,-1.80328 0,-3 -1.6267,-1.96009 -4.4143,-1.91056 -6.0898,0.10821 -1.134,1.3664 -1.0485,1.81748 0.5687,3 2.4477,1.78981 3.9707,1.75996 5.5211,-0.10821 z m -47.10424,-0.41439 c 2.29049,-1.45033 0.48101,-4.08561 -2.80532,-4.08561 -3.47981,0 -4.76117,1.48684 -3.05405,3.5438 1.35966,1.63828 3.775,1.86163 5.85937,0.54181 z m 32.17004,-2.12079 c 2.7333,-1.46282 2.3997,-3.8099 -0.6504,-4.57542 -1.7731,-0.44503 -3.1075,-0.11784 -4.25,1.04207 -1.5546,1.57835 -1.5363,1.78643 0.2758,3.12965 2.3158,1.71661 2.1916,1.70577 4.6246,0.4037 z m -46.64755,-0.57181 c 2.22635,-0.85433 1.97066,-4.13481 -0.38044,-4.88102 -1.9915,-0.63208 -6.03777,0.92483 -6.03777,2.32319 0,2.3777 3.3787,3.7242 6.41821,2.55783 z m 33.38175,-2.59301 c 1.9423,-1.94224 1.3856,-3.71531 -1.3846,-4.4106 -1.7731,-0.44503 -3.1075,-0.11784 -4.25,1.04207 -1.5546,1.57835 -1.5363,1.78643 0.2758,3.12965 2.3654,1.75337 3.7812,1.81649 5.3588,0.23888 z m -46.38019,-1.11767 c 1.6886,-1.23474 1.69613,-1.42357 0.1197,-3 -2.11119,-2.11119 -3.94442,-2.13452 -6.00256,-0.0764 -3.19062,3.19062 2.00844,5.90942 5.88286,3.07638 z m 31.99839,-1.28932 c 0.87,-0.33384 1.5818,-1.45027 1.5818,-2.48095 0,-2.67817 -4.66056,-3.6878 -6.8346,-1.48059 -1.55464,1.57835 -1.5363,1.78643 0.27577,3.12965 2.17215,1.61013 2.71331,1.70058 4.97703,0.83189 z m -13.99995,-3 c 0.86999,-0.33384 1.58179,-1.45027 1.58179,-2.48095 0,-2.34983 -4.41838,-3.63965 -6.51299,-1.90128 -2.53541,2.1042 -1.96569,2.98637 3.1812,4.92583 0.0925,0.0349 0.88002,-0.20975 1.75,-0.5436 z m -44.48192,-28.37474 c 1.8827,-0.53995 3.78534,-1.55245 4.22809,-2.25 1.22435,-1.92897 0.99047,-3.76827 -0.47917,-3.76827 -0.72313,0 -2.06732,-1.57808 -2.98708,-3.50684 -2.70659,-5.67579 -12.68984,-10.55205 -26.65399,-13.019 -7.00883,-1.2382 -7.6234,-1.19788 -10.25,0.67243 -1.53678,1.09428 -2.79414,2.44932 -2.79414,3.01121 0,0.56189 -0.99291,1.82562 -2.20646,2.8083 l -2.20647,1.78669 2.95647,3.53954 c 1.82659,2.18683 5.24949,4.48255 8.95646,6.00704 5.20161,2.13917 8.31429,2.97055 19,5.07479 3.87543,0.76315 9.05084,0.61504 12.43629,-0.35589 z m -19.93629,-3.52554 c -6.03265,-1.47049 -13.52062,-4.53395 -16.23841,-6.64342 -1.31358,-1.01957 -1.59422,-2.22167 -1.1484,-4.91908 0.52617,-3.18359 1.04354,-3.69107 4.78258,-4.69111 2.49774,-0.66804 5.58958,-0.79998 7.6484,-0.32639 8.14484,1.87358 15.17447,4.62728 16.06626,6.29361 0.52797,0.98651 1.54936,1.79366 2.26977,1.79366 2.24291,0 4.6198,3.51338 4.6198,6.82874 l 0,3.17126 -6.25,-0.0833 c -3.4375,-0.0458 -8.725,-0.68661 -11.75,-1.42396 z m -68.49026,-26.49643 c 2.43306,-0.92505 2.77061,-3.58697 0.62316,-4.91416 -0.67449,-0.41686 -1.99282,-2.29337 -2.92962,-4.17003 -2.80666,-5.62247 -18.36046,-12.49618 -30.32977,-13.40367 -4.33994,-0.32905 -4.8819,-0.0828 -8.75,3.97582 -2.26793,2.37962 -4.12136,4.70665 -4.11873,5.17116 0.003,0.46452 1.52687,2.50172 3.3872,4.52711 6.66611,7.25755 32.17218,12.59507 42.11776,8.81377 z m -19.00974,-1.65592 c -4.1512,-0.88755 -16.9649,-5.59889 -19.18632,-7.05442 -3.51054,-2.30019 -3.25057,-7.94658 0.43632,-9.47692 1.5125,-0.6278 4.55,-1.1697 6.75,-1.20423 5.4721,-0.0859 18.32778,4.20487 19.57375,6.53299 0.54814,1.02421 1.58604,1.8622 2.30645,1.8622 2.24291,0 4.6198,3.51338 4.6198,6.82874 l 0,3.17126 -6.25,-0.116 c -3.4375,-0.0638 -7.15,-0.30843 -8.25,-0.54362 z m 236.91878,-30.35709 c 7.0532,-2.68514 14.0302,-8.78369 15.6443,-13.67442 1.4005,-4.24356 0.4874,-12.74166 -1.7523,-16.30887 -6.2217,-9.90928 -17.1776,-15.10906 -31.95692,-15.16702 -18.7583,-0.0736 -33.3233,11.25979 -33.3483,25.94914 -0.016,9.62533 9.4985,18.30664 23.2641,21.22606 7.2081,1.52868 21.519,0.49923 28.14912,-2.02489 z m -29.25312,0.54649 c -7.3954,-1.67955 -13.8903,-5.22541 -17.5603,-9.58689 -2.1992,-2.61362 -2.6019,-4.05876 -2.5834,-9.26962 0.027,-7.70794 2.4296,-13.24752 7.5989,-17.52364 12.262,-10.14328 39.15552,-9.42586 49.91292,1.33151 6.2545,6.25451 8.3436,16.56772 4.8042,23.71717 -4.6829,9.45927 -25.63142,15.08803 -42.17232,11.33147 z m 108.33432,12.42987 c -12.2708,-0.82318 -20.1575,-3.6172 -25.6148,-9.07445 -3.7206,-3.72055 -3.8852,-4.16202 -3.8852,-10.41732 0,-13.81986 5.9009,-20.35873 21.7287,-24.07786 12.434,-2.92168 26.9283,-0.0848 34.7517,6.80167 5.0426,4.43863 6.2753,7.52132 6.9747,17.44155 0.6392,9.06603 -1.4015,12.63256 -9.4551,16.52496 -6.5515,3.16638 -11.1766,3.69524 -24.5,2.80145 z m -371.74998,-86.2445 -15.75,-5.09176 0,-5.37071 c 0,-2.95389 0.3375,-5.17905 0.75,-4.9448 0.67276,0.38204 26.42628,8.5741 32,10.17902 1.94167,0.55909 2.25,1.32382 2.25,5.58049 0,4.06783 -0.30681,4.91568 -1.75,4.83607 -0.9625,-0.0531 -8.8375,-2.38783 -17.5,-5.18831 z m 22.26075,-0.40613 c 0.0105,-4.71823 0.18518,-4.98576 9.25,-14.17093 l 9.23925,-9.36192 0.31319,3.65935 c 0.28596,3.34106 -0.44161,4.52604 -8.365,13.62397 -4.77301,5.48055 -9.07645,10.21076 -9.56319,10.51159 -0.48675,0.30082 -0.88016,-1.6171 -0.87425,-4.26206 z m 442.48923,-4.36672 c -3.3,-1.07258 -17.1077,-4.42495 -30.6839,-7.44971 -127.8175,-28.47775 -250.49637,-67.65805 -354.00922,-113.06094 -9.51877,-4.17513 -20.87407,-8.89498 -25.234,-10.48854 -4.35993,-1.59357 -8.29503,-3.26528 -8.74467,-3.71492 -0.44963,-0.44963 5.32625,-7.77242 12.83531,-16.27285 7.50905,-8.50044 21.39781,-24.23034 30.86391,-34.95534 9.4661,-10.725 29.94109,-33.9 45.49998,-51.5 57.05228,-64.53676 64.78364,-73.28901 80.7988,-91.46798 12.75527,-14.47868 17.45777,-19.12502 21.49997,-21.24324 5.8847,-3.08371 12.2969,-3.97462 19.2534,-2.67502 4.0472,0.7561 33.65782,9.81419 46.92042,14.35327 2.2,0.75294 8.95,2.94047 15,4.86117 23.1623,7.35335 85.172,27.18 111.5,35.65043 32.2693,10.3819 127.1623,40.72637 192.5,61.55686 44.3275,14.13217 51.8988,17.12513 53.1824,21.02313 0.2674,0.81192 -10.7428,13.47636 -68.5434,78.8419 -5.3015,5.99529 -11.2662,12.74529 -13.255,15 -1.9888,2.25471 -18.1257,20.52448 -35.8599,40.59948 -17.7342,20.075 -39.777,45.05 -48.984,55.5 -9.2069,10.45 -18.0709,20.41746 -19.6977,22.1499 -5.1788,5.51517 -14.2889,6.72254 -24.8424,3.2924 z m 17.5,-99.64471 c 20.625,-23.42117 51.8049,-58.77715 69.2886,-78.56886 17.4837,-19.79171 31.54,-36.23342 31.2363,-36.53713 -0.5082,-0.50825 -6.7234,-2.55331 -35.5249,-11.68926 -25.271,-8.01607 -224.4915,-71.79798 -244,-78.11843 l -7.5,-2.42988 -2,2.40716 c -1.1,1.32394 -10.31312,11.79678 -20.47362,23.27299 -10.1605,11.4762 -30.3926,34.36582 -44.9602,50.86582 -30.35251,34.37883 -54.37018,61.52129 -64.41837,72.79946 -3.94012,4.42243 -6.55895,8.15727 -6.04833,8.62583 1.35451,1.24293 17.4464,6.36218 18.06245,5.74613 0.29428,-0.29428 -3.62456,-1.81172 -8.70855,-3.37208 l -9.24361,-2.83701 68.72411,-77.73117 c 37.7983,-42.75214 69.35122,-77.73116 70.11762,-77.73116 1.2955,0 25.8815,7.68647 63.9485,19.99259 8.8,2.84482 20.275,6.52978 25.5,8.18879 5.225,1.65902 27.05,8.6376 48.5,15.50796 21.45,6.87036 43.725,13.98982 49.5,15.82102 5.775,1.83119 15.9,5.07826 22.5,7.2157 6.6,2.13743 26.0625,8.35439 43.25,13.81546 17.1875,5.46106 31.25,10.22695 31.25,10.59086 0,0.3639 -5.7375,7.1425 -12.75,15.06355 -34.7292,39.22878 -86.2992,97.61662 -106.4591,120.53374 -9.3038,10.57631 -17.2427,19.43153 -17.6419,19.67826 -0.3992,0.24673 -6.7836,-1.50529 -14.1874,-3.89338 -25.8882,-8.35012 -69.6246,-22.36439 -88.9616,-28.50552 -34.0394,-10.81042 -39.8684,-12.67447 -70.00002,-22.38507 -71.69731,-23.10615 -92.46,-29.63728 -93.3135,-29.35278 -0.50168,0.16723 16.80113,5.98535 38.4507,12.92916 48.5941,15.58592 136.35242,43.67451 163.86282,52.44718 36.3079,11.57806 48.3542,15.45191 55.5,17.84769 3.85,1.29079 7.45,2.35577 8,2.36661 0.55,0.0108 17.875,-19.14306 38.5,-42.56423 z M 928.10731,256.70715 c 3.17317,-2.22257 2.79819,-5.09424 -0.91599,-7.01492 -3.5702,-1.84622 -8.21246,-1.32572 -11.04588,1.23848 -2.30702,2.08782 -2.28002,2.86874 0.18438,5.33314 2.44308,2.44308 8.59197,2.67452 11.77749,0.4433 z m -9.77749,-0.37591 c 0,-1.35028 3.66637,-2.30806 6,-1.56739 3.36967,1.06949 2.22526,2.5 -2,2.5 -2.2,0 -4,-0.41968 -4,-0.93261 z m 0.65275,-5.80758 c 1.01599,-0.74557 2.74725,-1.11518 3.84725,-0.82135 1.1,0.29383 2.5625,0.54038 3.25,0.54789 0.6875,0.008 1.25,0.37711 1.25,0.82134 0,0.44423 -2.29376,0.80769 -5.09725,0.80769 -4.53132,0 -4.89215,-0.1505 -3.25,-1.35557 z m -146.90275,290.08513 -16.75,-5.46954 0,-3.9377 c 0,-2.16573 0.47782,-3.9377 1.06183,-3.9377 0.584,0 4.9715,1.08867 9.75,2.41926 4.77849,1.33059 12.62567,3.42375 17.43817,4.65146 l 8.75,2.23221 0,4.84853 c 0,3.98633 -0.3112,4.83205 -1.75,4.75578 -0.9625,-0.051 -9.2875,-2.55405 -18.5,-5.5623 z m 23.29163,0.31594 c -0.0403,-4.67934 0.24727,-5.16757 8.70837,-14.78735 l 8.75,-9.94823 0.30778,4.61063 c 0.33064,4.95297 0.9424,4.05237 -14.51615,21.36988 l -3.20838,3.59419 -0.0416,-4.83912 z m 516.95835,-2.45745 0,-5.79657 16.4033,-18.54255 16.4034,-18.54254 4.5246,1.04977 4.5247,1.04977 -2.678,3.27062 c -7.0709,8.63564 -37.7681,43.17434 -38.428,43.23693 -0.4125,0.0391 -0.75,-2.53732 -0.75,-5.72543 z m -587.81147,0.58586 c -3.47132,-1.0998 -6.07603,-2.2351 -5.78825,-2.52289 0.28779,-0.28778 6.66418,-2.53174 14.16975,-4.98657 7.50558,-2.45482 13.26029,-4.81736 12.78825,-5.25009 -0.47204,-0.43272 -7.30286,-2.81958 -15.1796,-5.30412 -9.65121,-3.04427 -14.45867,-4.1437 -14.74246,-3.37149 -0.23162,0.63023 -0.0685,5.08337 0.3624,9.89587 0.43093,4.8125 0.51519,8.75 0.18724,8.75 -2.14884,0 -14.09115,-4.7487 -13.91475,-5.53302 0.11962,-0.53184 4.20255,-5.23362 9.0732,-10.44841 4.87064,-5.21478 8.85571,-9.78209 8.85571,-10.14957 0,-0.36747 -2.22463,-1.46811 -4.94363,-2.44584 l -4.94362,-1.77771 2.9162,-3.57272 c 1.60391,-1.965 5.30327,-6.21483 8.2208,-9.44407 l 5.30461,-5.87134 5.67648,1.78936 5.67648,1.78935 2.07567,-2.41802 c 1.14163,-1.3299 5.74166,-7.04827 10.2223,-12.70748 4.48064,-5.65921 8.62994,-10.1047 9.22066,-9.87887 0.59073,0.22584 7.58399,2.51604 15.54059,5.08935 7.9566,2.5733 14.65651,4.8687 14.88869,5.10089 0.23218,0.23218 -3.98439,5.85561 -9.37016,12.49651 -5.42246,6.68613 -9.38906,12.42468 -8.88869,12.85939 0.49699,0.43178 2.83905,1.33584 5.20457,2.00903 l 4.30094,1.22398 -5.30094,6.03329 c -2.91552,3.31831 -6.65095,7.58491 -8.30095,9.48133 l -3,3.44805 -5.4001,-1.62005 -5.40009,-1.62006 -10.61624,10.58332 c -5.83892,5.82082 -11.05888,10.53582 -11.5999,10.47777 -0.54102,-0.058 -3.82384,-1.00537 -7.29516,-2.10517 z m 29.54561,-28.37592 c 5.36224,-3.45303 3.40844,-9.39155 -3.80046,-11.55139 -9.88244,-2.96085 -20.2608,4.91204 -13.97462,10.60096 3.96322,3.58666 12.93621,4.06644 17.77508,0.95043 z m -11.68526,0.48634 c -3.33075,-0.70394 -6.04886,-3.11625 -6.04886,-5.36833 0,-4.45873 6.48464,-7.18008 13.32922,-5.59374 4.52907,1.04967 4.34153,0.90121 5.13409,4.06441 1.26263,5.03933 -4.92925,8.47963 -12.41445,6.89766 z m 4.68031,-2.50388 c -0.33229,-0.33229 -1.1948,-0.36781 -1.91667,-0.0789 -0.79773,0.31922 -0.56078,0.55618 0.60417,0.60416 1.05416,0.0434 1.64479,-0.19293 1.3125,-0.52522 z m 28.90675,-20.0354 c -0.34975,-2.55177 -0.63592,-7.50177 -0.63592,-11 0,-3.62645 -0.43527,-6.36043 -1.01262,-6.36043 -1.41595,0 -27.293,10.93803 -28.36062,11.98783 -0.86877,0.85426 25.11935,9.85247 28.75916,9.95766 1.67279,0.0483 1.81406,-0.46984 1.25,-4.58506 z m -8.63592,1.45819 c -12.79068,-3.87732 -18.16726,-6.09713 -16.808,-6.93948 0.7194,-0.44582 5.23933,-2.22897 10.04429,-3.96254 4.80495,-1.73358 8.51683,-3.50704 8.24862,-3.94102 -0.26822,-0.43399 0.48332,-0.53514 1.67008,-0.2248 1.4091,0.36849 1.92436,0.18663 1.48507,-0.52416 -0.36998,-0.59863 -0.10284,-1.41666 0.59363,-1.81785 0.69647,-0.40118 0.93271,-0.36118 0.52499,0.0889 -0.40773,0.45007 -0.3277,1.31671 0.17785,1.92586 0.90036,1.08486 1.76324,16.23152 0.96753,16.98357 -0.22223,0.21005 -3.32906,-0.50477 -6.90406,-1.58848 z m -50.19644,37.50704 c -0.19785,-4.30411 -0.12209,-8.10706 0.16835,-8.45099 0.29045,-0.34393 6.15309,1.29005 13.02809,3.63106 14.19429,4.83332 14.30891,4.20433 -1.65165,9.06429 -4.86659,1.48186 -9.37411,2.89387 -10.0167,3.1378 -0.81176,0.30813 -1.27815,-1.94499 -1.52809,-7.38216 z m 62.48131,-0.30761 c -5.61832,-1.55547 -10.79018,-3.01982 -11.49303,-3.2541 -0.70284,-0.23428 5.80988,-0.88043 14.47272,-1.43588 8.66283,-0.55545 16.04174,-1.30104 16.39758,-1.65687 0.35583,-0.35584 -1.55963,-2.56492 -4.25659,-4.90909 -2.69695,-2.34416 -6.67344,-5.88881 -8.83664,-7.877 l -3.93309,-3.61489 12.78975,3.30588 c 7.03436,1.81824 13.01514,3.53128 13.29063,3.80677 0.86356,0.86356 -15.13745,18.60127 -16.7162,18.53053 -0.825,-0.037 -6.09681,-1.33987 -11.71513,-2.89535 z m 532.73041,-3.76805 c 0.019,-8.4979 0.6665,-9.58793 5.1888,-8.73954 3.2136,0.60287 3.7549,0.32917 6.6979,-3.38676 2.7886,-3.52087 3.2501,-4.95884 3.5755,-11.14125 0.412,-7.82671 0.7245,-8.3832 10.9385,-19.48245 l 5.5215,-6 0.031,10.10914 0.031,10.10914 -15.5864,17.64086 c -8.5725,9.70247 -15.7725,17.64086 -16,17.64086 -0.2275,0 -0.4067,-3.0375 -0.3983,-6.75 z m -544.01528,-1.8316 c 0,-0.34061 3.00182,-3.97329 6.67071,-8.07263 l 6.6707,-7.45334 6.82096,6.7687 c 4.50948,4.47493 6.40019,6.99203 5.5793,7.42773 -1.65401,0.87789 -25.74167,2.122 -25.74167,1.32954 z m -72.5,-5.45714 c -6.6,-2.06174 -13.2375,-4.03003 -14.75,-4.37399 -2.5973,-0.59065 -2.75,-0.93565 -2.75,-6.21331 0,-4.93044 0.20591,-5.50292 1.75,-4.86539 0.9625,0.39741 8.94731,3.40536 17.74403,6.68435 8.79671,3.27899 16.10247,6.07025 16.23502,6.20279 0.13254,0.13255 -1.21477,1.60746 -2.99403,3.27758 l -3.23502,3.03658 -12,-3.74861 z m 620.24998,-2.65059 c -1.492,-0.38991 -1.75,-1.69947 -1.75,-8.88399 0,-4.63468 0.2546,-8.42668 0.5657,-8.42668 0.3112,0 1.4362,0.46583 2.5,1.03518 1.6638,0.89044 1.9343,2.14888 1.9343,9 0,4.38065 -0.3375,7.91262 -0.75,7.84882 -0.4125,-0.0638 -1.5375,-0.3218 -2.5,-0.57333 z m 4.7621,-8.07411 c 0.2205,-9.23779 0.2203,-9.23656 1.4879,-9.23656 1.5722,0 1.2641,14.53595 -0.3363,15.86412 -1.0978,0.9111 -1.3033,-0.2716 -1.1516,-6.62756 z m 3.4879,-4.11853 c 0,-4.4 0.45,-8.27811 1,-8.61803 0.6348,-0.39235 1,2.30328 1,7.38197 0,4.4 -0.45,8.27811 -1,8.61803 -0.6348,0.39235 -1,-2.30328 -1,-7.38197 z m -627.49998,-0.46089 c -6.05,-2.34509 -11.84519,-4.58532 -12.87821,-4.97828 -1.66307,-0.63265 -1.31944,-1.31515 3,-5.95844 2.68302,-2.88417 6.54767,-7.13249 8.58812,-9.4407 l 3.70992,-4.19674 12.79008,4.92285 12.79009,4.92286 -16.25,0.0356 c -8.9375,0.0196 -16.25,0.38309 -16.25,0.80774 0,0.42464 3.93709,4.58714 8.74909,9.25 l 8.74909,8.47792 -7.47406,-7.75 c -6.67079,-6.91707 -7.20807,-7.75181 -4.99909,-7.76683 1.36123,-0.009 7.76247,-0.29819 14.22497,-0.64207 6.4625,-0.34388 11.75,-0.26259 11.75,0.18065 0,0.82257 -11.63107,14.37945 -13.48086,15.71294 -1.39239,1.00376 -0.7315,1.18536 -13.01914,-3.57755 z m 81.80246,0.69807 c -0.72111,-0.2932 2.26266,-4.72966 7.5,-11.15149 l 8.69754,-10.66458 0.30511,4.73832 c 0.29142,4.52554 0.0444,5.02985 -5.5,11.22988 -5.50065,6.15108 -7.5621,7.24674 -11.00265,5.84787 z m 537.44752,-5.72429 c -2.0625,-0.54101 -3.7379,-1.46679 -3.7231,-2.05729 0.045,-1.79338 12.5851,-15.01045 13.2386,-13.9531 0.3349,0.54194 -0.7782,2.46957 -2.4735,4.28361 -2.4636,2.63599 -2.8024,3.47566 -1.6873,4.18175 0.7674,0.48592 1.9953,0.89038 2.7286,0.8988 0.7334,0.008 1.1354,0.57781 0.8935,1.26531 -0.2521,0.71626 -1.8768,1.17674 -3.8051,1.07843 l -3.3652,-0.17156 2.2996,1.73455 c 3.3091,2.49608 0.9546,4.06696 -4.1061,2.7395 z m 32.25,-0.52509 -2.5,-0.69482 -0.2694,-22.30141 -0.2694,-22.30141 3.0194,-3.43889 3.0194,-3.43889 0,26.53479 c 0,14.59414 -0.1125,26.48994 -0.25,26.43512 -0.1375,-0.0548 -1.375,-0.41235 -2.75,-0.79449 z m -20,-9.77709 c 0,-2.63393 -0.6207,-5.35981 -1.4232,-6.25 -1.254,-1.39113 -0.8678,-2.178 3.25,-6.62163 2.5703,-2.7736 6.7997,-7.4986 9.3988,-10.5 l 4.7256,-5.45711 0.024,8.10872 0.024,8.10872 -7.5752,8.64128 c -4.1663,4.7527 -7.7663,8.64128 -8,8.64128 -0.2336,0 -0.4248,-2.10207 -0.4248,-4.67126 z m -633.24998,2.00898 c 0.6875,-0.27741 1.8125,-0.27741 2.5,0 0.6875,0.27741 0.125,0.50439 -1.25,0.50439 -1.375,0 -1.9375,-0.22698 -1.25,-0.50439 z m 683.16538,-30.58772 c -0.1065,-7.86802 -0.105,-25.59617 0,-32.5 0.045,-2.8875 0.5319,-5.25 1.0819,-5.25 0.6364,0 1,8 1,22 0,14 -0.3636,22 -1,22 -0.551,0 -1.038,-2.8064 -1.0846,-6.25 z m 10.0846,-27.75 c 0,-14 0.3636,-22 1,-22 0.55,0 1.0271,1.6875 1.0602,3.75 0.033,2.0625 0.2221,11.9625 0.4201,22 0.3012,15.26849 0.128,18.25 -1.0601,18.25 -1.1839,0 -1.4202,-3.66088 -1.4202,-22 z m 21,-23 c 0,-14 0.3636,-22 1,-22 0.6364,0 1,8 1,22 0,14 -0.3636,22 -1,22 -0.6364,0 -1,-8 -1,-22 z m -31.5,10 c -0.3399,-0.55 0.083,-1 0.941,-1 0.8574,0 1.559,0.45 1.559,1 0,0.55 -0.4234,1 -0.941,1 -0.5175,0 -1.2191,-0.45 -1.559,-1 z m -620.46454,-7.75 c 0.0607,-3.00061 1.96832,-5.46143 20.06598,-25.88573 9.68079,-10.92535 31.9108,-36.06427 49.40003,-55.86427 17.48923,-19.8 36.34359,-41.1427 41.89858,-47.42823 83.01783,-93.93557 78.27763,-88.77404 84.02313,-91.49207 9.7807,-4.62706 18.8476,-5.71661 26.0434,-3.12962 2.2184,0.79755 13.9334,4.59987 26.03342,8.4496 12.1,3.84973 41.125,13.13551 64.5,20.63508 23.375,7.49957 52.4,16.77089 64.5,20.60295 12.1,3.83206 33.925,10.7991 48.5,15.48233 14.575,4.68322 35.05,11.24161 45.5,14.57421 10.45,3.33259 27.1,8.67141 37,11.86404 9.9,3.19264 28.8,9.25152 42,13.46419 77.7946,24.82748 73.6109,23.33219 78.25,27.96765 3.4463,3.44362 4.25,4.93616 4.25,7.89248 l 0,3.64577 -3.75,-2.44454 c -3.2348,-2.10872 -18.4624,-7.2572 -68.25,-23.07551 -12.1154,-3.84924 -59.0453,-18.90279 -63.5,-20.36866 -1.65,-0.54295 -8.625,-2.78267 -15.5,-4.97714 -12.5334,-4.0006 -37.553,-12.00304 -87,-27.82664 -14.575,-4.66417 -31.9,-10.20463 -38.5,-12.31214 -12.9503,-4.13529 -45.4136,-14.52584 -84.5,-27.04596 -13.475,-4.3163 -31.70002,-10.18686 -40.50002,-13.04569 -13.741,-4.46403 -17.1294,-5.20244 -24,-5.23016 -11.816,-0.0477 -15.1033,1.86316 -27.7689,16.14148 -5.68698,6.41112 -27.64048,31.25581 -48.78552,55.21042 -43.6115,49.4062 -65.70645,74.40479 -97.96394,110.838 -12.36488,13.96551 -24.2816,27.55227 -26.4816,30.1928 -4.32753,5.19408 -5.51963,5.8846 -5.46456,3.16536 z m 631.46454,-4.25 c -0.3399,-0.55 -0.168,-1 0.382,-1 0.55,0 1.2781,0.45 1.618,1 0.3399,0.55 0.168,1 -0.382,1 -0.55,0 -1.2781,-0.45 -1.618,-1 z m 21.3125,-23.68311 c 0.7219,-0.28887 1.5844,-0.25335 1.9167,0.0789 0.3323,0.33229 -0.2584,0.56864 -1.3125,0.52522 -1.165,-0.048 -1.4019,-0.28494 -0.6042,-0.60416 z m -106.3125,-92.90498 c -78.04,-25.05652 -109.7113,-35.20189 -173,-55.41761 -22,-7.02726 -52.15,-16.68386 -67,-21.45911 -14.85,-4.77524 -31.05,-9.94721 -36,-11.49326 -28.37302,-8.86184 -51.50002,-16.55017 -51.50002,-17.12067 0,-0.3599 3.5983,-4.71302 7.9961,-9.6736 l 7.996,-9.01925 8.75402,2.77041 c 19.0744,6.03658 57.5525,18.36167 71.7539,22.98378 8.25,2.68512 25.575,8.25431 38.5,12.37597 12.925,4.12165 34.75,11.09935 48.5,15.50598 13.75,4.40664 41.425,13.2604 61.5,19.67503 62.5075,19.97321 87.1849,27.8765 128,40.99377 21.725,6.98204 40.9625,13.11448 42.75,13.62764 1.7875,0.51316 3.25,1.1407 3.25,1.39453 0,1.17789 -16.264,18.43563 -17.3118,18.36959 -0.6535,-0.0412 -34.0382,-10.62213 -74.1882,-23.5132 z"
     id="path14040"
     inkscape:connector-curvature="0" />
</svg>
