<?xml version="1.0" encoding="UTF-8" standalone="no"?>
<!-- Created with Inkscape (http://www.inkscape.org/) -->

<svg
   xmlns:dc="http://purl.org/dc/elements/1.1/"
   xmlns:cc="http://creativecommons.org/ns#"
   xmlns:rdf="http://www.w3.org/1999/02/22-rdf-syntax-ns#"
   xmlns:svg="http://www.w3.org/2000/svg"
   xmlns="http://www.w3.org/2000/svg"
   xmlns:sodipodi="http://sodipodi.sourceforge.net/DTD/sodipodi-0.dtd"
   xmlns:inkscape="http://www.inkscape.org/namespaces/inkscape"
   id="svg12393"
   version="1.1"
   inkscape:version="0.91 r13725"
   width="1920"
   height="1080"
   viewBox="0 0 1920 1080"
   sodipodi:docname="gameboyadvance_wir.svg">
  <metadata
     id="metadata12399">
    <rdf:RDF>
      <cc:Work
         rdf:about="">
        <dc:format>image/svg+xml</dc:format>
        <dc:type
           rdf:resource="http://purl.org/dc/dcmitype/StillImage" />
        <dc:title></dc:title>
      </cc:Work>
    </rdf:RDF>
  </metadata>
  <defs
     id="defs12397" />
  <sodipodi:namedview
     pagecolor="#ffffff"
     bordercolor="#666666"
     borderopacity="1"
     objecttolerance="10"
     gridtolerance="10"
     guidetolerance="10"
     inkscape:pageopacity="0"
     inkscape:pageshadow="2"
     inkscape:window-width="663"
     inkscape:window-height="480"
     id="namedview12395"
     showgrid="false"
     inkscape:zoom="0.19739583"
     inkscape:cx="960"
     inkscape:cy="540"
     inkscape:window-x="0"
     inkscape:window-y="0"
     inkscape:window-maximized="0"
     inkscape:current-layer="svg12393" />
  <path
     style="fill:#000000;fill-opacity:0"
     d="m 1174.7407,882.25986 c -43.4125,-1.4229 -79.4234,-3.9389 -85.6748,-5.98589 -3.025,-0.99052 -25.075,-8.18704 -49,-15.99227 -23.9249,-7.80524 -57.22494,-18.69122 -73.99994,-24.19108 -16.775,-5.49985 -43.325,-14.20493 -59,-19.34462 -15.675,-5.1397 -39.075,-12.79565 -52,-17.01324 -12.925,-4.21758 -28,-9.15117 -33.5,-10.96352 -5.5,-1.81235 -29.575,-9.6809 -53.5,-17.48565 -23.925,-7.80476 -59.025,-19.29634 -78,-25.53686 -18.975,-6.24051 -51.91902,-17.05147 -73.20892,-24.02435 -21.28991,-6.97289 -39.51491,-13.28138 -40.5,-14.01888 -2.03683,-1.52488 3.73719,0.15915 25.70892,7.49819 15.44399,5.15863 39.39479,13.01593 111.5,36.57867 67.46378,22.04599 121.90344,39.92046 141.5,46.45946 9.625,3.21168 29.2,9.66366 43.5,14.33775 14.3,4.67408 50.975,16.6769 81.5,26.67292 106.04434,34.72636 98.77434,32.6183 115.49994,33.49133 6.05,0.3158 14.15,0.79475 18,1.06435 7.1382,0.49985 60.8801,2.91907 88,3.96137 23.4384,0.90081 83.2177,2.45799 102,2.65698 l 17,0.18011 -11,0.70582 c -18.8748,1.21112 -107.7471,1.83693 -134.8252,0.94941 z m 162.3252,-3.69866 c -30.5311,-0.20972 -111.6927,-1.93931 -134.5,-2.86623 -50.8939,-2.06843 -118.1457,-5.6041 -122.6211,-6.44664 -2.9584,-0.55695 -15.5039,-4.33912 -27.8789,-8.40482 -12.375,-4.0657 -57.82494,-18.94155 -100.99994,-33.05743 -43.175,-14.11588 -82.325,-26.93657 -87,-28.49042 -4.675,-1.55384 -30.775,-10.11173 -58,-19.01753 C 684.06013,740.36778 640.28242,726.037 593.51635,710.69931 l -50.04961,-16.41458 -8.95039,-6.79273 c -4.92271,-3.736 -12.37272,-9.4782 -16.55557,-12.76044 -4.18285,-3.28224 -11.38083,-8.89271 -15.99551,-12.46771 -11.36169,-8.80193 -43.2194,-34.34183 -49.39931,-39.60277 -2.75,-2.34106 -13.1,-11.12078 -23,-19.51049 -17.65049,-14.95781 -24.38771,-20.85293 -45.5,-39.8128 -22.41673,-20.13133 -35.93255,-33.33425 -37.75171,-36.87774 -3.28715,-6.40293 -4.5654,-12.78428 -3.89953,-19.46747 0.34132,-3.4258 0.67163,-17.25373 0.734,-30.72873 0.13099,-28.29722 0.89276,-35.26588 4.67626,-42.77805 3.2411,-6.43522 2.3896,-5.62528 83.24098,-79.17864 12.925,-11.75833 25.99764,-23.6658 29.0503,-26.46104 59.89905,-54.84799 100.9784,-91.63221 104.73399,-93.7833 11.36247,-6.50811 22.92295,-7.22881 45.49251,-2.83605 74.13295,14.42864 141.12718,19.68566 230.7232,18.10479 l 24.5,-0.43229 26.5,8.75378 c 42.67966,14.09843 86.16669,28.36932 137.50004,45.12259 26.3999,8.61598 63.5249,20.76501 82.4999,26.99786 18.975,6.23284 47.775,15.6703 64,20.97212 16.225,5.30182 42.325,13.84796 58,18.99142 44.2097,14.50659 86.4555,28.33811 122,39.9435 17.875,5.83624 34.6682,11.61754 37.3182,12.84733 3.3324,1.54645 9.6542,7.02442 20.5,17.7637 23.8268,23.5927 38.7402,36.39295 42.6013,36.56497 2.0481,0.0912 45.0657,13.81623 65.5805,20.92381 29.9373,10.37212 51.0962,26.20289 60.1679,45.01673 3.3678,6.98467 6.7271,19.90507 5.4955,21.13668 -0.2312,0.23124 -1.593,-1.58039 -3.0261,-4.02584 -4.4665,-7.62158 -10.6145,-11.91034 -34.9392,-24.37337 -34.0281,-17.43468 -58.0618,-32.27956 -89.1785,-55.08284 -7.6516,-5.60738 -4.9958,-2.64675 3.6037,4.0172 17.4349,13.5108 30.0844,21.85665 60.0532,39.62165 7.7968,4.62185 19.0156,10.39055 41.9994,21.59608 12.1877,5.94199 20.2002,15.76746 21.3825,26.22092 1.1442,10.11576 1.5526,11.79288 2.5055,10.2871 1.5777,-2.49305 1.096,30.7776 -0.5439,37.56919 -0.7968,3.3 -1.4648,8.74649 -1.4844,12.10331 -0.02,3.35682 -0.3355,8.97286 -0.7021,12.48009 -0.7981,7.6359 3.4454,1.11431 -57.0311,87.64725 -2.6021,3.72314 -11.8057,16.89435 -20.4526,29.26935 -8.6469,12.375 -16.6824,23.85 -17.8567,25.5 -1.1743,1.65 -6.5097,9.3 -11.8565,17 -35.6486,51.33804 -44.5643,63.72823 -46.9482,65.24423 -1.4786,0.94026 -2.9134,1.99468 -3.1884,2.34314 -0.8341,1.05686 -6.2602,3.61638 -10.5,4.95291 -4.8948,1.543 -41.3322,2.53987 -82.5,2.25707 z m 12.3651,-153.36993 c 3.1359,-2.4667 3.399,-5.43328 0.6349,-7.15949 -3.1764,-1.98368 -2.3646,-2.76793 2.8651,-2.76793 3.4078,0 5.6545,-0.62086 7.5,-2.07258 3.4117,-2.68365 3.3222,-4.17133 -0.4418,-7.33853 l -3.0768,-2.58889 4.4276,0 c 8.7422,0 14.0697,-3.62049 11.7382,-7.97708 -2.2664,-4.2348 -5.5982,-4.68197 -41.5123,-5.5715 -13.2,-0.32694 -43.4009,-1.18662 -67.1132,-1.91041 -23.7123,-0.72378 -44.2642,-1.09594 -45.671,-0.82701 -3.2845,0.62788 -7.1512,4.70895 -6.3759,6.7294 0.3261,0.84983 2.0705,2.44605 3.8765,3.54714 l 3.2836,2.00198 -6.6151,0.004 c -5.1744,0.003 -7.1891,0.45515 -9.25,2.07632 -3.1541,2.48095 -3.3159,4.24646 -0.6349,6.92742 2.7503,2.75029 2.5797,3 -2.0497,3 -8.7279,0 -12.9421,5.50147 -7.4958,9.78552 2.7074,2.12966 8.9604,2.55966 55.5455,3.81964 12.925,0.34958 32.95,0.95946 44.5,1.35527 11.55,0.39582 28.2518,0.79165 37.1151,0.87962 14.9234,0.14812 16.31,0.007 18.75,-1.91263 z m -43.3651,-9.7e-4 c -13.475,-0.41545 -39.5425,-1.24386 -57.9278,-1.84091 -18.3854,-0.59705 -36.9479,-1.08554 -41.25,-1.08554 l -7.8222,0 0,-3.6409 0,-3.64089 28.25,0.67094 c 15.5375,0.36902 32.075,0.86836 36.75,1.10965 4.675,0.24128 18.175,0.68018 30,0.97532 11.825,0.29515 27.6875,0.8169 35.25,1.15944 l 13.75,0.62281 0,3.37181 0,3.37182 -6.25,-0.15909 c -3.4375,-0.0875 -17.275,-0.499 -30.75,-0.91446 z m 11.5,-11.96002 c -13.2,-0.41788 -31.65,-1.02489 -41,-1.3489 -9.35,-0.32401 -28.1375,-0.89156 -41.75,-1.26121 l -24.75,-0.6721 0,-3.4971 0,-3.4971 24.75,0.66726 c 24.9239,0.67195 32.743,0.91594 85.75,2.67578 15.95,0.52955 30.041,0.96374 31.3134,0.96488 2.0072,0.002 2.2718,0.43214 2,3.25206 l -0.3134,3.25 -6,0.11311 c -3.3,0.0622 -16.8,-0.2288 -30,-0.64668 z m 14.4167,-12.33326 c -0.2292,-0.20176 -12.1167,-0.65383 -26.4167,-1.0046 -45.1378,-1.10719 -63.6932,-1.67054 -74.25,-2.25427 l -10.25,-0.56676 0,-3.51531 0,-3.51531 12.75,0.60486 c 7.0125,0.33267 20.4,0.84031 29.75,1.12808 40.4689,1.24555 83.6951,2.46557 92.25,2.60369 l 9.25,0.14933 0,3.36856 0,3.36856 -16.3333,0 c -8.9834,0 -16.5209,-0.16508 -16.75,-0.36683 z m -188.4167,14.4509 c 4.4,-1.15741 11.7527,-3.89838 16.3394,-6.09105 10.8442,-5.18407 15.7828,-10.23757 38.5952,-39.49302 21.1481,-27.12101 54.3052,-69.53438 74.6582,-95.5 7.9756,-10.175 27.6955,-35.33789 43.822,-55.91754 16.1265,-20.57965 29.6983,-38.73357 30.1596,-40.34205 1.0496,-3.65963 0.1737,-8.29828 -1.8821,-9.96798 -1.3499,-1.09628 -1.4598,-0.99555 -0.7945,0.72757 1.8573,4.80958 1.8265,8.45447 -0.099,11.70737 -1.0718,1.81095 -8.6506,11.84263 -16.8417,22.29263 -8.1911,10.45 -44.9889,57.475 -81.7728,104.5 -36.784,47.025 -69.1735,87.85273 -71.9767,90.72828 -11.575,11.87382 -31.1759,18.26748 -56.011,18.27035 -13.7014,0.002 -27.6063,-2.21726 -81.1969,-12.95687 -48.89376,-9.79837 -70.82528,-14.98437 -126.99994,-30.03086 -16.98214,-4.54878 -52.56528,-15.40848 -74.4997,-22.73682 -33.8532,-11.31044 -81.33981,-28.86299 -95.69514,-35.37193 -2.30732,-1.04618 -4.39825,-1.90215 -4.6465,-1.90215 -0.24825,0 -8.26044,-3.34327 -17.80486,-7.4295 -32.25003,-13.8071 -47.36209,-20.8727 -78.8535,-36.86772 -27.20768,-13.81924 -34.20369,-17.9776 -39.76595,-23.6365 -7.90789,-8.04527 -10.48445,-20.50944 -6.19432,-29.96518 2.576,-5.67766 1.756,-6.58119 -1.02518,-1.12961 -5.11076,10.01791 -3.17856,21.40541 5.18469,30.55613 6.61881,7.24203 11.61449,10.3691 38.83177,24.30688 32.06807,16.42185 55.8917,27.34646 103.96899,47.67623 17.8405,7.54396 56.43628,21.89767 85,31.61135 87.49356,29.754 184.70354,53.70158 280.99994,69.22409 1.375,0.22165 8.8,0.27683 16.5,0.12264 10.3051,-0.20636 16.1114,-0.83575 22,-2.38474 z m 240.0724,-28.39266 c 2.0339,-1.7495 2.5146,-2.84198 1.9849,-4.51097 -1.5882,-5.00397 -6.271,-5.53122 -59.5573,-6.70576 -13.475,-0.29701 -26.75,-0.73899 -29.5,-0.98217 -2.75,-0.24318 -18.7522,-0.73995 -35.5605,-1.10394 -32.0481,-0.69402 -33.7261,-0.5244 -35.9518,3.63435 -1.4884,2.78108 0.2499,5.57987 4.2546,6.85051 1.7917,0.56848 19.0077,1.53753 38.2577,2.15345 19.25,0.61591 45.575,1.46711 58.5,1.89155 12.925,0.42444 30.5624,0.84143 39.1942,0.92664 15.0639,0.14871 15.8021,0.0622 18.3782,-2.15366 z m -56.0724,-0.20855 c -20.9,-0.68791 -50.375,-1.58515 -65.5,-1.99388 -15.125,-0.40873 -27.8375,-0.93752 -28.25,-1.17508 -0.4125,-0.23756 -0.75,-1.75538 -0.75,-3.37292 l 0,-2.94098 11.25,0.013 c 6.1875,0.007 23.625,0.43262 38.75,0.94552 15.125,0.5129 37.625,1.18855 50,1.50144 12.375,0.3129 27.3622,0.83821 33.3049,1.16737 l 10.805,0.59848 -0.305,3.13711 c -0.2996,3.08251 -0.4006,3.13915 -5.8049,3.25392 -3.025,0.0642 -22.6,-0.44604 -43.5,-1.13394 z M 1016.066,673.16046 c 0,-0.47218 -1.125,-1.14086 -2.5,-1.48597 -2.6771,-0.67192 -3.4454,-2.41064 -1.0651,-2.41064 0.7892,0 2.6439,0.45967 4.1216,1.0215 1.9087,0.72565 3.086,0.69019 4.0651,-0.12245 2.0374,-1.69089 1.6861,-2.78373 -1.1216,-3.48841 -1.375,-0.3451 -2.5,-1.059 -2.5,-1.58644 0,-0.55231 0.9541,-0.6377 2.25,-0.20135 3.8454,1.29483 7.1732,0.98594 7.5121,-0.69729 0.3905,-1.93987 -10.0568,-5.2309 -11.6255,-3.66217 -0.6228,0.62278 -2.4303,-0.20875 -5.0769,-2.33565 -3.6791,-2.95662 -4.7734,-3.30274 -10.44243,-3.30274 -5.05404,0 -6.31086,-0.30773 -6.22495,-1.52419 0.19238,-2.72416 -3.3244,-2.32402 -7.65657,0.87117 l -4.23579,3.12411 -0.5,-4.78936 c -0.3667,-3.51254 -0.96464,-4.87751 -2.24287,-5.12 -1.7398,-0.33005 -14.21387,8.68986 -13.29223,9.61151 0.2675,0.26749 2.9316,-1.60268 5.92022,-4.15594 7.32785,-6.26038 8.61488,-6.13224 8.61488,0.8577 0,3.025 0.26177,5.5 0.5817,5.5 0.31994,0 2.50379,-1.575 4.853,-3.5 4.05139,-3.31981 6.61963,-4.40301 6.52018,-2.75 -0.0944,1.56878 -12.14783,10.11319 -13.52239,9.58572 -0.97325,-0.37347 -1.43249,-2.11835 -1.43249,-5.44271 0,-2.69115 -0.26177,-4.89301 -0.5817,-4.89301 -0.31994,0 -2.49442,1.56733 -4.83219,3.48295 -3.54794,2.90727 -4.51626,3.27916 -5.85849,2.25 -1.46099,-1.12021 -1.38656,-1.77014 0.81393,-7.10797 2.65635,-6.44361 2.50212,-7.62498 -0.99548,-7.62498 -2.9393,0 -21.86061,7.44362 -22.30422,8.77446 -0.47643,1.42928 4.20099,2.3672 6.87403,1.37838 3.05539,-1.13027 9.14178,0.73333 8.43241,2.58192 -0.33727,0.8789 0.72086,1.89758 2.92976,2.82052 4.89036,2.04332 6.23431,1.8406 10.57165,-1.59464 l 3.8375,-3.03936 0.3064,4.78036 c 0.36458,5.68807 2.43074,6.69154 6.92952,3.36546 l 2.87688,-2.12697 0,2.45735 c 0,3.20527 3.76251,6.10617 9.7976,7.55396 2.62592,0.62995 7.68324,2.20331 11.23844,3.49635 6.1832,2.24886 8.964,2.07787 8.964,-0.55118 z m -7.3853,-0.77206 -4.8853,-1.72045 6.3188,-5.05144 6.3188,-5.05144 4.907,1.56922 c 2.6989,0.86306 4.4068,1.73597 3.7953,1.9398 -0.6115,0.20383 -2.5437,-0.12858 -4.2939,-0.73869 -2.7117,-0.94529 -3.4614,-0.83003 -5.071,0.7796 -1.8518,1.85185 -1.8251,1.91113 1.3655,3.02338 4.4082,1.53671 3.2591,2.34615 -1.3309,0.93745 -2.84,-0.87164 -4.004,-0.83696 -5.1991,0.15492 -2.1965,1.82294 -1.9105,2.90197 0.9601,3.62246 1.375,0.3451 2.5,1.02867 2.5,1.51905 0,0.49037 -0.1125,0.85671 -0.25,0.81409 -0.1375,-0.0426 -2.4484,-0.85171 -5.1353,-1.79795 z m -15.01172,-4.60113 c -5.74122,-2.04605 -7.2315,-3.84863 -5.79266,-7.00656 1.48951,-3.26911 5.34414,-4.81129 11.8361,-4.73544 4.95328,0.0579 13.14388,3.10511 10.62938,3.95452 -0.6734,0.22746 -2.236,-0.29508 -3.4725,-1.16119 -2.6235,-1.83754 -9.62138,-2.07041 -13.20128,-0.4393 -5.46342,2.4893 -3.90334,7.04358 3.15274,9.20367 2.60986,0.79895 3.84524,1.47975 2.7452,1.51287 -1.1,0.0331 -3.75364,-0.56473 -5.89698,-1.32857 z m 8.39702,-0.0234 c -0.6847,-0.825 -2.34441,-1.5 -3.68823,-1.5 -5.21831,0 -8.79439,-4.83337 -4.73002,-6.39301 3.25934,-1.25073 11.15215,-0.63254 12.48895,0.97817 0.853,1.02778 2.3629,1.43142 4.2943,1.14796 2.9574,-0.43406 2.947,-0.40972 -1.4431,3.385 -5.0398,4.35625 -5.2292,4.42144 -6.9219,2.38188 z M 960.10118,654.8565 c -1.08367,-2.85027 -5.46046,-4.10385 -10.86339,-3.11144 -5.41279,0.99422 -2.89938,-0.6656 6.52757,-4.31072 8.12295,-3.14091 11.3006,-3.83262 11.3006,-2.45992 0,1.65992 -4.55789,12.28945 -5.26966,12.28945 -0.42891,0 -1.19172,-1.08332 -1.69512,-2.40737 z m 2.96478,-7.23174 c 0,-0.96241 -0.70325,-1.0117 -3.00184,-0.2104 -4.00833,1.39731 -4.62254,2.67363 -1.8124,3.76615 2.40517,0.93508 4.81424,-0.84423 4.81424,-3.55575 z m 429.04854,27.62603 c 6.7881,-1.82785 7.7056,-7.49103 1.6646,-10.27444 -2.4424,-1.12538 -9.4498,-1.63369 -29.2132,-2.11912 -14.3,-0.35123 -31.175,-0.86282 -37.5,-1.13686 -34.7948,-1.50754 -82.9841,-2.41249 -85.1136,-1.59836 -3.8409,1.4684 -5.8003,4.28624 -4.8025,6.9064 1.7797,4.67323 0.9253,4.60969 96.9161,7.20821 42.0661,1.13875 45.8343,1.27079 51.3156,1.79813 1.5486,0.14899 4.5784,-0.2038 6.733,-0.78396 z m -33.5486,-1.73407 c -8.7638,-0.361 -107.4998,-3.26381 -110.8134,-3.25788 -2.5724,0.005 -2.7865,-0.27323 -2.5,-3.24497 l 0.3134,-3.25 11.5,0.0293 c 6.325,0.0161 22.75,0.35466 36.5,0.75227 13.75,0.3976 34,0.98342 45,1.3018 11,0.31839 22.475,0.72769 25.5,0.90955 3.025,0.18186 9.8875,0.37034 15.25,0.41885 l 9.75,0.0882 0,3.56267 0,3.56267 -12.25,-0.31267 c -6.7375,-0.17197 -14.95,-0.42389 -18.25,-0.55982 z m -165.933,-73.48567 c 31.8632,-35.87805 66.9229,-75.36555 77.9107,-87.75 10.9877,-12.38445 21.2231,-23.86718 22.7453,-25.51718 1.5223,-1.65 2.7698,-3.46804 2.7724,-4.0401 0,-0.57205 -21.0329,-7.91608 -46.7454,-16.32007 -25.7125,-8.40398 -58.3836,-19.10236 -72.6024,-23.77416 -14.2188,-4.67181 -26.065,-8.28157 -26.3249,-8.0217 -0.2599,0.25988 6.6487,2.79365 15.3524,5.63061 26.8318,8.74578 104.1594,34.04273 116.8115,38.21375 6.5927,2.17339 12.1733,4.13819 12.4013,4.36623 0.5781,0.57815 -9.1054,10.87433 -10.5904,11.2605 -0.6664,0.17328 -14.3143,-4.03084 -30.3287,-9.34249 -16.0145,-5.31166 -29.3448,-9.42994 -29.623,-9.15175 -0.2781,0.27819 13.013,4.93231 29.536,10.34249 l 30.0418,9.83669 -38.5496,43.5 c -21.2023,23.925 -39.9764,45.075 -41.7201,47 -1.7437,1.925 -13.9421,15.65 -27.1076,30.5 -20.7606,23.41698 -37.1368,41.88168 -41.0661,46.30322 -1.1824,1.33058 -2.1542,1.03126 -83.9802,-25.86699 -42.1766,-13.86451 -54.76271,-17.98599 -94.49994,-30.94519 -22.275,-7.26439 -45.675,-14.91742 -52,-17.00676 -13.91904,-4.59786 -54.32631,-17.84115 -126.5,-41.45974 -29.7,-9.71923 -64.12795,-21.01329 -76.50656,-25.09793 -12.37861,-4.08464 -23.06611,-7.42661 -23.75,-7.42661 -2.65275,0 -2.77739,0.16052 18.24617,-23.5 3.42091,-3.85 33.55101,-37.825 66.95576,-75.5 33.40476,-37.675 61.29565,-68.90072 61.97976,-69.39048 0.80508,-0.57637 16.55866,4.12506 44.65936,13.32793 23.87853,7.82013 66.14051,21.64451 93.91551,30.72084 27.775,9.07633 63.32504,20.7172 78.99994,25.8686 15.675,5.15141 40.425,13.25969 55,18.01842 14.575,4.75873 42.7,13.97954 62.5,20.49069 53.7815,17.68581 61.6153,20.18201 62.0315,19.76588 0.44,-0.44006 -54.3536,-18.58411 -167.0315,-55.30985 -44.5746,-14.52849 -86.07738,-28.11091 -137.49994,-44.99904 -17.325,-5.68985 -42.075,-13.80054 -55,-18.02377 -12.925,-4.22322 -26.3125,-8.61697 -29.75,-9.76389 l -6.25,-2.08531 0,-7.7402 0,-7.74021 2.75,0.80192 c 1.5125,0.44105 6.125,1.94364 10.25,3.33909 8.85877,2.99683 40.60924,13.40373 110.5,36.21873 28.05,9.15659 67.20004,21.97879 86.99994,28.49378 81.4677,26.8061 110.658,36.18219 111.1411,35.69911 0.2803,-0.2803 -0.5368,-0.81623 -1.8157,-1.19096 -2.5044,-0.73376 -105.7897,-34.46325 -122.3253,-39.94732 -5.5,-1.82407 -19,-6.253 -30.00004,-9.84206 -20.75704,-6.77256 -43.12405,-14.09472 -121.04395,-39.62544 -25.32417,-8.29755 -46.33708,-15.08646 -46.69535,-15.08646 -0.64017,0 -48.90976,53.81629 -84.65293,94.38047 -2.96573,3.36574 -8.19961,9.26953 -11.63086,13.11953 -45.76322,51.34824 -66.34678,75.01901 -65.72773,75.58585 0.41295,0.37812 7.72582,2.94975 16.25082,5.71473 13.39004,4.3429 87.04566,28.45531 132,43.21244 7.975,2.61794 25.075,8.21781 38,12.44415 26.33348,8.61078 65.50987,21.44562 111,36.36546 16.775,5.50186 51.20004,16.7733 76.49994,25.04764 25.3,8.27435 56.8,18.62286 70,22.9967 13.2,4.37384 24.4802,7.99307 25.067,8.04273 0.5869,0.0497 27.1369,-29.26447 59,-65.14252 z M 670.81596,512.62186 c -2.6125,-0.78019 -4.75,-1.76831 -4.75,-2.19583 0,-0.42751 4.79714,-6.15139 10.66031,-12.71974 5.86317,-6.56834 13.62567,-15.27435 17.25,-19.34668 3.62433,-4.07234 7.03969,-7.89958 7.58969,-8.50499 0.55,-0.60541 4.18405,-4.6985 8.07566,-9.09575 47.7447,-53.94827 112.17532,-126.53073 114.05251,-128.48258 l 2.3924,-2.48756 -0.14119,6.48756 c -0.0777,3.56816 -0.41979,7.23743 -0.76029,8.15395 -0.61622,1.65866 -7.44865,9.80734 -16.21067,19.33361 -2.52937,2.75 -8.32126,9.275 -12.87085,14.5 -4.5496,5.225 -10.13175,11.52849 -12.40478,14.00775 -2.27304,2.47926 -7.2788,8.10426 -11.12393,12.5 -3.84513,4.39574 -7.23208,8.21725 -7.52656,8.49225 -0.29447,0.275 -7.3065,8.15 -15.58227,17.5 -23.43946,26.482 -72.61482,81.92867 -73.29143,82.63827 -0.33473,0.35104 -2.7461,-7e-5 -5.3586,-0.78026 z m 275.5,133.46854 c 5.9125,-2.32346 10.75,-4.59944 10.75,-5.05773 0,-0.4583 -1.00492,-1.20501 -2.23315,-1.65936 -1.6027,-0.59288 -4.07193,-0.0417 -8.74642,1.95247 -3.5823,1.52821 -6.63329,2.65854 -6.77998,2.51186 -0.14669,-0.14669 0.44499,-1.97002 1.31483,-4.05185 1.68587,-4.03486 0.95727,-5.97714 -2.01283,-5.36572 -2.28525,0.47043 -7.68632,13.29991 -6.21749,14.76874 1.61897,1.61897 2.31455,1.4642 13.92504,-3.09841 z m -12.6726,-0.0765 c 1.6505,-5.21445 4.42448,-10.75 5.38706,-10.75 1.5022,0 1.27045,2.64506 -0.5382,6.14259 -0.86555,1.6738 -1.33705,3.27995 -1.04778,3.56922 0.28927,0.28928 3.93324,-0.71675 8.09771,-2.23562 10.74699,-3.91965 10.40511,-2.43906 -0.43901,1.90122 -10.7887,4.3181 -12.45528,4.51771 -11.45978,1.37259 z m -3.65473,-3.578 c 4.05385,-2.96571 4.77713,-4.83321 3.05824,-7.89633 -1.76103,-3.1382 -7.85936,-5.79945 -11.1877,-4.88219 -1.26127,0.34759 -4.54321,2.70316 -7.29321,5.23459 -4.89222,4.5034 -3.32594,3.70009 3.83386,-1.9663 2.85176,-2.25693 4.19926,-2.70359 6.57924,-2.18086 3.59061,0.78863 8.0869,4.13522 8.0869,6.01909 0,2.0428 -4.74883,5.36225 -8.74331,6.11162 -3.57549,0.67077 -13.61741,-1.76822 -14.73669,-3.57926 -0.30148,-0.4878 0.35819,-3.1863 1.46593,-5.99666 2.38376,-6.04766 2.49839,-7.63587 0.6036,-8.36297 -1.7396,-0.66755 -22.79076,7.43096 -23.3019,8.96438 -0.5144,1.5432 3.4549,2.41128 6.21949,1.36018 3.16101,-1.20181 9.58557,0.82813 9.24784,2.92201 -0.18601,1.1532 1.90862,2.32865 7.74504,4.34629 8.81687,3.04798 14.16557,3.02081 18.42267,-0.0936 z m -24.86458,-5.5192 c -1.10754,-2.91305 -5.43306,-4.17325 -10.88626,-3.17161 -5.55001,1.01943 -2.87925,-0.83102 6.32817,-4.3845 9.32125,-3.5974 12.05417,-3.93195 11.00121,-1.34669 -0.39202,0.9625 -1.38228,3.66198 -2.20059,5.99883 -1.84803,5.27746 -3.032,6.08788 -4.24253,2.90397 z m 2.22758,-5.63722 c 0.30487,-1.16581 0.0396,-2.00982 -0.62929,-2.00193 -2.40635,0.0284 -5.65638,1.25526 -5.65638,2.13521 0,1.01491 4.13595,2.82863 5.12929,2.24931 0.34611,-0.20185 0.86649,-1.27402 1.15638,-2.38259 z m 17.58622,9.87924 c 1.74368,-0.60785 3.67073,-2.0402 4.28234,-3.183 0.92507,-1.7285 0.73478,-2.38328 -1.13189,-3.89482 -3.10629,-2.51531 -4.53845,-2.30011 -9.1027,1.36782 -4.47837,3.59892 -4.55965,5.03263 -0.33714,5.94687 1.60462,0.34742 2.96285,0.68492 3.01828,0.75 0.0554,0.0651 1.52742,-0.37902 3.27111,-0.98687 z m -7.87186,-1.64482 c 2e-5,-0.4125 1.47076,-1.9235 3.26832,-3.35777 2.49495,-1.99072 3.79637,-2.41243 5.49998,-1.78223 2.45927,0.90975 2.88348,2.83819 1.03167,4.69 -1.29579,1.29579 -9.80002,1.68629 -9.79997,0.45 z m -37.68331,-11.66337 c 1.7508,-1.32736 7.18841,-3.56999 12.08357,-4.98363 9.91877,-2.86437 10.68027,-3.28211 8.57075,-4.70163 -1.43962,-0.96873 -7.6959,-0.64668 -13.27179,0.68319 -2.64994,0.63203 -2.7638,0.5208 -2.11465,-2.06562 0.4656,-1.85509 0.24088,-3.01557 -0.69925,-3.61096 -3.15621,-1.99886 -4.53054,-0.95788 -5.73246,4.34202 -0.86414,3.8104 -2.04989,5.96259 -4.32427,7.84872 -5.58397,4.63075 -0.42383,6.96998 5.4881,2.48791 z m -5.12415,0.53238 c -0.83288,-0.51475 -0.2833,-1.61597 1.80496,-3.61664 1.65136,-1.58211 3.00861,-3.80486 3.01612,-4.93946 0.0266,-4.02257 1.21748,-6.66505 2.86101,-6.34853 1.22957,0.23679 1.53615,1.23873 1.28193,4.18947 -0.28633,3.32341 -0.0884,3.78396 1.38339,3.21918 3.81115,-1.46247 10.41766,-2.80194 11.64955,-2.36195 0.72076,0.25744 -2.06453,1.49628 -6.18953,2.75299 -4.125,1.2567 -9.09973,3.53595 -11.05496,5.06498 -2.03904,1.59458 -4.06561,2.46447 -4.75247,2.03996 z m 595.15117,-5.07906 c 12.1844,-3.11624 19.874,-8.52748 23.1032,-16.25783 2.0859,-4.99352 1.9708,-6.61791 -0.8657,-12.22076 -1.3303,-2.62768 -2.7166,-5.96439 -3.0807,-7.41492 -1.2031,-4.79372 -7.2307,-10.91746 -13.7918,-14.01181 -15.8679,-7.48362 -36.6744,-5.67359 -48.3543,4.2065 -4.2231,3.57232 -11.6028,18.75194 -11.5342,23.72503 0.2293,16.60873 29.4521,28.38598 54.5235,21.97379 z m -26.5307,-0.55919 c -7.6795,-1.52893 -14.778,-4.45385 -19.4413,-8.01071 -2.8895,-2.20393 -3.2033,-2.92768 -2.9142,-6.72 0.1782,-2.33753 0.3732,-5.26255 0.4332,-6.50005 0.06,-1.2375 0.6717,-2.1375 1.3592,-2 0.8845,0.1769 1.3974,-2.08907 1.754,-7.75 0.2772,-4.4 1.023,-8.90503 1.6574,-10.01119 1.2674,-2.21 5.3386,-6.16414 5.3386,-5.18506 0,0.33754 2.1888,-0.48566 4.864,-1.82934 9.5101,-4.77666 23.3732,-5.13452 34.136,-0.88118 11.0563,4.36934 14.4131,7.87077 14.5849,15.21343 0.2894,12.36482 0.316,12.52048 1.9151,11.19334 1.3098,-1.08701 1.5,-0.32972 1.5,5.97117 0,6.37507 -0.2331,7.27702 -2,7.73908 -1.1,0.28766 -2,0.91295 -2,1.38954 0,1.74989 -10.6124,6.17428 -17.9497,7.48335 -9.2492,1.6502 -14.5517,1.62683 -23.2372,-0.10238 z m 21.673,-12.59854 c 2.1924,-0.60864 5.2586,-2.35067 6.8138,-3.87117 l 2.8276,-2.76454 -3.3137,-0.59818 c -1.8226,-0.32899 -5.1138,-0.17019 -7.3138,0.35289 -5.1514,1.22483 -13.1218,1.25443 -17.272,0.0642 -4.7557,-1.3639 -10.1204,-0.28726 -9.9484,1.99651 0.3526,4.6809 17.9044,7.6804 28.2065,4.82033 z m -2.9952,-12.13222 c 3.2981,-18.43414 3.3232,-18.77912 1.4373,-19.78843 -0.9882,-0.52886 -2.497,-0.96157 -3.353,-0.96157 -1.8989,0 -28.5752,13.19569 -28.5752,14.13501 0,0.36814 1.2623,1.10938 2.8051,1.64721 2.0588,0.71769 3.5236,0.60146 5.5052,-0.43684 2.3883,-1.25132 3.4214,-1.19127 8.9449,0.51989 4.9504,1.53361 6.1745,2.30733 5.9055,3.73277 -0.3816,2.02206 2.3136,4.40196 4.9851,4.40196 1.2037,0 1.9482,-1.03172 2.3451,-3.25 z m -4.2409,1.58772 c -0.6875,-0.27741 -1.25,-1.5552 -1.25,-2.83952 0,-1.98744 -0.9758,-2.65985 -6.5533,-4.51593 -5.4966,-1.82917 -7.0156,-1.98927 -9.4209,-0.99297 -1.5772,0.6533 -3.6907,1.00824 -4.6967,0.78876 -2.1894,-0.47766 21.5747,-12.77806 24.6869,-12.77806 2.9258,0 3.3653,2.10638 2.0365,9.7609 -2.1383,12.31737 -1.8829,11.7549 -4.8025,10.57682 z m 0.2835,-12.58772 c 0.4505,-2.4518 0.3136,-3.75 -0.3955,-3.75 -2.0806,0 -10.1646,4.4203 -9.8438,5.38257 0.4027,1.20827 7.9614,3.51409 8.878,2.70832 0.3697,-0.32499 0.9823,-2.27839 1.3613,-4.34089 z m -5.3569,1.81926 -3.3235,-1.1288 3.6973,-1.76309 c 2.0335,-0.9697 3.8516,-1.60868 4.0403,-1.41996 0.1888,0.18872 0.021,1.49007 -0.3738,2.89188 -0.6746,2.39855 -0.9128,2.48224 -4.0403,1.41997 z m 36.9023,19.84741 c 0.048,-1.16495 0.285,-1.4019 0.6042,-0.60417 0.2889,0.72187 0.2534,1.58438 -0.079,1.91667 -0.3323,0.33229 -0.5687,-0.25834 -0.5253,-1.3125 z m -71,-1 c 0.048,-1.16495 0.285,-1.4019 0.6042,-0.60417 0.2889,0.72187 0.2534,1.58438 -0.079,1.91667 -0.3323,0.33229 -0.5687,-0.25834 -0.5253,-1.3125 z m 72.1711,-1.55604 c -1.3886,-1.40036 -1.5552,-7.2669 -0.2943,-10.36063 0.7612,-1.86769 0.8601,-1.82931 1.4955,0.58021 0.3742,1.41912 0.5383,4.48391 0.3646,6.81064 -0.2531,3.39094 -0.5638,3.98026 -1.5658,2.96978 z m -74.0493,-6.26767 c 0.2583,-3.11484 1.0176,-6.21001 1.6873,-6.87815 0.9566,-0.95439 1.1527,0.16161 0.9148,5.20582 -0.2061,4.37098 -0.7448,6.56669 -1.6873,6.87815 -1.1051,0.36522 -1.2897,-0.68505 -0.9148,-5.20582 z m -550.43217,22.85931 c 10.92304,-4.56393 10.92951,-12.68267 0.0127,-15.92462 -8.72793,-2.59192 -16.09831,-1.36435 -20.95236,3.4897 -3.53672,3.53672 -3.58697,6.3755 -0.16893,9.54323 4.74103,4.39384 14.35979,5.71153 21.1086,2.89169 z m -16.25524,-1.95972 c -3.95036,-1.4067 -6.51323,-3.78624 -6.51323,-6.04732 0,-0.64487 1.16218,-2.33468 2.58262,-3.75512 5.31445,-5.31445 19.71744,-5.5752 25.16698,-0.45562 2.87332,2.69934 2.84798,4.85548 -0.0895,7.61508 -4.43039,4.16213 -13.6462,5.31394 -21.1469,2.64298 z m 17.00934,-2.91538 c 7.9942,-5.238 -5.50721,-12.60749 -14.44768,-7.88599 -5.04055,2.66194 -6.03112,4.79704 -3.43159,7.39656 3.94567,3.94568 12.25713,4.17319 17.87927,0.48943 z m -14.52257,0.70961 c -7.0038,-2.59292 -1.96078,-8.28678 7.33956,-8.28678 7.83513,0 11.11777,5.1037 5.05838,7.86455 -2.55967,1.16626 -9.72874,1.41041 -12.39794,0.42223 z m 503.96984,-1.96676 c 11.9646,-3.28921 19.903,-10.01319 20.756,-17.58058 0.8033,-7.12651 -2.2523,-18.45552 -6.3149,-23.41335 -13.0695,-15.94959 -48.7495,-15.85953 -60.9635,0.15388 -2.88,3.77581 -6.3699,14.82444 -6.4184,20.31969 -0.023,2.64753 2.2871,9.19587 3.2466,9.2017 0.1234,7.5e-4 0.068,-2.51861 -0.124,-5.59857 -0.3296,-5.30017 -0.2359,-5.56429 1.75,-4.93398 2.0105,0.63809 2.0983,0.33452 2.0983,-7.25354 0,-6.56717 0.3842,-8.4837 2.25,-11.22356 1.2375,-1.81723 2.925,-3.65193 3.75,-4.07712 15.5858,-8.03261 29.8817,-8.56164 43.8845,-1.62396 8.1176,4.02185 10.2905,6.87139 10.5681,13.85861 0.4996,12.57596 0.4277,12.19499 2.0474,10.85076 1.3025,-1.08099 1.5,-0.5183 1.5,4.27396 0,5.10593 -0.2751,5.76043 -3.6773,8.74754 -6.7967,5.96762 -16.7624,8.94949 -29.9674,8.96663 -12.2127,0.0159 -21.9988,-2.90319 -29.9135,-8.92275 -1.132,-0.86096 -0.5033,-0.11043 1.3972,1.66785 8.4671,7.9226 28.4323,10.90253 44.1309,6.58679 z m -51.7379,-21.32002 c 0,-1.925 0.2058,-2.7125 0.4573,-1.75 0.2516,0.9625 0.2516,2.5375 0,3.5 -0.2515,0.9625 -0.4573,0.175 -0.4573,-1.75 z m -465.64271,18.92595 c 0.77592,-0.64396 1.41077,-1.83519 1.41077,-2.64718 0,-0.81199 1.37642,-2.76212 3.05871,-4.33361 2.6364,-2.46277 2.90142,-3.15115 1.9195,-4.98587 -1.02553,-1.91623 -6.45998,-4.95929 -8.85653,-4.95929 -1.25921,0 -17.12168,12.9943 -17.12168,14.02582 0,0.70016 1.58576,1.39414 10,4.37634 2.18068,0.77289 7.94926,-0.11516 9.58923,-1.47621 z m -12.83923,-1.52586 c -2.6125,-0.80334 -4.72444,-1.78449 -4.6932,-2.18035 0.0551,-0.69836 10.95234,-9.94333 13.53845,-11.48573 0.70638,-0.4213 3.11142,-0.0349 5.34454,0.85858 4.74911,1.90021 5.44075,4.82127 1.56021,6.58936 -1.64052,0.74748 -2.5,1.95188 -2.5,3.50332 0,1.61772 -0.80994,2.67217 -2.5651,3.33948 -3.29301,1.252 -4.88443,1.15896 -10.6849,-0.62466 z m 9.03635,-1.58644 c 0.91512,-0.91512 0.81111,-1.60097 -0.45499,-3 -2.02994,-2.24306 -3.23057,-2.27297 -6.25324,-0.15581 -2.25996,1.58293 -2.28397,1.71847 -0.53138,3 2.27026,1.66005 5.66236,1.73306 7.23961,0.15581 z m -6.24185,-0.74165 c -0.69711,-1.12795 3.03285,-2.45125 4.44655,-1.57753 0.55492,0.34296 1.00895,1.04701 1.00895,1.56455 0,1.21796 -4.70387,1.22915 -5.4555,0.013 z m 11.01473,-5.77409 c 1.60278,-1.60278 1.57769,-1.75759 -0.43018,-2.65353 -1.6208,-0.72322 -2.62727,-0.50348 -4.1959,0.91612 -1.95109,1.76571 -1.96463,1.90659 -0.24839,2.58324 2.69861,1.06397 3.02053,1.00811 4.87447,-0.84583 z m -2.74673,-0.98107 c 0.72187,-0.28887 1.58438,-0.25335 1.91667,0.0789 0.33229,0.33229 -0.25834,0.56864 -1.3125,0.52522 -1.16495,-0.048 -1.4019,-0.28494 -0.60417,-0.60416 z m -30.0125,2.48311 c 1.43333,-1.43333 1.56272,-2.8 0.2651,-2.8 -0.5142,0 -2.16247,-0.46672 -3.66284,-1.03716 -4.63238,-1.76123 -1.49289,-3.26626 3.95292,-1.89499 3.7228,0.93741 4.9686,0.90833 6.23857,-0.14565 1.4412,-1.1961 1.42334,-1.43653 -0.19458,-2.61959 -0.97979,-0.71643 -2.59542,-1.30261 -3.5903,-1.30261 -1.77374,0 -2.37593,-1.09961 -1.22983,-2.2457 0.31847,-0.31848 2.5794,0.10255 5.02429,0.93561 3.53021,1.20286 4.74903,1.26254 5.92097,0.28993 2.45272,-2.03558 1.75514,-2.72379 -5.05949,-4.99155 -5.53114,-1.84064 -6.79865,-1.96986 -8.25,-0.84102 -5.32774,4.14384 -14.75766,12.24087 -15.01481,12.8925 -0.31003,0.78564 10.10353,4.74139 12.85,4.88128 0.8525,0.0434 2.09,-0.46105 2.75,-1.12105 z m -9.14709,-2.66267 -4.84709,-1.70766 7.47108,-6.17987 7.47108,-6.17987 5.62601,1.69575 c 3.09431,0.93266 5.62601,2.09441 5.62601,2.58167 0,0.48725 -1.0125,0.5976 -2.25,0.24521 -5.73002,-1.63167 -7.83487,-1.76701 -9.24752,-0.59462 -2.27068,1.8845 -1.84511,2.73388 2.00673,4.0051 1.93006,0.63698 3.27207,1.54184 2.98224,2.0108 -0.28984,0.46896 -2.58702,0.15073 -5.10485,-0.70718 -4.39433,-1.4973 -4.66202,-1.47569 -6.67668,0.53897 -1.15434,1.15435 -1.89881,2.23838 -1.65436,2.40897 0.24444,0.17059 2.01944,1.05431 3.94444,1.96382 4.73252,2.23601 1.07228,2.1805 -5.34709,-0.0811 z m 553.17053,1.53219 c 2.378,-0.64323 4.178,-1.548 4,-2.01059 -0.1779,-0.46258 1.0265,-1.5521 2.6765,-2.42114 l 3,-1.58008 -3,-0.84273 c -1.7927,-0.50358 -5.6179,-0.38788 -9.5049,0.2875 -4.5507,0.79068 -8.4563,0.83116 -13,0.13474 -8.177,-1.25329 -13.1302,-0.62112 -12.7623,1.6288 0.399,2.43981 2.906,3.93008 8.3673,4.97383 6.7631,1.29256 15.0742,1.22256 20.2234,-0.17033 z M 794.43495,594.04396 c 3.09706,-3.69594 5.63101,-7.17486 5.63101,-7.73095 0,-2.3961 -4.84973,-2.02399 -11.71908,0.89918 -3.94421,1.67841 -7.39566,3.05166 -7.66988,3.05166 -0.27422,0 0.42251,-2.08227 1.54828,-4.62727 2.20122,-4.97622 1.62639,-6.34632 -2.65932,-6.33842 -2.12515,0.004 -19.5,11.51559 -19.5,12.91968 0,0.45606 1.13889,1.11504 2.53087,1.4644 1.8749,0.47057 3.68922,-0.16175 7,-2.43963 4.9688,-3.41862 5.0749,-3.36433 3.02285,1.54692 -1.335,3.19509 -1.30156,3.5389 0.43452,4.46803 1.90701,1.0206 2.5632,0.86457 10.3723,-2.46627 l 3.86053,-1.64665 -2.11053,2.96398 c -1.1608,1.63018 -2.11054,3.24651 -2.11054,3.59182 0,0.96472 4.41824,2.43971 5.11899,1.70893 0.34045,-0.35504 3.15295,-3.66947 6.25,-7.36541 z m -9.09886,5.40706 c -0.89368,-0.56702 -0.38382,-1.80674 1.86521,-4.5352 1.7023,-2.06518 2.88808,-3.96189 2.63506,-4.2149 -0.25302,-0.25302 -3.69582,0.96918 -7.65066,2.716 -8.72445,3.8535 -10.05976,3.20572 -7.19041,-3.4882 1.09978,-2.56568 1.67208,-4.66487 1.27178,-4.66487 -0.40029,0 -3.06655,1.575 -5.92501,3.5 -4.88705,3.29113 -8.34329,4.44701 -8.22289,2.75 0.097,-1.36691 15.82742,-11.25 17.90609,-11.25 2.53591,0 2.53609,1.31131 9.7e-4,6.8989 -1.0977,2.41939 -1.77792,4.61678 -1.51162,4.88309 0.26631,0.26631 4.33195,-1.16878 9.03476,-3.18909 11.70338,-5.02772 13.02158,-4.02762 5.80891,4.4071 -6.15893,7.20244 -6.27767,7.29402 -8.02219,6.18717 z m -23.2729,-15.18029 c 3.31924,-8.23427 3.38692,-11.00688 0.2687,-11.00688 -2.83678,0 -26.56502,9.37087 -26.98973,10.65891 -0.54386,1.64935 4.88124,2.61193 8.01208,1.42158 3.44496,-1.30976 10.20787,0.88363 10.22046,3.31477 0.009,1.73475 2.11115,3.56227 4.12886,3.58943 0.62568,0.008 2.58751,-3.58159 4.35963,-7.97781 z m -6.14954,5.32645 c -0.0838,-0.45833 -0.19736,-1.49464 -0.25241,-2.30292 -0.15568,-2.28575 -9.0046,-5.20548 -12.15096,-4.00924 -3.27613,1.24558 -6.17415,1.29165 -4.89432,0.0778 1.36618,-1.29574 21.73924,-9.09897 23.75605,-9.09897 2.24074,0 2.17199,0.5296 -1.10764,8.53187 -2.4902,6.07608 -4.91901,9.16342 -5.35072,6.80146 z m 2.17706,-8.89843 c 1.3344,-3.50974 1.3784,-3.46645 -2.27475,-2.23779 -4.93124,1.65853 -6.37032,3.0409 -4.09695,3.93551 3.52009,1.38522 5.38888,0.88729 6.3717,-1.69772 z m -3.52475,0.5651 c 0.33992,-0.55 1.04148,-1 1.55902,-1 0.51754,0 0.94098,0.45 0.94098,1 0,0.55 -0.70156,1 -1.55902,1 -0.85746,0 -1.2809,-0.45 -0.94098,-1 z m 593.13534,8.45553 c 1.5724,-1.57245 2.3085,-3.15934 1.9268,-4.15403 -0.4074,-1.06164 0.4614,-2.51038 2.5521,-4.25582 2.7882,-2.32762 3.0287,-2.90988 1.9981,-4.83562 -1.3166,-2.46016 -4.8176,-4.49659 -10.3348,-6.01149 l -3.7223,-1.02209 -8.1638,8.94232 c -4.49,4.91828 -7.8456,9.26607 -7.4569,9.66176 1.6647,1.69441 10.4765,4.07045 15.3609,4.14194 4.399,0.0644 5.7261,-0.3532 7.8399,-2.46697 z m -17.3854,-0.11781 c -2.3375,-0.82741 -4.2321,-1.80439 -4.2103,-2.17105 0.022,-0.36667 3.3023,-4.20338 7.29,-8.52603 l 7.2503,-7.85935 5.96,2.36112 c 4.5559,1.80489 6.0361,2.89702 6.283,4.63592 0.2504,1.76292 -0.3517,2.51 -2.6754,3.32007 -2.6778,0.93349 -2.9426,1.39001 -2.4755,4.26847 0.4479,2.76017 0.1432,3.39627 -2.1216,4.42815 -3.5042,1.59666 -10.0507,1.401 -15.3005,-0.4573 z m 12.7136,-1.79392 c 1.5292,-1.84252 0.7239,-3.13694 -3.2208,-5.17679 -3.077,-1.59118 -3.1696,-1.56976 -5.4349,1.25711 -2.1316,2.66003 -2.1777,2.9697 -0.6151,4.12588 2.2986,1.70071 7.7896,1.57858 9.2708,-0.2062 z m -8.3159,-1.30483 c -0.2587,-0.41856 0.1123,-1.55782 0.8244,-2.53168 1.0989,-1.50282 1.6905,-1.59032 3.9113,-0.57846 3.798,1.73048 3.3421,3.87117 -0.8244,3.87117 -1.8925,0 -3.6526,-0.34246 -3.9113,-0.76103 z m 13.1481,-7.80759 c 0.2029,-1.41916 -0.5183,-2.43954 -2.2971,-3.25 -3.3186,-1.51209 -2.9896,-1.60737 -4.9892,1.44441 -2.0755,3.16766 -0.7453,4.54598 3.9905,4.13473 2.1644,-0.18796 3.0824,-0.83668 3.2958,-2.32914 z m -6.5458,-0.68138 c 0.2292,-0.6875 1.4667,-1.25 2.75,-1.25 1.2833,0 2.5208,0.5625 2.75,1.25 0.2749,0.82456 -0.6611,1.25 -2.75,1.25 -2.0889,0 -3.0249,-0.42544 -2.75,-1.25 z m -605.8399,1.85203 c 6.66508,-2.78484 5.90745,-4.80775 -2.7198,-7.26199 -4.7146,-1.34119 -5.92596,-1.3893 -7.25287,-0.28806 -1.4352,1.19111 -1.36242,1.50416 0.73483,3.16072 l 2.3278,1.83868 -3,-0.64466 c -1.65,-0.35456 -4.02011,-1.28148 -5.26691,-2.05982 -1.87656,-1.17148 -2.08134,-1.76193 -1.1892,-3.4289 2.39484,-4.47481 12.99694,-5.10717 17.33283,-1.03382 2.17683,2.04503 5.62192,2.78384 6.92143,1.48434 1.25133,-1.25134 -1.44844,-4.40467 -5.58159,-6.51928 -11.00563,-5.63075 -28.10215,0.46518 -25.11629,8.95545 2.11432,6.01204 14.6628,9.20137 22.80977,5.79734 z m -17.15935,-2.09261 c -6.59895,-2.86819 -6.44117,-9.27841 0.29768,-12.09408 7.01654,-2.93169 21.28201,-0.9057 22.87628,3.24891 0.80858,2.10712 -1.99942,1.56405 -6.01979,-1.16425 -4.12748,-2.80099 -7.92258,-3.14646 -12.68698,-1.1549 -4.2879,1.79237 -6.04386,4.05246 -5.20414,6.6982 0.9122,2.87409 6.90378,5.28856 11.14792,4.49235 3.94698,-0.74046 4.35022,-2.24358 0.83834,-3.12501 -2.30058,-0.5774 -3.57676,-2.41064 -1.67814,-2.41064 1.89238,0 10.17814,3.25318 10.17814,3.99618 0,2.83279 -14.20859,3.92149 -19.74931,1.51324 z m 766.74925,-42.50942 c 0,-1.1 0.6053,-2 1.345,-2 2.1578,0 4.7768,-3.51898 4.0427,-5.43199 -0.6969,-1.81609 -4.3693,-3.60649 -7.2028,-3.51157 -0.9267,0.031 -0.1099,0.59355 1.8151,1.25 3.9339,1.34152 4.6775,4.02633 1.25,4.51311 -1.446,0.20536 -2.25,1.0094 -2.25,2.25 0,1.06175 -0.4981,1.93045 -1.107,1.93045 -0.6088,0 -0.8324,-0.71561 -0.4967,-1.59024 0.9858,-2.56904 -0.41,-3.70736 -2.3704,-1.93318 -0.9766,0.88377 -2.3677,1.47559 -3.0914,1.31514 -0.7236,-0.16045 -1.4879,0.49578 -1.6984,1.45828 -0.4434,2.02741 3.1778,2.50728 4.3696,0.57903 0.4795,-0.7759 0.9946,-0.43852 1.5268,1 1.0122,2.73637 3.8675,2.86259 3.8675,0.17097 z m -8.0279,-4.51727 c 0.9802,0.60581 1.4954,-0.8397 1.063,-2.98273 -0.111,-0.55 0.1318,-0.6664 0.5396,-0.25868 0.4077,0.40773 1.3357,0.24798 2.0623,-0.355 2.7828,-2.30954 -1.3763,-5.60872 -8.137,-6.45452 -0.55,-0.0688 -1.8471,-0.49013 -2.8825,-0.93627 -1.1188,-0.48211 -2.6345,-0.34148 -3.7364,0.34665 -2.4981,1.56012 -2.7759,1.47148 -2.2069,-0.70427 0.5968,-2.28229 -2.0779,-3.5274 -4.6363,-2.15822 -1.4351,0.76809 -1.9258,0.55712 -2.3339,-1.00358 -0.9113,-3.48467 -3.6644,-2.23422 -5.7395,2.6068 -1.0805,2.52059 -1.9645,5.23472 -1.9645,6.03138 0,2.28913 2.6029,2.69202 5.4289,0.84032 2.5394,-1.66384 2.5854,-1.65134 2.3308,0.63303 -0.3962,3.5555 2.5396,3.49053 7.8659,-0.17407 4.4065,-3.03177 4.9481,-2.60427 1.6197,1.27857 -2.028,2.3658 -1.1913,3.96859 2.8151,5.3928 3.0639,1.08917 3.6277,1.00645 5.1617,-0.75739 0.9471,-1.08906 2.1846,-1.69423 2.75,-1.34482 z m -9.3676,-0.64732 c 0.2244,-0.36552 -10e-4,-0.81552 -0.5009,-1 -0.4999,-0.18448 0.5645,-2.03098 2.3652,-4.10334 2.3877,-2.74781 3.7585,-3.58207 5.0631,-3.08144 1.5789,0.60587 1.5059,0.79239 -0.6214,1.58793 l -2.4105,0.90144 2.3673,1.27798 c 2.025,1.09316 2.126,1.37062 0.6981,1.91855 -1.0537,0.40436 -1.4248,0.24504 -1.0063,-0.43208 0.4159,-0.67294 -0.1877,-0.94815 -1.6198,-0.73855 -3.114,0.45578 -3.4854,2.2827 -0.7175,3.52965 2.1265,0.95799 2.0683,1.01896 -0.8735,0.9154 -1.7334,-0.061 -2.9681,-0.41002 -2.7438,-0.77554 z m -8.9183,-7.01662 0.6363,-3.18122 -3.6631,2.26393 c -2.0147,1.24516 -4.0929,2.1142 -4.6181,1.93121 -0.5253,-0.18299 -0.066,-2.31221 1.0196,-4.73161 2.0842,-4.6429 3.7046,-5.24476 1.9918,-0.73979 -1.2324,3.24158 0,3.45185 3.9058,0.66824 3.327,-2.36902 4.1475,-1.80948 3.3313,2.2717 l -0.6131,3.06513 3.2192,-2.29228 c 1.7706,-1.26076 3.4533,-2.0582 3.7394,-1.77209 0.6677,0.66764 -6.6973,5.69799 -8.3424,5.69799 -0.8634,0 -1.0486,-0.97137 -0.6067,-3.18121 z m 28.3138,5.24023 c 0,-0.51754 -0.4715,-1.23242 -1.0479,-1.58862 -1.4677,-0.90709 -4.2112,0.30138 -3.4565,1.52254 0.7866,1.27268 4.5044,1.32722 4.5044,0.0661 z m -40.5231,-6.23046 c 2.8787,-1.3116 4.3365,-5.30648 2.8222,-7.73334 -1.7386,-2.78627 -5.5847,-4.20365 -9.9544,-3.66841 -3.0193,0.36982 -4.3039,0.12194 -4.6986,-0.90663 -0.2988,-0.77859 -2.0097,-2.17394 -3.802,-3.1008 l -3.2588,-1.68518 -4.2721,4.8829 c -2.3496,2.68559 -4.2813,5.23452 -4.2926,5.66428 -0.043,1.64793 3.1343,1.88839 4.8181,0.36458 0.9985,-0.90363 3.1516,-1.4988 4.9608,-1.37128 2.547,0.17953 3.1969,0.66778 3.1985,2.40274 0,4.9236 8.4129,7.91503 14.4789,5.15114 z m -7.6644,-0.51167 c 0.7219,-0.28887 1.5844,-0.25335 1.9167,0.0789 0.3323,0.33229 -0.2584,0.56864 -1.3125,0.52522 -1.165,-0.048 -1.4019,-0.28494 -0.6042,-0.60416 z m -2.574,-1.98299 c -2.4565,-0.98966 -3.3492,-4.0803 -1.6651,-5.76445 0.8632,-0.8632 2.0195,-1.56945 2.5695,-1.56945 0.55,0 0.2727,0.72723 -0.6161,1.61607 -2.019,2.01895 -1.5605,3.53105 1.5522,5.11919 2.3073,1.17723 0.807,1.66523 -1.8405,0.59864 z m 8.9007,-1.26877 c 2.0492,-1.67952 2.1947,-2.20742 1.1023,-4 -0.6921,-1.13582 -0.8946,-2.06513 -0.45,-2.06513 1.2263,0 3.2085,2.24178 3.2085,3.62857 0,1.72074 -2.8391,4.37143 -4.6822,4.37143 -1.1028,0 -0.8698,-0.54875 0.8214,-1.93487 z m -7.9101,-1.25254 c 0.5128,-1.53827 7.645,-1.81622 8.0209,-0.31259 0.1375,0.55 -1.7094,1.14067 -4.1042,1.31259 -3.2472,0.23312 -4.243,-0.0211 -3.9167,-1 z m -13.5776,-6.24039 c 3.0051,-3.61623 5.1918,-4.26162 8.4788,-2.50246 3.1529,1.68736 0.44,4.25983 -3.6777,3.48735 -2.199,-0.41255 -3.5634,-0.12853 -4.4366,0.92358 -0.6935,0.83563 -1.7001,1.51933 -2.2369,1.51933 -0.5369,0 0.3057,-1.54251 1.8724,-3.4278 z m 7.8058,-0.5031 c 0.3164,-0.512 0.096,-1.22687 -0.4889,-1.58861 -1.4799,-0.91467 -4.232,0.28391 -3.4728,1.51245 0.7816,1.26464 3.1985,1.31111 3.9617,0.0762 z m -21.8811,1.03564 c 5.3981,-2.45172 7.4536,-6.88419 4.9583,-10.69238 -2.7577,-4.20882 -9.7849,-6.75811 -16.8604,-6.11653 -6.4395,0.58391 -10.1867,2.65852 -12.6536,7.0055 -1.3512,2.38104 -1.3017,2.84935 0.5711,5.40284 4.5435,6.19481 15.5769,8.21917 23.9846,4.40057 z m -17.7575,-0.58557 c -5.0617,-2.85256 -4.762,-7.36914 0.6598,-9.94193 10.1077,-4.79645 24.2117,2.17705 17.6579,8.73076 -2.7722,2.77228 -14.2061,3.52829 -18.3177,1.21117 z m 20.8197,-7.01919 c -2.0174,-5.25707 -15.0913,-7.35022 -21.5012,-3.44235 -1.8495,1.12758 -3.6495,1.76261 -4,1.41119 -1.1218,-1.12492 4.7478,-5.35662 8.3734,-6.03679 7.5632,-1.41886 17.595,2.03979 18.7523,6.46516 0.636,2.4322 -0.7729,3.82224 -1.6245,1.60279 z m -834.87415,-6.02259 c 9.4498,-2.80629 13.72917,-9.8602 9.45945,-15.59253 -0.97699,-1.31167 -2.43949,-3.69578 -3.25,-5.29801 -1.74032,-3.44032 -6.10368,-6.32226 -10.96137,-7.23983 -2.15547,-0.40715 -10.94117,-5.87565 -23,-14.31596 -52.95524,-37.06478 -51.17252,-36.01339 -61.08413,-36.02548 -12.65942,-0.0154 -22.02385,8.34152 -17.92635,15.99777 0.97787,1.82716 6.44869,5.77141 58.99821,42.53544 31.22961,21.84847 35.42942,23.60163 47.76419,19.9386 z m -17.36453,-1.90533 c -3.29202,-1.4331 -4.39966,-3.23413 -4.39966,-7.15385 0,-2.86525 0.17248,-2.8975 4.24172,-0.79321 4.17334,2.15812 14.37049,2.14401 18.56622,-0.0257 l 3.19206,-1.65066 0,4.01226 c 0,3.66599 -0.3126,4.14287 -3.62212,5.52568 -4.44987,1.85927 -13.80145,1.90373 -17.97822,0.0855 z m -44.84513,-30.10733 c -20.87001,-14.56585 -38.98251,-27.45762 -40.25,-28.64837 -1.26749,-1.19074 -2.30453,-3.13311 -2.30453,-4.31636 0,-2.53031 3.34462,-5.92902 7.3151,-7.43339 4.07578,-1.54427 14.17014,-1.30853 18.32621,0.42799 1.96739,0.82202 17.22959,11.03362 33.91599,22.69244 l 30.33893,21.19785 -2.69812,1.66438 c -5.5704,3.43619 -6.57196,5.47118 -6.6373,13.48583 -0.0334,4.10273 -0.0608,7.44905 -0.0608,7.43626 0,-0.0128 -17.07546,-11.94077 -37.94547,-26.50663 z m 25.33492,7.09129 c 2.68474,-1.36046 5.72337,-2.20852 6.8539,-1.91288 3.45017,0.90223 3.86155,-1.74829 0.66796,-4.30368 -1.60122,-1.28124 -3.48015,-2.33176 -4.17541,-2.33449 -0.69525,-0.003 -2.49525,-1.36664 -4,-3.03091 -1.84424,-2.03976 -4.20251,-3.3077 -7.2359,-3.89044 -2.475,-0.47547 -3.9375,-0.91379 -3.25,-0.97405 2.26173,-0.19825 1.30889,-1.99745 -2.38834,-4.50978 l -3.63833,-2.47232 -5.56018,2.96708 c -5.29842,2.8274 -8.16315,3.1633 -8.16315,0.95716 0,-0.55608 1.76947,-1.91378 3.93215,-3.0171 4.26059,-2.17359 6.08041,-4.19709 4.30642,-4.78842 -0.61354,-0.20451 -3.15707,-1.93067 -5.65228,-3.83591 l -4.53676,-3.46407 -6.27476,3.13256 c -3.45113,1.72291 -5.71227,2.54502 -5.02477,1.8269 0.6875,-0.71812 1.25,-2.34067 1.25,-3.60567 0,-1.265 0.45,-2.3 1,-2.3 0.55,0 1,0.45 1,1 0,0.55 0.9,1 2,1 1.25926,0 2,-0.66667 2,-1.8 0,-2.66685 -2.00769,-4.2 -5.5,-4.2 -3.68408,0 -5.5,1.55178 -5.5,4.7 0,2.58676 -1.48318,3.08918 -2.36163,0.8 -0.31658,-0.825 -1.48972,-1.5 -2.60699,-1.5 -1.49241,0 -2.03138,0.65397 -2.03138,2.46482 0,2.75285 2.51633,4.53518 6.40287,4.53518 1.74988,0 2.36965,0.42923 2.00224,1.38669 -0.59497,1.55047 4.471,5.61331 6.99926,5.61331 1.90583,0 2.08793,-2.07381 0.34563,-3.93604 -1.02131,-1.09162 -0.8841,-1.24044 0.75,-0.81346 1.1,0.28743 2.675,0.79392 3.5,1.12554 1.93864,0.77927 4.46108,-0.82097 3.5691,-2.26424 -0.37792,-0.61149 -1.13713,-1.1118 -1.68713,-1.1118 -0.55,0 -0.67463,0.52647 -0.27694,1.16994 0.51091,0.82667 0.16147,0.93564 -1.19099,0.3714 -3.70128,-1.54416 -6.1873,-1.71723 -6.9496,-0.48381 -0.46213,0.74776 -0.0328,1.78495 1.07391,2.59417 2.67315,1.95465 -0.13491,1.65875 -3.17749,-0.33483 l -2.56878,-1.68312 6.35396,-3.21627 c 6.05555,-3.06522 6.48056,-3.14193 9.04958,-1.63339 1.48259,0.87058 2.45041,1.97962 2.15072,2.46454 -0.29969,0.48491 -1.38346,0.12276 -2.40837,-0.80477 -1.93042,-1.74701 -4.93797,-1.36223 -4.93797,0.63174 0,0.62611 0.69279,0.87253 1.53953,0.5476 2.33082,-0.89442 5.62351,1.47542 4.28718,3.0856 -1.18305,1.42549 -0.78699,1.59693 1.58576,0.68642 0.86682,-0.33264 1.34629,-0.97654 1.06547,-1.43091 -0.28081,-0.45436 0.0163,-1.15174 0.66026,-1.54972 0.78484,-0.48506 0.90097,-0.28698 0.35226,0.60084 -0.59434,0.96167 -0.36276,1.14954 0.8455,0.68589 0.91522,-0.3512 1.66404,-0.2796 1.66404,0.15913 0,0.43872 -2.25,1.85152 -5,3.13955 -5.05955,2.36977 -6.0221,3.4683 -3.75,4.27976 0.6875,0.24554 0.99785,0.72269 0.68967,1.06033 -0.30819,0.33765 -1.60764,-0.11965 -2.88767,-1.01622 l -2.32733,-1.63013 3.38766,-1.80495 c 1.86322,-0.99273 2.93767,-1.82214 2.38767,-1.84314 -1.87302,-0.0715 -7.77057,4.08426 -6.88351,4.85053 2.86034,2.47084 13.57469,9.10382 14.70553,9.10382 2.3302,0 2.74173,-1.27207 1.02517,-3.16885 -1.88165,-2.0792 -0.37007,-2.4869 2.52261,-0.68039 1.54408,0.9643 1.67146,1.60432 0.7861,3.9499 -0.8677,2.29882 -0.72584,3.16457 0.79368,4.84363 1.92028,2.12188 8.23129,4.37098 9.70657,3.4592 1.87096,-1.15631 0.66333,-3.28423 -2.22372,-3.91833 -6.00952,-1.31991 -4.65808,-5.43923 1.79452,-5.46985 2.34875,-0.0111 3.67273,0.66505 4.86501,2.48469 0.90093,1.375 2.48631,2.5 3.52305,2.5 3.17023,0 2.09255,1.38288 -3.04083,3.90203 -3.14369,1.54273 -4.70969,2.88425 -4.37747,3.75 0.74458,1.94034 2.72311,1.67566 8.19274,-1.09601 z m -2.1162,-2.33507 c 3.23037,-1.62789 5.08271,-3.15394 4.78139,-3.93916 -0.79641,-2.0754 1.97283,-1.46692 4.04037,0.88778 1.77032,2.01618 1.77744,2.12297 0.10083,1.5106 -1.07537,-0.39278 -3.78863,0.34663 -6.71676,1.83043 -2.70193,1.36917 -5.49005,2.46202 -6.19584,2.42855 -0.70578,-0.0335 1.08972,-1.25666 3.99001,-2.7182 z m -12.77031,-2.9725 c -3.96276,-1.98128 -4.83852,-4.27002 -2.52074,-6.58779 1.94424,-1.94424 7.62859,-3.10065 11.03666,-2.24528 2.9828,0.74863 7.36111,4.7913 5.76523,5.32326 -0.6,0.2 -2.23892,-0.78438 -3.64204,-2.1875 -2.68429,-2.68429 -6.43139,-3.26943 -9.70779,-1.51596 -2.95481,1.58137 -2.36006,4.7346 1.31574,6.97578 4.0183,2.45 2.49928,2.61054 -2.24706,0.23749 z m -11.75294,-7.98184 c -1.2375,-0.83081 -2.25,-1.82293 -2.25,-2.20471 0,-0.38179 2.67266,-1.97158 5.93923,-3.53286 5.76558,-2.75569 6.01665,-2.78797 8.58677,-1.10396 1.45614,0.9541 2.41258,1.96967 2.12543,2.25682 -0.28715,0.28715 -1.50286,-0.16485 -2.70156,-1.00446 -1.19871,-0.83961 -2.80281,-1.28737 -3.56467,-0.99501 -1.72342,0.66134 -1.85567,2.65293 -0.1352,2.03603 1.65511,-0.59346 4.75,1.04632 4.75,2.51672 0,0.8609 -0.29271,0.87211 -1.12186,0.043 -0.61702,-0.61702 -1.74775,-0.88167 -2.51273,-0.58812 -0.76498,0.29355 -2.03855,-0.004 -2.83016,-0.66076 -1.50827,-1.2518 -5.53525,-0.53269 -5.53525,0.9884 0,0.4856 0.73279,1.29301 1.62842,1.79423 0.89563,0.50122 1.23313,1.14844 0.75,1.43827 -0.48313,0.28983 -1.89092,-0.15279 -3.12842,-0.98359 z m -26.58333,-17.93328 c -0.9112,-0.91119 -0.84378,-3.33333 0.0928,-3.33333 0.4177,0 1.32152,0.9 2.00848,2 1.016,1.62688 0.99869,2 -0.0928,2 -0.73799,0 -1.64181,-0.3 -2.00847,-0.66667 z m 5.08333,0.004 c 0.6875,-0.27741 1.25,-1.33008 1.25,-2.33927 0,-3.71868 1.16443,-4.99845 4.54797,-4.99845 1.8337,0 3.63061,0.47994 3.99315,1.06653 0.98715,1.59725 -0.39757,2.47702 -1.75779,1.1168 -1.79965,-1.79926 -3.78333,-1.41395 -3.78333,0.73527 0,3.36553 -1.15314,5.08403 -3.35699,5.00284 -1.17865,-0.0434 -1.58051,-0.30592 -0.89301,-0.58333 z m 92.32895,47.07895 c 0.048,-1.16495 0.28494,-1.4019 0.60416,-0.60417 0.28887,0.72187 0.25335,1.58438 -0.0789,1.91667 -0.33229,0.33229 -0.56864,-0.25834 -0.52522,-1.3125 z m -20.57895,-6.13552 c -5.99585,-1.4607 -7.36989,-7.26244 -2.33643,-9.86535 4.34224,-2.24545 13.1851,-1.51119 16.0271,1.33081 5.55494,5.55495 -3.28953,11.06845 -13.69067,8.53454 z M 1339.051,461.23826 c -2.9375,-2.23268 -10.2432,-4.85073 -46.9851,-16.83748 -36.6741,-11.96462 -137.1203,-44.84615 -174.5,-57.12336 -16.5,-5.41936 -52.275,-17.12574 -79.5,-26.01418 -27.2249,-8.88844 -62.54994,-20.43935 -78.49994,-25.66868 -66.55378,-21.82017 -89.92358,-29.48524 -106.5,-34.93102 -16.0976,-5.28847 -18.22124,-5.74812 -26.5,-5.73586 -9.6344,0.0143 -17.68179,1.86365 -23.36278,5.369 -4.91065,3.03003 -3.18339,3.46715 2.26119,0.57224 6.48367,-3.4474 14.62878,-4.91842 24.06115,-4.34549 7.08199,0.43016 15.7291,3.01294 72.54044,21.66688 35.475,11.64818 75.975,24.93864 90,29.53435 14.02504,4.59572 38.55004,12.6332 54.49994,17.86107 15.95,5.22787 52.625,17.21531 81.5,26.63876 28.875,9.42345 55.65,18.19282 59.5,19.48749 3.85,1.29467 30.4,10.0137 59,19.37562 28.6,9.36192 59.65,19.53365 69,22.60384 9.35,3.0702 18.8,6.63087 21,7.91259 4.5882,2.67313 6.1758,2.43946 2.4851,-0.36577 z m -726.3001,-0.40803 c 6.83953,-3.18446 9.0646,-7.04977 6.79455,-11.80327 -5.30219,-11.1028 -7.16988,-13.00941 -14.31685,-14.61523 -2.37407,-0.53342 -9.12828,-4.50219 -16.81524,-9.88063 -44.94296,-31.44585 -53.65042,-37.36953 -57.05229,-38.81265 -12.52236,-5.31214 -31.71449,1.6985 -29.87183,10.9118 0.78287,3.91437 2.31771,5.51369 10.92261,11.38148 3.93476,2.68317 14.81872,10.25005 24.18659,16.8153 41.02526,28.75161 51.73114,36.00806 54.75176,37.11074 5.75002,2.09906 15.60951,1.58881 21.4007,-1.10754 z m -19.18494,0.28099 c -4.64192,-1.72666 -5.5,-2.79724 -5.5,-6.86202 l 0,-3.76975 3.71144,1.8922 c 2.32712,1.18643 5.79165,1.8922 9.28856,1.8922 3.49691,0 6.96144,-0.70577 9.28856,-1.8922 l 3.71144,-1.8922 0,3.86652 c 0,3.32878 -0.43978,4.09394 -3.16215,5.50173 -3.96555,2.05067 -13.37769,2.73659 -17.33785,1.26352 z M 567.85845,444.9223 c -8.63913,-6.13715 -26.0519,-18.35845 -38.69504,-27.15845 -13.12168,-9.13307 -23.45513,-17.01838 -24.07702,-18.37283 -1.38202,-3.00996 0.61059,-6.35431 5.23899,-8.79301 4.76502,-2.51068 16.13345,-2.42097 21.01399,0.16584 5.26188,2.78893 62.63354,42.8307 62.68478,43.75 0.023,0.4125 -0.58657,0.75 -1.3546,0.75 -0.76802,0 -2.79302,1.59066 -4.5,3.5348 -2.83607,3.2301 -3.10359,4.13518 -3.10359,10.5 0,3.83086 -0.3375,6.924 -0.75,6.87365 -0.4125,-0.0504 -7.81838,-5.11285 -16.45751,-11.25 z m 0.24367,-10.17677 c 3.20835,-1.6258 5.816,-2.30591 7.35766,-1.91897 3.78156,0.94911 4.37958,-1.53303 1.01749,-4.22325 -3.50075,-2.80118 -6.42352,-3.00878 -7.07884,-0.50282 -0.26416,1.01016 -2.47203,2.80431 -4.90638,3.98701 -4.28837,2.08345 -5.15094,3.11816 -3.75942,4.50968 1.07283,1.07283 2.11508,0.81096 7.36949,-1.85165 z m -6.03616,0.0352 c 0,-0.26574 2.26666,-1.63176 5.03701,-3.03561 2.77036,-1.40384 4.7688,-2.98642 4.44099,-3.51684 -1.05456,-1.70631 1.22742,-1.02789 3.66122,1.08846 2.27641,1.97949 2.28393,2.03182 0.21036,1.46421 -1.34313,-0.36765 -3.85557,0.36333 -6.69245,1.94715 -4.3036,2.40267 -6.65713,3.12835 -6.65713,2.05263 z m -2.5,-3.51685 c 0.41163,-1.29693 1.51303,-2 3.13313,-2 5.96969,0 8.43913,-4.43512 4.14436,-7.4433 -3.09566,-2.16828 -3.84691,-2.03037 -11.32213,2.07853 -5.80306,3.18976 -6.43428,3.81442 -5.15108,5.09762 1.18032,1.18032 1.89394,1.23143 3.69973,0.265 1.61362,-0.86358 2.03961,-0.87744 1.52805,-0.0497 -0.99886,1.61619 0.12474,4.05188 1.86917,4.05188 0.8052,0 1.74964,-0.9 2.09877,-2 z m -2.96562,0.0556 c -0.41806,-0.67644 -0.25932,-1.73069 0.35275,-2.34276 0.61208,-0.61208 1.11287,-1.70943 1.11287,-2.43855 0,-1.0419 -0.66207,-0.98331 -3.09293,0.27374 -1.70111,0.87968 -3.32165,1.3707 -3.60119,1.09115 -0.27954,-0.27954 2.26628,-1.90884 5.65738,-3.62066 6.27685,-3.16855 9.3376,-3.28287 10.4476,-0.39024 0.92021,2.39801 -0.217,3.37169 -3.93794,3.37169 -2.66946,0 -3.70945,0.57335 -4.79373,2.64277 -0.96147,1.83502 -1.61701,2.26685 -2.14481,1.41286 z m 8.96999,-6.06269 c 0.79429,-1.2852 -2.01458,-2.39487 -4.06775,-1.60699 -2.00377,0.76895 -0.90026,2.61408 1.56338,2.61408 1.03508,0 2.16205,-0.45318 2.50437,-1.00706 z m -9.38623,-7.19108 c 1.84971,-2.56702 1.85764,-2.74423 0.16302,-3.64669 -1.21007,-0.64442 -4.65678,-0.32374 -10.74984,1.00015 -4.93277,1.07179 -9.14033,2.12036 -9.35014,2.33016 -0.99708,0.99709 1.22772,2.51452 3.68671,2.51452 3.05486,0 7.0434,2.42204 5.88921,3.57623 -0.40686,0.40686 -0.22251,1.36298 0.40966,2.12471 0.95013,1.14482 1.74391,0.81402 4.5783,-1.908 1.88589,-1.81112 4.30378,-4.5071 5.37308,-5.99108 z m -9.09496,5.47119 c -0.0306,-2.93587 -4.19501,-5.66353 -7.22422,-4.73175 -1.26443,0.38894 -1.99523,0.38502 -1.624,-0.009 1.19959,-1.27228 16.81884,-4.35165 17.38945,-3.42838 0.30275,0.48985 -1.48997,3.02929 -3.9838,5.64321 -3.94814,4.13824 -4.53725,4.46471 -4.55743,2.52562 z m 3.99688,-4.79722 c 1.67875,-2.02277 0.8038,-2.72071 -2.40206,-1.91609 -2.61152,0.65545 -3.21364,1.51129 -1.95133,2.77359 1.12096,1.12097 3.02221,0.74647 4.35339,-0.8575 z m -12.52006,-4.00189 c 2.2,-1.35501 5.43594,-2.46597 7.19098,-2.46879 1.75504,-0.003 3.43816,-0.40505 3.74026,-0.89386 0.90619,-1.46625 -6.06356,-6.18958 -8.02352,-5.43748 -0.97642,0.37469 -1.4841,0.25882 -1.16044,-0.26487 0.90817,-1.46946 -1.48757,-4.01296 -4.48205,-4.7585 -3.17892,-0.79145 -6.76523,2.04441 -6.76523,5.34959 0,2.34321 -1.53001,2.66715 -2.36163,0.5 -0.75054,-1.95587 -3.53548,-1.9317 -4.29104,0.0372 -0.81744,2.13023 2.46056,5.46275 5.3734,5.46275 4.04731,0 6.27927,-1.78975 6.27927,-5.03518 0,-3.13182 1.39089,-3.99453 2.36163,-1.46482 0.31658,0.825 1.26472,1.5 2.10699,1.5 2.93751,0 1.49839,2.04202 -2.96862,4.21226 -4.43649,2.15541 -5.69435,4.13914 -3.25,5.12546 1.92649,0.77735 1.99498,0.75693 6.25,-1.86381 z m -5.5,0.0838 c 0,-0.24328 2.20245,-1.68038 4.89434,-3.19356 3.31866,-1.86551 4.71382,-3.22169 4.3336,-4.21252 -0.43269,-1.12756 0.16238,-1.03411 2.60566,0.40916 3.49741,2.06598 4.2683,3.92373 1.22773,2.95869 -1.15313,-0.36598 -3.97603,0.4171 -6.96676,1.93262 -5.05644,2.56227 -6.09457,2.92093 -6.09457,2.10559 z m -8.97809,-6.03129 c -0.7188,-0.8661 -1.01314,-1.86851 -0.65408,-2.22757 0.35906,-0.35905 1.24043,0.15075 1.9586,1.13291 2.06706,2.82688 5.11977,1.60849 5.48693,-2.18993 0.17428,-1.80297 0.88112,-3.24181 1.59258,-3.24181 0.91896,0 1.10906,1.05609 0.67501,3.75 -0.5549,3.44397 -0.89587,3.77453 -4.17817,4.05056 -2.32953,0.19591 -4.02902,-0.24774 -4.88087,-1.27416 z m 12.09649,-5.1631 c -1.19687,-1.35197 -1.14109,-1.51402 0.41714,-1.21197 0.9893,0.19177 1.98602,0.91117 2.21493,1.59867 0.57475,1.72619 -0.96135,1.50051 -2.63207,-0.3867 z m 79.96055,50.05337 c 0.048,-1.16495 0.28494,-1.4019 0.60416,-0.60417 0.28887,0.72187 0.25335,1.58438 -0.0789,1.91667 -0.33229,0.33229 -0.56864,-0.25834 -0.52522,-1.3125 z m -18.86991,-6.3817 c -3.67603,-0.89265 -7.20904,-3.6621 -7.20904,-5.65102 0,-0.71833 0.93894,-2.18081 2.08653,-3.24996 6.03235,-5.61999 20.95993,-1.85167 19.20771,4.8488 -0.82795,3.16612 -8.56617,5.39232 -14.0852,4.05216 z m 583.1146,-56.62961 c 8.5431,-2.91092 11.2767,-10.08167 5.9592,-15.632 -2.2839,-2.38389 -10.9865,-5.5553 -54.5809,-19.89049 -28.5251,-9.37992 -52.0759,-16.84228 -52.3352,-16.58303 -0.2592,0.25925 13.6147,5.07832 30.8309,10.70905 17.2163,5.63072 40.7523,13.33144 52.3023,17.11271 16.034,5.24922 21.5321,7.4798 23.25,9.43247 8.0437,9.14279 -7.8924,18.0354 -23.25,12.97393 l -4,-1.31829 4.6151,-0.10486 c 5.1559,-0.11715 9.8849,-3.03779 9.8849,-6.10487 0,-4.6088 -9.2884,-8.12898 -16.0801,-6.09413 -6.758,2.02473 -7.305,7.09573 -1.1448,10.6119 3.4656,1.97805 1.5494,1.47963 -11.3244,-2.94561 -5.4729,-1.88124 -8.9896,-3.45458 -7.815,-3.4963 1.1746,-0.0417 3.4091,0.58481 4.9656,1.3923 2.8143,1.46009 2.8642,1.43119 9.0667,-5.25 3.4303,-3.69499 6.2583,-7.04709 6.2844,-7.44911 0.026,-0.40202 -1.1023,-1.01956 -2.5078,-1.3723 -1.8287,-0.45899 -3.1794,-0.0582 -4.75,1.40935 -1.9478,1.82007 -2.4129,1.89006 -4.1357,0.6223 -2.9714,-2.18652 -10.7849,-1.82504 -13.924,0.64418 -3.3786,2.65757 -3.3417,5.21774 0.1151,7.97884 l 2.75,2.19658 -2.5,-0.77031 c -7.5669,-2.33153 -12.277,-4.33908 -10.334,-4.40462 1.2876,-0.0434 3.487,-1.74102 5.4235,-4.18613 3.9551,-4.99362 3.2736,-6.82744 -3.1887,-8.58126 -2.4205,-0.65687 -5.3447,-1.4789 -6.4983,-1.82674 -1.6424,-0.49522 -2.9983,0.39103 -6.25,4.08511 -4.5298,5.14618 -5.028,6.43595 -2.4858,6.43595 0.9166,0 1.4078,0.25888 1.0913,0.5753 -0.4531,0.45313 -26.6479,-7.7399 -47.39,-14.82231 l -3.132,-1.06943 3.8036,-3.84178 c 3.8628,-3.9016 5.3978,-4.48467 7.7993,-2.96251 1.0392,0.65867 0.6315,1.65434 -1.8212,4.44777 l -3.1601,3.59913 2.6431,0.66337 c 2.1363,0.53617 3.308,0.019 6.1101,-2.69695 5.5386,-5.36818 4.0569,-7.93876 -6.3167,-10.95904 l -4.2058,-1.22454 -4.4828,4.8955 c -3.9969,4.365 -4.3061,5.03094 -2.853,6.14549 0.8964,0.6875 1.2908,1.25 0.8765,1.25 -1.3346,0 -28.9737,-9.15287 -33.745,-11.17485 -11.3252,-4.79946 -8.184,-15.49592 5.0867,-17.3211 6.2784,-0.86351 7.7176,-0.54107 29.8569,6.68887 10.0802,3.29184 18.5258,5.78704 18.7679,5.54488 0.7688,-0.76879 -37.8987,-13.01129 -42.6027,-13.48843 -2.479,-0.25145 -6.5018,0.0799 -8.9396,0.73632 -4.734,1.27474 -11.0531,6.68532 -11.0531,9.46397 0,3.36547 2.9977,7.26713 7.1864,9.35354 4.0942,2.03935 30.8673,10.94133 108.8135,36.18006 18.975,6.14405 34.95,11.32576 35.5,11.51492 2.6091,0.89735 9.6063,0.3442 13.8237,-1.09282 z m -24.0012,-6.0179 c -1.7476,-0.86185 -3.4042,-2.15786 -3.6813,-2.88003 -1.8193,-4.74115 10.0563,-7.37874 16.1088,-3.5778 1.7875,1.12254 3.25,2.69707 3.25,3.49897 0,4.16133 -9.5749,5.96843 -15.6775,2.95886 z m 10.0951,-0.70356 c 4.0695,-2.97566 -0.9707,-7.76583 -6.6669,-6.33619 -3.2924,0.82635 -4.2495,3.44364 -2.1198,5.79691 1.957,2.16252 6.2098,2.42353 8.7867,0.53928 z m -8.1938,-1.86011 c -2.7143,-2.71427 3.9743,-5.25075 7.6719,-2.9094 0.7677,0.48607 1.1193,1.60418 0.7814,2.48469 -0.7303,1.90305 -6.6762,2.20179 -8.4533,0.42471 z m -16.5826,-2.51592 c -0.3807,-0.38067 0.5568,-1.70041 2.0833,-2.93275 3.9408,-3.18135 2.2331,-5.87512 -3.7245,-5.87512 -5.7832,0 -7.6502,2.66569 -4,5.71096 l 2.5,2.08566 -2.9944,-0.7287 c -5.6105,-1.36536 -6.9602,-3.94152 -3.6395,-6.94674 2.4253,-2.19489 10.3197,-2.38466 13.4652,-0.32369 2.2121,1.44941 2.5227,1.3945 4.7675,-0.84267 1.5441,-1.53893 2.8704,-2.10113 3.7157,-1.5751 0.9766,0.60775 -0.013,2.27055 -3.8504,6.46915 -4.9268,5.39078 -6.7844,6.49753 -8.3229,4.959 z m -5.5369,-4.22226 c -2.4161,-1.52985 -0.4596,-4.08697 3.1143,-4.0703 4.646,0.0217 6.546,1.35847 4.8447,3.40847 -1.423,1.71462 -5.7307,2.07282 -7.959,0.66183 z m -21.8863,-2.4275 -3.282,-1.18974 3.8242,-3.73419 c 2.1033,-2.0538 4.5661,-3.73418 5.4729,-3.73418 2.9373,0 3.0491,2.09599 0.2669,5 -1.4952,1.56061 -2.4178,3.32405 -2.0502,3.91874 0.8187,1.32474 0,1.2745 -4.2318,-0.26063 z m 5.782,-0.50312 c 0,-0.46476 0.9334,-1.68969 2.0741,-2.72207 1.32,-1.19457 1.9158,-2.70531 1.6387,-4.15499 -0.5009,-2.62044 0.993,-2.94977 3.8461,-0.84785 1.8782,1.38376 1.8295,1.54569 -1.5051,5 -3.2406,3.35699 -6.0538,4.62325 -6.0538,2.72491 z m -10.0494,-3.18555 c -1.1464,-0.7085 -0.7512,-1.57992 2.0071,-4.42582 1.8891,-1.94899 4.2464,-3.54362 5.2385,-3.54362 2.5111,0 2.3221,0.46361 -2.0072,4.92468 -2.7346,2.81779 -4.2142,3.67779 -5.2384,3.04476 z m -40.9506,-13.8346 c 0,-0.47583 0.9436,-2.06471 2.0968,-3.53085 1.6891,-2.14723 1.8597,-2.95145 0.8776,-4.13486 -1.4894,-1.7946 0.1254,-2.02129 3.0913,-0.43397 2.6608,1.424 2.4257,3.11989 -0.8704,6.27773 -2.7696,2.6534 -5.1953,3.50409 -5.1953,1.82195 z m -10.7343,-2.8723 c -1.7539,-0.59505 4.596,-8.26256 6.8426,-8.26256 0.9755,0 1.98,0.3375 2.2322,0.75 0.6808,1.11356 -7.6379,8.00011 -9.0748,7.51256 z m -441.62109,24.98744 c 2.43524,-2.6125 7.44415,-8.2375 11.13093,-12.5 5.53478,-6.39907 7.21725,-7.75 9.65204,-7.75 1.62185,0 11.93101,2.96393 22.90926,6.5865 13.83579,4.5655 20.51809,6.32983 21.77783,5.75 2.48773,-1.14505 24.88539,-26.43764 24.88539,-28.10186 0,-0.73518 -1.575,-1.99477 -3.5,-2.79909 -2.80312,-1.17122 -3.5,-2.01274 -3.5,-4.22646 0,-5.17531 -2.28448,-6.80731 -15.74829,-11.25036 -7.01344,-2.31443 -13.10162,-4.52437 -13.5293,-4.91098 -0.42767,-0.38661 2.59682,-4.49301 6.72108,-9.12534 4.12427,-4.63232 7.51168,-9.18078 7.52759,-10.10768 0.0177,-1.03134 -1.32917,-2.17637 -3.47108,-2.95089 -3.00353,-1.08609 -3.5,-1.71788 -3.5,-4.45394 0,-1.75358 -0.7875,-4.09314 -1.75,-5.19901 -2.53972,-2.91803 -32.3206,-12.57393 -36.17186,-11.72805 -2.09839,0.46088 -6.11524,4.18851 -14.09578,13.08086 -6.1386,6.83997 -11.45838,12.43162 -11.82173,12.42589 -0.36335,-0.006 -9.43068,-2.93072 -20.14962,-6.5 -23.23217,-7.73602 -25.86724,-7.97102 -30.7194,-2.73959 -10.84051,11.68785 -14.33207,16.21521 -14.92821,19.35674 -0.35414,1.86629 -2.19818,5.32074 -4.09787,7.67654 -1.89968,2.3558 -3.2104,4.918 -2.91271,5.69378 0.30593,0.79723 8.93404,4.11939 19.84422,7.64082 10.61663,3.42667 19.46688,6.35338 19.66722,6.50381 0.20034,0.15042 -1.89325,2.88458 -4.65242,6.0759 -2.7694,3.20316 -5.49286,7.55695 -6.07968,9.71913 -0.58466,2.1542 -2.53013,5.4304 -4.32327,7.28045 -2.61857,2.70169 -3.05216,3.70217 -2.20299,5.08328 1.08927,1.7716 41.74364,15.94522 46.25253,16.12534 1.59634,0.0638 3.78917,-1.44068 6.78612,-4.65579 z m -25.39455,-2.01125 -17.25,-5.59947 0,-6.31964 c 0,-3.4758 0.12937,-6.31964 0.28748,-6.31964 0.15812,0 7.02062,2.27384 15.25,5.05298 10.38651,3.50761 15.95647,4.90308 18.21252,4.56287 l 3.25,-0.49011 0,7.43713 c 0,5.32618 -0.3548,7.41417 -1.25,7.35624 -0.6875,-0.0445 -9.0125,-2.60065 -18.5,-5.68036 z m 22.77883,-4.31444 0.0288,-7.42431 4.72117,-5.04817 c 2.59667,-2.77649 7.1962,-7.78718 10.2212,-11.13485 l 5.5,-6.08668 19.5,6.37597 c 11.45012,3.74389 21.25446,6.37964 23.75,6.38485 l 4.25,0.009 0,6.83333 c 0,3.75834 -0.26899,7.10233 -0.59777,7.4311 -1.03623,1.03623 -3.39919,-0.40734 -3.47252,-2.12142 -0.0621,-1.45176 -0.1494,-1.4608 -0.75,-0.0776 -0.58208,1.34055 -3.46118,0.66806 -20.0439,-4.68183 -14.1632,-4.56931 -19.95375,-6.0231 -21.55921,-5.4127 -1.20726,0.459 -5.38877,4.59082 -9.29225,9.18183 -3.90347,4.59101 -8.26432,9.43823 -9.69078,10.7716 l -2.59357,2.42432 0.0288,-7.42432 z m -47.77883,-3.95547 c -2.96761,-1.19284 -2.84034,-2.28831 0.72069,-6.20306 l 2.97068,-3.26578 0.0293,5.25 c 0.0308,5.51007 -0.11032,5.67003 -3.72069,4.21884 z m 118.79628,-8.50746 -0.0463,-7.03862 6.1341,-6.96138 c 3.37376,-3.82876 6.29876,-7.14888 6.5,-7.37805 0.20125,-0.22916 0.36197,2.92084 0.35716,7 l -0.009,7.41667 -6.44497,7 -6.44498,7 -0.0463,-7.03862 z m -94.93937,-2.91708 c -7.3662,-2.43677 -13.78965,-4.82704 -14.27433,-5.31172 -1.01196,-1.01196 3.5974,-7.4363 12.78737,-17.82253 3.45034,-3.89947 6.40986,-7.65457 6.5767,-8.34467 0.2836,-1.17306 -3.61233,-2.72396 -32.69665,-13.01596 -5.81704,-2.05846 -8.06373,-3.33827 -8.23355,-4.69018 -0.36451,-2.90173 13.71424,-17.60924 16.85643,-17.60924 1.38288,0 11.88565,3.01583 23.33948,6.70184 l 20.82515,6.70184 6.09912,-6.82684 c 9.15127,-10.24315 18.82585,-19.3284 20.56734,-19.31448 0.85032,0.007 8.07103,2.1443 16.04603,4.75 12.72595,4.158 14.5,5.00177 14.5,6.89649 0,1.28124 -3.98898,6.84917 -9.81263,13.69673 -5.39694,6.34584 -9.76676,11.89936 -9.71069,12.34116 0.0561,0.44179 9.42174,3.95326 20.81262,7.80326 14.73877,4.98155 20.79766,7.47206 21.01228,8.63712 0.41843,2.27137 -12.25813,16.50967 -15.4011,17.2985 -1.55196,0.38952 -5.74837,-0.33196 -10.725,-1.84392 -4.49651,-1.3661 -11.55048,-3.44571 -15.67548,-4.62137 -4.125,-1.17566 -10.3125,-2.96818 -13.75,-3.98337 -5.22419,-1.54284 -6.25,-1.61118 -6.25,-0.41638 0,0.78618 -0.38424,1.42942 -0.85387,1.42942 -0.85292,0 -13.83275,12.99422 -18.29154,18.31183 -3.80115,4.53329 -8.14839,4.39279 -23.74768,-0.76753 z m 19.25119,-7.54721 c 5.42195,-1.74949 9.47195,-3.5197 9,-3.93379 -1.46017,-1.28116 -24.20318,-8.88488 -24.79747,-8.2906 -0.73593,0.73593 -0.72629,13.63202 0.0116,15.55499 0.63358,1.65109 -0.19493,1.82589 15.78585,-3.3306 z m -14.71753,-3.16187 c -0.35439,-3.39062 -0.49856,-6.31057 -0.32036,-6.48876 0.55288,-0.55289 18.67979,5.7904 18.67979,6.53677 0,0.59199 -15.50564,6.11677 -17.16709,6.11677 -0.3014,0 -0.83795,-2.77415 -1.19234,-6.16478 z m 87.35943,-7.84697 c 0,-1.30255 -13.13108,-15.12766 -14.02227,-14.76341 -1.12991,0.46183 -12.97773,14.14356 -12.97773,14.98654 0,0.43374 6.075,0.78862 13.5,0.78862 8.43789,0 13.5,-0.37938 13.5,-1.01175 z m -19.91871,-5.98825 c 2.87026,-3.3 5.50403,-6 5.85284,-6 0.8736,0 11.06587,10.39083 11.06587,11.28145 0,0.3952 -4.9809,0.71855 -11.06867,0.71855 l -11.06868,0 5.21864,-6 z m -29.09201,-7.75155 c 4.62183,-2.31596 6.11101,-6.36259 3.44311,-9.35618 -8.01179,-8.98987 -29.6172,-4.08017 -24.45893,5.55814 2.83329,5.29405 14.00215,7.31252 21.01582,3.79804 z m -10.98928,-0.26108 c -4.02646,-0.70988 -7.12848,-2.23233 -8.90164,-4.36885 -2.84993,-3.43395 3.8904,-8.64493 11.11952,-8.59656 1.80517,0.0121 5.19462,0.89008 7.53212,1.95111 3.6331,1.64913 4.25,2.36659 4.25,4.94285 0,2.09244 -0.68062,3.37797 -2.22647,4.20529 -3.4267,1.83391 -7.9183,2.54585 -11.77353,1.86616 z m -32.62257,-16.38693 c 3.64241,-4.06975 6.62257,-7.66975 6.62257,-8 0,-0.88097 -26.80187,-0.73431 -27.33073,0.14956 -0.47567,0.79495 12.22252,15.25 13.39652,15.25 0.37899,0 3.66923,-3.3298 7.31164,-7.39956 z m -12.73183,0.66039 -5.58813,-5.76083 5.47127,-0.2999 c 3.00919,-0.16495 7.90197,-0.16495 10.87283,0 l 5.40157,0.2999 -5.28471,5.76083 -5.2847,5.76082 -5.58813,-5.76082 z m 81.34571,-10.01083 c -0.005,-2.0625 -0.2856,-6.05457 -0.62405,-8.87127 l -0.61535,-5.12127 -12.37596,4.09679 c -6.80677,2.25323 -12.3757,4.3328 -12.3754,4.62127 6.2e-4,0.58618 22.78751,8.82277 24.74945,8.94598 0.79315,0.0498 1.24682,-1.29205 1.24131,-3.6715 z m -12.17132,-1.07837 c -4.224,-1.46939 -7.91912,-2.91675 -8.21137,-3.21634 -0.29226,-0.29959 3.72624,-1.94715 8.93,-3.66123 l 9.46138,-3.11651 0.11402,3.66122 c 0.0627,2.01368 0.26075,4.89873 0.44009,6.41123 0.40973,3.45559 -0.59636,3.44824 -10.73412,-0.0784 z m 54.18001,47.41003 c 0,-3.96291 0.28328,-4.67459 1.75,-4.39643 2.58024,0.48932 2.76621,5.03763 0.29733,7.27193 -2.03568,1.84227 -2.04733,1.82591 -2.04733,-2.8755 z m -133.25,-11.77684 -14.75,-4.97149 0,-5.91666 c 0,-4.32648 0.3661,-5.91667 1.36215,-5.91667 1.9839,0 34.96182,11.09393 36.10627,12.14632 0.60243,0.55397 -0.72034,2.54198 -3.5,5.26026 l -4.46842,4.36974 -14.75,-4.9715 z m -23.79913,-8.36402 c -1.09537,-1.31984 -0.80714,-2.04607 1.87756,-4.73077 l 3.17157,-3.17157 0,4.73077 c 0,3.96126 -0.3054,4.73077 -1.87756,4.73077 -1.03265,0 -2.45986,-0.70164 -3.17157,-1.5592 z m 120.79357,-7.11794 c -2.60944,-0.76087 -4.74444,-1.72941 -4.74444,-2.15229 0,-0.76309 6.0752,-7.9559 13.225,-15.65791 l 3.72499,-4.01269 -0.016,7.5 c -0.0154,7.24148 -0.14404,7.64143 -3.73055,11.60315 l -3.71454,4.10316 -4.74445,-1.38342 z m 14.25556,-15.1679 c 0,-2.83525 0.1882,-5.15499 0.41821,-5.15499 3.84031,0 4.86856,5.52551 1.58179,8.5 -1.97543,1.78774 -2,1.74663 -2,-3.34501 z m 425.99994,63.9124 c 0,-0.97401 -1.3316,-1.48179 -6.7385,-2.56967 -4.7259,-0.95084 -5.0107,-2.49717 -0.4104,-2.2283 2.1698,0.12682 3.7828,0.49777 3.5845,0.82432 -0.1983,0.32656 1.1816,1.06702 3.0663,1.64545 2.6601,0.81643 3.6769,0.75028 4.545,-0.2957 3.2492,-3.9151 -2.5497,-8.81363 -10.5248,-8.89064 -4.6797,-0.0452 -5.8731,0.3472 -8.2355,2.70795 -3.2787,3.27634 -2.593,5.24063 2.7883,7.98765 3.6045,1.84003 11.9251,2.41143 11.9251,0.81894 z m -11.75,-1.55826 c -6.3068,-2.74119 -2.6147,-8.65086 5.2225,-8.3593 3.4007,0.12652 3.5606,0.21735 1.0275,0.58367 -5.0468,0.72982 -8.3302,5.01736 -5.284,6.90002 0.6689,0.41335 2.8064,1.06316 4.75,1.44401 3.4039,0.66697 3.4235,0.69527 0.534,0.76833 -1.65,0.0417 -4.4625,-0.55981 -6.25,-1.33673 z m 13.2023,-1.32511 c -0.5238,-0.37621 -0.9973,-1.24652 -1.0523,-1.93402 -0.2203,-2.75385 -0.443,-3.25 -1.459,-3.25 -0.5825,0 -0.8211,0.38499 -0.5303,0.85554 0.2908,0.47055 -0.6951,0.61856 -2.191,0.32891 l -2.7197,-0.52664 2.9684,-0.80083 c 3.3022,-0.89088 7.5316,1.13467 7.5316,3.60706 0,1.76191 -1.2833,2.62826 -2.5477,1.71998 z m -21.4299,-5.70714 c 1.8781,-1.93771 3.9585,-3.31446 4.6231,-3.05944 1.6963,0.65094 3.8217,-2.01064 2.3379,-2.92769 -0.7686,-0.47502 -0.5939,-1.26264 0.5637,-2.5418 1.5888,-1.75564 1.5374,-1.88865 -0.9751,-2.51925 -1.7498,-0.43916 -3.2345,-0.15003 -4.3623,0.84954 -0.9403,0.83341 -2.6097,1.68262 -3.7097,1.88715 -1.2622,0.23469 -2,1.16248 -2,2.51516 0,1.17882 -1.0596,3.27462 -2.3548,4.65735 -1.2951,1.38272 -2.056,2.99736 -1.691,3.58807 1.2465,2.01685 4.1505,1.07712 7.5682,-2.44909 z m -6.0224,1.7629 c 0,-0.41812 1.125,-1.97348 2.5,-3.45635 1.375,-1.48288 2.5,-2.96237 2.5,-3.28775 0,-1.28115 5.5078,-5.23805 6.6702,-4.792 1.6995,0.65217 -0.04,3.47979 -5.1702,8.40578 -3.7237,3.57523 -6.5,4.91227 -6.5,3.13032 z m -23.0221,-10.98978 c 1.7517,-2.0625 4.5486,-5.19925 6.2152,-6.97056 l 3.0302,-3.22056 -2.582,-1.17646 c -2.0247,-0.92249 -2.9175,-0.89808 -4.1359,0.11306 -0.8545,0.70924 -1.3428,1.50044 -1.085,1.75824 0.2578,0.25779 -0.851,1.57914 -2.4639,2.93632 -1.6129,1.35719 -3.9017,3.82867 -5.0863,5.49218 -1.7742,2.49166 -1.9084,3.17985 -0.7619,3.90586 2.3965,1.51759 3.5883,1.02524 6.8696,-2.83808 z m -5.5313,1.66359 c -0.7793,-1.26093 5.3151,-7.91359 7.2496,-7.91359 1.9144,0 1.6396,0.78827 -1.7802,5.1061 -3.2123,4.05587 -4.3401,4.63476 -5.4694,2.80749 z m 8.5534,-10.91359 c 0,-0.55 0.9,-1 2,-1 1.1,0 2,0.45 2,1 0,0.55 -0.9,1 -2,1 -1.1,0 -2,-0.45 -2,-1 z m -9.5526,3.51708 c 3.1305,-3.56561 5.4089,-6.94061 5.0632,-7.5 -1.387,-2.24419 -5.3058,-0.97442 -8.0347,2.60343 -3.0773,4.03446 -3.7248,3.62563 -4.9395,-3.11822 -1.3685,-7.59859 -5.3357,-7.41383 -12.0363,0.56055 -6.0297,7.17595 -6.1954,7.58169 -3.4503,8.45294 1.6602,0.52691 3.0332,-0.1673 5.9348,-3.00066 l 3.775,-3.68616 1.2216,5.0926 c 1.1372,4.74045 2.9272,6.97471 5.6467,7.04803 0.6203,0.0167 3.6891,-2.88691 6.8195,-6.45251 z m -8.6601,4.79456 c -1.1876,-0.30781 -2.0706,-2.26324 -2.8801,-6.37778 -0.6421,-3.26362 -1.5209,-5.93386 -1.9532,-5.93386 -0.4322,0 -2.2115,1.8 -3.9539,4 -3.0892,3.90048 -6.0385,5.26084 -5.9619,2.75 0.07,-2.30711 9.3544,-11.32075 11.2686,-10.94044 1.9314,0.38373 3.6835,3.92954 3.7085,7.50554 0.01,1.20169 0.4656,2.8599 1.0159,3.6849 0.8252,1.2371 1.6872,0.71129 4.9179,-3 3.0893,-3.54886 4.1781,-4.24269 5.1514,-3.28263 0.9757,0.96233 0.2081,2.32405 -3.6638,6.5 -5.4103,5.83511 -5.2368,5.71958 -7.6494,5.09427 z M 726.06596,245.17558 c -38.33479,-2.95718 -115,-13.61439 -115,-15.98611 0,-1.92115 25.82593,-4.88333 42.78941,-4.90785 25.80486,-0.0373 42.81787,3.11808 75.21059,13.94923 l 23.5,7.85769 -8,-0.0515 c -4.4,-0.0283 -12.725,-0.41598 -18.5,-0.86147 z"
     id="path12943"
     inkscape:connector-curvature="0" />
</svg>
