<?xml version="1.0" encoding="UTF-8" standalone="no"?><!DOCTYPE svg PUBLIC "-//W3C//DTD SVG 1.1//EN" "http://www.w3.org/Graphics/SVG/1.1/DTD/svg11.dtd"><svg width="100%" height="100%" viewBox="0 0 2363 438" version="1.1" xmlns="http://www.w3.org/2000/svg" xmlns:xlink="http://www.w3.org/1999/xlink" xml:space="preserve" xmlns:serif="http://www.serif.com/" style="fill-rule:evenodd;clip-rule:evenodd;stroke-linejoin:round;stroke-miterlimit:2;"><g><path d="M1698.92,256.438l-32.805,0l0,-110.938l120.796,0c20.875,0 37.179,14.796 37.75,35.692l0,75.254l-30.975,0l0,-68.963c0,-10.258 -6.037,-17.362 -16.208,-18.3c-5.579,-0.512 -11.233,-0.091 -17.279,-0.091l0,87.354l-32.417,0l0,-87.963l-28.862,0l0,87.955Z" style="fill:#fff;fill-rule:nonzero;"/><path d="M2197.72,256.438l-32.804,0l0,-110.938l120.791,0c20.88,0 37.184,14.796 37.755,35.692l0,75.254l-30.975,0l0,-68.963c0,-10.258 -6.038,-17.362 -16.209,-18.3c-5.579,-0.512 -11.233,-0.091 -17.279,-0.091l0,87.354l-32.417,0l0,-87.963l-28.862,0l0,87.955Z" style="fill:#fff;fill-rule:nonzero;"/><path d="M1301.79,214.121c10.475,13.821 21.366,28.146 32.104,42.316l-36.842,0l-28.225,-41.137l-31.375,0l0,41.137l-32.312,0l0,-110.937l4.683,0c28.254,0 56.504,-0.017 84.75,0c23.025,0.013 39.517,20.758 34.887,43.133c-2.55,12.359 -10.504,19.946 -22.216,23.896c-1.625,0.55 -3.284,0.971 -5.454,1.592Zm-64.259,-18.733l42.625,0c2.234,-0.025 4.554,-0.996 6.663,-1.888c4.691,-2 7.941,-5.2 7.962,-10.779c0.021,-5.909 -2.15,-10.613 -7.837,-12.763c-3.184,-1.2 -6.713,-1.941 -10.108,-2.008l-39.309,0c0.004,0 0.004,18.442 0.004,27.438Z" style="fill:#fff;fill-rule:nonzero;"/><path d="M1647.75,256.4l-82.371,0c-6.125,-0.083 -12.45,-1.192 -18.283,-3.029c-15.192,-4.767 -23.133,-16.758 -22.242,-32.263c0.913,-15.85 10.934,-28.025 25.975,-31.25c3.513,-0.75 7.167,-1.125 10.754,-1.15l52.559,0c1.441,0 -1.438,0 0,0c-0.188,-12.1 -10.171,-21.895 -22.959,-21.945l-57.466,0l0,-21.263l67.229,0c25.825,0 46.017,19.313 46.804,45.063l0,65.841l0,-0.004Zm-32.567,-46.812l-40.32,0c-8.542,0 -14.346,5.112 -14.48,12.733c-0.116,7.404 5.471,12.3 14.163,12.317l40.633,0c0.004,0 0.004,-16.134 0.004,-25.05Z" style="fill:#fff;fill-rule:nonzero;"/><path d="M676.558,256.396l0,-21.784l72.559,-0.004c6.7,0 10.787,-3.333 12.221,-9.908c1.058,-4.846 -1.98,-9.813 -7.825,-11.979c-2.659,-0.979 -5.617,-1.542 -8.438,-1.571l-44.75,0c-18.258,-0.271 -28.921,-11.133 -30.567,-30.442c-1.279,-15.037 9.8,-32.204 24.8,-35.204l95.442,0l0,22.35l-4.6,0c-21.288,0 -42.583,-0.012 -63.871,0.021c-2.012,0.004 -4.058,0.167 -6.029,0.529c-5.013,0.946 -8.729,4.017 -9.638,8.85c-0.895,4.742 1.209,9.167 5.175,12.163c1.226,0.925 3.201,1.362 4.834,1.371l48.225,0c11.954,0.341 23.187,3.412 29.262,15.162c10.6,20.517 2.43,49.988 -28.775,50.442l-88.025,0l0,0.004Z" style="fill:#fff;fill-rule:nonzero;"/><path d="M2081.12,142.963c12.392,0.408 24.429,1.82 35.7,7.012c15.675,7.221 27.392,18.588 30.721,35.817c4.179,21.708 0.35,41.991 -17.038,57.487c-9.866,8.804 -22.341,12.675 -35.112,14.875c-19.838,3.413 -38.833,0.2 -56.829,-8.879c-16.834,-8.483 -23.888,-23.179 -25.796,-40.983c-0.954,-8.959 -0.763,-17.929 2.029,-26.629c6.592,-20.492 21.883,-30.992 41.867,-35.488c7.987,-1.792 12.583,-2.942 24.458,-3.213Zm36.117,57.996c-0.096,-2.016 -0.171,-4.046 -0.292,-6.066c-0.942,-15.146 -9.833,-26.571 -23.7,-30.209c-8.125,-2.129 -16.375,-1.887 -24.504,-0.183c-11.804,2.471 -19.513,9.704 -22.888,21.217c-2.691,9.162 -2.683,18.612 -1.108,27.945c1.821,10.825 8.379,18.192 18.817,21.08c6.275,1.741 13.079,2.391 19.616,2.237c22.267,-0.542 34.588,-13.842 34.059,-36.021Z" style="fill:#fff;fill-rule:nonzero;"/><path d="M1187.68,189.996l0,21.075l-76.971,0c0.204,13.312 9.592,22.779 22.304,22.792c16.513,0.02 54.092,0.004 54.092,0.004l0,22.47l-62.225,0c-30.942,-1.424 -49.787,-23.249 -48.754,-51.908c0.337,-9.437 0.962,-18.75 4.479,-27.658c7.604,-19.271 25.104,-31.267 45.725,-31.267l61.367,0l0,22.442c0,0 -42.004,-0.129 -52.142,-0.088c-12.358,0.063 -22.642,9.275 -24.279,22.134c25.429,0.004 50.804,0.004 76.404,0.004Z" style="fill:#fff;fill-rule:nonzero;"/><path d="M894.996,233.754l0,-88.25l31.629,0l0,110.904l-83.254,0.034c-10.283,0.037 -18.563,-3.942 -25.013,-11.75c-6.125,-7.413 -9.883,-15.438 -9.608,-25.671c0.6,-22.146 0.179,-73.517 0.179,-73.517l31.729,0l-0.137,70.896c-0.225,10.412 5.554,16.496 15.175,17.354l39.3,0Z" style="fill:#fff;fill-rule:nonzero;"/><path d="M976.458,218.942l0,37.466l-30.854,0l0,-110.904l84.204,0c14.9,-0.4 29.867,10.708 34.296,27.196c6.471,24.079 -10.333,46.129 -35.417,46.229c-15.937,0.071 -31.875,0.013 -47.816,0.013l-4.413,0Zm1.042,-21.588l42.692,0c1.721,-0.025 3.612,-1.112 5.112,-2.121c4.671,-3.141 7.904,-11.741 6.409,-16.45c-2.346,-7.358 -7.046,-10.896 -14.788,-10.929l-39.425,0l0,29.5Z" style="fill:#fff;fill-rule:nonzero;"/><path d="M1516.19,145.508l0,21.267l-54.142,0c-9.188,0.262 -17.046,4.604 -22.429,12.171c-1.833,2.591 -2.963,5.858 -3.213,10.3l78.417,0l0,23.479l-78.708,0l0,43.725l-31.971,0l0,-65.571c0,-23.712 17.983,-44.592 41.75,-45.362l70.296,-0.009Z" style="fill:#fff;fill-rule:nonzero;"/><path d="M2002.96,234.679l0,21.763l-58.504,0c-24.242,0 -42.692,-14.259 -48.591,-37.855c-4.601,-18.408 -2.484,-37.02 7.945,-53.062c8.667,-13.342 21.371,-19.983 37.35,-20.017l62.429,0l0,21.942l-53.008,0c-10.396,0.004 -17.096,4.817 -20.542,14.629c-4.02,11.45 -4.716,24.221 -0.954,35.934c3.484,10.85 11.788,16.67 23.15,16.67l50.725,0l0,-0.004Z" style="fill:#fff;fill-rule:nonzero;"/><path d="M1300.72,357.496l0,-20.021l77.112,0l0,-33.104l-75.717,0l0,-19.167l92.375,0l0,72.292l-93.77,0Z" style="fill:#fff;fill-rule:nonzero;"/><path d="M672.358,303.888l0,-19.546l77.059,0c1.975,14.05 1.033,27.637 -3.679,40.833c-0.434,1.217 -1.188,3.375 -1.188,3.375c0,0 14.304,20.117 20.763,29.087l-21.559,0c0,0 -7.354,-9.929 -10.225,-14.016c-1.479,1.175 -2.808,2.225 -4.133,3.279c-8.984,7.179 -18.913,11.4 -30.721,10.921l-28.912,0l0,-19.792c0,0 13.512,0.067 20.254,-0.012c8.55,-0.1 16.996,-0.734 25.116,-3.925c12.555,-4.942 20.005,-16.188 19.334,-30.204l-62.109,0Z" style="fill:#fff;fill-rule:nonzero;"/><rect x="1844.37" y="145.508" width="34.217" height="111.008" style="fill:#fff;"/><path d="M1024.65,357.538l0,-19.93l39.825,0c16.221,0.829 28.941,-9.445 28.521,-29.458c-0.025,-1.279 -0.188,-2.55 -0.309,-4.15l-72.854,0l0,-18.875l88.117,0l0,35.642c-0.079,3.387 -1.146,6.896 -2.346,10.112c-5.979,15.963 -18.1,25.267 -34.563,26.667l-46.391,-0.009Z" style="fill:#fff;fill-rule:nonzero;"/><path d="M1115.38,318.896l0,-17.183l77.567,0l0,25.27c0,10.096 -7.104,14.459 -35.821,14.459c0,0 -0.259,4.525 -1.163,5.787c-3.025,7.517 -8.904,10.617 -17.466,10.617l-18.88,0l0,-17.679l18.517,0c6.171,0 7.759,-1.355 8.767,-7.555c0.3,-1.85 0.529,-3.72 0.846,-5.933c7.962,0 15.895,0.033 23.837,-0.008c5.375,-0.025 6.992,-1.721 7.213,-7.767c-21.067,-0.008 -42.125,-0.008 -63.417,-0.008Z" style="fill:#fff;fill-rule:nonzero;"/><path d="M1496.42,285.825l0,40.738c-3.296,22.72 -23.809,31.387 -38.871,30.933l-53.183,0l0,-20.021l54.7,0c11.262,0.571 22.704,-9.958 22.533,-23.117c-0.104,-8.254 -0.017,-16.512 -0.017,-24.77l0,-3.763l14.838,0Z" style="fill:#fff;fill-rule:nonzero;"/><path d="M879.329,284.292l16.871,0l0,23.82c0,1.592 0.087,3.196 -0.017,4.78c-1.22,18.771 11.925,24.291 24.167,24.287l4.958,0l0,19.946c-27.129,1.575 -44.837,-10.508 -45.916,-37.154c-0.425,-10.404 -0.071,-20.85 -0.071,-31.271c0.008,-1.412 0.008,-2.825 0.008,-4.408Z" style="fill:#fff;fill-rule:nonzero;"/><path d="M1291.97,334.704l-91.008,-11.491l0,-17.646l91.008,10.879l0,18.258Z" style="fill:#fff;fill-rule:nonzero;"/><path d="M1291.97,310.721l-91.008,-11.488l0,-17.654l91.008,10.888l0,18.254Z" style="fill:#fff;fill-rule:nonzero;"/><path d="M1292.05,340.929l0,18.183c-30.446,-3.837 -60.663,-7.649 -91.146,-11.495l0,-17.909c30.275,3.325 60.604,7.859 91.146,11.221Z" style="fill:#fff;fill-rule:nonzero;"/><path d="M826.183,356.983l0,-19.85c3.992,-0.295 7.888,-0.316 11.688,-0.916c11.112,-1.754 17.579,-9.45 17.621,-20.679c0.037,-9.967 0.008,-19.942 0.008,-30.255l16.946,0c0,8.163 0.125,16.363 0,24.567c-0.083,5.479 0.187,11.092 -0.879,16.408c-3.779,18.809 -15.238,28.446 -34.95,30.121c-3.396,0.296 -6.821,0.4 -10.434,0.604Z" style="fill:#fff;fill-rule:nonzero;"/><rect x="757.842" y="311.667" width="69.704" height="18.525" style="fill:#fff;fill-rule:nonzero;"/><rect x="926.158" y="310.992" width="69.771" height="18.196" style="fill:#fff;fill-rule:nonzero;"/><rect x="1404.43" y="285.204" width="55.075" height="19.167" style="fill:#fff;fill-rule:nonzero;"/><path d="M926.933,296.858c-0.008,7.509 -6.07,13.538 -13.516,13.454c-7.23,-0.087 -13.209,-6.033 -13.334,-13.275c-0.129,-7.425 5.904,-13.562 13.363,-13.591c7.525,-0.029 13.496,5.912 13.487,13.412Zm-8.17,-0.171c-0.096,-3.058 -2.817,-5.708 -5.676,-5.691c-3.024,0.025 -5.849,3.029 -5.491,6.066c0.387,3.376 2.542,5.346 5.821,5.217c3.337,-0.129 5.033,-2.458 5.346,-5.591Z" style="fill:#fff;fill-rule:nonzero;"/><g><path d="M1510.78,297.829l0,-17.625l7.817,0c1.575,0 2.767,0.159 3.583,0.475c0.809,0.317 1.471,0.875 1.959,1.671c0.487,0.8 0.737,1.688 0.737,2.662c0,1.25 -0.404,2.305 -1.217,3.163c-0.8,0.854 -2.054,1.4 -3.745,1.637c0.616,0.292 1.087,0.592 1.412,0.875c0.671,0.621 1.321,1.405 1.933,2.346l3.067,4.796l-2.942,0l-2.333,-3.667c-0.679,-1.058 -1.246,-1.866 -1.683,-2.425c-0.438,-0.57 -0.834,-0.958 -1.184,-1.183c-0.341,-0.221 -0.7,-0.375 -1.058,-0.462c-0.262,-0.059 -0.7,-0.088 -1.304,-0.088l-2.7,0l0,7.825l-2.342,0Zm2.33,-9.85l5.016,0c1.067,0 1.904,-0.108 2.504,-0.329c0.604,-0.221 1.067,-0.571 1.371,-1.058c0.304,-0.484 0.463,-1.009 0.463,-1.579c0,-0.834 -0.292,-1.521 -0.9,-2.059c-0.609,-0.533 -1.567,-0.804 -2.867,-0.804l-5.587,0l0,5.829Z" style="fill:#fff;fill-rule:nonzero;"/></g><g><path d="M1517.67,305.629c-9.038,0 -16.388,-7.362 -16.388,-16.396c0,-9.033 7.354,-16.387 16.388,-16.387c9.025,0 16.383,7.354 16.383,16.387c0,9.034 -7.35,16.396 -16.383,16.396Zm0,-29.833c-7.409,0 -13.442,6.025 -13.442,13.442c0,7.416 6.029,13.445 13.442,13.445c7.404,0 13.437,-6.029 13.437,-13.445c0,-7.417 -6.033,-13.442 -13.437,-13.442Z" style="fill:#fff;fill-rule:nonzero;"/></g><g><g><path d="M2338.93,154.1l0,-17.629l7.817,0c1.575,0 2.771,0.158 3.587,0.475c0.8,0.316 1.471,0.875 1.959,1.671c0.483,0.804 0.729,1.687 0.729,2.662c0,1.25 -0.396,2.3 -1.208,3.159c-0.8,0.858 -2.063,1.4 -3.75,1.633c0.616,0.296 1.091,0.596 1.416,0.875c0.671,0.625 1.321,1.408 1.929,2.346l3.067,4.796l-2.938,0l-2.337,-3.663c-0.675,-1.062 -1.242,-1.867 -1.679,-2.429c-0.438,-0.567 -0.838,-0.958 -1.184,-1.183c-0.341,-0.225 -0.7,-0.375 -1.058,-0.467c-0.266,-0.058 -0.704,-0.088 -1.304,-0.088l-2.7,0l0,7.825l-2.342,0l0,0.017l-0.004,0Zm2.329,-9.85l5.021,0c1.063,0 1.896,-0.108 2.508,-0.329c0.596,-0.221 1.055,-0.571 1.371,-1.058c0.3,-0.484 0.454,-1.013 0.454,-1.58c0,-0.837 -0.291,-1.52 -0.904,-2.058c-0.608,-0.533 -1.566,-0.808 -2.866,-0.808l-5.584,0l0,5.833Z" style="fill:#fff;fill-rule:nonzero;"/></g><g><path d="M2345.82,161.896c-9.034,0 -16.388,-7.359 -16.388,-16.392c0,-9.033 7.363,-16.392 16.388,-16.392c9.033,0 16.387,7.359 16.387,16.392c0,9.033 -7.354,16.392 -16.387,16.392Zm0,-29.829c-7.409,0 -13.442,6.025 -13.442,13.441c0,7.417 6.029,13.446 13.442,13.446c7.412,0 13.441,-6.029 13.441,-13.446c0,-7.416 -6.033,-13.441 -13.441,-13.441Z" style="fill:#fff;fill-rule:nonzero;"/></g></g><g><path id="path2842" d="M265.021,266.654c0.004,36.592 -59.313,66.263 -132.509,66.263c-73.179,0.004 -132.512,-29.659 -132.516,-66.25l0,-0.009c-0.004,-36.591 59.317,-66.258 132.5,-66.258c73.179,0 132.517,29.662 132.521,66.246l0.004,0.008Z" style="fill:#01954b;fill-rule:nonzero;"/><path id="path3624" d="M493.225,371.363c0.012,36.579 -59.304,66.258 -132.492,66.258c-73.179,0 -132.512,-29.663 -132.525,-66.25l0,-0.008c-0.008,-36.596 59.313,-66.259 132.5,-66.259c73.188,0 132.509,29.646 132.517,66.242l0,0.017Z" style="fill:#f9ec2b;fill-rule:nonzero;"/><path id="path3644" d="M269.888,0c-66.792,0 -121.071,53.383 -122.655,119.858c2.775,-0.196 5.538,-0.312 8.359,-0.312c67.787,0 122.737,55.008 122.737,122.854c0,1.008 -0.05,1.996 -0.075,3c63.896,-4.287 114.367,-57.504 114.367,-122.546c0,-67.846 -54.946,-122.854 -122.734,-122.854Z" style="fill:#323b98;fill-rule:nonzero;"/><path id="path3897" d="M502.229,107.613c-67.766,0 -122.696,54.966 -122.696,122.766c0,1.513 0.021,3.042 0.079,4.529c1.634,-0.058 3.25,-0.145 4.905,-0.145c66.237,0 120.221,52.545 122.621,118.241c65.5,-2.562 117.783,-56.446 117.783,-122.612c0.008,-67.813 -54.925,-122.779 -122.692,-122.779Z" style="fill:#eb2d2f;fill-rule:nonzero;"/></g></g></svg>