<?xml version="1.0" encoding="UTF-8" standalone="no"?>
<!-- Created with Inkscape (http://www.inkscape.org/) -->

<svg
   xmlns:dc="http://purl.org/dc/elements/1.1/"
   xmlns:cc="http://creativecommons.org/ns#"
   xmlns:rdf="http://www.w3.org/1999/02/22-rdf-syntax-ns#"
   xmlns:svg="http://www.w3.org/2000/svg"
   xmlns="http://www.w3.org/2000/svg"
   xmlns:sodipodi="http://sodipodi.sourceforge.net/DTD/sodipodi-0.dtd"
   xmlns:inkscape="http://www.inkscape.org/namespaces/inkscape"
   id="svg5804"
   version="1.1"
   inkscape:version="0.91 r13725"
   width="1920"
   height="1080"
   viewBox="0 0 1920 1080"
   sodipodi:docname="atari_7800_wire.svg">
  <metadata
     id="metadata5810">
    <rdf:RDF>
      <cc:Work
         rdf:about="">
        <dc:format>image/svg+xml</dc:format>
        <dc:type
           rdf:resource="http://purl.org/dc/dcmitype/StillImage" />
        <dc:title />
      </cc:Work>
    </rdf:RDF>
  </metadata>
  <defs
     id="defs5808" />
  <sodipodi:namedview
     pagecolor="#ffffff"
     bordercolor="#666666"
     borderopacity="1"
     objecttolerance="10"
     gridtolerance="10"
     guidetolerance="10"
     inkscape:pageopacity="0"
     inkscape:pageshadow="2"
     inkscape:window-width="1920"
     inkscape:window-height="1178"
     id="namedview5806"
     showgrid="false"
     inkscape:zoom="1.1166395"
     inkscape:cx="865.15253"
     inkscape:cy="389.82618"
     inkscape:window-x="-8"
     inkscape:window-y="-8"
     inkscape:window-maximized="1"
     inkscape:current-layer="svg5804" />
  <path
     style="fill:#000000;fill-opacity:0"
     d="m 1268.3061,975.03547 c -2.3204,-2.65482 -3.873,-5.91945 -3.873,-8.14386 0,-1.50212 1.4931,-2.39775 6.7782,-4.06574 8.3158,-2.62451 7.8806,-2.63485 8.5931,0.20414 0.3235,1.28886 1.7232,3.47844 3.1105,4.86573 l 2.5224,2.52235 -4.1556,2.74998 c -5.4306,3.5939 -10.7923,4.3655 -12.9756,1.8674 z m -14.373,-3.49518 c -4.95,-1.6379 -21.6,-7.0254 -37,-11.97221 -23.5275,-7.55755 -28.3993,-9.44907 -30.5,-11.84191 -2.0792,-2.36839 -6.5395,-4.13755 -26.5,-10.51111 -42.1091,-13.44582 -70.5797,-22.56521 -86,-27.54656 -8.25,-2.66507 -26.475,-8.5092 -40.5,-12.98694 -14.025,-4.47775 -40.79997,-13.02547 -59.49997,-18.99493 -18.7,-5.96946 -45.47497,-14.53639 -59.49997,-19.03761 -14.025,-4.50122 -32.25,-10.33788 -40.5,-12.97035 -8.25,-2.63247 -20.625,-6.59622 -27.5,-8.80834 -6.875,-2.21212 -28.7,-9.19628 -48.5,-15.52036 -91.00792,-29.06774 -113.63169,-36.30302 -136.5,-43.65391 -48.26736,-15.51526 -125.62022,-40.25888 -132,-42.22414 -3.575,-1.10125 -13.925,-4.40132 -23,-7.33348 -9.075,-2.93215 -21.675,-6.9655 -28,-8.96299 -6.325,-1.99749 -14.81118,-4.71008 -18.85817,-6.02797 -7.11767,-2.31785 -7.34136,-2.33186 -6.84362,-0.42851 0.63255,2.4189 0.44148,2.42073 -6.88305,0.0661 -16.62577,-5.34466 -54.94774,-17.64116 -62.34269,-20.0041 -7.59851,-2.42798 -8.61467,-3.0535 -10.33001,-6.35889 -1.04637,-2.0163 -1.75398,-4.28663 -1.57247,-5.04517 0.33008,-1.37945 1.36846,-1.07222 57.33001,16.96266 7.7,2.4815 18.725,6.01124 24.5,7.84387 5.775,1.83264 28.275,9.03084 50,15.99601 21.725,6.96516 43.55,13.93648 48.5,15.49181 4.95,1.55532 22.5,7.17065 39,12.4785 16.5,5.30785 39.225,12.58717 50.5,16.17628 11.275,3.5891 22.975,7.34896 26,8.35524 3.025,1.00628 9.775,3.17419 15,4.81758 9.69399,3.04898 37.07561,11.79766 83.5,26.67902 14.3,4.58388 42.425,13.58402 62.5,20.00033 20.075,6.4163 48.2,15.41944 62.5,20.00698 14.3,4.58754 36.575,11.72082 49.49997,15.85174 12.925,4.13092 46,14.70905 73.49997,23.50696 27.5,8.7979 54.5,17.41335 60,19.14543 5.5,1.73208 16.75,5.33701 25,8.01094 8.25,2.67394 26.25,8.45102 40,12.83797 13.75,4.38695 38.275,12.23418 54.5,17.43829 16.225,5.20411 38.4004,12.30344 49.2787,15.7763 18.1503,5.79441 19.8273,6.52503 20.369,8.87404 0.3246,1.40786 1.2221,3.57225 1.9943,4.80975 1.2592,2.01786 1.2211,2.24126 -0.3689,2.16586 -0.9752,-0.046 -5.8231,-1.4243 -10.7731,-3.0622 z m 29.7985,-4.35713 c -1.1771,-0.82446 -2.4368,-2.84957 -2.7993,-4.50025 -0.7153,-3.25684 -3.9683,1.98048 68.0085,-109.49628 15.27,-23.65 34.5651,-53.55658 42.8779,-66.45907 26.316,-40.84513 35.6499,-55.3134 54.0533,-83.78649 9.8663,-15.26494 22.724,-35.17944 28.5726,-44.25444 40.885,-63.43977 49.894,-77.40646 54.5053,-84.5 5.851,-9.00043 29.7662,-46.06439 54.8455,-85 22.5179,-34.95898 36.7618,-56.78733 38.9191,-59.64244 1.7499,-2.31595 1.771,-2.23402 1.1964,4.64244 -0.7774,9.30114 -3.9538,21.6097 -7.4841,29 -1.5763,3.3 -13.3058,22.2 -26.0655,42 -12.7596,19.8 -27.1038,42.075 -31.8759,49.5 -4.7721,7.425 -33.3761,51.75 -63.5644,98.5 -59.3593,91.92464 -81.8082,126.71628 -105.8189,164 -8.5008,13.2 -22.0109,34.125 -30.0224,46.5 -8.0115,12.375 -16.8585,26.1 -19.6599,30.5 -2.8014,4.4 -8.1821,12.725 -11.9572,18.5 -3.775,5.775 -12.4936,19.275 -19.3747,30 -15.592,24.30197 -19.304,28.03532 -24.3563,24.49653 z m -20.0274,-15.79258 c 0.9417,-19.32401 7.9005,-39.59716 19.8914,-57.95016 l 4.4076,-6.74621 5.6173,5.74621 5.6172,5.74621 -6.8982,11.37474 c -8.1442,13.42931 -11.6063,23.36269 -13.2759,38.09121 l -1.1865,10.46596 -7.3594,2.23799 -7.3595,2.238 0.546,-11.20395 z m -10.2711,8.29027 c -15.6507,-5.13932 -82.7093,-26.61682 -90.5,-28.98529 -4.95,-1.50486 -26.775,-8.46391 -48.5,-15.46456 -21.725,-7.00064 -44.9,-14.44921 -51.5,-16.55238 -6.6,-2.10316 -18.525,-5.92468 -26.5,-8.49226 -7.975,-2.56758 -18.1,-5.78625 -22.5,-7.15259 -4.4,-1.36634 -16.77497,-5.33308 -27.49997,-8.81498 -10.725,-3.4819 -27.6,-8.88225 -37.5,-12.00077 -9.9,-3.11852 -19.79997,-6.29824 -21.99997,-7.06604 -2.2,-0.7678 -20.2,-6.54982 -40,-12.84892 -51.90087,-16.51156 -99.11066,-31.60871 -176,-56.28275 -45.01867,-14.44665 -156.02876,-49.94067 -171.5,-54.83488 -5.775,-1.82688 -12.525,-3.99129 -15,-4.80981 -6.27066,-2.07379 -90.10297,-28.86865 -109,-34.83908 -22.96875,-7.25686 -43.56546,-14.15911 -44.33133,-14.85606 -1.35645,-1.23437 -0.82752,-17.10794 0.83309,-25.00223 1.69201,-8.04355 7.1324,-25.00138 8.44766,-26.3316 0.73901,-0.7474 9.0598,1.74793 54.55058,16.35926 6.6,2.11987 23.40466,7.51559 37.34369,11.99049 13.93903,4.4749 25.55528,7.9246 25.81388,7.66599 0.2586,-0.2586 -2.37106,-1.38581 -5.84369,-2.5049 -11.26654,-3.63077 -55.64214,-17.83038 -83.26718,-26.64442 -14.82432,-4.72985 -27.09829,-8.7447 -27.2755,-8.92191 -0.42381,-0.42381 5.69498,-11.21903 9.80774,-17.30355 1.78484,-2.64054 3.31489,-4.90612 3.4001,-5.03463 0.20782,-0.31341 18.08672,5.32198 80.02096,25.22242 28.6,9.18963 61.9,19.84739 74,23.68392 24.09269,7.63903 92.08503,29.40914 113.5,36.34097 7.425,2.40341 29.7,9.53416 49.5,15.84613 43.71661,13.93624 75.54276,24.11037 110,35.16461 14.3,4.58758 36.8,11.77646 50,15.97527 13.2,4.19882 30.75,9.8325 39,12.5193 8.25,2.6868 53.92497,17.30926 101.49994,32.49435 47.575,15.18509 98.2,31.37775 112.5,35.98368 26.9375,8.67639 76.4877,24.52443 129.845,41.52936 16.9647,5.40665 31.0743,10.05958 31.3545,10.33985 0.2803,0.28026 -2.5368,5.49424 -6.2602,11.58662 -5.8555,9.58114 -7.0513,10.99009 -8.8545,10.43304 -1.1467,-0.35421 -25.9348,-8.27608 -55.0848,-17.60415 -29.15,-9.32807 -75.95,-24.30263 -104,-33.2768 -28.05,-8.97418 -61.0567,-19.53981 -73.3483,-23.47919 -12.2915,-3.93938 -22.5592,-6.95158 -22.817,-6.69378 -0.2578,0.25779 1.0239,0.94764 2.8483,1.53299 29.2936,9.39893 193.7365,61.97018 217.817,69.63459 39.1618,12.46454 36.2676,11.3729 35.4735,13.37951 -5.9428,15.01746 -9.5035,30.76043 -9.5792,42.35261 -0.058,8.86816 0.1509,8.73281 -8.8943,5.76257 z m -239.1444,-133.472 c -0.4035,-0.4035 -52.05947,-17.09524 -90.35554,-29.19683 -6.05,-1.91181 -23.375,-7.45529 -38.5,-12.31886 -15.125,-4.86357 -37.4,-12.00303 -49.5,-15.86548 -12.1,-3.86246 -56.65,-18.11461 -99,-31.67146 -42.35,-13.55684 -81.84096,-26.17306 -87.75769,-28.03604 -5.91673,-1.86298 -17.61673,-5.6086 -26,-8.3236 -8.38327,-2.715 -20.19231,-6.50963 -26.24231,-8.43251 -12.60598,-4.00658 -52.35714,-16.71904 -73,-23.34548 -22.62135,-7.26153 -23.61042,-7.55487 -24.03657,-7.12872 -0.41211,0.41211 5.82372,2.48012 49.03657,16.26218 13.2,4.20994 25.125,8.05005 26.5,8.53359 1.375,0.48354 11.95,3.87004 23.5,7.52554 23.71748,7.50644 50.75362,16.17759 54.5,17.47948 1.375,0.47782 11.725,3.78983 23,7.36003 11.275,3.57019 32.65,10.39108 47.5,15.15752 14.85,4.76644 31.8375,10.19899 37.75,12.07234 5.9125,1.87334 15.5875,4.93944 21.5,6.81354 5.9125,1.8741 17.95,5.73596 26.75,8.58192 16.20589,5.24105 47.93573,15.39837 88,28.17046 12.1,3.85736 28.075,8.99005 35.5,11.40598 39.21307,12.75907 78.66854,25.27412 79.91664,25.34909 0.7791,0.0468 1.2016,-0.12991 0.9389,-0.39269 z m 265.5665,122.86808 c 0.9196,-9.24776 3.9805,-21.06055 7.2843,-28.11195 1.4891,-3.17809 8.0744,-14.10335 14.634,-24.27835 6.5597,-10.175 13.9227,-21.65 16.3623,-25.5 2.4395,-3.85 6.6234,-10.375 9.2974,-14.5 2.674,-4.125 7.1609,-11.1 9.9709,-15.5 2.81,-4.4 11.6696,-18.125 19.688,-30.5 8.0184,-12.375 22.2516,-34.425 31.6292,-49 9.3777,-14.575 24.4748,-37.975 33.5492,-52 22.6625,-35.02631 30.7156,-47.49104 37.2987,-57.73217 11.6205,-18.07764 50.2083,-77.95937 53.3356,-82.76783 1.7885,-2.75 10.8059,-16.7 20.0388,-31 9.2328,-14.3 18.6833,-28.925 21.0011,-32.5 2.3178,-3.575 14.9284,-23.15 28.0236,-43.5 13.0951,-20.35 25.2985,-38.86558 27.1186,-41.14573 4.2982,-5.38468 8.6519,-7.04854 11.3593,-4.34113 3.3868,3.38674 3.4778,6.4733 0.3384,11.47182 -3.3904,5.39804 -9.3155,14.61009 -30.883,48.01504 -8.8775,13.75 -25.2866,39.175 -36.4646,56.5 -11.1781,17.325 -27.1485,42.075 -35.4898,55 -8.3414,12.925 -18.7319,29.03131 -23.0901,35.7918 -13.365,20.73203 -16.5207,25.62332 -28.3732,43.978 -6.297,9.75161 -14.2077,22.0052 -17.5794,27.2302 -3.3717,5.225 -10.6339,16.475 -16.1384,25 -9.745,15.09252 -26.3812,40.88292 -34.833,54 -26.9981,41.90044 -68.7816,106.64629 -76.4736,118.5 -15.334,23.63009 -23.9911,37.0392 -32.4625,50.28151 -4.3213,6.75483 -8.3001,12.55547 -8.8419,12.8903 -0.6349,0.3924 -0.7415,-1.84032 -0.2999,-6.28151 z m 19.0779,-53.3903 c -0.3399,-0.55 -0.1415,-1 0.441,-1 0.5824,0 1.059,0.45 1.059,1 0,0.55 -0.1984,1 -0.441,1 -0.2425,0 -0.7191,-0.45 -1.059,-1 z m -5.5132,-6.41968 c -4.3078,-4.24335 -5.5041,-4.74559 -29.9868,-12.58866 -14.025,-4.49294 -36.75,-11.7818 -50.5,-16.19746 -13.75,-4.41567 -26.125,-8.34563 -27.5,-8.73326 -1.375,-0.38762 -2.6422,-1.44271 -2.816,-2.34463 -0.2872,-1.49069 0.077,-1.51059 4,-0.21877 5.1857,1.70745 79.5608,25.53399 92.316,29.57399 8.1659,2.58642 9.5532,3.41027 14.9687,8.88954 3.2828,3.32141 5.5269,6.03893 4.9868,6.03893 -0.54,0 -3.0009,-1.98886 -5.4687,-4.41968 z m 1.1366,-1.95585 -6.3189,-6.37553 5.244,-7.87447 c 2.8842,-4.33096 5.2532,-8.43697 5.2644,-9.12447 0.042,-2.56961 3.0328,-1.08563 8.525,4.22985 3.1142,3.01391 5.0361,5.48891 4.2711,5.5 -0.7651,0.0111 -3.3592,-2.00485 -5.7647,-4.47985 -2.4055,-2.475 -4.9174,-4.5 -5.5821,-4.5 -0.6647,0 1.7994,3.0375 5.4758,6.75 l 6.6843,6.75 -5.0042,7.75 c -2.7524,4.2625 -5.3354,7.75 -5.7401,7.75 -0.4047,0 -3.5793,-2.86899 -7.0546,-6.37553 z m -23.6234,-12.25001 c -16.1545,-5.24113 -28.5749,-9.23036 -62,-19.91346 -13.2,-4.21888 -24.7875,-8.08935 -25.75,-8.60103 -1.212,-0.64433 -1.75,-0.56085 -1.75,0.27151 0,0.66102 -0.2356,0.96626 -0.5235,0.67831 -0.288,-0.28794 -0.2254,-1.30067 0.1391,-2.25051 0.4525,-1.17913 0.889,-1.36079 1.3761,-0.57265 0.4318,0.69856 2.5764,-1.83472 5.4319,-6.41616 2.5952,-4.16376 4.8296,-7.57047 4.9653,-7.57047 0.874,0 104.022,33.1186 104.4689,33.54268 0.9145,0.86785 -9.22,15.45339 -10.7113,15.41562 -0.9056,-0.0229 -7.9465,-2.08566 -15.6465,-4.58384 z m 40,0.62554 c -0.3399,-0.55 -0.168,-1 0.382,-1 0.55,0 1.2781,0.45 1.618,1 0.3399,0.55 0.168,1 -0.382,1 -0.55,0 -1.2781,-0.45 -1.618,-1 z m -2.3506,-7.34868 -5.2991,-5.36581 16.7258,-25.89275 c 9.1992,-14.24102 18.6085,-28.81776 20.9095,-32.39276 2.3011,-3.575 12.4226,-19.24718 22.4922,-34.82706 l 18.3085,-28.32706 5.7356,5.67574 5.7355,5.67575 -19.7529,30.65131 c -10.8641,16.85823 -28.2984,43.90596 -38.743,60.10609 -10.4446,16.20012 -19.4002,29.59147 -19.9015,29.75856 -0.5013,0.16709 -3.296,-2.11081 -6.2106,-5.06201 z m -14.6494,-6.65132 c -1.3187,-0.56668 -1.4891,-0.87815 -0.5,-0.9144 0.825,-0.0302 2.175,0.38124 3,0.9144 1.828,1.18132 0.2491,1.18132 -2.5,0 z m 1,-1.54182 c -11.8946,-3.88104 -38.4651,-12.4021 -151.5,-48.58547 -20.625,-6.60222 -48.75,-15.60742 -62.5,-20.01154 -36.0333,-11.54148 -46.4712,-14.87448 -70,-22.3522 -11.54997,-3.67072 -23.47497,-7.50259 -26.49997,-8.51525 -3.025,-1.01267 -15.625,-5.06069 -28,-8.9956 -44.34546,-14.10065 -89.62889,-28.57643 -146.99997,-46.99156 -15.125,-4.85487 -38.3,-12.27556 -51.5,-16.49043 -42.98033,-13.72399 -70.5512,-22.5408 -95.5,-30.53968 -13.475,-4.32025 -47.225,-15.10928 -75,-23.97563 -27.775,-8.86635 -61.75,-19.72737 -75.5,-24.13561 -13.75,-4.40823 -36.925,-11.83476 -51.5,-16.50339 -36.53958,-11.70429 -48.37743,-15.56179 -49.22699,-16.04119 -0.39985,-0.22562 1.8105,-4.32757 4.91188,-9.11543 11.47622,-17.71681 27.51145,-42.60485 48.77645,-75.7052 12.01363,-18.7 22.39418,-34.60361 23.06789,-35.34136 1.01378,-1.11015 5.08136,-0.10525 23.59784,5.82984 12.30511,3.94416 34.07293,10.92264 48.37293,15.50774 14.3,4.58509 36.8,11.7811 50,15.99113 13.2,4.21004 30.075,9.61753 37.5,12.01665 7.425,2.39913 24.3,7.8037 37.5,12.01017 23.784,7.57929 52.82097,16.87512 103,32.97419 14.3,4.58791 30.5,9.76931 36,11.51423 5.5,1.74491 22.6,7.2163 38,12.15863 15.4,4.94233 32.725,10.48772 38.5,12.32309 11.11562,3.53269 120.32054,38.45819 159.99994,51.17054 12.925,4.14087 35.875,11.49382 51,16.33988 27.1891,8.71143 50.8654,16.28712 99.5,31.83708 30.8738,9.87127 85.4362,27.34168 132.8442,42.53551 19.7143,6.31826 36.0434,11.68699 36.287,11.93052 0.3789,0.37897 -14.5542,24.26687 -25.1317,40.20216 -4.2808,6.44909 -39.273,60.73946 -45.3502,70.36077 -7.4849,11.85006 -6.4829,11.262 -14.6493,8.59741 z m -7.5,-0.45818 c -1.828,-1.18132 -0.2491,-1.18132 2.5,0 1.3187,0.56668 1.4891,0.87815 0.5,0.9144 -0.825,0.0302 -2.175,-0.38124 -3,-0.9144 z m -11,-3.5 c -3.575,-1.28912 -6.0252,-2.37898 -5.4448,-2.42192 0.5804,-0.043 4.1804,1.01342 8,2.34749 3.8196,1.33406 6.2698,2.42392 5.4448,2.42192 -0.825,-0.002 -4.425,-1.05837 -8,-2.34749 z m -11.8597,-3.6472 c -1.8478,-0.53175 -3.1725,-1.15396 -2.9437,-1.3827 0.505,-0.50499 7.8034,1.43751 7.8034,2.0769 0,0.58924 -0.7938,0.47584 -4.8597,-0.6942 z m -116.0071,-11.97432 c -16.7018,-5.34166 -30.8149,-10.16016 -31.3625,-10.70779 -3.3204,-3.32039 3.0196,-1.90098 30.542,6.83785 16.947,5.38095 31.0493,10.0201 31.3384,10.30923 0.2891,0.28913 0.3734,1.14379 0.1873,1.89925 -0.2554,1.03686 -7.7822,-1.00715 -30.7052,-8.33854 z m 104.3668,8.12152 c -2.75,-1.01475 -4.325,-1.84499 -3.5,-1.84499 0.825,0 3.75,0.83024 6.5,1.84499 2.75,1.01475 4.325,1.84499 3.5,1.84499 -0.825,0 -3.75,-0.83024 -6.5,-1.84499 z m -88,-7.48413 c -7.15,-2.36807 -20.425,-6.66282 -29.5,-9.54389 -9.075,-2.88106 -16.9007,-5.60163 -17.3906,-6.0457 -0.8411,-0.76262 7.8456,-15.92628 9.1237,-15.92628 0.3251,0 10.9806,3.33514 23.679,7.41143 12.6983,4.07629 26.3885,8.45215 30.4227,9.72414 9.6091,3.02981 10.2292,4.29263 5.5611,11.32341 -2.0087,3.02535 -4.0477,5.25619 -4.5311,4.95744 -0.4834,-0.29875 -1.1489,0.16034 -1.4789,1.0202 -0.7935,2.06796 -0.8605,2.05563 -15.8859,-2.92075 z m 24.2116,-9.13761 c -0.5294,-0.52939 -6.7116,8.86232 -6.7116,10.19594 0,0.49451 1.6123,-1.49506 3.5829,-4.42127 1.9707,-2.9262 3.3786,-5.52481 3.1287,-5.77467 z m -16.4708,3.13412 c 1.2426,-1.91819 3.0467,-3.49319 4.0092,-3.5 4.1413,-0.0293 1.2424,-2.78219 -5.0709,-4.81555 -3.7516,-1.20826 -7.1049,-2.19683 -7.452,-2.19683 -1.4425,0 -6.9065,9.22056 -6.0008,10.12633 1.5802,1.58015 8.2737,2.31707 8.2737,0.91089 0,-0.67345 -0.8949,-1.45849 -1.9888,-1.74453 -1.0938,-0.28604 -1.7683,-0.87666 -1.499,-1.3125 0.2694,-0.43584 1.3893,-0.55719 2.4888,-0.26968 2.2366,0.58487 2.9146,-2.17441 0.749,-3.04823 -0.6875,-0.27741 -0.35,-0.53302 0.75,-0.56802 1.1,-0.035 2.6263,0.33295 3.3917,0.81766 1.1447,0.72487 1.0004,1.4309 -0.8132,3.97786 -2.0843,2.92715 -2.0966,5.11022 -0.029,5.11022 0.5125,0 1.9485,-1.56943 3.191,-3.48762 z m -16.1751,-2.54756 c 2.1535,-1.15247 2.5417,-3.95741 0.7902,-5.70887 -0.8587,-0.85873 -0.6374,-1.01158 0.8872,-0.61288 1.1171,0.29214 2.302,0.093 2.633,-0.44265 0.879,-1.42217 -1.9891,-3.45042 -4.8792,-3.45042 -1.3733,0 -2.4969,-0.34497 -2.4969,-0.76659 0,-0.42163 -1.0832,-1.03846 -2.4071,-1.37074 -1.3239,-0.33228 -3.0806,-0.86259 -3.9038,-1.17846 -0.9971,-0.38265 -2.53,0.9276 -4.5929,3.92591 -1.7029,2.47513 -3.0962,4.76779 -3.0962,5.09481 0,0.73516 4.1548,2.35269 7.6895,2.99366 1.4505,0.26303 3.1038,0.9447 3.6739,1.51482 1.317,1.31703 3.2432,1.3175 5.7023,10e-4 z m -4.4538,-3.53377 c -0.3976,-1.03621 -1.276,-1.35506 -2.5868,-0.93902 -1.0916,0.34647 -2.7813,0.16618 -3.7549,-0.40064 -1.5263,-0.88858 -1.3913,-1.03476 0.9798,-1.06098 2.9642,-0.0328 3.4537,-0.92668 1.55,-2.83041 -0.8358,-0.83581 -0.8606,-1.2 -0.082,-1.2 2.4275,0 4.1276,1.23824 3.5974,2.62 -0.307,0.79997 0.2412,2.33773 1.2181,3.41725 0.977,1.07951 1.3047,1.96275 0.7283,1.96275 -0.5764,0 -1.319,-0.70603 -1.6501,-1.56895 z m -13.0328,-2.89003 c 0.3394,-1.35244 1.248,-2.98254 2.019,-3.62245 2.185,-1.81338 1.6541,-4.48261 -1.1452,-5.75805 -3.7624,-1.71431 -4.0741,-1.57141 -7.5308,3.45265 -2.5026,3.6375 -2.8877,4.79003 -1.8208,5.44941 0.848,0.52412 2.078,0.20194 3.2954,-0.86317 1.844,-1.61332 1.9068,-1.60214 1.239,0.22064 -0.4262,1.16333 -0.1975,2.24111 0.5804,2.73469 2.0617,1.30819 2.7074,0.99838 3.363,-1.61372 z m 98.4209,17.45898 c -1.828,-1.18132 -0.2491,-1.18132 2.5,0 1.3187,0.56668 1.4891,0.87815 0.5,0.9144 -0.825,0.0302 -2.175,-0.38124 -3,-0.9144 z m -11,-3.5 c -1.925,-0.74131 -2.825,-1.34784 -2,-1.34784 0.825,0 3.075,0.60653 5,1.34784 1.925,0.74131 2.825,1.34784 2,1.34784 -0.825,0 -3.075,-0.60653 -5,-1.34784 z m -21.1875,-7.18311 c 0.7219,-0.28887 1.5844,-0.25335 1.9167,0.0789 0.3323,0.33229 -0.2584,0.56864 -1.3125,0.52522 -1.165,-0.048 -1.4019,-0.28494 -0.6042,-0.60416 z m -6.8125,-1.81689 c -1.925,-0.74131 -2.825,-1.36178 -2,-1.37882 0.825,-0.017 2.85,0.58718 4.5,1.34271 3.8621,1.7684 2.0657,1.79435 -2.5,0.0361 z m -8,-2.5 c -1.828,-1.18132 -0.2491,-1.18132 2.5,0 1.3187,0.56668 1.4891,0.87815 0.5,0.9144 -0.825,0.0302 -2.175,-0.38124 -3,-0.9144 z m -92.7002,-4.83931 c -13.0674,-4.28891 -17.4445,-6.34931 -16.1783,-7.61548 0.2684,-0.26847 7.5509,1.76469 16.1833,4.51814 10.841,3.45794 15.6952,5.45942 15.6952,6.47146 0,1.87597 0.8569,2.06012 -15.7002,-3.37412 z m 16.7002,2.13222 c 0,-0.60245 -7.2,-3.40661 -16,-6.23147 -8.8,-2.82486 -16,-5.39867 -16,-5.71958 0,-1.25288 9.4007,-15.34186 10.2367,-15.34186 0.4881,0 7.1681,2.05263 14.8443,4.56139 7.6762,2.50877 14.7604,4.30632 15.7427,3.99456 0.9823,-0.31176 4.2363,0.30273 7.2311,1.36554 2.9949,1.06281 4.912,1.96526 4.2603,2.00544 -0.6517,0.0402 -2.2267,-0.31104 -3.5,-0.7805 -1.2733,-0.46947 -3.6112,-1.16774 -5.1953,-1.55172 -2.5939,-0.62877 -2.8241,-0.48397 -2.3165,1.4571 0.3958,1.51347 -0.9055,4.41556 -4.3698,9.74585 -2.7134,4.17483 -4.9335,7.09769 -4.9335,6.49525 z m 8.699,-14.92726 c -0.4974,-0.49742 -8.699,12.08843 -8.699,13.34916 0,0.42011 2.0608,-2.30807 4.5795,-6.06263 2.5188,-3.75456 4.3725,-7.0335 4.1195,-7.28653 z m 54.1135,12.95124 c 0.7219,-0.28887 1.5844,-0.25335 1.9167,0.0789 0.3323,0.33229 -0.2584,0.56864 -1.3125,0.52522 -1.165,-0.048 -1.4019,-0.28494 -0.6042,-0.60416 z m -21.3125,-6.31689 c -1.2606,-0.54172 -1.4455,-0.85943 -0.5,-0.85943 0.825,0 2.4,0.38674 3.5,0.85943 1.2606,0.54172 1.4455,0.85943 0.5,0.85943 -0.825,0 -2.4,-0.38674 -3.5,-0.85943 z m -109.6756,-9.75381 c -23.4485,-7.56104 -29.7787,-9.96337 -30.1671,-11.44865 -0.3664,-1.4013 -0.067,-1.7485 1.1756,-1.36419 0.9169,0.28354 5.9421,1.83589 11.1671,3.44969 5.225,1.61379 16.475,5.19947 25,7.96819 8.525,2.76872 17.4533,5.62235 19.8406,6.3414 4.5451,1.36894 7.8662,4.8921 4.4446,4.71494 -0.9819,-0.0508 -15.1392,-4.39846 -31.4608,-9.66138 z m 103.6756,7.75381 c -1.3187,-0.56668 -1.4891,-0.87815 -0.5,-0.9144 0.825,-0.0302 2.175,0.38124 3,0.9144 1.828,1.18132 0.2491,1.18132 -2.5,0 z m -85.5,-6.57322 c -8.525,-2.90639 -22.8125,-7.59824 -31.75,-10.42634 -8.9375,-2.82809 -16.25,-5.3895 -16.25,-5.69202 0,-0.30252 2.1194,-3.89575 4.7098,-7.98497 4.2518,-6.71177 4.957,-7.37509 7.25,-6.81976 1.3971,0.33835 15.4458,4.71716 31.2193,9.73069 23.0202,7.31684 28.7783,9.49467 29.1816,11.03704 0.3133,1.198 -1.1637,4.52095 -3.9225,8.82505 -2.4338,3.79694 -4.5405,6.83853 -4.6816,6.7591 -0.1411,-0.0794 -7.2316,-2.52239 -15.7566,-5.42879 z m 19.9303,-2.05147 c 2.2845,-3.64359 3.9696,-6.80879 3.7446,-7.03379 -0.3824,-0.38237 -8.6749,12.25133 -8.6749,13.21623 0,1.28327 1.1662,-0.17912 4.9303,-6.18244 z m -9.5541,-2.43495 c 0.994,-1.6828 2.891,-3.47166 4.2156,-3.97525 1.3245,-0.50358 2.4082,-1.34099 2.4082,-1.8609 0,-0.80676 -4.1939,-2.29286 -7.5,-2.65764 -0.55,-0.0607 -2.2794,-0.7273 -3.8431,-1.48138 -2.4375,-1.17544 -3.2201,-1.15945 -5.4855,0.1121 -3.5073,1.96858 -5.3573,5.70678 -4.0413,8.16585 1.2659,2.3653 8.3699,2.15893 8.3699,-0.24314 0,-1.06192 -0.8511,-1.40842 -2.9142,-1.18641 -2.8177,0.30321 -2.8645,0.23881 -1.4144,-1.9452 1.9023,-2.86507 3.8286,-3.54093 3.8286,-1.34332 0,1.30518 0.5712,1.54837 2.5,1.06429 3.0063,-0.75453 3.106,-0.0286 0.5324,3.87569 -1.4608,2.21607 -1.6486,3.15946 -0.7435,3.73469 1.8601,1.1821 2.1485,1.02271 4.0873,-2.25938 z m -16.3762,-3.08012 c 0,-0.62686 -0.7875,-1.76565 -1.75,-2.53064 -1.6116,-1.28088 -1.5596,-1.36869 0.657,-1.11024 1.3239,0.15435 2.5989,-0.28186 2.8334,-0.96936 0.2344,-0.6875 -0.2862,-1.25 -1.1571,-1.25 -0.8708,0 -1.5833,-0.43875 -1.5833,-0.975 0,-0.55 1.3077,-0.71346 3,-0.375 2.3487,0.46974 3,0.24722 3,-1.025 0,-0.89375 -0.3937,-1.625 -0.875,-1.625 -0.4812,0 -2.2176,-0.26853 -3.8587,-0.59673 -2.6244,-0.52489 -3.2512,-0.16369 -5.2065,3 -2.3712,3.83668 -2.7813,4.05906 -4.9515,2.68481 -1.1432,-0.72389 -0.9897,-1.44584 0.8591,-4.04226 1.2379,-1.73853 1.9781,-3.43367 1.6448,-3.76697 -1.0908,-1.09078 -10.8683,-4.23863 -11.6551,-3.75234 -0.8128,0.50234 -5.9571,8.98428 -5.9571,9.8221 0,0.44041 4.9221,1.89708 7.5,2.21959 0.55,0.0688 1.675,0.40219 2.5,0.74085 3.9141,1.60674 12.6342,4.52659 13.75,4.60411 0.6875,0.0478 1.25,-0.42605 1.25,-1.05292 z m -18.0125,-7.4125 -2.4875,-1.37687 2.75,-0.0354 c 2.9645,-0.0382 3.4532,-0.9322 1.55,-2.83544 -0.9333,-0.93333 -0.8778,-1.1966 0.25,-1.18469 3.2118,0.0339 3.94,1.45118 2.1486,4.18195 -1.5936,2.42933 -1.911,2.52358 -4.2111,1.25048 z m -7.1875,-1.64774 c 1.7157,-1.71569 1.481,-4.47818 -0.4431,-5.21655 -0.9037,-0.34679 -1.3646,-0.90906 -1.0242,-1.24949 0.3404,-0.34043 1.3239,-0.0339 2.1855,0.68116 1.1523,0.9563 1.8615,1.0052 2.6818,0.18488 1.8252,-1.82523 -1.0265,-4.35289 -4.514,-4.00107 -4.1622,0.4199 -5.6572,3.07041 -3.239,5.74253 1.0388,1.14788 1.352,2.05854 0.708,2.05854 -0.6353,0 -1.155,-0.45 -1.155,-1 0,-0.55 -0.9,-1 -2,-1 -1.1,0 -2,0.585 -2,1.3 0,2.07954 2.1898,3.7 5,3.7 1.43,0 3.14,-0.54 3.8,-1.2 z m 82.2,12.2 c -1.828,-1.18132 -0.2491,-1.18132 2.5,0 1.3187,0.56668 1.4891,0.87815 0.5,0.9144 -0.825,0.0302 -2.175,-0.38124 -3,-0.9144 z m -8,-2.5 c -1.925,-0.74131 -2.825,-1.34784 -2,-1.34784 0.825,0 3.075,0.60653 5,1.34784 1.925,0.74131 2.825,1.34784 2,1.34784 -0.825,0 -3.075,-0.60653 -5,-1.34784 z m -10.5,-3.5 c -1.3187,-0.56668 -1.4891,-0.87815 -0.5,-0.9144 0.825,-0.0302 2.175,0.38124 3,0.9144 1.828,1.18132 0.2491,1.18132 -2.5,0 z m -7,-2 c -0.731,-1.18278 0.2475,-1.18278 3,0 1.9282,0.82859 1.9214,0.86195 -0.191,0.92971 -1.205,0.0387 -2.4691,-0.37971 -2.809,-0.92971 z m -100.99997,-7.75158 c -24.8018,-7.99347 -90.40733,-29.00903 -125.99997,-40.36186 -12.1,-3.85948 -29.425,-9.42439 -38.5,-12.36645 -9.075,-2.94207 -36.525,-11.72307 -61,-19.51333 -95.61007,-30.4322 -91.36044,-28.97968 -89.68554,-30.65457 0.37462,-0.37463 5.29462,0.77855 10.93333,2.56262 26.05286,8.243 32.18938,10.19778 45.75221,14.5743 7.975,2.57341 19.9,6.4054 26.5,8.51552 6.6,2.11012 17.625,5.64182 24.5,7.84824 6.875,2.20641 28.925,9.24013 49,15.63049 20.075,6.39036 43.25,13.8177 51.5,16.5052 8.25,2.6875 24.225,7.80518 35.5,11.37261 89.38274,28.28092 98.22014,31.32584 95.34594,32.85107 -0.4653,0.2469 -11.196,-2.88683 -23.84597,-6.96384 z m 87.49997,3.25158 c -3.575,-1.28912 -6.0252,-2.37898 -5.4448,-2.42192 0.5804,-0.043 4.1804,1.01342 8,2.34749 3.8196,1.33406 6.2698,2.42392 5.4448,2.42192 -0.825,-0.002 -4.425,-1.05837 -8,-2.34749 z m -78.56177,-4.54049 c -17.4096,-5.60379 -55.994,-17.96761 -89.43817,-28.65919 -12.925,-4.13192 -35.875,-11.48089 -51,-16.33103 -61.98571,-19.87701 -130.66189,-41.83346 -166.73309,-53.30622 -8.9282,-2.83969 -16.2407,-5.53427 -16.25,-5.98796 -0.0126,-0.61486 8.08107,-13.8527 9.42651,-15.4178 0.11474,-0.13348 4.89942,1.27938 10.6326,3.1397 5.73319,1.86031 25.49898,8.19169 43.92398,14.06974 18.425,5.87804 37.775,12.05122 43,13.71817 15.55445,4.96239 35.41811,11.34015 53.5,17.1776 9.35,3.0185 27.8,8.93549 41,13.14886 119.37387,38.10351 145.61774,46.54118 146.74794,47.18085 0.4114,0.23284 -1.0618,3.08839 -3.2737,6.34566 -2.212,3.25728 -4.2808,6.71877 -4.5973,7.69221 -0.3166,0.97345 1.4824,-1.3801 3.9977,-5.2301 2.5153,-3.85 4.5835,-6.55 4.5961,-6 0.04,1.74698 -7.8096,12.85906 -9.2308,13.06766 -0.75,0.11007 -8.0858,-1.9636 -16.30177,-4.60815 z m 56.56177,-2.45951 c -3.575,-1.28912 -6.0252,-2.37898 -5.4448,-2.42192 0.5804,-0.043 4.1804,1.01342 8,2.34749 3.8196,1.33406 6.2698,2.42392 5.4448,2.42192 -0.825,-0.002 -4.425,-1.05837 -8,-2.34749 z m -10.5,-3.5 c -1.3187,-0.56668 -1.4891,-0.87815 -0.5,-0.9144 0.825,-0.0302 2.175,0.38124 3,0.9144 1.828,1.18132 0.2491,1.18132 -2.5,0 z m -15,-4.45441 c -4.8264,-1.43971 -9.3827,-3.40597 -8,-3.4524 0.55,-0.0185 4.15,1.04224 8,2.35715 7.1763,2.45094 7.1763,3.23593 0,1.09525 z m -27.5,-9.04559 c -3.57497,-1.28912 -6.02507,-2.37898 -5.44477,-2.42192 0.5804,-0.043 4.18037,1.01342 7.99997,2.34749 3.8197,1.33406 6.2698,2.42392 5.4448,2.42192 -0.825,-0.002 -4.425,-1.05837 -8,-2.34749 z m -13.99997,-4.5 c -1.8279,-1.18132 -0.2491,-1.18132 2.5,0 1.3188,0.56668 1.4891,0.87815 0.5,0.9144 -0.825,0.0302 -2.175,-0.38124 -3,-0.9144 z m -11,-3.5 c -3.575,-1.28912 -6.0251,-2.37898 -5.4448,-2.42192 0.5804,-0.043 4.1804,1.01342 8,2.34749 3.8197,1.33406 6.2698,2.42392 5.4448,2.42192 -0.825,-0.002 -4.425,-1.05837 -8,-2.34749 z m -23.5,-7.5 c -2.75,-1.01475 -4.325,-1.84499 -3.5,-1.84499 0.825,0 3.75,0.83024 6.5,1.84499 2.75,1.01475 4.325,1.84499 3.5,1.84499 -0.825,0 -3.75,-0.83024 -6.5,-1.84499 z m 440.52397,-1.22636 c -0.025,-0.7506 4.8123,-8.37985 29.6556,-46.77364 36.5283,-56.45227 50.421,-78.23272 50.1035,-78.55019 -0.3149,-0.3149 -10.8748,15.90245 -60.2638,92.55019 -9.746,15.125 -18.2539,28.06293 -18.9063,28.75095 -0.937,0.98802 -2.1937,0.22821 -5.9791,-3.615 l -4.7928,-4.86593 8.3964,-12.88501 c 4.618,-7.08676 14.8912,-22.98896 22.8294,-35.33823 7.9382,-12.34927 17.6589,-27.42427 21.6016,-33.5 3.9426,-6.07573 11.3306,-17.57178 16.4178,-25.54678 5.0871,-7.975 9.6127,-14.9165 10.057,-15.42555 0.4631,-0.53065 3.2741,1.42695 6.5883,4.58818 l 5.7806,5.51371 -11.0061,16.95882 c -6.0534,9.32735 -16.3493,25.26267 -22.8799,35.41183 -32.2954,50.18989 -47.5754,73.53477 -47.6022,72.72665 z m -470.02394,-8.27364 c -1.925,-0.74131 -2.825,-1.34784 -2,-1.34784 0.825,0 3.075,0.60653 5,1.34784 1.925,0.74131 2.825,1.34784 2,1.34784 -0.825,0 -3.075,-0.60653 -5,-1.34784 z m -17.5,-5.5 c -2.75,-1.01475 -4.325,-1.84499 -3.5,-1.84499 0.825,0 3.75,0.83024 6.5,1.84499 2.75,1.01475 4.325,1.84499 3.5,1.84499 -0.825,0 -3.75,-0.83024 -6.5,-1.84499 z m 443.49994,-9.69529 c -17.875,-5.74539 -42.85,-13.75367 -55.5,-17.79616 -12.65,-4.0425 -40.1,-12.83519 -61,-19.53932 -20.9,-6.70412 -42.725,-13.68666 -48.5,-15.51673 -23.8798,-7.56744 -36.786,-11.68273 -61,-19.45061 -46.7753,-15.00552 -77.1831,-24.74587 -114,-36.51687 -20.07497,-6.41833 -43.24997,-13.8509 -51.49997,-16.51683 -8.25,-2.66593 -31.42497,-10.07762 -51.49997,-16.47043 -39.3729,-12.53815 -67.78062,-21.62407 -111,-35.5022 -15.125,-4.85677 -48.875,-15.63582 -75,-23.95345 -26.125,-8.31763 -49.3,-15.74597 -51.5,-16.50744 -2.2,-0.76146 -12.775,-4.15207 -23.5,-7.53467 -10.725,-3.3826 -21.3,-6.78355 -23.5,-7.55765 -2.2,-0.7741 -19.525,-6.3294 -38.5,-12.34511 -88.03698,-27.91065 -92.5,-29.36696 -92.5,-30.18334 0,-0.5138 13.67747,-21.88078 46.99383,-73.4139 10.31174,-15.95 21.67464,-33.6125 25.2509,-39.25 3.642,-5.74114 7.17907,-10.25 8.04084,-10.25 0.8462,0 12.15313,3.40963 25.12649,7.57696 12.97337,4.16733 34.16294,10.95828 47.08794,15.091 12.925,4.13272 29.575,9.47871 37,11.87999 7.425,2.40129 36.9,11.84049 65.5,20.97601 74.40596,23.76705 72.42211,23.1322 90.5,28.96054 9.075,2.92579 20.775,6.67346 26,8.32816 5.225,1.6547 20.075,6.39477 33,10.53348 12.925,4.13871 41.27497,13.21112 62.99997,20.1609 21.725,6.94979 51.87497,16.61199 66.99997,21.47157 15.125,4.85957 36.95,11.83926 48.5,15.51041 11.55,3.67115 27.075,8.63314 34.5,11.02664 7.425,2.39349 24.3,7.79499 37.5,12.00332 39.2039,12.49872 75.9098,24.25644 93.5,29.95011 9.075,2.93744 24.6,7.90118 34.5,11.03052 17.5316,5.54166 30.2246,9.59596 61,19.48417 8.25,2.65075 19.95,6.398 26,8.32723 6.05,1.92924 21.8,6.96399 35,11.18835 13.2,4.22436 33.225,10.628 44.5,14.23031 11.275,3.60231 20.8067,6.71933 21.1815,6.9267 0.3749,0.20738 -6.6324,11.73203 -15.5718,25.61034 -59.0537,91.68086 -61.0313,94.73208 -62.7761,96.85873 -1.2101,1.47488 -4.344,0.65784 -33.8336,-8.82073 z m 4.393,-21.39924 c 2.5474,-2.00373 6.607,-8.68009 6.607,-10.86563 0,-0.57191 -0.9,-1.93984 -2,-3.03984 -3.1297,-3.12967 -8.2107,-2.62784 -12.6561,1.25 -2.8115,2.45259 -3.5246,2.75929 -2.9062,1.25 1.877,-4.581 1.7569,-6.2503 -0.567,-7.87798 -3.9371,-2.75767 -9.0283,-2.09748 -12.5545,1.62798 -5.7772,6.10363 -6.8266,10.5787 -3.0937,13.1933 3.9205,2.74599 8.283,1.98458 12.4385,-2.171 2.2603,-2.26022 3.3987,-2.94914 2.8919,-1.75 -0.4597,1.08774 -1.04,3.15962 -1.2897,4.60419 -0.9241,5.34662 7.906,7.88806 13.1298,3.77898 z m -10.8202,-0.22856 c -2.5522,-1.86624 -1.2903,-6.77377 2.8785,-11.19392 2.5559,-2.7101 4.0749,-3.48299 6.8453,-3.48299 4.3346,0 7.0293,2.35677 6.1233,5.35537 -1.055,3.49181 -4.4607,8.59607 -6.4435,9.65728 -2.6018,1.39244 -7.268,1.22584 -9.4036,-0.33574 z m 9.4492,-5.37269 c 3.4865,-5.49754 3.7299,-7.30422 0.9843,-7.30422 -2.2736,0 -8.0063,7.2677 -8.0063,10.15004 0,3.6569 3.9006,2.07608 7.022,-2.84582 z m -6.022,2.67434 c 0,-1.87601 5.247,-8.97856 6.6329,-8.97856 1.8852,0 1.7437,0.6816 -1.1751,5.66214 -2.3088,3.93971 -5.4578,5.85319 -5.4578,3.31642 z m -18.203,-1.65884 c -4.0982,-1.07874 -2.2915,-9.21239 2.9647,-13.34692 4.9514,-3.8948 13.1392,-1.51916 11.6582,3.38257 -2.4113,7.98086 -7.9138,11.73036 -14.6229,9.96435 z m 8.155,-5.7499 c 3.5461,-5.15412 3.8825,-7.56982 1.0543,-7.56982 -2.2736,0 -8.0063,7.2677 -8.0063,10.15004 0,3.45899 3.756,2.06496 6.952,-2.58022 z m -5.952,2.16231 c 0,-2.09928 4.9647,-8.73213 6.5361,-8.73213 2.1392,0 1.821,1.20691 -1.5424,5.84996 -2.9964,4.13642 -4.9937,5.28919 -4.9937,2.88217 z m -8.3145,-1.90644 c 1.273,-1.19588 2.3145,-3.03625 2.3145,-4.08971 0,-1.05347 0.9678,-2.6991 2.1508,-3.65697 3.2957,-2.66875 1.8867,-6.69853 -2.7941,-7.99096 -4.2527,-1.17424 -10.3567,0.80659 -10.3567,3.36092 0,0.85307 -0.024,1.88853 -0.053,2.30103 -0.029,0.4125 -1.1235,1.31068 -2.4314,1.99596 -3.8053,1.99383 -4.2479,5.22709 -1.0877,7.94545 3.526,3.03289 9.1074,3.09404 12.2579,0.13428 z m -10.6766,-0.11555 c -3.6626,-1.85305 -3.6979,-4.41029 -0.089,-6.46413 1.8522,-1.0542 3.0703,-2.55827 3.0741,-3.79601 0,-1.1275 0.5463,-2.59 1.2063,-3.25 1.6059,-1.60594 7.9699,-1.52745 10.2314,0.1262 2.264,1.65548 1.3645,5.2324 -1.5044,5.98265 -1.5661,0.40953 -1.8707,1.06737 -1.3868,2.99517 1.1544,4.59982 -5.8549,7.27809 -11.5313,4.40612 z m 7.5534,-1.81101 c 0.3742,-0.60547 -0.2724,-2.05369 -1.437,-3.21825 -1.9628,-1.96283 -2.2371,-1.99763 -3.7581,-0.47668 -0.9024,0.9024 -1.3683,2.35061 -1.0353,3.21826 0.6889,1.79537 5.202,2.14066 6.2304,0.47667 z m -5.5623,-1.29214 c 0,-1.94337 2.6334,-2.75361 3.9182,-1.20554 1.276,1.53745 0.4246,2.59855 -2.0849,2.59855 -1.0083,0 -1.8333,-0.62686 -1.8333,-1.39301 z m 11,-8.03518 c 0,-1.65882 -2.4606,-2.71602 -4.5,-1.93344 -1.7885,0.68633 -1.943,2.51866 -0.3468,4.11483 1.407,1.40704 4.8468,-0.14108 4.8468,-2.18139 z m -4.5238,1.38962 c -1.008,-1.63093 1.231,-3.65425 2.5662,-2.31905 0.7232,0.72318 0.5973,1.41175 -0.411,2.24856 -1.0742,0.89152 -1.6364,0.90991 -2.1552,0.0705 z m -11.0441,-3.20678 c 2.7126,-1.79006 5.0813,-3.72337 5.2638,-4.29625 0.5076,-1.59332 -12.2733,-5.48105 -13.6133,-4.14097 -1.9434,1.94335 -1.1444,3.51009 2.1602,4.2359 l 3.2429,0.71225 -2.4839,1.61721 c -3.4464,2.24389 -10.0018,8.19566 -10.0018,9.08076 0,0.40195 1.0125,1.21573 2.25,1.80839 1.9578,0.93764 2.6396,0.63345 5.25,-2.34254 1.65,-1.88106 5.2194,-4.88469 7.9321,-6.67475 z m -13.2457,6.49535 c 0.2869,-1.50763 4.3725,-4.6812 11.4238,-8.87358 1.6857,-1.00222 1.4308,-1.26234 -2.3602,-2.40829 -4.5563,-1.3773 -5.6901,-3.01682 -2,-2.89205 3.0444,0.10294 9.0545,2.33744 9.446,3.51197 0.1742,0.52265 -1.2838,1.81223 -3.2401,2.86575 -1.9562,1.05351 -5.1079,3.63239 -7.0037,5.73084 -3.6389,4.02773 -6.8401,5.08293 -6.2658,2.06536 z m -224.8743,-114.5 c 13.6991,-21.02128 19.6879,-30.67581 19.6879,-31.73886 0,-0.99732 -1.6989,-1.87282 -6.5807,-3.39127 -1.8227,-0.56692 -3.7301,1.91437 -15.3806,20.0077 -7.3149,11.36018 -13.5053,21.44074 -13.7565,22.40124 -0.3194,1.2214 0.3962,2.05703 2.3806,2.77983 5.5114,2.00755 6.0397,1.61823 13.6493,-10.05864 z m -13.1717,8.17831 c -2.1811,-0.87346 -2.2493,-1.11446 -0.9026,-3.18662 0.8013,-1.23293 6.7513,-10.45419 13.2224,-20.49169 6.471,-10.0375 12.3604,-18.25 13.0875,-18.25 0.7272,0 2.4756,0.43857 3.8855,0.97459 l 2.5633,0.97459 -5.7482,8.83415 c -3.1616,4.85878 -9.1233,14.09272 -13.2483,20.51987 -4.258,6.63444 -8.1484,11.66071 -9,11.62787 -0.825,-0.0318 -2.5618,-0.48306 -3.8596,-1.00276 z m -7.1566,-11.75227 -1.6405,-10.93812 4.9906,-0.59106 c 10.7671,-1.2752 19.4088,-8.51123 18.3196,-15.33979 -0.639,-4.00662 -4.0513,-8.69961 -7.5081,-10.32603 -3.9821,-1.87355 -14.367,-4.96473 -16.7083,-4.9734 -1.1346,-0.004 -3.2078,1.22986 -4.607,2.74236 -4.5818,4.95263 -26.1454,39.33628 -25.2213,40.21591 0.4902,0.46652 2.6155,1.31394 4.723,1.88315 l 3.8319,1.03492 5.1681,-8.12436 5.1682,-8.12437 0.7002,5.93238 c 0.3851,3.2628 1.2946,7.92169 2.021,10.35308 1.2081,4.04339 1.7458,4.56548 6.2998,6.11672 2.7385,0.93281 5.232,1.55667 5.5412,1.38637 0.3091,-0.1703 -0.1761,-5.23179 -1.0784,-11.24776 z m -5.5491,7.63018 c -2.6955,-0.87021 -3.2686,-1.75238 -4.75,-7.31205 -1.9852,-7.45012 -2.0943,-10.36441 -0.531,-14.17907 0.6345,-1.54831 1.2597,-3.30983 1.3894,-3.91451 0.638,-2.97524 8.818,-14.39819 10.2965,-14.37863 0.9132,0.0121 3.5729,0.89008 5.9104,1.95111 2.9666,1.34657 4.25,2.54092 4.25,3.95499 0,2.91457 -3.4763,4.70925 -11.7465,6.06421 -3.9855,0.65298 -7.5294,1.64506 -7.8752,2.20462 -0.3784,0.61234 0.1178,0.79836 1.2465,0.46725 1.0313,-0.30258 4.706,-1.08794 8.1659,-1.74526 11.9453,-2.26937 14.9175,-8.29678 6.2474,-12.66888 -6.5537,-3.30486 -8.0854,-2.97169 -11.5016,2.50179 -1.6299,2.61151 -6.8049,10.63755 -11.5,17.83563 l -8.5365,13.08742 -3.25,-0.86601 c -1.7875,-0.47631 -3.25,-1.2118 -3.25,-1.63443 0,-0.94755 22.5719,-36.00116 24.7425,-38.4244 2.0994,-2.3439 4.3644,-2.21166 13.3449,0.7791 9.0901,3.02729 13.3126,6.78735 13.3126,11.85466 0,7.08665 -6.8799,12.19102 -17.9751,13.33614 -2.9837,0.30795 -5.417,0.83445 -5.4074,1.17 0.01,0.33556 0.6828,4.6601 1.4962,9.6101 2.1181,12.89187 2.3234,12.37318 -4.079,10.30622 z m -27.5061,-11.55622 c 3.2165,-11.99368 9.0516,-38.18623 9.0607,-40.67126 0.013,-3.54831 -2.5179,-6.57874 -5.4942,-6.57874 -1.2073,0 -3.95,1.29267 -6.0951,2.8726 -6.7123,4.94402 -38.88517,33.3452 -39.19047,34.59606 -0.2537,1.03967 5.7549,3.53134 8.5158,3.53134 0.5462,0 3.0713,-1.82924 5.6112,-4.06499 l 4.6181,-4.06498 7.11427,2.29132 7.1144,2.29133 -0.5895,3.68624 c -0.3242,2.02743 -0.864,4.40185 -1.1997,5.27649 -0.4351,1.13399 0.3533,2.00858 2.7479,3.04828 5.3718,2.33239 6.6661,1.96442 7.7866,-2.21369 z m -7.1123,0.60981 -2.6837,-0.9823 1.4229,-4.68876 c 0.7826,-2.57881 1.4278,-4.9893 1.4337,-5.35663 0.01,-0.36733 -3.5934,-1.86819 -7.9986,-3.33525 l -8.00937,-2.66737 -4.9776,4.16754 c -4.2227,3.53545 -5.4329,4.06756 -7.9792,3.50832 -1.6508,-0.36258 -3.2359,-1.0386 -3.5225,-1.50227 -0.6272,-1.01485 34.94987,-32.15108 39.31717,-34.40953 4.0964,-2.11835 8.1809,-0.71519 8.1809,2.81042 0,2.01161 -7.7274,35.68802 -9.602,41.84602 -0.5918,1.94378 -1.6279,2.05698 -5.5817,0.60981 z m 3.9713,-27.10981 c 1.1332,-4.2625 1.6764,-7.75 1.2072,-7.75 -1.1021,0 -14.9948,12.06117 -14.9948,13.01802 0,0.99254 10.3476,3.88404 11.1137,3.10557 0.3375,-0.34298 1.5408,-4.11109 2.6739,-8.37359 z m -8.7876,6.10798 -2.5,-1.01525 5.3703,-4.96779 c 2.9536,-2.73229 5.5103,-4.82764 5.6816,-4.65635 0.1713,0.1713 -0.4068,2.89219 -1.2847,6.04643 -1.6813,6.04037 -2.4722,6.54021 -7.2672,4.59296 z m -21.49997,-6.98607 c 6.05,-9.40515 11.5545,-17.31894 12.2321,-17.5862 0.6777,-0.26726 3.3453,0.23412 5.92807,1.11418 2.5829,0.88006 4.7965,1.60011 4.9192,1.60011 0.9038,0 4.3553,-7.45339 3.7236,-8.04104 -0.9088,-0.84554 -28.59557,-9.95896 -30.25547,-9.95896 -0.5923,0 -1.9518,1.43866 -3.0211,3.19703 -2.3327,3.83589 -1.4274,5.44951 3.5852,6.38987 1.8758,0.3519 3.6368,1.00597 3.9134,1.45348 0.4184,0.67704 -9.3486,16.51273 -19.1282,31.01337 -1.3182,1.95456 -2.3968,4.0792 -2.3968,4.72141 0,1.10477 4.7434,2.95514 8,3.12074 0.8855,0.045 6.0068,-6.92977 12.5,-17.02399 z m -16.6633,13.99469 -2.6634,-0.9755 11.4088,-17.69555 c 12.478,-19.35414 12.4756,-19.3437 4.7442,-20.79412 -1.8294,-0.34321 -3.3263,-0.77776 -3.3263,-0.96567 0,-0.98034 2.4085,-5.43576 2.9385,-5.43576 1.9093,0 29.06147,9.19558 29.06147,9.8422 0,0.42655 -0.6215,1.62549 -1.3811,2.66432 -1.3127,1.7953 -1.6584,1.81161 -6.9831,0.32955 l -5.60197,-1.55924 -11.6238,17.86158 c -6.3932,9.82388 -12.1383,17.82606 -12.7669,17.78264 -0.6287,-0.0434 -2.3416,-0.51792 -3.8064,-1.05445 z m -1.0649,-21.70945 c 5.7936,-23.09691 6.2001,-26.56668 3.294,-28.12197 -4.564,-2.44255 -7.4857,-1.27233 -16.7648,6.71482 -4.952,4.2625 -14.4923,12.46509 -21.20076,18.22798 -10.85596,9.32584 -12.00776,10.61645 -10.47494,11.73728 0.94721,0.69261 3.19642,1.53586 4.99825,1.87389 2.81648,0.52838 3.94941,0.0475 8.07625,-3.42787 l 4.8002,-4.04245 7,2.29748 c 7.5227,2.46904 7.2464,2.01507 5.9119,9.71413 -0.5766,3.32685 -0.3902,3.71745 2.2294,4.67105 6.8159,2.48109 6.4196,3.12289 12.1305,-19.64434 z m -11.6263,17.77302 c -1.578,-0.63202 -2.1544,-1.46447 -1.7478,-2.52403 0.3337,-0.86954 0.8827,-3.30748 1.2202,-5.41765 l 0.6135,-3.83668 -6.3657,-1.98823 c -3.5011,-1.09353 -7.071,-2.26928 -7.933,-2.61279 -1.005,-0.40051 -3.2559,0.86187 -6.2746,3.519 -4.17928,3.67873 -5.0972,4.07041 -8.1827,3.49157 -1.91145,-0.35859 -3.47537,-1.0318 -3.47537,-1.49602 0,-1.04773 35.76937,-32.33635 38.85497,-33.98774 1.2342,-0.6605 3.4138,-1.06066 4.8436,-0.88925 5.1979,0.62312 5.1533,2.19774 -0.7149,25.28448 -5.7561,22.64582 -5.6893,22.51963 -10.8382,20.45734 z m 2.8833,-22.18017 c 0.6082,-2.3375 1.5552,-5.98292 2.1043,-8.10094 0.5491,-2.11802 0.759,-4.09033 0.4664,-4.38291 -0.6489,-0.64897 -14.5995,11.58834 -14.5995,12.80657 0,0.71272 7.6649,3.60832 10.2115,3.85763 0.3913,0.0383 1.2091,-1.84285 1.8173,-4.18035 z m -5.7638,1.92392 c -1.7792,-0.64566 -3.2635,-1.53562 -3.2983,-1.97769 -0.035,-0.44208 2.2849,-2.91507 5.155,-5.49555 5.1971,-4.67258 5.2154,-4.67952 4.493,-1.69623 -1.4956,6.17544 -2.6986,10.49309 -2.9032,10.41947 -0.1163,-0.0418 -1.6672,-0.60434 -3.4465,-1.25 z m -38.83168,3.8201 c 1.03845,-1.92828 1.70328,-3.61578 1.4774,-3.75 -0.22588,-0.13421 -2.57683,-1.33424 -5.22433,-2.66674 -10.33006,-5.19916 -10.19662,-13.83363 0.494,-31.96441 2.85425,-4.84066 4.5726,-8.75991 4.06376,-9.26875 -0.77421,-0.77421 -11.15132,-4.18747 -16.74412,-5.5075 -1.57668,-0.37214 -2.74081,0.75372 -5.5,5.31918 -10.49347,17.3629 -25.62798,26.54365 -38.78139,23.52519 -4.2134,-0.9669 -4.32038,-0.92512 -6.737,2.63126 -1.69433,2.49343 -2.13443,3.93524 -1.41959,4.65075 0.57996,0.58052 5.5264,1.037 11.23699,1.037 9.06898,0 10.81133,-0.30048 15.70099,-2.70776 3.025,-1.48927 7.6375,-4.81981 10.25,-7.4012 5.42221,-5.35764 5.98995,-5.08303 1.92018,0.92878 -3.66623,5.41571 -4.39019,6.68018 -3.82465,6.68018 0.25496,0 5.11902,-7.19491 10.80902,-15.9887 5.80446,-8.97068 11.00385,-15.98694 11.84545,-15.98469 0.825,0.002 2.10896,0.3899 2.85325,0.86153 1.69032,1.07111 1.51059,1.41922 -9.28281,17.98018 -4.52789,6.94743 -9.87798,15.21918 -11.88907,18.38168 -2.01109,3.1625 -3.85782,5.75 -4.10385,5.75 -0.24603,0 -1.63197,-0.4504 -3.07988,-1.0009 l -2.63255,-1.00089 1.90349,-2.74911 c 2.69955,-3.8988 3.42664,-5.2491 2.82649,-5.2491 -0.84271,0 -5.59507,7.35106 -5.59507,8.65458 0,1.5487 7.01862,3.9044 7.86882,2.64106 0.34715,-0.51585 3.71752,-5.74339 7.4897,-11.61677 3.77219,-5.87338 6.99065,-10.67887 7.15214,-10.67887 0.16148,0 -0.33736,2.09652 -1.10853,4.65893 -1.67138,5.55358 -1.74687,8.55951 -0.342,13.6184 1.79256,6.45496 9.34466,13.34012 14.96247,13.6411 0.83742,0.0449 2.37223,-1.49612 3.41069,-3.42441 z m -7.98287,0.0994 c -7.3651,-3.20803 -11.48912,-12.37415 -9.52206,-21.1639 1.85653,-8.29583 13.23739,-27.68686 15.69605,-26.74338 0.75658,0.29032 1.37559,0.72568 1.37559,0.96746 0,0.24178 -2.01437,3.93192 -4.47637,8.20031 -2.462,4.26838 -5.162,9.70399 -6,12.07913 -3.35905,9.52057 -0.99309,17.25635 6.43714,21.04697 4.45382,2.27217 4.48321,2.32191 3.00405,5.08575 -1.20556,2.25261 -2.34275,2.34472 -6.5144,0.52766 z m -57.70042,-18.22676 c -2.04306,-0.59927 -2.13935,-1.29782 -0.4682,-3.39652 0.93491,-1.17409 3.31117,-1.52292 10.2182,-1.5 8.15398,0.027 9.51148,-0.25215 14.44113,-2.97014 6.61211,-3.64563 14.62278,-11.65636 20.16924,-20.16941 4.01668,-6.16503 5.22316,-7.21798 6.29091,-5.49032 0.96129,1.5554 -10.97995,18.61268 -16.63428,23.76098 -8.18277,7.45045 -13.46823,9.67566 -23.767,10.00605 -4.675,0.14997 -9.2875,0.0417 -10.25,-0.24064 z m 36.75,214.63334 c -2.75,-1.01475 -4.61926,-1.87987 -4.15391,-1.9225 1.26668,-0.11603 11.65391,2.99772 11.65391,3.49346 0,0.8002 -2.48421,0.27986 -7.5,-1.57096 z m -10.5,-3.5 c -1.925,-0.74131 -2.825,-1.36178 -2,-1.37882 0.825,-0.017 2.85,0.58718 4.5,1.34271 3.86206,1.7684 2.0657,1.79435 -2.5,0.0361 z m -19,-6 c -3.575,-1.28912 -6.02515,-2.37898 -5.44479,-2.42192 0.58037,-0.043 4.18037,1.01342 8,2.34749 3.81964,1.33406 6.26979,2.42392 5.44479,2.42192 -0.825,-0.002 -4.425,-1.05837 -8,-2.34749 z m -398.5573,-5.91824 c -1.06675,-0.78003 -1.69238,-1.66541 -1.39027,-1.96752 0.76892,-0.76893 7.94757,1.53756 7.94757,2.55354 0,1.34955 -4.45471,0.95143 -6.5573,-0.58602 z m 373.5573,-2.08176 c -3.575,-1.28912 -6.02515,-2.37898 -5.44479,-2.42192 0.58037,-0.043 4.18037,1.01342 8,2.34749 3.81964,1.33406 6.26979,2.42392 5.44479,2.42192 -0.825,-0.002 -4.425,-1.05837 -8,-2.34749 z m -10.5,-3.5 c -1.31874,-0.56668 -1.48906,-0.87815 -0.5,-0.9144 0.825,-0.0302 2.175,0.38124 3,0.9144 1.82797,1.18132 0.24909,1.18132 -2.5,0 z m -6.5,-2 c -1.82797,-1.18132 -0.24909,-1.18132 2.5,0 1.31874,0.56668 1.48906,0.87815 0.5,0.9144 -0.825,0.0302 -2.175,-0.38124 -3,-0.9144 z m -7.1875,-2.68311 c 0.72187,-0.28887 1.58438,-0.25335 1.91667,0.0789 0.33229,0.33229 -0.25834,0.56864 -1.3125,0.52522 -1.16495,-0.048 -1.4019,-0.28494 -0.60417,-0.60416 z m -5.3125,-1.31689 c -1.31874,-0.56668 -1.48906,-0.87815 -0.5,-0.9144 0.825,-0.0302 2.175,0.38124 3,0.9144 1.82797,1.18132 0.24909,1.18132 -2.5,0 z m -23.5,-7.5 c -5.225,-1.83862 -9.03276,-3.37828 -8.4617,-3.42147 0.57107,-0.0432 5.52107,1.46233 11,3.34561 5.47894,1.88328 9.2867,3.42294 8.4617,3.42147 -0.825,-10e-4 -5.775,-1.50699 -11,-3.34561 z m -22,-7 c -3.575,-1.28912 -6.02515,-2.37898 -5.44479,-2.42192 0.58037,-0.043 4.18037,1.01342 8,2.34749 3.81964,1.33406 6.26979,2.42392 5.44479,2.42192 -0.825,-0.002 -4.425,-1.05837 -8,-2.34749 z m -98,-6.05727 c -39.75959,-12.65313 -47.33974,-15.29843 -48.18959,-16.81703 -0.64639,-1.15502 -0.51032,-1.6257 0.46997,-1.6257 1.35554,0 60.89627,18.87685 61.55802,19.51641 0.18612,0.17988 0.18612,0.97854 0,1.77481 -0.27192,1.16336 -2.9904,0.60379 -13.8384,-2.84849 z m 76,-0.94273 c -5.225,-1.83862 -9.03276,-3.37828 -8.4617,-3.42147 0.57107,-0.0432 5.52107,1.46233 11,3.34561 5.47894,1.88328 9.2867,3.42294 8.4617,3.42147 -0.825,-10e-4 -5.775,-1.50699 -11,-3.34561 z m -61.14149,1.72529 c -0.19718,-0.50916 -8.45851,-3.5084 -18.35851,-6.66497 -36.40101,-11.60628 -43.01726,-13.80257 -43.82413,-14.54761 -0.61518,-0.56804 6.40454,-13.08336 8.91665,-15.89731 0.18884,-0.21153 1.59528,0.10023 3.12542,0.6928 1.53013,0.59258 12.90706,4.27989 25.28206,8.19404 29.80369,9.42674 32.34754,10.27503 33.38236,11.13187 0.4853,0.40184 -0.89702,3.57355 -3.07182,7.04825 -5.32126,8.50185 -5.49886,8.81764 -4.9592,8.81764 0.25816,0 2.31668,-2.925 4.5745,-6.5 2.25782,-3.575 4.37491,-6.5 4.70465,-6.5 0.32974,0 -0.20126,1.2375 -1.18,2.75 -5.92436,9.15526 -8.27477,12.29442 -8.59198,11.47529 z m -7.29964,-9.79261 c -1.85557,-1.36953 -1.82251,-1.43268 0.75,-1.43268 3.07457,0 3.51104,-1.38844 0.94113,-2.99381 -1.39996,-0.87452 -1.09993,-0.96858 1.5,-0.47023 4.39162,0.84177 4.4724,-1.91418 0.10078,-3.43813 -4.42921,-1.54403 -4.38881,-1.56184 -7.1514,3.15217 -3.27496,5.58828 -3.23948,6.05108 0.5656,7.37884 4.00497,1.3975 6.1895,-0.059 3.29389,-2.19616 z m -7.05887,-2.43268 c 1.70182,-1.88048 1.70895,-2.11164 0.11933,-3.86815 -1.61306,-1.7824 -1.57428,-1.84589 0.84501,-1.38342 2.71117,0.51828 3.29274,-0.59135 1.33566,-2.54843 -1.68372,-1.68372 -6.31026,-1.49503 -7.81557,0.31876 -1.02757,1.23815 -0.95782,1.85317 0.37756,3.32874 2.04565,2.26042 2.15478,3.82627 0.15074,2.16307 -0.81799,-0.67888 -2.22924,-0.9496 -3.13611,-0.6016 -1.50989,0.5794 -1.4979,0.79953 0.14225,2.61188 2.2954,2.53639 5.67485,2.52756 7.98113,-0.0208 z m -8.5728,-4.72784 c 1.69004,-2.05032 3.0728,-4.30032 3.0728,-5 0,-2.49435 -2.87256,-1.21443 -5,2.22784 -2.12453,3.43757 -4,4.5649 -4,2.40437 0,-0.6026 0.93196,-2.40445 2.07103,-4.00413 1.89841,-2.66607 1.92942,-2.96284 0.37204,-3.56046 -1.91795,-0.73599 -5.03794,2.62584 -6.09351,6.56581 -0.45769,1.7084 -0.11162,2.79523 1.19411,3.75 2.98345,2.18155 5.12179,1.57362 8.38353,-2.38343 z m -10.9114,-2.27216 c 2.01559,-7.63906 2.02146,-7.84524 0.23482,-8.23575 -1.79626,-0.3926 -11.25062,6.64456 -11.25062,8.37418 0,0.54662 1.49077,0.67253 3.5,0.29559 2.87476,-0.53931 3.5,-0.35566 3.5,1.02801 0,2.60428 3.25563,1.419 4.0158,-1.46203 z m -11.35556,-4 c 5.43236,0 7.49774,-5.22904 2.77466,-7.02475 -4.08344,-1.55252 -4.76779,-1.23618 -7.83778,3.62304 -2.37209,3.75459 -2.64636,4.7565 -1.5,5.47955 0.92025,0.58044 1.78483,0.37522 2.51312,-0.5965 0.61064,-0.81474 2.43314,-1.48134 4.05,-1.48134 z m -0.16024,-4 c 0.33992,-0.55 0.81648,-1 1.05902,-1 0.24254,0 0.44098,0.45 0.44098,1 0,0.55 -0.47656,1 -1.05902,1 -0.58246,0 -0.7809,-0.45 -0.44098,-1 z m 83.5,18 c -1.82797,-1.18132 -0.24909,-1.18132 2.5,0 1.31874,0.56668 1.48906,0.87815 0.5,0.9144 -0.825,0.0302 -2.175,-0.38124 -3,-0.9144 z m -8,-2.5 c -1.925,-0.74131 -2.825,-1.34784 -2,-1.34784 0.825,0 3.075,0.60653 5,1.34784 1.925,0.74131 2.825,1.34784 2,1.34784 -0.825,0 -3.075,-0.60653 -5,-1.34784 z m -335.40442,-4.16327 c -2.25705,-5.45702 -1.7919,-14.39145 1.39719,-26.83673 3.40885,-13.30291 15.26356,-34.28158 21.04132,-37.23575 1.35625,-0.69344 2.32127,-1.82409 2.14448,-2.51253 -0.24824,-0.9667 -0.0463,-0.98148 0.88682,-0.0649 0.94075,0.92407 0.0492,2.99369 -4.02708,9.34823 -10.13236,15.79546 -15.91049,32.12139 -18.08521,51.09922 -0.65331,5.70115 -1.25462,10.44783 -1.33624,10.54817 -0.0816,0.10035 -0.99121,-1.85522 -2.02128,-4.34571 z m 324.90442,0.66327 c -1.31874,-0.56668 -1.48906,-0.87815 -0.5,-0.9144 0.825,-0.0302 2.175,0.38124 3,0.9144 1.82797,1.18132 0.24909,1.18132 -2.5,0 z m -11.5,-3.5 c -3.575,-1.28912 -6.02515,-2.37898 -5.44479,-2.42192 0.58037,-0.043 4.18037,1.01342 8,2.34749 3.81964,1.33406 6.26979,2.42392 5.44479,2.42192 -0.825,-0.002 -4.425,-1.05837 -8,-2.34749 z m -90.99438,-4.39016 c -10.50634,-3.40226 -14.58507,-5.1646 -14.82397,-6.40515 -0.27119,-1.40814 0.0823,-1.55501 1.99438,-0.82877 1.27818,0.48546 8.28647,2.75633 15.57397,5.04637 9.03215,2.83829 13.25,4.62752 13.25,5.62071 0,1.85217 0.96985,2.06035 -15.99438,-3.43316 z m 16.99438,2.50196 c 0,-0.39685 1.84032,-3.43153 4.0896,-6.74374 2.24928,-3.31221 3.87289,-6.23891 3.60802,-6.50377 -0.26486,-0.26486 -2.13776,2.24482 -4.162,5.57707 -2.02423,3.33225 -3.94624,6.05864 -4.27111,6.05864 -1.31167,0 -29.82548,-9.37025 -30.61759,-10.0616 -0.46919,-0.40951 0.99331,-3.46348 3.25,-6.78661 4.31042,-6.34737 4.91594,-7.7376 2.85308,-6.55048 -0.72624,0.41793 -0.90083,0.33791 -0.41667,-0.19098 0.45834,-0.50068 1.13334,-0.91722 1.5,-0.92564 0.36667,-0.008 1.14701,-0.32171 1.7341,-0.69618 0.58708,-0.37448 8.17749,1.582 16.86757,4.34774 11.64157,3.70509 15.506,5.32275 14.68257,6.14618 -1.46838,1.46838 -1.4411,3.03556 0.0369,2.12208 1.30875,-0.80886 1.25859,-0.71674 -4.37442,8.03341 -4.16186,6.46499 -4.78005,7.26343 -4.78005,6.17388 z m -8.76177,-8.66113 c 8.87657,-2.46519 7.15934,-12.06551 -2.20208,-12.31097 -8.19099,-0.21478 -11.94259,8.17634 -5.27344,11.79498 3.33423,1.80914 2.92172,1.78067 7.47552,0.51599 z m -4.27755,-2.55408 c -1.53854,-4.04668 -1.17395,-5.39659 1.45753,-5.39659 3.89875,0 5.58179,1.05809 5.58179,3.50916 0,1.65774 -0.84412,2.58945 -3.03932,3.3547 -2.77875,0.96868 -3.12168,0.84289 -4,-1.46727 z m -5.96068,-2.76173 c 0,-3.10325 3.729,-5.63486 8.3,-5.63486 4.70989,0 6.7,1.31362 6.7,4.42251 0,1.94435 -0.0602,1.93663 -1.5567,-0.2 -2.33229,-3.3298 -8.60611,-3.10229 -11.37072,0.41235 -1.5105,1.92028 -2.07258,2.19148 -2.07258,1 z m 70,8.36514 c -1.82797,-1.18132 -0.24909,-1.18132 2.5,0 1.31874,0.56668 1.48906,0.87815 0.5,0.9144 -0.825,0.0302 -2.175,-0.38124 -3,-0.9144 z m -9.5,-3 c -2.75,-1.01475 -4.325,-1.84499 -3.5,-1.84499 0.825,0 3.75,0.83024 6.5,1.84499 2.75,1.01475 4.325,1.84499 3.5,1.84499 -0.825,0 -3.75,-0.83024 -6.5,-1.84499 z m -101.5,-7.11725 c -13.475,-4.32267 -27.5375,-8.8273 -31.25,-10.01031 -5.02786,-1.60215 -6.75,-2.60893 -6.75,-3.94611 0,-1.71706 0.25022,-1.71337 5.75,0.085 3.1625,1.03408 17.06823,5.51468 30.90163,9.95689 16.89364,5.42493 25.35583,8.60886 25.77354,9.69742 0.34205,0.89136 0.49881,1.72323 0.34837,1.8486 -0.15045,0.12532 -11.29854,-3.30883 -24.77354,-7.63149 z m 26.021,3.30823 c -0.0115,-0.71996 -0.41586,-1.06498 -0.89846,-0.76671 -0.48261,0.29826 -4.87011,-0.76573 -9.75,-2.36443 -4.8799,-1.59869 -18.88504,-6.11847 -31.12254,-10.04395 -12.2375,-3.92547 -22.25,-7.2931 -22.25,-7.48361 0,-0.19051 2.02404,-3.42571 4.49786,-7.18933 2.47383,-3.76362 4.62914,-7.2339 4.78959,-7.71172 0.16045,-0.47782 6.79891,1.1793 14.75214,3.68251 38.48252,12.112 47.51656,15.04062 48.19462,15.62352 0.40382,0.34714 -1.31947,3.69248 -3.82952,7.43409 -2.51006,3.74162 -4.36545,7.00122 -4.12311,7.24357 0.24235,0.24234 1.94064,-2.03437 3.77398,-5.05936 1.83333,-3.025 3.50666,-5.32667 3.7185,-5.11484 0.21183,0.21184 -1.44122,3.23684 -3.67346,6.72222 -2.23223,3.48538 -4.06806,5.748 -4.0796,5.02804 z m -4.021,-7.93555 c 0,-0.89459 1.0125,-2.70626 2.25,-4.02593 l 2.25,-2.3994 -2.36078,-1.91505 c -1.29844,-1.05328 -3.05223,-1.91505 -3.89733,-1.91505 -0.8451,0 -4.17769,-0.96301 -7.40576,-2.14002 -5.76286,-2.10125 -5.90755,-2.10578 -7.98557,-0.25 -2.08939,1.86593 -2.10778,1.86242 -1.44278,-0.27582 0.93035,-2.9915 -1.08514,-3.92604 -3.62779,-1.68212 -2.05413,1.8128 -2.08358,1.80638 -1.54749,-0.33746 0.58025,-2.32043 -2.03253,-4.25617 -3.19846,-2.36965 -0.36766,0.59488 -1.36092,0.15418 -2.40759,-1.06824 -1.30565,-1.52489 -2.60293,-1.96037 -4.85511,-1.62982 -2.11068,0.30978 -3.65257,-0.1281 -4.92237,-1.3979 -3.23493,-3.23493 -6.45748,-2.37313 -9.30682,2.48889 -1.39818,2.38582 -2.54215,4.63582 -2.54215,5 0,1.24432 3.2773,0.66501 4.38976,-0.77596 1.52059,-1.96962 6.95976,-0.91511 6.15099,1.19251 -1.75579,4.5755 6.12804,5.78504 10.05917,1.54328 l 2.50442,-2.70232 -1.05217,2.76742 c -2.08497,5.48389 -0.6146,7.36116 3.11909,3.98222 1.71639,-1.55331 1.82874,-1.52622 1.82874,0.44099 0,3.68707 2.07111,3.54751 6.25065,-0.4212 l 4.07012,-3.8648 -2.23067,3.73176 c -1.22687,2.05247 -1.94822,4.18878 -1.603,4.74736 0.34522,0.55858 2.41182,1.30089 4.59245,1.64959 2.18063,0.3487 4.22448,1.0542 4.54189,1.56778 0.31741,0.51359 1.43244,0.15974 2.47784,-0.78633 1.80951,-1.63759 1.90072,-1.62073 1.90072,0.35152 0,2.02229 1.75013,3.39243 3.25,2.54436 0.4125,-0.23324 0.75,-1.15601 0.75,-2.05061 z m -11.25,-3.94476 c -0.9625,-0.25152 -1.75,-0.90465 -1.75,-1.45138 0,-0.54674 0.86213,-0.72044 1.91584,-0.386 2.54179,0.80673 3.60929,-1.06914 1.35519,-2.38142 -1.58643,-0.92358 -1.59715,-1.03422 -0.10282,-1.06146 0.91752,-0.0167 2.3631,0.23624 3.21241,0.56215 1.38772,0.53252 1.38436,0.8365 -0.0332,3 -0.86757,1.32409 -1.86316,2.35524 -2.2124,2.29144 -0.34924,-0.0638 -1.42249,-0.3218 -2.38499,-0.57333 z m 9.25,-2.31067 c 0,-0.55 0.45,-1 1,-1 0.55,0 1,0.45 1,1 0,0.55 -0.45,1 -1,1 -0.55,0 -1,-0.45 -1,-1 z m -34.02981,-7.94431 c 1.22341,-2.28595 3.02981,-3.59552 3.02981,-2.19649 0,2.12434 -1.28667,4.1408 -2.64217,4.1408 -1.10468,0 -1.19249,-0.44042 -0.38764,-1.94431 z m -7.47019,-5.05569 c 0.33992,-0.55 0.81648,-1 1.05902,-1 0.24254,0 0.44098,0.45 0.44098,1 0,0.55 -0.47656,1 -1.05902,1 -0.58246,0 -0.7809,-0.45 -0.44098,-1 z m 110.5,27 c -1.82797,-1.18132 -0.24909,-1.18132 2.5,0 1.31874,0.56668 1.48906,0.87815 0.5,0.9144 -0.825,0.0302 -2.175,-0.38124 -3,-0.9144 z m -8,-2.5 c -1.925,-0.74131 -2.825,-1.34784 -2,-1.34784 0.825,0 3.075,0.60653 5,1.34784 1.925,0.74131 2.825,1.34784 2,1.34784 -0.825,0 -3.075,-0.60653 -5,-1.34784 z m -12.5,-3.96389 c -3.86206,-1.7684 -2.0657,-1.79435 2.5,-0.0361 1.925,0.74131 2.825,1.36178 2,1.37882 -0.825,0.017 -2.85,-0.58718 -4.5,-1.34271 z m -8.6875,-3.21922 c 0.72187,-0.28887 1.58438,-0.25335 1.91667,0.0789 0.33229,0.33229 -0.25834,0.56864 -1.3125,0.52522 -1.16495,-0.048 -1.4019,-0.28494 -0.60417,-0.60416 z m -20.8125,-5.97507 c -0.825,-0.27515 -2.12691,-0.70022 -2.89313,-0.94459 -0.76622,-0.24437 -1.17693,-0.6605 -0.91269,-0.92475 0.26424,-0.26424 2.24115,0.16465 4.39313,0.95308 3.53376,1.29469 3.00777,2.1153 -0.58731,0.91626 z m -88.5,-3.84263 c -14.88537,-5.05614 -95.78422,-30.68317 -98.30017,-31.1394 -3.51878,-0.63808 -3.74466,-0.99784 -1.41075,-2.24691 1.52931,-0.81846 4.57164,-0.19053 13.83565,2.85565 6.5314,2.14765 23.12527,7.50029 36.87527,11.89477 13.75,4.39448 32.3125,10.33011 41.25,13.19027 10.58515,3.38745 16.25,5.67897 16.25,6.57337 0,1.73799 -0.10375,1.72422 -8.5,-1.12775 z m 79,0.50081 c -1.26064,-0.54172 -1.44548,-0.85943 -0.5,-0.85943 0.825,0 2.4,0.38674 3.5,0.85943 1.26064,0.54172 1.44548,0.85943 0.5,0.85943 -0.825,0 -2.4,-0.38674 -3.5,-0.85943 z m -69.5,-2.05902 c 0,-0.58246 -0.38416,-0.82159 -0.85368,-0.53141 -0.46953,0.29018 -6.88203,-1.44729 -14.25,-3.86105 -7.36798,-2.41375 -22.84632,-7.39662 -34.39632,-11.07303 -11.55,-3.67641 -23.475,-7.48903 -26.5,-8.47249 -3.025,-0.98346 -10.9,-3.48421 -17.5,-5.55723 -6.6,-2.07301 -12.17647,-3.91033 -12.39216,-4.08294 -0.21569,-0.1726 1.94431,-3.87271 4.8,-8.22246 l 5.19217,-7.90863 13.69999,4.36473 c 84.0663,26.78298 90.7016,29.04629 90.38312,30.82975 -0.18727,1.04868 0.11643,1.50668 0.7425,1.11975 0.58266,-0.3601 -0.36966,1.64412 -2.11627,4.45383 -1.74662,2.80971 -3.65574,5.40427 -4.24251,5.7657 -0.58676,0.36143 -0.27934,-0.56295 0.68316,-2.05418 0.9625,-1.49122 2.47675,-3.83632 3.36501,-5.21132 0.88826,-1.375 1.40197,-2.5 1.14158,-2.5 -0.56088,0 -7.75659,10.70891 -7.75659,11.54363 0,0.31592 0.44485,0.29947 0.98855,-0.0366 0.56686,-0.35034 0.7345,0.0511 0.39301,0.94098 -0.68618,1.7882 -1.38156,2.03631 -1.38156,0.49297 z m 52,-3.44098 c -1.925,-0.74131 -2.825,-1.34784 -2,-1.34784 0.825,0 3.075,0.60653 5,1.34784 1.925,0.74131 2.825,1.34784 2,1.34784 -0.825,0 -3.075,-0.60653 -5,-1.34784 z m -12,-4 c -1.925,-0.74131 -2.825,-1.36178 -2,-1.37882 0.825,-0.017 2.85,0.58718 4.5,1.34271 3.86206,1.7684 2.0657,1.79435 -2.5,0.0361 z m 925.23644,-3.6456 c -2.8801,-2.8056 -5.2365,-5.48107 -5.2365,-5.94549 0,-0.6984 38.1228,-60.29141 58.7959,-91.90891 3.0567,-4.675 11.0267,-17.05 17.711,-27.5 15.3293,-23.96512 44.0163,-68.3838 51.2318,-79.32669 10.1228,-15.35228 18.1703,-18.15242 23.2957,-8.10581 4.0832,8.00363 4.1418,8.59917 0.847,8.59917 -4.7555,0 -8.7718,4.93773 -27.1131,33.33333 -9.4142,14.575 -20.9759,32.44084 -25.6926,39.70187 -4.7166,7.26103 -10.2173,15.81103 -12.2236,19 -3.1313,4.97704 -14.592,22.73329 -37.6281,58.29813 -9.7985,15.12759 -11.7907,18.21428 -24.2038,37.5 -6.726,10.45 -12.7507,19.55248 -13.3881,20.22774 -0.9024,0.95594 -2.3183,0.0984 -6.3956,-3.87334 z m -941.23644,-1.3544 c -3.575,-1.28912 -6.02515,-2.37898 -5.44479,-2.42192 0.58037,-0.043 4.18037,1.01342 8,2.34749 3.81964,1.33406 6.26979,2.42392 5.44479,2.42192 -0.825,-0.002 -4.425,-1.05837 -8,-2.34749 z m -11,-3.22086 c -1.375,-0.24667 -2.95,-0.89223 -3.5,-1.43458 -1.13519,-1.1194 4.01963,-0.12017 6.5,1.25998 1.57838,0.87826 1.08302,0.90709 -3,0.1746 z m 930.99994,-6.40105 c -6.875,-2.20877 -19.925,-6.41855 -29,-9.35505 -9.075,-2.93651 -26.625,-8.57487 -39,-12.5297 -12.375,-3.95483 -28.575,-9.13674 -36,-11.51536 -7.425,-2.37862 -23.625,-7.53708 -36,-11.46324 -12.375,-3.92617 -23.625,-7.53275 -25,-8.01464 -1.375,-0.48188 -13.3,-4.30449 -26.5,-8.49469 -13.2,-4.1902 -25.125,-8.01736 -26.5,-8.50479 -1.375,-0.48743 -12.625,-4.09441 -25,-8.01551 -21.2856,-6.74449 -40.2205,-12.80056 -64,-20.46954 -19.5751,-6.31304 -114.384,-36.6129 -135,-43.14449 -11.27497,-3.57216 -27.24997,-8.69249 -35.49997,-11.37853 -8.25,-2.68603 -42.67497,-13.71169 -76.49997,-24.50145 -33.825,-10.78977 -72.525,-23.15983 -86,-27.48903 -26.54067,-8.52688 -98.80313,-31.70441 -119,-38.16816 -6.875,-2.20026 -23.525,-7.50762 -37,-11.79412 -13.475,-4.28651 -33.95,-10.83271 -45.5,-14.54711 -11.55,-3.71439 -24.15,-7.72643 -28,-8.91562 -3.85,-1.1892 -7,-2.63519 -7,-3.21332 0,-1.05745 5.31879,-9.38415 70.65818,-110.61709 19.612,-30.38566 38.26142,-59.29665 41.44316,-64.24665 8.08846,-12.58365 18.08254,-27.63242 19.88716,-29.94545 1.486,-1.90467 1.82703,-1.84485 16.26466,2.85287 8.11076,2.63908 18.79684,6.06742 23.74684,7.61852 27.01531,8.46537 68.91289,22.05361 69.35133,22.49206 0.27863,0.27863 -0.52679,1.90434 -1.78983,3.61269 -2.60641,3.52535 -2.07196,4.26956 3.86615,5.38356 3.15862,0.59256 3.85318,0.31303 6.19647,-2.49386 2.55809,-3.06418 2.76783,-3.12657 6.83157,-2.03232 l 4.19246,1.12891 -2.64218,3.46408 -2.64218,3.46408 3.53599,1.47743 c 5.11087,2.13546 6.85136,1.84426 9.10022,-1.52257 2.1754,-3.25685 3.51059,-3.54624 7.83532,-1.69822 l 2.83531,1.21158 -2.08531,2.65105 c -1.14693,1.45808 -2.08532,3.08409 -2.08532,3.61336 0,0.52927 2.07037,1.54198 4.60082,2.25046 4.58603,1.28401 4.60877,1.27799 7.07248,-1.87004 2.66398,-3.40393 3.7591,-3.70469 7.84003,-2.15312 l 2.64353,1.00506 -2.11106,3.41576 c -2.30424,3.72834 -2.29251,3.74807 3.30159,5.55249 3.78461,1.22076 3.8954,1.18276 6.79008,-2.32899 2.45472,-2.978 3.30915,-3.42424 5.15261,-2.69104 1.21546,0.48341 3.03664,1.14148 4.04708,1.46236 1.68507,0.53511 1.61225,0.8507 -0.87962,3.81212 l -2.71677,3.2287 3.87961,1.74301 c 5.32196,2.39102 5.90615,2.28276 8.9061,-1.65037 2.34779,-3.07811 2.91347,-3.34173 5.30089,-2.47033 1.46995,0.53652 3.26709,1.18529 3.99366,1.4417 0.99704,0.35186 0.78293,1.2219 -0.87295,3.54738 -2.48735,3.49316 -2.01737,4.31765 3.27545,5.74623 3.54492,0.95681 3.85672,0.83946 6.5,-2.44639 2.67401,-3.32403 2.90563,-3.40757 6.27647,-2.26362 4.61748,1.56701 4.52104,1.35038 2.10909,4.73766 -1.16,1.62907 -2.10909,3.18767 -2.10909,3.46357 0,0.27589 2.09706,1.21617 4.66014,2.0895 4.34958,1.48205 4.74402,1.47165 5.91873,-0.156 4.1655,-5.77163 3.8395,-5.59092 7.7546,-4.29883 4.2619,1.40656 4.3916,1.86352 1.5525,5.47276 -1.1627,1.47814 -1.9377,2.8638 -1.7222,3.07925 0.2154,0.21545 2.4545,0.94345 4.9758,1.61778 4.5228,1.20967 4.6227,1.18351 7.4722,-1.9566 2.7397,-3.01895 3.0846,-3.1272 6.7067,-2.10454 l 3.8184,1.0781 -2.6365,3.45668 -2.6366,3.45667 3.536,1.47743 c 5.0956,2.12908 6.6339,1.86158 9.5786,-1.66573 2.526,-3.02578 2.7622,-3.09757 6.3228,-1.92245 2.0344,0.67139 3.6988,1.45234 3.6988,1.73543 0,0.2831 -0.9,1.65889 -2,3.05731 -1.1,1.39842 -2,2.87342 -2,3.27777 0,0.40435 2.0501,1.30916 4.5557,2.01069 4.541,1.2714 4.5645,1.26497 7.2871,-1.99627 2.3929,-2.86634 3.1281,-3.18464 5.9328,-2.56861 4.2768,0.93933 4.7588,2.05451 2.2607,5.23027 -2.3928,3.042 -2.0404,3.59602 3.3932,5.335 3.88837,1.24444 3.95957,1.22007 6.80907,-2.33197 2.5824,-3.21905 3.1574,-3.48815 5.5705,-2.60712 1.48,0.54035 3.2794,1.18997 3.9988,1.44361 0.9449,0.33318 0.5674,1.43199 -1.3603,3.95937 -1.9777,2.59285 -2.3162,3.60767 -1.3079,3.9211 0.7482,0.23259 2.9353,0.93495 4.8603,1.56082 3.3275,1.08183 3.6374,0.97526 6.287,-2.16193 2.8321,-3.35316 5.0353,-3.75629 8.9942,-1.64572 1.6804,0.89587 1.6593,1.12072 -0.373,3.97477 -2.3875,3.35299 -2.0142,4.0519 3.0918,5.78853 3.3659,1.14479 3.6177,1.05574 6.5722,-2.32448 2.955,-3.3807 3.2127,-3.47179 6.75,-2.38614 4.2832,1.31454 4.3786,1.63253 1.5638,5.21098 -1.1627,1.47814 -1.882,2.91954 -1.5984,3.20311 0.2835,0.28357 2.5811,1.13723 5.1057,1.89702 4.1517,1.24948 4.6849,1.21908 5.5816,-0.31825 2.9554,-5.06701 3.6078,-5.40498 7.9329,-4.10917 l 4.0889,1.22507 -2.5665,3.36478 -2.5664,3.36478 3.536,1.47743 c 5.0199,2.09745 6.3985,1.87062 9.2537,-1.52257 2.783,-3.30746 3.5296,-3.47251 7.6818,-1.69822 l 2.8353,1.21158 -2.0853,2.65105 c -2.9488,3.74886 -2.6687,4.41232 2.4704,5.85118 4.5458,1.27275 4.5616,1.26838 7.3116,-2.02572 2.208,-2.6448 3.2409,-3.17261 5.1944,-2.65439 4.901,1.30013 5.4411,2.20983 3.0882,5.20105 -1.1824,1.50325 -2.1499,3.02917 -2.1499,3.39092 0,0.36176 2.128,1.2269 4.7289,1.92253 4.7283,1.26463 4.7293,1.26437 7.3822,-1.98616 2.6113,-3.19948 2.7193,-3.23122 6.8151,-2.00406 l 4.1618,1.2469 -2.6003,3.09034 c -2.9216,3.47208 -2.6361,4.03377 2.9611,5.82536 3.8827,1.24282 3.9964,1.20721 6.7963,-2.1292 2.8346,-3.37775 3.8022,-3.58609 8.4491,-1.81932 l 2.4407,0.92795 -2.1904,3.07615 c -2.4243,3.40463 -2.0608,4.09938 3.0555,5.8395 3.3695,1.14601 3.6158,1.05795 6.6048,-2.36213 2.9598,-3.38669 3.2632,-3.49898 6.5,-2.40546 4.5102,1.52376 4.4244,1.29822 1.8626,4.89597 -2.5353,3.56047 -2.1088,4.19796 3.9605,5.91911 2.8269,0.80165 3.6455,0.67078 4.6687,-0.74642 3.8907,-5.3885 3.6754,-5.27476 7.6534,-4.04358 4.3321,1.3408 4.4455,1.67114 1.75,5.09794 -1.1,1.39842 -2,2.76681 -2,3.04086 0,0.27404 2.0933,1.21153 4.6518,2.08329 l 4.6518,1.58502 3.0982,-3.54429 c 3.0731,-3.51554 3.1295,-3.53332 6.9519,-2.19103 l 3.8538,1.35326 -2.7013,3.21029 -2.7013,3.21028 3.5654,1.48972 c 5.1267,2.14205 6.6597,1.87824 9.6081,-1.65343 2.526,-3.02578 2.7621,-3.09757 6.3228,-1.92245 4.2375,1.39851 4.4796,2.04904 1.6988,4.56561 -3.0669,2.77551 -2.4262,4.12076 2.6381,5.53867 l 4.6382,1.2986 2.683,-3.28737 c 2.3476,-2.87639 3.079,-3.2004 5.8504,-2.5917 4.2267,0.92834 4.7202,2.05267 2.2689,5.16899 -2.5467,3.23768 -2.0847,4.0248 3.1972,5.44709 4.0691,1.09569 4.2694,1.0352 6.8642,-2.07286 2.3637,-2.83137 3.0592,-3.11851 6.0163,-2.48385 4.9701,1.0667 5.078,1.30869 2.2411,5.02812 l -2.6107,3.42272 2.6508,1.00781 c 6.3083,2.39843 7.1506,2.30177 10.0655,-1.15514 2.798,-3.31824 3.6059,-3.49057 8.1912,-1.74724 l 2.4407,0.92795 -2.1904,3.07615 c -2.4664,3.46372 -2.0658,4.16197 3.388,5.90603 3.4162,1.09245 3.9776,1.02411 5.1687,-0.6292 3.9919,-5.54084 3.7584,-5.41488 7.7488,-4.17984 2.0625,0.63835 3.75,1.47444 3.75,1.85799 0,0.38355 -0.9579,1.91514 -2.1287,3.40354 -2.3882,3.03616 -2.0279,3.59304 3.5496,5.48592 4.2188,1.43177 3.8032,1.64737 7.9825,-4.14089 1.0409,-1.44173 1.8332,-1.55496 4.9187,-0.703 4.1295,1.14022 4.6282,2.75151 1.6779,5.42151 -1.1,0.99549 -2,2.14793 -2,2.56099 0,0.41305 2.1304,1.47689 4.7341,2.36408 l 4.7341,1.61308 3.0159,-3.53026 c 2.9297,-3.42933 3.1231,-3.49654 6.7659,-2.35129 4.3047,1.35334 4.5049,1.85027 1.75,4.3434 -2.825,2.55663 -2.4895,4.13369 1.1492,5.40217 4.7592,1.65908 5.9709,1.37838 8.8292,-2.04533 2.526,-3.02578 2.7621,-3.09757 6.3228,-1.92245 2.0343,0.67139 3.6988,1.45234 3.6988,1.73543 0,0.2831 -0.9,1.65889 -2,3.05731 -1.1,1.39842 -2,2.87342 -2,3.27777 0,0.40435 2.0872,1.31955 4.6381,2.03377 l 4.6382,1.2986 2.683,-3.28737 c 2.3476,-2.87639 3.079,-3.2004 5.8504,-2.5917 4.2631,0.93633 4.7001,2.01716 2.2224,5.49676 -1.9797,2.78023 -1.9969,2.99244 -0.3133,3.87487 0.9797,0.51345 3.2094,1.24 4.9549,1.61456 2.7625,0.59278 3.4671,0.28421 5.4381,-2.38169 2.4356,-3.29438 4.3343,-3.72781 8.3384,-1.90345 l 2.5442,1.15925 -2.5513,3.34494 -2.5513,3.34494 2.5982,0.98782 c 6.1742,2.34742 7.1181,2.25828 9.7967,-0.92512 2.7753,-3.29818 4.1047,-3.63317 8.2157,-2.07018 l 2.6325,1.00089 -2.1904,3.07615 c -2.4624,3.45806 -2.0623,4.1633 3.3413,5.89062 3.5964,1.14962 3.8966,1.07206 6,-1.55017 1.2178,-1.51818 2.4576,-3.12016 2.755,-3.55995 0.6129,-0.90617 7.9592,1.10087 7.9592,2.17448 0,0.38355 -0.9579,1.91514 -2.1287,3.40354 -2.4558,3.12213 -1.9069,3.96273 3.5512,5.43764 3.7525,1.014 4.056,0.91393 7,-2.30823 2.8008,-3.0654 3.3697,-3.28461 6.3275,-2.43844 3.1478,0.90051 4.2894,3.11214 2.2554,4.36925 -0.5471,0.33809 -1.4413,1.44931 -1.9872,2.46937 -0.8638,1.61396 -0.3799,2.06344 3.7287,3.46338 l 4.7213,1.60872 3.1104,-3.70481 c 3.056,-3.64006 3.1699,-3.68107 6.5159,-2.34649 1.873,0.74708 3.5693,1.48196 3.7695,1.63308 0.2002,0.15111 -0.5873,1.48413 -1.75,2.96227 -1.1627,1.47813 -2.114,3.03453 -2.114,3.45866 0,0.42412 2.0079,1.45531 4.4621,2.29152 l 4.462,1.52037 2.8585,-3.56315 c 2.79,-3.47779 2.9466,-3.53407 6.5379,-2.34883 4.2318,1.39661 4.3249,1.67722 1.6795,5.05923 -1.0755,1.375 -1.9655,2.77902 -1.9778,3.12004 -0.012,0.34102 2.0793,1.20843 4.6479,1.92758 4.6634,1.30569 4.6738,1.30304 7.3228,-1.87004 1.459,-1.74767 3.0514,-3.17758 3.5386,-3.17758 0.7919,0 17.7598,5.39438 91.6137,29.12549 l 21.6452,6.95515 -8.7991,13.20968 c -4.8395,7.26532 -26.4671,40.65968 -48.0614,74.20968 -35.7025,55.46936 -49.8468,77.38388 -70.1906,108.75 -3.8348,5.9125 -7.4824,10.72616 -8.1058,10.69702 -0.6234,-0.0291 -6.7585,-1.86015 -13.6335,-4.06893 z M 1184.6223,489.03481 c 2.5791,-0.80769 6.4894,-3.12894 8.6897,-5.15835 4.0651,-3.74942 30.5219,-44.1725 32.358,-49.43942 2.1195,-6.08025 -0.7907,-12.72412 -7.6005,-17.35154 -1.8075,-1.2282 -11.1276,-4.70798 -20.7114,-7.73283 -9.5837,-3.02485 -23.95,-7.60453 -31.925,-10.17708 -16.7286,-5.39624 -62.5974,-20.08819 -78,-24.98368 -8.6419,-2.7467 -21.6112,-6.90944 -39,-12.51778 -1.375,-0.44347 -6.775,-2.15766 -12,-3.80931 -5.225,-1.65165 -27.8824,-8.89241 -50.34987,-16.09059 -34.0834,-10.91971 -41.8687,-13.08842 -47,-13.09255 -8.1394,-0.007 -15.04694,2.5901 -20.06179,7.54152 -4.5776,4.5197 -30.35119,44.22112 -31.8745,49.0992 -2.185,6.99703 2.2848,15.3421 9.98696,18.64556 2.08959,0.89623 15.27426,5.28562 29.29926,9.75422 14.02497,4.46859 32.24997,10.29841 40.49997,12.95515 19.9517,6.42502 35.68827,11.45127 60.99997,19.48332 11.55,3.6651 22.8,7.28978 25,8.05483 16.6093,5.77593 114.7263,36.43567 117.5,36.71658 4.4784,0.45355 8.3252,-0.0608 14.1892,-1.89725 z m -59.1892,-12.70173 c -22.825,-7.34484 -50.95,-16.36428 -62.5,-20.0432 -11.55,-3.67892 -22.8,-7.30794 -25,-8.06449 -2.2,-0.75655 -9.625,-3.16712 -16.5,-5.35682 -87.80923,-27.96739 -103.99994,-33.23223 -103.99994,-33.81836 0,-1.54674 9.70733,-14.73105 12.10122,-16.43566 4.41835,-3.14615 10.92615,-5.04601 17.47025,-5.10021 5.8415,-0.0484 14.0495,2.10726 36.9285,9.69845 9.2723,3.0765 77.54407,24.90566 88.99997,28.45678 4.95,1.5344 16.65,5.28541 26,8.33559 9.35,3.05017 36.35,11.70037 60,19.22266 23.65,7.52229 43.3602,14.01052 43.8004,14.41828 0.4403,0.40777 -1.409,4.07775 -4.1094,8.15551 -6.588,9.94826 -12.1418,13.13274 -23.6786,13.57711 -7.894,0.30405 -8.6254,0.11134 -49.5124,-13.04564 z m 76.8818,-10.09801 c -0.2484,-0.24835 -30.1359,-9.96193 -66.4167,-21.58571 -36.2808,-11.62379 -92.0651,-29.5074 -123.9651,-39.74137 -52.58107,-16.86875 -58.65397,-18.60664 -64.99997,-18.60122 -5.0823,0.004 -8.3663,0.6185 -11.9875,2.24177 -6.41948,2.87768 -8.81375,5.13468 -14.20234,13.38809 -2.42387,3.7125 -4.94619,6.75 -5.60517,6.75 -2.49838,0 -17.35785,-5.409 -20.80079,-7.5717 -1.9777,-1.24231 -4.38854,-3.92927 -5.35742,-5.97102 -3.10932,-6.55242 -1.83203,-9.70127 13.69554,-33.76288 7.78842,-12.06899 15.42373,-23.20657 16.96735,-24.75019 1.54361,-1.54362 5.39043,-3.78193 8.54847,-4.97402 8.92336,-3.36835 15.79796,-2.42247 40.24186,5.53683 11.275,3.67131 24.55,7.94527 29.5,9.4977 4.94997,1.55243 33.74997,10.76985 63.99997,20.48315 30.25,9.71331 70.3,22.54128 89,28.5066 71.0149,22.65383 66.2635,20.95047 70.1834,25.16052 5.0536,5.4277 5.2479,11.81471 0.5849,19.22542 -9.0444,14.3738 -17.3664,26.61959 -18.0901,26.61959 -0.4647,0 -1.0481,-0.2032 -1.2964,-0.45156 z M 502.93316,608.68663 c -2.75,-1.01475 -4.325,-1.84499 -3.5,-1.84499 0.825,0 3.75,0.83024 6.5,1.84499 2.75,1.01475 4.325,1.84499 3.5,1.84499 -0.825,0 -3.75,-0.83024 -6.5,-1.84499 z m -18.5,-6 c -1.82797,-1.18132 -0.24909,-1.18132 2.5,0 1.31874,0.56668 1.48906,0.87815 0.5,0.9144 -0.825,0.0302 -2.175,-0.38124 -3,-0.9144 z m -9.5,-3 c -2.75,-1.01475 -4.325,-1.84499 -3.5,-1.84499 0.825,0 3.75,0.83024 6.5,1.84499 2.75,1.01475 4.325,1.84499 3.5,1.84499 -0.825,0 -3.75,-0.83024 -6.5,-1.84499 z m -84.31094,-2.25 c 0.78049,-1.2375 2.6885,-4.29497 4.24001,-6.79437 2.48276,-3.99961 10.09863,-9.76127 11.30629,-8.5536 0.22696,0.22695 -1.47165,3.39621 -3.77467,7.04279 -2.89823,4.58902 -5.3716,7.23432 -8.03417,8.59267 -4.92168,2.51085 -5.47551,2.46825 -3.73746,-0.28749 z m 65.31094,-3.75 c -1.26064,-0.54172 -1.44548,-0.85943 -0.5,-0.85943 0.825,0 2.4,0.38674 3.5,0.85943 1.26064,0.54172 1.44548,0.85943 0.5,0.85943 -0.825,0 -2.4,-0.38674 -3.5,-0.85943 z m -12,-4 c -1.31874,-0.56668 -1.48906,-0.87815 -0.5,-0.9144 0.825,-0.0302 2.175,0.38124 3,0.9144 1.82797,1.18132 0.24909,1.18132 -2.5,0 z m -17.5,-5.5 c -3.575,-1.28912 -6.02515,-2.37898 -5.44479,-2.42192 0.58037,-0.043 4.18037,1.01342 8,2.34749 3.81964,1.33406 6.26979,2.42392 5.44479,2.42192 -0.825,-0.002 -4.425,-1.05837 -8,-2.34749 z m -23.69712,-4.84692 c 0.51056,-1.33048 14.78328,-23.64152 58.21713,-91.00466 15.30392,-23.73542 18.52312,-28.13994 21.78231,-29.80265 4.78779,-2.44255 6.40492,-5.34741 -17.76781,31.91646 -3.83103,5.90577 -12.18655,18.83777 -18.56784,28.73777 -35.74171,55.45011 -37.03514,57.34285 -40.63918,59.46928 -2.51488,1.48382 -3.40919,1.686 -3.02461,0.6838 z m 9.69712,0.34692 c -1.82797,-1.18132 -0.24909,-1.18132 2.5,0 1.31874,0.56668 1.48906,0.87815 0.5,0.9144 -0.825,0.0302 -2.175,-0.38124 -3,-0.9144 z m 71,-124.50904 c 0,-0.27997 2.475,-4.32997 5.5,-9 3.025,-4.67003 8.05342,-12.42846 11.17428,-17.24096 10.72051,-16.53155 55.99586,-86.75222 58.65666,-90.9747 2.58203,-4.09746 7.21494,-8.06275 8.23198,-7.04571 0.27528,0.27527 -7.95127,13.61364 -18.28121,29.64081 -10.32994,16.02717 -27.49983,42.7504 -38.15531,59.38495 -17.23324,26.90327 -23.74805,35.74465 -26.33863,35.74465 -0.43327,0 -0.78777,-0.22907 -0.78777,-0.50904 z M 1593.9331,402.24878 c -22.136,-7.21668 -107.7655,-34.56991 -108.3012,-34.59542 -0.3844,-0.0183 0.3219,-0.88461 1.5695,-1.92513 2.2328,-1.86225 2.3815,-1.85459 9.5,0.4891 19.1811,6.31516 102.5096,32.81131 104.5239,33.23567 2.1745,0.45812 2.205,0.57919 0.595,2.35827 -1.9608,2.16664 -2.4928,2.19616 -7.8872,0.43751 z m 0,-6.05194 c -5.5,-1.82482 -20.125,-6.54237 -32.5,-10.48344 -53.5616,-17.05777 -69.4249,-22.34383 -68.2692,-22.74906 1.143,-0.40079 11.4833,2.72866 48.2692,14.60854 7.975,2.5755 25.8529,8.2672 39.7287,12.64824 13.8757,4.38103 25.2382,8.30301 25.25,8.71551 0.034,1.19869 -1.8645,0.78184 -12.4787,-2.73979 z m -120.2903,-23.63943 -3.2903,-0.94885 1.9425,-2.71096 c 4.6011,-6.42121 10.2632,-9.71965 14.7511,-8.59326 1.3607,0.34153 2.342,0.95685 2.1806,1.36738 -0.6045,1.53686 -10.6794,12.01129 -11.4699,11.92472 -0.4531,-0.0496 -2.3043,-0.51717 -4.114,-1.03903 z m -18.6769,-6.22648 -2.9673,-1.2655 4.7418,-5.0693 c 5.0309,-5.37852 9.3228,-7.11301 12.8843,-5.20697 1.915,1.02487 1.7434,1.36821 -3.0819,6.16828 -2.8103,2.79565 -5.1097,5.4534 -5.1097,5.9061 0,1.18424 -3.026,0.93503 -6.4672,-0.53261 z m 15.1755,-3.82049 c -2.2453,-0.81899 -2.5639,-1.29286 -1.6276,-2.42106 1.3773,-1.6595 3.786,-1.78414 7.4629,-0.38618 2.2182,0.84335 2.464,1.26935 1.4426,2.5 -1.4018,1.68909 -3.2729,1.76808 -7.2779,0.30724 z m -33.4583,-1.85497 c -3.0273,-1.21682 -2.8702,-1.88704 1.5,-6.39785 4.9093,-5.06728 9.31,-6.95641 12.6548,-5.43242 l 2.4846,1.13206 -5.8647,5.86468 c -6.0068,6.00679 -6.8806,6.39877 -10.7747,4.83353 z m 39.75,-2.1463 c -1.375,-0.57787 -1.9863,-1.24557 -1.3585,-1.48377 0.6278,-0.23819 2.6528,0.22643 4.5,1.0325 2.3512,1.02602 2.7586,1.47104 1.3585,1.48377 -1.1,0.01 -3.125,-0.45462 -4.5,-1.0325 z m -24.8641,-1.89593 c -1.9553,-0.78288 -2.1503,-1.20432 -1.1276,-2.43661 1.4628,-1.76251 3.8144,-1.88973 7.6766,-0.4153 2.7152,1.03656 2.7462,1.1253 0.874,2.5 -2.209,1.62196 -4.0349,1.70853 -7.423,0.35191 z m -31.8859,-1.24491 c -3.9195,-1.17106 -3.994,-1.83975 -0.6874,-6.17489 4.2568,-5.58095 12.9494,-8.72354 14.9912,-5.41972 0.2875,0.46512 -2.082,3.48266 -5.2656,6.70565 -5.5387,5.60744 -5.9283,5.81814 -9.0382,4.88896 z m 38.5,-2.37103 c -2.9228,-0.76379 -1.9583,-2.39832 1,-1.69478 4.3387,1.03182 6.2387,2.34002 3.25,2.2377 -1.375,-0.0471 -3.2875,-0.29139 -4.25,-0.54292 z m -25,-2 c -2.1558,-0.56338 -2.2282,-1.66894 -0.2183,-3.33701 1.2336,-1.0238 2.3463,-1.02719 5.7166,-0.0174 3.9099,1.17143 4.0596,1.34547 2.2772,2.64878 -1.8817,1.37591 -4.3525,1.60015 -7.7755,0.70563 z m -31.75,-1.57313 c -1.925,-0.50451 -3.6579,-1.0723 -3.851,-1.26174 -0.193,-0.18944 0.8676,-1.94201 2.3569,-3.8946 4.6749,-6.12918 11.5004,-9.13247 15.2907,-6.7281 0.9486,0.60175 -0.2591,2.42992 -4.5,6.81211 -5.616,5.80299 -5.9057,5.96105 -9.2966,5.07233 z m 38.029,-2.69848 c -2.6493,-1.67543 -0.3409,-2.1743 3.1047,-0.67097 3.1048,1.35466 3.1721,1.47391 0.8663,1.53502 -1.375,0.0364 -3.162,-0.35238 -3.971,-0.86405 z m -23.8515,-1.39458 c -3.2951,-1.19348 -3.3059,-1.21829 -1.3127,-3.02217 1.738,-1.57281 2.4917,-1.65977 5.5725,-0.643 4.0475,1.3358 4.2635,1.7682 1.8127,3.62864 -2.0644,1.56713 -1.8501,1.56584 -6.0725,0.0365 z m -32.9275,-1.89123 c -1.7875,-0.57341 -3.25,-1.43932 -3.25,-1.92423 0,-1.704 8.9085,-9.76795 11.5132,-10.42168 1.4488,-0.36365 3.7002,-0.17549 5.0031,0.41812 2.3444,1.06819 2.3079,1.14149 -3.5488,7.12692 -3.2547,3.32619 -6.0414,6.00168 -6.1926,5.94553 -0.1512,-0.0562 -1.7374,-0.57124 -3.5249,-1.14466 z m 38.3164,-2.65103 c -3.4587,-1.35444 -0.1716,-1.87776 3.4336,-0.54665 3.0173,1.11404 3.1552,1.29307 1,1.29807 -1.375,0.003 -3.3701,-0.33496 -4.4336,-0.75142 z m -23.3164,-1.34897 c -3.6825,-1.18131 -4.0854,-2.23578 -1.4029,-3.6714 1.2421,-0.66479 3.0442,-0.62111 5.5024,0.13335 3.4634,1.06293 3.5683,1.21811 1.998,2.95334 -1.8484,2.04248 -1.6212,2.02069 -6.0975,0.58471 z m -33,-1.87694 c -1.7875,-0.51342 -3.25,-1.21565 -3.25,-1.56051 0,-1.47801 5.4876,-7.64214 8.3658,-9.3972 3.4107,-2.07972 6.3142,-2.40667 8.5897,-0.96724 1.1684,0.73908 0.3799,2.0678 -3.9963,6.73469 -2.9986,3.19767 -5.6786,5.88366 -5.9556,5.96885 -0.277,0.0852 -1.9661,-0.26517 -3.7536,-0.77859 z m 38.75,-2.44453 -3.5,-1.27962 3,-0.006 c 1.65,-0.003 3.8671,0.33389 4.9269,0.74906 3.5677,1.39765 -0.6675,1.9108 -4.4269,0.53636 z m -24.25,-1.59406 c -5.6392,-2.05962 -1.3402,-5.44547 4.5995,-3.62252 3.4634,1.06293 3.5683,1.21811 1.998,2.95334 -1.847,2.0409 -2.6255,2.11987 -6.5975,0.66918 z m -33.511,-2.17256 -3.2611,-1.18269 3.1813,-3.85948 c 1.7498,-2.12272 4.5672,-4.70459 6.2611,-5.7375 1.988,-1.21227 2.4824,-1.87934 1.3948,-1.88175 -2.3685,-0.005 -7.2071,-1.94507 -6.533,-2.61912 0.6262,-0.62626 13.5489,3.533 14.1876,4.56637 0.2244,0.36314 -1.8144,2.84261 -4.5308,5.50992 -2.7164,2.66732 -4.9389,5.22979 -4.9389,5.69438 0,1.11 -1.7624,0.96007 -5.761,-0.49013 z m 39.261,-2.12905 c -2.3449,-1.07373 -2.5633,-1.38842 -1,-1.44124 3.1493,-0.10639 6.5315,1.04511 5.9297,2.01882 -0.7098,1.14855 -1.3148,1.07767 -4.9297,-0.57758 z m -820.85255,-0.78611 c 0.42098,-0.6875 3.48503,-5.3998 6.80901,-10.47179 3.32398,-5.07198 10.91213,-16.77198 16.86255,-26 5.95042,-9.22801 21.92542,-33.97226 35.5,-54.9872 13.57458,-21.01494 26.32004,-40.81494 28.32325,-44 11.02657,-17.53199 40.38306,-62.32607 42.95184,-65.53877 2.66244,-3.32983 9.69488,-8.21324 8.7633,-6.08534 -0.20059,0.45821 -3.91106,6.2331 -8.24548,12.8331 -8.94784,13.62485 -9.0509,13.7832 -29.28832,45 -8.20082,12.65 -19.166,29.63901 -24.36706,37.75335 -5.20106,8.11435 -12.43111,19.36435 -16.06678,25 -3.63566,5.63566 -17.19444,26.67165 -30.13062,46.74665 -15.86854,24.62559 -24.58325,37.23198 -26.78759,38.75 -3.61182,2.48728 -5.50257,2.92454 -4.3241,1 z m 795.90285,-1.09853 -2.9497,-1.25833 2.2987,-1.61004 c 1.8417,-1.29 2.925,-1.39895 5.4497,-0.54812 4.1007,1.38199 4.157,1.45035 2.6711,3.24085 -1.5121,1.82186 -3.5012,1.86863 -7.4698,0.17564 z m -33.0175,-2.00717 -2.9673,-1.2655 4.796,-5.12723 c 5.0888,-5.44043 9.1332,-7.12752 12.617,-5.2631 1.9984,1.06954 1.8222,1.39768 -3.7941,7.06658 -3.2395,3.26972 -6.2937,5.92465 -6.7872,5.89985 -0.4934,-0.0248 -2.2325,-0.61458 -3.8644,-1.3106 z m 39.4672,-2.24028 -2.5,-1.52512 3.4688,0.5793 c 3.9462,0.65904 6.5905,2.56287 3.4812,2.50636 -1.0725,-0.0195 -3.075,-0.72173 -4.45,-1.56054 z m -23,-1.0622 c -0.825,-0.27515 -2.1132,-0.69495 -2.8626,-0.93288 -1.0906,-0.34624 -1.1161,-0.72971 -0.1276,-1.92077 1.4446,-1.74063 3.807,-1.88851 7.5338,-0.4716 2.2182,0.84335 2.464,1.26935 1.4426,2.5 -1.2352,1.48835 -3.19,1.75784 -5.9862,0.82525 z m -34.75,-2.37298 c -1.2375,-0.49742 -2.25,-1.3244 -2.25,-1.83775 0,-1.3901 9.1309,-10.13109 10.583,-10.13109 0.6894,0 1.8656,-0.23493 2.6139,-0.52207 0.7483,-0.28713 2.2084,0.098 3.2448,0.8558 1.778,1.30012 1.571,1.69631 -3.6704,7.02207 -5.6846,5.77617 -6.6139,6.18362 -10.5213,4.61304 z m 14.8859,-4.04223 c -1.9553,-0.78288 -2.1503,-1.20432 -1.1276,-2.43661 1.4628,-1.76251 3.8144,-1.88973 7.6766,-0.4153 2.7152,1.03656 2.7462,1.1253 0.874,2.5 -2.209,1.62196 -4.0349,1.70853 -7.423,0.35191 z m -30.1359,-0.72952 c -0.825,-0.26634 -2.5444,-0.87064 -3.821,-1.3429 l -2.3209,-0.85865 2.9851,-3.62147 c 5.2547,-6.37485 11.1387,-8.9408 14.9534,-6.52097 1.7506,1.11051 -9.6477,13.03773 -11.7966,12.34399 z m 36.75,-2.88642 c -2.9193,-0.76288 -1.9579,-2.39778 1,-1.70061 3.4502,0.81319 5.3735,2.43298 2.7,2.27394 -1.0725,-0.0638 -2.7375,-0.3218 -3.7,-0.57333 z m -25,-2 c -2.1558,-0.56338 -2.2282,-1.66894 -0.2183,-3.33701 1.2336,-1.0238 2.3463,-1.02719 5.7166,-0.0174 3.9099,1.17143 4.0596,1.34547 2.2772,2.64878 -1.8817,1.37591 -4.3525,1.60015 -7.7755,0.70563 z m -32.25,-1.62692 c -1.65,-0.60692 -3.1667,-1.2133 -3.3706,-1.3475 -0.8666,-0.57068 6.3292,-8.52205 8.9288,-9.86635 3.1452,-1.62645 6.748,-1.87932 8.7434,-0.61368 0.9534,0.60473 -0.3107,2.4733 -4.7251,6.98469 -3.3146,3.3875 -6.1504,6.11122 -6.3016,6.05271 -0.1512,-0.0585 -1.6249,-0.60295 -3.2749,-1.20987 z m 38.0664,-2.58153 c -1.2565,-0.49205 -1.5383,-1.00154 -0.8047,-1.45491 0.6209,-0.38374 2.616,-0.0481 4.4336,0.74592 3.041,1.32843 3.1052,1.44452 0.8047,1.45491 -1.375,0.006 -3.3701,-0.32946 -4.4336,-0.74592 z m -23.3164,-1.44963 c -3.8068,-1.24884 -3.968,-1.72313 -1.1776,-3.46571 1.6221,-1.01301 2.8313,-1.04374 5.5653,-0.14145 3.3538,1.10688 3.4244,1.22845 1.7726,3.05367 -0.9461,1.0455 -1.988,1.83762 -2.3153,1.76029 -0.3272,-0.0773 -2.0575,-0.6204 -3.845,-1.2068 z m -33,-1.89934 c -1.7875,-0.57341 -3.25,-1.41957 -3.25,-1.88035 0,-0.46078 1.9126,-2.8339 4.2503,-5.27361 4.6779,-4.88216 8.6421,-6.42498 12.266,-4.77383 2.3444,1.06819 2.3079,1.14149 -3.5488,7.12692 -3.2547,3.32619 -6.0414,6.00168 -6.1926,5.94553 -0.1512,-0.0562 -1.7374,-0.57124 -3.5249,-1.14466 z m 38.25,-2.75325 c -1.823,-0.78339 -1.7788,-0.85943 0.5,-0.85943 1.375,0 3.4,0.38674 4.5,0.85943 1.823,0.78339 1.7788,0.85943 -0.5,0.85943 -1.375,0 -3.4,-0.38674 -4.5,-0.85943 z m -23.25,-1.24675 c -3.7448,-1.2013 -3.9856,-1.81278 -1.3596,-3.45274 1.4159,-0.88426 2.797,-0.90233 5.5025,-0.072 3.4217,1.05015 3.5247,1.2051 1.9546,2.94004 -1.8484,2.04248 -1.6212,2.02069 -6.0975,0.58471 z m -33.5,-1.91553 c -1.5125,-0.55241 -2.75,-1.44308 -2.75,-1.97926 0,-0.53618 1.9125,-2.98872 4.25,-5.45008 4.4469,-4.6825 9.7221,-6.52577 12.75,-4.45512 1.2554,0.85852 0.8808,1.61578 -2.2977,4.64424 -2.0887,1.99015 -4.503,4.69487 -5.365,6.01048 -1.7059,2.60347 -2.4471,2.74185 -6.5873,1.22974 z m 39.25,-2.39329 c -3.0173,-1.11404 -3.1552,-1.29307 -1,-1.29807 3.1364,-0.007 6.6781,1.32858 5.4336,2.04949 -0.5135,0.29747 -2.5086,-0.0407 -4.4336,-0.75142 z m -24.9315,-1.83667 -3.4315,-1.24008 2.2334,-1.56434 c 1.7907,-1.25427 3.0232,-1.36386 6.218,-0.55293 3.8122,0.96764 3.9114,1.09228 2.2931,2.8805 -1.9359,2.13919 -2.5943,2.18212 -7.313,0.47685 z m -33.4038,-1.90954 -2.8353,-1.21158 2.3353,-2.99137 c 5.4599,-6.99377 10.7569,-9.67797 14.8138,-7.5068 1.9984,1.06954 1.8222,1.39768 -3.7941,7.06658 -3.2395,3.26972 -6.2937,5.92465 -6.7872,5.89985 -0.4934,-0.0248 -2.1731,-0.59032 -3.7325,-1.25668 z m 39.8353,-2.16211 c -2.3449,-1.07373 -2.5633,-1.38842 -1,-1.44124 3.1493,-0.10639 6.5315,1.04511 5.9297,2.01882 -0.7098,1.14855 -1.3148,1.07767 -4.9297,-0.57758 z m -24.8438,-1.84135 c -2.7861,-1.19042 -2.8047,-1.25041 -0.9151,-2.96044 1.6393,-1.4836 2.4409,-1.57231 5.3438,-0.59141 4.393,1.48444 4.4323,1.52903 2.9352,3.33292 -1.5018,1.80953 -3.5019,1.86899 -7.3639,0.21893 z m -32.5821,-1.57202 c -3.7446,-1.04643 -3.4889,-2.38967 1.3655,-7.17352 4.9671,-4.89489 8.4965,-6.30421 12.2316,-4.88412 2.4653,0.93728 2.4435,0.98016 -3.5153,6.939 -3.2977,3.29775 -6.3694,5.95104 -6.8259,5.89622 -0.4565,-0.0548 -1.9216,-0.40474 -3.2559,-0.77758 z m 40.4259,-1.83581 c -3.7743,-0.90785 -4.2467,-2.59771 -0.5312,-1.90042 1.9078,0.35805 3.9103,1.09255 4.45,1.63224 1.0447,1.04477 -0.3059,1.1372 -3.9188,0.26818 z m -24.5,-1.94511 c -0.825,-0.27515 -2.1132,-0.69495 -2.8626,-0.93288 -1.0906,-0.34624 -1.1161,-0.72971 -0.1276,-1.92077 1.4613,-1.76076 3.814,-1.8875 7.6751,-0.41347 2.7152,1.03656 2.7462,1.1253 0.874,2.5 -2.0122,1.47749 -3.0144,1.61578 -5.5589,0.76712 z m -34.75,-2.04755 c -3.1816,-0.61281 -2.8042,-2.41682 1.4144,-6.76059 4.6279,-4.76523 9.6113,-6.99168 12.3584,-5.52146 1.0875,0.58198 1.9772,1.22739 1.9772,1.43424 0,1.13248 -11.1181,11.53192 -12.2063,11.41736 -0.7116,-0.0749 -2.3062,-0.3312 -3.5437,-0.56955 z m 40.25,-2.00734 c -3.7743,-0.90785 -4.2467,-2.59771 -0.5312,-1.90042 1.9078,0.35805 3.9103,1.09255 4.45,1.63224 1.0447,1.04477 -0.3059,1.1372 -3.9188,0.26818 z m -25.75,-1.97626 c -2.1558,-0.56338 -2.2282,-1.66894 -0.2183,-3.33701 1.2336,-1.0238 2.3463,-1.02719 5.7166,-0.0174 3.9099,1.17143 4.0596,1.34547 2.2772,2.64878 -1.8817,1.37591 -4.3525,1.60015 -7.7755,0.70563 z m -29.75,-1.10024 c -0.825,-0.27368 -2.5294,-0.87828 -3.7877,-1.34358 l -2.2876,-0.84598 2.2677,-3.06719 c 4.8208,-6.52051 12.901,-10.26031 15.8331,-7.32815 1.3153,1.31531 -10.0724,13.23279 -12.0255,12.5849 z m 36.75,-2.89976 c -0.9625,-0.25152 -1.75,-0.90465 -1.75,-1.45138 0,-1.00918 3.2009,-0.35231 6,1.23126 1.1949,0.67604 1.0933,0.83123 -0.5,0.76304 -1.1,-0.0471 -2.7875,-0.29139 -3.75,-0.54292 z m -25.6562,-2.39961 c -2.3299,-0.93168 -2.3458,-1.00787 -0.5,-2.40481 2.2967,-1.73818 3.4519,-1.81957 6.9498,-0.48968 2.2182,0.84335 2.464,1.26935 1.4426,2.5 -1.3881,1.67259 -4.3286,1.81956 -7.8924,0.39449 z m -31.0981,-1.18849 c -1.9226,-0.49628 -3.6624,-1.06613 -3.8663,-1.26634 -0.2038,-0.2002 1.0823,-2.1983 2.8579,-4.44022 3.5325,-4.46008 7.6399,-7.02449 11.213,-7.0007 5.0533,0.0336 4.8716,1.43969 -0.9808,7.58996 -5.5481,5.8305 -5.8379,5.99128 -9.2238,5.1173 z m 37.5707,-2.62035 c -1.2565,-0.49205 -1.5383,-1.00154 -0.8047,-1.45491 0.6209,-0.38374 2.616,-0.0481 4.4336,0.74592 3.041,1.32843 3.1052,1.44452 0.8047,1.45491 -1.375,0.006 -3.3701,-0.32946 -4.4336,-0.74592 z m -23.3164,-1.34897 c -3.7569,-1.20517 -4.0845,-2.23625 -1.201,-3.77946 1.4984,-0.80194 2.9937,-0.78477 5.5653,0.0639 3.3766,1.1144 3.448,1.23599 1.796,3.06139 -1.9163,2.1175 -1.6776,2.09216 -6.1603,0.65415 z m -33,-2.0056 c -1.7875,-0.57033 -3.25,-1.44807 -3.25,-1.95052 0,-0.50245 1.9125,-2.92739 4.25,-5.38875 4.4113,-4.64509 9.6946,-6.51988 12.7055,-4.50859 1.1806,0.78859 0.4254,2.07087 -3.9963,6.78626 -2.9986,3.19767 -5.6786,5.87799 -5.9556,5.95627 -0.277,0.0783 -1.9661,-0.32433 -3.7536,-0.89467 z m 38.25,-2.74765 c -1.7171,-0.73788 -1.5757,-0.8672 1,-0.9144 1.65,-0.0302 3.675,0.38124 4.5,0.9144 1.1822,0.76401 0.9704,0.95773 -1,0.9144 -1.375,-0.0302 -3.4,-0.44171 -4.5,-0.9144 z m -23.25,-1.11878 c -3.5491,-1.02477 -4.0151,-2.00139 -1.8229,-3.82075 1.1007,-0.9135 2.3609,-0.90467 5.5093,0.0386 3.8799,1.16247 3.9997,1.31409 2.4178,3.06197 -1.8512,2.04565 -1.6116,2.01737 -6.1042,0.72017 z m -34.2305,-2.28997 -3.4806,-1.25659 4.9806,-5.19995 c 5.1585,-5.38578 10.2548,-7.358 13.4711,-5.21324 1.2243,0.81636 0.5542,1.91094 -3.75,6.12566 -2.8823,2.82243 -5.2406,5.54146 -5.2406,6.04228 0,1.18876 -1.7004,1.04712 -5.9805,-0.49816 z m 38.4805,-2.59125 c -1.823,-0.78339 -1.7788,-0.85943 0.5,-0.85943 1.375,0 3.4,0.38674 4.5,0.85943 1.823,0.78339 1.7788,0.85943 -0.5,0.85943 -1.375,0 -3.4,-0.38674 -4.5,-0.85943 z m -23.4038,-1.15863 c -3.3443,-0.96116 -3.3705,-1.01134 -1.5,-2.87218 1.6685,-1.65983 2.4336,-1.7588 6.1903,-0.80065 4.1049,1.04695 4.2149,1.17248 2.595,2.96237 -1.8742,2.071 -2.3798,2.12031 -7.2853,0.71046 z m -33.5634,-2.19707 -2.9673,-1.2655 4.796,-5.12723 c 5.1013,-5.45376 9.1335,-7.12737 12.6446,-5.24829 2.0462,1.09506 1.9391,1.31788 -2.9413,6.12194 -2.7856,2.74204 -5.0648,5.4106 -5.0648,5.93015 0,1.29473 -2.8998,1.11042 -6.4672,-0.41107 z m 39.9672,-2.19901 -3,-1.46449 3.375,0.5096 c 1.8563,0.28028 3.7953,0.5096 4.309,0.5096 0.5137,0 0.6559,0.45 0.316,1 -0.7936,1.2841 -1.3625,1.22098 -5,-0.55471 z m -24.8757,-1.76359 c -2.5927,-1.1072 -2.7149,-1.36162 -1.2416,-2.58437 1.0603,-0.87998 2.9039,-1.15023 5.2497,-0.76956 4.6348,0.75212 5.169,1.35442 2.7946,3.15076 -2.3294,1.76232 -3.098,1.78527 -6.8027,0.20317 z m -32.5502,-1.55896 c -3.7872,-1.05834 -3.5047,-2.50046 1.4457,-7.38094 4.8635,-4.79478 8.3606,-6.11799 12.2555,-4.63714 2.3213,0.88256 2.2372,1.04285 -3.6194,6.89944 -3.2977,3.29775 -6.3694,5.95104 -6.8259,5.89622 -0.4565,-0.0548 -1.9216,-0.40474 -3.2559,-0.77758 z m 40.4259,-1.83581 c -2.5964,-0.62451 -4.393,-2.29157 -2.45,-2.27328 2.6182,0.0247 5.95,1.20225 5.95,2.10298 0,0.92989 -0.2845,0.94373 -3.5,0.1703 z m -24.5,-1.94511 c -0.825,-0.27515 -2.1132,-0.69495 -2.8626,-0.93288 -1.0906,-0.34624 -1.1161,-0.72971 -0.1276,-1.92077 1.4613,-1.76076 3.814,-1.8875 7.6751,-0.41347 2.7152,1.03656 2.7462,1.1253 0.874,2.5 -2.0122,1.47749 -3.0144,1.61578 -5.5589,0.76712 z m -34,-2 c -0.825,-0.27515 -2.0962,-0.68844 -2.825,-0.91843 -0.9411,-0.29702 -0.5066,-1.40831 1.5,-3.83618 5.6736,-6.8647 11.4294,-9.69381 14.7628,-7.25633 1.6119,1.17864 1.2902,1.77028 -3.7946,6.97847 -5.3904,5.52112 -6.4773,6.08836 -9.6432,5.03247 z m 38,-2.55753 c -1.9186,-0.83568 -2.1203,-1.18159 -0.8673,-1.48734 0.898,-0.21913 3.148,0.26271 5,1.07074 3.0742,1.34127 3.1497,1.47075 0.8673,1.48735 -1.375,0.01 -3.625,-0.47183 -5,-1.07075 z m -24.3657,-2.09849 -2.8657,-1.224 2.51,-1.34332 c 2.0202,-1.08118 3.2251,-1.10733 6.1743,-0.13401 3.3831,1.11651 3.5255,1.31457 1.8557,2.58062 -2.2174,1.68127 -3.9566,1.70862 -7.6743,0.12071 z m -31.3351,-1.10417 c -1.7356,-0.5949 -3.4352,-1.36634 -3.7768,-1.71431 -1.0642,-1.08404 8.8967,-10.52313 11.663,-11.05192 2.1154,-0.40439 4.4773,0.18587 6.5314,1.63223 0.1193,0.084 -2.3659,2.86683 -5.5225,6.18414 -5.5538,5.83646 -5.8414,5.99651 -8.8951,4.94986 z m 38.4508,-2.27096 c -0.9625,-0.25152 -1.75,-0.90465 -1.75,-1.45138 0,-1.00918 3.2009,-0.35231 6,1.23126 1.1949,0.67604 1.0933,0.83123 -0.5,0.76304 -1.1,-0.0471 -2.7875,-0.29139 -3.75,-0.54292 z m -23.4282,-1.68746 c -4.3722,-1.54514 -4.8456,-2.27252 -2.3488,-3.60876 2.1472,-1.14916 7.5746,-0.55552 8.492,0.92884 0.2683,0.43418 -0.2891,1.4675 -1.2386,2.29627 -1.3972,1.21957 -2.3323,1.29271 -4.9046,0.38365 z m -33.8218,-1.84345 c -4.1315,-1.45095 -4.1027,-1.30076 -1.0236,-5.33768 4.6138,-6.04907 13.0442,-9.64485 15.0403,-6.4151 0.5529,0.89468 -8.742,12.19407 -10.3975,12.63969 -0.3406,0.0917 -1.9692,-0.30744 -3.6192,-0.88691 z m 38.2378,-2.47144 c -0.9693,-0.25283 -1.5257,-0.84247 -1.2366,-1.31033 0.4978,-0.80547 6.1669,0.33682 7.3013,1.47115 0.6187,0.61868 -3.4946,0.5096 -6.0647,-0.16082 z m -23.4878,-1.55507 c -3.624,-1.16255 -3.9658,-1.91431 -1.7183,-3.77959 1.2216,-1.01385 2.3541,-1.02485 5.5934,-0.0543 3.9326,1.17825 4.0061,1.27822 2.3133,3.14878 -1.9467,2.15098 -1.703,2.12401 -6.1884,0.68514 z m -32.99997,-1.87203 c -1.7875,-0.51612 -3.25,-1.43982 -3.25,-2.05267 0,-0.61284 2.1857,-3.29998 4.85717,-5.97141 4.9572,-4.95724 8.6341,-6.12509 12.1428,-3.85683 1.2456,0.80524 0.8881,1.53515 -2.1087,4.30431 -1.9848,1.83405 -4.3991,4.5408 -5.365,6.01501 -0.966,1.4742 -2.042,2.63979 -2.3913,2.59018 -0.3492,-0.0496 -2.0975,-0.51247 -3.88497,-1.02859 z m 38.31637,-2.779 c -1.0635,-0.41647 -1.5135,-1.01632 -1,-1.333 0.5135,-0.31669 2.2836,0.0191 3.9336,0.74627 2.257,0.99462 2.5046,1.32478 1,1.33301 -1.1,0.006 -2.8701,-0.32982 -3.9336,-0.74628 z m -24.3888,-1.45774 c -3.2756,-1.1864 -3.2946,-1.22858 -1.3454,-2.99263 1.7407,-1.5753 2.4679,-1.64221 6.0817,-0.5595 3.9016,1.16894 4.0223,1.3207 2.4403,3.0687 -1.9004,2.09993 -2.586,2.14611 -7.1766,0.48343 z m -32.99597,-1.99866 -3.3185,-1.20202 2.3185,-2.96995 c 5.4583,-6.99212 10.7446,-9.65408 14.8299,-7.4677 2.0546,1.0996 1.9522,1.31594 -2.9413,6.20943 -2.7886,2.78857 -5.0702,5.45585 -5.0702,5.92728 0,1.12592 -1.7508,0.97636 -5.8184,-0.49704 z m 39.81837,-2.20139 c -3.0173,-1.11404 -3.1552,-1.29307 -1,-1.29807 3.1364,-0.007 6.6781,1.32858 5.4336,2.04949 -0.5135,0.29747 -2.5086,-0.0407 -4.4336,-0.75142 z m -25.34367,-1.74967 c -2.7671,-1.18226 -2.7927,-1.26129 -0.9495,-2.92937 1.5665,-1.41772 2.5344,-1.5376 5.5938,-0.69286 3.93667,1.08698 4.41967,1.80725 2.49937,3.72747 -1.49087,1.49098 -3.47627,1.46173 -7.14367,-0.10524 z m -32.9063,-1.85704 c -1.5125,-0.55241 -2.75,-1.34274 -2.75,-1.75629 0,-0.41355 2.0368,-2.81789 4.5262,-5.34297 4.858,-4.92755 9.0955,-6.54646 12.4444,-4.75423 1.9861,1.06294 1.7979,1.40726 -3.8614,7.06658 -6.3698,6.36987 -6.2176,6.29953 -10.3592,4.78691 z m 39.74997,-2.39243 -2.99997,-1.46449 3.37497,0.5096 c 1.8563,0.28028 3.7953,0.5096 4.3091,0.5096 0.5137,0 0.6559,0.45 0.3159,1 -0.7936,1.2841 -1.3625,1.22098 -5,-0.55471 z m -24.84367,-1.75053 c -2.7862,-1.19042 -2.8048,-1.25041 -0.9152,-2.96044 1.6394,-1.4836 2.4409,-1.57231 5.3438,-0.59141 4.5083,1.5234 4.5878,1.63665 2.3421,3.33562 -2.3261,1.75982 -3.1001,1.78454 -6.7707,0.21623 z m -32.5821,-1.57202 c -3.7806,-1.05648 -3.5132,-2.52583 1.3437,-7.38275 4.9844,-4.98434 8.1465,-6.23633 12.0257,-4.76144 l 2.5824,0.98182 -5.9271,6.01982 c -3.2599,3.31089 -6.3032,5.97495 -6.763,5.92013 -0.4597,-0.0548 -1.9275,-0.40474 -3.2617,-0.77758 z m 40.4258,-1.83581 c -2.5964,-0.62451 -4.393,-2.29157 -2.45,-2.27328 2.6182,0.0247 5.95,1.20225 5.95,2.10298 0,0.92989 -0.2845,0.94373 -3.5,0.1703 z m -26.3879,-2.36913 c -2.2847,-0.9141 -2.3129,-1.03842 -0.6514,-2.87436 1.4021,-1.54927 2.2474,-1.73257 4.388,-0.95151 1.4582,0.53207 3.2829,1.19144 4.0548,1.46526 1.103,0.39126 0.996,0.8063 -0.5,1.93852 -2.1958,1.66191 -3.9403,1.7629 -7.2914,0.42209 z m -32.11207,-1.57598 c -0.825,-0.27515 -2.08855,-0.6855 -2.80789,-0.91188 -0.93209,-0.29333 -0.53095,-1.43021 1.3961,-3.95671 4.86895,-6.38351 11.48046,-9.60592 14.77146,-7.19948 1.5083,1.10287 1.1186,1.82764 -3.7522,6.97847 -5.25521,5.55725 -6.39496,6.16104 -9.60747,5.0896 z m 38.49997,-2.89653 -3,-1.46449 3.4688,0.52835 c 1.9078,0.29059 3.9103,0.96991 4.45,1.5096 1.4782,1.4782 -1.4044,1.14213 -4.9188,-0.57346 z m -25.5,-1.57759 c -2.4304,-0.97757 -2.446,-1.04534 -0.5588,-2.43662 2.3364,-1.72254 3.3051,-1.76411 7.4484,-0.31972 2.9489,1.02798 3.0539,1.21317 1.3993,2.4682 -2.0992,1.5922 -4.8122,1.6865 -8.2889,0.28814 z m -30.70075,-1.28607 c -1.73562,-0.5949 -3.46119,-1.39234 -3.83459,-1.77211 -0.37341,-0.37976 1.59787,-2.96726 4.38061,-5.75 4.04925,-4.04925 5.71798,-5.05646 8.35714,-5.04421 6.12261,0.0284 6.12244,1.17388 -10e-4,7.60914 -5.56091,5.84394 -5.84816,6.0039 -8.90202,4.95718 z m 38.45075,-2.27096 c -0.9625,-0.25152 -1.75,-0.90465 -1.75,-1.45138 0,-1.00918 3.201,-0.35231 6,1.23126 1.195,0.67604 1.0933,0.83123 -0.5,0.76304 -1.1,-0.0471 -2.7875,-0.29139 -3.75,-0.54292 z m -23.99997,-1.67773 c -2.0625,-0.54212 -3.75,-1.34047 -3.75,-1.77412 0,-1.57529 3.91003,-2.82681 6.93895,-2.22103 3.8906,0.77812 4.48656,1.69985 2.28747,3.53787 -1.34173,1.12142 -2.56201,1.22331 -5.47642,0.45728 z m -33.5,-1.87969 c -1.7875,-0.57341 -3.25,-1.38394 -3.25,-1.80116 0,-0.41723 1.9125,-2.85994 4.25,-5.42825 3.39506,-3.73031 5.07886,-4.77857 8.37035,-5.21103 5.85988,-0.76992 6.54336,1.11115 1.9711,5.42482 -2.02776,1.91308 -4.39213,4.55474 -5.25416,5.87035 -1.73248,2.6441 -1.53237,2.60645 -6.08729,1.14527 z m 38.31638,-2.65103 c -3.45871,-1.35444 -0.17158,-1.87776 3.43362,-0.54665 3.01726,1.11404 3.15518,1.29307 1,1.29807 -1.375,0.003 -3.37013,-0.33496 -4.43362,-0.75142 z m -23.31638,-1.34897 c -3.58122,-1.14882 -3.96176,-1.91766 -1.82633,-3.6899 1.07639,-0.89333 2.44158,-0.90745 5.59657,-0.0579 4.04602,1.08948 4.11964,1.1825 2.42134,3.0591 -1.95009,2.15483 -1.7059,2.12767 -6.19158,0.6887 z m -33.5,-1.91553 c -3.64875,-1.33264 -3.47167,-2.65304 0.96894,-7.22487 5.06557,-5.21526 9.75112,-6.86637 13.23363,-4.66332 1.16091,0.73439 0.40796,1.94717 -3.75,6.04005 -2.86141,2.81664 -5.20257,5.54624 -5.20257,6.06579 0,1.16457 -1.65314,1.09604 -5.25,-0.21765 z m 37.75,-2.83772 c -1.70508,-0.7327 -1.55762,-0.85943 1,-0.85943 1.65,0 3.9,0.38674 5,0.85943 1.70508,0.7327 1.55762,0.85943 -1,0.85943 -1.65,0 -3.9,-0.38674 -5,-0.85943 z m -23.32246,-1.35552 c -3.27562,-1.1864 -3.29458,-1.22858 -1.34534,-2.99263 1.7407,-1.5753 2.46794,-1.64221 6.0817,-0.5595 3.90159,1.16894 4.02227,1.3207 2.44035,3.0687 -1.90041,2.09993 -2.58608,2.14611 -7.17671,0.48343 z m -32.95749,-1.98569 -3.27995,-1.18905 2.3749,-3.21898 c 4.79398,-6.49788 10.64792,-9.41134 14.62898,-7.28074 2.04561,1.09478 1.89622,1.3763 -3.75963,7.08503 -3.23944,3.26972 -6.06864,5.91071 -6.28712,5.86887 -0.21847,-0.0418 -1.87321,-0.61115 -3.67718,-1.26513 z m 39.77995,-2.21436 c -3.01726,-1.11404 -3.15518,-1.29307 -1,-1.29807 3.13643,-0.007 6.67805,1.32858 5.43362,2.04949 -0.51349,0.29747 -2.50862,-0.0407 -4.43362,-0.75142 z M 866.52938,169.528 c -3.35164,-0.96327 -3.37449,-1.00754 -1.49166,-2.89038 1.67458,-1.67457 2.37696,-1.76946 5.65378,-0.76377 2.05791,0.63159 3.74166,1.50701 3.74166,1.94538 0,0.72136 -3.42443,2.99425 -4.18426,2.77721 -0.17366,-0.0496 -1.84744,-0.5304 -3.71952,-1.06844 z m -33.34622,-2.00365 c -1.5125,-0.55241 -2.75,-1.37559 -2.75,-1.82928 0,-1.69061 8.71883,-9.72106 11.24191,-10.35431 1.44061,-0.36157 3.78137,-0.21558 5.20168,0.32442 l 2.58238,0.98182 -5.92708,6.01982 c -6.34113,6.44034 -6.19848,6.37339 -10.34889,4.85753 z m 39.75,-2.30161 c -1.65,-0.75552 -2.325,-1.40408 -1.5,-1.44124 2.47347,-0.11141 6,1.07689 6,2.02176 0,1.17762 -0.9194,1.05902 -4.5,-0.58052 z m -24.81113,-1.71877 c -2.63082,-0.95903 -2.70679,-1.14006 -1.18436,-2.82232 1.36766,-1.51125 2.2136,-1.63735 5.31113,-0.7917 4.73837,1.29362 4.92358,1.52591 2.61136,3.27521 -2.23514,1.69098 -2.93265,1.72605 -6.73813,0.33881 z m -33.92877,-1.97625 -2.7399,-1.00102 2.636,-3.45597 c 4.92237,-6.45356 11.31498,-9.59252 14.61518,-7.17647 1.62789,1.19176 1.33111,1.76238 -3.66396,7.04459 -5.64496,5.96946 -6.30463,6.24853 -10.84732,4.58887 z m 39.7399,-2.30498 c -2.34495,-1.07373 -2.5633,-1.38842 -1,-1.44124 2.94165,-0.0994 6.5,1.00741 6.5,2.02176 0,1.23784 -1.98686,1.02813 -5.5,-0.58052 z m -24.75558,-1.70025 -2.75557,-1.00624 2.22915,-1.80506 c 1.7042,-1.37998 2.82409,-1.58842 4.75557,-0.88514 1.38954,0.50596 3.158,1.14395 3.92993,1.41777 1.103,0.39126 0.99595,0.8063 -0.5,1.93852 -2.20258,1.66705 -3.82775,1.73922 -7.65908,0.34015 z m 7.75558,-3.54893 c -3.77434,-0.90785 -4.24673,-2.59771 -0.53125,-1.90042 1.90781,0.35805 3.91031,1.09255 4.45,1.63224 1.04477,1.04477 -0.30585,1.1372 -3.91875,0.26818 z m -45.5,-8.44161 c -39.18624,-12.7131 -54.34704,-17.59679 -69.42065,-22.36221 -14.65889,-4.63432 -14.88082,-4.7471 -12.65087,-6.42916 2.19209,-1.6535 3.06214,-1.45951 25.42065,5.66786 12.73298,4.05898 27.20087,8.66563 32.15087,10.237 28.61216,9.08292 51.10207,16.35988 51.79856,16.76023 1.39685,0.80292 -1.45791,3.28457 -3.671,3.19121 -1.17016,-0.0494 -11.80256,-3.22858 -23.62756,-7.06493 z m 10,-2.96878 c -10.175,-3.30065 -29.075,-9.37539 -42,-13.49943 -38.74988,-12.3641 -45.5584,-14.69028 -44.26252,-15.12259 0.68061,-0.22706 21.15561,5.96166 45.5,13.75271 62.72138,20.07304 62.76252,20.08651 62.76252,20.56242 0,1.12101 -4.91409,-0.15064 -22,-5.69311 z"
     id="path6354"
     inkscape:connector-curvature="0" />
</svg>
