<?xml version="1.0" encoding="UTF-8" standalone="no"?><!DOCTYPE svg PUBLIC "-//W3C//DTD SVG 1.1//EN" "http://www.w3.org/Graphics/SVG/1.1/DTD/svg11.dtd"><svg width="100%" height="100%" viewBox="0 0 2363 294" version="1.1" xmlns="http://www.w3.org/2000/svg" xmlns:xlink="http://www.w3.org/1999/xlink" xml:space="preserve" xmlns:serif="http://www.serif.com/" style="fill-rule:evenodd;clip-rule:evenodd;stroke-linejoin:round;stroke-miterlimit:2;"><g><path d="M899.729,101.946c-11.096,0 -20.537,3.892 -28.3,11.654c-7.767,7.763 -11.642,17.196 -11.642,28.292c0,10.933 3.875,20.287 11.642,28.054c7.763,7.758 17.204,11.65 28.3,11.65c10.917,0 20.288,-3.892 28.038,-11.65c7.775,-7.767 11.662,-17.121 11.662,-28.054c0,-11.096 -3.887,-20.529 -11.662,-28.292c-7.75,-7.762 -17.121,-11.654 -28.038,-11.654Zm760.329,-97.425c-41.145,-1.646 -75.812,11.337 -103.987,38.95c-28.192,27.617 -42.284,62.108 -42.284,103.483c0.001,36.867 10.838,68.725 32.509,95.579c27.425,33.984 66.246,50.967 116.442,50.967c50.054,0 88.791,-17.8 116.225,-53.433c20.708,-26.855 31.058,-57.963 31.058,-93.317c0,-41.379 -13.883,-75.838 -41.654,-103.383c-27.779,-27.542 -63.875,-40.492 -108.309,-38.846Zm65.509,221.225c-6.692,19.254 -16.079,33.258 -28.142,42.021c-9.45,6.858 -21.208,10.275 -35.317,10.275c-20.945,0 -37.241,-7.946 -48.875,-23.838c-16.708,-22.737 -25.062,-57.879 -25.062,-105.412c0,-40.009 5.404,-70.688 16.229,-92.054c13.283,-26.034 32.658,-39.055 58.125,-39.055c13.821,0 26.038,3.775 36.663,11.305c10.604,7.541 19.333,20.445 26.174,38.729c6.842,18.296 10.275,45.862 10.275,82.712c0.001,30.967 -3.362,56.071 -10.07,75.317Zm-465.7,-55.333l-135.609,0l0,7.233l7.184,0c6.691,0 12.4,1.325 17.104,3.95c4.729,2.625 7.829,5.567 9.333,8.812c1.5,3.25 2.254,10.413 2.254,21.471l0,58.063c-7.375,2.746 -14.575,4.837 -21.612,6.266c-7.038,1.45 -13.904,2.167 -20.592,2.167c-19.258,0 -35.887,-4.733 -49.896,-14.188c-14,-9.45 -24.133,-24.254 -30.425,-44.395c-6.287,-20.142 -9.42,-43.575 -9.42,-70.3c0,-22.067 2.883,-43.571 8.65,-64.542c5.754,-20.963 15.579,-37.308 29.433,-49.021c13.862,-11.717 31.216,-17.579 52.083,-17.579c21.817,0 41.917,6.992 60.304,20.983c18.4,13.988 32.188,34.429 41.392,61.304l7.233,0l0,-98.42l-7.233,0c-2.746,7.912 -5.775,13.295 -9.067,16.137c-3.295,2.85 -6.858,4.271 -10.704,4.271c-2.462,0 -10.471,-2.575 -23.992,-7.725c-13.529,-5.158 -23.295,-8.283 -29.337,-9.383c-11.129,-2.192 -23.612,-3.296 -37.479,-3.296c-44.754,0 -81.879,14.45 -111.392,43.337c-29.521,28.888 -44.267,64.279 -44.267,106.171c0,23.404 4.796,44.567 14.396,63.463c7.53,14.641 17.98,27.816 31.35,39.529c13.359,11.704 28.792,21.154 46.263,28.342c17.475,7.183 39.454,10.775 65.908,10.775c20.696,0 40.671,-2.009 59.925,-6.013c19.259,-4.025 37.8,-9.975 55.629,-17.879l0,-58.063c0,-10.233 0.621,-16.662 1.85,-19.3c2.18,-4.975 5.284,-8.533 9.313,-10.679c4.037,-2.137 11.179,-3.554 21.421,-4.254l0,-7.237Zm-565.829,-165.892c-41.15,-1.646 -75.817,11.337 -103.992,38.95c-28.192,27.617 -42.271,62.108 -42.271,103.483c0,36.867 10.821,68.725 32.5,95.579c27.425,33.984 66.237,50.967 116.425,50.967c50.063,0 88.804,-17.8 116.238,-53.433c20.7,-26.855 31.066,-57.963 31.066,-93.317c0,-41.379 -13.887,-75.838 -41.658,-103.383c-27.775,-27.542 -63.879,-40.492 -108.308,-38.846Zm65.508,221.225c-6.708,19.254 -16.083,33.258 -28.133,42.021c-9.45,6.858 -21.221,10.275 -35.317,10.275c-20.963,0 -37.25,-7.946 -48.879,-23.838c-16.713,-22.737 -25.063,-57.879 -25.063,-105.412c0,-40.009 5.396,-70.688 16.221,-92.054c13.288,-26.034 32.658,-39.055 58.121,-39.055c13.829,0 26.042,3.775 36.662,11.305c10.617,7.541 19.33,20.445 26.18,38.729c6.854,18.296 10.275,45.862 10.275,82.712c0.004,30.967 -3.359,56.071 -10.067,75.317Zm701.404,28.287c-15.692,12.055 -36.554,18.084 -62.579,18.084l-16.658,0c-7.946,0 -13.705,-1.088 -17.267,-3.292c-3.558,-2.192 -5.996,-5.008 -7.296,-8.425c-1.304,-3.425 -1.942,-12.829 -1.942,-28.187l0,-78.584c13.288,0 23.442,1.754 30.438,5.246c7.004,3.5 13.137,10.329 18.412,20.483c5.284,10.155 8.742,23.196 10.388,39.109l7.9,0l0,-146.146l-7.9,0c-2.192,21.675 -7.263,38.067 -15.221,49.171c-7.954,11.108 -20.775,16.662 -38.458,16.662l-5.554,0l0,-113.554l28.633,0c21.108,0 35.521,1.238 43.2,3.704c13.158,4.121 23.346,10.575 30.537,19.359c7.209,8.779 12.792,23.262 16.775,43.433l7.9,0l0,-82.625l-233.375,0l0,7.237l9.229,0c9.03,0 16.138,1.942 21.325,5.813c3.696,2.637 6.225,6.371 7.596,11.217c0.675,2.908 1.034,10.725 1.034,23.462l0,183.663c0,14.133 -0.771,22.833 -2.28,26.154c-1.895,4.708 -4.629,8.033 -8.204,9.975c-4.921,2.908 -11.408,4.358 -19.475,4.358l-9.229,0l0,7.238l240.904,0l12.538,-88.663l-7.584,0c-6.82,24.688 -18.1,43.058 -33.787,55.108Zm-966.008,0c-15.696,12.055 -36.559,18.084 -62.588,18.084l-16.65,0c-7.946,0 -13.7,-1.088 -17.267,-3.292c-3.566,-2.192 -5.991,-5.008 -7.295,-8.425c-1.3,-3.425 -1.955,-12.829 -1.955,-28.188l0,-78.583c13.3,0 23.463,1.754 30.45,5.246c6.996,3.5 13.138,10.329 18.413,20.483c5.271,10.154 8.742,23.196 10.4,39.109l7.892,0l0,-146.146l-7.892,0c-2.208,21.675 -7.279,38.066 -15.229,49.171c-7.967,11.108 -20.784,16.662 -38.471,16.662l-5.558,0l0,-113.554l28.641,0c21.125,0 35.513,1.237 43.196,3.704c13.179,4.121 23.35,10.575 30.558,19.358c7.2,8.78 12.784,23.263 16.759,43.434l7.9,0l0,-82.625l-320.738,0l0,7.237c15.559,-0.271 26.646,3.596 33.267,11.596c4.812,5.933 7.221,17.325 7.221,34.158l0,119.675l-137.088,-172.666l-98.896,0l0,7.237c8.509,0.288 15.025,1.617 19.546,3.992c4.521,2.375 9.729,7.346 15.634,14.896l5.95,7.387l0,196.892c0,15.012 -3.013,25.633 -9.055,31.883c-6.029,6.259 -16.729,9.45 -32.087,9.592l0,7.238l99.075,0l0,-7.238l-6.588,0c-9.462,0 -17.858,-2.842 -25.195,-8.538c-7.338,-5.7 -11,-16.687 -11,-32.937l0,-177.583l187.9,232.55l6.95,0l0,-232.375c0,-13.246 1.129,-22.596 3.383,-28.046c2.267,-5.454 5.412,-9.388 9.442,-11.8c4.045,-2.417 11.95,-4.384 23.708,-5.904l4.429,0c9.021,0 16.138,1.941 21.329,5.812c3.704,2.638 6.234,6.371 7.592,11.217c0.679,2.908 1.025,10.725 1.025,23.462l0,183.663c0,14.133 -0.758,22.833 -2.25,26.154c-1.921,4.708 -4.654,8.033 -8.213,9.975c-4.916,2.908 -11.42,4.358 -19.483,4.358l-9.217,0l0,7.238l240.896,0l12.542,-88.663l-7.575,0c-6.863,24.68 -18.138,43.05 -33.808,55.1Zm1741.13,-223.308c-9.025,-3.904 -24.004,-5.787 -44.929,-5.662l0,205.733c0,10.575 0.5,17.062 1.508,19.45c0.992,2.392 2.688,4.225 5.071,5.471c3.387,1.887 8.267,2.825 14.667,2.825c20.92,0 36.891,-7.163 47.933,-21.509c15.029,-19.387 22.554,-52.033 22.554,-92.82c0,-32.85 -5.146,-59.092 -15.412,-78.721c-8.155,-15.359 -18.617,-29.234 -31.392,-34.767Zm15.442,199.479c-8.917,11.592 -21.7,17.213 -39.13,17.213c-6.216,0 -8.641,-1.088 -9.237,-1.425c-0.087,-0.046 -0.108,-0.063 -0.167,-0.088c-0.204,-1.2 -0.704,-4.983 -0.704,-15.104l0,-194.442c16.538,0.588 25.059,2.721 29.359,4.584c10.491,4.55 18.991,16.587 25.991,29.766c9.346,17.888 14.096,42.638 14.096,73.505c0,38.07 -6.792,68.704 -20.208,85.991Zm91.604,-162.737c-12.888,-22.625 -32.004,-43.163 -56.846,-54.296c-19.962,-8.917 -46.271,-13.142 -78.221,-13.142l-115.246,-0.029l-28.087,0l-1.317,9.621c-0.75,5.433 -2.171,7.204 -2.587,7.625c-0.929,0.929 -1.629,1.137 -2.488,1.154c-0.629,-0.075 -4.508,-0.696 -18.112,-5.996c-21.204,-8.233 -41.709,-12.404 -60.967,-12.404c-26.187,0 -51.25,6.558 -74.5,19.504c-23.346,13 -42.137,31.513 -55.846,55.029c-13.704,23.484 -20.654,48.717 -20.654,74.988c0,24.954 6.288,48.8 18.679,70.875c12.517,22.312 30.554,39.671 53.6,51.571c22.671,11.712 48.85,17.637 77.771,17.637c22.163,0 41.946,-3.704 58.808,-11.021c16.8,-7.291 33.08,-19.095 48.388,-35.1l3.083,-3.229l0,-56.579l-19.579,22.779c-13.825,16.084 -26.937,27.454 -38.983,33.8c-11.675,6.159 -24.763,9.271 -38.909,9.271c-16.929,0 -30.712,-4.058 -40.925,-12.058c-10.412,-8.129 -18.25,-20.621 -23.312,-37.1c-5.413,-17.621 -8.15,-37.55 -8.15,-59.221c0,-21.663 3.696,-41.529 10.996,-59.063c5.354,-12.945 13.604,-23.116 25.187,-31.12c11.5,-7.93 23.771,-11.792 37.513,-11.792c16.554,0 30.979,5.229 44.1,15.996c13.05,10.704 22.158,26.604 27.075,47.258l2.037,8.558l27.175,0l0,-82.325l9.342,0c6.342,0 9.679,1.18 11.362,2.171c2.809,1.659 3.542,2.913 3.713,3.304c0.204,0.675 1.237,10.85 1.237,26.488l0,168.367c0,14.02 -0.65,18.533 -0.912,19.766c-0.792,1.621 -2.125,3.079 -4.079,4.242c-1.229,0.742 -4.338,1.971 -11.321,1.971l-19.596,0l0,28.908l125.5,0c17.325,0 29.863,-0.812 38.329,-2.467c18.188,-3.441 33.963,-8.429 46.813,-14.841c13.129,-6.529 24.883,-15.346 34.925,-26.15c10.108,-10.879 18.408,-24.729 24.675,-41.175c6.241,-16.35 9.408,-36.975 9.408,-56.25c0.004,-27.879 -6.412,-53.288 -19.079,-75.525Zm-261.446,32.379l-7.238,0c-5.525,-23.179 -15.808,-40.942 -30.854,-53.288c-15.05,-12.35 -32.108,-18.525 -51.162,-18.525c-15.925,0 -30.542,4.588 -43.833,13.759c-13.292,9.179 -23.009,21.179 -29.159,36.012c-7.9,18.984 -11.85,40.088 -11.85,63.338c0,22.875 2.884,43.704 8.65,62.496c5.767,18.787 14.8,32.983 27.092,42.604c12.287,9.625 28.221,14.416 47.792,14.416c16.041,0 30.737,-3.512 44.104,-10.545c13.354,-7.042 27.429,-19.175 42.237,-36.396l0,22.071c-14.325,14.975 -29.254,25.829 -44.771,32.579c-15.512,6.725 -33.641,10.1 -54.379,10.1c-27.271,0 -51.487,-5.471 -72.658,-16.4c-21.175,-10.938 -37.513,-26.646 -49.004,-47.138c-11.505,-20.483 -17.246,-42.283 -17.246,-65.412c0,-24.384 6.367,-47.509 19.125,-69.379c12.758,-21.867 29.962,-38.83 51.646,-50.905c21.679,-12.062 44.7,-18.1 69.087,-18.1c17.963,0 36.934,3.888 56.921,11.646c11.563,4.509 18.908,6.763 22.054,6.763c4.017,0 7.509,-1.471 10.454,-4.413c2.959,-2.946 4.871,-7.604 5.759,-13.996l7.233,0l0,88.713Zm260.712,95.429c-5.779,15.163 -13.245,27.679 -22.42,37.554c-9.171,9.871 -19.755,17.8 -31.742,23.767c-12,5.979 -26.667,10.604 -43.988,13.875c-7.683,1.504 -19.733,2.258 -36.187,2.258l-114.363,0l0,-6.629l8.459,0c7.387,0 13.062,-1.175 17.008,-3.529c3.942,-2.346 6.858,-5.554 8.742,-9.613c1.129,-2.658 1.691,-10.658 1.691,-23.975l0,-168.366c0,-13.188 -0.687,-27.429 -2.062,-30.729c-1.379,-3.3 -4.167,-6.184 -8.371,-8.659c-4.192,-2.475 -9.862,-3.712 -17.008,-3.712l-8.459,0l0,-6.638l114.363,0c30.525,0 55.083,4.154 73.667,12.454c22.737,10.188 39.975,29.021 51.725,49.655c11.745,20.629 17.616,43.962 17.616,70c0,17.987 -2.879,37.129 -8.671,52.287Z" style="fill:#fff;fill-rule:nonzero;"/></g></svg>