<?xml version="1.0" encoding="UTF-8" standalone="no"?><!DOCTYPE svg PUBLIC "-//W3C//DTD SVG 1.1//EN" "http://www.w3.org/Graphics/SVG/1.1/DTD/svg11.dtd"><svg width="100%" height="100%" viewBox="0 0 2363 362" version="1.1" xmlns="http://www.w3.org/2000/svg" xmlns:xlink="http://www.w3.org/1999/xlink" xml:space="preserve" xmlns:serif="http://www.serif.com/" style="fill-rule:evenodd;clip-rule:evenodd;stroke-linejoin:round;stroke-miterlimit:2;"><g><path d="M187.175,175.317l0,-175.317l-52.733,0l0,122.588l-77.763,-122.588l-56.679,0l0,175.317l52.729,0l0,-126.538l81.709,126.538l52.737,0Z" style="fill:#f00;fill-rule:nonzero;"/><path d="M272.858,175.317l0,-118.634l-52.725,0l0,118.638l52.725,-0.004Z" style="fill:#f00;fill-rule:nonzero;"/><rect x="220.133" y="0" width="52.725" height="31.642" style="fill:#f00;fill-rule:nonzero;"/><path d="M457.404,175.317l0,-81.717c0,-17.142 -32.95,-40.867 -50.087,-40.867l-15.821,0c-11.858,0 -25.042,10.538 -36.904,15.813l0,-11.863l-52.729,0l0,118.638l52.725,0l0,-81.721c0,-7.913 18.458,-17.142 26.37,-17.142c7.904,0 22.404,9.225 22.404,17.142l0,81.721l54.042,-0.004Z" style="fill:#f00;fill-rule:nonzero;"/><g id="_x33_162_1_"><path d="M895.046,175.321l0,-81.725c0,-17.129 -32.95,-40.863 -50.104,-40.863l-15.813,0c-11.862,0 -25.037,10.542 -36.908,15.813l0,-11.863l-52.725,0l0,118.638l52.725,0l0,-81.725c0,-7.904 18.466,-17.129 26.354,-17.129c7.9,0 22.421,9.225 22.421,17.129l0,81.725l54.05,0Z" style="fill:#f00;fill-rule:nonzero;"/></g><path d="M543.075,175.317l0,-118.634l27.692,0l0,-15.821l-27.692,0l0,-25.041l-54.029,0l0,25.041l-27.692,0l0,15.821l27.692,0l0,118.638l54.029,-0.004Z" style="fill:#f00;fill-rule:nonzero;"/><path d="M644.583,52.729c-42.175,0 -77.762,28.996 -77.762,64.584c0,36.916 35.591,65.908 77.762,65.908c36.905,0 67.23,-21.092 75.138,-48.763l-54.046,0l0,15.813c0,13.179 -9.221,17.133 -21.096,17.133c-11.871,0 -19.766,-3.954 -19.766,-17.133l0,-32.954l97.55,0c0.004,-35.588 -34.284,-64.588 -77.78,-64.588Zm0,11.867c11.875,0 21.096,7.908 21.096,21.092l0,11.866l-40.862,0l0,-11.871c-0.004,-13.179 7.896,-21.087 19.766,-21.087Z" style="fill:#f00;fill-rule:nonzero;"/><path d="M1163.95,52.729c-43.508,0 -77.775,28.996 -77.775,64.584c0,36.916 34.267,65.908 77.775,65.908c42.159,0 77.763,-28.992 77.763,-65.908c0,-35.584 -35.604,-64.584 -77.763,-64.584Zm0,11.867c11.859,0 19.775,7.908 19.775,21.092l0,64.595c0,13.179 -7.917,17.134 -19.775,17.134c-13.183,0 -21.096,-3.955 -21.096,-17.134l0,-64.604c0.005,-13.175 7.913,-21.083 21.096,-21.083Z" style="fill:#f00;fill-rule:nonzero;"/><path d="M1012.37,0l0,64.592c0,0 -15.838,-11.863 -36.921,-11.863c-32.954,0 -60.638,28.996 -60.638,60.629c0,32.959 27.684,65.913 60.638,65.913c21.092,0 36.921,-7.909 36.921,-7.909l0,3.955l52.712,0l0,-175.317l-52.712,0Zm-19.788,72.504c11.867,0 19.788,9.225 19.788,21.096l0,48.771c0,11.871 -7.921,15.812 -19.788,15.812c-13.183,0 -21.096,-3.946 -21.096,-15.812l0,-48.771c0.009,-11.871 7.913,-21.096 21.096,-21.096Z" style="fill:#f00;fill-rule:nonzero;"/><path d="M1248.3,53.396c-14.163,0 -25.692,-11.533 -25.692,-25.713c0,-15.154 11.288,-27.025 25.692,-27.025c13.946,0 25.725,12.38 25.725,27.025c0,13.459 -12.258,25.713 -25.725,25.713Zm0,-51.404c-13.659,0 -24.359,11.283 -24.359,25.696c0,13.445 10.926,24.383 24.359,24.383c12.762,0 24.391,-11.621 24.391,-24.383c0.005,-13.93 -11.17,-25.696 -24.391,-25.696Zm6.021,36.571l-5.071,-8.892l-8.183,0l0,8.562l-1.33,0l0,-23.079l9.9,0c4.329,0 6.592,3.65 6.592,7.259c0,3.291 -1.879,6.612 -5.492,7.175l4.742,8.312l-1.158,0.663Zm-13.255,-10.221l8.571,0c3.613,0 5.263,-3.071 5.263,-5.929c0,-2.859 -1.65,-5.93 -5.263,-5.93l-8.571,0l0,11.859Z" style="fill:#f00;fill-rule:nonzero;"/><path d="M236.95,361.483l0,-64.825c0,-12.287 -12.3,-24.583 -24.6,-24.583l-93.875,0l0,89.413l29.071,0l0,-60.346c0,-4.475 3.337,-8.95 7.812,-8.95l44.704,0c4.475,0 8.95,4.475 8.95,8.95l0,60.341l27.938,0Z" style="fill:#fff;fill-rule:nonzero;"/><g id="_x32_399_1_"><path d="M1014.73,361.483l0,-64.825c0,-12.287 -12.288,-24.583 -24.571,-24.583l-93.887,0l0,89.413l29.054,0l0,-60.346c0,-4.475 3.366,-8.95 7.812,-8.95l44.704,0c4.471,0 8.946,4.475 8.946,8.95l0,60.341l27.942,0Z" style="fill:#fff;fill-rule:nonzero;"/></g><path d="M1436.96,361.483l0,-64.825c0,-12.287 -12.288,-24.583 -24.576,-24.583l-93.887,0l0,89.413l29.058,0l0,-60.346c0,-4.475 3.363,-8.95 7.838,-8.95l44.704,0c4.471,0 8.933,4.475 8.933,8.95l0,60.341l27.93,0Z" style="fill:#fff;fill-rule:nonzero;"/><path d="M1183.53,361.483l0,-64.825c0,-12.287 -12.291,-24.583 -24.579,-24.583l-126.296,0l0,89.413l29.075,0l0,-60.346c0,-4.475 3.346,-8.95 7.813,-8.95l16.762,0c3.367,0 7.817,4.475 7.817,8.95l0,60.341l29.079,0l0,-60.341c0,-4.475 3.342,-8.95 7.817,-8.95l16.758,0c3.363,0 7.813,4.475 7.813,8.95l0,60.341l27.941,0Z" style="fill:#fff;fill-rule:nonzero;"/><path d="M98.358,361.483l-73.754,0c-12.3,0 -24.604,-7.829 -24.604,-20.116l0,-70.409l98.354,0l0,21.234l-65.933,0c-3.354,0 -7.813,3.362 -7.813,7.829c0,4.467 4.459,7.821 7.813,7.821l61.467,0l0,17.879l-61.467,0c-3.354,0 -7.813,4.475 -7.813,7.829c0,4.467 4.459,8.937 7.813,8.937l65.937,0l0,18.996Z" style="fill:#fff;fill-rule:nonzero;"/><path d="M461.633,361.483l-73.775,0c-12.287,0 -24.575,-7.829 -24.575,-20.116l0,-70.409l98.35,0l0,21.234l-65.945,0c-3.35,0 -7.825,3.362 -7.825,7.829c0,4.467 4.475,7.821 7.825,7.821l61.466,0l0,17.879l-61.466,0c-3.35,0 -7.825,4.475 -7.825,7.829c0,4.467 4.475,8.937 7.825,8.937l65.941,0l0,18.996l0.004,0Z" style="fill:#fff;fill-rule:nonzero;"/><path d="M1302.48,361.483l-73.779,0c-12.288,0 -24.575,-7.829 -24.575,-20.116l0,-70.409l98.354,0l0,21.234l-65.942,0c-3.362,0 -7.837,3.362 -7.837,7.829c0,4.467 4.475,7.821 7.837,7.821l61.467,0l0,17.879l-61.467,0c-3.362,0 -7.837,4.475 -7.837,7.829c0,4.467 4.475,8.937 7.837,8.937l65.942,0l0,18.996Z" style="fill:#fff;fill-rule:nonzero;"/><path d="M249.233,272.071l0,20.108l29.059,0c7.825,0 7.825,0 7.825,8.95l0,60.342l27.941,0l0,-60.334c0,-8.95 0,-8.95 8.942,-8.95l27.942,0l0,-20.108l-101.709,0l0,-0.008Z" style="fill:#fff;fill-rule:nonzero;"/><path d="M604.346,272.071l0,20.108l29.054,0c7.813,0 7.813,0 7.813,8.95l0,60.342l27.941,0l0,-60.334c0,-8.95 0,-8.95 8.95,-8.95l27.942,0l0,-20.108l-101.7,0l0,-0.008Z" style="fill:#fff;fill-rule:nonzero;"/><path d="M1453.35,272.071l0,20.108l29.058,0c7.813,0 7.813,0 7.813,8.95l0,60.342l27.937,0l0,-60.334c0,-8.95 0,-8.95 8.946,-8.95l27.942,0l0,-20.108l-101.696,0l0,-0.008Z" style="fill:#fff;fill-rule:nonzero;"/><path d="M481.692,272.071l0,89.412l29.066,0l0,-15.641c0,-4.475 3.342,-8.95 7.813,-8.95l36.883,0c4.475,0 7.813,4.475 7.813,8.95l0,15.641l24.6,0l0,-24.591c0,-3.355 -3.363,-7.813 -3.363,-12.288c0,-3.354 7.813,-11.175 7.813,-20.117l0,-7.829c0,-7.82 -12.288,-24.583 -20.104,-24.583l-90.521,0l0,-0.004Zm36.879,20.108l36.883,0c4.475,0 7.813,4.475 7.813,8.95l0,7.813c0,4.475 -3.338,7.829 -7.813,7.829l-36.883,0c-4.475,0 -7.813,-3.354 -7.813,-7.829l0,-7.813c0,-4.471 3.338,-8.95 7.813,-8.95Z" style="fill:#fff;fill-rule:nonzero;"/><path d="M738.742,272.071c-7.838,0 -20.125,16.762 -20.125,24.583l0,64.829l29.054,0l0,-24.591l52.542,0l0,24.591l29.054,0l0,-64.825c0,-7.821 -12.284,-24.583 -21.238,-24.583l-69.287,0l0,-0.004Zm16.771,20.108l36.866,0c3.363,0 7.838,4.475 7.838,8.95l0,15.642l-52.542,0l0,-15.642c-0.004,-4.471 3.358,-8.95 7.838,-8.95Z" style="fill:#fff;fill-rule:nonzero;"/><rect x="849.388" y="272.071" width="27.942" height="89.413" style="fill:#fff;fill-rule:nonzero;"/><g id="_x33_177_1_"><path d="M2362.21,361.242l0,-64.821c0,-12.288 -12.312,-24.584 -24.6,-24.584l-126.279,0l0,89.405l29.054,0l0,-60.346c0,-4.475 3.346,-8.95 7.813,-8.95l16.762,0c3.363,0 7.838,4.475 7.838,8.95l0,60.341l29.054,0l0,-60.341c0,-4.475 3.346,-8.95 7.821,-8.95l16.762,0c3.363,0 7.829,4.475 7.829,8.95l0,60.341l27.946,0l0,0.005Z" style="fill:#fff;fill-rule:nonzero;"/></g><g id="_x33_181_3_"><path d="M2191.32,361.242l-73.763,0c-12.287,0 -24.575,-7.83 -24.575,-20.117l0,-70.404l98.342,0l0,21.225l-65.95,0c-3.338,0 -7.813,3.362 -7.813,7.829c0,4.475 4.475,7.821 7.813,7.821l61.467,0l0,17.879l-61.467,0c-3.338,0 -7.813,4.475 -7.813,7.829c0,4.475 4.475,8.942 7.813,8.942l65.942,0l0,18.996l0.004,0Z" style="fill:#fff;fill-rule:nonzero;"/></g><g id="_x32_391_3_"><path d="M1978.92,271.829l0,20.117l29.063,0c7.812,0 7.812,0 7.812,8.95l0,60.333l27.938,0l0,-60.333c0,-8.95 0,-8.95 8.95,-8.95l27.937,0l0,-20.113l-101.7,0l0,-0.004Z" style="fill:#fff;fill-rule:nonzero;"/></g><g id="_x33_187_" serif:id="_x33_187"><path d="M1647.9,272.317c-7.812,0 -24.575,12.295 -24.575,20.108l0,12.304c0,7.821 16.763,20.108 24.575,20.108l49.179,0c4.475,0 8.929,4.475 8.929,7.83c0,4.458 -4.445,8.937 -8.929,8.937l-73.754,0l0,20.117l82.683,0c7.842,0 23.496,-12.288 23.496,-20.117l0,-12.287c0,-8.942 -15.654,-21.234 -23.496,-21.234l-49.154,0c-4.471,0 -8.946,-3.354 -8.946,-7.829c0,-4.467 4.475,-7.829 8.946,-7.829l72.65,0l0,-20.108l-81.604,0Z" style="fill:#fff;fill-rule:nonzero;"/></g><g id="_x33_187_1_"><path d="M1884.65,272.317c-7.837,0 -24.596,12.295 -24.596,20.108l0,12.304c0,7.821 16.759,20.108 24.596,20.108l49.179,0c4.45,0 8.929,4.475 8.929,7.83c0,4.458 -4.466,8.937 -8.929,8.937l-73.779,0l0,20.117l82.709,0c7.837,0 23.462,-12.288 23.462,-20.117l0,-12.287c0,-8.942 -15.625,-21.234 -23.462,-21.234l-49.18,0c-4.45,0 -8.937,-3.354 -8.937,-7.829c0,-4.467 4.475,-7.829 8.937,-7.829l72.642,0l0,-20.108l-81.571,0Z" style="fill:#fff;fill-rule:nonzero;"/></g><g><path d="M1738.42,272.317l0,40.233c0,7.821 12.288,20.117 20.125,20.117l20.1,0l0,29.054l29.079,0l0,-29.054l20.104,0c7.838,0 20.125,-12.296 20.125,-20.117l0,-40.233l-27.937,0l0,32.412c0,3.354 -4.479,7.821 -8.946,7.821l-35.754,0c-4.475,0 -8.95,-4.467 -8.95,-7.821l0,-32.412l-27.946,0Z" style="fill:#fff;fill-rule:nonzero;"/></g></g></svg>