<?xml version="1.0" encoding="UTF-8" standalone="no"?><!DOCTYPE svg PUBLIC "-//W3C//DTD SVG 1.1//EN" "http://www.w3.org/Graphics/SVG/1.1/DTD/svg11.dtd"><svg width="100%" height="100%" viewBox="0 0 2363 521" version="1.1" xmlns="http://www.w3.org/2000/svg" xmlns:xlink="http://www.w3.org/1999/xlink" xml:space="preserve" xmlns:serif="http://www.serif.com/" style="fill-rule:evenodd;clip-rule:evenodd;stroke-linejoin:round;stroke-miterlimit:2;"><g><g><path d="M141.583,453.871l-0.283,-173.279l22.433,0l0,207.487l-22.433,0l-119.429,-174.683l0.562,174.683l-22.433,0l0,-207.487l23.55,0l118.033,173.279Z" style="fill:#fff;fill-rule:nonzero;"/><path d="M188.792,280.592l110.079,0l0,20.466l-87.092,0l0,72.059l86.529,0l0,20.466l-86.529,0l0,74.03l87.092,0l0,20.466l-110.079,0l0,-207.487Z" style="fill:#fff;fill-rule:nonzero;"/><path d="M309.342,384.896c0,-63.921 49.629,-107.95 108.233,-107.95c60.842,0 108.229,46.546 108.229,107.387c0,60.85 -47.104,107.392 -108.229,107.392c-61.408,0 -108.233,-47.388 -108.233,-106.55l0,-0.279Zm23.271,-0.563c0,48.788 36.729,86.921 85.241,86.921c49.067,0 84.959,-39.525 84.959,-86.921c0,-47.387 -35.888,-86.921 -85.238,-86.921c-48.788,0 -84.962,38.692 -84.962,86.634l0,0.287Z" style="fill:#fff;fill-rule:nonzero;"/><path d="M717.333,334.425c-6.45,-8.971 -14.304,-16.542 -23.275,-22.429c-13.458,-9.254 -29.721,-14.583 -48.225,-14.583c-45.425,0 -84.958,34.766 -84.958,86.633c0,52.717 39.817,87.483 85.237,87.483c21.871,0 41.217,-7.562 55.517,-18.783c14.583,-11.5 24.675,-27.196 28.042,-43.467l-112.934,0l0,-19.066l139.85,0c-0.279,12.062 -3.083,27.195 -9.254,40.1c-17.946,38.975 -59.446,61.683 -101.221,61.683c-60.562,0 -108.508,-46.542 -108.508,-107.95c0,-62.242 48.788,-107.108 108.788,-107.108c42.058,0 81.033,23.554 97.295,57.479l-26.354,0l0,0.008Z" style="fill:#fff;fill-rule:nonzero;"/><path d="M767.708,280.592l114.959,0l0,20.466l-91.963,0l0,72.059l91.404,0l0,20.466l-91.404,0l0,74.03l91.963,0l0,20.466l-114.959,0l0,-207.487Z" style="fill:#fff;fill-rule:nonzero;"/><path d="M891.921,384.896c0,-63.921 49.629,-107.95 108.229,-107.95c60.846,0 108.229,46.546 108.229,107.387c0,60.85 -47.104,107.392 -108.229,107.392c-61.404,0 -108.229,-47.388 -108.229,-106.55l0,-0.279Zm23.271,-0.563c0,48.788 36.729,86.921 85.237,86.921c49.071,0 84.959,-39.525 84.959,-86.921c0,-47.387 -35.888,-86.921 -85.238,-86.921c-48.787,0 -84.958,38.692 -84.958,86.634l0,0.287Z" style="fill:#fff;fill-rule:nonzero;"/></g><g><path d="M1364.44,384.896c0,-63.921 49.625,-107.95 108.233,-107.95c60.846,0 108.233,46.546 108.233,107.387c0,60.85 -47.104,107.392 -108.233,107.392c-61.404,0 -108.233,-47.388 -108.233,-106.55l0,-0.279Zm23.266,-0.563c0,48.788 36.734,86.921 85.246,86.921c49.071,0 84.963,-39.525 84.963,-86.921c0,-47.387 -35.888,-86.921 -85.242,-86.921c-48.783,0 -84.967,38.692 -84.967,86.634l0,0.287Z" style="fill:#fff;fill-rule:nonzero;"/><path d="M1812.5,432.283c-13.454,31.967 -49.625,59.45 -95.329,59.45c-61.4,0 -108.229,-47.387 -108.229,-107.387c0,-59.167 45.704,-107.392 107.941,-107.392c51.309,0 83.555,34.209 95.613,60.563l-24.958,0c-7.017,-12.334 -30.559,-40.096 -70.655,-40.096c-48.504,0 -84.954,38.412 -84.954,86.637c0,49.071 36.721,87.205 84.954,87.205c43.467,0 65.609,-31.125 70.655,-38.975l24.962,0l0,-0.005Z" style="fill:#fff;fill-rule:nonzero;"/><path d="M2040.18,280.592l114.967,0l0,20.466l-91.967,0l0,72.059l91.4,0l0,20.466l-91.4,0l0,74.03l91.967,0l0,20.466l-114.967,0l0,-207.487Z" style="fill:#fff;fill-rule:nonzero;"/><path d="M2271.78,301.058l-66.862,0l0,-20.466l157.275,0l0,20.466l-67.138,0l0,187.021l-23.275,0l0,-187.021Z" style="fill:#fff;fill-rule:nonzero;"/></g><path d="M1981.56,488.079l28.884,0l-107.796,-104.033l99.096,-103.459l-25.229,0l-108.771,112.492l0,-112.487l-22.992,0l0,207.487l22.992,0l0,-67.616l21.166,-22.109l92.65,89.725Z" style="fill:#fff;fill-rule:nonzero;"/><path d="M1261.64,503.938c-45.159,-89.809 -90.192,-179.375 -135.255,-269.005c0.25,-0.175 0.45,-0.346 0.68,-0.458c11.237,-5.75 22.479,-11.5 33.712,-17.242c15.883,-8.108 31.771,-16.179 47.638,-24.329c16.679,-8.567 34.208,-13.721 53.129,-13.108c12.879,0.416 24.687,4.162 35.046,12.062c9.141,6.975 15.612,16.034 20.57,26.275c4.705,9.717 8.055,19.829 8.246,30.738c0.263,15.15 -4.316,28.85 -12.437,41.571c-5.442,8.508 -11.65,16.337 -18.934,23.266c-5.016,4.775 -10.379,9.184 -15.579,13.746c-19.041,-13.504 -37.671,-26.708 -56.379,-39.971c3.55,-12.971 7.054,-25.825 10.579,-38.712l53.917,0l0,-40.929c-27.842,0.266 -55.375,0.529 -82.904,0.804c-10.034,28.337 -20.013,56.521 -30.004,84.758c32.233,26.659 64.354,53.225 96.5,79.821c12.775,-4.871 24.891,-10.871 36.3,-18.279c18.183,-11.813 33.333,-26.65 44.462,-45.338c10.342,-17.37 15.529,-36.291 15.817,-56.495c0.175,-12.521 -1.725,-24.763 -5.409,-36.763c-4.883,-15.9 -12.445,-30.292 -23.975,-42.354c-21.625,-22.638 -48.137,-34.804 -79.508,-35.921c-18.542,-0.658 -36.083,3.529 -52.629,11.842c-7.454,3.75 -14.754,7.8 -22.258,11.433c-16.709,8.079 -33.5,15.988 -50.259,23.95c-14.779,7.025 -29.562,14.025 -44.341,21.029c-4.996,2.371 -9.996,4.75 -15,7.125c50.191,102.338 100.325,204.554 150.433,306.767c12.708,-5.467 25.15,-10.825 37.842,-16.284Z" style="fill:none;fill-rule:nonzero;"/><path d="M1261.64,503.938c-12.696,5.462 -25.134,10.816 -37.859,16.287c-50.104,-102.208 -100.241,-204.429 -150.433,-306.767c5.004,-2.375 10,-4.754 15,-7.125c14.779,-7.008 29.563,-14.008 44.342,-21.029c16.758,-7.962 33.55,-15.871 50.258,-23.95c7.504,-3.633 14.804,-7.683 22.258,-11.433c16.546,-8.317 34.088,-12.5 52.629,-11.842c31.371,1.117 57.884,13.284 79.509,35.921c11.529,12.063 19.091,26.45 23.975,42.354c3.683,11.996 5.583,24.242 5.408,36.763c-0.287,20.204 -5.471,39.125 -15.816,56.496c-11.134,18.683 -26.28,33.52 -44.467,45.337c-11.404,7.4 -23.521,13.404 -36.296,18.275c-32.146,-26.592 -64.267,-53.158 -96.5,-79.817c9.992,-28.237 19.971,-56.42 30.004,-84.758c27.529,-0.271 55.071,-0.537 82.904,-0.804l0,40.929l-53.916,0c-3.525,12.887 -7.034,25.742 -10.579,38.713c18.708,13.262 37.337,26.466 56.379,39.97c5.2,-4.562 10.562,-8.971 15.579,-13.745c7.283,-6.93 13.492,-14.759 18.929,-23.267c8.125,-12.721 12.708,-26.421 12.442,-41.571c-0.2,-10.908 -3.546,-21.021 -8.246,-30.738c-4.95,-10.241 -11.425,-19.3 -20.571,-26.275c-10.358,-7.9 -22.167,-11.641 -35.046,-12.062c-18.921,-0.613 -36.45,4.537 -53.129,13.108c-15.858,8.15 -31.754,16.221 -47.637,24.329c-11.238,5.742 -22.48,11.492 -33.713,17.242c-0.229,0.117 -0.433,0.288 -0.679,0.458c45.083,89.625 90.117,179.192 135.271,269Z" style="fill:#f10000;fill-rule:nonzero;"/><path d="M1293.5,110.525c-9.008,-1.854 -17.767,-3.663 -26.763,-5.517c5.238,-34.979 10.475,-69.95 15.725,-105.008c16.396,2.392 32.634,4.771 49.13,7.183c-12.73,34.534 -25.388,68.871 -38.092,103.342Z" style="fill:#f10000;fill-rule:nonzero;"/><path d="M1439.75,81.996c8.7,14.087 17.279,28 26.004,42.133c-28.413,17.592 -56.813,35.167 -85.3,52.796c-5.975,-8.917 -11.833,-17.671 -17.825,-26.629c25.688,-22.746 51.321,-45.45 77.121,-68.3Z" style="fill:#f10000;fill-rule:nonzero;"/><path d="M1371.12,27.008c12.571,8.688 24.912,17.225 37.308,25.792c-22.404,26.717 -44.741,53.354 -67.233,80.163c-7.867,-4.855 -15.663,-9.663 -23.679,-14.613c17.796,-30.312 35.62,-60.696 53.604,-91.342Z" style="fill:#f10000;fill-rule:nonzero;"/></g></svg>